<svg version="1.1" viewBox="0.0 0.0 720.0 720.0" fill="none" stroke="none" stroke-linecap="square" stroke-miterlimit="10" xmlns:xlink="http://www.w3.org/1999/xlink" xmlns="http://www.w3.org/2000/svg"><clipPath id="p.0"><path d="m0 0l720.0 0l0 720.0l-720.0 0l0 -720.0z" clip-rule="nonzero"/></clipPath><g clip-path="url(#p.0)"><path fill="#000000" fill-opacity="0.0" d="m0 0l720.0 0l0 720.0l-720.0 0z" fill-rule="evenodd"/><path fill="#4e81f4" d="m118.65354 150.02887l482.70865 0l0 59.527557l-482.70865 0z" fill-rule="evenodd"/><path fill="#4e81f4" d="m192.1916 361.41995l326.33075 0l0 59.527557l-326.33075 0z" fill-rule="evenodd"/><path fill="#4e81f4" d="m299.09183 179.82098l30.236206 200.0l-59.275574 8.913391l-30.236237 -200.0z" fill-rule="evenodd"/><path fill="#4e81f4" d="m150.7263 178.56l55.842514 194.3937l-57.196854 16.409454l-55.842514 -194.3937z" fill-rule="evenodd"/><path fill="#4e81f4" d="m389.151 387.6496l30.078735 -200.0315l59.275604 8.976379l-30.078766 200.0315z" fill-rule="evenodd"/><path fill="#4e81f4" d="m513.6829 373.0167l55.716553 -194.4567l57.228333 16.37796l-55.716553 194.4567z" fill-rule="evenodd"/><path fill="#4e81f4" d="m268.92126 411.72964l0 235.40158l-59.527557 0l0 -235.40158z" fill-rule="evenodd"/><path fill="#4e81f4" d="m510.6273 410.3622l0 236.75589l-59.527557 0l0 -236.75589z" fill-rule="evenodd"/><path fill="#4e81f4" d="m389.95276 29.141733l0 142.86613l-59.905518 0l0 -142.86613z" fill-rule="evenodd"/><path fill="#4e81f4" d="m268.92126 631.0735l0 29.763794l0 0c0 16.43805 -13.325699 29.763794 -29.763779 29.763794c-16.43808 0 -29.763779 -13.325745 -29.763779 -29.763794l0 -29.763794z" fill-rule="evenodd"/><path fill="#4e81f4" d="m510.6273 631.0735l0 29.763794l0 0c0 16.43805 -13.325684 29.763794 -29.763763 29.763794c-16.43808 0 -29.763794 -13.325745 -29.763794 -29.763794l0 -29.763794z" fill-rule="evenodd"/><path fill="#4e81f4" d="m362.61417 29.141733l29.763794 0l0 0c16.43808 0 29.763763 13.325697 29.763763 29.763777c0 16.43808 -13.325684 29.763779 -29.763763 29.763779l-29.763794 0z" fill-rule="evenodd"/><path fill="#4e81f4" d="m200.73009 352.44183l8.204727 28.614197l0 0c4.5313416 15.803162 -4.6062775 32.287537 -20.409454 36.81888c-15.803162 4.5313416 -32.28755 -4.606262 -36.818893 -20.409454l-8.204727 -28.614166z" fill-rule="evenodd"/><path fill="#4e81f4" d="m576.34625 370.77322l-8.204712 28.614166l0 0c-4.531372 15.803162 -21.015747 24.940796 -36.81891 20.409454c-15.803162 -4.5313416 -24.940826 -21.015717 -20.409454 -36.81891l8.204681 -28.614166z" fill-rule="evenodd"/><path fill="#4e81f4" d="m563.0941 200.20335l8.204712 -28.614166l0 0c4.531311 -15.803177 21.015747 -24.940796 36.81891 -20.409454c15.803162 4.5313416 24.940796 21.015732 20.409424 36.81891l-8.204712 28.614166z" fill-rule="evenodd"/><path fill="#4e81f4" d="m99.67675 216.61134l-8.204727 -28.614182l0 0c-4.5313416 -15.803162 4.6062775 -32.28755 20.409447 -36.818893c15.803177 -4.5313416 32.28755 4.6062775 36.818893 20.409454l8.204727 28.614166z" fill-rule="evenodd"/><path fill="#4e81f4" d="m211.0907 420.9477l-29.763779 0l0 0c-16.43808 0 -29.763779 -13.325714 -29.763779 -29.763794c0 -16.43808 13.325699 -29.763763 29.763779 -29.763763l29.763779 0z" fill-rule="evenodd"/><path fill="#4e81f4" d="m509.39896 361.41995l29.763763 0l0 0c16.43811 0 29.763794 13.325684 29.763794 29.763763c0 16.43808 -13.325684 29.763794 -29.763794 29.763794l-29.763763 0z" fill-rule="evenodd"/><path fill="#4e81f4" d="m357.3854 88.66926l-29.763763 0l0 0c-16.43808 0 -29.763794 -13.325699 -29.763794 -29.763783c0 -16.43808 13.325714 -29.763777 29.763794 -29.763777l29.763763 0z" fill-rule="evenodd"/></g></svg>