<?xml version="1.0" encoding="UTF-8" standalone="no"?><!DOCTYPE svg PUBLIC "-//W3C//DTD SVG 1.1//EN" "http://www.w3.org/Graphics/SVG/1.1/DTD/svg11.dtd"><svg width="100%" height="100%" viewBox="0 0 194 77" version="1.1" xmlns="http://www.w3.org/2000/svg" xmlns:xlink="http://www.w3.org/1999/xlink" xml:space="preserve" xmlns:serif="http://www.serif.com/" style="fill-rule:evenodd;clip-rule:evenodd;"><g><clipPath id="_clip1"><rect x="0" y="0" width="193.226" height="80.411" clip-rule="nonzero"/></clipPath><g clip-path="url(#_clip1)"><path d="M95.038,9.12c-19.248,0 -95.038,8.512 -95.038,8.512c0,0 0.704,12.096 1.648,24.575c0.944,12.48 3.952,26.847 3.952,26.847c0,0 78.926,7.52 89.422,7.52c10.496,0 89.422,-7.52 89.422,-7.52c0,0 3.008,-14.368 3.952,-26.847c0.944,-12.48 1.648,-24.575 1.648,-24.575c0,0 -75.806,-8.512 -95.038,-8.512l0.032,0Z" style="fill:#383638;fill-rule:nonzero;"/><path d="M66.223,24.991l8.32,0l21.056,32.831l-8.368,0l-21.008,-32.831Z" style="fill:#fff;fill-rule:nonzero;"/><path d="M102.862,11.872c-9.104,2.48 -15.872,7.296 -20.128,14.304c-4.48,7.392 -6.768,14 -8.768,19.84c-1.344,3.888 -2.512,7.264 -4.096,10.224c-4.8,2.848 -10.736,4.8 -18.624,6.112c-5.632,0.928 -13.072,1.632 -22.096,2.064c-9.504,-3.296 -17.504,-7.536 -17.584,-7.584l-1.104,-0.592l0,10.144l0.752,0c0.08,0 8.096,0 17.728,-0.448c10.176,3.504 18.24,4.656 23.983,3.44c9.056,-1.92 14.464,-5.536 18.08,-12.048c7.248,-4.416 12.064,-10.88 16.608,-22.288c1.632,-4.112 6.464,-14.448 15.952,-21.791c18.736,-4.992 42.495,1.152 52.655,3.792l0.624,-1.36c-26.031,-17.296 -43.695,-11.648 -53.967,-3.808l-0.016,0Z" style="fill:#383638;fill-rule:nonzero;stroke:#383638;stroke-width:2.37px;"/><path d="M9.456,37.839c0,-0.688 0,-1.984 0.24,-3.776c0.128,-1.488 0.624,-2.976 1.232,-4.336c3.232,-6.88 9.056,-7.696 12.336,-8l0,8.064c-1.12,0.128 -2.544,0.32 -3.904,2.048c-0.992,1.296 -1.424,3.344 -1.424,5.216c0,0.368 0,0.688 0.064,1.184l-8.56,-0.368l0.016,-0.032Z" style="fill:#fff;fill-rule:nonzero;"/><path d="M11.984,56.159c10.656,-8.752 11.056,-9.696 13.36,-12.304c1.792,-2.112 3.904,-5.2 3.904,-8.496c0,-4.336 -2.976,-5.152 -4.336,-5.52l0,-8.128c5.328,0.192 12.96,3.104 12.96,13.152c0,8.688 -9.92,18.384 -18.224,25.2l-7.648,-3.904l-0.016,0Z" style="fill:#fff;fill-rule:nonzero;"/><path d="M40.031,57.823l0,-32.831l7.392,0l0,32.815l-7.392,0l0,0.016Zm8.64,-26.832l0,-6l15.344,0l0,6l-15.344,0Zm0,12.464l0,-5.904l14.128,0l0,5.904l-14.128,0Zm0,14.368l0,-6.096l15.664,0l0,6.096l-15.664,0Z" style="fill:#fff;fill-rule:nonzero;"/><path d="M108.334,58.511c-1.904,-0.096 -4.144,-0.224 -6.88,-1.488c-4.512,-2.144 -8.976,-7.344 -8.976,-15.664c0,-7.808 4.224,-16.544 15.856,-16.96l0,6.096c-7.152,0.704 -7.904,7.44 -7.904,11.296c0,7.488 4.048,10.272 7.904,10.512l0,6.224l0,-0.016Zm7.312,-23.008c-0.272,-1.536 -1.44,-4.608 -6.048,-5.024l0,-6.096c3.2,0.144 5.248,0.832 6.416,1.344c5.712,2.608 6.736,7.488 7.104,9.2l-7.488,0.56l0.016,0.016Zm7.984,11.296c-0.272,1.536 -0.976,5.392 -4.272,8.272c-3.248,2.88 -7.072,3.216 -9.76,3.44l0,-6.224c4.928,-0.656 6.096,-3.808 6.272,-5.952l7.76,0.464Z" style="fill:#fff;fill-rule:nonzero;"/><path d="M127.021,57.823l0,-32.831l7.392,0l0,32.815l-7.392,0l0,0.016Zm8.64,-26.832l0,-6l15.344,0l0,6l-15.344,0Zm0,12.464l0,-5.904l14.128,0l0,5.904l-14.128,0Zm0,14.368l0,-6.096l15.664,0l0,6.096l-15.664,0Z" style="fill:#fff;fill-rule:nonzero;"/><path d="M154.509,57.823l0,-32.879l7.44,0l0,32.863l-7.44,0l0,0.016Zm8.608,0l0,-6.176l14.416,0l0,6.176l-14.416,0Z" style="fill:#fff;fill-rule:nonzero;"/><path d="M86.91,34.751c-6.544,16.448 -14.224,24.799 -35.535,28.335c-15.584,2.592 -40.159,2.528 -40.159,2.528l0,-8.128c0,0 26.735,14.288 41.551,11.136c23.248,-4.944 17.52,-20.511 30.623,-42.063c15.312,-25.231 58.879,-13.92 73.022,-10.256c-42.607,-28.287 -63.695,3.824 -69.502,18.448Z" style="fill:#f05623;fill-rule:nonzero;"/><path d="M183.148,11.744c0,0 -6.016,11.744 -6.064,11.84c-0.08,0.128 -1.184,1.92 -1.216,1.952c0,0 -1.584,2.848 -1.6,2.88c0,0 -0.944,1.92 -0.992,2.016c-0.064,0.096 -8.448,12.208 -8.448,12.208l5.088,2.768l0.4,-0.352c0.464,-0.416 11.376,-10.128 13.2,-13.408c1.824,-3.28 4.672,-16.736 4.768,-17.344l0.096,-0.528l-4.896,-2.768l-0.336,0.752l0,-0.016Z" style="fill:#383638;fill-rule:nonzero;stroke:#383638;stroke-width:2.37px;"/><path d="M177.756,25.376l0.672,-1.088c0,0 5.168,-9.824 5.776,-11.168c0.8,0.448 1.968,1.12 2.528,1.424c-0.912,5.248 -3.2,14 -4.512,16.351c0,0 0.336,0.192 0.656,0.368c-0.336,-0.176 -0.656,-0.368 -0.656,-0.368c-1.312,2.368 -8.512,9.12 -12.48,12.672c-0.576,-0.304 -1.856,-1.008 -2.688,-1.456c0.848,-1.216 7.552,-10.912 7.552,-10.912l0.56,-1.152l0.448,-0.928c0,0 1.584,-2.848 1.552,-2.816l0.576,-0.912l0.016,-0.016Z" style="fill:#4d4d4f;fill-rule:nonzero;"/><path d="M161.485,13.728l-2.32,3.36l-0.144,0.208l0,0.032l-0.416,0.704c-0.032,0.064 -0.144,0.304 -0.144,0.304l-0.112,0.272l-1.84,4.208l2.976,1.088l3.52,-3.44l0.352,-0.624l1.072,-4.816l-2.496,-1.968l-0.448,0.656l0,0.016Z" style="fill:#383638;fill-rule:nonzero;stroke:#383638;stroke-width:1.82px;"/><path d="M157.101,17.568c0.672,0.528 16.368,12.912 22.192,16.16c6.016,3.36 11.12,2.384 11.344,2.336l0.864,-0.176l-0.304,-0.832c-0.08,-0.208 -1.92,-5.056 -7.952,-8.416c-5.84,-3.248 -24.624,-10.096 -25.424,-10.384l-0.72,1.296l0,0.016Z" style="fill:#383638;fill-rule:nonzero;stroke:#383638;stroke-width:1.82px;"/><path d="M182.876,31.263c-1.76,3.2 -13.04,13.216 -13.04,13.216l-3.888,-2.112l8,-11.568l0.544,-1.104l0.48,-0.96l1.776,-2.848l0.576,-0.912l0.656,-1.04l5.904,-11.888l3.712,2.096c0,0 -2.352,10.064 -4.032,15.04c-0.304,0.88 -0.4,1.6 -0.656,2.064" style="fill:#f05623;fill-rule:nonzero;"/><path d="M162.637,19.568l0.944,-4.24l-1.488,-1.168l-2.144,3.12l-0.176,0.24l-0.144,0.224l-0.368,0.672l-0.112,0.24l-0.128,0.272l-1.504,3.472l1.776,0.64l3.104,-3.04l0.24,-0.432Z" style="fill:#f05623;fill-rule:nonzero;"/><path d="M179.66,33.071c-5.856,-3.264 -22.095,-16.096 -22.095,-16.096c0,0 19.455,7.072 25.311,10.336c5.856,3.264 7.616,8.016 7.616,8.016c0,0 -4.976,1.008 -10.816,-2.256l-0.016,0Z" style="fill:#f05623;fill-rule:nonzero;"/></g></g></svg>