<?xml version="1.0" encoding="UTF-8" standalone="no"?>
<!DOCTYPE svg PUBLIC "-//W3C//DTD SVG 1.1//EN" "http://www.w3.org/Graphics/SVG/1.1/DTD/svg11.dtd">
<svg width="100%" height="100%" viewBox="0 0 659 808" version="1.1" xmlns="http://www.w3.org/2000/svg" xmlns:xlink="http://www.w3.org/1999/xlink" xml:space="preserve" xmlns:serif="http://www.serif.com/" style="fill-rule:evenodd;clip-rule:evenodd;stroke-linejoin:round;stroke-miterlimit:2;">
    <g transform="matrix(4.166667,0,0,4.166667,0,0)">
        <g transform="matrix(1,0,0,1,0.004908,-46.239195)">
            <path d="M157.9,121.8C156.2,84.2 126.1,51.1 88.7,46.8C40.7,41.4 4.2,75.7 0.2,119.4C-0.5,127.4 0.6,135.7 3.4,143.2C9.7,159.9 27.2,171.2 45,170.7C51.9,170.5 58.5,168.4 64.9,165.7C66.6,165.2 67.9,163.6 67.9,161.7C67.9,159.8 66.7,158.4 64.9,157.6C50.3,151.6 40.4,136.4 42.7,119.2C44.8,103 58.2,89.9 74.4,88.1C96.3,85.6 114.8,102.7 114.8,124.1C114.8,134.2 110.1,144.4 103.9,150C103.9,150 62.5,194.9 49.4,208.7C47.2,211 47.4,214.5 49.7,216.6L70.4,237.1C75,241.3 80.6,240.9 86.2,235.3L134.4,181.3C150.7,165.1 158.9,145.1 157.9,121.8" style="fill:rgb(249,0,123);fill-rule:nonzero;"/>
        </g>
    </g>
</svg>
