<svg version="1.2" xmlns="http://www.w3.org/2000/svg" viewBox="0 0 1088 414" width="1088" height="414">
	<title>ADAVIATION</title>
	<defs>
		<clipPath clipPathUnits="userSpaceOnUse" id="cp1">
			<path d="m-2803.2-1516.42h6146.19v8685.89h-6146.19z"/>
		</clipPath>
	</defs>
	<style>
		.s0 { fill: #ee312c } 
	</style>
	<g id="Clip-Path: Clip-Path: Page 1" clip-path="url(#cp1)">
		<g id="Clip-Path: Page 1">
			<g id="Page 1">
				<path id="Path 12" class="s0" d="m1087.3 291.9c-1 4.7-4.1 8.3-8.7 11.9 2-9.8-9.3-11.9-18.1-10.3-5.2 1.5-10.3 1.5-15.5 1-2.1 6.2-12.9 8.3-21.7 8.3q-1.5 0-2.5 0c-0.6 0-0.6 0-1.1 0-0.5 0-0.5 0-0.5-0.5-19.6-24.8-41.8-31.5-52.6-36.2q-0.5 0-1.1-0.5c-2-1.5-4.6-4.6-6.2-6.2-3.1-3.1-6.2-5.6-10.8-7.2l-5.2-1.5-663.1-180.6-197.6-54.1-15.5-15 876.8 205.8 52.1 10.9c12.9 3.1 23.2 7.7 43.3 20.6q11.4 7.2 20.7 15c7.2 6.1 13.9 12.3 19.6 19.6q2.6 3 4.6 6.1 5.2 6.7 3.1 12.9zm-76.9 70.2q0.8-3.9-1.5-6.2c-3.6-3.6-11.4-3.6-17-2.6-5.2 1-10.4 0.5-15 0-2.1 5.7-10.8 7.2-19.1 7.2q-2.6 0-4.7 0c0 0-0.5 0-1 0 0-0.5-0.5-0.5-0.5-0.5-17.5-24.7-38.2-33.5-48-38.1-2.1-2.1-4.6-5.2-6.2-7.3-3.1-3.1-6.2-5.1-10.3-6.7q0-0.5 0-0.5l-93.9-28.9h-0.5v-0.5h-0.6l-664.6-206.3v-0.5l-82.6-25.3-15.5-15.5 873.2 237.8h0.5l32 8.8c11.9 3.1 21.7 8.2 40.8 21.1 13.4 9.8 24.7 19.6 34 31q3.6 4.6 7.2 9.8c5.7 8.2 3.1 17-6.7 23.2z"/>
				<path id="Path 14" class="s0" d="m939.2 410.6q0.5-1.6 0.5-3.1-0.7-3.1-3.1-4.7c-3.1-1.5-6.7-2.5-10.8-2.5q-3.1 0-5.7 0.5-1 0-3.1 0.5c-5.1 0.5-11.8 1-16 0.5q-0.5 0-1.5 0c-15.5-1.5-20.7-2.6-22.7-4.6q-0.5 0.5-1.6 1.5c-11.3 9.8-26.3 14.4-41.8 14.4h-490.2l-74.9-14.9h38.8c53.1 0 106.3-7.2 157.3-21.2 18.1-7.7 89.3-45.9 89.3-45.9l-392.7-186.7-142.4-68.1-3.1-1.5-15.5-15 477.3 149.1 380.9 118.6c6.2 1.6 12.4 4.2 20.1 7.8q10.9 5.4 24.8 15.4c17 11.9 32 20.7 42.8 36.7q1.1 1 1.1 2c4.6 7.8 1.5 15.5-7.8 21.2z"/>
			</g>
		</g>
	</g>
</svg>