<?xml version="1.0" encoding="UTF-8" standalone="no"?>
<!DOCTYPE svg PUBLIC "-//W3C//DTD SVG 1.1//EN" "http://www.w3.org/Graphics/SVG/1.1/DTD/svg11.dtd">
<svg width="100%" height="100%" viewBox="0 0 526 235" version="1.1" xmlns="http://www.w3.org/2000/svg" xmlns:xlink="http://www.w3.org/1999/xlink" xml:space="preserve" xmlns:serif="http://www.serif.com/" style="fill-rule:evenodd;clip-rule:evenodd;stroke-linejoin:round;stroke-miterlimit:2;">
    <g transform="matrix(4.166667,0,0,4.166667,0,0)">
        <g transform="matrix(1,0,0,1,-0.358072,-0.41385)">
            <path d="M91.898,0.414L126.385,0.414L116.978,16.885L64.872,16.993L91.898,0.414Z" style="fill:rgb(209,210,212);fill-rule:nonzero;"/>
        </g>
        <g transform="matrix(1,0,0,1,-0.358072,-0.41385)">
            <path d="M59.801,20.23L115.037,20.23L105.813,36.682L32.939,36.628L59.801,20.23Z" style="fill:rgb(209,210,212);fill-rule:nonzero;"/>
        </g>
        <g transform="matrix(1,0,0,1,-0.358072,-0.41385)">
            <path d="M27.329,40.026L104.086,40.039L94.701,56.586L0.358,56.586L27.329,40.026Z" style="fill:rgb(209,210,212);fill-rule:nonzero;"/>
        </g>
        <g transform="matrix(1,0,0,1,-0.358072,-0.41385)">
            <path d="M86.902,55.681L77.97,55.681C78.499,54.992 78.94,54.375 79.297,53.822C79.629,53.253 79.913,52.684 80.15,52.115C80.423,51.605 80.642,51.043 80.799,50.435C80.974,49.826 81.124,49.137 81.24,48.371L81.24,48.313C81.357,47.704 81.437,47.124 81.477,46.574C81.517,46.001 81.554,45.451 81.594,44.922L81.594,44.157C81.554,43.507 81.477,42.837 81.357,42.151C81.24,41.503 81.073,40.806 80.857,40.059C80.701,40.215 80.081,40.795 79.002,41.798C77.879,42.8 76.69,43.891 75.433,45.068L75.374,45.126L75.316,45.188C74.842,45.618 74.401,46.041 73.989,46.454C73.537,46.847 73.114,47.234 72.72,47.606C72.111,48.156 71.63,48.619 71.276,48.991C70.901,49.345 70.54,49.676 70.186,49.99L70.128,50.081C69.556,50.591 68.885,51.229 68.123,51.999C67.354,52.76 66.125,53.993 64.437,55.681L53.408,55.681C54.039,54.759 55.385,53.351 57.448,51.466C59.453,49.559 61.702,47.584 64.2,45.542C64.535,45.265 64.878,44.981 65.232,44.685C65.545,44.412 65.892,44.135 66.263,43.861C69.527,41.149 72.545,38.79 75.316,36.785C77.733,35.017 79.078,34.131 79.356,34.131L79.373,34.138L79.414,34.189L79.373,34.138C79.261,33.974 78.91,33.435 78.324,32.512C77.653,31.448 76.749,30.299 75.608,29.06C75.334,28.724 75.061,28.399 74.783,28.086C74.448,27.772 74.128,27.466 73.81,27.171C72.159,25.658 70.932,24.425 68.515,23.087C54.207,15.551 71.11,22.777 71.11,22.777C75.296,24.975 77.635,26.784 79.738,28.589C81.823,30.456 82.881,31.425 82.921,31.505C83.293,31.134 84.904,29.967 87.755,28.002C90.566,26.044 93.661,23.893 97.041,21.56C97.121,21.52 97.209,21.462 97.311,21.385C97.347,21.342 97.406,21.305 97.486,21.265C100.257,19.362 102.911,17.568 105.448,15.88C107.945,14.232 109.768,13.025 110.932,12.26L111.43,11.906C111.708,11.673 112.091,11.418 112.582,11.14C113.09,10.886 113.709,10.641 114.439,10.408C115.128,10.171 115.875,10.054 116.68,10.054C116.68,10.367 115.007,12.923 111.667,17.717C108.248,22.592 104.482,28.042 100.377,34.076C100.059,34.586 99.739,35.09 99.403,35.578C99.046,36.11 98.704,36.632 98.372,37.142C96.129,40.521 93.997,43.825 91.973,47.044C89.928,50.31 88.237,53.187 86.902,55.681M108.393,17.134C108.241,17.215 107.395,17.823 105.856,18.965C104.289,20.124 102.597,21.393 100.785,22.77C100.672,22.887 100.57,22.985 100.49,23.066C100.377,23.146 100.261,23.222 100.139,23.302C99.531,23.792 98.922,24.258 98.314,24.688C97.723,25.181 97.161,25.644 96.633,26.074C95.666,26.883 94.784,27.627 93.975,28.316C93.133,29.005 92.327,29.694 91.561,30.383C91.401,30.54 91.244,30.678 91.088,30.795C90.912,30.952 90.727,31.119 90.529,31.298C89.764,32.005 88.977,32.724 88.171,33.449C87.365,34.218 86.497,35.042 85.575,35.928L87.934,39.497C88.74,38.575 89.505,37.689 90.235,36.843C90.92,35.997 91.609,35.192 92.298,34.423C92.374,34.346 92.455,34.247 92.531,34.127C92.611,34.05 92.688,33.97 92.768,33.894C93.497,33.088 94.245,32.261 95.011,31.414C95.739,30.609 96.542,29.705 97.427,28.699C97.938,28.09 98.518,27.441 99.167,26.752C99.775,26.103 100.425,25.435 101.113,24.747C101.193,24.63 101.269,24.531 101.35,24.451L101.587,24.214C103.275,22.406 104.846,20.772 106.301,19.318C107.698,17.903 108.393,17.174 108.393,17.134" style="fill:rgb(209,50,57);fill-rule:nonzero;"/>
        </g>
        <g transform="matrix(1,0,0,1,-0.358072,-0.41385)">
            <path d="M82.425,20.391L81.68,20.921L81.678,20.923L81.782,20.769L81.196,20.302L82.425,20.391ZM97.01,13.223C96.959,13.138 96.672,12.985 96.485,12.968C96.299,12.951 96.249,12.867 96.249,12.867L95.877,12.698C95.877,12.698 95.454,12.596 95.183,12.681C94.912,12.765 94.32,12.817 93.947,12.951C93.575,13.087 92.577,13.595 92.577,13.595L90.479,14.999C90.479,14.999 88.195,16.454 87.873,16.658C87.735,16.744 87.004,17.232 86.214,17.761C86.056,17.703 85.842,17.664 85.719,17.683C85.583,17.707 85.448,17.797 85.358,17.91C85.294,17.99 85.105,18.239 85.001,18.377L84.297,18.473L81.771,18.655L79.331,18.815L79.278,18.772L77.822,17.774L77.011,18.316L77.3,18.915L74.347,18.97L72.52,19.082L71.957,19.06L71.573,19.241L71.235,19.579L77.852,20.059L77.974,20.312L78.245,20.769L78.786,21.734L79.254,22.82L77.484,22.884L76.147,22.952L74.709,23.003C74.709,23.003 74.455,22.986 74.252,23.07C74.049,23.155 73.711,23.324 73.711,23.324L73.524,23.51L73.423,23.612L78.806,23.744L78.804,23.747C78.804,23.747 78.719,23.933 78.651,24.085C78.613,24.17 78.633,24.231 78.659,24.271L78.657,24.272L78.77,24.441C78.77,24.441 78.961,24.542 79.085,24.542C79.21,24.542 79.605,24.452 79.718,24.395C79.83,24.339 80.891,24.046 80.891,24.046L82.028,23.717L82.515,23.775L83.665,23.775L83.711,23.527L82.981,23.408L84.681,22.839L86.486,21.97L88.99,20.808L89.198,20.65L95.082,20.459L95.702,20.402L96.221,20.188L96.593,20.064L96.582,20.031L96.48,19.985L95.251,19.725L95.24,19.724L95.296,19.703C95.296,19.703 95.318,19.545 95.397,19.5C95.476,19.455 95.578,19.319 95.578,19.319C95.578,19.319 95.691,18.959 95.702,18.902C95.713,18.845 95.713,18.576 95.713,18.576L95.566,18.247L95.318,18.045C95.296,18.011 95.058,17.954 94.923,17.954C94.788,17.954 94.652,17.944 94.371,18.011C94.088,18.078 94.043,18.147 93.964,18.157C93.886,18.169 93.638,18.349 93.378,18.587C93.301,18.657 93.251,18.754 93.212,18.857L93.051,18.744L92.248,18.239L92.286,18.207C92.395,18.136 92.538,18.042 92.707,17.931L95.301,16.268C95.605,16.116 96.299,15.71 96.485,15.321C96.672,14.931 96.757,14.796 96.757,14.796C96.757,14.796 96.909,14.644 96.976,14.221C97.044,13.798 97.01,13.883 97.094,13.712C97.18,13.544 97.061,13.307 97.01,13.223" style="fill-rule:nonzero;"/>
        </g>
    </g>
</svg>
