<svg role="img" viewBox="0 0 24 24" xmlns="http://www.w3.org/2000/svg"><title>Aegean Airlines</title><path fill="#93a5cf" d="m4.018 0 .114.34c3.34 1.358 5.718 3.509 7.02 6.51a12.313 12.313 0 0 0 4.358 5.094l.056.056h4.416c-2.321-1.189-4.245-3.056-5.434-5.434C12.623 2.716 8.886.51 4.018 0Zm0 3.905c.793 2.943 1.868 5.435 2.83 6.623A5.27 5.27 0 0 0 8.718 12h3.453a7.286 7.286 0 0 1-3.68-3.68C7.641 6.34 6 4.755 4.018 3.906Z"/><path fill="#002677" d="M8.717 12a5.27 5.27 0 0 0-1.868 1.472c-.963 1.188-2.038 3.68-2.83 6.623 1.98-.849 3.622-2.434 4.471-4.416A7.286 7.286 0 0 1 12.17 12Zm6.85 0-.057.056a12.313 12.313 0 0 0-4.359 5.095c-1.301 3-3.68 5.151-7.019 6.51L4.018 24c4.868-.51 8.605-2.717 10.53-6.566 1.189-2.378 3.113-4.245 5.434-5.434Z"/></svg>