<svg role="img" viewBox="0 0 24 24" xmlns="http://www.w3.org/2000/svg"><title>Myanmar National Airlines</title><path fill="#82c341" d="M23.857 13.511c-.48 1.545-2.081 2.995-4.002 3.296.31.48.452 1.074.377 1.733-.208 1.789-1.922 3.23-3.758 3.249-1.243.009-2.928-.528-4.115-2.402-1.064-1.666-1.215-4.313-1.14-5.113-1.299 1.328-2.109 2.618-2.495 3.512-.866 2.025-1.196 4.492-1.177 5.65 0 0-.16.151-.31.18-.48-.085-.895-.264-1.206-.537-.377-.34-.461-.66-.461-.66.574-2.872 1.488-4.66 2.853-6.704 1.836-2.76 4.67-4.464 8.032-5.49 2.43-.744 4.954-.904 6.686.565.933.772.989 1.883.716 2.721zM9.544 11.986c-.575.96-2.147 2.505-3.39 3.305-2.59 1.657-4.455 1.77-5.387 1.177a1.453 1.453 0 0 1-.292-.235c-.725-.763-.602-2.119.245-3.23.414-.546.951-.932 1.47-1.111-.406-.189-.679-.584-.735-1.14-.113-1.11.725-2.57 1.883-3.164 1.017-.518 3.211-1.036 4.821 1.366.631.932 1.196 2.26 1.385 3.032zM20.184 1.89c-.14-1.384-1.62-1.893-3.248-1.196a4.89 4.89 0 0 0-1.93 1.516c.075-.63-.104-1.186-.556-1.516-.895-.65-2.524-.17-3.635 1.036-.386.424-1.648 1.95-1.714 4.19-.028 1.083.452 3.485 2.034 5.142 4.219-1.591 6.488-4.03 7.354-5.038.999-1.168 1.422-2.194 1.601-2.947.132-.594.113-1.017.094-1.187z" /><path fill="#3cb14a" d="M20.119 2.955c-.208.838-1.978 3.004-4.426 4.85-2.543 1.911-3.993 2.872-4.549 3.249 4.21-1.582 6.48-4.021 7.345-5.029.999-1.168 1.422-2.194 1.601-2.947.01-.038.02-.076.029-.123zM9.544 11.976c-1.112 1.055-2.75 2.628-5.566 3.87-1.393.594-2.759.82-3.21.603.931.603 2.796.49 5.386-1.167 1.243-.8 2.815-2.345 3.39-3.306Zm1.949.594a.041.041 0 0 0-.028.009c-3.023 2.166-4.05 6.064-4.22 11.027.152-.028.312-.179.312-.179-.02-1.158.31-3.616 1.177-5.65.386-.895 1.196-2.185 2.495-3.512.094-.886.198-1.403.264-1.695zm12.496.292c-.132.894-.735 1.977-1.695 2.57-.848.528-1.827.876-2.938.782.179.17.32.31.499.584 1.92-.292 3.522-1.742 4.002-3.287.066-.207.113-.423.132-.65z"/></svg>