<?xml version="1.0" encoding="UTF-8" standalone="no"?><!DOCTYPE svg PUBLIC "-//W3C//DTD SVG 1.1//EN" "http://www.w3.org/Graphics/SVG/1.1/DTD/svg11.dtd"><svg width="100%" height="100%" viewBox="0 0 91 76" version="1.1" xmlns="http://www.w3.org/2000/svg" xmlns:xlink="http://www.w3.org/1999/xlink" xml:space="preserve" xmlns:serif="http://www.serif.com/" style="fill-rule:evenodd;clip-rule:evenodd;stroke-linejoin:round;stroke-miterlimit:2;"><path d="M62.614,28.862l-12.94,4.65l-4.28,-7.97c-0.193,-0.36 -0.387,-0.357 -0.58,0.01l-9.4,17.79c-6.073,4.06 -12.997,6.457 -20.77,7.19l30.31,-50.43c0.038,-0.063 0.106,-0.102 0.18,-0.102c0.074,0 0.142,0.039 0.18,0.102l17.3,28.76Z" style="fill:#6c1241;fill-rule:nonzero;"/><path d="M66.984,36.172l-9.7,11.61c-7.8,7.9 -14.18,12.58 -25.99,9.73c-1.153,-0.28 -2.23,-0.483 -3.23,-0.61c-0.34,-0.08 -0.593,-0.207 -0.76,-0.38c-0.273,-0.28 -0.22,-0.47 0.16,-0.57l1.46,-0.38c10.63,-0.92 17.94,-6.72 24.98,-14.57l7.43,-5.74c0.1,-0.073 0.123,-0.16 0.07,-0.26c-0.06,-0.12 -0.143,-0.153 -0.25,-0.1l-8.27,4.44c-7.25,5.83 -13.15,11.94 -23.11,14.05c-5.713,1.027 -11.173,0.737 -16.38,-0.87c-1.413,-0.267 -2.57,-0.717 -3.47,-1.35c-0.32,-0.227 -0.287,-0.35 0.1,-0.37l4.62,-0.27c7.773,-0.733 14.697,-3.13 20.77,-7.19l14.26,-9.83l12.94,-4.65c5.6,-1.387 11.497,-2.243 17.69,-2.57c2.133,-0.113 2.207,0.22 0.22,1c-4.367,1.72 -8.667,4.483 -12.9,8.29c-0.333,0.3 -0.547,0.497 -0.64,0.59Z" style="fill:#ecce2c;fill-rule:nonzero;"/><path d="M53.904,41.002l-1.02,-1.66l8.27,-4.44c0.107,-0.053 0.19,-0.02 0.25,0.1c0.053,0.1 0.03,0.187 -0.07,0.26l-7.43,5.74Z" style="fill:#6c1241;fill-rule:nonzero;"/><path d="M66.984,36.172l22.8,37.87c0.66,1.093 0.35,1.623 -0.93,1.59c-5.67,-0.15 -11.09,-1.13 -16.48,-0.63c-0.353,0.033 -0.61,-0.103 -0.77,-0.41l-14.32,-26.81l9.7,-11.61Z" style="fill:#6c1241;fill-rule:nonzero;"/><path d="M13.394,52.522c5.207,1.607 10.667,1.897 16.38,0.87l-0.85,2.18l-1.46,0.38c-0.38,0.1 -0.433,0.29 -0.16,0.57c0.167,0.173 0.42,0.3 0.76,0.38l-9.51,17.89c-0.105,0.203 -0.318,0.331 -0.55,0.33l-17.72,0c-0.001,0 -0.002,0 -0.004,0c-0.154,0 -0.28,-0.126 -0.28,-0.28c0,-0.053 0.015,-0.105 0.044,-0.15l13.35,-22.17Z" style="fill:#6c1241;fill-rule:nonzero;"/></svg>