<?xml version="1.0" encoding="UTF-8" standalone="no"?>
<!DOCTYPE svg PUBLIC "-//W3C//DTD SVG 1.1//EN" "http://www.w3.org/Graphics/SVG/1.1/DTD/svg11.dtd">
<svg width="100%" height="100%" viewBox="0 0 1563 384" version="1.1" xmlns="http://www.w3.org/2000/svg" xmlns:xlink="http://www.w3.org/1999/xlink" xml:space="preserve" xmlns:serif="http://www.serif.com/" style="fill-rule:evenodd;clip-rule:evenodd;stroke-linejoin:round;stroke-miterlimit:2;">
    <g transform="matrix(4.166667,0,0,4.166667,0,0)">
        <g transform="matrix(4.166667,0,0,4.166667,0,0)">
            <g>
                <g>
                    <path d="M12.32,0.293L12.32,17.893L10.267,17.893L10.267,13.934L6.453,13.934L4.778,17.893L2.578,17.893L10.024,0.293L12.32,0.293ZM10.413,11.147L7.333,11.147L8.947,7.333L10.413,3.867L10.413,11.147Z" style="fill:rgb(88,88,88);"/>
                    <path d="M38.133,0.88L13.602,0.88L13.602,2.493L37.204,2.493L38.133,0.88ZM89.466,0.88C88.88,4.693 87.56,7.48 85.8,7.48L83.159,7.48C83.132,9.802 82.459,10.807 82.158,11.257L82.133,11.293C81.84,11.733 81.107,12.32 80.08,12.32L78.126,12.32C78.126,14.542 77.511,15.449 77.197,15.913C77.179,15.939 77.162,15.963 77.147,15.987C76.808,16.495 75.973,17.16 74.507,17.16L73.139,17.16C73.117,19.403 72.594,20.396 72.307,20.827C71.968,21.335 71.2,22 69.96,22L0,22L1.467,20.387L70.107,20.387C71.11,20.387 71.834,19.266 71.866,17.16L64.973,17.16L65.707,15.547L74.654,15.547C75.68,15.547 76.854,14.52 76.854,12.32L66.88,12.32L67.614,10.707L79.787,10.707C81.002,10.707 81.948,9.861 81.986,7.48L68.72,7.48L69.373,5.867L85.36,5.867C86.386,5.867 87.413,4.253 87.657,2.493L52.8,2.493L53.453,0.88L89.466,0.88Z" style="fill:rgb(88,88,88);"/>
                    <path d="M20.986,12.689C21.299,10.974 22.39,4.987 18.92,4.987C15.253,4.987 14.227,11.44 14.227,12.76C14.226,16.498 14.682,18.041 17.013,18.04C19.653,18.039 20.387,14.667 20.387,14.667L18.773,14.08C18.773,14.08 17.893,16.427 16.867,15.84C15.956,15.32 15.968,14.338 15.983,13.201C15.985,13.057 15.987,12.909 15.987,12.76L20.973,12.76C20.977,12.737 20.982,12.713 20.986,12.689ZM17.91,10.858C18.575,10.861 19.267,10.863 19.801,10.863C19.801,10.745 19.802,10.622 19.803,10.495C19.814,9.056 19.828,7.197 18.479,7.197C17.307,7.197 16.28,9.68 16.28,10.854C16.703,10.854 17.295,10.856 17.91,10.858Z" style="fill:rgb(88,88,88);"/>
                    <path d="M34.759,12.613C35.053,11 35.786,4.84 32.266,4.84C28.599,4.84 27.426,11.293 27.426,12.613C27.426,16.351 28.028,17.894 30.359,17.893C32.999,17.892 34.466,14.226 34.759,12.613ZM32.852,12.173C33.292,10.707 33.733,7.773 32.266,7.333C30.664,6.853 29.518,10.12 29.332,11.293C28.892,14.08 29.2,15.461 30.359,15.693C31.679,15.957 32.413,13.64 32.852,12.173Z" style="fill:rgb(88,88,88);"/>
                    <path d="M41.507,2.787C42.68,2.787 43.267,4.107 43.267,5.28L45.173,5.28C45.173,3.667 45.32,0 41.8,0C38.133,0.293 37.694,4.84 37.694,6.16C37.694,6.6 37.694,8.507 39.747,10.12C40.493,10.707 41.654,11.44 41.654,12.613C41.507,13.787 41.213,15.107 39.453,15.107C37.693,15.107 37.84,13.933 37.84,12.027L35.787,12.027L35.787,14.667C35.787,17.6 37.694,17.893 39.453,17.893C42.529,17.893 43.38,14.385 43.559,13.644L43.56,13.64C43.912,12.188 43.707,10.586 43.413,9.68C42.701,7.48 39.233,7.04 39.894,4.4C40.187,3.227 40.92,2.787 41.507,2.787Z" style="fill:rgb(88,88,88);fill-rule:nonzero;"/>
                    <path d="M27.719,4.84C28.095,4.922 28.181,5.008 28.453,5.28C28.159,6.16 27.866,6.893 27.426,7.92C26.546,7.48 25.226,8.213 24.273,11.513L22.879,17.893L21.119,17.893L23.906,5.133L25.666,5.133C25.666,5.133 25.218,7.347 25.226,7.333C25.666,6.6 26.413,4.555 27.719,4.84Z" style="fill:rgb(88,88,88);fill-rule:nonzero;"/>
                    <path d="M61.04,5.28L59.279,5.28L56.613,17.893L58.373,17.893L60.221,10.267C60.573,8.8 61.747,7.333 62.48,7.333C63.145,7.333 63.36,8.213 63.237,8.653L61.307,17.893L63.067,17.893L65.172,8.653C65.413,7.04 65.172,6.16 65.172,6.16C64.973,5.28 64.549,4.975 63.653,4.84C62.302,4.636 60.731,6.937 60.72,6.893L61.04,5.28Z" style="fill:rgb(88,88,88);fill-rule:nonzero;"/>
                    <path d="M50.746,8.36L52.653,8.36C52.653,8.36 52.946,7.187 53.826,7.187C54.706,7.187 54.853,7.773 54.853,8.507C54.853,9.24 54.706,9.533 54.266,9.827C53.855,10.003 53.382,10.073 52.894,10.146C52.162,10.256 51.394,10.37 50.746,10.853C50.192,11.265 49.279,12.613 49.279,14.813C49.279,15.986 49.411,17.893 50.893,17.893C51.8,17.893 52.249,17.435 52.949,16.721C53.041,16.627 53.137,16.529 53.239,16.427L53.239,17.893L55.146,17.893L55.146,15.84C55.146,15.357 55.556,13.639 55.944,12.017C56.263,10.681 56.566,9.41 56.613,8.947C56.616,8.908 56.621,8.864 56.627,8.815C56.734,7.829 57.06,4.84 54.266,4.84C52.213,4.84 51.039,6.747 50.746,8.36ZM53.973,11.88C52.946,12.027 51.545,12.32 51.186,13.2C50.707,14.373 50.893,15.493 51.626,15.693C52.163,15.84 52.925,15.253 53.239,14.813C53.712,14.15 53.973,12.76 53.973,11.88Z" style="fill:rgb(88,88,88);"/>
                    <path d="M48.108,15.694C46.788,15.84 46.934,15.254 47.228,13.787L48.573,7.627L49.649,7.627L50.161,5.28L49.086,5.28L50.014,1.027L47.814,3.227L47.366,5.28L46.348,5.28L45.761,7.627L46.853,7.627L45.252,14.96C45.174,15.4 44.588,17.893 46.934,17.893C47.668,17.893 47.814,17.453 48.108,15.694Z" style="fill:rgb(88,88,88);fill-rule:nonzero;"/>
                </g>
            </g>
        </g>
    </g>
</svg>
