<svg role="img" viewBox="0 0 24 24" xmlns="http://www.w3.org/2000/svg" fill="#020c41"><title>Aeroméxico</title><path d="M20.138 6.565c-.221 0-.432.033-.58.074-1.827-.099-2.7.301-3.435.301-.44 0-2.114-.786-3.434-1.31 0 0 1.67-.424 3.256-.424 1.586 0 3.15.896 3.61 1.43-1.002-2.391-4.344-3.796-6.272-3.796-4.067 0-6.305 2.019-9.26 2.068-.345.005-1.3 0-1.3 0 0 1.807.676 2.862.974 3.15C2.961 8.481 0 12.195 0 13.928l.129.324 2.385.306-.463 2.443.13.323 2.346.307-.849 2.9.129.324s.81.304 1.964.304c1.035 0 5.502.123 6.178-5.604l.009-.068c.788 3.09 2.856 3.659 7.11 3.659 1.202 0 .7-1.594.832-2.117.131-.08.236-.302.159-.562a.571.571 0 0 0 .178-.364c0-.31-.162-.72-.162-1.389.356-.1 1-.227 1-.717 0-.293-.657-1.91-1.065-2.972-.063-.167-.2-.298-.376-.298-.276-.003-.391.37-1.147.37-1.391.002-.88-1.323-5.078-1.052-.515.033-.66.183-.723.674-.153 1.194-.123 4.423.578 6.362-.885-.962-1.17-2.794-1.304-4.215-.282 2.634-.435 6.244-3.771 7.438-1.435.493-3.024.397-4.503.225.896.014 1.792-.014 2.676-.134.58-.077 1.153-.208 1.69-.447 3.87-1.63 2.662-6.83 3.596-9.377-1.712 1.722-2.049 6.384-6.26 6.614-1.118.066-2.227-.022-3.328-.19 1.098.03 2.21.017 3.294-.133 3.78-.513 3.837-4.588 5.615-6.642-.726.156-1.435.386-2.084.742-.959.501-1.644 1.293-2.443 2.038-1.033.964-2.18 1.254-3.569 1.167a38.737 38.737 0 0 1-2.865-.241c.039 0 1.638-.044 1.638-.044 1.046-.052 2.177.014 3.147-.42.731-.311 1.265-.895 1.794-1.475.986-1.12 2.081-1.896 3.525-2.315 1.076-.328 4.582-.687 6.759-.605 1.284.05 3.92.37 5.612 1.049l-.08-.02c-.715-.144-1.555-.06-2.24.209.712.02 1.487.066 2.092.219.534.134 1.575.362 1.715.945.005-.038.03-.186.03-.542 0-2.26-1.882-4.363-3.862-4.363Z"/></svg>