<?xml version="1.0" encoding="UTF-8" standalone="no"?>
<!DOCTYPE svg PUBLIC "-//W3C//DTD SVG 1.1//EN" "http://www.w3.org/Graphics/SVG/1.1/DTD/svg11.dtd">
<svg width="100%" height="100%" viewBox="0 0 204 161" version="1.1" xmlns="http://www.w3.org/2000/svg" xmlns:xlink="http://www.w3.org/1999/xlink" xml:space="preserve" xmlns:serif="http://www.serif.com/" style="fill-rule:evenodd;clip-rule:evenodd;stroke-linejoin:round;stroke-miterlimit:2;">
    <g transform="matrix(4.166667,0,0,4.166667,0,0)">
        <path d="M43.194,38.572L34.664,38.572L20.696,0L29.226,0L43.194,38.572Z" style="fill:rgb(216,46,50);fill-rule:nonzero;"/>
        <path d="M8.53,38.572L0,38.572L20.696,0L29.226,0L8.53,38.572Z" style="fill:rgb(50,128,64);fill-rule:nonzero;"/>
        <path d="M18.391,20.309C18.363,20.322 18.335,20.336 18.307,20.35C14.148,22.355 10.102,24.587 6.189,27.038L0,38.572L8.53,38.572L9.077,37.553C10.364,35.154 12.009,32.966 13.957,31.064L13.999,31.023C17.57,27.541 20.854,24.339 26.349,20.71C31.601,17.241 36.038,15.253 38.972,13.955C45.199,11.199 48.978,10.297 48.933,10.148C48.846,9.857 34.403,12.606 18.391,20.309Z" style="fill:rgb(78,160,71);fill-rule:nonzero;"/>
    </g>
</svg>
