<?xml version="1.0" encoding="UTF-8" standalone="no"?>
<!DOCTYPE svg PUBLIC "-//W3C//DTD SVG 1.1//EN" "http://www.w3.org/Graphics/SVG/1.1/DTD/svg11.dtd">
<svg width="100%" height="100%" viewBox="0 0 622 843" version="1.1" xmlns="http://www.w3.org/2000/svg" xmlns:xlink="http://www.w3.org/1999/xlink" xml:space="preserve" xmlns:serif="http://www.serif.com/" style="fill-rule:evenodd;clip-rule:evenodd;stroke-linejoin:round;stroke-miterlimit:2;">
    <g transform="matrix(4.166667,0,0,4.166667,0,0)">
        <g transform="matrix(1,0,0,1,105.351179,5.188)">
            <path d="M0,0C1.473,0.416 1.473,0.416 2.977,0.84C18.713,5.65 29.764,18.433 37.305,32.492C39.588,37.216 41.028,41.857 42,47C42.257,48.304 42.257,48.304 42.519,49.634C43.079,53.554 43.155,57.404 43.161,61.354C43.166,62.171 43.171,62.988 43.176,63.83C43.191,66.522 43.198,69.214 43.203,71.906C43.207,73.295 43.207,73.295 43.212,74.712C43.227,79.617 43.236,84.522 43.24,89.427C43.246,94.459 43.27,99.49 43.298,104.522C43.317,108.421 43.322,112.319 43.324,116.218C43.327,118.071 43.335,119.923 43.348,121.776C43.493,143.62 39.725,161.636 24,178C3.526,196.242 -20.972,197.216 -47,196C-63.81,194.314 -79.851,185.412 -90.75,172.688C-100.179,160.635 -105.139,146.025 -105.161,130.744C-105.166,129.925 -105.171,129.107 -105.176,128.263C-105.191,125.561 -105.198,122.859 -105.203,120.156C-105.206,119.228 -105.209,118.3 -105.212,117.344C-105.227,112.427 -105.236,107.511 -105.24,102.594C-105.246,97.545 -105.27,92.496 -105.298,87.448C-105.317,83.541 -105.322,79.634 -105.324,75.726C-105.327,73.867 -105.335,72.008 -105.348,70.149C-105.491,48.392 -101.139,31.056 -86.625,14.25C-63.507,-5.566 -28.469,-9.892 0,0Z" style="fill:rgb(250,147,38);fill-rule:nonzero;"/>
        </g>
        <g transform="matrix(1,0,0,1,105.351179,5.188)">
            <path d="M0,0C1.473,0.416 1.473,0.416 2.977,0.84C18.713,5.65 29.764,18.433 37.305,32.492C46.763,52.064 43,75.226 43,96L-105,96C-105,35.526 -105,35.526 -86.625,14.25C-63.507,-5.566 -28.469,-9.892 0,0Z" style="fill:rgb(194,25,18);fill-rule:nonzero;"/>
        </g>
        <g transform="matrix(1,0,0,1,0.351179,101.188)">
            <rect x="0" y="0" width="148" height="33" style="fill:rgb(247,104,31);fill-rule:nonzero;"/>
        </g>
        <g transform="matrix(1,0,0,1,0.351179,68.188)">
            <rect x="0" y="0" width="148" height="33" style="fill:rgb(225,47,24);fill-rule:nonzero;"/>
        </g>
        <g transform="matrix(1,0,0,1,8.351179,168.188)">
            <path d="M0,0L132,0C122.419,16.768 109.378,26.151 90.867,31.344C67.278,36.743 40.866,34.315 20,22C11.516,16.617 4.498,8.997 0,0Z" style="fill:rgb(252,191,44);fill-rule:nonzero;"/>
        </g>
        <g transform="matrix(1,0,0,1,105.351179,5.188)">
            <path d="M0,0C1.473,0.416 1.473,0.416 2.977,0.84C17.375,5.24 27.736,16.287 35,29L-97,29C-90,18 -90,18 -85,14C-84.278,13.216 -83.556,12.432 -82.812,11.625C-62.356,-7.467 -25.09,-8.718 0,0Z" style="fill:rgb(161,4,12);fill-rule:nonzero;"/>
        </g>
    </g>
</svg>
