<?xml version="1.0" encoding="UTF-8" standalone="no"?>
<!DOCTYPE svg PUBLIC "-//W3C//DTD SVG 1.1//EN" "http://www.w3.org/Graphics/SVG/1.1/DTD/svg11.dtd">
<svg width="100%" height="100%" viewBox="0 0 1970 1970" version="1.1" xmlns="http://www.w3.org/2000/svg" xmlns:xlink="http://www.w3.org/1999/xlink" xml:space="preserve" xmlns:serif="http://www.serif.com/" style="fill-rule:evenodd;clip-rule:evenodd;stroke-linejoin:round;stroke-miterlimit:2;">
    <g transform="matrix(4.166667,0,0,4.166667,0,0)">
        <g transform="matrix(1,0,0,1,0,-15.34)">
            <path d="M236.39,15.34C366.95,15.34 472.79,121.17 472.79,251.73C472.79,382.29 367,488.12 236.39,488.12C105.78,488.12 0,382.29 0,251.73C0,121.17 105.84,15.34 236.39,15.34Z" style="fill:white;"/>
        </g>
        <g transform="matrix(1,0,0,1,0,-15.34)">
            <path d="M436.53,142C436.53,142 422.99,136.84 417.1,135.08C411.21,133.32 396.78,125.95 387.94,121.24C379.1,116.53 358.2,106.81 334.64,102.68C311.08,98.55 291.06,97 265.88,96.25C240.7,95.5 225.54,95.07 203.88,98.01C182.22,100.95 167.51,105.96 157.05,112.01C146.59,118.06 140.27,123.2 133.2,132.62C126.13,142.04 124.07,158.39 124.07,158.39C124.07,158.39 106.26,157.65 98.89,165.31C91.52,172.97 92.12,177.38 91.53,181.65C91.184,184.681 91.137,187.739 91.39,190.78C91.643,193.821 82.11,190.78 76.81,193.14C71.51,195.5 67.97,198.14 63.7,206.39C59.43,214.64 61.2,226.86 64.44,237.16C67.68,247.46 76.22,261.16 86.82,271.03C97.42,280.9 114.5,283.54 114.5,283.54C114.5,283.54 113.77,265.54 115.39,259.54C117.01,253.54 122.01,254.1 125.55,256.45C130.74,259.882 135.448,263.991 139.55,268.67C143.97,273.97 146.18,282.07 146.03,289.87C145.874,299.715 144.531,309.506 142.03,319.03C139.08,329.92 133.19,346.12 130.1,352.16C127.01,358.2 118.76,373.8 115.1,389.7C111.44,405.6 112.01,413.41 112.3,419.7C112.59,425.99 114.51,443.11 114.51,443.11C114.51,443.11 114.81,419.11 118.63,404.68C122.45,390.25 124.82,383.77 132.77,373.76C140.72,363.75 148,349.5 150.45,342.43C152.9,335.36 158.69,322.55 162.96,302.09C167.23,281.63 166.2,273.67 165.17,269.69C164.14,265.71 149.56,254.23 141.47,248.49C133.38,242.75 126.74,237.89 118.64,234.36C110.54,230.83 105.98,231.12 104.64,234.06C103.3,237 104.05,241.87 103.31,246.28C102.57,250.69 102.31,253.5 100.22,255.28C98.13,257.06 96.98,258.38 95.51,257.49C94.04,256.6 87.12,252.19 82.11,241.74C77.1,231.29 71.82,217.28 77,210.06C82.18,202.84 87.3,199.61 95.55,201.67C103.8,203.73 106.74,204.47 114.55,208.15C121.238,211.104 128.903,210.943 135.46,207.71C139.73,205.35 140.91,194.6 139.29,186.36C138.277,181.292 136.842,176.318 135,171.49C141.647,173.936 148.492,175.806 155.46,177.08C165.92,178.85 177.55,177.08 177.55,177.08C177.55,177.08 169.15,185 170,195C170.85,205 179.13,212.08 187.67,215.91C197.408,220.286 208.102,222.11 218.74,221.21C230.52,220.21 241.56,213.56 245.68,209.58C249.8,205.6 253.34,200.75 253.19,192.65C253.04,184.55 249.36,180.87 245.98,177.48C243.506,175.113 240.848,172.946 238.03,171C235.212,169.054 252.6,166.14 257.17,162.76C261.74,159.38 263.94,157.02 266,152.45C267.034,150.388 267.826,148.214 268.36,145.97C268.894,143.726 252.93,152.2 242,154.7C231.07,157.2 215.94,160.29 190,160.7C164.06,161.11 151.12,158.05 145.82,156.87C140.52,155.69 138.17,147.87 140.08,142.87C141.99,137.87 143.62,130.65 163.35,122.11C183.08,113.57 223.71,111.11 240.5,110.33C265.418,109.572 290.359,110.508 315.15,113.13C340.47,116.07 346.8,117.99 355.2,119.9C363.6,121.81 373.6,126.23 384.79,131.53C395.98,136.83 405.41,140.81 416.01,142.72C422.811,143.825 429.765,143.577 436.47,141.99L436.53,142ZM203.59,181.69C208.71,181.69 212.87,184.59 212.87,188.16C212.87,191.73 208.71,194.64 203.59,194.64C198.47,194.64 194.32,191.74 194.32,188.16C194.32,184.58 198.47,181.69 203.59,181.69ZM184.09,176.86L192.78,176.71C192.78,176.71 182.03,181.87 180.56,189.37C179.09,196.87 181.29,201.15 188.51,206.31C195.73,211.47 205.74,212.93 214.28,212.79C222.82,212.65 232.83,208.96 238.57,202.92C244.31,196.88 244.57,189.92 241.51,186.28C238.936,182.926 235.673,180.164 231.94,178.18C227.82,175.98 224.29,174.18 224.29,174.18L231.21,172.41C231.21,172.41 242.4,177.71 246.37,184.34C250.34,190.97 249.61,197.59 245.64,202.74C241.67,207.89 235.33,212.9 222.23,215.74C209.13,218.58 198.52,215.74 190.42,212.65C182.32,209.56 176.58,202.65 175.26,198.37C173.94,194.09 173.49,189.24 177.32,184.23C179.302,181.538 181.573,179.07 184.09,176.87L184.09,176.86Z" style="fill:rgb(49,39,131);"/>
        </g>
        <g transform="matrix(1,0,0,1,0,-15.34)">
            <path d="M148.75,203.36C148.75,203.36 147.28,208.22 143.9,211.02C141.449,212.958 138.836,214.681 136.09,216.17C133.344,217.659 151.26,225.74 160.24,233.11C169.22,240.48 175.55,246.95 185.86,257.55C196.17,268.15 205.74,272.42 216.34,273.3C226.94,274.18 245.34,274.48 256.83,275.66C268.32,276.84 275.53,280.52 278.77,283.02C280.798,284.609 282.624,286.44 284.21,288.47L296.73,288.47C291.068,281.039 283.169,275.615 274.2,273C259.48,268.87 245.93,268.87 232.83,267.7C219.73,266.53 211.33,267.55 197.83,257.24C184.33,246.93 184.43,245.61 173.68,232.8C162.93,219.99 148.79,203.35 148.79,203.35L148.75,203.36Z" style="fill:rgb(49,39,131);"/>
        </g>
        <g transform="matrix(1,0,0,1,0,-15.34)">
            <path d="M98.8,433.4C105.41,438.2 111.31,442.23 112.68,443.16L112.97,443.35C112.86,443.03 107.71,427.79 110.62,403.75C113.56,379.46 115.92,375.93 124.31,357.96C132.7,339.99 137.31,331.02 140.51,314.82C143.71,298.62 144.72,289.29 141.68,278.45C138.64,267.61 129.32,262.11 125.49,260.2C121.66,258.29 119.75,257.4 118.57,261.96C117.39,266.52 117.98,269.47 118.13,274.33C118.28,279.19 119.13,284.49 117.98,286.4C116.83,288.31 115.92,288.17 112.83,287.4C109.74,286.63 100.16,285.04 87.21,276.21C74.26,267.38 66.45,252.54 62,240.32C57.55,228.1 55.52,214.85 60.08,205.57C64.64,196.29 67.3,194.67 72.16,191.88C77.02,189.09 89.09,188.34 89.09,188.34C89.09,188.34 87.32,174.34 94.54,166.11C101.76,157.88 106.91,157.11 111.77,155.8C115.039,154.996 118.411,154.7 121.77,154.92C125.129,155.14 125.01,136.92 134.72,125.47C144.43,114.02 160.2,106.04 173.01,101.62C185.82,97.2 209.08,93.52 227.49,93.08C245.9,92.64 277.99,93.08 298.9,94.85C319.81,96.62 330,97.79 345.17,101C358.963,103.907 372.359,108.456 385.07,114.55C397.14,120.29 406.71,127.36 416.43,131.19C424.72,134.45 434.72,137.29 437.48,138.05C396.896,65.888 320.272,21.089 237.48,21.12C110.76,21.15 8,123.88 8,250.6C7.951,322.342 41.604,390.093 98.8,433.4Z" style="fill:rgb(0,159,227);"/>
        </g>
        <g transform="matrix(1,0,0,1,0,-15.34)">
            <path d="M127.26,452.12L158.74,421.48L170.9,427.15L167.9,471.07L157,466L157.94,456.77L143.94,450.25L137.31,456.83L127.23,452.13L127.26,452.12ZM158.88,448.62L161.25,432L161.14,431.95L149.54,444.27L158.88,448.62Z" style="fill:rgb(49,39,131);fill-rule:nonzero;"/>
        </g>
        <g transform="matrix(1,0,0,1,0,-15.34)">
            <path d="M177.21,471.54L186.45,431.52L214.68,438.04L212.93,445.6L195.37,441.55L193.46,449.81L210.04,453.63L208.3,461.2L191.72,457.38L189.62,466.44L207.8,470.63L206.05,478.2L177.21,471.54Z" style="fill:rgb(49,39,131);fill-rule:nonzero;"/>
        </g>
        <g transform="matrix(1,0,0,1,0,-15.34)">
            <path d="M216.77,479.11L218.21,438.06L237.73,438.74C238.628,438.763 239.523,438.843 240.41,438.98C241.256,439.109 242.092,439.299 242.91,439.55C244.402,439.979 245.804,440.674 247.05,441.6C248.195,442.483 249.111,443.628 249.72,444.94C250.384,446.386 250.686,447.971 250.6,449.56C250.413,455.207 247.663,458.563 242.35,459.63L242.35,459.74C243.317,460.009 244.179,460.567 244.82,461.34C245.445,462.24 245.934,463.227 246.27,464.27L247.86,469.02L251.46,480.32L240.06,479.92L238,472.43C237.512,470.495 236.86,468.604 236.05,466.78C235.598,465.742 234.868,464.849 233.94,464.2C232.923,463.621 231.77,463.324 230.6,463.34L228.31,463.26L227.74,479.49L216.8,479.11L216.77,479.11ZM228.88,446.2L228.55,455.5L231.42,455.6C233.408,455.743 235.407,455.53 237.32,454.97C238.773,454.457 239.533,453.167 239.6,451.1C239.789,449.586 238.98,448.112 237.6,447.46C235.759,446.682 233.779,446.287 231.78,446.3L228.91,446.2L228.88,446.2Z" style="fill:rgb(49,39,131);fill-rule:nonzero;"/>
        </g>
        <g transform="matrix(1,0,0,1,0,-15.34)">
            <path d="M255.5,459.54C254.664,455.728 254.702,451.776 255.61,447.98C256.481,444.641 258.381,441.66 261.04,439.46C264.126,437.02 267.786,435.408 271.67,434.78C274.629,434.146 277.678,434.051 280.67,434.5C283.251,434.903 285.705,435.895 287.84,437.4C289.969,438.955 291.731,440.959 293,443.27C294.443,445.895 295.456,448.734 296,451.68C296.839,455.502 296.777,459.466 295.82,463.26C294.944,466.618 293.025,469.612 290.34,471.81C288.932,472.983 287.367,473.952 285.69,474.69C283.814,475.508 281.851,476.111 279.84,476.49C276.044,477.348 272.091,477.217 268.36,476.11C265.039,475.062 262.133,472.989 260.06,470.19C257.762,467.033 256.222,463.388 255.56,459.54L255.5,459.54ZM266.6,457.41C266.997,459.595 267.736,461.705 268.79,463.66C269.692,465.352 271.046,466.761 272.7,467.73C276.179,469.512 280.459,468.682 283.02,465.73C284.194,464.191 284.93,462.363 285.15,460.44C285.26,459.374 285.294,458.301 285.25,457.23C285.209,456.088 285.075,454.951 284.85,453.83C284.358,450.564 282.954,447.503 280.8,445C279.214,443.437 277.074,442.56 274.847,442.56C271.477,442.56 268.413,444.569 267.07,447.66C266.002,450.791 265.84,454.161 266.6,457.38L266.6,457.41Z" style="fill:rgb(49,39,131);fill-rule:nonzero;"/>
        </g>
        <g transform="matrix(1,0,0,1,0,-15.34)">
            <path d="M327.55,462.51L307.01,426.94L321.95,418.31L343.15,437.62L343.25,437.56L337.5,409.33L351.86,401.04L372.4,436.62L363.13,441.97L347.51,414.56L347.36,414.65L354.06,447.2L345.37,452.23L320.95,429.89L320.85,429.95L336.83,457.15L327.55,462.51Z" style="fill:rgb(49,39,131);fill-rule:nonzero;"/>
        </g>
        <g transform="matrix(1,0,0,1,0,-15.34)">
            <path d="M366.56,414.94C363.78,412.199 361.66,408.861 360.36,405.18C359.271,401.907 359.24,398.372 360.27,395.08C361.529,391.35 363.722,388.003 366.64,385.36C368.767,383.232 371.256,381.498 373.99,380.24C376.377,379.175 378.978,378.672 381.59,378.77C384.222,378.915 386.79,379.639 389.11,380.89C391.752,382.304 394.146,384.138 396.2,386.32C398.977,389.069 401.082,392.424 402.35,396.12C403.444,399.415 403.465,402.973 402.41,406.28C401.874,408.048 401.089,409.732 400.08,411.28C398.952,412.987 397.633,414.561 396.15,415.97C393.436,418.759 390.051,420.805 386.32,421.91C382.961,422.837 379.394,422.68 376.13,421.46C372.484,420.071 369.208,417.856 366.56,414.99L366.56,414.94ZM374.7,407.1C376.23,408.699 378.002,410.049 379.95,411.1C381.631,412.025 383.533,412.472 385.45,412.39C389.331,411.986 392.465,408.972 393.02,405.11C393.167,403.179 392.791,401.244 391.93,399.51C391.445,398.557 390.89,397.641 390.27,396.77C389.608,395.836 388.876,394.953 388.08,394.13C385.884,391.662 383.039,389.86 379.87,388.93C379.315,388.818 378.75,388.761 378.184,388.761C373.526,388.761 369.694,392.593 369.694,397.251C369.694,397.72 369.733,398.188 369.81,398.65C370.61,401.857 372.307,404.771 374.7,407.05L374.7,407.1Z" style="fill:rgb(49,39,131);fill-rule:nonzero;"/>
        </g>
        <g transform="matrix(1,0,0,1,0,-15.34)">
            <path d="M417.67,392.62L382.84,370.85L390.23,359.02L421.25,362.03L421.31,361.93L397.56,347.29L402.86,338.81L437.69,360.57L430.49,372.1L399.09,369.38L399.01,369.5L423,384.08L417.67,392.62Z" style="fill:rgb(49,39,131);fill-rule:nonzero;"/>
        </g>
        <g transform="matrix(1,0,0,1,0,-15.34)">
            <path d="M434.46,305.44L455.77,313.62C455.442,316.501 454.894,319.353 454.13,322.15C453.44,324.63 452.68,326.95 451.84,329.15C450.469,332.772 448.407,336.094 445.77,338.93C443.199,341.747 439.863,343.756 436.17,344.71C432.39,345.73 428.233,345.367 423.7,343.62C419.167,341.873 415.753,339.397 413.46,336.19C411.218,332.97 410.067,329.113 410.18,325.19C410.3,320.56 411.255,315.99 413,311.7C413.36,310.76 413.75,309.84 414.16,308.93C414.57,308.02 415.05,307.03 415.65,305.93C416.594,304.074 417.766,302.344 419.14,300.78L427.14,304.78C425.723,305.927 424.479,307.275 423.45,308.78C422.96,309.52 422.51,310.26 422.1,311.01C421.717,311.706 421.383,312.428 421.1,313.17C419.393,317.637 419.01,321.66 419.95,325.24C420.89,328.82 423.477,331.427 427.71,333.06C429.94,333.975 432.378,334.265 434.76,333.9C436.985,333.534 439.052,332.518 440.7,330.98C442.497,329.296 443.869,327.208 444.7,324.89C445.23,323.671 445.476,322.348 445.42,321.02L437.85,318.11L435.55,324.11L428.29,321.32L434.39,305.45L434.46,305.44Z" style="fill:rgb(49,39,131);fill-rule:nonzero;"/>
        </g>
        <g transform="matrix(1,0,0,1,0,-15.34)">
            <path d="M439.89,301.19C435.992,300.813 432.23,299.555 428.89,297.51C425.979,295.652 423.728,292.922 422.46,289.71C421.094,286.022 420.691,282.047 421.29,278.16C421.61,275.165 422.457,272.251 423.79,269.55C424.979,267.218 426.69,265.192 428.79,263.63C430.924,262.079 433.377,261.023 435.97,260.54C438.91,259.974 441.924,259.893 444.89,260.3C448.796,260.68 452.562,261.96 455.89,264.04C458.807,265.917 461.058,268.669 462.32,271.9C463.002,273.604 463.443,275.394 463.63,277.22C463.82,279.254 463.786,281.303 463.53,283.33C463.167,287.207 461.822,290.928 459.62,294.14C457.592,296.967 454.727,299.087 451.43,300.2C447.718,301.412 443.776,301.754 439.91,301.2L439.89,301.19ZM441.29,289.97C443.491,290.27 445.725,290.22 447.91,289.82C449.796,289.48 451.553,288.629 452.99,287.36C455.767,284.613 456.311,280.289 454.3,276.94C453.203,275.346 451.692,274.081 449.93,273.28C448.957,272.845 447.954,272.477 446.93,272.18C445.828,271.876 444.705,271.655 443.57,271.52C440.312,270.979 436.967,271.367 433.92,272.64C431.114,274.096 429.346,277.005 429.346,280.167C429.346,282.596 430.39,284.911 432.21,286.52C434.856,288.506 438.012,289.702 441.31,289.97L441.29,289.97Z" style="fill:rgb(49,39,131);fill-rule:nonzero;"/>
        </g>
        <g transform="matrix(1,0,0,1,0,-15.34)">
            <path d="M465.44,251.55L424.52,255.13L423.56,244.22L456.39,241.35L454.92,224.47L463.01,223.76L465.44,251.55Z" style="fill:rgb(49,39,131);fill-rule:nonzero;"/>
        </g>
        <g transform="matrix(1,0,0,1,0,-15.34)">
            <path d="M461.74,214.01L421.42,221.85L419.33,211.1L459.65,203.26L461.74,214.01Z" style="fill:rgb(49,39,131);fill-rule:nonzero;"/>
        </g>
        <g transform="matrix(1,0,0,1,0,-15.34)">
            <path d="M459.06,193.11L415.14,194.06L410.14,181.62L442.3,151.55L446.8,162.68L439.8,168.8L445.58,183.1L454.91,182.8L459.08,193.11L459.06,193.11ZM433.55,174.11L420.48,184.64L420.48,184.75L437.37,183.65L433.51,174.11L433.55,174.11Z" style="fill:rgb(49,39,131);fill-rule:nonzero;"/>
        </g>
    </g>
</svg>
