<?xml version="1.0" encoding="UTF-8" standalone="no"?>
<!-- Created with Inkscape (http://www.inkscape.org/) -->

<svg
   version="1.0"
   width="600"
   height="214.84225"
   id="svg2870"
   sodipodi:docname="Emblem_of_Aeroflot_Russian_Airlines.svg"
   inkscape:version="1.2.1 (9c6d41e410, 2022-07-14)"
   xmlns:inkscape="http://www.inkscape.org/namespaces/inkscape"
   xmlns:sodipodi="http://sodipodi.sourceforge.net/DTD/sodipodi-0.dtd"
   xmlns="http://www.w3.org/2000/svg"
   xmlns:svg="http://www.w3.org/2000/svg">
  <sodipodi:namedview
     id="namedview1547"
     pagecolor="#ffffff"
     bordercolor="#000000"
     borderopacity="0.25"
     inkscape:showpageshadow="2"
     inkscape:pageopacity="0.0"
     inkscape:pagecheckerboard="0"
     inkscape:deskcolor="#d1d1d1"
     showgrid="false"
     inkscape:zoom="2.2433333"
     inkscape:cx="300"
     inkscape:cy="107.42942"
     inkscape:window-width="1920"
     inkscape:window-height="1027"
     inkscape:window-x="-8"
     inkscape:window-y="-8"
     inkscape:window-maximized="1"
     inkscape:current-layer="svg2870" />
  <defs
     id="defs2872" />
  <g
     transform="translate(-69.365951,-194.82121)"
     id="layer1">
    <path
       d="M 79.3387,236.494 L 78.904,236.2942 L 80.7044,236.0606 C 80.7367,236.1164 80.767,236.1653 80.8036,236.2153 L 79.3387,236.494 L 79.3387,236.494 z M 84.1715,236.494 L 84.6056,236.2822 L 82.8145,236.0555 C 82.799,236.1164 82.7514,236.1653 82.7197,236.2153 L 84.1715,236.494 L 84.1715,236.494 z M 83.9097,236.5271 L 83.3647,236.7197 L 82.5895,236.4706 L 82.522,236.4479 C 82.5481,236.4262 82.5688,236.4051 82.5895,236.3762 C 82.6212,236.3483 82.6481,236.3107 82.6784,236.2822 L 83.9097,236.5271 L 83.9097,236.5271 z M 85.349,235.989 L 84.8509,236.2332 L 82.861,235.989 C 82.8779,235.939 82.894,235.8884 82.9085,235.8387 L 85.349,235.989 z M 85.5268,235.9159 L 86.1772,235.4787 L 82.6581,235.4787 C 82.6581,235.6348 82.6363,235.7674 82.5895,235.8842 C 82.4534,236.2546 82.1141,236.4324 81.773,236.4262 C 81.4381,236.4165 81.0971,236.2332 80.9462,235.8946 C 80.8925,235.7712 80.8611,235.641 80.8611,235.4787 L 77.3326,235.4787 L 77.9772,235.9159 L 80.6733,235.7674 C 80.7243,235.9717 80.8201,236.1502 80.9462,236.2822 C 81.1612,236.5206 81.4695,236.6542 81.773,236.6542 C 82.0717,236.6604 82.3745,236.5436 82.5895,236.289 C 82.7046,236.1554 82.7934,235.9841 82.8455,235.7781 L 85.5268,235.9159 L 85.5268,235.9159 z M 82.5895,237.048 L 82.6581,237.181 L 82.5895,237.2154 L 82.4062,237.3029 L 82.1981,236.8637 C 82.0665,236.9136 81.9198,236.9422 81.773,236.9467 C 81.6152,236.9539 81.4537,236.9305 81.3128,236.8816 L 81.1343,237.3029 C 81.0767,237.3081 80.9965,237.3029 80.9462,237.2644 C 80.9197,237.2471 80.8925,237.2192 80.8831,237.181 L 80.9462,237.0693 L 81.0971,236.7807 C 81.0499,236.7483 81.0082,236.7252 80.9662,236.6814 L 81.0929,236.5206 C 81.3079,236.6604 81.5422,236.7359 81.773,236.7359 C 82.0031,236.7431 82.2336,236.6649 82.4479,236.5044 L 82.5895,236.5481 L 82.6481,236.5712 C 82.626,236.5877 82.6109,236.6029 82.5895,236.6208 C 82.5481,236.6649 82.511,236.7097 82.4431,236.7483 L 82.5895,237.048 L 82.5895,237.048 z M 82.5895,234.779 C 82.7252,234.9513 82.8255,235.1628 82.8779,235.4061 L 82.6529,235.4061 C 82.6363,235.3337 82.6164,235.2627 82.5895,235.1966 C 82.4383,234.7742 82.1286,234.4748 81.773,234.2258 C 81.7262,234.1972 81.6838,234.1648 81.6366,234.1376 C 81.6838,234.1538 81.7262,234.1696 81.773,234.1872 C 82.0975,234.3246 82.3856,234.5141 82.5895,234.779 L 82.5895,234.779 z M 81.9811,236.3428 C 82.0407,236.3335 82.1286,236.2976 82.1981,236.2439 L 81.8412,235.4946 L 82.2126,235.3072 L 81.8991,235.0188 L 81.773,235.0801 L 81.2328,235.3389 L 81.3913,235.7165 L 81.6466,235.5948 L 81.9811,236.3428 L 81.9811,236.3428 z M 81.0082,236.4479 C 80.9875,236.4324 80.9662,236.411 80.9462,236.3927 C 80.9038,236.3545 80.8673,236.3159 80.8401,236.2756 L 79.6116,236.5226 L 80.1342,236.7097 L 81.0082,236.4479 z M 80.6733,235.989 C 80.6527,235.939 80.6375,235.8884 80.621,235.8387 L 78.1605,235.989 L 78.658,236.2439 L 80.6733,235.989 z "
       transform="matrix(67.838003,0,0,67.838003,-5176.7232,-15688.606)"
       style="fill:#00529c;fill-rule:evenodd;fill-opacity:1"
       id="_130878248" />
  </g>
</svg>
