<?xml version="1.0" encoding="UTF-8" standalone="no"?>
<!DOCTYPE svg PUBLIC "-//W3C//DTD SVG 1.1//EN" "http://www.w3.org/Graphics/SVG/1.1/DTD/svg11.dtd">
<svg width="100%" height="100%" viewBox="0 0 95 150" version="1.1" xmlns="http://www.w3.org/2000/svg" xmlns:xlink="http://www.w3.org/1999/xlink" xml:space="preserve" xmlns:serif="http://www.serif.com/" style="fill-rule:evenodd;clip-rule:evenodd;stroke-linejoin:round;stroke-miterlimit:2;">
    <g transform="matrix(4.166667,0,0,4.166667,0,0)">
        <g transform="matrix(1,0,0,1,-40.957,0)">
            <path d="M46.896,0.953C45.975,3.364 45.667,4.778 45.673,6.573C45.677,7.938 45.83,8.768 46.255,9.731C46.767,10.892 47.437,11.723 49.859,14.2C52.878,17.286 53.691,18.427 54.43,20.616C54.788,21.679 54.784,21.744 54.408,20.929C53.578,19.129 52.324,17.671 48.643,14.223C46.498,12.213 45.52,10.769 44.993,8.831C44.812,8.164 44.774,7.746 44.767,6.352C44.763,5.431 44.728,4.708 44.691,4.747C44.391,5.052 43.211,8.357 42.919,9.707C42.019,13.876 42.756,17.381 45.311,21.081C47.844,24.748 47.907,24.871 47.987,26.304C48.156,29.36 46.043,32.583 42.158,35.193L40.957,36L41.449,35.929C42.262,35.812 44.622,35.108 45.846,34.616C49.202,33.269 51.239,31.417 52.077,28.951C52.364,28.103 52.341,25.966 52.032,24.889C51.441,22.834 50.564,21.488 48.273,19.126C46.511,17.311 46.041,16.643 45.864,15.705L45.797,15.354L46.062,15.805C46.508,16.566 46.958,17.048 48.388,18.301C49.144,18.963 49.972,19.748 50.228,20.046C52.717,22.938 53.807,27.51 52.611,30.046C52.398,30.497 52.359,30.657 52.462,30.657C52.762,30.657 54.509,29.369 55.316,28.553C56.956,26.894 57.741,25.405 59.01,21.549C59.498,20.067 60.082,18.486 60.307,18.037C60.883,16.888 61.723,16.012 62.707,15.534C63.127,15.33 63.493,15.145 63.521,15.122C63.627,15.037 62.541,14.176 61.97,13.893C60.369,13.098 58.5,13.386 57.067,14.646L56.567,15.087L56.748,15.371C57.137,15.979 57.508,16.902 57.659,17.637C57.836,18.497 57.876,20.321 57.717,20.321C57.662,20.321 57.617,20.213 57.617,20.082C57.617,19.645 57.122,18.119 56.721,17.319C56.085,16.051 55.451,15.301 52.769,12.644C50.646,10.541 50.129,9.971 49.572,9.118C48.136,6.922 47.518,4.78 47.334,1.355L47.261,0L46.896,0.953Z" style="fill:rgb(41,59,143);"/>
        </g>
    </g>
</svg>
