<svg role="img" viewBox="0 0 24 24" xmlns="http://www.w3.org/2000/svg" fill="#0080be"><title>Aerolíneas Argentinas</title><path d="M11.382 13.136C8.04 13.719 3.47 14.146.035 15.16c-.06 0-.03.06 0 .06h23.95q.03 0 0-.06c-.153-.797-.767-1.687-2.638-1.687h-1.074c.307.767-.551 1.257-1.104.797-.247-.184-.46-.674.123-1.074.43-.307 1.104-.737 1.504-1.011 1.41-.89 1.227-2.208-.674-2.332-4.51-.306-12.482-.857-15.885-1.073-.06 0-.123.06-.06.06 2.669 1.44 5.06 1.564 7.729 2.545 1.504.55 1.227 1.35-.584 1.655l.06.093z"/></svg>