<?xml version="1.0" encoding="UTF-8" standalone="no"?><!DOCTYPE svg PUBLIC "-//W3C//DTD SVG 1.1//EN" "http://www.w3.org/Graphics/SVG/1.1/DTD/svg11.dtd"><svg width="100%" height="100%" viewBox="0 0 101 72" version="1.1" xmlns="http://www.w3.org/2000/svg" xmlns:xlink="http://www.w3.org/1999/xlink" xml:space="preserve" xmlns:serif="http://www.serif.com/" style="fill-rule:evenodd;clip-rule:evenodd;stroke-linejoin:round;stroke-miterlimit:2;"><g id="Layer-1" serif:id="Layer 1"><g id="g9085"><path id="path2784" d="M19.617,36.665l-15.867,34.391l24.599,0.093l9.635,-24.184l-18.367,-10.3Z" style="fill:#231f20;fill-rule:nonzero;"/><path id="path2788" d="M36.094,0l-9.449,20.597l21.168,0.941l4.917,9.457c0,0 5.7,-15.5 17.221,-13.987l-7.56,-17.009l-26.297,0Z" style="fill:#231f20;fill-rule:nonzero;"/><path id="path2792" d="M100.162,18.896l-22.303,-0.187c0,0 -12.287,1.699 -16.629,13.236l-8.695,22.479c0,0 -6.329,18.147 -23.617,16.631c0,0 22.485,5.204 33.447,-18.321l7.561,18.892l24.375,0l-20.025,-44.972c0,0 4.153,-6.245 25.887,-7.757" style="fill:#231f20;fill-rule:nonzero;"/><path id="path2796" d="M0,18.896l48.945,0l3.409,7.757c0,0 6.981,-17.011 23.891,-8.509c0,0 -14.072,-1.888 -18.605,11.725l-8.504,21.339l-6.617,-16.621l-42.519,-15.691Z" style="fill:#fff000;fill-rule:nonzero;"/><path id="path2800" d="M0.185,28.153l23.253,0l14.545,18.908l-37.799,-18.908Z" style="fill:#fff000;fill-rule:nonzero;"/></g></g></svg>