<?xml version="1.0" encoding="UTF-8" standalone="no"?>
<!DOCTYPE svg PUBLIC "-//W3C//DTD SVG 1.1//EN" "http://www.w3.org/Graphics/SVG/1.1/DTD/svg11.dtd">
<svg width="100%" height="100%" viewBox="0 0 287 288" version="1.1" xmlns="http://www.w3.org/2000/svg" xmlns:xlink="http://www.w3.org/1999/xlink" xml:space="preserve" xmlns:serif="http://www.serif.com/" style="fill-rule:evenodd;clip-rule:evenodd;stroke-linejoin:round;stroke-miterlimit:2;">
    <g transform="matrix(4.166667,0,0,4.166667,0,0)">
        <g transform="matrix(1,0,0,1,-2.360595,-0.460595)">
            <g>
                <g id="XMLID_63_">
                    <g>
                        <g>
                            <path d="M52.8,63.9C44.9,61.1 37.2,48.5 37.2,41.6C37.2,40.2 37.6,38.6 39.2,37.1C40.6,35.7 41.8,35.5 43.3,35.3L47.2,35.3C53.9,35.1 62.6,33.7 69.1,28C69.5,27.6 69.9,27.4 70.3,27L70.5,27C70.9,30.2 71.9,32.7 70.1,34.9C68.3,36.9 61.8,39.4 54.7,39.4C51.2,39.4 47.2,39 41.7,37.6C43.5,40 51.7,43.5 55.5,44.3C60.8,45.7 64.4,45.5 69.3,44.7C69.3,44.7 69.5,44.7 69.3,44.9C68.1,47.7 67.7,50.6 65,51.4C62.6,52.2 58.9,51.2 57.7,51C51.1,49.6 44.2,45 40,39.7C40.4,44.4 46.9,53.1 53.2,57C55.2,58.2 57.3,59.2 59.7,60C60.1,60 59.9,60.2 59.7,60.2C56.8,62.8 55.4,64.5 52.8,63.9Z" style="fill:rgb(3,78,162);fill-rule:nonzero;"/>
                        </g>
                        <g>
                            <path d="M7.9,51.1C10.7,43.2 23.3,35.5 30.2,35.5C31.6,35.5 33.2,35.9 34.7,37.5C36.1,38.9 36.3,40.1 36.5,41.6L36.5,45.5C36.7,52.2 38.1,60.9 43.8,67.4C44.2,67.8 44.4,68.2 44.8,68.6L44.8,68.8C41.6,69.2 39.1,70.2 36.9,68.4C34.9,66.6 32.4,60.1 32.4,53C32.4,49.5 32.8,45.5 34.2,40C31.8,41.8 28.3,50 27.5,53.8C26.1,59.1 26.3,62.7 27.1,67.6C27.1,67.6 27.1,67.8 26.9,67.6C24.1,66.4 21.2,66 20.4,63.3C19.6,60.9 20.6,57.2 20.8,56C22.4,49.3 26.9,42.4 32.2,38.3C27.5,38.7 18.8,45.2 14.9,51.5C13.7,53.5 12.7,55.6 11.9,58C11.9,58.4 11.7,58.2 11.7,58C9.1,55.1 7.3,53.7 7.9,51.1Z" style="fill:rgb(3,78,162);fill-rule:nonzero;"/>
                        </g>
                        <g>
                            <path d="M20.7,6.1C28.6,8.9 36.3,21.5 36.3,28.4C36.3,29.8 35.9,31.4 34.3,32.9C32.9,34.3 31.7,34.5 30.2,34.7L26.3,34.7C19.4,34.7 10.9,36.1 4.4,41.8C4,42.2 3.6,42.4 3.2,42.8L3,42.8C2.6,39.6 1.6,37.1 3.4,34.9C5.2,32.9 11.7,30.4 18.8,30.4C22.3,30.4 26.3,30.8 31.8,32.2C30,29.8 21.8,26.3 18,25.5C12.7,24 9.1,24.2 4.2,25C4.2,25 4,25 4.2,24.8C5.2,21.8 5.6,18.9 8.3,18.1C10.7,17.3 14.4,18.3 15.6,18.5C22.3,20.1 29.2,24.6 33.3,29.9C32.9,25.2 26.4,16.5 20.1,12.6C18.3,11.4 16,10.4 13.8,9.8C13.4,9.8 13.6,9.6 13.8,9.6C16.8,7.2 18.2,5.5 20.7,6.1Z" style="fill:rgb(251,171,24);fill-rule:nonzero;"/>
                        </g>
                        <g>
                            <path d="M65.6,18.9C62.8,26.8 50.2,34.5 43.3,34.5C41.9,34.5 40.3,34.1 38.8,32.5C37.4,31.1 37.2,29.9 37,28.4L37,24.5C37.2,17.6 35.6,9.1 30.1,2.6C29.7,2.2 29.5,1.8 29.1,1.4L29.1,1.1C32.3,0.7 34.8,-0.3 37,1.5C39,3.3 41.5,9.8 41.5,16.9C41.5,20.4 41.1,24.4 39.7,29.9C42.1,28.1 45.6,19.9 46.4,16.1C47.8,10.8 47.6,7.2 46.8,2.3C46.8,2.3 46.8,2.1 47,2.3C49.8,3.5 52.7,3.9 53.5,6.6C54.3,9 53.3,12.7 53.1,13.9C51.5,20.6 47,27.5 41.7,31.6C46.4,31.2 55.1,24.7 59,18.4C60.2,16.4 61.2,14.3 62,11.9C62,11.5 62.2,11.7 62.2,11.9C64.4,14.9 66.2,16.3 65.6,18.9Z" style="fill:rgb(251,171,24);fill-rule:nonzero;"/>
                        </g>
                    </g>
                </g>
            </g>
        </g>
    </g>
</svg>
