<?xml version="1.0" encoding="UTF-8" standalone="no"?>
<!DOCTYPE svg PUBLIC "-//W3C//DTD SVG 1.1//EN" "http://www.w3.org/Graphics/SVG/1.1/DTD/svg11.dtd">
<svg width="100%" height="100%" viewBox="0 0 1760 1290" version="1.1" xmlns="http://www.w3.org/2000/svg" xmlns:xlink="http://www.w3.org/1999/xlink" xml:space="preserve" xmlns:serif="http://www.serif.com/" style="fill-rule:evenodd;clip-rule:evenodd;stroke-linejoin:round;stroke-miterlimit:2;">
    <g transform="matrix(4.166667,0,0,4.166667,0,0)">
        <g transform="matrix(1,0,0,1,-807.57,-139.75)">
            <path d="M1229.75,352.28L1024.14,352.28C1017.18,352.28 1007.69,348.03 1003.06,342.87L953.79,288.07C929.93,261.5 923.79,268.84 922.48,277.49L922.48,322.01C922.48,333.68 917.66,344.82 909.19,352.87L807.57,449.26L807.57,386.03C807.57,374.81 812.01,364.01 819.95,356.03L922.43,253.17L820.57,139.75L935.13,139.75C951.99,139.75 976.49,148.41 989.63,158.94L1229.75,352.28Z" style="fill:rgb(174,248,33);fill-rule:nonzero;"/>
        </g>
    </g>
</svg>
