<?xml version="1.0" encoding="utf-8"?>
<!-- Generator: Adobe Illustrator 14.0.0, SVG Export Plug-In . SVG Version: 6.00 Build 43363)  -->
<!DOCTYPE svg PUBLIC "-//W3C//DTD SVG 1.1//EN" "http://www.w3.org/Graphics/SVG/1.1/DTD/svg11.dtd">
<svg version="1.1" id="Layer_1" xmlns="http://www.w3.org/2000/svg" xmlns:xlink="http://www.w3.org/1999/xlink" x="0px" y="0px"
	 width="200px" height="60px" viewBox="0 0 200 60" enable-background="new 0 0 200 60" xml:space="preserve">
<g>
	<path d="M17.845,42.713l6.307-10.686l2.008,9.758L17.845,42.713z M22.837,23.745L0,58.811l7.721-0.423l6.371-9.664l13.375-1.334
		l2.46,9.359l7.404-0.299l-8.637-33.637L22.837,23.745"/>
	<polygon points="44.898,56.261 51.943,55.763 58.5,18.827 51.578,19.915 	"/>
	<path d="M93.851,21.252c-2.518-7.089-11.064-5.362-11.064-5.362L68.79,17.775l-6.677,37.599l7.071-0.402l5.463-31.901l5.58-0.697
		c0,0,1.382-0.181,2.916,0.094c2.379,0.378,5.103,1.828,3.596,6.57c-1.436,6.366-13.16,6.752-13.16,6.752l11.285,18.036l8.71-0.543
		l-9.118-13.82C84.457,39.463,96.383,35.17,93.851,21.252z"/>
	<path d="M134.824,41.421c-4.645,3.024-13.113,2.816-13.113,2.816l3.646-27.43c0,0,5.445-0.874,6.489-0.996
		c1.05-0.13,3.386-0.143,4.712,0.146c4.917,0.288,5.878,6.198,5.878,6.198S145.227,34.024,134.824,41.421z M137.913,8.27
		c0,0-3.234-0.143-7.082,0.439c-3.832,0.575-11.951,1.729-11.951,1.729l-5.949,41.601l12.404-0.834c0,0,13.057,0.036,19.981-10.111
		c1.214-1.469,9.141-14.756,2.253-27.296C147.569,13.797,143.605,8.103,137.913,8.27"/>
	<path d="M191.175,28.879c-1.409,5.532-8.255,14.667-17.705,12.483c-1.537-0.12-13.142-5.572-5.597-22.023
		c0,0,5.182-10.587,15.387-9.685C187.233,9.948,195.453,15.009,191.175,28.879z M185.368,1.23
		c-17.768-1.029-25.532,17.942-26.211,20.441c-6.089,18.503,6.611,27.285,13.315,27.948c17.466,1.56,25.289-16.001,26.546-21.754
		C203.798,6.893,189.81,1.461,185.368,1.23"/>
</g>
</svg>
