<?xml version="1.0" encoding="UTF-8" standalone="no"?>
<!DOCTYPE svg PUBLIC "-//W3C//DTD SVG 1.1//EN" "http://www.w3.org/Graphics/SVG/1.1/DTD/svg11.dtd">
<svg width="100%" height="100%" viewBox="0 0 133 226" version="1.1" xmlns="http://www.w3.org/2000/svg" xmlns:xlink="http://www.w3.org/1999/xlink" xml:space="preserve" xmlns:serif="http://www.serif.com/" style="fill-rule:evenodd;clip-rule:evenodd;stroke-linejoin:round;stroke-miterlimit:2;">
    <g transform="matrix(4.166667,0,0,4.166667,0,0)">
        <g id="path36297" transform="matrix(3.779527,0,0,3.779527,-880.198904,-1195.542665)">
            <path d="M233.349,322.207C233.127,322.564 232.63,323.045 233.049,323.304C233.395,323.312 233.639,323.392 233.632,323.648C233.623,323.946 233.294,323.961 233.248,324.149C233.186,324.407 233.576,324.441 233.673,324.627C233.651,324.799 233.351,324.853 233.4,325.133C233.499,325.241 233.611,325.212 233.687,325.285C233.943,325.528 233.557,325.848 233.525,326.073C233.465,326.488 234.162,326.913 234.679,326.91C235.859,326.904 237.282,326.194 238.505,326.932C238.053,327.031 236.956,326.876 236.914,327.576C236.902,327.78 237.157,328.027 237.269,328.21C237.705,328.908 238.053,329.757 238.139,330.612C238.861,327.955 239.508,324.971 240.194,322.179C238.842,321.59 237.859,320.69 236.26,320.229C235.582,320.033 234.806,319.971 234.223,320.052C234.229,320.337 234.042,320.412 234.033,320.611C234.022,320.851 234.42,320.984 234.619,321.124C234.874,321.302 235.013,321.497 235.053,321.736C234.86,321.661 234.902,321.485 234.603,321.475C234.522,321.472 234.382,321.554 234.229,321.566C234.12,321.576 233.923,321.381 233.865,321.394C233.676,321.437 233.459,322.032 233.349,322.207" style="fill:rgb(0,121,179);fill-rule:nonzero;"/>
        </g>
        <g id="path36301" transform="matrix(3.779527,0,0,3.779527,-880.198904,-1195.542665)">
            <path d="M235.25,317.423C235.14,317.578 235.053,317.765 234.957,317.942C235.271,317.983 235.671,318.016 236.028,318.089C238.053,318.501 238.84,320.031 240.551,320.627C240.802,319.8 241.034,318.628 241.253,317.763C241.313,317.526 241.36,317.373 241.239,317.199C240.987,316.988 240.523,317.078 240.318,316.86C240.198,316.733 240.3,316.595 240.158,316.547C239.676,316.386 239.191,316.668 238.878,316.321C238.688,316.476 238.275,316.392 237.962,316.412C237.754,316.426 237.56,316.709 237.403,316.409C236.995,316.467 236.8,316.927 236.38,316.927C236.297,316.927 236.208,316.852 236.115,316.854C235.788,316.862 235.704,317.406 235.419,317.513C235.307,317.523 235.34,317.379 235.25,317.423" style="fill:rgb(0,121,179);fill-rule:nonzero;"/>
        </g>
        <g id="path36303" transform="matrix(3.779527,0,0,3.779527,-880.198904,-1195.542665)">
            <path d="M236.29,326.683C236.29,326.683 236.422,326.597 237.127,326.585C238.064,326.569 238.505,326.931 238.505,326.931C238.46,326.955 238.284,326.972 237.928,326.996C237.562,327.022 237.278,327.116 237.278,327.116C236.812,327.308 236.945,327.727 236.945,327.727C236.551,327.179 236.29,326.683 236.29,326.683" style="fill:rgb(0,75,134);fill-rule:nonzero;"/>
        </g>
    </g>
</svg>
