<?xml version="1.0" encoding="UTF-8" standalone="no"?><!DOCTYPE svg PUBLIC "-//W3C//DTD SVG 1.1//EN" "http://www.w3.org/Graphics/SVG/1.1/DTD/svg11.dtd"><svg width="100%" height="100%" viewBox="0 0 301 177" version="1.1" xmlns="http://www.w3.org/2000/svg" xmlns:xlink="http://www.w3.org/1999/xlink" xml:space="preserve" xmlns:serif="http://www.serif.com/" style="fill-rule:evenodd;clip-rule:evenodd;stroke-linejoin:round;stroke-miterlimit:2;"><path d="M218.6,57.2c24.2,0 47,-11.3 61.7,-30.6l20.1,-26.6l-62.9,0c-20.9,0 -41,7.5 -56.8,21.1l-41.8,36l79.7,0.1Z" style="fill:#a62323;fill-rule:nonzero;"/><path d="M287,33.4c-16.5,22 -42.4,34.9 -69.9,34.9l-91.3,0l-34,29.3l108.8,0c33.4,0 64.8,-15.8 84.7,-42.6l14.9,-20l0,-19.4l-13.2,17.8Z" style="fill:#a62323;fill-rule:nonzero;"/><path d="M300.4,108.4l0,-22.3l-9.3,13.7c-26.8,39.5 -71.4,63.2 -119.1,63.2l-155.8,0l-16.2,14l166.9,0c62.8,0 102.9,-26.1 133.5,-68.6Z" style="fill:#a62323;fill-rule:nonzero;"/><path d="M295.1,59c-22.3,35.3 -61,56.7 -102.8,56.7l-121.3,0l-24.1,20.8l141.1,0c40.6,0 78.7,-19.5 102.3,-52.4l10.1,-14l0,-19.5l-5.3,8.4Z" style="fill:#a62323;fill-rule:nonzero;"/></svg>