<?xml version="1.0" encoding="UTF-8" standalone="no"?>
<!DOCTYPE svg PUBLIC "-//W3C//DTD SVG 1.1//EN" "http://www.w3.org/Graphics/SVG/1.1/DTD/svg11.dtd">
<svg width="100%" height="100%" viewBox="0 0 847 805" version="1.1" xmlns="http://www.w3.org/2000/svg" xmlns:xlink="http://www.w3.org/1999/xlink" xml:space="preserve" xmlns:serif="http://www.serif.com/" style="fill-rule:evenodd;clip-rule:evenodd;stroke-linejoin:round;stroke-miterlimit:2;">
    <g transform="matrix(4.166667,0,0,4.166667,0,0)">
        <g transform="matrix(6.227736,0,0,6.227736,-719.974255,0)">
            <path d="M137.294,9.154C137.294,9.154 137.294,9.154 137.294,9.154C131.3,9.154 126.368,14.086 126.368,20.08C126.368,20.08 126.368,20.08 126.368,20.08C126.368,26.074 131.3,31.006 137.294,31.006C137.294,31.006 137.294,31.006 137.294,31.006C143.288,31.006 148.22,26.074 148.22,20.08C148.22,20.08 148.22,20.08 148.22,20.08C148.22,14.086 143.288,9.154 137.294,9.154ZM137.294,14.391C140.416,14.391 142.984,16.959 142.984,20.08C142.984,23.202 140.416,25.77 137.294,25.77C134.173,25.77 131.605,23.202 131.605,20.08C131.605,16.959 134.173,14.391 137.294,14.391L137.294,14.391Z" style="fill:rgb(180,188,175);fill-rule:nonzero;"/>
        </g>
        <g transform="matrix(6.227736,0,0,6.227736,-719.974255,0)">
            <path d="M121.325,21.025L115.608,20.978L123.687,0.047L129.64,0L137.483,20.978L131.672,21.025L126.522,6.567L121.325,21.025Z" style="fill:rgb(58,186,151);fill-rule:nonzero;"/>
        </g>
        <g transform="matrix(6.227736,0,0,6.227736,-719.974255,0)">
            <path d="M133.343,9.905C131.597,10.582 130.055,11.697 128.864,13.142L131.672,21.025L131.685,21.025C131.632,20.713 131.605,20.397 131.604,20.08C131.606,17.762 133.023,15.667 135.174,14.804L133.343,9.905Z" style="fill:rgb(5,142,126);fill-rule:nonzero;"/>
        </g>
    </g>
</svg>
