<?xml version="1.0" encoding="UTF-8" standalone="no"?>
<!DOCTYPE svg PUBLIC "-//W3C//DTD SVG 1.1//EN" "http://www.w3.org/Graphics/SVG/1.1/DTD/svg11.dtd">
<svg width="100%" height="100%" viewBox="0 0 642 468" version="1.1" xmlns="http://www.w3.org/2000/svg" xmlns:xlink="http://www.w3.org/1999/xlink" xml:space="preserve" xmlns:serif="http://www.serif.com/" style="fill-rule:evenodd;clip-rule:evenodd;stroke-linejoin:round;stroke-miterlimit:2;">
    <g transform="matrix(4.166667,0,0,4.166667,0,0)">
        <g id="g4" transform="matrix(0.01533,0,0,-0.016432,-17.644195,128.498084)">
            <path id="path1-0" d="M9119,7793C9083,7753 9072,7723 9067,7650C9064,7613 9046,7537 9025,7475C9005,7415 8984,7338 8979,7305C8964,7215 8820,6926 8701,6746C8687,6724 8658,6679 8637,6646C8535,6484 8354,6279 8164,6108C8099,6050 7937,5913 7805,5805C7239,5342 6926,5054 6861,4938C6843,4907 6809,4853 6783,4819C6726,4740 6721,4724 6710,4560C6692,4304 6640,4043 6575,3886C6555,3838 6530,3763 6519,3720C6468,3512 6393,3339 6276,3156C6230,3084 6162,2964 6125,2890C6048,2736 6018,2697 5934,2641C5857,2590 5708,2435 5712,2412C5723,2356 5895,2416 6091,2543C6137,2573 6197,2605 6225,2615C6252,2624 6279,2635 6285,2639C6290,2644 6318,2655 6345,2666C6373,2676 6436,2715 6485,2752C6535,2790 6620,2844 6675,2872C6992,3035 7521,3458 7965,3904C8182,4122 8535,4515 8675,4695C8774,4823 8966,5111 9024,5220C9148,5456 9346,5950 9374,6098C9382,6140 9400,6207 9414,6245C9446,6337 9460,6490 9460,6755C9460,7208 9425,7425 9317,7633C9276,7714 9186,7820 9159,7820C9151,7820 9133,7808 9119,7793Z" style="fill:rgb(0,0,255);fill-rule:nonzero;"/>
            <path id="path2-9" d="M9455,5201C9419,5186 9348,5100 9165,4850C9066,4716 8958,4578 8925,4543C8892,4509 8837,4443 8803,4398C8591,4113 8052,3615 7528,3221C7318,3062 6806,2737 6589,2625C6491,2574 6377,2509 6335,2480C6237,2414 6150,2373 5979,2311C5680,2204 5614,2130 5817,2130C5924,2130 6023,2150 6185,2206C6257,2231 6401,2276 6505,2306C6610,2337 6736,2377 6785,2396C6835,2415 6917,2442 6968,2456C7020,2469 7081,2489 7105,2500C7129,2511 7151,2520 7154,2520C7157,2520 7316,2600 7507,2698C7853,2876 8010,2962 8142,3047C8180,3072 8241,3105 8276,3121C8312,3138 8375,3180 8418,3217C8602,3377 8843,3606 8917,3692C9169,3986 9412,4372 9451,4539C9457,4564 9471,4604 9481,4628C9492,4652 9497,4676 9494,4682C9490,4688 9491,4690 9497,4687C9509,4679 9537,4765 9550,4855C9571,5007 9557,5144 9514,5187C9489,5212 9485,5213 9455,5201Z" style="fill:rgb(0,0,255);fill-rule:nonzero;"/>
            <path id="path3-4" d="M9024,3390C9001,3378 8945,3338 8899,3300C8599,3051 8127,2738 8016,2714C7983,2707 7954,2689 7825,2595C7730,2526 7693,2509 7563,2471C7509,2456 7391,2416 7300,2383C7209,2350 7101,2315 7060,2306C6977,2288 6925,2273 6895,2260C6884,2255 6841,2242 6800,2230C6759,2219 6705,2202 6680,2193C6655,2185 6586,2165 6527,2149C6468,2133 6412,2116 6402,2111C6359,2088 6106,2035 5780,1980C5338,1906 5217,1874 5267,1846C5330,1811 6517,1830 6825,1871C6939,1886 7684,2035 7776,2060C7941,2107 8436,2343 8612,2459C8929,2669 9197,3091 9152,3309C9140,3365 9108,3410 9081,3410C9072,3410 9046,3401 9024,3390Z" style="fill:rgb(0,0,255);fill-rule:nonzero;"/>
            <path id="path4-8" d="M1934,2292C1878,2265 1827,2218 1773,2143C1748,2108 1714,2072 1697,2063C1664,2047 1604,2047 1268,2066C1142,2073 1129,2068 1176,2031C1218,1998 1345,1963 1595,1914C1722,1889 1956,1838 2115,1800C2492,1711 2555,1698 2805,1655C2921,1635 3094,1602 3190,1580C3286,1559 3500,1516 3665,1485C4035,1415 4292,1361 4464,1315C4617,1275 4755,1250 4824,1250C4887,1250 5054,1226 5202,1195C5348,1164 5516,1144 5740,1130C5836,1124 5938,1113 5965,1106C6119,1064 6231,1054 6840,1030C6986,1024 7173,1013 7255,1004C7518,978 8425,986 9230,1020C9546,1034 9998,1059 10036,1065C10053,1068 10163,1075 10281,1080C10399,1086 10518,1092 10545,1095C10573,1097 10638,1102 10690,1105C10742,1108 10812,1117 10845,1125C10878,1133 10921,1140 10941,1140C10979,1140 11128,1190 11168,1216C11228,1255 11198,1290 11105,1290C11064,1290 11032,1284 11006,1270C10963,1249 10886,1226 10705,1182L10585,1153L10380,1161C9540,1194 9427,1209 9104,1326C8837,1422 8733,1490 8412,1783L8208,1967L8167,1958C8144,1953 7980,1915 7803,1875C7356,1771 6946,1717 6150,1655C5886,1635 5217,1623 5148,1638C5119,1644 5014,1654 4915,1660C4816,1666 4704,1678 4665,1686C4627,1693 4532,1704 4455,1710C3938,1749 3633,1798 3350,1889C3225,1929 3144,1947 3037,1959C2974,1966 2928,1979 2872,2004C2830,2023 2782,2042 2765,2046C2731,2054 2689,2075 2645,2106C2628,2118 2602,2130 2586,2134C2571,2138 2501,2168 2431,2201C2252,2286 2203,2301 2080,2306C1991,2310 1969,2308 1934,2292Z" style="fill:rgb(0,0,255);fill-rule:nonzero;"/>
        </g>
    </g>
</svg>
