<?xml version="1.0" encoding="UTF-8" standalone="no"?>
<!DOCTYPE svg PUBLIC "-//W3C//DTD SVG 1.1//EN" "http://www.w3.org/Graphics/SVG/1.1/DTD/svg11.dtd">
<svg width="100%" height="100%" viewBox="0 0 196 141" version="1.1" xmlns="http://www.w3.org/2000/svg" xmlns:xlink="http://www.w3.org/1999/xlink" xml:space="preserve" xmlns:serif="http://www.serif.com/" style="fill-rule:evenodd;clip-rule:evenodd;stroke-linejoin:round;stroke-miterlimit:2;">
    <g transform="matrix(4.166667,0,0,4.166667,0,0)">
        <g transform="matrix(1,0,0,1,-0.389648,-0)">
            <path d="M23.801,4.065C23.844,4.067 23.89,4.058 23.923,4.04C24.26,3.861 24.594,3.677 24.929,3.493C25.538,3.158 26.148,2.823 26.767,2.516C28.966,1.425 31.238,0.607 33.565,0.007C33.642,-0.013 33.756,0.011 33.815,0.068C34.212,0.46 34.604,0.86 34.996,1.26L35.261,1.53C35.282,1.552 35.301,1.578 35.325,1.611C35.338,1.629 35.352,1.648 35.368,1.67C32.063,2.408 28.927,3.661 25.928,5.442C25.939,5.455 25.948,5.465 25.954,5.474C25.966,5.488 25.973,5.496 25.981,5.502L26.262,5.707C26.681,6.013 27.101,6.319 27.523,6.618C27.57,6.652 27.662,6.644 27.715,6.613C29.181,5.754 30.69,5.022 32.242,4.413C33.58,3.888 34.941,3.468 36.32,3.13C36.445,3.1 36.525,3.123 36.604,3.252C36.804,3.581 37.009,3.906 37.213,4.231C37.32,4.401 37.428,4.572 37.535,4.743C37.558,4.78 37.576,4.819 37.597,4.863C37.607,4.883 37.617,4.905 37.628,4.928C34.754,5.533 32.036,6.603 29.441,8.145C29.448,8.156 29.453,8.166 29.458,8.174C29.465,8.188 29.47,8.198 29.477,8.204L29.704,8.408C30.092,8.757 30.481,9.107 30.873,9.449C30.912,9.483 31,9.477 31.048,9.449C32.607,8.522 34.221,7.757 35.895,7.184C36.461,6.991 37.032,6.82 37.61,6.647C37.872,6.569 38.136,6.49 38.401,6.409L39.168,8.354C36.838,8.898 34.65,9.806 32.554,11.095L32.606,11.153C32.639,11.19 32.666,11.22 32.694,11.249C35.252,13.91 42.089,21.227 47.208,33.766L43.725,33.766C39.612,24.377 35.943,19.395 34.481,17.411L34.472,17.399C33.243,15.73 31.938,14.149 30.553,12.662C30.463,12.566 30.404,12.563 30.307,12.645C30.083,12.832 29.856,13.016 29.63,13.199L29.629,13.2C29.476,13.323 29.323,13.447 29.171,13.572C29.081,13.647 28.993,13.726 28.904,13.806C28.863,13.843 28.822,13.881 28.78,13.918C28.789,13.93 28.796,13.94 28.803,13.948C28.815,13.965 28.825,13.977 28.834,13.987C30.732,16.084 32.936,18.573 34.498,21.029C35.669,22.872 38.457,27.495 40.849,33.766L37.36,33.766C35.054,27.137 30.729,20.053 26.944,15.667L25.458,17.316L25.482,17.349L25.499,17.373C25.521,17.404 25.538,17.427 25.556,17.45C27.76,20.202 29.679,22.81 31.422,26.32L31.508,26.491C32.234,27.951 33.011,29.515 34.499,33.766L30.926,33.766C30.001,30.736 29.193,28.326 28.284,26.533C27.019,24.038 25.605,21.865 24.002,19.66C23.963,19.607 23.922,19.555 23.879,19.502C23.858,19.475 23.836,19.448 23.814,19.42L23.801,19.438L23.801,15.386L23.818,15.403L25.311,13.867C25.237,13.792 25.165,13.718 25.092,13.644C24.924,13.472 24.757,13.302 24.588,13.135C24.46,13.009 24.33,12.884 24.201,12.76C24.104,12.668 24.007,12.575 23.911,12.482C23.873,12.445 23.84,12.419 23.801,12.428L23.801,9.235C23.831,9.24 23.862,9.238 23.881,9.224C24.34,8.891 24.796,8.552 25.252,8.213L25.454,8.062C25.459,8.059 25.462,8.052 25.467,8.042C25.47,8.035 25.473,8.027 25.478,8.018L25.446,7.992L25.405,7.959C25.351,7.916 25.296,7.873 25.241,7.832L23.801,6.903L23.801,4.065ZM25.941,10.56L25.634,10.791L25.904,11.043L25.905,11.044C26.153,11.275 26.389,11.495 26.624,11.717C26.68,11.769 26.734,11.822 26.789,11.876C26.88,11.965 26.971,12.054 27.067,12.137C27.104,12.17 27.186,12.187 27.221,12.161C27.677,11.812 28.131,11.457 28.584,11.102L28.781,10.947C28.786,10.943 28.79,10.937 28.795,10.925C28.799,10.919 28.803,10.911 28.808,10.9C28.771,10.864 28.734,10.828 28.697,10.791C28.619,10.715 28.541,10.638 28.46,10.564C28.113,10.246 27.765,9.928 27.413,9.617C27.372,9.581 27.283,9.558 27.246,9.586C26.813,9.903 26.382,10.227 25.941,10.56Z" style="fill:rgb(168,0,27);"/>
        </g>
        <g transform="matrix(1,0,0,1,-0.389648,-0)">
            <path d="M23.796,4.066C23.753,4.068 23.707,4.059 23.673,4.041C23.337,3.862 23.002,3.678 22.668,3.494C22.058,3.159 21.448,2.824 20.829,2.517C18.631,1.426 16.359,0.608 14.032,0.008C13.954,-0.012 13.841,0.012 13.782,0.069C13.385,0.461 12.993,0.861 12.601,1.261L12.336,1.531C12.315,1.554 12.296,1.579 12.272,1.612C12.259,1.63 12.245,1.649 12.228,1.671C15.534,2.409 18.669,3.662 21.669,5.443C21.658,5.456 21.649,5.466 21.642,5.475C21.63,5.489 21.624,5.497 21.616,5.503L21.334,5.708C20.915,6.014 20.496,6.32 20.074,6.619C20.026,6.653 19.935,6.645 19.882,6.614C18.416,5.755 16.907,5.023 15.355,4.414C14.017,3.889 12.656,3.469 11.276,3.131C11.152,3.101 11.072,3.124 10.993,3.253C10.793,3.582 10.589,3.906 10.384,4.231C10.277,4.402 10.169,4.573 10.062,4.744C10.039,4.781 10.02,4.82 10,4.864C9.99,4.885 9.98,4.906 9.968,4.929C12.843,5.534 15.56,6.604 18.155,8.146C18.148,8.157 18.143,8.167 18.139,8.175C18.131,8.189 18.127,8.199 18.12,8.205L17.892,8.409C17.504,8.758 17.116,9.108 16.724,9.45C16.685,9.484 16.597,9.478 16.549,9.45C14.99,8.523 13.376,7.758 11.701,7.185C11.136,6.992 10.565,6.821 9.987,6.648L9.986,6.648C9.724,6.57 9.461,6.491 9.196,6.41L8.429,8.355C10.759,8.899 12.947,9.807 15.043,11.096L14.991,11.154C14.958,11.191 14.931,11.221 14.903,11.25C12.345,13.911 5.508,21.227 0.39,33.766L3.872,33.766C7.985,24.377 11.654,19.396 13.116,17.412L13.125,17.4C14.354,15.731 15.658,14.15 17.044,12.663C17.134,12.567 17.193,12.564 17.29,12.646C17.514,12.833 17.74,13.017 17.967,13.2L17.968,13.201C18.12,13.324 18.274,13.448 18.425,13.573C18.516,13.648 18.604,13.727 18.692,13.807C18.733,13.845 18.775,13.882 18.817,13.919C18.808,13.931 18.801,13.941 18.794,13.949C18.781,13.966 18.772,13.978 18.762,13.988C16.865,16.085 14.661,18.574 13.099,21.03C11.928,22.873 9.141,27.496 6.748,33.766L10.237,33.766C12.544,27.137 16.868,20.053 20.653,15.668L22.139,17.317L22.121,17.341L22.097,17.374C22.076,17.405 22.059,17.428 22.041,17.451C19.837,20.203 17.918,22.811 16.175,26.321L16.089,26.492C15.363,27.952 14.586,29.515 13.098,33.766L16.671,33.766C17.596,30.736 18.404,28.326 19.312,26.534C20.577,24.039 21.992,21.866 23.595,19.661C23.634,19.608 23.675,19.556 23.718,19.503L23.753,19.458L23.782,19.421L23.796,19.44L23.796,15.386L23.779,15.404L22.286,13.868C22.357,13.795 22.428,13.723 22.498,13.652L22.505,13.645C22.673,13.473 22.84,13.303 23.009,13.136C23.136,13.01 23.267,12.885 23.396,12.761C23.493,12.669 23.59,12.576 23.685,12.483C23.724,12.446 23.757,12.42 23.796,12.429L23.796,9.236C23.766,9.241 23.735,9.239 23.716,9.225C23.257,8.892 22.801,8.553 22.345,8.214L22.143,8.063C22.138,8.06 22.135,8.053 22.13,8.043L22.124,8.03L22.119,8.019C22.143,7.999 22.168,7.98 22.192,7.96C22.246,7.917 22.3,7.874 22.356,7.833L23.796,6.904L23.796,4.066ZM21.655,10.561L21.963,10.792L21.693,11.044C21.445,11.276 21.208,11.496 20.973,11.718C20.917,11.77 20.862,11.823 20.808,11.877C20.717,11.966 20.625,12.055 20.53,12.138C20.493,12.171 20.411,12.188 20.376,12.162C19.92,11.813 19.466,11.458 19.013,11.103L18.816,10.948C18.811,10.944 18.807,10.938 18.802,10.926C18.798,10.92 18.794,10.912 18.789,10.902C18.826,10.866 18.863,10.829 18.9,10.792C18.978,10.716 19.056,10.639 19.137,10.565C19.484,10.247 19.831,9.929 20.183,9.618C20.225,9.582 20.314,9.559 20.351,9.587C20.784,9.904 21.214,10.229 21.655,10.561Z" style="fill:rgb(168,0,27);"/>
        </g>
    </g>
</svg>
