<?xml version="1.0" encoding="UTF-8" standalone="no"?>
<!DOCTYPE svg PUBLIC "-//W3C//DTD SVG 1.1//EN" "http://www.w3.org/Graphics/SVG/1.1/DTD/svg11.dtd">
<svg width="100%" height="100%" viewBox="0 0 164 208" version="1.1" xmlns="http://www.w3.org/2000/svg" xmlns:xlink="http://www.w3.org/1999/xlink" xml:space="preserve" xmlns:serif="http://www.serif.com/" style="fill-rule:evenodd;clip-rule:evenodd;stroke-linejoin:round;stroke-miterlimit:2;">
    <g transform="matrix(4.166667,0,0,4.166667,0,0)">
        <g transform="matrix(1,0,0,1,-107.623,0)">
            <path d="M146.733,16.445L133.991,16.445L127.673,0L121.46,16.362L107.623,16.362L107.728,16.445L118.469,24.294L112.004,41.383L146.733,16.445Z" style="fill:rgb(177,179,182);fill-rule:nonzero;"/>
            <path d="M137.403,25.332L127.863,32.184L130.306,38.497L130.116,38.04L119.691,38.04L114.784,41.57L110.845,44.394L108.76,49.917L116.047,49.917L118.174,43.023L132.033,43.023L132.243,43.605L132.285,43.605L134.665,49.917L146.86,49.917L137.403,25.332Z" style="fill:rgb(249,178,0);fill-rule:nonzero;"/>
        </g>
    </g>
</svg>
