<?xml version="1.0" encoding="UTF-8" standalone="no"?>
<!DOCTYPE svg PUBLIC "-//W3C//DTD SVG 1.1//EN" "http://www.w3.org/Graphics/SVG/1.1/DTD/svg11.dtd">
<svg width="100%" height="100%" viewBox="0 0 785 785" version="1.1" xmlns="http://www.w3.org/2000/svg" xmlns:xlink="http://www.w3.org/1999/xlink" xml:space="preserve" xmlns:serif="http://www.serif.com/" style="fill-rule:evenodd;clip-rule:evenodd;stroke-linejoin:round;stroke-miterlimit:2;">
    <g transform="matrix(3.125,0,0,3.125,0,0)">
        <g transform="matrix(2.013154,0,0,2.013154,-28.586793,-28.586793)">
            <g>
                <path d="M138.9,14.2L138.9,138.9L14.2,138.9L14.2,14.2" style="fill:rgb(0,185,242);fill-rule:nonzero;"/>
                <path d="M37.1,96.2C29,87.8 23.3,72.7 34.4,62.8C41.6,56.4 52.1,56.2 55.4,56C56.3,50.8 62.7,46.7 72.6,44.3C83.7,41.5 100.5,40.2 122.6,40.2L122.6,45.8C99.3,44.9 84.3,46.3 74.9,48.4C64.3,50.8 60.9,54.1 60.5,56C70.1,56 80.1,56.7 87.1,58.2L68.2,74.2C64.6,72.6 56.8,68 55.5,60.9C50.6,61.3 42,61.3 36.7,67.7C29.8,75.8 33.8,85.7 40.6,93.7L37.1,96.2ZM60.4,60.7C61.3,65.7 65.5,67.8 67.9,69L76.5,61.8C71.6,61.1 65.3,60.7 60.4,60.8" style="fill:white;fill-rule:nonzero;"/>
                <path d="M42.3,85.9L44.6,89.6C52.1,85.3 65.1,84.4 72.4,85.9C83.7,88.2 93.4,91.2 119.5,112.7L122.9,108.3C94.8,86 81.5,82.8 71.6,81.6C60.4,80.3 51.1,81.6 42.2,85.9" style="fill:white;fill-rule:nonzero;"/>
            </g>
        </g>
    </g>
</svg>
