<svg role="img" viewBox="0 0 24 24" xmlns="http://www.w3.org/2000/svg" fill="#00b3f0"><title>Air Transat</title><path d="M17.611 0c-2.931.916-5.68 3.435-8.473 6.138C5.565 6.32 1.672 7.74 1.26 7.97c4.122 2.152 5.13 3.114 5.13 3.114s-1.375 3.94-1.65 6.458c.916-2.244 2.703-5.313 3.802-6.779C7.031 9.527 4.191 8.2 4.191 8.2s2.244-.962 6.732-1.191c0 0 1.879-3.619 6.688-7.008zm-2.244 3.344c-.413.87-1.146 2.793-1.283 4.213 3.16.23 5.313.962 5.313.962S16.19 9.71 14.405 11.13c.32.779 1.053 3.069 1.465 4.855-.687-.641-2.748-2.336-4.26-3.252C9.595 13.512 4.1 18.962 1.03 24c1.329-1.374 5.267-5.817 10.58-9.023 1.1.64 6.138 3.94 6.138 3.94s-1.099-5.864-1.51-7.238c1.556-1.053 4.212-2.518 6.731-3.297-3.526-1.42-7.831-1.786-7.831-1.786s-.092-1.1.229-3.252z"/></svg>