<?xml version="1.0" encoding="UTF-8" standalone="no"?><!DOCTYPE svg PUBLIC "-//W3C//DTD SVG 1.1//EN" "http://www.w3.org/Graphics/SVG/1.1/DTD/svg11.dtd"><svg width="100%" height="100%" viewBox="0 0 101 96" version="1.1" xmlns="http://www.w3.org/2000/svg" xmlns:xlink="http://www.w3.org/1999/xlink" xml:space="preserve" xmlns:serif="http://www.serif.com/" style="fill-rule:evenodd;clip-rule:evenodd;stroke-linejoin:round;stroke-miterlimit:2;"><g id="layer1"><g id="g4"><path id="path6-7-1-1-5-0-9" d="M12.78,0c-10.51,0 -12.78,1.94 -12.78,1.94l0,15.18c0,0 2.26,-1.61 9.4,-1.61c7.35,0 14,2 20.63,15.36l8.47,17.07l-10.21,20.29c-2,4 -7.38,11.8 -18.49,11.8c-6.75,0 -9.8,-1.43 -9.8,-1.43l0,15.31c0,0 2.95,1.7 13.45,1.7c15.62,0 24.65,-5.58 33.44,-24.93l10.32,-22.73l-10.37,-22.83c-3.89,-8.52 -7.07,-14.72 -14.1,-19.81c-5.26,-3.76 -11.79,-5.31 -19.96,-5.31Zm75.85,0c-4.89,0 -10.23,0 -16.27,2.79c-6.04,2.79 -12.51,8.73 -18.11,18.24l8.1,17.71c7,-11.81 12.79,-23.26 27.74,-23.26c3.566,-0.036 7.114,0.518 10.5,1.64l0,-15.66c-3.898,-1.044 -7.925,-1.529 -11.96,-1.44l0,-0.02Zm-26.28,56.88l-8.1,18.14c5.6,9.51 12,14.94 18.11,17.81c6.11,2.87 11.39,2.79 16.27,2.79c4.048,0.092 8.089,-0.393 12,-1.44l0,-15.68c-3.412,0.982 -6.949,1.464 -10.5,1.43c-16.18,-0.01 -20.78,-11.24 -27.78,-23.05Z" style="fill:#ff6423;fill-rule:nonzero;"/></g></g></svg>