<?xml version="1.0" encoding="UTF-8" standalone="no"?>
<!DOCTYPE svg PUBLIC "-//W3C//DTD SVG 1.1//EN" "http://www.w3.org/Graphics/SVG/1.1/DTD/svg11.dtd">
<svg width="100%" height="100%" viewBox="0 0 782 293" version="1.1" xmlns="http://www.w3.org/2000/svg" xmlns:xlink="http://www.w3.org/1999/xlink" xml:space="preserve" xmlns:serif="http://www.serif.com/" style="fill-rule:evenodd;clip-rule:evenodd;stroke-linejoin:round;stroke-miterlimit:2;">
    <g transform="matrix(4.166667,0,0,4.166667,0,0)">
        <g id="path1596" transform="matrix(1,0,0,1,-2.721907,-2.231906)">
            <path d="M80.71,2.233C74.607,2.206 68.195,2.636 61.761,3.249C60.146,3.403 58.746,4.332 57.116,5.422C55.175,6.721 53.145,8.138 52.545,10.593C52.063,12.563 53.485,12.887 54.643,12.616C55.356,12.449 56.66,12.241 57.607,12.199C67.231,11.773 76.484,13.438 84.466,16.363C87.426,17.447 88.368,19.556 87.538,21.833C82.722,35.053 74.746,45.114 65.25,57.515C64.426,58.592 62.964,59.615 61.836,59.749C53.055,60.789 43.849,60.166 35.385,55.702C33.055,54.474 32.778,51.371 34.186,48.584C36.793,43.424 39.22,38.48 43.628,33.897C46.469,30.943 49.145,30.836 52.245,31.574C56.921,32.688 61.622,34.121 61.162,37.943C60.932,39.852 60.365,40.296 59.963,41.091C59.549,41.908 58.97,42.752 58.09,43.863C57.38,44.759 58.184,45.711 59.438,46.036C61.426,46.551 62.492,46.133 63.56,46.036C65.174,45.889 66.011,44.808 66.857,43.189C69.292,38.529 71.884,34.253 72.552,30.075C72.894,27.933 73.894,24.544 68.356,24.38L40.48,23.556C37.394,23.465 34.635,25.279 32.463,27.078C19.459,37.845 11.065,51.27 3.464,65.144C1.597,68.551 3.477,69.663 6.611,70.09C15.263,71.266 23.991,72.699 32.463,72.412C41.859,72.095 43.665,73.297 63.635,70.314C68.23,69.628 71.679,66.865 74.275,63.57C87.538,46.739 102.508,30.675 109.044,12.391C109.733,10.464 110.28,9.045 107.321,7.446C100.194,3.595 90.881,2.279 80.71,2.233ZM145.485,4.907C141.603,4.954 137.209,5.235 132.873,8.401C107.717,26.77 104.019,42.574 94.619,59.482C92.263,63.721 92.278,67.939 100.338,68.169C119.404,68.714 137.888,67.413 155.868,65.416C157.825,65.198 159.039,64.577 160.214,63.509C162.36,61.56 165.02,59.558 165.192,56.62C165.263,55.408 165.681,53.873 162.438,54.077C149.747,54.876 136.424,55.974 124.288,51.853C115.485,48.863 119.065,45.172 119.942,42.313C122.554,33.796 129.861,20.694 138.066,12.958C139.64,11.474 140.87,9.676 143.682,9.675C152.6,9.672 160.44,11.099 166.784,14.335C168.008,14.959 170.589,14.961 168.372,20.905L166.04,27.158C164.265,31.917 161.94,37.734 156.397,36.801C151.572,35.988 145.878,34.134 148.557,28.324C149.106,27.132 150.296,25.8 150.042,24.193C149.867,23.089 149.498,22.956 149.194,22.498C148.823,21.939 147.762,21.583 146.651,21.969C145.592,22.336 145.09,22.916 143.892,24.404C141.036,27.951 138.162,31.406 136.474,35.531C134.988,39.162 137.96,41.544 141.031,42.102C151.82,44.062 159.815,43.91 167.951,43.053C170.829,42.75 173.009,40.728 175.687,37.227C181.579,29.524 185.678,21.905 189.461,14.232C191.646,9.8 189.158,9.09 186.178,8.401C172.625,5.266 159.058,4.745 145.485,4.907Z" style="fill:rgb(226,0,37);fill-rule:nonzero;"/>
        </g>
    </g>
</svg>
