<?xml version="1.0" encoding="UTF-8" standalone="no"?>
<!DOCTYPE svg PUBLIC "-//W3C//DTD SVG 1.1//EN" "http://www.w3.org/Graphics/SVG/1.1/DTD/svg11.dtd">
<svg width="100%" height="100%" viewBox="0 0 1515 1932" version="1.1" xmlns="http://www.w3.org/2000/svg" xmlns:xlink="http://www.w3.org/1999/xlink" xml:space="preserve" xmlns:serif="http://www.serif.com/" style="fill-rule:evenodd;clip-rule:evenodd;stroke-linejoin:round;stroke-miterlimit:2;">
    <g transform="matrix(12.5,0,0,12.5,0,0)">
        <g id="path28" transform="matrix(1.066667,0,0,1.066667,0,-0)">
            <path d="M28.442,19.515C45.432,2.075 73.532,-5.705 96.212,4.665C104.322,8.785 111.552,16.125 113.092,25.385C114.622,32.115 112.142,38.795 110.672,45.295C105.942,64.005 101.412,82.765 96.632,101.455C96.462,101.465 96.142,101.485 95.982,101.495C91.552,90.515 87.652,79.275 82.122,68.785C78.092,61.475 71.262,54.635 62.482,54.155C56.352,54.095 50.202,53.865 44.082,54.385C51.952,54.695 57.632,61.045 61.612,67.195C67.942,77.405 71.322,89.035 76.032,99.995C79.332,107.305 83.292,114.635 89.642,119.735C88.722,120.915 87.782,122.085 86.842,123.255C75.002,115.185 70.402,100.875 65.502,88.135C61.382,78.495 58.142,67.935 50.492,60.395C46.612,56.335 41.042,54.025 35.432,54.095C29.852,54.125 24.262,53.855 18.692,54.375C21.532,54.755 24.412,55.365 26.762,57.105C34.582,62.285 38.942,70.995 42.442,79.415C46.832,89.365 49.692,100.035 55.512,109.315C58.672,114.325 62.582,119.185 67.962,121.915C73.362,124.825 79.712,123.685 85.512,125.085C73.982,136.935 57.852,144.015 41.382,144.855C31.112,145.175 20.322,143.125 11.962,136.835C6.322,132.575 1.762,126.535 0.512,119.445C-0.988,113.425 1.162,107.425 2.452,101.595C7.772,80.265 13.022,58.915 18.382,37.595C19.972,30.775 23.622,24.565 28.442,19.515M11.062,102.395C9.452,113.085 17.652,123.965 28.292,125.545C37.952,127.505 47.972,121.295 51.442,112.255C46.452,103.825 43.272,94.515 39.522,85.505C27.422,80.335 12.302,89.345 11.062,102.395Z" style="fill:rgb(204,34,52);fill-rule:nonzero;"/>
        </g>
    </g>
</svg>
