<?xml version="1.0" encoding="UTF-8" standalone="no"?>
<!DOCTYPE svg PUBLIC "-//W3C//DTD SVG 1.1//EN" "http://www.w3.org/Graphics/SVG/1.1/DTD/svg11.dtd">
<svg width="100%" height="100%" viewBox="0 0 146 144" version="1.1" xmlns="http://www.w3.org/2000/svg" xmlns:xlink="http://www.w3.org/1999/xlink" xml:space="preserve" xmlns:serif="http://www.serif.com/" style="fill-rule:evenodd;clip-rule:evenodd;stroke-linejoin:round;stroke-miterlimit:2;">
    <g transform="matrix(1.333333,0,0,1.333333,-110.578667,0)">
        <g transform="matrix(0.75407,0,0,0.74818,-3.803511,0.014479)">
            <circle cx="186.903" cy="71.856" r="63.903" style="fill:rgb(111,0,0);"/>
        </g>
        <path d="M137.338,3.166C109.086,3.166 86.093,26.152 86.093,54.409C86.093,82.442 108.602,104.382 137.338,104.382C166.08,104.382 188.583,82.443 188.583,54.409C188.583,26.151 165.605,3.166 137.338,3.166M137.338,107.548C122.738,107.548 109.083,102.118 98.889,92.266C88.599,82.318 82.934,68.877 82.934,54.409C82.934,39.883 88.593,26.213 98.87,15.943C109.147,5.665 122.81,0 137.338,0C151.878,0 165.537,5.665 175.807,15.942C186.086,26.212 191.749,39.882 191.749,54.408C191.749,68.877 186.079,82.317 175.787,92.265C165.605,102.118 151.948,107.548 137.338,107.548" style="fill:rgb(111,0,0);fill-rule:nonzero;"/>
        <path d="M139.604,17.962C114.864,17.962 103.791,36.371 103.791,54.617C103.791,77.987 121.482,88.45 139.013,88.45C145.13,88.45 152.266,87.219 158.184,86.232C158.952,86.096 159.704,85.963 160.429,85.857L160.562,72.018C160.917,65.388 163.397,62.948 164.566,62.156L164.657,61.568L144.914,59.842L144.232,61.027C148.473,61.945 151.12,63.585 152.257,64.771C153.581,66.135 153.588,67.927 153.455,70.502L153.479,83.971L152.949,84.091C149.269,84.946 146.086,85.362 142.95,85.362C124.763,85.362 112.055,71.734 112.055,52.221C112.055,43.648 114.464,35.814 118.829,30.139C123.673,23.862 130.616,20.544 138.914,20.544C149.609,20.544 155.771,25.02 156.129,34.216L158.294,33.542L161.171,20.293C160.33,20.187 159.224,20.02 157.905,19.827C153.176,19.136 145.676,17.962 139.604,17.962M139.013,89.825C128.903,89.825 119.744,86.613 113.223,80.782C106.152,74.442 102.422,65.392 102.422,54.617C102.422,35.692 113.917,16.589 139.605,16.589C145.781,16.589 153.337,17.769 158.109,18.468C159.835,18.721 161.204,18.921 162.048,19L162.8,19.073L159.373,34.662L154.774,35.591L154.772,34.908C153.288,23.77 146.04,21.918 138.915,21.918C121.31,21.918 113.434,37.134 113.434,52.22C113.434,70.918 125.567,83.984 142.951,83.984C145.834,83.984 148.753,83.629 152.104,82.875L152.076,70.425C152.318,65.92 150.235,63.724 141.84,61.96L141.265,61.841L143.615,58.394L165.818,60.204L165.727,62.784L165.408,63.021C165.377,63.039 162.334,64.694 161.938,72.088L161.805,87.021L161.231,87.115C160.335,87.252 159.385,87.412 158.412,87.59C152.443,88.579 145.243,89.825 139.013,89.825" style="fill:rgb(146,148,151);fill-rule:nonzero;"/>
        <path d="M139.604,17.279C147.962,17.279 158.738,19.377 161.981,19.683L158.804,33.977L155.454,34.906C154.503,23.534 146.686,21.232 138.916,21.232C121.699,21.232 112.744,35.794 112.744,52.219C112.744,71.047 124.847,84.668 142.949,84.668C146.096,84.668 149.248,84.244 152.784,83.417L152.766,70.463C153.021,65.475 150.896,63.212 142.483,61.411L144.08,59.093L165.184,60.91L165.139,62.391C165.139,62.391 161.67,64.061 161.255,72.051L161.117,86.436C154.724,87.474 146.198,89.133 139.012,89.133C119.339,89.133 103.105,76.966 103.105,54.62C103.105,35.998 114.416,17.279 139.604,17.279" style="fill:white;fill-rule:nonzero;"/>
    </g>
</svg>
