<?xml version="1.0" encoding="UTF-8" standalone="no"?>
<!DOCTYPE svg PUBLIC "-//W3C//DTD SVG 1.1//EN" "http://www.w3.org/Graphics/SVG/1.1/DTD/svg11.dtd">
<svg width="100%" height="100%" viewBox="0 0 252 102" version="1.1" xmlns="http://www.w3.org/2000/svg" xmlns:xlink="http://www.w3.org/1999/xlink" xml:space="preserve" xmlns:serif="http://www.serif.com/" style="fill-rule:evenodd;clip-rule:evenodd;stroke-linejoin:round;stroke-miterlimit:2;">
    <g transform="matrix(4.166667,0,0,4.166667,0,0)">
        <g id="path348" transform="matrix(3.779528,0,0,3.779528,-17.150192,-543.36484)">
            <path d="M12.724,146.513C12.626,146.416 12.584,146.327 12.628,146.211C12.673,146.095 12.591,146.007 12.753,145.85C12.916,145.693 13.222,145.488 13.324,145.394C13.426,145.301 13.651,145.143 13.651,145.143C13.651,145.143 13.662,145.145 13.708,145.029C13.752,144.914 13.782,144.882 13.864,144.835C13.946,144.787 14.481,144.536 14.481,144.536C14.481,144.536 14.281,144.277 14.411,143.954C14.411,143.954 14.849,144.13 14.934,144.616C14.958,144.757 14.896,145.042 14.569,145.157C14.569,145.157 14.86,145.321 15.068,145.048C15.068,145.048 15.847,145.36 15.734,146.429C15.621,147.497 15.341,148.115 14.816,148.307C14.816,148.307 15.612,147.966 16.118,148.303C16.118,148.303 15.357,148.229 14.912,148.67C14.756,148.824 14.605,148.739 14.376,148.785C14.147,148.831 13.348,149.468 13.621,150.012C13.621,150.012 13.268,149.686 13.56,149.024C13.622,148.886 13.791,148.619 13.837,148.355C13.883,148.091 14.173,147.636 14.375,147.387C14.578,147.138 14.662,146.869 14.577,146.582C14.577,146.582 15.37,146.475 15.131,145.665C15.131,145.665 15.069,146.103 14.773,146.239C14.472,146.377 14.207,146.244 14.207,146.244C14.207,146.244 14.079,146.453 13.958,146.505C13.839,146.559 13.739,146.572 13.641,146.641C13.542,146.71 13.357,146.774 13.172,146.76C13.039,146.749 12.986,146.695 13.055,146.583C13.055,146.583 12.891,146.678 12.724,146.512" style="fill:rgb(35,31,32);fill-rule:nonzero;"/>
        </g>
        <g id="path352" transform="matrix(3.779528,0,0,3.779528,-17.150192,-543.36484)">
            <path d="M15.151,144.568C15.151,144.568 15.105,144.201 14.843,144.081C14.843,144.081 14.885,143.841 14.948,143.765C14.948,143.765 15.313,143.991 15.359,144.432C15.359,144.432 15.888,144.638 16.053,144.815C16.219,144.993 16.802,145.097 16.802,145.097C16.802,145.097 16.745,145.285 16.653,145.318C16.653,145.318 16.975,145.585 17.031,145.682L16.873,145.74C16.873,145.74 17.344,145.997 17.487,146.307C17.487,146.307 17.344,146.418 17.133,146.368C17.133,146.368 17.36,146.607 17.38,146.709C17.38,146.709 17.239,146.807 17.01,146.718C17.01,146.718 17.325,147.021 17.46,147.094C17.46,147.094 17.188,147.17 17.038,147.118C17.038,147.118 17.534,147.442 17.63,147.731C17.63,147.731 17.432,147.745 17.101,147.599C17.101,147.599 16.983,147.851 17.336,148.223C17.336,148.223 17.084,148.252 16.945,148.141L16.805,148.029C16.805,148.029 16.287,148.036 16.322,147.35C16.357,146.663 16.32,144.974 15.151,144.568" style="fill:rgb(35,31,32);fill-rule:nonzero;"/>
        </g>
        <g id="path356" transform="matrix(3.779528,0,0,3.779528,-17.150192,-543.36484)">
            <path d="M16.769,148.233C16.709,148.186 16.717,148.459 16.491,148.493C16.263,148.527 15.543,148.572 15.002,148.859C14.46,149.147 14.137,149.733 14.157,150.107C16.48,150.52 17.959,149.781 17.959,149.781C17.585,149.677 17.434,149.131 17.434,149.131C17.434,149.131 17.171,149.369 17.018,149.193C16.865,149.017 16.834,148.791 17.084,148.747C17.54,148.667 18.43,148.321 18.422,146.857C18.421,146.72 18.5,146.549 18.788,146.451C19.075,146.354 20.172,145.98 20.414,145.788L20.426,145.295C20.426,145.295 19.782,145.824 18.928,146.068C18.075,146.312 17.499,146.656 17.715,147.177L17.596,147.229C17.596,147.229 17.833,147.482 17.883,147.688C17.933,147.896 17.892,147.851 17.892,147.851C17.892,147.851 17.652,148.031 17.367,147.906C17.367,147.906 17.486,148.274 17.603,148.307C17.603,148.307 17.245,148.602 16.769,148.233" style="fill:rgb(239,46,49);fill-rule:nonzero;"/>
        </g>
        <g id="path360" transform="matrix(3.779528,0,0,3.779528,-17.150192,-543.36484)">
            <path d="M20.522,145.943C20.321,146.105 19.635,146.379 18.755,146.631L18.731,146.776C18.731,146.776 19.972,146.489 20.459,146.303" style="fill:rgb(15,171,75);fill-rule:nonzero;"/>
        </g>
        <g id="path364" transform="matrix(3.779528,0,0,3.779528,-17.150192,-543.36484)">
            <path d="M18.727,146.936C19.148,146.85 20.215,146.644 20.437,146.498C20.437,146.498 20.407,146.813 20.018,146.93C19.628,147.046 18.649,147.17 18.649,147.17" style="fill:rgb(15,171,75);fill-rule:nonzero;"/>
        </g>
        <g id="path368" transform="matrix(3.779528,0,0,3.779528,-17.150192,-543.36484)">
            <path d="M18.647,147.33C18.647,147.33 20.003,147.224 20.427,146.978C20.427,146.978 20.188,147.43 19.862,147.471C19.535,147.512 18.564,147.587 18.564,147.587" style="fill:rgb(15,171,75);fill-rule:nonzero;"/>
        </g>
        <g id="path372" transform="matrix(3.779528,0,0,3.779528,-17.150192,-543.36484)">
            <path d="M18.547,147.757C19.229,147.792 20.045,147.689 20.281,147.459C20.281,147.459 20.049,148.012 19.528,148.043C19.007,148.074 18.473,147.967 18.473,147.967" style="fill:rgb(15,171,75);fill-rule:nonzero;"/>
        </g>
        <g id="path376" transform="matrix(3.779528,0,0,3.779528,-17.150192,-543.36484)">
            <path d="M18.421,148.131C18.718,148.184 19.561,148.346 19.924,148.162C19.924,148.162 19.86,148.535 19.33,148.54C18.801,148.545 18.281,148.292 18.281,148.292" style="fill:rgb(15,171,75);fill-rule:nonzero;"/>
        </g>
        <g id="path380" transform="matrix(3.779528,0,0,3.779528,-17.150192,-543.36484)">
            <path d="M18.194,148.437C18.376,148.519 18.918,148.863 19.52,148.722C19.52,148.722 19.229,149.19 18.922,149.123C18.614,149.056 17.94,148.627 17.94,148.627" style="fill:rgb(15,171,75);fill-rule:nonzero;"/>
        </g>
        <g id="path384" transform="matrix(3.779528,0,0,3.779528,-17.150192,-543.36484)">
            <path d="M17.824,148.73C18.007,148.874 18.423,149.17 18.831,149.292C18.831,149.292 18.803,149.659 18.408,149.465C18.012,149.271 17.691,148.855 17.691,148.855" style="fill:rgb(15,171,75);fill-rule:nonzero;"/>
        </g>
        <g id="path388" transform="matrix(3.779528,0,0,3.779528,-17.150192,-543.36484)">
            <path d="M17.598,148.962C17.727,149.146 18.01,149.493 18.261,149.599C18.261,149.599 17.855,149.676 17.718,149.404C17.582,149.133 17.533,148.988 17.533,148.988" style="fill:rgb(15,171,75);fill-rule:nonzero;"/>
        </g>
        <g id="path392" transform="matrix(3.779528,0,0,3.779528,-17.150192,-543.36484)">
            <path d="M19.609,145.546C19.257,145.731 18.51,145.932 18.51,145.932C18.51,145.932 18.847,145.621 19.04,145.296C19.231,144.972 19.327,144.84 19.415,144.831C19.502,144.822 19.563,144.758 19.573,144.983C19.583,145.207 19.609,145.546 19.609,145.546" style="fill:rgb(252,208,6);fill-rule:nonzero;"/>
        </g>
        <g id="path396" transform="matrix(3.779528,0,0,3.779528,-17.150192,-543.36484)">
            <path d="M12.336,146.513C12.434,146.416 12.475,146.327 12.43,146.211C12.386,146.095 12.468,146.007 12.306,145.85C12.144,145.693 11.837,145.488 11.735,145.394C11.632,145.301 11.409,145.143 11.409,145.143C11.409,145.143 11.397,145.145 11.352,145.029C11.307,144.914 11.277,144.882 11.195,144.835C11.113,144.787 10.578,144.536 10.578,144.536C10.578,144.536 10.779,144.277 10.649,143.954C10.649,143.954 10.21,144.13 10.126,144.616C10.101,144.757 10.164,145.042 10.49,145.157C10.49,145.157 10.2,145.321 9.992,145.048C9.992,145.048 9.212,145.36 9.326,146.429C9.438,147.497 9.719,148.115 10.243,148.307C10.243,148.307 9.447,147.966 8.941,148.303C8.941,148.303 9.702,148.229 10.148,148.67C10.302,148.824 10.454,148.739 10.684,148.785C10.913,148.831 11.712,149.468 11.438,150.012C11.438,150.012 11.792,149.686 11.499,149.024C11.437,148.886 11.268,148.619 11.222,148.355C11.176,148.091 10.887,147.636 10.684,147.387C10.481,147.138 10.396,146.869 10.482,146.582C10.482,146.582 9.689,146.475 9.929,145.665C9.929,145.665 9.99,146.103 10.287,146.239C10.587,146.377 10.852,146.244 10.852,146.244C10.852,146.244 10.981,146.453 11.101,146.505C11.22,146.559 11.321,146.572 11.419,146.641C11.516,146.71 11.703,146.774 11.887,146.76C12.02,146.749 12.074,146.695 12.005,146.583C12.005,146.583 12.169,146.678 12.336,146.512" style="fill:rgb(35,31,32);fill-rule:nonzero;"/>
        </g>
        <g id="path400" transform="matrix(3.779528,0,0,3.779528,-17.150192,-543.36484)">
            <path d="M9.908,144.568C9.908,144.568 9.955,144.201 10.216,144.081C10.216,144.081 10.173,143.841 10.111,143.765C10.111,143.765 9.746,143.991 9.7,144.432C9.7,144.432 9.171,144.638 9.006,144.815C8.841,144.993 8.257,145.097 8.257,145.097C8.257,145.097 8.314,145.285 8.407,145.318C8.407,145.318 8.085,145.585 8.028,145.682L8.186,145.74C8.186,145.74 7.715,145.997 7.572,146.307C7.572,146.307 7.715,146.418 7.927,146.368C7.927,146.368 7.698,146.607 7.68,146.709C7.68,146.709 7.82,146.807 8.05,146.718C8.05,146.718 7.735,147.021 7.6,147.094C7.6,147.094 7.871,147.17 8.021,147.118C8.021,147.118 7.526,147.442 7.429,147.731C7.429,147.731 7.627,147.745 7.958,147.599C7.958,147.599 8.076,147.851 7.724,148.223C7.724,148.223 7.975,148.252 8.115,148.141L8.255,148.029C8.255,148.029 8.771,148.036 8.737,147.35C8.703,146.663 8.739,144.974 9.908,144.568" style="fill:rgb(35,31,32);fill-rule:nonzero;"/>
        </g>
        <g id="path404" transform="matrix(3.779528,0,0,3.779528,-17.150192,-543.36484)">
            <path d="M8.291,148.233C8.352,148.186 8.342,148.459 8.569,148.493C8.796,148.527 9.516,148.572 10.058,148.859C10.599,149.147 10.923,149.733 10.903,150.107C8.58,150.52 7.1,149.781 7.1,149.781C7.475,149.677 7.625,149.131 7.625,149.131C7.625,149.131 7.887,149.369 8.041,149.193C8.195,149.017 8.226,148.791 7.975,148.747C7.519,148.667 6.63,148.321 6.638,146.857C6.639,146.72 6.559,146.549 6.272,146.451C5.984,146.354 4.888,145.98 4.646,145.788L4.633,145.295C4.633,145.295 5.278,145.824 6.131,146.068C6.984,146.312 7.56,146.656 7.344,147.177L7.465,147.229C7.465,147.229 7.226,147.482 7.176,147.688C7.126,147.896 7.167,147.851 7.167,147.851C7.167,147.851 7.408,148.031 7.693,147.906C7.693,147.906 7.573,148.274 7.457,148.307C7.457,148.307 7.815,148.602 8.291,148.233" style="fill:rgb(239,46,49);fill-rule:nonzero;"/>
        </g>
        <g id="path408" transform="matrix(3.779528,0,0,3.779528,-17.150192,-543.36484)">
            <path d="M4.538,145.943C4.738,146.105 5.424,146.379 6.303,146.631L6.328,146.776C6.328,146.776 5.087,146.489 4.6,146.303" style="fill:rgb(15,171,75);fill-rule:nonzero;"/>
        </g>
        <g id="path412" transform="matrix(3.779528,0,0,3.779528,-17.150192,-543.36484)">
            <path d="M6.332,146.936C5.912,146.85 4.844,146.644 4.622,146.498C4.622,146.498 4.653,146.813 5.041,146.93C5.43,147.046 6.41,147.17 6.41,147.17" style="fill:rgb(15,171,75);fill-rule:nonzero;"/>
        </g>
        <g id="path416" transform="matrix(3.779528,0,0,3.779528,-17.150192,-543.36484)">
            <path d="M6.413,147.33C6.413,147.33 5.056,147.224 4.632,146.978C4.632,146.978 4.871,147.43 5.198,147.471C5.524,147.512 6.495,147.587 6.495,147.587" style="fill:rgb(15,171,75);fill-rule:nonzero;"/>
        </g>
        <g id="path420" transform="matrix(3.779528,0,0,3.779528,-17.150192,-543.36484)">
            <path d="M6.513,147.757C5.831,147.792 5.015,147.689 4.778,147.459C4.778,147.459 5.01,148.012 5.531,148.043C6.052,148.074 6.586,147.967 6.586,147.967" style="fill:rgb(15,171,75);fill-rule:nonzero;"/>
        </g>
        <g id="path424" transform="matrix(3.779528,0,0,3.779528,-17.150192,-543.36484)">
            <path d="M6.64,148.131C6.341,148.184 5.498,148.346 5.135,148.162C5.135,148.162 5.2,148.535 5.729,148.54C6.258,148.545 6.778,148.292 6.778,148.292" style="fill:rgb(15,171,75);fill-rule:nonzero;"/>
        </g>
        <g id="path428" transform="matrix(3.779528,0,0,3.779528,-17.150192,-543.36484)">
            <path d="M6.865,148.437C6.682,148.519 6.141,148.863 5.539,148.722C5.539,148.722 5.83,149.19 6.138,149.123C6.444,149.056 7.119,148.627 7.119,148.627" style="fill:rgb(15,171,75);fill-rule:nonzero;"/>
        </g>
        <g id="path432" transform="matrix(3.779528,0,0,3.779528,-17.150192,-543.36484)">
            <path d="M7.236,148.73C7.051,148.874 6.638,149.17 6.228,149.292C6.228,149.292 6.256,149.659 6.651,149.465C7.048,149.271 7.367,148.855 7.367,148.855" style="fill:rgb(15,171,75);fill-rule:nonzero;"/>
        </g>
        <g id="path436" transform="matrix(3.779528,0,0,3.779528,-17.150192,-543.36484)">
            <path d="M7.46,148.962C7.333,149.146 7.049,149.493 6.798,149.599C6.798,149.599 7.204,149.676 7.341,149.404C7.478,149.133 7.526,148.988 7.526,148.988" style="fill:rgb(15,171,75);fill-rule:nonzero;"/>
        </g>
        <g id="path440" transform="matrix(3.779528,0,0,3.779528,-17.150192,-543.36484)">
            <path d="M5.45,145.546C5.802,145.731 6.549,145.932 6.549,145.932C6.549,145.932 6.213,145.621 6.021,145.296C5.828,144.972 5.732,144.84 5.645,144.831C5.557,144.822 5.497,144.758 5.487,144.983C5.477,145.207 5.45,145.546 5.45,145.546" style="fill:rgb(252,208,6);fill-rule:nonzero;"/>
        </g>
    </g>
</svg>
