<svg role="img" viewBox="0 0 24 24" xmlns="http://www.w3.org/2000/svg"><title>Air Albania</title><path fill="#231f20" d="M23.926 12c0 6.627-5.34 12-11.926 12C5.413 24 .073 18.626.073 12S5.413 0 12 0s11.926 5.373 11.926 12"/><path fill="#ce1f2e" d="M11.262 13.37c-5.23 1.116-8.728 1.776-9.827 3.531.335-1.4.938-2.686 1.493-3.348 1.763-2.1 3.495-2.694 7.679-4.13.804-.276 1.715-.59 2.717-.944C17.406 7.03 18.99 5.039 19.6 3.63c0 0-.834 8.139-8.338 9.74M12 0C5.413 0 .073 5.371.073 12c0 2.202.59 4.267 1.62 6.041 1.582-2.18 6.445-3.03 9.014-3.576l.8-.17a11.067 11.067 0 0 0 4.175-1.822c-.888 1.566-3.305 4.93-8.086 5.953-2.015.431-3.772.614-5.12.797.225.301.464.59.716.867l.309-.04c1.2-.154 2.692-.346 4.343-.699a13.09 13.09 0 0 0 4.035-1.586c-1.337 1.977-4.37 3.581-6.858 3.967A11.833 11.833 0 0 0 12 24c6.587 0 11.927-5.372 11.927-12S18.587 0 12 0"/></svg>