<?xml version="1.0" encoding="UTF-8" standalone="no"?>
<!DOCTYPE svg PUBLIC "-//W3C//DTD SVG 1.1//EN" "http://www.w3.org/Graphics/SVG/1.1/DTD/svg11.dtd">
<svg width="100%" height="100%" viewBox="0 0 263 272" version="1.1" xmlns="http://www.w3.org/2000/svg" xmlns:xlink="http://www.w3.org/1999/xlink" xml:space="preserve" xmlns:serif="http://www.serif.com/" style="fill-rule:evenodd;clip-rule:evenodd;stroke-miterlimit:3.864;">
    <g transform="matrix(4.166667,0,0,4.166667,0,0)">
        <g transform="matrix(1,0,0,1,-0.30341,-0.390413)">
            <path d="M44.121,47.407C41.399,56.191 33.489,62.532 24.183,62.532C12.621,62.532 3.245,52.755 3.245,40.752C3.245,35.694 4.874,31.072 7.665,27.37" style="fill:none;fill-rule:nonzero;stroke:rgb(116,0,84);stroke-width:1.47px;"/>
            <path d="M42.05,46.826C40.584,52.561 35.559,56.797 29.58,56.797C20.915,57.05 16.668,50.771 16.668,43.366C16.668,42.882 16.691,42.422 16.737,41.937" style="fill:none;fill-rule:nonzero;stroke:rgb(116,0,84);stroke-width:1.47px;"/>
            <path d="M14.039,11.833C27.107,9.825 27.37,12.946 27.37,12.946C27.37,12.946 26.532,18.827 26.532,18.899L26.532,18.513C26.532,18.513 26.183,19.045 25.671,18.778C23.042,17.495 12.863,12.014 14.039,11.833" style="fill:rgb(245,130,32);fill-rule:nonzero;"/>
            <path d="M14.039,11.833C27.107,9.825 27.37,12.946 27.37,12.946C27.37,12.946 26.532,18.827 26.532,18.899L26.532,18.513C26.532,18.513 26.183,19.045 25.671,18.778C23.042,17.495 12.863,12.014 14.039,11.833Z" style="fill:none;fill-rule:nonzero;stroke:rgb(245,130,32);stroke-width:0.1px;"/>
            <path d="M25.858,18.821C25.858,18.821 25.672,18.754 25.695,18.512C26.486,11.93 22.088,15.221 21.833,15.003C21.345,15.003 20.949,14.592 20.949,14.084L20.949,14.059C20.949,14.059 19.228,12.574 19.468,11.225C19.474,11.191 18.699,10.774 17.162,11.425C17.094,11.453 16.854,12.027 17.762,13.188C17.808,13.213 17.227,13.479 17.273,13.793C17.273,13.866 19.145,17.056 23.263,18.871C23.31,18.895 25.858,18.821 25.858,18.821" style="fill:rgb(0,74,42);fill-rule:nonzero;"/>
            <path d="M25.858,18.821C25.858,18.821 25.672,18.754 25.695,18.512C26.486,11.93 22.088,15.221 21.833,15.003C21.345,15.003 20.949,14.592 20.949,14.084L20.949,14.059C20.949,14.059 19.228,12.574 19.468,11.225C19.474,11.191 18.699,10.774 17.162,11.425C17.094,11.453 16.854,12.027 17.762,13.188C17.808,13.213 17.227,13.479 17.273,13.793C17.273,13.866 19.145,17.056 23.263,18.871C23.31,18.895 25.858,18.821 25.858,18.821Z" style="fill:none;fill-rule:nonzero;stroke:rgb(0,74,42);stroke-width:0.1px;"/>
            <path d="M23.67,19.48C23.763,19.092 24.996,18.971 25.764,18.971C37.303,18.971 46.702,28.724 46.702,40.751C46.702,43.195 46.376,46.051 45.795,48.689C45.748,48.423 38.095,45.93 38.281,45.543C38.466,45.156 44.794,39.929 39.769,28.505C39.63,28.168 30.371,30.321 23.67,19.48" style="fill:rgb(116,0,84);fill-rule:nonzero;"/>
            <path d="M23.67,19.48C23.763,19.092 24.996,18.971 25.764,18.971C37.303,18.971 46.702,28.724 46.702,40.751C46.702,43.195 46.376,46.051 45.795,48.689C45.748,48.423 38.095,45.93 38.281,45.543C38.466,45.156 44.794,39.929 39.769,28.505C39.63,28.168 30.371,30.321 23.67,19.48Z" style="fill:none;fill-rule:nonzero;stroke:rgb(116,0,84);stroke-width:0.1px;"/>
            <path d="M39.956,61.176C44.446,56.215 46.703,47.624 46.703,40.752C46.703,29.111 37.56,19.504 26.533,18.899C30.488,14.301 36.722,11.252 43.003,11.252C48.379,11.252 52.938,14.108 56.707,17.568C50.519,15.439 45.61,15.074 41.468,15.414C53.334,15.414 63.058,25.675 63.058,38.307C63.058,50.94 53.403,61.201 41.538,61.201C41.166,61.201 40.328,61.201 39.956,61.176" style="fill:rgb(216,58,78);fill-rule:nonzero;"/>
            <path d="M39.956,61.176C44.446,56.215 46.703,47.624 46.703,40.752C46.703,29.111 37.56,19.504 26.533,18.899C30.488,14.301 36.722,11.252 43.003,11.252C48.379,11.252 52.938,14.108 56.707,17.568C50.519,15.439 45.61,15.074 41.468,15.414C53.334,15.414 63.058,25.675 63.058,38.307C63.058,50.94 53.403,61.201 41.538,61.201C41.166,61.201 40.328,61.201 39.956,61.176Z" style="fill:none;fill-rule:nonzero;stroke:rgb(216,58,78);stroke-width:0.1px;"/>
            <path d="M41.701,0.58C26.648,2.347 26.369,18.753 26.533,18.609C33.628,11.784 41.77,10.89 41.77,11.181C41.771,11.446 43.058,6.678 41.701,0.58" style="fill:rgb(116,0,84);fill-rule:nonzero;"/>
            <path d="M41.701,0.58C26.648,2.347 26.369,18.753 26.533,18.609C33.628,11.784 41.77,10.89 41.77,11.181C41.771,11.446 43.058,6.678 41.701,0.58Z" style="fill:none;fill-rule:nonzero;stroke:rgb(109,31,96);stroke-width:0.1px;"/>
            <path d="M20.948,14.192C20.948,13.746 21.296,13.383 21.726,13.383C22.154,13.383 22.502,13.746 22.502,14.192C22.502,14.638 22.154,15 21.726,15C21.296,15 20.948,14.638 20.948,14.192" style="fill:white;fill-rule:nonzero;"/>
            <ellipse cx="21.725" cy="14.192" rx="0.777" ry="0.809" style="fill:none;stroke:white;stroke-width:0.28px;"/>
            <path d="M58.331,18.2C54.655,14.531 48.803,10.648 43.274,10.648C36.698,10.648 30.353,13.64 26.301,18.654L26.885,19.166C30.794,14.329 36.921,11.441 43.274,11.441C48.016,11.441 53.041,14.456 56.603,17.64L58.331,18.2Z" style="fill:rgb(185,151,101);fill-rule:nonzero;"/>
            <path d="M46.321,40.751C46.321,47.087 44.24,55.778 39.591,60.921L39.337,61.164L40.336,61.239C44.991,55.914 47.084,47.155 47.084,40.751C47.084,34.835 44.865,29.269 40.836,25.077C36.805,20.884 31.453,18.575 25.764,18.575C25.057,18.575 23.709,18.622 22.926,18.728L22.944,18.868L22.975,18.87L23.639,19.452C24.315,19.399 25.172,19.368 25.764,19.368C31.249,19.368 36.41,21.594 40.297,25.638C44.182,29.68 46.321,35.046 46.321,40.751" style="fill:rgb(185,151,101);fill-rule:nonzero;"/>
        </g>
    </g>
</svg>
