<svg xmlns="http://www.w3.org/2000/svg" width="226" height="80.407" viewBox="0 0 226 80.407"><defs><style>.a,.b{fill:#cd1520;}.b{fill-rule:evenodd;}</style></defs><g transform="translate(-140.49 -197.859)"><path class="a" d="M266.766,213.053a7.2,7.2,0,0,0-.643,5.582,20.8,20.8,0,0,1,.521,7.849,4.492,4.492,0,0,0,.023,1.507,92.222,92.222,0,0,1,1.852,10.883c.189,2.851.408,5.7.585,8.556a14.108,14.108,0,0,0-.112,2.345,22.29,22.29,0,0,1,.244,4.206c.051,1.627.145,3.249.269,4.874.121,1.583.586,3.1.671,4.671a3.018,3.018,0,0,0,.992,2.057,5.216,5.216,0,0,0,2.351,1.407c1.817-.667,2.166-2.252,2.238-3.711a22.02,22.02,0,0,1,1.373-5.321,42.978,42.978,0,0,0,1.446-4.837,5.448,5.448,0,0,1,.6-1.748,36.659,36.659,0,0,0,2.144-5.814,18,18,0,0,1,2.169-4.9,6.078,6.078,0,0,0,.819-1.835c.393-1.236.385-2.629.94-3.735,1.128-2.251,1.012-4.993,2.836-6.952.24-.257.192-.761.365-1.107.889-1.774,1.289-3.8,2.76-5.277a1.342,1.342,0,0,0,.446-1.06.96.96,0,0,1,.165-.8c1.272-1.284,1.7-3,2.377-4.587.947-2.209,2.169-4.186,4.525-5.172a1,1,0,0,0,.664-1.2,5.89,5.89,0,0,0-1.535-3.49c-1.144-1.154-2.331-2.264-3.676-3.565-.5.9-1.39.177-2.028.5-.215.288-.03.543-.1.714a3.451,3.451,0,0,0-.269,2.549c.075.218-.088.55-.21.8a4.55,4.55,0,0,0-.417,1.454,11.077,11.077,0,0,1-1.336,3.789,8.9,8.9,0,0,0-.743,1.876,18.482,18.482,0,0,1-1.067,3.36,48.311,48.311,0,0,0-3.34,10.042,34.186,34.186,0,0,1-2.859,8.243,14.818,14.818,0,0,0-1.243,4.862,9.7,9.7,0,0,1-.727,2.721,24.509,24.509,0,0,0-2.025,4.97c-.421,1.986-1.227,3.837-1.814,5.763a18.624,18.624,0,0,1-.915,2.176c-.155.344-.264.77-.839.749a1.251,1.251,0,0,1-.6-.92c-.439-1.975-.984-3.939-1.232-5.939A27.294,27.294,0,0,0,271.381,245a4.78,4.78,0,0,1-.129-2.141,22.339,22.339,0,0,0-.071-6.871,8.858,8.858,0,0,1-.123-1.5,19.954,19.954,0,0,1,.6-6.352,3.5,3.5,0,0,0,.018-.838c.11-1.836-.054-3.737,1.293-5.279a1.288,1.288,0,0,0,.156-.643c.109-.836.177-1.677.317-2.508a2.379,2.379,0,0,0-.562-2.041A12,12,0,0,0,266.766,213.053ZM381.9,206.706c-.473-.979.084-1.5.548-2.074a2.826,2.826,0,0,0,.329-3.7,7.752,7.752,0,0,0-2.42-2.549,3.143,3.143,0,0,0-2.09-.517c-1.087.068-1.357.323-1.4,1.436a10.569,10.569,0,0,1-1.1,4.553,6.535,6.535,0,0,0-.528,1.946c-.239,1.322-.384,1.464-1.7,1.591-1.231.119-2.478.154-3.69.374-2.367.429-4.708.936-7.116,1.2-2.623.288-5.251.549-7.878.708-1.338.081-2.278.344-2.712,1.733a3.076,3.076,0,0,0,1.668,1.964c.653.331,1.308.659,1.975.961a2.745,2.745,0,0,0,3.157-.387,3.828,3.828,0,0,1,3.087-1.038,4.5,4.5,0,0,0,1-.121c3.5-.5,7-1.029,10.477-1.731a.858.858,0,0,1,.911.27,31.994,31.994,0,0,1-.031,4.194c-.394,2.946-.657,5.918-1.343,8.818-.506,2.14-.474,4.364-1,6.485-.477,1.92-.64,3.879-.96,5.817-.393,2.376-.607,4.782-1.173,7.132-.171.71-.355,1.419-.508,2.133-.177.831-1.067,1.118-1.388,1.741.471,2.541,2.362,3.523,4.382,4.327,1.054.42,1.675.061,1.8-1.026a9.007,9.007,0,0,0,.074-3.679,8.993,8.993,0,0,1-.119-2.849c.061-1.519.576-2.976.508-4.516a41.3,41.3,0,0,1,.809-7.687c.286-1.994.943-3.949.711-6.007a1.065,1.065,0,0,1,.228-.952,3.853,3.853,0,0,0,.856-2.332,19.98,19.98,0,0,0,.611-5,1.472,1.472,0,0,1,.2-.976,12.7,12.7,0,0,0,1.5-4.247c.654-2.669.507-2.33,3.43-2.739a8.31,8.31,0,0,1,1.182-.038,11.388,11.388,0,0,0,3.169-.452,25.59,25.59,0,0,1,6.663-.905,9.6,9.6,0,0,0,2.847-.295,2.015,2.015,0,0,1,1.167-.057,2.165,2.165,0,0,0,2.517-.793,1.858,1.858,0,0,1,1.929-.8,4.56,4.56,0,0,0,2.47-.173,11.267,11.267,0,0,1,3.647-.569,1.25,1.25,0,0,0,.962-.238,4.527,4.527,0,0,1,2.385-.755,13.628,13.628,0,0,0,3.7-1.1,6.267,6.267,0,0,1,2.6-.655,2.225,2.225,0,0,0,1.887-.782,8.617,8.617,0,0,0-2.443.037c-2.066.673-4.225.6-6.318.987a26.06,26.06,0,0,1-5.715.342,21.344,21.344,0,0,0-5.022.481,46.691,46.691,0,0,1-5.147.888c-2,.178-3.992.569-5.975.934A31.242,31.242,0,0,1,381.9,206.706Zm7.471,9.005c-1.292-1.5-2.953-1.626-4.683-1.535-.561.03-1.037.232-.994.881a36.212,36.212,0,0,1-.5,5.348c-.229,2.836-.687,5.65-.805,8.5a1.4,1.4,0,0,1-.227.629,13.717,13.717,0,0,0-1.1,3.527c-.762,2.654-.93,5.429-1.768,8.073a3.963,3.963,0,0,0,.392,3.576,7.155,7.155,0,0,0,3.224,2.617,2.931,2.931,0,0,0,3.457-1.04,5.659,5.659,0,0,0,.725-1.138,17.4,17.4,0,0,1,3.953-5.221c1.861-1.936,2.634-4.563,4.407-6.534.134-.149.13-.423.188-.64.451-1.677,1.727-2.71,2.957-3.774.084-.072.307.016.468.029a6.341,6.341,0,0,1-.039,2.374c-.152,2.235-.253,4.479-.567,6.693-.213,1.5-.327,3-.455,4.508-.177,2.075,2.3,4.638,3.77,5.193,1.2.452,2.05-.026,1.857-1.241-.24-1.513-.031-3.015-.175-4.522a13.57,13.57,0,0,1-.018-4.374,28.055,28.055,0,0,0,.921-7c-.006-.277.087-.555.1-.834.158-2.609,1.327-4.98,1.754-7.533a16.689,16.689,0,0,1,1.822-5.234c.749-1.379.546-2.215-.886-2.9a7.567,7.567,0,0,0-3.846-1.03c-.148.012-.286.156-.459.256-.033.275-.061.552-.1.827a9.523,9.523,0,0,1-2.256,5.34,19.474,19.474,0,0,0-3.323,4.859,34.815,34.815,0,0,1-3.515,5.72c-1.518,2.131-3.109,4.246-4.78,6.28-1.286,1.565-2.276,3.358-3.715,4.8-.318.319-.591.705-1.13.5a5.324,5.324,0,0,1-.19-3.115,24.874,24.874,0,0,0,.468-2.82,22.36,22.36,0,0,1,1.951-7.124,11.3,11.3,0,0,0,.852-3.245,17.13,17.13,0,0,1,1.074-4.737c.532-1.348.514-2.855,1.166-4.18C389.466,216.256,389.371,215.93,389.371,215.711Zm-51.013,27.1a2.077,2.077,0,0,1,1.2,1.944,4.6,4.6,0,0,0,.131,1.166,19.954,19.954,0,0,0,3.758,5.558c.475.505.94.45,1.482,0a1.337,1.337,0,0,0,.49-1.5c-.28-1.085-.509-2.183-.776-3.273a12.414,12.414,0,0,1-.723-3.081,7.942,7.942,0,0,1,.511-3.46,6.408,6.408,0,0,0,.385-2.316,25.083,25.083,0,0,1,.648-4.158,9.813,9.813,0,0,0,.325-3,10.22,10.22,0,0,1,.625-4.148c.783-2.008.957-4.156,1.545-6.2a1.489,1.489,0,0,0-.055-1.145,3.471,3.471,0,0,0-3.9-1.648.838.838,0,0,0-.575.569c-.3,1.127-.965,2.159-.741,3.422a5.352,5.352,0,0,1-.114,1.672,27.678,27.678,0,0,0-.581,3.792,16.437,16.437,0,0,1-.386,3.669c-.459,1.959-.738,3.962-2.125,5.6a11.832,11.832,0,0,0-2.226,3.934,2.253,2.253,0,0,1-.326.589,36.642,36.642,0,0,0-2.412,4.256c-.635,1.187-1.362,2.324-2.059,3.478-.235.39-.487.781-1.161.634a4.914,4.914,0,0,1-.2-1.746,29.489,29.489,0,0,0,.2-3.027,6.916,6.916,0,0,1,.705-2.927,7.719,7.719,0,0,0,.558-1.226c.99-3.617,1.606-7.326,2.708-10.917a5.973,5.973,0,0,0,.1-1.512,7.761,7.761,0,0,1,.608-3.114,1.929,1.929,0,0,0,.217-.965,4.491,4.491,0,0,0-4.558-4.6,3.708,3.708,0,0,0-.778,2.832,4.953,4.953,0,0,1-.122,1.674c-.343,1.922-.361,3.872-.819,5.8-.836,3.528-1.381,7.125-2.218,10.66a16.411,16.411,0,0,0,0,7.67,6.616,6.616,0,0,0,3.556,4.386c1.071-.445,2.131-.675,2.44-1.955C334.407,247.233,336.556,245.182,338.358,242.807Zm-37.543-21.146c-.967,1.456-1.975,2.727-2.855,4.1a20.178,20.178,0,0,1-3.181,3.9,11.784,11.784,0,0,0-2.884,4.1,10.969,10.969,0,0,1-1.2,2.411,24.081,24.081,0,0,0-2.157,3.811c-.686,1.357-1.317,2.745-2.067,4.066a29.4,29.4,0,0,0-2.567,6.2c-.56,1.885-1.119,3.77-1.663,5.661a4.114,4.114,0,0,0,.336,3.12,6.353,6.353,0,0,0,2.156,2.528c1.705,1.046,4.239.46,5.779-1.382a13.737,13.737,0,0,0,2.884-5.1,4.187,4.187,0,0,1,1.08-2.064,1.564,1.564,0,0,0,.529-1.808.931.931,0,0,1,.366-1.048,20.1,20.1,0,0,0,2.457-2.942c.251-.324.505-.612.969-.471a.773.773,0,0,1,.247.917,36.838,36.838,0,0,1-1.084,4.754,5.909,5.909,0,0,0-.064,4.567c.818,2.132,1.335,2.56,3.806,2.368a8.322,8.322,0,0,0,.114-3.8,24.046,24.046,0,0,1-.128-5.5c.3-3.024.693-6.025,1.277-9,.431-2.191.423-4.479,1.5-6.545.38-.729-.027-1.168-1.18-1.628a8.779,8.779,0,0,0-.944,2.125,21.4,21.4,0,0,1-3.574,7.195,32.115,32.115,0,0,0-2.332,3.488,43,43,0,0,0-2.706,4.456,1.7,1.7,0,0,1-.289.413q-2.063,2.444-4.133,4.882c-.434.51-.85,1.058-1.648,1.061-.079-.167-.22-.32-.206-.457a11.777,11.777,0,0,1,.813-3.777,17.915,17.915,0,0,0,1.2-4.2,52.476,52.476,0,0,1,2.389-8.741,4.247,4.247,0,0,1,.8-1.472,23.878,23.878,0,0,0,2.872-4.147c1.348-2.133,3.245-3.729,4.882-5.575a1.538,1.538,0,0,1,.258-.218c.8-.579,1.152-.575,1.911.089a3.813,3.813,0,0,0,1.4.909c1.188.361,1.92-.18,1.727-1.389-.368-2.3-1.869-3.913-3.477-5.421C301.928,221.841,301.384,221.835,300.814,221.662Zm21.151,2.662c.338.335.232.717.172,1.112q-.559,3.661-1.259,7.3c-.5,2.588-.912,5.2-1.224,7.811a21.9,21.9,0,0,0-.58,3.481,7.04,7.04,0,0,1-.56,2.951,11.706,11.706,0,0,0-.521,1.778,6.2,6.2,0,0,0,1.744,6.174c.42.41.856.763,1.487.461a1.34,1.34,0,0,0,.854-1.329c-.014-.449.013-.9-.029-1.347a1.626,1.626,0,0,1,.222-1.137,4.054,4.054,0,0,0,.579-2.908,27.217,27.217,0,0,1,.223-6.356c.468-2.659.716-5.344,1.146-8,.313-1.937.94-3.8,1.226-5.735a14.463,14.463,0,0,1,.967-4.089,1.925,1.925,0,0,0-.072-1.795,5.083,5.083,0,0,0-4.314-1.735.951.951,0,0,0-.313.116,6.245,6.245,0,0,0-2.484,2.675,5.2,5.2,0,0,1-2.08,2.561,3.939,3.939,0,0,0-1.239,1.5,20.833,20.833,0,0,1-2.32,3.71c-.222.263-.446.521-.807.4a.519.519,0,0,1-.342-.567,12.943,12.943,0,0,1,1.2-3.985c.908-1.489.818-3.646-1.687-3.756a11.887,11.887,0,0,1-2.013-.193c-.78-.171-1.156.172-1.43.862a5.823,5.823,0,0,1,.405,3.262c-.141,1.237-.528,2.42-.677,3.646-.431,3.565-1.4,7.041-1.724,10.627-.2,2.233-.955,4.372-1.236,6.6-.231,1.839-.5,3.673-.691,5.516-.149,1.413.284,1.966,1.713,1.982.337,0,.675-.032,1.013-.038a.956.956,0,0,0,1.031-.9c.208-1.329.526-2.651.6-3.987.088-1.553-.2-3.139.678-4.572a1.3,1.3,0,0,0,.094-.495c.183-1.393.624-2.731.909-4.095a15.848,15.848,0,0,1,3.039-6.317,13.406,13.406,0,0,0,2.156-3.4,9.554,9.554,0,0,1,.792-1.634c1.106-1.9,2.723-3.415,3.9-5.264C320.8,224.761,321.153,224.063,321.965,224.324Zm39.946.295a7.913,7.913,0,0,1-1.445,6.031c-.446.714-.82,1.488-1.293,2.161-1.424,2.02-2.687,4.126-3.958,6.242-1.032,1.717-2.592,3.1-3.358,5.022a2.7,2.7,0,0,1-.632.781.658.658,0,0,1-.947.143c-.678-1.638-.228-3.385-.222-5.095a6.292,6.292,0,0,1,.795-3.242,1.74,1.74,0,0,0,.265-.794,7.35,7.35,0,0,1,2.034-4.533,9.719,9.719,0,0,0,1.508-2.8,11.831,11.831,0,0,1,2.933-4.655A7.511,7.511,0,0,0,359,222.236a2.784,2.784,0,0,1,4.039-.751,3.435,3.435,0,0,0,2,.852,1.9,1.9,0,0,0,.643-2.131,7.588,7.588,0,0,0-1.155-2.234c-1.231-1.48-2.969-1.924-4.71-2.49-1.482,1.237-3.217,2.117-4.3,3.774a6.555,6.555,0,0,1-1.011,1.131,15.4,15.4,0,0,0-4.21,7.348c-.486,1.787-.752,3.638-1.788,5.238a2.376,2.376,0,0,0-.335.952,39.232,39.232,0,0,0-.761,6.689,16.54,16.54,0,0,1-.149,3.706c-.413,2.174.507,3.538,2.267,4.6a2.513,2.513,0,0,0,3.953-1.537c.089-.314-.018-.689.231-.961a19.252,19.252,0,0,0,2.537-4.274,33.3,33.3,0,0,1,2.5-4.173c.2-.27.4-.567.932-.359a4.627,4.627,0,0,1,.27,2.375q-.058,1.853-.071,3.709a4.364,4.364,0,0,0,.926,2.64,6.263,6.263,0,0,0,2.49,1.652.664.664,0,0,0,.942-.235c-.073-.891-.154-1.838-.225-2.787a2.693,2.693,0,0,1,.111-1.494,4.105,4.105,0,0,0,.312-2.149,12.635,12.635,0,0,1,.347-3.682,7.665,7.665,0,0,0,.243-2,9.077,9.077,0,0,1,.66-3.262,14.214,14.214,0,0,0,.711-2.425,3.559,3.559,0,0,0-.7-3.33A9.245,9.245,0,0,0,361.912,224.619ZM249.3,236.7a8.061,8.061,0,0,0-4.374-.915c-.753.019-1.089.51-.873,1.274a7.862,7.862,0,0,1-.023,3.98c-.162.71-.263,1.434-.378,2.155a41.54,41.54,0,0,1-.795,4.8,24.449,24.449,0,0,0-.745,4.642,11.859,11.859,0,0,1-.2,1.5c-.867,4.01-1.547,8.051-2.077,12.119a1.861,1.861,0,0,0,.472,1.712,1.083,1.083,0,0,0,1.519.162.623.623,0,0,1,.314-.035c1.194-.023,1.362-.065,1.538-.957a15.22,15.22,0,0,0,.569-5.476,2.688,2.688,0,0,1,.284-1.625,2.877,2.877,0,0,0,.405-.911,39.094,39.094,0,0,1,1.1-5.263,12.441,12.441,0,0,1,2.1-4.752,58.405,58.405,0,0,0,3.5-5.747,36.033,36.033,0,0,1,4.638-6.194c.884-1.042,1.632-.947,2.451.187a2.39,2.39,0,0,0,1.457,1.18,1.212,1.212,0,0,0,.733-1.583c-.18-.71-.353-1.421-.548-2.125a2.228,2.228,0,0,0-2.852-1.542,4.911,4.911,0,0,0-3.013,2.777,5.315,5.315,0,0,1-1.992,2.585,3.235,3.235,0,0,0-1.243,1.537,40.241,40.241,0,0,1-2.21,3.581.873.873,0,0,1-1.38.411c.348-1.5.305-3.139,1.369-4.47a1.646,1.646,0,0,0,.383-1.244C249.373,237.9,249.343,237.34,249.3,236.7Zm-16.987,33.014c1.654-.072,1.53-.108,1.965-1.628.755-2.64-.082-5.5,1.186-8.047-.028-2.175.914-4.153,1.422-6.2.4-1.622.665-3.264,1.03-4.888a6.626,6.626,0,0,0,.289-2.161,9.132,9.132,0,0,1,1.407-5.882,2.266,2.266,0,0,0-1.41-3.415,16.421,16.421,0,0,0-2.507-.322c-1.11-.056-1.457.356-1.159,1.433a6.426,6.426,0,0,1,.024,3.49,10.067,10.067,0,0,0-.437,1.96,37.774,37.774,0,0,1-1.214,6.754,8.5,8.5,0,0,0-.2,1.329,42.407,42.407,0,0,1-1.032,6.8,70.528,70.528,0,0,0-1.339,8.809C230.159,269.2,230.832,269.777,232.313,269.711Zm6.839-35.219c1.228-.665,1.117-1.712,1.2-2.71.106-1.326-.2-1.889-1.341-2.261a2.141,2.141,0,0,0-2.756,1.41,3.121,3.121,0,0,0,1.64,3.022C238.293,234.143,238.708,234.3,239.151,234.492Z" transform="translate(-53.63)"/><path class="b" d="M319.418,219a12,12,0,0,1,6.118,3.773,2.379,2.379,0,0,1,.562,2.041c-.139.83-.207,1.672-.317,2.508a1.287,1.287,0,0,1-.156.643c-1.347,1.542-1.183,3.443-1.293,5.279a3.5,3.5,0,0,1-.018.838,19.953,19.953,0,0,0-.6,6.352,8.864,8.864,0,0,0,.123,1.5,22.34,22.34,0,0,1,.071,6.871,4.78,4.78,0,0,0,.129,2.141,27.3,27.3,0,0,1,1.034,4.578c.248,2,.793,3.964,1.232,5.939a1.252,1.252,0,0,0,.6.92c.575.021.684-.4.839-.749a18.618,18.618,0,0,0,.915-2.176c.587-1.926,1.393-3.777,1.814-5.763a24.51,24.51,0,0,1,2.025-4.97,9.706,9.706,0,0,0,.727-2.72,14.818,14.818,0,0,1,1.243-4.862,34.186,34.186,0,0,0,2.859-8.243,48.308,48.308,0,0,1,3.34-10.042,18.476,18.476,0,0,0,1.067-3.36,8.9,8.9,0,0,1,.743-1.876,11.079,11.079,0,0,0,1.336-3.789,4.548,4.548,0,0,1,.417-1.454c.122-.246.285-.578.21-.8a3.451,3.451,0,0,1,.269-2.549c.07-.172-.115-.426.1-.714.638-.32,1.526.4,2.028-.5,1.345,1.3,2.532,2.411,3.676,3.565a5.89,5.89,0,0,1,1.535,3.49,1,1,0,0,1-.664,1.2c-2.356.986-3.578,2.963-4.525,5.172-.681,1.588-1.105,3.3-2.377,4.587a.96.96,0,0,0-.165.8,1.341,1.341,0,0,1-.446,1.06c-1.471,1.473-1.872,3.5-2.76,5.277-.173.346-.125.849-.365,1.107-1.824,1.959-1.708,4.7-2.836,6.952-.554,1.106-.546,2.5-.94,3.735a6.08,6.08,0,0,1-.82,1.835,18,18,0,0,0-2.169,4.9,36.653,36.653,0,0,1-2.144,5.814,5.451,5.451,0,0,0-.6,1.748,42.984,42.984,0,0,1-1.446,4.837,22.022,22.022,0,0,0-1.373,5.321c-.072,1.46-.421,3.044-2.238,3.711a5.217,5.217,0,0,1-2.351-1.407,3.019,3.019,0,0,1-.992-2.057c-.085-1.571-.55-3.089-.671-4.671-.124-1.625-.218-3.248-.269-4.874a22.291,22.291,0,0,0-.244-4.206,14.1,14.1,0,0,1,.112-2.345c-.177-2.853-.4-5.7-.585-8.556a92.211,92.211,0,0,0-1.852-10.883,4.494,4.494,0,0,1-.023-1.507,20.8,20.8,0,0,0-.521-7.849A7.194,7.194,0,0,1,319.418,219Z" transform="translate(-106.282 -5.95)"/><path class="b" d="M562.427,206.706a31.242,31.242,0,0,0,7.6-.686c1.983-.365,3.971-.757,5.975-.934a46.686,46.686,0,0,0,5.147-.888,21.345,21.345,0,0,1,5.022-.481,26.06,26.06,0,0,0,5.715-.342c2.092-.388,4.251-.313,6.318-.987a8.616,8.616,0,0,1,2.442-.037,2.225,2.225,0,0,1-1.887.782,6.267,6.267,0,0,0-2.6.655,13.628,13.628,0,0,1-3.7,1.1,4.527,4.527,0,0,0-2.385.755,1.25,1.25,0,0,1-.962.238,11.267,11.267,0,0,0-3.647.569,4.56,4.56,0,0,1-2.47.173,1.858,1.858,0,0,0-1.929.8,2.165,2.165,0,0,1-2.517.793,2.015,2.015,0,0,0-1.167.057,9.6,9.6,0,0,1-2.847.295,25.59,25.59,0,0,0-6.663.905,11.388,11.388,0,0,1-3.169.452,8.309,8.309,0,0,0-1.182.038c-2.924.409-2.776.07-3.43,2.739a12.7,12.7,0,0,1-1.5,4.247,1.472,1.472,0,0,0-.2.976,19.98,19.98,0,0,1-.611,5,3.854,3.854,0,0,1-.856,2.332,1.065,1.065,0,0,0-.228.952c.232,2.059-.425,4.013-.711,6.007a41.294,41.294,0,0,0-.81,7.687c.068,1.539-.447,3-.508,4.516a8.994,8.994,0,0,0,.119,2.849,9.007,9.007,0,0,1-.074,3.679c-.127,1.087-.747,1.446-1.8,1.026-2.02-.8-3.91-1.786-4.382-4.327.322-.623,1.211-.91,1.388-1.741.153-.714.337-1.423.508-2.133.566-2.349.78-4.756,1.173-7.132.32-1.937.482-3.9.96-5.817.527-2.121.495-4.345,1-6.485.687-2.9.95-5.872,1.343-8.818a32.074,32.074,0,0,0,.031-4.194.859.859,0,0,0-.912-.27c-3.472.7-6.973,1.227-10.477,1.731a4.5,4.5,0,0,1-1,.121,3.827,3.827,0,0,0-3.087,1.038,2.745,2.745,0,0,1-3.157.387c-.667-.3-1.322-.63-1.975-.961a3.076,3.076,0,0,1-1.668-1.964c.434-1.389,1.375-1.651,2.712-1.733,2.627-.16,5.255-.42,7.878-.708,2.407-.264,4.749-.771,7.116-1.2,1.213-.22,2.459-.255,3.69-.374,1.32-.127,1.466-.268,1.7-1.591a6.534,6.534,0,0,1,.528-1.946,10.568,10.568,0,0,0,1.1-4.553c.046-1.113.317-1.368,1.4-1.436a3.143,3.143,0,0,1,2.089.517,7.752,7.752,0,0,1,2.42,2.549,2.826,2.826,0,0,1-.329,3.7C562.512,205.206,561.955,205.726,562.427,206.706Z" transform="translate(-234.157)"/><path class="b" d="M609.786,238.292c0,.22.095.545-.016.769-.652,1.325-.634,2.832-1.166,4.18a17.128,17.128,0,0,0-1.074,4.737,11.294,11.294,0,0,1-.852,3.245,22.365,22.365,0,0,0-1.951,7.124,24.846,24.846,0,0,1-.468,2.82,5.325,5.325,0,0,0,.19,3.115c.54.2.812-.183,1.13-.5,1.439-1.446,2.429-3.239,3.715-4.8,1.671-2.034,3.262-4.149,4.78-6.28a34.818,34.818,0,0,0,3.515-5.72,19.47,19.47,0,0,1,3.323-4.859,9.524,9.524,0,0,0,2.256-5.34c.037-.275.066-.552.1-.827.173-.1.31-.244.458-.256a7.566,7.566,0,0,1,3.846,1.03c1.433.685,1.636,1.521.886,2.9a16.691,16.691,0,0,0-1.823,5.234c-.427,2.552-1.6,4.924-1.754,7.533-.017.279-.11.557-.1.834a28.05,28.05,0,0,1-.922,7,13.568,13.568,0,0,0,.018,4.374c.144,1.507-.065,3.009.175,4.522.193,1.215-.655,1.693-1.857,1.241-1.472-.555-3.947-3.119-3.77-5.193.128-1.507.242-3,.455-4.508.314-2.214.415-4.458.567-6.693a6.342,6.342,0,0,0,.039-2.374c-.161-.014-.384-.1-.468-.029-1.23,1.064-2.506,2.1-2.957,3.774-.058.217-.054.491-.188.64-1.773,1.971-2.546,4.6-4.407,6.534a17.4,17.4,0,0,0-3.953,5.221,5.654,5.654,0,0,1-.725,1.138,2.931,2.931,0,0,1-3.457,1.04,7.156,7.156,0,0,1-3.224-2.617,3.963,3.963,0,0,1-.392-3.576c.838-2.644,1.006-5.419,1.768-8.073a13.72,13.72,0,0,1,1.1-3.527,1.4,1.4,0,0,0,.227-.629c.118-2.847.577-5.661.805-8.5a36.208,36.208,0,0,0,.5-5.348c-.043-.649.433-.851.994-.881C606.833,236.666,608.494,236.793,609.786,238.292Z" transform="translate(-274.045 -22.581)"/><path class="b" d="M482,271.778c-1.8,2.375-3.951,4.426-4.665,7.388-.309,1.28-1.37,1.51-2.44,1.955a6.616,6.616,0,0,1-3.556-4.386,16.41,16.41,0,0,1,0-7.67c.837-3.535,1.382-7.132,2.218-10.66.457-1.93.475-3.88.819-5.8a4.953,4.953,0,0,0,.122-1.674,3.708,3.708,0,0,1,.778-2.832,4.491,4.491,0,0,1,4.558,4.6,1.929,1.929,0,0,1-.217.965,7.762,7.762,0,0,0-.608,3.114,5.973,5.973,0,0,1-.1,1.512c-1.1,3.59-1.719,7.3-2.708,10.917a7.721,7.721,0,0,1-.558,1.226,6.916,6.916,0,0,0-.705,2.927,29.48,29.48,0,0,1-.2,3.027,4.915,4.915,0,0,0,.2,1.746c.674.147.926-.244,1.161-.634.7-1.154,1.424-2.291,2.059-3.478a36.642,36.642,0,0,1,2.412-4.256,2.254,2.254,0,0,0,.326-.589,11.833,11.833,0,0,1,2.226-3.934c1.387-1.637,1.667-3.639,2.125-5.6a16.434,16.434,0,0,0,.386-3.669,27.689,27.689,0,0,1,.581-3.792,5.351,5.351,0,0,0,.114-1.672c-.224-1.263.444-2.3.741-3.422a.838.838,0,0,1,.575-.569,3.471,3.471,0,0,1,3.9,1.648,1.489,1.489,0,0,1,.055,1.145c-.588,2.049-.762,4.2-1.545,6.2a10.22,10.22,0,0,0-.625,4.148,9.812,9.812,0,0,1-.325,3,25.076,25.076,0,0,0-.648,4.158,6.408,6.408,0,0,1-.385,2.316,7.941,7.941,0,0,0-.511,3.46,12.413,12.413,0,0,0,.723,3.081c.266,1.09.5,2.187.776,3.273a1.337,1.337,0,0,1-.49,1.5c-.541.449-1.006.5-1.482,0a19.955,19.955,0,0,1-3.758-5.558,4.6,4.6,0,0,1-.131-1.166A2.077,2.077,0,0,0,482,271.778Z" transform="translate(-197.275 -28.97)"/><path class="b" d="M377.526,256.934c.569.173,1.114.18,1.406.454,1.608,1.507,3.109,3.119,3.477,5.421.193,1.209-.539,1.75-1.727,1.389a3.813,3.813,0,0,1-1.4-.909c-.759-.665-1.109-.669-1.911-.089a1.536,1.536,0,0,0-.258.218c-1.637,1.846-3.534,3.441-4.882,5.575a23.884,23.884,0,0,1-2.872,4.147,4.246,4.246,0,0,0-.8,1.472,52.477,52.477,0,0,0-2.389,8.741,17.913,17.913,0,0,1-1.2,4.2,11.778,11.778,0,0,0-.813,3.777c-.014.137.126.29.206.457.8,0,1.214-.55,1.648-1.061q2.071-2.437,4.133-4.882a1.7,1.7,0,0,0,.289-.413,43,43,0,0,1,2.706-4.456,32.1,32.1,0,0,1,2.332-3.488,21.4,21.4,0,0,0,3.574-7.195,8.784,8.784,0,0,1,.944-2.125c1.153.46,1.56.9,1.18,1.628-1.076,2.066-1.068,4.354-1.5,6.545-.584,2.972-.981,5.973-1.277,9a24.052,24.052,0,0,0,.128,5.5,8.322,8.322,0,0,1-.114,3.8c-2.471.192-2.988-.236-3.806-2.368a5.91,5.91,0,0,1,.064-4.567,36.834,36.834,0,0,0,1.084-4.754.773.773,0,0,0-.247-.917c-.464-.141-.718.148-.969.471a20.109,20.109,0,0,1-2.457,2.942.931.931,0,0,0-.366,1.048,1.564,1.564,0,0,1-.529,1.808,4.187,4.187,0,0,0-1.08,2.064,13.736,13.736,0,0,1-2.884,5.1c-1.54,1.841-4.074,2.428-5.779,1.382a6.353,6.353,0,0,1-2.156-2.528,4.115,4.115,0,0,1-.336-3.12c.544-1.891,1.1-3.776,1.663-5.661a29.4,29.4,0,0,1,2.567-6.2c.751-1.322,1.381-2.71,2.067-4.066a24.081,24.081,0,0,1,2.157-3.811,10.968,10.968,0,0,0,1.2-2.411,11.784,11.784,0,0,1,2.884-4.1,20.175,20.175,0,0,0,3.181-3.9C375.551,259.661,376.559,258.39,377.526,256.934Z" transform="translate(-130.341 -35.272)"/><path class="b" d="M432,258.455c-.813-.261-1.163.437-1.448.884-1.177,1.849-2.794,3.363-3.9,5.264a9.561,9.561,0,0,0-.792,1.634,13.4,13.4,0,0,1-2.156,3.4,15.849,15.849,0,0,0-3.039,6.317c-.285,1.364-.726,2.7-.909,4.095a1.3,1.3,0,0,1-.094.495c-.882,1.433-.591,3.019-.678,4.572-.075,1.336-.393,2.658-.6,3.987a.956.956,0,0,1-1.031.9c-.338.006-.675.043-1.013.038-1.429-.016-1.861-.569-1.713-1.982.194-1.844.46-3.677.691-5.516.28-2.23,1.034-4.369,1.236-6.6.324-3.586,1.293-7.062,1.724-10.627.149-1.227.536-2.41.677-3.646a5.823,5.823,0,0,0-.405-3.262c.274-.69.65-1.033,1.43-.862a11.885,11.885,0,0,0,2.013.193c2.5.11,2.6,2.267,1.687,3.756a12.941,12.941,0,0,0-1.2,3.985.518.518,0,0,0,.342.567c.362.121.585-.136.807-.4a20.838,20.838,0,0,0,2.32-3.71,3.938,3.938,0,0,1,1.239-1.5,5.2,5.2,0,0,0,2.08-2.561,6.244,6.244,0,0,1,2.484-2.675.951.951,0,0,1,.313-.116,5.083,5.083,0,0,1,4.314,1.735,1.925,1.925,0,0,1,.072,1.795,14.464,14.464,0,0,0-.967,4.089c-.287,1.936-.913,3.8-1.226,5.735-.43,2.661-.678,5.346-1.146,8a27.214,27.214,0,0,0-.223,6.356,4.054,4.054,0,0,1-.579,2.908,1.626,1.626,0,0,0-.222,1.137c.041.446.014.9.029,1.347a1.34,1.34,0,0,1-.854,1.329c-.631.3-1.067-.051-1.487-.461a6.2,6.2,0,0,1-1.744-6.174,11.7,11.7,0,0,1,.521-1.778,7.04,7.04,0,0,0,.56-2.951,21.9,21.9,0,0,1,.58-3.481c.312-2.616.729-5.223,1.224-7.811q.7-3.639,1.259-7.3C432.235,259.173,432.342,258.79,432,258.455Z" transform="translate(-163.668 -34.131)"/><path class="b" d="M535.1,250.732a9.245,9.245,0,0,1,3.8,2.008,3.559,3.559,0,0,1,.7,3.33,14.212,14.212,0,0,1-.711,2.425,9.078,9.078,0,0,0-.66,3.262,7.668,7.668,0,0,1-.243,2,12.629,12.629,0,0,0-.347,3.682,4.106,4.106,0,0,1-.312,2.149,2.691,2.691,0,0,0-.111,1.494c.072.948.152,1.9.225,2.787a.664.664,0,0,1-.942.235,6.261,6.261,0,0,1-2.49-1.652,4.364,4.364,0,0,1-.926-2.64q.012-1.855.071-3.709a4.626,4.626,0,0,0-.27-2.375c-.531-.207-.734.089-.932.359a33.305,33.305,0,0,0-2.5,4.173,19.248,19.248,0,0,1-2.537,4.274c-.249.273-.143.648-.231.961a2.512,2.512,0,0,1-3.953,1.537c-1.76-1.062-2.68-2.426-2.267-4.6a16.536,16.536,0,0,0,.149-3.706,39.228,39.228,0,0,1,.761-6.689,2.377,2.377,0,0,1,.335-.952c1.036-1.6,1.3-3.452,1.788-5.238a15.4,15.4,0,0,1,4.21-7.348,6.549,6.549,0,0,0,1.011-1.131c1.08-1.657,2.815-2.537,4.3-3.774,1.741.566,3.479,1.01,4.71,2.49a7.589,7.589,0,0,1,1.155,2.234,1.9,1.9,0,0,1-.643,2.131,3.435,3.435,0,0,1-2-.852,2.784,2.784,0,0,0-4.039.751A7.511,7.511,0,0,1,530.777,250a11.83,11.83,0,0,0-2.933,4.655,9.718,9.718,0,0,1-1.508,2.8,7.35,7.35,0,0,0-2.034,4.533,1.739,1.739,0,0,1-.265.794,6.291,6.291,0,0,0-.8,3.242c-.006,1.71-.456,3.457.222,5.095a.658.658,0,0,0,.947-.143,2.7,2.7,0,0,0,.632-.781c.766-1.92,2.326-3.305,3.358-5.022,1.272-2.115,2.534-4.222,3.958-6.242.473-.673.848-1.447,1.293-2.161A7.913,7.913,0,0,0,535.1,250.732Z" transform="translate(-226.815 -26.114)"/><path class="b" d="M263.367,289.008c.043.643.073,1.2.121,1.756a1.646,1.646,0,0,1-.383,1.244c-1.064,1.331-1.021,2.971-1.369,4.47a.873.873,0,0,0,1.38-.411,40.252,40.252,0,0,0,2.21-3.581,3.235,3.235,0,0,1,1.243-1.537,5.316,5.316,0,0,0,1.992-2.585,4.912,4.912,0,0,1,3.013-2.777,2.228,2.228,0,0,1,2.852,1.542c.195.7.368,1.416.548,2.125a1.212,1.212,0,0,1-.733,1.584,2.389,2.389,0,0,1-1.457-1.18c-.819-1.134-1.567-1.229-2.451-.187a36.033,36.033,0,0,0-4.638,6.194,58.41,58.41,0,0,1-3.5,5.747,12.441,12.441,0,0,0-2.1,4.752,39.1,39.1,0,0,0-1.1,5.263,2.876,2.876,0,0,1-.405.911,2.689,2.689,0,0,0-.284,1.625,15.221,15.221,0,0,1-.569,5.476c-.175.892-.343.934-1.538.957a.623.623,0,0,0-.314.035,1.083,1.083,0,0,1-1.519-.162,1.861,1.861,0,0,1-.472-1.712c.53-4.068,1.21-8.109,2.077-12.119a11.863,11.863,0,0,0,.2-1.5,24.447,24.447,0,0,1,.745-4.642,41.519,41.519,0,0,0,.795-4.8c.115-.721.216-1.445.378-2.155a7.863,7.863,0,0,0,.023-3.98c-.216-.763.12-1.255.873-1.274A8.06,8.06,0,0,1,263.367,289.008Z" transform="translate(-67.697 -52.311)"/><path class="b" d="M232.313,327.953c-1.481.066-2.154-.515-1.975-1.965a70.527,70.527,0,0,1,1.339-8.809,42.41,42.41,0,0,0,1.032-6.8,8.5,8.5,0,0,1,.2-1.329,37.772,37.772,0,0,0,1.214-6.754,10.067,10.067,0,0,1,.437-1.96,6.426,6.426,0,0,0-.024-3.49c-.3-1.077.05-1.489,1.159-1.433a16.419,16.419,0,0,1,2.507.322,2.266,2.266,0,0,1,1.41,3.415,9.132,9.132,0,0,0-1.407,5.882,6.626,6.626,0,0,1-.289,2.161c-.365,1.624-.629,3.266-1.03,4.888-.507,2.048-1.449,4.026-1.422,6.2-1.268,2.549-.432,5.406-1.186,8.047C233.843,327.844,233.967,327.88,232.313,327.953Z" transform="translate(-53.63 -58.242)"/><path class="b" d="M247.92,281.256c-.443-.189-.858-.349-1.26-.539a3.121,3.121,0,0,1-1.64-3.022,2.141,2.141,0,0,1,2.756-1.41c1.141.372,1.447.935,1.341,2.261C249.037,279.544,249.148,280.591,247.92,281.256Z" transform="translate(-62.398 -46.764)"/><path class="b" d="M171.975,294.908a2.469,2.469,0,0,1-1.936-.228,20.142,20.142,0,0,1-4.052-2.995,1.927,1.927,0,0,1-.738-1.627c.233-1.313.119-2.708.84-3.912a6.156,6.156,0,0,0,.852-3.389,11.263,11.263,0,0,1,.3-2.841,21.185,21.185,0,0,0,.265-6.195,1.3,1.3,0,0,0-1.57.345,10.188,10.188,0,0,1-3.607,1.7,35.378,35.378,0,0,0-5.385,2.215,4.342,4.342,0,0,0-2.348,3.518A49.241,49.241,0,0,1,151.4,291.4c-.514,1.174-.814,2.441-1.211,3.667a2.663,2.663,0,0,1-.2.639,16.189,16.189,0,0,0-2.044,5.823c-.055.272-.183.529-.265.8-.172.56.674,1.086.177,1.568a1.945,1.945,0,0,0-.5,1.386,1.047,1.047,0,0,1-1.114.115c-1.622-1.081-3.553-1.735-4.725-3.44a4.824,4.824,0,0,1-1.033-2.8,1.263,1.263,0,0,1,.775-1.313,8.619,8.619,0,0,0,4.306-5.363,16.062,16.062,0,0,1,1.744-3.6c.637-1.054.964-2.3,1.946-3.143.194-1.847,1.334-3.338,2.1-4.922.68-1.409,1.132-2.854,1.7-4.279.716-1.781,1.106-3.637,1.656-5.455a9.166,9.166,0,0,1,.5-1.423,37.864,37.864,0,0,0,2.785-6.5c.633-2.247,1.741-4.358,2.393-6.6.7-2.429,1.476-4.826,2.348-7.2a6.049,6.049,0,0,0,.209-1.5,11.3,11.3,0,0,1,.656-2.95c.5-1.336,1.585-1.82,2.746-1.065a4.216,4.216,0,0,1,2.139,3.23c.218,2.062.552,4.111.718,6.186.193,2.414.276,4.832.281,7.245.006,3.088.3,6.148.506,9.22a77.98,77.98,0,0,0,1.724,10.627,7.222,7.222,0,0,1,.093,2.017,26.712,26.712,0,0,0,.484,7.7A7.118,7.118,0,0,1,171.975,294.908Zm-7.592-41.436a3.234,3.234,0,0,0-1.223,1.969c-.642,2.27-1.652,4.414-2.192,6.723a11.748,11.748,0,0,1-1.131,3.146,7.757,7.757,0,0,0-1.262,3.1,15.809,15.809,0,0,1-.848,3.754,7.509,7.509,0,0,0-.282,2.123,2.5,2.5,0,0,0,1.409-.234c2.5-1.162,4.985-2.342,7.486-3.495a1.46,1.46,0,0,0,.908-1.468,11.47,11.47,0,0,1,.152-2.519,4.02,4.02,0,0,0-.14-2.134,20.294,20.294,0,0,1-.88-3.568c-.192-2.142-1-4.147-1.216-6.277A1.458,1.458,0,0,0,164.383,253.473Z" transform="translate(0 -27.247)"/></g></svg>