<?xml version="1.0" encoding="UTF-8" standalone="no"?>
<!DOCTYPE svg PUBLIC "-//W3C//DTD SVG 1.1//EN" "http://www.w3.org/Graphics/SVG/1.1/DTD/svg11.dtd">
<svg width="100%" height="100%" viewBox="0 0 633 269" version="1.1" xmlns="http://www.w3.org/2000/svg" xmlns:xlink="http://www.w3.org/1999/xlink" xml:space="preserve" xmlns:serif="http://www.serif.com/" style="fill-rule:evenodd;clip-rule:evenodd;stroke-linejoin:round;stroke-miterlimit:2;">
    <g transform="matrix(4.166667,0,0,4.166667,0,0)">
        <g transform="matrix(1,0,0,1,-0.684444,-4.56)">
            <path d="M150.34,41C150.34,41 134.84,39 129.42,38.46C127.081,38.18 124.725,38.06 122.37,38.1C115.203,37.987 108.074,39.159 101.32,41.56C94.566,43.961 95.13,44.04 82.88,50.44C70.63,56.84 51,66.43 51,66.43C48.115,67.716 45.061,68.582 41.93,69C37,69.59 30.67,67.4 30.67,67.4C30.67,67.4 26.1,66.1 19.8,60.46C17.031,57.761 14.657,54.684 12.75,51.32C15.493,53.888 18.579,56.062 21.92,57.78C25.531,59.659 29.299,61.222 33.18,62.45C37.061,63.678 40.26,64.37 49.36,61C53.944,59.382 58.443,57.533 62.84,55.46L75.45,49C75.45,49 90.21,40.48 99.51,37C104.829,34.94 110.524,34.026 116.22,34.32C120.667,34.415 125.098,34.873 129.47,35.69C136.57,36.839 143.554,38.616 150.34,41Z" style="fill:rgb(37,44,115);fill-rule:nonzero;"/>
        </g>
        <g transform="matrix(1,0,0,1,-0.684444,-4.56)">
            <path d="M146.67,38.65C142.174,36.959 137.566,35.579 132.88,34.52C128.194,33.461 127,33 121.65,32.11C118.922,31.613 116.167,31.279 113.4,31.11C109.386,30.706 105.334,30.956 101.4,31.85C97.571,32.895 93.838,34.264 90.24,35.94L73.95,43.73L63,49.56L60.65,51L60.74,48.3L64.98,46.3L84.91,34.7C84.91,34.7 94.25,28.89 99.51,27.19C102.817,26.162 106.283,25.742 109.74,25.95C113.197,26.158 114.44,25.95 123.23,28.95C132.02,31.95 139.66,35.28 139.66,35.28L146.67,38.65Z" style="fill:rgb(128,203,219);fill-rule:nonzero;"/>
        </g>
        <g transform="matrix(1,0,0,1,-0.684444,-4.56)">
            <path d="M152.57,41C152.57,41 143.74,36.48 140.52,34.93C137.3,33.38 120.41,25.84 120.41,25.84C120.41,25.84 113.84,23.2 111.14,22.76C108.44,22.32 106.14,21.17 99.56,23.28C92.98,25.39 67.35,40 67.35,40L63.22,42.37L63.22,34.61L68.22,32.61L81.22,25.73L93.51,19.4C96.467,17.791 99.62,16.571 102.89,15.77C106.073,15.187 109.354,15.456 112.4,16.55C117.4,18.38 126.7,23.73 126.7,23.73L136.7,30.19L147.21,37.28L152.57,41Z" style="fill:rgb(51,148,68);fill-rule:nonzero;"/>
        </g>
        <g id="RED" transform="matrix(1,0,0,1,-0.684444,-4.56)">
            <circle cx="40.15" cy="32.54" r="27.98" style="fill:rgb(227,60,35);"/>
        </g>
        <g id="SUN" transform="matrix(1,0,0,1,-0.684444,-4.56)">
            <circle cx="43.01" cy="29.68" r="23.73" style="fill:rgb(245,199,10);"/>
        </g>
        <g id="YELLOW" transform="matrix(1,0,0,1,-0.684444,-4.56)">
            <ellipse cx="46.42" cy="28.73" rx="20.33" ry="19.79" style="fill:rgb(236,228,26);"/>
        </g>
        <g transform="matrix(1,0,0,1,-0.684444,-4.56)">
            <path d="M63.11,27.26L58.46,25.7C58.46,25.7 55.29,24.7 52.76,23.63C50.98,23.016 49.145,22.577 47.28,22.32C44.646,21.911 41.964,21.911 39.33,22.32C37.968,22.518 36.643,22.919 35.4,23.51C33.88,24.36 29.95,23.64 27.5,21.51C25.05,19.38 20.66,18.79 20.66,18.79C17.698,18.47 14.718,18.343 11.74,18.41C7.07,18.54 1.28,18.07 1.28,18.07C1.28,18.07 -0.06,17.91 1.28,18.3C2.62,18.69 6.21,19.15 6.21,19.15L11.76,19.64C13.243,19.753 14.712,20.001 16.15,20.38C18.328,20.827 20.481,21.387 22.6,22.06C24.108,22.964 25.554,23.966 26.93,25.06C29.47,27.06 22.62,27.06 22.62,27.06L21.21,27.25C21.21,27.25 20.31,27.41 24.68,27.76C25.83,27.867 26.99,27.826 28.13,27.64C28.747,27.507 29.393,27.638 29.91,28C31,28.62 33.08,27.31 33.08,27.31L33.93,26.69C34.348,26.461 34.826,26.363 35.3,26.41C35.774,26.457 38.18,27.55 37.11,26.89C36.47,26.5 35.36,25.65 35.36,25.65C35.36,25.65 34.96,25.28 35.21,25.11C35.584,25.005 35.973,24.968 36.36,25C36.864,24.979 37.363,24.902 37.85,24.77C39.491,24.65 41.139,24.65 42.78,24.77C46.565,24.994 50.335,25.435 54.07,26.09C60.86,27.23 61.87,27.31 61.87,27.31C61.87,27.31 63.88,27.7 63.11,27.26Z" style="fill:rgb(1,0,3);fill-rule:nonzero;"/>
        </g>
    </g>
</svg>
