<?xml version="1.0" encoding="UTF-8" standalone="no"?>
<!DOCTYPE svg PUBLIC "-//W3C//DTD SVG 1.1//EN" "http://www.w3.org/Graphics/SVG/1.1/DTD/svg11.dtd">
<svg width="100%" height="100%" viewBox="0 0 572 653" version="1.1" xmlns="http://www.w3.org/2000/svg" xmlns:xlink="http://www.w3.org/1999/xlink" xml:space="preserve" xmlns:serif="http://www.serif.com/" style="fill-rule:evenodd;clip-rule:evenodd;stroke-linejoin:round;stroke-miterlimit:2;">
    <g transform="matrix(4.166667,0,0,4.166667,0,0)">
        <g transform="matrix(1,0,0,1,-73.597,-95.897)">
            <path d="M127.893,183.813C130.899,175.737 139.882,169.189 147.955,169.189C156.031,169.189 160.138,175.737 157.131,183.813C154.12,191.884 145.137,198.427 137.064,198.427C128.99,198.427 124.885,191.884 127.893,183.813ZM129.314,224.242C131.045,220.927 132.89,217.582 134.825,214.379C140.427,213.857 146.138,211.879 151.444,208.876C153.415,210.526 155.349,212.323 157.208,214.189C148.501,219.906 138.765,223.573 129.314,224.242ZM103.87,214.594C107.715,212.377 111.641,210.209 115.423,208.29C118.236,211.176 121.943,213.129 126.305,214.003C125.82,217.323 125.151,220.824 124.39,224.306C115.52,223.886 108.316,220.492 103.87,214.594ZM101.137,186.713C104.317,187.24 107.465,187.86 110.405,188.588C109.494,193.432 109.835,198.026 111.392,201.996C108.339,205.082 105.036,208.183 101.704,211.171C98.293,204.438 98.11,195.922 101.137,186.713ZM122.319,157.436C123.227,159.941 124.048,162.519 124.699,165.097C119.959,169.301 115.967,174.34 113.324,179.838C109.953,180.556 106.499,181.151 103.105,181.635C107.257,172.396 114.107,164.013 122.319,157.436ZM146.339,153.832C141.624,154.804 136.924,156.728 132.522,159.354C130.552,157.738 128.637,155.96 126.813,154.115C134.42,148.929 142.861,145.306 151.251,143.905C149.55,147.479 147.906,150.805 146.339,153.832ZM181.294,153.207C177.495,155.429 173.599,157.597 169.795,159.52C167.288,156.874 164.024,155.018 160.226,153.998C160.909,150.79 161.736,147.26 162.708,143.436C170.725,144.262 177.2,147.665 181.294,153.207ZM183.633,181.679C180.494,181.191 177.372,180.59 174.436,179.863C175.587,174.55 175.251,169.502 173.468,165.224C176.521,162.153 179.82,159.081 183.129,156.137C186.804,163.104 186.983,172.021 183.633,181.679ZM158.1,191.684C160.708,190.663 163.546,189.765 166.514,188.994C164.434,192.515 161.77,195.786 158.717,198.657C158.296,196.273 158.091,193.935 158.1,191.684ZM142.737,202.987C144.491,203.846 146.272,204.925 148.064,206.219C144.68,207.967 141.156,209.256 137.628,209.945C139.29,207.44 141.002,205.097 142.737,202.987ZM127.118,203.051C127.185,205.136 127.06,207.489 126.804,210.004C123.861,209.364 121.304,208.153 119.252,206.405C122.037,205.087 124.692,203.939 127.118,203.051ZM126.23,176.117C123.833,177.05 121.242,177.875 118.526,178.593C120.456,175.336 122.881,172.304 125.65,169.594C126.03,171.83 126.228,174.013 126.23,176.117ZM140.354,164.506C138.875,163.774 137.396,162.939 135.934,161.933C138.488,160.527 141.136,159.409 143.814,158.593C142.59,160.805 141.441,162.763 140.354,164.506ZM158.423,164.55C158.627,162.641 158.965,160.424 159.436,157.929C161.958,158.642 164.158,159.809 165.953,161.386C163.33,162.611 160.8,163.695 158.423,164.55ZM170.595,178.788C168.091,178.007 165.824,177.103 163.909,176.063C165.742,173.602 167.951,171.019 170.406,168.402C171.338,171.503 171.394,175.023 170.595,178.788ZM114.249,189.643C116.484,190.327 118.524,191.088 120.268,191.938C118.609,194.13 116.658,196.416 114.5,198.75C113.756,195.99 113.655,192.919 114.249,189.643ZM162.078,210.673C161.17,208.193 160.361,205.639 159.694,203.08C164.715,198.768 168.936,193.524 171.7,187.782C175.074,187.079 178.516,186.498 181.896,186.029C177.636,195.482 170.552,204.042 162.078,210.673ZM164.408,216.449C175.288,208.319 184.255,197.313 188.853,185.184C200.972,183.914 210.785,183.9 210.785,183.9C210.785,183.9 200.941,183.817 189.737,182.508C193.357,171.224 192.66,160.384 187.779,152.073C198.811,142.649 208.75,135.388 208.75,135.388C208.75,135.388 198.769,142.566 186.548,150.051C181.591,143.039 173.794,138.713 164.253,137.512C167.112,126.866 170.771,114.577 174.767,101.814L172.169,95.897C166.095,110.71 159.957,125.101 154.311,137.361C143.515,138.352 132.438,142.869 122.697,149.671C116.236,142.322 111.739,135.389 111.739,135.389C111.739,135.389 116.077,142.445 120.01,151.634C109.385,159.735 100.646,170.574 96.135,182.503C83.749,183.851 73.597,183.899 73.597,183.899C73.597,183.899 83.7,184.304 95.058,185.808C91.734,196.702 92.444,207.146 97.061,215.237C85.839,224.885 75.607,232.395 75.607,232.395C75.607,232.395 86.075,225.198 98.582,217.698C103.929,225.169 112.503,229.558 122.995,230.315C120.059,242.239 116.644,252.493 116.644,252.493C116.644,252.493 120.435,242.366 126.19,230.472C126.213,230.472 126.239,230.477 126.265,230.477C138.078,230.477 150.515,225.946 161.384,218.587C167.889,225.755 172.613,232.396 172.613,232.396C172.613,232.396 168.33,225.502 164.408,216.449Z" style="fill:rgb(0,98,172);"/>
        </g>
        <g transform="matrix(1,0,0,1,-73.597,-95.897)">
            <path d="M134.583,171.776C135.543,171.078 136.657,169.828 137.889,168.168C128.598,161.879 120.196,148.871 120.196,148.871C120.196,148.871 128.591,162.494 130.343,174.301C131.892,173.524 133.329,172.689 134.583,171.776Z" style="fill:rgb(139,169,212);"/>
        </g>
        <g transform="matrix(1,0,0,1,-73.597,-95.897)">
            <path d="M158.834,171.776C159.398,172.674 160.2,173.495 161.162,174.261C171.718,162.415 190.253,148.87 190.253,148.87C190.253,148.87 172.183,161.863 158.204,168.157C158.21,169.818 158.401,171.083 158.834,171.776Z" style="fill:rgb(139,169,212);"/>
        </g>
        <g transform="matrix(1,0,0,1,-73.597,-95.897)">
            <path d="M149.8,196.024C148.458,197.001 147.12,198.207 145.79,199.569C154.871,205.843 164.158,218.92 164.158,218.92C164.158,218.92 155.716,205.365 153.984,193.515C152.458,194.291 151.042,195.121 149.8,196.024Z" style="fill:rgb(139,169,212);"/>
        </g>
        <g transform="matrix(1,0,0,1,-73.597,-95.897)">
            <path d="M125.548,196.024C124.999,195.155 124.156,194.349 123.105,193.597C112.535,205.379 94.106,218.919 94.106,218.919C94.106,218.919 113.039,205.906 126.784,199.612C126.522,198.173 126.128,196.952 125.548,196.024Z" style="fill:rgb(139,169,212);"/>
        </g>
    </g>
</svg>
