<?xml version="1.0" encoding="UTF-8" standalone="no"?>
<!DOCTYPE svg PUBLIC "-//W3C//DTD SVG 1.1//EN" "http://www.w3.org/Graphics/SVG/1.1/DTD/svg11.dtd">
<svg width="100%" height="100%" viewBox="0 0 1200 940" version="1.1" xmlns="http://www.w3.org/2000/svg" xmlns:xlink="http://www.w3.org/1999/xlink" xml:space="preserve" xmlns:serif="http://www.serif.com/" style="fill-rule:evenodd;clip-rule:evenodd;stroke-linejoin:round;stroke-miterlimit:2;">
    <g transform="matrix(3.125,0,0,3.125,0,0)">
        <g transform="matrix(9.388354,0,0,-9.388354,-0.016455,529.587646)">
            <path d="M20.337,24.409L20.337,27.954C20.371,27.975 20.413,28.001 20.451,28.022C21.211,28.54 22.203,29.265 23.446,29.956C23.633,30.058 23.824,30.16 24.015,30.258C24.384,30.448 24.774,30.627 25.177,30.796C25.968,31.131 26.781,31.398 27.616,31.598C27.93,31.67 28.244,31.738 28.57,31.785C28.961,31.854 29.354,31.906 29.75,31.942C30.3,31.992 30.873,32.009 31.459,31.992C31.595,31.992 31.73,31.988 31.862,31.98C32.468,31.95 33.1,31.886 33.754,31.78C34.78,31.62 35.858,31.356 36.994,30.97C36.994,30.97 29.427,31.572 20.341,24.4L20.337,24.408L20.337,24.409Z" style="fill:rgb(252,175,23);fill-rule:nonzero;"/>
        </g>
        <g transform="matrix(9.388354,0,0,-9.388354,-0.016455,509.092879)">
            <path d="M22.653,23.919C18.984,26.926 13.11,31.995 3.68,28.801C6.072,28.881 12.54,28.305 20.333,22.231C21.084,22.824 21.858,23.386 22.653,23.919Z" style="fill:rgb(0,174,239);fill-rule:nonzero;"/>
        </g>
        <g transform="matrix(9.388354,0,0,-9.388354,-0.016455,295.545382)">
            <path d="M0.002,24.402C-0.032,24.19 3.442,11.235 8.736,9.725C14.03,8.207 13.669,9.237 15.625,7.078L0.002,24.402Z" style="fill:url(#_Linear1);fill-rule:nonzero;"/>
        </g>
        <g transform="matrix(9.388354,0,0,-9.388354,-0.016455,295.545382)">
            <path d="M40.897,24.402C40.931,24.19 37.457,11.235 32.163,9.725C26.869,8.207 27.23,9.237 25.274,7.078L40.897,24.402Z" style="fill:url(#_Linear2);fill-rule:nonzero;"/>
        </g>
        <g transform="matrix(8.764165,3.366096,-3.366096,8.764165,59.381257,-86.162112)">
            <path d="M27.202,1.078C27.369,1.214 33.465,13.159 30.546,17.829C27.634,22.501 27.211,21.495 27.202,24.406L27.202,1.078L27.202,1.078Z" style="fill:url(#_Linear3);fill-rule:nonzero;"/>
        </g>
        <g transform="matrix(9.388354,0,0,-9.388354,-0.016455,219.030297)">
            <path d="M20.446,23.33C20.28,23.194 14.185,11.25 17.103,6.58C20.017,1.909 20.442,2.914 20.446,0L20.446,23.33Z" style="fill:url(#_Linear4);fill-rule:nonzero;"/>
        </g>
        <g transform="matrix(9.388354,0,0,-9.388354,-0.016455,219.030297)">
            <path d="M20.447,23.33C20.613,23.194 26.708,11.25 23.79,6.58C20.876,1.909 20.452,2.914 20.447,0L20.447,23.33Z" style="fill:url(#_Linear5);fill-rule:nonzero;"/>
        </g>
        <g transform="matrix(9.388354,0,0,-9.388354,-0.016455,234.154944)">
            <path d="M9.56,23.359C9.454,23.172 8.046,9.836 12.444,6.523C16.839,3.206 16.873,4.296 17.924,1.582L9.56,23.359Z" style="fill:url(#_Linear6);fill-rule:nonzero;"/>
        </g>
    </g>
    <defs>
        <linearGradient id="_Linear1" x1="0" y1="0" x2="1" y2="0" gradientUnits="userSpaceOnUse" gradientTransform="matrix(-3.619001,-2.829,-2.829,3.619001,8.291002,16.112992)"><stop offset="0" style="stop-color:rgb(19,165,56);stop-opacity:1"/><stop offset="0.04" style="stop-color:rgb(39,168,53);stop-opacity:1"/><stop offset="0.12" style="stop-color:rgb(81,177,47);stop-opacity:1"/><stop offset="0.19" style="stop-color:rgb(108,182,43);stop-opacity:1"/><stop offset="0.23" style="stop-color:rgb(118,184,42);stop-opacity:1"/><stop offset="0.45" style="stop-color:rgb(145,192,27);stop-opacity:1"/><stop offset="0.66" style="stop-color:rgb(175,202,11);stop-opacity:1"/><stop offset="0.68" style="stop-color:rgb(177,202,9);stop-opacity:1"/><stop offset="0.86" style="stop-color:rgb(194,209,2);stop-opacity:1"/><stop offset="1" style="stop-color:rgb(200,212,0);stop-opacity:1"/></linearGradient>
        <linearGradient id="_Linear2" x1="0" y1="0" x2="1" y2="0" gradientUnits="userSpaceOnUse" gradientTransform="matrix(3.618999,-2.829,-2.829,-3.618999,32.608005,16.112992)"><stop offset="0" style="stop-color:rgb(19,165,56);stop-opacity:1"/><stop offset="0.04" style="stop-color:rgb(39,168,53);stop-opacity:1"/><stop offset="0.12" style="stop-color:rgb(81,177,47);stop-opacity:1"/><stop offset="0.19" style="stop-color:rgb(108,182,43);stop-opacity:1"/><stop offset="0.23" style="stop-color:rgb(118,184,42);stop-opacity:1"/><stop offset="0.45" style="stop-color:rgb(145,192,27);stop-opacity:1"/><stop offset="0.66" style="stop-color:rgb(175,202,11);stop-opacity:1"/><stop offset="0.68" style="stop-color:rgb(177,202,9);stop-opacity:1"/><stop offset="0.86" style="stop-color:rgb(194,209,2);stop-opacity:1"/><stop offset="1" style="stop-color:rgb(200,212,0);stop-opacity:1"/></linearGradient>
        <linearGradient id="_Linear3" x1="0" y1="0" x2="1" y2="0" gradientUnits="userSpaceOnUse" gradientTransform="matrix(4.585106,-0.325589,0.325589,4.585106,26.597146,12.781195)"><stop offset="0" style="stop-color:rgb(19,165,56);stop-opacity:1"/><stop offset="0.04" style="stop-color:rgb(39,168,53);stop-opacity:1"/><stop offset="0.12" style="stop-color:rgb(81,177,47);stop-opacity:1"/><stop offset="0.19" style="stop-color:rgb(108,182,43);stop-opacity:1"/><stop offset="0.23" style="stop-color:rgb(118,184,42);stop-opacity:1"/><stop offset="0.45" style="stop-color:rgb(145,192,27);stop-opacity:1"/><stop offset="0.66" style="stop-color:rgb(175,202,11);stop-opacity:1"/><stop offset="0.68" style="stop-color:rgb(177,202,9);stop-opacity:1"/><stop offset="0.86" style="stop-color:rgb(194,209,2);stop-opacity:1"/><stop offset="1" style="stop-color:rgb(200,212,0);stop-opacity:1"/></linearGradient>
        <linearGradient id="_Linear4" x1="0" y1="0" x2="1" y2="0" gradientUnits="userSpaceOnUse" gradientTransform="matrix(-4.585,0.325,0.325,4.585,21.056002,11.621992)"><stop offset="0" style="stop-color:rgb(19,165,56);stop-opacity:1"/><stop offset="0.04" style="stop-color:rgb(39,168,53);stop-opacity:1"/><stop offset="0.12" style="stop-color:rgb(81,177,47);stop-opacity:1"/><stop offset="0.19" style="stop-color:rgb(108,182,43);stop-opacity:1"/><stop offset="0.23" style="stop-color:rgb(118,184,42);stop-opacity:1"/><stop offset="0.45" style="stop-color:rgb(145,192,27);stop-opacity:1"/><stop offset="0.66" style="stop-color:rgb(175,202,11);stop-opacity:1"/><stop offset="0.68" style="stop-color:rgb(177,202,9);stop-opacity:1"/><stop offset="0.86" style="stop-color:rgb(194,209,2);stop-opacity:1"/><stop offset="1" style="stop-color:rgb(200,212,0);stop-opacity:1"/></linearGradient>
        <linearGradient id="_Linear5" x1="0" y1="0" x2="1" y2="0" gradientUnits="userSpaceOnUse" gradientTransform="matrix(4.581998,0.322,0.322,-4.581998,19.846003,11.620992)"><stop offset="0" style="stop-color:rgb(19,165,56);stop-opacity:1"/><stop offset="0.04" style="stop-color:rgb(39,168,53);stop-opacity:1"/><stop offset="0.12" style="stop-color:rgb(81,177,47);stop-opacity:1"/><stop offset="0.19" style="stop-color:rgb(108,182,43);stop-opacity:1"/><stop offset="0.23" style="stop-color:rgb(118,184,42);stop-opacity:1"/><stop offset="0.45" style="stop-color:rgb(145,192,27);stop-opacity:1"/><stop offset="0.66" style="stop-color:rgb(175,202,11);stop-opacity:1"/><stop offset="0.68" style="stop-color:rgb(177,202,9);stop-opacity:1"/><stop offset="0.86" style="stop-color:rgb(194,209,2);stop-opacity:1"/><stop offset="1" style="stop-color:rgb(200,212,0);stop-opacity:1"/></linearGradient>
        <linearGradient id="_Linear6" x1="0" y1="0" x2="1" y2="0" gradientUnits="userSpaceOnUse" gradientTransform="matrix(-4.397001,-1.34,-1.34,4.397001,14.326002,12.651993)"><stop offset="0" style="stop-color:rgb(19,165,56);stop-opacity:1"/><stop offset="0.04" style="stop-color:rgb(39,168,53);stop-opacity:1"/><stop offset="0.12" style="stop-color:rgb(81,177,47);stop-opacity:1"/><stop offset="0.19" style="stop-color:rgb(108,182,43);stop-opacity:1"/><stop offset="0.23" style="stop-color:rgb(118,184,42);stop-opacity:1"/><stop offset="0.45" style="stop-color:rgb(145,192,27);stop-opacity:1"/><stop offset="0.66" style="stop-color:rgb(175,202,11);stop-opacity:1"/><stop offset="0.68" style="stop-color:rgb(177,202,9);stop-opacity:1"/><stop offset="0.86" style="stop-color:rgb(194,209,2);stop-opacity:1"/><stop offset="1" style="stop-color:rgb(200,212,0);stop-opacity:1"/></linearGradient>
    </defs>
</svg>
