<?xml version="1.0" encoding="UTF-8" standalone="no"?>
<!DOCTYPE svg PUBLIC "-//W3C//DTD SVG 1.1//EN" "http://www.w3.org/Graphics/SVG/1.1/DTD/svg11.dtd">
<svg width="100%" height="100%" viewBox="0 0 1105 1106" version="1.1" xmlns="http://www.w3.org/2000/svg" xmlns:xlink="http://www.w3.org/1999/xlink" xml:space="preserve" xmlns:serif="http://www.serif.com/" style="fill-rule:evenodd;clip-rule:evenodd;stroke-linejoin:round;stroke-miterlimit:2;">
    <g transform="matrix(4.166667,0,0,4.166667,0,0)">
        <g id="layer1" transform="matrix(1,0,0,1,28.313171,-304.012162)">
            <g id="g2884" transform="matrix(1,0,0,1,35.433082,35.367882)">
                <path id="path2436" d="M201.438,268.644L-63.746,268.644L-63.746,533.895L168.522,533.895C168.522,533.895 40.129,523.693 52.989,386.407C52.989,386.407 54.084,379.29 39.742,378.97C39.742,378.97 43.08,355.988 64.392,358.886C78.266,360.796 87.654,370.891 87.387,381.213C87.387,381.213 97.295,288.781 201.438,268.644" style="fill:rgb(28,66,129);"/>
                <path id="path2440" d="M167.694,534.002L200.97,533.895C200.97,533.895 99.859,519.206 86.479,404.274C113.813,398.118 144.512,412.62 144.512,412.62L145.087,412.072C145.087,412.072 132.775,381.974 143.417,341.206C153.713,301.534 201.438,278.139 201.438,278.139L201.438,268.644C97.295,288.781 87.387,381.213 87.387,381.213C87.654,370.891 78.266,360.796 64.392,358.886C43.08,355.988 39.742,378.97 39.742,378.97C54.084,379.29 52.989,386.407 52.989,386.407C40.129,523.693 167.694,534.002 167.694,534.002" style="fill:white;"/>
                <path id="path2444" d="M200.97,533.895C200.97,533.895 99.859,519.206 86.479,404.274C113.813,398.118 144.512,412.62 144.512,412.62L145.087,412.072C145.087,412.072 132.775,381.974 143.417,341.206C153.713,301.534 201.438,278.139 201.438,278.139" style="fill:rgb(237,28,36);"/>
            </g>
        </g>
    </g>
</svg>
