<?xml version="1.0" encoding="UTF-8" standalone="no"?>
<!DOCTYPE svg PUBLIC "-//W3C//DTD SVG 1.1//EN" "http://www.w3.org/Graphics/SVG/1.1/DTD/svg11.dtd">
<svg width="100%" height="100%" viewBox="0 0 841 842" version="1.1" xmlns="http://www.w3.org/2000/svg" xmlns:xlink="http://www.w3.org/1999/xlink" xml:space="preserve" xmlns:serif="http://www.serif.com/" style="fill-rule:evenodd;clip-rule:evenodd;stroke-linejoin:round;stroke-miterlimit:2;">
    <g transform="matrix(4.166667,0,0,4.166667,0,0)">
        <g transform="matrix(1,0,0,1,-17.9,-19)">
            <g>
                <path d="M209.5,111.1C205.7,71.9 177.8,40.9 141.8,31.5C106.4,23.5 76.2,36.3 82,62.6C87.9,89.4 128.6,122.4 140.1,127.5C140.5,127.7 141,127.7 141.5,127.5C146.5,125.5 150.3,122.1 153.4,117.7C153.5,117.5 153.7,117.4 153.6,117.3C153.6,117.2 153.4,117.2 153.3,117.2C149.7,117.1 146.2,116.1 143.1,114.3C141,113.2 139.2,111.7 137.7,110.1C138.4,110.3 139.1,110.4 139.7,110.6C143.7,111.3 147.6,111.3 151.5,110.5C155.2,109.6 158.5,107.9 161.7,106.1C164.5,104.6 167.1,102.9 170.1,101.7C173.2,100.4 176.5,100 179.7,100.2C181.4,100.3 182.9,100.6 184.6,100.9C185.3,101 186,100.6 186.7,100.6C189,100.1 191.2,99.5 193.5,99.1C196.2,98.6 199,98.7 201.5,100.2C202.5,100.8 203.6,101.8 204,102.6C203.4,102.7 202.9,102.7 202.3,102.8C198.6,103.6 195.4,105.3 192.3,107.2C188.1,109.8 184.3,113 181.7,117.1C178.8,121.4 176.7,126.2 175.4,131.3C173.7,138 173.5,144.9 174.1,151.8C174.6,157.2 175,162.6 175.1,168C175.3,175.6 173.8,191.1 156.4,202.8C190.8,186.9 213.2,150.9 209.5,111.1Z" style="fill:rgb(42,48,117);fill-rule:nonzero;"/>
                <path d="M124.7,127.1C66.1,81.4 49,44.5 98.5,30.6C90.5,32.5 82.8,35.1 75.7,38.9C53.8,52.2 46.4,78.1 80.1,106.8C106.4,132.7 178.8,166.5 152.3,200.6C182.6,156.4 17.7,115.6 54.2,54.9C49.7,59.4 45.6,64.5 42.2,69.8C9,126 186.6,169.4 148.2,202.5C172.2,174.4 25,137.8 33.2,88.3C31.9,91.9 30.8,95.5 29.9,99.2C20.5,162.7 168.9,175.8 145.1,203.6C158.8,177.4 41.9,180.9 27.7,124.6C27.8,125.7 27.8,127 27.9,128.1C28.8,137.8 31.2,147 34.9,155.5C40,164.8 51.1,177.2 74.9,180.5C157,191.7 140.5,205.8 140.5,205.8C140.5,205.8 146.6,193.5 85.8,191.4C75,191 66.1,190.2 58.9,188.3C77.1,204.1 101.4,212.7 127.2,210.3C132,209.8 136.7,208.9 141.2,207.7C161.6,200.9 184.3,173.4 124.7,127.1Z" style="fill:rgb(232,29,44);fill-rule:nonzero;"/>
            </g>
            <g>
                <path d="M118.8,220.9C63.2,220.9 17.9,175.6 17.9,120C17.9,64.4 63.2,19 118.8,19C174.4,19 219.7,64.3 219.7,119.9C219.7,175.5 174.4,220.9 118.8,220.9ZM118.8,22.8C65.3,22.8 21.7,66.3 21.7,119.9C21.7,173.5 65.2,217 118.8,217C172.4,217 215.9,173.5 215.9,119.9C215.9,66.3 172.3,22.8 118.8,22.8Z" style="fill:rgb(42,48,117);fill-rule:nonzero;"/>
            </g>
        </g>
    </g>
</svg>
