<?xml version="1.0" encoding="UTF-8" standalone="no"?><!DOCTYPE svg PUBLIC "-//W3C//DTD SVG 1.1//EN" "http://www.w3.org/Graphics/SVG/1.1/DTD/svg11.dtd"><svg width="100%" height="100%" viewBox="0 0 281 92" version="1.1" xmlns="http://www.w3.org/2000/svg" xmlns:xlink="http://www.w3.org/1999/xlink" xml:space="preserve" xmlns:serif="http://www.serif.com/" style="fill-rule:evenodd;clip-rule:evenodd;stroke-linejoin:round;stroke-miterlimit:2;"><g><clipPath id="_clip1"><rect x="0" y="0" width="457.534" height="209.804"/></clipPath><g clip-path="url(#_clip1)"><path d="M31.191,3.236c-0.622,0 -1.244,0.495 -1.492,1.124l-29.532,84.343c-0.375,0.876 -0.12,1.746 0.749,1.746l76.249,0c0.87,0 1.117,-0.87 0.749,-1.746l-29.532,-84.343c-0.247,-0.629 -0.87,-1.124 -1.492,-1.124l-15.699,0Zm171.809,0c-0.629,0 -1.251,0.495 -1.498,1.124l-29.526,84.343c-0.375,0.876 -0.127,1.746 0.749,1.746l76.242,0c0.876,0 1.124,-0.87 0.749,-1.746l-29.526,-84.343c-0.247,-0.629 -0.87,-1.124 -1.492,-1.124l-15.699,0Zm-62.918,21.305c-18.067,0 -30.777,13.204 -30.777,32.395c0,7.351 2.368,14.95 6.107,19.806c-10.836,0 -26.536,-1.244 -31.519,-1.619c-0.876,0 -1.251,0.375 -1.251,1.124l0,11.96c0,0.742 0.375,1.371 1.124,1.371c13.331,1.117 35.506,2.361 50.83,2.361c24.295,0 36.255,-12.582 36.255,-34.134c0,-21.178 -12.208,-33.265 -30.77,-33.265m132.183,-11.211c3.365,0 7.351,0.375 7.351,0.375c0.749,0 1.251,-0.502 1.251,-1.251l0,-10.214c0,-0.749 -0.502,-1.371 -1.251,-1.492c0,0 -4.107,-0.749 -8.094,-0.749c-19.686,0 -30.522,11.833 -30.522,29.653c0,19.311 11.338,29.773 30.522,29.773c3.365,0 8.094,-0.749 8.094,-0.749c0.749,-0.12 1.251,-0.742 1.251,-1.371l0,-10.462c0,-0.622 -0.502,-1.244 -1.251,-1.124c0,0 -3.987,0.375 -7.351,0.375c-9.96,0 -15.445,-5.853 -15.445,-16.442c0,-10.596 5.733,-16.321 15.445,-16.321m-132.183,64.035c-8.1,0 -13.211,-6.602 -13.211,-19.184c0,-12.582 5.485,-18.442 13.331,-18.442c8.348,0 13.084,6.355 13.084,18.442c0,12.83 -5.358,19.184 -13.204,19.184m-101.046,-52.576l15.826,49.586l-31.773,0l15.947,-49.586Zm171.809,0l15.82,49.586l-31.767,0l15.947,-49.586Z" style="fill:#f1471d;fill-rule:nonzero;"/></g></g></svg>