<?xml version="1.0" encoding="UTF-8" standalone="no"?>
<!DOCTYPE svg PUBLIC "-//W3C//DTD SVG 1.1//EN" "http://www.w3.org/Graphics/SVG/1.1/DTD/svg11.dtd">
<svg width="100%" height="100%" viewBox="0 0 855 167" version="1.1" xmlns="http://www.w3.org/2000/svg" xmlns:xlink="http://www.w3.org/1999/xlink" xml:space="preserve" xmlns:serif="http://www.serif.com/" style="fill-rule:evenodd;clip-rule:evenodd;stroke-linejoin:round;stroke-miterlimit:2;">
    <g transform="matrix(4.166667,0,0,4.166667,0,0)">
        <g id="Group">
            <path id="Vector" d="M23.774,2.171C24.898,0.972 25.647,0.373 26.097,0.523C26.471,0.598 26.846,0.822 27.221,1.122C27.595,1.422 27.745,1.797 27.82,2.246C27.895,2.696 27.895,3.37 27.895,4.344C27.895,5.319 27.97,5.993 28.12,6.368C28.27,6.742 28.495,7.941 28.794,9.89C29.094,11.913 29.244,13.112 29.244,13.487C29.244,13.936 29.394,14.536 29.544,15.435C29.768,16.334 30.818,16.484 32.691,16.035C34.565,15.585 36.513,15.06 38.311,14.536C40.185,14.011 41.534,13.562 42.433,13.262C43.332,12.962 42.358,13.412 39.66,14.611C36.888,15.81 35.014,16.784 33.89,17.458C32.841,18.133 31.792,18.882 30.968,19.556C30.068,20.231 29.619,21.13 29.619,22.104C29.619,23.078 29.469,24.427 29.319,26.151C29.094,27.875 28.944,29.373 28.719,30.722C28.495,31.996 28.345,33.12 28.27,33.944C28.195,34.769 27.895,35.593 27.445,36.342C26.996,37.092 26.546,37.541 25.947,37.691C25.422,37.766 24.973,37.616 24.598,37.167C24.223,36.717 24.223,35.518 24.448,33.719C24.673,31.846 24.973,30.198 25.197,28.774C25.422,27.35 25.647,25.776 25.872,24.053C26.097,22.329 25.572,21.58 24.298,21.805C23.024,21.954 21.75,22.179 20.326,22.404C18.978,22.629 17.554,22.779 16.205,23.004C14.856,23.154 13.657,23.528 12.758,23.978C11.859,24.427 10.21,26.376 7.887,29.748C5.564,33.12 4.065,35.293 3.316,36.342C2.567,37.391 1.967,37.916 1.368,37.916C0.768,37.916 0.393,37.691 0.169,37.242C-0.056,36.792 -0.056,36.117 0.169,35.218C0.393,34.319 1.293,32.67 2.791,30.272C4.29,27.875 6.014,25.402 7.962,22.779C9.91,20.231 11.559,18.133 12.908,16.559C14.182,14.985 15.381,13.412 16.43,11.913C17.479,10.414 18.678,8.691 20.027,6.817C21.451,4.944 22.65,3.37 23.774,2.171ZM25.197,10.264C24.973,8.466 24.448,8.016 23.774,8.916C23.099,9.815 22.425,10.714 21.825,11.613C21.226,12.438 20.027,13.936 18.228,16.109C16.43,18.208 16.28,19.107 17.779,18.732C19.277,18.358 21.076,18.058 23.249,17.833C25.347,17.608 26.396,17.084 26.322,16.409C26.247,15.66 26.097,14.91 25.947,14.236C25.722,13.412 25.497,12.138 25.197,10.264Z" style="fill:rgb(0,41,87);fill-rule:nonzero;"/>
            <path id="Vector_2" d="M40.185,16.335C40.709,16.185 41.384,16.26 42.058,16.485C42.733,16.709 42.882,17.459 42.433,18.733C41.983,20.007 41.459,21.73 40.934,23.828C40.41,25.927 39.885,27.65 39.435,28.924C38.986,30.198 38.386,31.397 37.862,32.296C37.262,33.27 36.738,33.795 36.138,33.87C35.614,33.945 35.239,33.945 35.014,33.795C34.789,33.645 34.789,33.046 34.939,31.997C35.089,30.872 35.464,29.224 36.063,26.976C36.588,24.728 37.112,22.779 37.637,21.056C38.161,19.407 38.161,18.508 37.637,18.508C37.187,18.433 37.337,18.133 38.161,17.534C38.986,16.859 39.66,16.485 40.185,16.335Z" style="fill:rgb(0,41,87);fill-rule:nonzero;"/>
            <path id="Vector_3" d="M51.276,12.063C50.751,11.988 48.878,11.839 47.304,10.64C46.255,9.815 45.58,8.766 45.281,8.242C45.056,7.867 44.906,7.567 44.831,7.417C44.381,6.743 43.782,6.443 43.332,6.368C42.658,6.293 42.058,6.443 41.609,6.968C41.159,7.492 40.859,7.942 40.784,8.391C40.709,8.841 40.784,9.366 41.009,10.04C41.234,10.714 41.684,11.089 42.433,11.164C42.883,11.239 43.032,11.164 43.707,11.164C44.007,11.164 44.231,11.239 44.381,11.239C44.456,11.314 44.681,11.389 44.831,11.464C45.131,11.539 46.03,11.988 46.929,12.138C48.128,12.438 49.327,12.513 52.325,12.138C52.325,12.138 51.8,12.138 51.276,12.063Z" style="fill:rgb(0,41,87);fill-rule:nonzero;"/>
            <path id="Vector_4" d="M46.929,22.03C47.828,18.433 48.652,16.634 49.477,16.709C50.301,16.784 50.901,17.159 51.35,17.908C51.8,18.583 51.725,19.482 51.2,20.531C50.676,21.58 50.676,22.03 51.05,21.955C51.425,21.88 52.025,21.655 52.624,21.206C53.298,20.756 53.898,20.381 54.498,20.081C55.097,19.782 55.621,19.632 55.921,19.557C56.296,19.482 56.97,19.632 58.02,19.932C59.069,20.306 60.043,20.756 61.017,21.355C61.916,21.955 63.19,22.03 64.764,21.505C66.337,20.981 66.113,21.131 64.239,22.03C62.366,22.854 60.417,23.304 58.469,23.229C56.521,23.154 55.022,23.454 53.898,23.978C52.849,24.503 51.95,25.102 51.2,25.777C50.451,26.451 49.776,27.575 49.177,29.074C48.578,30.573 48.053,31.921 47.753,32.971C47.453,34.02 47.154,34.844 46.854,35.518C46.629,36.193 46.03,36.568 45.28,36.568C44.456,36.642 43.931,36.268 43.707,35.668C43.482,34.994 43.407,34.619 43.557,34.394C43.707,34.169 44.081,32.971 44.681,30.797C45.355,28.549 46.03,25.627 46.929,22.03Z" style="fill:rgb(0,41,87);fill-rule:nonzero;"/>
            <path id="Vector_5" d="M87.694,3.596C88.594,2.097 89.493,1.647 90.317,2.172C91.141,2.696 91.516,3.221 91.591,3.671C91.591,4.12 91.891,4.944 92.415,6.143C92.94,7.268 93.539,8.841 94.139,10.79C94.813,12.738 95.188,15.436 95.413,19.032C95.638,22.555 96.012,24.878 96.687,25.927C97.286,26.976 98.56,26.301 100.508,23.828C102.457,21.356 104.18,19.182 105.754,17.159C107.328,15.136 108.901,13.412 110.475,11.914C112.049,10.415 113.173,9.291 113.997,8.466C114.821,7.642 115.87,6.668 117.219,5.544C118.568,4.42 119.542,3.97 120.142,4.045C120.741,4.195 121.266,4.42 121.716,4.795C122.09,5.169 122.465,5.694 122.615,6.368C122.84,7.043 122.69,8.841 122.24,11.764C121.79,14.686 121.341,17.609 120.891,20.531C120.442,23.454 120.217,26.002 120.067,28.1C119.917,30.273 119.992,31.547 120.217,32.072C120.442,32.596 120.816,32.896 121.266,32.971C121.716,33.046 122.24,32.896 122.914,32.446C123.589,31.997 124.413,31.097 125.462,29.674C126.511,28.25 126.212,29.074 124.563,32.072C122.989,35.069 121.566,36.867 120.367,37.392C119.168,37.917 118.343,38.066 117.819,37.767C117.294,37.467 116.845,37.092 116.47,36.643C116.095,36.118 115.721,35.294 115.346,34.02C114.971,32.746 114.896,31.397 115.046,29.973C115.196,28.549 115.421,26.451 115.796,23.753C116.17,20.981 116.395,19.108 116.62,18.058C116.77,17.009 116.995,15.735 117.144,14.162C117.369,12.588 117.069,12.063 116.17,12.588C115.346,13.113 113.997,14.461 112.124,16.709C110.25,18.958 108.077,21.73 105.529,25.102C102.981,28.474 101.183,30.423 100.134,30.948C99.085,31.547 98.335,31.847 97.811,31.922C97.286,31.997 96.612,31.922 95.862,31.697C95.038,31.472 94.289,31.022 93.539,30.423C92.79,29.748 92.265,28.474 91.966,26.451C91.666,24.503 91.366,22.105 91.067,19.332C90.767,16.56 90.467,14.536 90.167,13.262C89.868,11.989 88.818,13.412 87.17,17.684C85.446,21.955 84.247,25.102 83.573,27.201C82.898,29.299 82.149,31.397 81.4,33.345C80.65,35.369 80.051,36.568 79.601,37.017C79.152,37.467 78.627,37.617 77.953,37.392C77.278,37.242 76.754,36.942 76.304,36.568C75.854,36.193 75.779,35.593 75.929,34.919C76.079,34.245 76.304,33.645 76.604,33.121C76.903,32.596 77.128,32.072 77.278,31.397C77.428,30.723 78.177,28.624 79.526,25.177C80.875,21.73 81.774,19.108 82.224,17.459C82.674,15.81 83.498,13.412 84.622,10.34C85.746,7.342 86.795,5.019 87.694,3.596Z" style="fill:rgb(0,41,87);fill-rule:nonzero;"/>
            <path id="Vector_6" d="M139.625,24.128C138.351,24.503 137.377,24.503 136.628,23.978C136.178,23.678 135.729,23.453 135.204,23.229C134.979,22.704 134.754,22.329 134.754,22.329C134.455,21.805 134.08,21.43 133.63,21.205C133.181,20.981 132.656,20.981 131.982,21.056C131.307,21.205 130.708,21.505 130.258,21.955C129.809,22.404 129.209,23.154 128.46,24.128C127.71,25.102 127.411,26.301 126.886,27.275C126.362,28.25 125.912,29.149 125.687,30.048C125.462,30.947 125.312,32.071 125.238,33.495C125.238,34.919 125.312,35.968 125.537,36.492C125.762,37.092 126.137,37.617 126.586,38.141C127.036,38.666 127.561,39.04 128.235,39.34C128.909,39.565 129.584,39.565 130.183,39.265C130.783,38.965 131.457,38.591 132.132,38.066C132.806,37.542 133.406,36.942 133.93,36.268C134.38,35.593 134.754,34.994 135.054,34.469C135.279,33.87 135.504,33.345 135.579,32.821C135.729,32.296 135.804,31.472 135.804,30.423L135.804,27.5C135.804,26.751 135.729,26.076 135.654,25.402C136.853,25.327 138.052,25.027 139.251,24.503C140.674,23.903 140.824,23.753 139.625,24.128ZM132.282,31.771C131.907,33.495 131.457,34.544 130.933,35.069C130.333,35.593 129.959,35.818 129.659,35.743C129.359,35.668 129.059,35.368 128.76,34.844C128.46,34.319 128.385,33.495 128.61,32.221C128.76,31.022 129.284,29.823 130.033,28.699C130.858,27.575 131.532,27.425 132.057,28.1C132.581,28.849 132.656,30.048 132.282,31.771Z" style="fill:rgb(0,41,87);fill-rule:nonzero;"/>
            <path id="Vector_7" d="M151.015,20.231C151.615,20.081 152.214,20.081 152.889,20.156C153.563,20.231 154.088,20.456 154.537,20.831C154.912,21.205 155.362,21.805 155.736,22.854C156.111,23.828 155.961,24.503 155.212,24.877C154.537,25.252 153.863,25.102 153.339,24.503C152.739,23.903 152.214,23.828 151.54,24.128C150.941,24.503 150.341,24.802 149.742,25.177C149.142,25.552 148.393,26.076 147.493,26.826C146.594,27.575 145.695,28.549 144.796,29.748C143.897,30.947 143.372,31.696 143.222,31.996C143.147,32.296 143.372,32.296 143.971,31.846C144.571,31.397 145.47,30.797 146.594,29.973C147.793,29.148 149.292,28.249 151.09,27.35C152.889,26.451 154.013,26.151 154.537,26.301C154.987,26.526 155.437,26.826 155.811,27.35C156.186,27.875 156.336,28.324 156.411,28.699C156.486,29.074 156.411,29.373 156.261,29.598C156.111,29.823 155.886,30.348 155.736,31.097C155.512,31.846 155.512,32.671 155.811,33.345C156.036,34.094 156.336,34.544 156.786,34.844C157.16,35.144 157.685,35.218 158.359,35.069C159.034,34.919 159.858,34.394 160.832,33.495C161.806,32.521 161.731,32.745 160.682,34.169C159.633,35.593 158.809,36.492 158.134,36.867C157.535,37.242 157.01,37.467 156.711,37.392C156.336,37.392 155.886,37.242 155.362,37.017C154.837,36.792 154.313,36.417 153.788,35.968C153.264,35.518 152.889,34.919 152.589,34.244C152.289,33.57 152.14,33.045 151.99,32.745C151.915,32.446 151.69,32.071 151.315,31.696C150.941,31.322 150.491,31.247 149.966,31.472C149.442,31.696 148.543,32.296 147.269,33.27C145.995,34.244 144.796,35.069 143.672,35.743C142.548,36.417 141.573,36.792 140.674,37.092C139.775,37.317 139.25,37.392 138.951,37.317C138.726,37.242 138.426,36.942 138.126,36.417C137.827,35.893 137.677,35.368 137.602,34.769C137.527,34.169 137.602,33.57 137.827,32.97C138.051,32.371 138.801,31.097 140.225,29.298C141.573,27.425 142.922,25.926 144.196,24.802C145.47,23.603 146.819,22.629 148.243,21.805C149.442,20.905 150.416,20.456 151.015,20.231Z" style="fill:rgb(0,41,87);fill-rule:nonzero;"/>
            <path id="Vector_8" d="M165.404,20.83C165.928,20.605 166.603,20.605 167.352,20.98C168.177,21.355 168.326,22.029 167.877,23.003C167.427,23.977 166.678,25.626 165.629,27.949C164.58,30.272 164.505,30.872 165.329,29.823C166.153,28.773 167.127,27.724 168.326,26.675C169.525,25.626 170.35,24.877 170.874,24.577C171.399,24.277 171.923,24.052 172.523,23.903C173.122,23.753 173.797,23.753 174.546,24.052C175.296,24.277 175.97,24.952 176.494,26.001C177.019,27.05 177.319,28.848 177.394,31.396C177.394,33.869 177.993,35.143 179.117,35.068C180.241,34.993 181.29,34.544 182.414,33.719C183.464,32.895 184.288,32.071 184.812,31.246C185.337,30.422 185.562,30.197 185.487,30.572C185.412,30.947 185.112,31.546 184.663,32.295C184.138,33.045 183.089,34.244 181.515,35.818C179.942,37.391 178.518,38.215 177.394,38.215C176.195,38.215 175.37,37.766 174.846,36.717C174.321,35.668 173.947,34.094 173.797,31.846C173.647,29.598 173.347,28.474 172.972,28.399C172.598,28.324 171.699,28.773 170.35,29.673C169.001,30.572 167.802,31.696 166.678,33.12C165.554,34.544 164.655,35.742 163.98,36.717C163.306,37.691 162.631,38.29 162.107,38.515C161.507,38.74 161.058,38.59 160.758,38.066C160.383,37.541 160.308,36.867 160.383,36.117C160.458,35.368 160.683,34.169 161.058,32.595C161.357,31.021 161.807,29.373 162.406,27.649C163.006,25.926 162.856,25.326 162.032,25.926C161.133,26.525 160.083,27.425 158.884,28.624C157.61,29.823 158.06,29.298 160.233,26.9C162.332,24.502 163.53,23.153 163.755,22.779C163.98,22.404 164.205,22.029 164.43,21.729C164.505,21.355 164.879,21.13 165.404,20.83Z" style="fill:rgb(0,41,87);fill-rule:nonzero;"/>
            <path id="Vector_9" d="M194.329,20.231C194.929,20.081 195.528,20.081 196.203,20.156C196.877,20.231 197.402,20.456 197.851,20.831C198.226,21.205 198.676,21.805 199.05,22.854C199.425,23.828 199.275,24.503 198.526,24.877C197.851,25.252 197.177,25.102 196.652,24.503C196.053,23.903 195.528,23.828 194.854,24.128C194.255,24.503 193.655,24.802 193.056,25.177C192.456,25.552 191.707,26.076 190.807,26.826C189.908,27.575 189.009,28.549 188.11,29.748C187.21,30.947 186.686,31.696 186.536,31.996C186.461,32.296 186.686,32.296 187.285,31.846C187.885,31.397 188.784,30.797 189.908,29.973C191.107,29.148 192.606,28.249 194.404,27.35C196.203,26.451 197.327,26.151 197.851,26.301C198.301,26.526 198.751,26.826 199.125,27.35C199.5,27.875 199.65,28.324 199.725,28.699C199.8,29.074 199.725,29.373 199.575,29.598C199.425,29.823 199.2,30.348 199.05,31.097C198.826,31.846 198.826,32.671 199.125,33.345C199.35,34.094 199.65,34.544 200.1,34.844C200.474,35.144 200.999,35.218 201.673,35.069C202.348,34.919 203.172,34.394 204.146,33.495C205.12,32.521 205.045,32.745 203.996,34.169C202.947,35.593 202.123,36.492 201.448,36.867C200.849,37.242 200.324,37.467 200.025,37.392C199.65,37.392 199.2,37.242 198.676,37.017C198.151,36.792 197.627,36.417 197.102,35.968C196.578,35.518 196.203,34.919 195.903,34.244C195.603,33.57 195.453,33.045 195.304,32.745C195.229,32.446 195.004,32.071 194.629,31.696C194.255,31.322 193.805,31.247 193.28,31.472C192.756,31.696 191.857,32.296 190.583,33.27C189.309,34.244 188.11,35.069 186.986,35.743C185.862,36.417 184.887,36.792 183.988,37.092C183.089,37.317 182.564,37.392 182.265,37.317C182.04,37.242 181.74,36.942 181.44,36.417C181.141,35.893 180.991,35.368 180.916,34.769C180.841,34.169 180.916,33.57 181.141,32.97C181.365,32.371 182.115,31.097 183.539,29.298C184.887,27.425 186.236,25.926 187.51,24.802C188.784,23.603 190.133,22.629 191.557,21.805C192.756,20.905 193.73,20.456 194.329,20.231Z" style="fill:rgb(0,41,87);fill-rule:nonzero;"/>
        </g>
    </g>
</svg>
