<?xml version="1.0" encoding="UTF-8" standalone="no"?><!DOCTYPE svg PUBLIC "-//W3C//DTD SVG 1.1//EN" "http://www.w3.org/Graphics/SVG/1.1/DTD/svg11.dtd"><svg width="100%" height="100%" viewBox="0 0 136 132" version="1.1" xmlns="http://www.w3.org/2000/svg" xmlns:xlink="http://www.w3.org/1999/xlink" xml:space="preserve" xmlns:serif="http://www.serif.com/" style="fill-rule:evenodd;clip-rule:evenodd;stroke-linejoin:round;stroke-miterlimit:2;"><path d="M84.097,0c-36.299,0 -73.078,29.344 -82.151,65.544c2.407,3.614 19.825,7.409 33.142,8.539c66.977,-74.545 112.226,-62.565 83.57,-10.301c-1.001,1.83 -2.073,3.218 -3.096,4.936c9.33,-1.809 17.324,-4.574 18.281,-5.186c7.915,-35.37 -14.048,-63.532 -49.746,-63.532Zm-42.34,74.876c17.194,2.08 30.914,-0.342 40.389,-1.825c5.34,-5.747 11.083,-12.234 14.777,-17.321c28.774,-39.712 -4.461,-35.129 -55.166,19.146Z" style="fill:#cab999;fill-rule:nonzero;"/><path d="M29.427,117.864c0,0 21.361,-10.943 41.854,-32.701c-13.952,1.958 -23.596,1.943 -38.64,-0.293c-15.391,21.523 -18.854,15.469 -18.854,15.469c3.284,-3.904 10.214,-13.218 12.873,-16.404c-6.937,-1.678 -21.114,-5.172 -26.199,-10.923c-3.907,32.202 17.352,58.065 50.774,58.065c35.194,0 70.844,-27.586 81.248,-62.252c-4.845,2.508 -10.747,5.895 -21.932,8.576c-42.895,61.086 -81.124,40.463 -81.124,40.463Z" style="fill:#004886;fill-rule:nonzero;"/></svg>