<?xml version="1.0" encoding="UTF-8" standalone="no"?>
<!DOCTYPE svg PUBLIC "-//W3C//DTD SVG 1.1//EN" "http://www.w3.org/Graphics/SVG/1.1/DTD/svg11.dtd">
<svg width="100%" height="100%" viewBox="0 0 117 224" version="1.1" xmlns="http://www.w3.org/2000/svg" xmlns:xlink="http://www.w3.org/1999/xlink" xml:space="preserve" xmlns:serif="http://www.serif.com/" style="fill-rule:evenodd;clip-rule:evenodd;">
    <g transform="matrix(4.166667,0,0,4.166667,0,0)">
        <g id="Group-85" transform="matrix(1,0,0,1,-0.000389,-0.46709)">
            <path id="Fill-37" d="M14.789,49.476C14.789,49.866 15.182,49.848 15.519,49.848C15.82,49.848 15.988,49.773 16.082,49.532L16.263,48.896L14.845,49.01C14.845,49.253 14.789,49.271 14.789,49.476M12.777,48.374C12.777,48.635 12.146,49.196 11.883,49.196C11.752,49.196 11.284,49.141 11.284,48.955C11.284,48.49 11.477,47.972 11.571,47.656C11.609,47.544 11.892,47.902 12.185,48.069C12.475,48.235 12.777,48.207 12.777,48.374M20.244,0.467C20.979,0.467 20.589,0.616 21.594,0.467L21.594,1.062C20.604,2.968 18.745,13.402 18.745,15.502L18.745,20.86L19.794,29.941L19.794,32.769C19.794,34.139 19.105,35.642 17.695,36.193C17.425,35.374 17.245,33.737 17.545,33.365L16.945,33.365C16.795,34.109 16.585,36.044 16.945,36.491C16.15,36.491 15.849,36.73 15.069,36.73C13.749,36.73 14.428,33.64 13.213,32.91L13.046,34.555C13.121,34.809 13.496,36.193 13.496,36.639C13.496,37.473 12.281,36.848 11.997,38.277L11.397,38.277C10.947,37.83 10.344,37.025 9.64,36.936C10.18,37.62 10.947,38.56 10.947,39.022C10.947,39.32 9.897,40.212 9.597,40.212C9.282,40.212 8.784,39.862 8.334,39.937C9.338,40.324 9.342,40.495 9.747,40.956L9.747,41.701C6.718,41.894 7.273,42.236 6.598,41.701L6.598,42.296L9.447,42.296C9.672,42.638 10.047,44.083 10.047,44.083C10.047,44.648 8.833,44.723 8.097,45.72C9.376,45.72 9.489,45.611 9.611,45.602C9.68,45.596 9.752,45.622 10.047,45.72C10.068,45.734 10.732,46.789 11.593,47.547C11.692,47.634 11.787,47.38 11.891,47.466C12.147,47.682 12.728,47.775 12.974,48.004C13.067,48.09 12.807,48.35 12.908,48.417C13.52,48.822 14.209,48.995 14.696,48.995C14.696,48.995 14.711,48.787 16.345,48.25C16.345,48.474 16.315,48.623 16.345,48.846C17.32,48.906 17.8,48.369 18.745,48.102C17.41,49.427 16.211,49.576 16.195,49.59C15.811,49.971 15.945,49.649 14.996,49.888C11.937,49.487 11.997,49.292 11.997,49.292C11.798,49.292 11.247,49.027 11.247,48.995L8.097,45.869C7.618,46.152 7.663,45.735 7.948,45.571C6.936,42.954 6.136,41.109 5.447,40.074C3.787,37.577 2.822,38.639 1.462,36.662C1.068,36.09 0.932,35.257 0.45,34.258L0.45,33.513C2.085,34.586 3.042,35.162 4.073,35.025C0.234,32.495 0,31.172 0,29.494L0,27.559C1.98,29.122 3.074,30.609 4.273,30.907C4.273,30.907 0.45,27.306 0.45,25.624C0.45,24.374 0.3,24.016 0.75,23.391L5.31,27.521C4.411,26.181 1.649,22.052 1.649,21.009C1.649,20.592 2.295,19.521 2.699,19.223C2.939,19.744 5.466,23.153 6.891,23.496C6.861,23.451 3.299,17.898 3.299,16.842C3.299,16.842 3.944,15.16 4.498,14.608C6.223,17.467 7.324,19.885 8.884,20.153C7.744,18.724 5.548,13.79 5.548,12.524C5.548,12.524 5.908,10.902 7.348,10.292C7.408,10.768 9.716,16.476 10.945,16.878C10.766,16.416 8.397,10.128 8.397,8.654C8.397,8.654 9.147,7.285 10.647,6.272C10.932,6.749 12.315,13.948 13.695,14.559C13.545,13.948 13.062,10.426 13.046,9.994C12.897,6.496 13.046,5.796 13.046,3.742L15.746,1.956C15.911,2.953 15.206,8.623 16.1,12.853C16.788,11.928 16.375,7.054 17.337,4.188C18.068,2.011 18.354,0.467 20.244,0.467" style="fill:rgb(0,96,171);"/>
            <path id="Fill-39" d="M11.014,42.883C11.014,40.509 12.952,38.585 15.344,38.585C17.735,38.585 19.674,40.509 19.674,42.883C19.674,45.256 17.735,47.18 15.344,47.18C12.952,47.18 11.014,45.256 11.014,42.883" style="fill:rgb(226,67,42);"/>
            <path id="Stroke-41" d="M11.014,42.883C11.014,40.509 12.952,38.585 15.344,38.585C17.735,38.585 19.674,40.509 19.674,42.883C19.674,45.256 17.735,47.18 15.344,47.18C12.952,47.18 11.014,45.256 11.014,42.883Z" style="fill:none;stroke:rgb(226,67,42);stroke-width:0.17px;"/>
            <path id="Fill-43" d="M19.924,39.428C20.018,39.428 20.074,39.354 20.13,39.279C20.355,39.001 20.468,38.758 20.581,38.405C20.637,38.2 20.786,38.2 20.88,38.033C20.955,37.884 21.105,37.828 21.199,37.736C21.311,37.624 21.293,37.4 21.33,37.307C21.405,37.158 21.761,36.768 21.855,36.675C22.192,36.34 22.249,36.172 22.492,35.689C22.867,34.944 23.223,34.646 23.617,33.865C23.336,34.088 23.204,34.181 22.867,34.367C22.567,34.535 22.549,34.795 22.38,35.018C22.23,35.224 22.061,35.316 21.799,35.409C21.424,35.558 20.805,36.395 20.561,36.637C20.055,37.14 19.512,37.363 19.062,37.921C18.95,38.07 18.725,38.089 18.725,38.275C18.725,38.424 18.95,38.517 19.006,38.554C19.306,38.777 19.362,39.428 19.924,39.428" style="fill:rgb(226,67,42);"/>
            <path id="Stroke-45" d="M19.924,39.428C20.018,39.428 20.074,39.354 20.13,39.279C20.355,39.001 20.468,38.758 20.581,38.405C20.637,38.2 20.786,38.2 20.88,38.033C20.955,37.884 21.105,37.828 21.199,37.736C21.311,37.624 21.293,37.4 21.33,37.307C21.405,37.158 21.761,36.768 21.855,36.675C22.192,36.34 22.249,36.172 22.492,35.689C22.867,34.944 23.223,34.646 23.617,33.865C23.336,34.088 23.204,34.181 22.867,34.367C22.567,34.535 22.549,34.795 22.38,35.018C22.23,35.224 22.061,35.316 21.799,35.409C21.424,35.558 20.805,36.395 20.561,36.637C20.055,37.14 19.512,37.363 19.062,37.921C18.95,38.07 18.725,38.089 18.725,38.275C18.725,38.424 18.95,38.517 19.006,38.554C19.306,38.777 19.362,39.428 19.924,39.428Z" style="fill:none;stroke:rgb(226,67,42);stroke-width:0.17px;"/>
            <path id="Fill-47" d="M20.618,40.396C20.618,40.619 20.524,40.693 20.524,40.88C20.524,40.935 21.011,41.382 21.124,41.382C21.723,41.382 22.305,40.898 22.754,40.675C22.886,40.619 23.204,40.582 23.392,40.563C23.841,40.507 23.992,40.284 24.329,40.117C24.966,39.8 26.091,39.577 26.634,39.038C26.841,38.833 27.103,38.889 27.253,38.665C27.16,38.647 27.103,38.665 27.01,38.665C26.691,38.665 26.335,38.796 25.997,38.851L25.547,38.851C25.266,38.944 24.929,38.963 24.629,39.001C23.973,39.093 23.729,39.372 23.073,39.651C22.529,39.875 22.305,39.949 21.705,40.117C21.293,40.228 20.88,40.117 20.655,40.34L20.618,40.396Z" style="fill:rgb(226,67,42);"/>
            <path id="Stroke-49" d="M20.618,40.396C20.618,40.619 20.524,40.693 20.524,40.88C20.524,40.935 21.011,41.382 21.124,41.382C21.723,41.382 22.305,40.898 22.754,40.675C22.886,40.619 23.204,40.582 23.392,40.563C23.841,40.507 23.992,40.284 24.329,40.117C24.966,39.8 26.091,39.577 26.634,39.038C26.841,38.833 27.103,38.889 27.253,38.665C27.16,38.647 27.103,38.665 27.01,38.665C26.691,38.665 26.335,38.796 25.997,38.851L25.547,38.851C25.266,38.944 24.929,38.963 24.629,39.001C23.973,39.093 23.729,39.372 23.073,39.651C22.529,39.875 22.305,39.949 21.705,40.117C21.293,40.228 20.88,40.117 20.655,40.34L20.618,40.396Z" style="fill:none;stroke:rgb(226,67,42);stroke-width:0.17px;"/>
            <path id="Fill-51" d="M20.88,43.261C20.88,43.875 20.505,44.099 20.505,44.601C20.505,44.62 20.862,44.787 20.917,44.787C20.917,44.787 21.33,44.713 21.386,44.713L22.567,44.713L23.392,44.88L24.666,44.731C25.097,44.842 25.398,44.749 25.847,44.824L26.316,44.824L27.159,44.917L27.684,44.787C27.159,44.47 26.709,44.601 26.185,44.34C25.903,44.21 25.866,43.95 25.641,43.801C25.454,43.689 25.285,43.745 25.06,43.745C24.46,43.745 23.972,43.633 23.523,43.522C22.455,43.224 21.724,43 20.88,42.647C20.768,42.87 20.88,43.038 20.88,43.261" style="fill:rgb(226,67,42);"/>
            <path id="Stroke-53" d="M20.88,43.261C20.88,43.875 20.505,44.099 20.505,44.601C20.505,44.62 20.862,44.787 20.917,44.787C20.917,44.787 21.33,44.713 21.386,44.713L22.567,44.713L23.392,44.88L24.666,44.731C25.097,44.842 25.398,44.749 25.847,44.824L26.316,44.824L27.159,44.917L27.684,44.787C27.159,44.47 26.709,44.601 26.185,44.34C25.903,44.21 25.866,43.95 25.641,43.801C25.454,43.689 25.285,43.745 25.06,43.745C24.46,43.745 23.972,43.633 23.523,43.522C22.455,43.224 21.724,43 20.88,42.647C20.768,42.87 20.88,43.038 20.88,43.261Z" style="fill:none;stroke:rgb(226,67,42);stroke-width:0.17px;"/>
            <path id="Fill-55" d="M19.831,45.68C19.587,46.089 19.399,46.257 19.118,46.611C19.025,46.722 18.818,46.833 18.818,47.057C18.818,47.168 19.062,47.15 19.1,47.168C19.437,47.336 19.756,47.504 20.037,47.727C20.468,48.061 20.693,48.359 21.105,48.601C21.611,48.899 21.63,49.289 22.136,49.457C22.492,49.568 23.036,49.811 23.129,50.071C23.654,50.48 24.16,50.871 24.76,51.168L24.948,51.168C24.948,51.039 24.741,50.889 24.723,50.853C24.329,50.35 24.067,50.294 23.786,49.736C23.467,49.103 22.905,48.936 22.511,48.415C22.136,47.913 21.63,47.597 21.161,47.131C20.693,46.666 20.599,45.81 19.887,45.624C19.868,45.68 19.868,45.717 19.887,45.773L19.831,45.68Z" style="fill:rgb(226,67,42);"/>
            <path id="Stroke-57" d="M19.831,45.68C19.587,46.089 19.399,46.257 19.118,46.611C19.025,46.722 18.818,46.833 18.818,47.057C18.818,47.168 19.062,47.15 19.1,47.168C19.437,47.336 19.756,47.504 20.037,47.727C20.468,48.061 20.693,48.359 21.105,48.601C21.611,48.899 21.63,49.289 22.136,49.457C22.492,49.568 23.036,49.811 23.129,50.071C23.654,50.48 24.16,50.871 24.76,51.168L24.948,51.168C24.948,51.039 24.741,50.889 24.723,50.853C24.329,50.35 24.067,50.294 23.786,49.736C23.467,49.103 22.905,48.936 22.511,48.415C22.136,47.913 21.63,47.597 21.161,47.131C20.693,46.666 20.599,45.81 19.887,45.624C19.868,45.68 19.868,45.717 19.887,45.773L19.831,45.68Z" style="fill:none;stroke:rgb(226,67,42);stroke-width:0.17px;"/>
            <path id="Fill-59" d="M7.998,45.482C7.623,45.575 7.342,45.836 7.285,46.263C7.585,46.17 7.998,46.096 7.998,45.816C7.998,45.686 7.96,45.612 7.998,45.482" style="fill:rgb(226,67,42);"/>
            <path id="Stroke-61" d="M7.998,45.482C7.623,45.575 7.342,45.836 7.285,46.263C7.585,46.17 7.998,46.096 7.998,45.816C7.998,45.686 7.96,45.612 7.998,45.482Z" style="fill:none;stroke:rgb(226,67,42);stroke-width:0.12px;"/>
            <path id="Fill-63" d="M11.146,48.98C10.865,49.891 10.434,50.654 10.284,51.622C10.566,51.566 10.659,51.547 10.846,51.399C11.109,51.194 11.071,50.896 11.184,50.617C11.372,50.133 11.709,49.91 11.896,49.538C11.934,49.445 11.934,49.352 11.934,49.24C11.934,49.203 11.146,48.98 11.146,48.98" style="fill:rgb(226,67,42);"/>
            <path id="Stroke-65" d="M11.146,48.98C10.865,49.891 10.434,50.654 10.284,51.622C10.566,51.566 10.659,51.547 10.846,51.399C11.109,51.194 11.071,50.896 11.184,50.617C11.372,50.133 11.709,49.91 11.896,49.538C11.934,49.445 11.934,49.352 11.934,49.24C11.934,49.203 11.146,48.98 11.146,48.98Z" style="fill:none;stroke:rgb(226,67,42);stroke-width:0.12px;"/>
            <path id="Fill-67" d="M14.933,49.91C14.933,51.473 15.495,52.329 15.495,53.892C15.945,53.668 15.87,52.849 15.87,52.366L15.87,49.947L15.045,49.947L14.933,49.91Z" style="fill:rgb(226,67,42);"/>
            <path id="Stroke-69" d="M14.933,49.91C14.933,51.473 15.495,52.329 15.495,53.892C15.945,53.668 15.87,52.849 15.87,52.366L15.87,49.947L15.045,49.947L14.933,49.91Z" style="fill:none;stroke:rgb(226,67,42);stroke-width:0.12px;"/>
        </g>
    </g>
</svg>
