<?xml version="1.0" encoding="UTF-8" standalone="no"?>
<!DOCTYPE svg PUBLIC "-//W3C//DTD SVG 1.1//EN" "http://www.w3.org/Graphics/SVG/1.1/DTD/svg11.dtd">
<svg width="100%" height="100%" viewBox="0 0 984 946" version="1.1" xmlns="http://www.w3.org/2000/svg" xmlns:xlink="http://www.w3.org/1999/xlink" xml:space="preserve" xmlns:serif="http://www.serif.com/" style="fill-rule:evenodd;clip-rule:evenodd;stroke-linejoin:round;stroke-miterlimit:2;">
    <g transform="matrix(4.166667,0,0,4.166667,0,0)">
        <g id="g1729" transform="matrix(5.944491,0,0,-5.944491,232.41609,145.358605)">
            <path id="path1731" d="M0,0C-0.712,1.154 -1.198,1.706 -1.482,1.952C-2.808,3.098 -4.065,3.582 -5.101,4.032C-5.281,4.111 -5.501,4.203 -5.94,4.39C-8.594,5.52 -10.647,5.709 -11.977,5.78L-11.978,5.78C-12.464,5.806 -13.155,5.732 -13.456,5.69C-13.611,5.668 -13.813,5.641 -14.051,5.549C-14.172,5.503 -14.339,5.432 -14.53,5.327C-14.414,5.415 -14.241,5.534 -14.016,5.644C-13.703,5.796 -13.495,5.849 -13.495,5.849L-13.463,5.858C-13.461,5.854 -9.214,6.952 -5.042,9.309C-2.854,10.544 -1.031,11.575 -1.173,12.694C-1.323,13.873 -3.617,14.868 -5.528,14.703C-6.238,14.642 -6.75,14.434 -7.291,14.212C-8.627,13.667 -8.959,13.148 -11.033,11.54C-12.888,10.102 -13.31,9.984 -14.24,8.964C-14.846,8.3 -15.41,7.394 -15.541,7.262C-15.673,7.13 -16.183,6.697 -16.044,6.458C-15.985,6.357 -15.763,6.372 -15.577,6.168C-15.514,6.099 -15.388,5.809 -15.28,5.728C-15.123,5.578 -15.045,5.663 -15.003,5.515C-14.982,5.441 -15.042,5.375 -15.005,5.272C-14.962,5.149 -14.952,5.151 -14.908,5.032C-14.892,4.986 -14.915,4.856 -14.995,4.789C-15.082,4.716 -15.224,4.78 -15.416,4.657C-15.523,4.589 -15.575,4.493 -15.577,4.364C-15.578,4.279 -15.534,4.147 -15.384,4.099C-15.384,4.099 -15.328,4.088 -15.081,4.033C-14.775,3.967 -14.53,3.642 -14.461,3.544C-14.452,3.531 -14.445,3.522 -14.444,3.52C-12.361,0.462 -4.205,-2.092 -4.205,-2.092C-3.831,-2.23 -0.314,-3.18 0.497,-1.971C0.814,-1.388 0.251,-0.406 0,0" style="fill:rgb(91,198,204);fill-rule:nonzero;"/>
        </g>
        <g id="g1733" transform="matrix(5.944491,0,0,-5.944491,155.511026,137.001245)">
            <path id="path1735" d="M0,0C-0.252,0.579 -0.406,0.778 -0.564,0.929C-0.791,1.146 -0.952,1.192 -1.183,1.433C-1.202,1.457 -1.221,1.48 -1.241,1.505C-1.37,1.659 -1.412,1.746 -1.614,1.973C-1.721,2.094 -1.799,2.181 -1.869,2.248C-1.946,2.325 -2.011,2.378 -2.087,2.416C-2.278,2.511 -2.546,2.554 -2.799,2.49C-3.063,2.425 -3.151,2.281 -3.323,2.333C-3.443,2.37 -3.446,2.448 -3.593,2.548C-3.815,2.699 -3.965,2.659 -4.172,2.732C-4.43,2.823 -4.613,3.171 -4.675,3.419C-4.754,3.735 -4.757,3.997 -4.612,4.288C-4.544,4.425 -4.415,4.589 -4.31,4.671C-4.174,4.779 -3.948,4.872 -3.783,4.912C-3.66,4.943 -3.543,5.02 -3.477,5.129C-3.425,5.216 -3.428,5.302 -3.38,5.409C-3.373,5.423 -3.328,5.519 -3.251,5.615C-3.123,5.775 -3.021,5.791 -2.833,5.943C-2.75,6.01 -2.695,6.07 -2.586,6.189C-2.032,6.791 -1.351,8.239 -1.351,8.239C-1.165,8.703 -0.87,9.42 -0.476,10.28C1.177,13.897 1.842,14.12 2.308,15.961C2.509,16.753 3.031,18.944 2.002,21.164C1.616,21.997 1.122,22.595 0.762,22.972C0.713,23.022 0.609,23.052 0.517,23.046C0.517,23.046 0.348,23.045 0.143,22.875C-1.663,21.372 -3.32,16.808 -3.32,16.808C-4.361,13.94 -4.83,13.001 -5.356,10.878C-5.629,9.775 -5.863,8.57 -5.527,7.177C-5.336,6.383 -5.008,5.725 -5.032,5.702C-5.185,5.919 -5.816,7.232 -6.43,8.64C-6.825,9.545 -6.912,9.818 -7.458,11.137C-7.765,11.881 -8.05,12.568 -8.646,13.931C-10.789,18.832 -11.534,19.764 -12.056,20.334C-12.798,21.142 -13.535,21.925 -14.416,21.81C-15.622,21.651 -16.227,19.92 -16.316,19.666C-16.416,19.38 -16.481,19.096 -16.517,18.817C-16.716,17.327 -16.11,15.995 -15.831,15.382C-15.744,15.19 -15.642,15.003 -15.517,14.801C-15.242,14.357 -14.853,13.843 -14.26,13.059C-13.436,11.967 -11.988,10.221 -11.446,9.659C-11.379,9.589 -11.146,9.342 -10.87,8.978C-10.802,8.886 -10.734,8.785 -10.632,8.628C-10.456,8.355 -10.257,8.041 -10.014,7.715C-9.703,7.295 -9.32,6.855 -8.82,6.46C-8.21,5.978 -7.589,5.664 -7.15,5.475C-7.64,5.66 -8.479,5.996 -9.817,6.584C-11.109,7.152 -12.549,7.785 -14.41,8.732C-16.827,9.962 -18.78,11.124 -21.227,11.951C-21.296,11.975 -22.31,12.308 -23.671,12.307C-24.357,12.306 -25.074,12.299 -25.544,12.036C-25.707,11.949 -25.843,11.834 -25.939,11.678C-26.617,10.583 -25.578,9.03 -24.975,8.142C-24.167,6.951 -23.21,5.907 -22.029,5.076C-19.452,3.263 -16.285,2.453 -13.221,1.929C-9.826,1.349 -7.38,1.82 -7.363,1.825C-7.343,1.83 -6.578,2.015 -6.581,2.032C-6.581,2.034 -6.562,1.883 -6.76,1.825C-7.191,1.698 -7.222,1.675 -7.416,1.634C-8.069,1.497 -8.448,1.324 -9.881,0.651C-10.471,0.411 -11.278,0.079 -12.43,-0.401C-14.961,-1.457 -14.993,-1.527 -16.187,-2.198C-18.504,-3.501 -18.912,-3.939 -19.272,-4.225C-20.267,-5.016 -21.905,-6.975 -21.97,-8.412C-21.986,-8.749 -21.866,-8.874 -21.667,-9.058C-20.734,-9.919 -18.711,-9.87 -17.934,-9.831C-15.326,-9.697 -13.976,-8.975 -12.874,-8.333C-11.748,-7.679 -10.681,-6.849 -10.501,-6.709C-10.142,-6.429 -9.844,-6.179 -8.966,-5.397C-8.508,-4.99 -7.303,-3.798 -6.867,-3.342C-5.016,-1.41 -4.949,-1.07 -4.656,-0.678C-4.626,-0.636 -4.596,-0.596 -4.57,-0.558C-4.468,-0.414 -4.374,-0.254 -4.103,0.084C-3.93,0.3 -3.772,0.563 -3.76,0.595C-3.763,0.559 -3.791,0.251 -3.986,-0.039C-4.047,-0.129 -4.08,-0.198 -4.142,-0.279C-4.249,-0.421 -4.42,-0.743 -4.571,-1.047C-5.072,-2.062 -4.965,-2.661 -4.892,-2.976C-4.174,-6.068 -3.669,-10.655 -0.905,-13.639C0.189,-14.819 1.347,-15.44 2.507,-14.97C2.81,-14.847 3.273,-12.91 3.369,-10.18C3.496,-6.541 1.451,-3.213 0.395,-1.049C0.299,-0.747 0.169,-0.388 0,0" style="fill:rgb(91,198,204);fill-rule:nonzero;"/>
        </g>
    </g>
</svg>
