<?xml version="1.0" encoding="UTF-8" standalone="no"?>
<!DOCTYPE svg PUBLIC "-//W3C//DTD SVG 1.1//EN" "http://www.w3.org/Graphics/SVG/1.1/DTD/svg11.dtd">
<svg width="100%" height="100%" viewBox="0 0 339 434" version="1.1" xmlns="http://www.w3.org/2000/svg" xmlns:xlink="http://www.w3.org/1999/xlink" xml:space="preserve" xmlns:serif="http://www.serif.com/" style="fill-rule:evenodd;clip-rule:evenodd;stroke-miterlimit:3.864;">
    <g transform="matrix(4.166667,0,0,4.166667,0,0)">
        <g transform="matrix(1,0,0,1,-42.108028,-3.835126)">
            <path d="M107.21,68.787L107.045,68.907C107.045,68.907 93.445,72.657 84.738,71.642C78.621,70.926 69.574,67.234 69.574,67.234C69.574,67.234 79.564,70.184 86.149,70.672C94.373,71.282 107.209,68.787 107.209,68.787L107.21,68.787Z" style="fill:none;fill-rule:nonzero;stroke:rgb(8,80,157);stroke-width:0.34px;"/>
        </g>
        <g transform="matrix(1,0,0,1,-42.108028,-3.835126)">
            <circle cx="52.64" cy="63.109" r="0.698" style="fill:rgb(8,80,157);"/>
        </g>
        <g transform="matrix(1,0,0,1,-42.108028,-3.835126)">
            <path d="M61.29,75.015C61.29,75.015 55.454,77.69 53.39,80.94C49.187,87.555 58.107,100.47 58.107,100.47C58.107,100.47 53.439,88.875 56.132,82.256C57.438,79.046 61.289,75.016 61.289,75.016L61.29,75.015Z" style="fill:rgb(8,80,157);"/>
        </g>
        <g transform="matrix(1,0,0,1,-42.108028,-3.835126)">
            <path d="M61.29,75.015C61.29,75.015 55.454,77.69 53.39,80.94C49.187,87.555 58.107,100.47 58.107,100.47C58.107,100.47 53.439,88.875 56.132,82.256C57.438,79.046 61.289,75.016 61.289,75.016L61.29,75.015Z" style="fill:none;fill-rule:nonzero;stroke:rgb(8,80,157);stroke-width:0.26px;"/>
        </g>
        <g transform="matrix(1,0,0,1,-42.108028,-3.835126)">
            <path d="M121.748,9.507C121.748,9.507 89.048,25.527 79.723,41.877C75.873,48.625 84.313,56.004 79.126,61.787C75.772,65.529 67.306,66.917 67.306,66.917C67.306,66.917 79.599,66.737 83.338,61.263C87.073,55.793 80.335,50.44 82.795,44.291C88.939,28.931 121.748,9.508 121.748,9.508L121.748,9.507Z" style="fill:rgb(8,80,157);"/>
        </g>
        <g transform="matrix(1,0,0,1,-42.108028,-3.835126)">
            <path d="M121.748,9.507C121.748,9.507 89.048,25.527 79.723,41.877C75.873,48.625 84.313,56.004 79.126,61.787C75.772,65.529 67.306,66.917 67.306,66.917C67.306,66.917 79.599,66.737 83.338,61.263C87.073,55.793 80.335,50.44 82.795,44.291C88.939,28.931 121.748,9.508 121.748,9.508L121.748,9.507Z" style="fill:none;fill-rule:nonzero;stroke:rgb(8,80,157);stroke-width:0.26px;"/>
        </g>
        <g transform="matrix(1,0,0,1,-42.108028,-3.835126)">
            <path d="M45.946,66.088C45.946,66.088 49.6,65.261 51.942,65.468C57.692,65.983 58.926,71.582 64.362,73.533C72.029,76.285 77.7,70.795 85.248,73.861C91.495,76.4 98.58,84.868 98.58,84.868L98.633,84.985C98.633,84.985 90.27,76.685 83.356,74.945C76.516,73.223 72.07,78.563 65.333,76.475C59.133,74.553 58.475,67.67 52.118,66.352C49.76,65.865 45.946,66.09 45.946,66.09L45.946,66.088Z" style="fill:rgb(8,80,157);"/>
        </g>
        <g transform="matrix(1,0,0,1,-42.108028,-3.835126)">
            <path d="M45.946,66.088C45.946,66.088 49.6,65.261 51.942,65.468C57.692,65.983 58.926,71.582 64.362,73.533C72.029,76.285 77.7,70.795 85.248,73.861C91.495,76.4 98.58,84.868 98.58,84.868L98.633,84.985C98.633,84.985 90.27,76.685 83.356,74.945C76.516,73.223 72.07,78.563 65.333,76.475C59.133,74.553 58.475,67.67 52.118,66.352C49.76,65.865 45.946,66.09 45.946,66.09L45.946,66.088Z" style="fill:none;fill-rule:nonzero;stroke:rgb(8,80,157);stroke-width:0.26px;"/>
        </g>
        <g transform="matrix(1,0,0,1,-42.108028,-3.835126)">
            <path d="M122.735,4.352C122.735,4.352 74.145,21.64 63.483,40.89C60.449,46.366 69.546,49.894 68.289,55.916C67.712,58.674 67.329,60.566 65.254,62.473C61.236,66.163 55.989,58.295 51.328,61.131C50.134,61.859 48.588,63.444 48.588,63.444C48.588,63.444 51.066,61.999 52.822,61.602C57.716,60.496 60.322,67.476 65.015,65.705C69.509,64.008 71.002,60.033 71.545,55.262C72.148,49.936 63.311,46.975 66.33,42.546C78.086,25.289 122.733,4.354 122.733,4.354L122.735,4.352Z" style="fill:rgb(8,80,157);"/>
        </g>
        <g transform="matrix(1,0,0,1,-42.108028,-3.835126)">
            <path d="M122.735,4.352C122.735,4.352 74.145,21.64 63.483,40.89C60.449,46.366 69.546,49.894 68.289,55.916C67.712,58.674 67.329,60.566 65.254,62.473C61.236,66.163 55.989,58.295 51.328,61.131C50.134,61.859 48.588,63.444 48.588,63.444C48.588,63.444 51.066,61.999 52.822,61.602C57.716,60.496 60.322,67.476 65.015,65.705C69.509,64.008 71.002,60.033 71.545,55.262C72.148,49.936 63.311,46.975 66.33,42.546C78.086,25.289 122.733,4.354 122.733,4.354L122.735,4.352Z" style="fill:none;fill-rule:nonzero;stroke:rgb(8,80,157);stroke-width:0.26px;"/>
        </g>
        <g transform="matrix(1,0,0,1,-42.108028,-3.835126)">
            <path d="M59.844,71.264C59.844,71.264 43.124,75.112 42.641,83.282C42.301,89.03 47.431,90.928 50.058,96.052C52.293,100.41 55.286,107.469 55.286,107.469C55.286,107.469 53.473,100.136 51.743,95.643C49.93,90.935 45.869,89.017 46.143,83.98C46.538,76.7 59.845,71.264 59.845,71.264L59.844,71.264Z" style="fill:rgb(8,80,157);"/>
        </g>
        <g transform="matrix(1,0,0,1,-42.108028,-3.835126)">
            <path d="M59.844,71.264C59.844,71.264 43.124,75.112 42.641,83.282C42.301,89.03 47.431,90.928 50.058,96.052C52.293,100.41 55.286,107.469 55.286,107.469C55.286,107.469 53.473,100.136 51.743,95.643C49.93,90.935 45.869,89.017 46.143,83.98C46.538,76.7 59.845,71.264 59.845,71.264L59.844,71.264Z" style="fill:none;fill-rule:nonzero;stroke:rgb(8,80,157);stroke-width:0.26px;"/>
        </g>
        <g transform="matrix(1,0,0,1,-42.108028,-3.835126)">
            <path d="M122.406,6.106C122.406,6.106 81.04,24.21 69.628,42.536C66.48,47.59 76.113,52.053 74.098,57.998C72.651,62.266 66.226,66.455 66.226,66.455C66.226,66.455 74.396,64.779 77.418,60.971C81.94,55.267 74.468,47.189 76.87,42.318C84.44,26.956 122.406,6.108 122.406,6.108L122.406,6.106Z" style="fill:rgb(40,168,224);"/>
        </g>
        <g transform="matrix(1,0,0,1,-42.108028,-3.835126)">
            <path d="M122.406,6.106C122.406,6.106 81.04,24.21 69.628,42.536C66.48,47.59 76.113,52.053 74.098,57.998C72.651,62.266 66.226,66.455 66.226,66.455C66.226,66.455 74.396,64.779 77.418,60.971C81.94,55.267 74.468,47.189 76.87,42.318C84.44,26.956 122.406,6.108 122.406,6.108L122.406,6.106Z" style="fill:none;fill-rule:nonzero;stroke:rgb(40,168,224);stroke-width:0.26px;"/>
        </g>
        <g transform="matrix(1,0,0,1,-42.108028,-3.835126)">
            <path d="M59.938,73.834C59.938,73.834 50.258,76.334 48.45,81.379C45.817,88.729 54.046,94.874 54.046,94.874C54.046,94.874 50.206,88.181 50.974,83.244C51.752,78.234 59.938,73.834 59.938,73.834Z" style="fill:rgb(40,168,224);"/>
        </g>
        <g transform="matrix(1,0,0,1,-42.108028,-3.835126)">
            <path d="M59.938,73.834C59.938,73.834 50.258,76.334 48.45,81.379C45.817,88.729 54.046,94.874 54.046,94.874C54.046,94.874 50.206,88.181 50.974,83.244C51.752,78.234 59.938,73.834 59.938,73.834Z" style="fill:none;fill-rule:nonzero;stroke:rgb(40,168,224);stroke-width:0.26px;"/>
        </g>
        <g transform="matrix(1,0,0,1,-42.108028,-3.835126)">
            <path d="M106.33,70.764L106.496,70.077C106.496,70.077 99.019,72.243 94.096,72.599C90.809,72.839 85.648,72.489 85.648,72.489C85.648,72.489 93.463,74.823 98.376,73.917C101.658,73.31 106.33,70.763 106.33,70.763L106.33,70.764ZM99.912,84.12C99.912,84.12 98.53,79.162 96.292,76.99C93.43,74.215 86.662,73.56 86.662,73.56C86.662,73.56 90.704,75.517 93,77.208C96.07,79.471 99.912,84.121 99.912,84.121L99.912,84.12Z" style="fill:rgb(40,168,224);"/>
        </g>
    </g>
</svg>
