<?xml version="1.0" encoding="UTF-8" standalone="no"?>
<!DOCTYPE svg PUBLIC "-//W3C//DTD SVG 1.1//EN" "http://www.w3.org/Graphics/SVG/1.1/DTD/svg11.dtd">
<svg width="100%" height="100%" viewBox="0 0 170 151" version="1.1" xmlns="http://www.w3.org/2000/svg" xmlns:xlink="http://www.w3.org/1999/xlink" xml:space="preserve" xmlns:serif="http://www.serif.com/" style="fill-rule:evenodd;clip-rule:evenodd;stroke-linejoin:round;stroke-miterlimit:2;">
    <g transform="matrix(4.166667,0,0,4.166667,0,0)">
        <g transform="matrix(1,0,0,1,-161.08,-0.47998)">
            <path d="M193.78,11.28C192.04,11.29 189.83,12.87 187.55,14.98L187.6,14.94C191.17,12.43 195.56,11.09 201.79,12.07C183.86,10.26 198.37,26.92 163.75,36.61C173.93,32.26 178.11,24.09 181.84,18.05C185.24,12.54 188.33,8.81 193.78,11.28Z" style="fill:rgb(0,123,56);fill-rule:nonzero;"/>
        </g>
        <g transform="matrix(1,0,0,1,-161.08,-0.47998)">
            <path d="M161.09,0.48C163.52,7.59 172.51,7.86 176.57,11.33C180.64,14.8 181.33,19.56 176.78,25.08C178.92,19.85 162.46,12.15 161.08,0.48" style="fill:rgb(247,147,29);fill-rule:nonzero;"/>
        </g>
    </g>
</svg>
