<?xml version="1.0" encoding="UTF-8" standalone="no"?>
<!DOCTYPE svg PUBLIC "-//W3C//DTD SVG 1.1//EN" "http://www.w3.org/Graphics/SVG/1.1/DTD/svg11.dtd">
<svg width="100%" height="100%" viewBox="0 0 730 254" version="1.1" xmlns="http://www.w3.org/2000/svg" xmlns:xlink="http://www.w3.org/1999/xlink" xml:space="preserve" xmlns:serif="http://www.serif.com/" style="fill-rule:evenodd;clip-rule:evenodd;stroke-linejoin:round;stroke-miterlimit:2;">
    <g transform="matrix(4.166667,0,0,4.166667,0,0)">
        <g id="path2979" transform="matrix(1,0,0,1,-134.916,-8.488876)">
            <path d="M199.981,51.598L242.553,51.848L258.157,67.827L229.452,68.115L199.73,52.347L199.981,51.598Z" style="fill:rgb(253,228,73);fill-rule:nonzero;"/>
        </g>
        <g id="path2991" transform="matrix(1,0,0,1,-134.916,-8.488876)">
            <path d="M179.321,19.015C177.255,18.497 153.215,8.676 145.199,8.939C134.085,10.227 135.636,24.186 135.636,24.186C135.636,24.186 138.365,19.956 144.239,21.682C150.114,23.415 194.833,47.967 194.833,47.967L242.431,48.733L237.485,40.471C237.483,40.471 181.391,19.53 179.321,19.015" style="fill:rgb(253,228,73);fill-rule:nonzero;"/>
        </g>
        <g id="path2995" transform="matrix(1,0,0,1,-134.916,-8.488876)">
            <path d="M292.804,20.293L180.89,20.293C180.89,20.293 179.516,21.921 179.516,26.607C180.155,26.82 280.396,26.685 280.396,26.685L292.804,20.293" style="fill:rgb(253,228,73);fill-rule:nonzero;"/>
        </g>
        <g id="path2999" transform="matrix(1,0,0,1,-134.916,-8.488876)">
            <path d="M268.111,13.211L184.922,14.022L179.617,20.406L293.443,20.406L304.655,15.137L309.595,12.81L268.111,13.211Z" style="fill:rgb(61,185,77);fill-rule:nonzero;"/>
        </g>
        <g id="path3019" transform="matrix(1,0,0,1,-134.916,-8.488876)">
            <path d="M309.145,12.812L184.922,14.02L179.616,20.407L293.459,20.407L309.598,12.812L309.145,12.812Z" style="fill:url(#_Linear1);fill-rule:nonzero;"/>
        </g>
        <g id="path3079" transform="matrix(1,0,0,1,-134.916,-8.488876)">
            <path d="M198.568,52.24L198.568,51.076L243.347,51.076L261.906,69.281L229.173,69.281L198.035,53.273L198.568,51.076L198.568,52.24L199.101,51.204L229.736,66.951L256.213,66.951L242.397,53.402L198.569,53.402L198.569,52.24L199.102,51.204L198.568,52.24ZM219.047,56.182L230.949,61.284L231.385,54.071L244.308,61.161L244.055,57.987L246.374,57.801L246.975,65.274L233.487,57.877L233.071,64.726L218.132,58.323L219.047,56.182Z" style="fill:rgb(39,37,37);fill-rule:nonzero;"/>
        </g>
        <g id="path3083" transform="matrix(1,0,0,1,-134.916,-8.488876)">
            <path d="M223.486,57.04L223.486,54.911L227.109,54.911L227.109,57.04" style="fill:rgb(39,37,37);fill-rule:nonzero;"/>
        </g>
        <g id="path3087" transform="matrix(1,0,0,1,-134.916,-8.488876)">
            <path d="M238.078,56.827L238.078,54.699L241.701,54.699L241.701,56.827" style="fill:rgb(39,37,37);fill-rule:nonzero;"/>
        </g>
        <g id="path3099_2_" transform="matrix(1,0,0,1,-134.916,-8.488876)">
            <path d="M272.383,32.391L281.43,25.995" style="fill:none;fill-rule:nonzero;"/>
        </g>
        <g id="path3099" transform="matrix(1,0,0,1,-134.916,-8.488876)">
            <path d="M281.43,25.995L179.342,26.1C179.342,26.1 179.86,30.843 181.148,32.424L272.383,32.391" style="fill:rgb(238,44,48);fill-rule:nonzero;"/>
        </g>
        <g id="path3121" transform="matrix(1,0,0,1,-134.916,-8.488876)">
            <path d="M272.391,32.395L281.419,26L179.342,26.09L179.342,26.11C179.379,26.445 179.906,30.901 181.14,32.417L186.859,32.417L272.391,32.395" style="fill:url(#_Linear2);fill-rule:nonzero;"/>
        </g>
        <g id="path3133" transform="matrix(1,0,0,1,-134.916,-8.488876)">
            <path d="M273.416,32.2L181.146,32.305C181.146,32.305 182.509,38.188 190.363,40.428L263.592,40.428L273.416,32.2" style="fill:rgb(35,31,32);fill-rule:nonzero;"/>
        </g>
        <g id="path3153" transform="matrix(1,0,0,1,-134.916,-8.488876)">
            <path d="M273.395,32.2L267.868,32.2L181.148,32.305L181.148,32.332C181.26,32.765 182.821,38.261 190.356,40.428L263.593,40.428L273.395,32.2" style="fill:url(#_Linear3);fill-rule:nonzero;"/>
        </g>
        <g id="path3177" transform="matrix(1,0,0,1,-134.916,-8.488876)">
            <path d="M238.149,40.074L243.797,49.508L194.728,49.508L194.553,49.407C194.546,49.404 191.626,47.773 187.173,45.309C180.494,41.607 170.385,36.04 161.592,31.31C157.196,28.951 153.129,26.794 149.988,25.199C148.417,24.396 147.076,23.738 146.05,23.258C145.034,22.783 144.277,22.483 144.064,22.438C143.456,22.3 142.89,22.238 142.357,22.238C140.419,22.238 138.933,23.046 137.902,23.879C137.392,24.294 137.002,24.712 136.742,25.022L136.457,25.392L136.389,25.485L136.374,25.51L135.07,27.554L134.945,25.132C134.943,25.122 134.916,24.604 134.916,23.769C134.918,22.516 134.979,20.55 135.286,18.511C135.599,16.465 136.139,14.344 137.202,12.732L137.848,13.163L137.178,12.772C138.668,10.201 141.733,8.472 146.58,8.489C147.143,8.489 147.728,8.511 148.342,8.557L148.284,9.33L148.309,8.555C150.225,8.622 153.109,9.323 156.466,10.331C166.507,13.355 180.529,19.186 180.542,19.192L180.243,19.907L179.475,19.794C179.75,17.938 180.506,15.894 182.28,14.283C184.054,12.672 186.783,11.544 190.841,11.326L190.901,11.326C193.857,11.394 208.094,11.421 225.727,11.421C243.366,11.421 264.422,11.394 281.068,11.371C289.391,11.359 296.61,11.349 301.749,11.341C306.89,11.331 309.939,11.326 309.946,11.326L310.009,12.872L293.152,14.156L191.281,14.368L191.252,14.366C190.776,14.326 190.321,14.308 189.889,14.308C185.453,14.33 183.229,16.081 181.916,18.228C180.617,20.379 180.362,23.031 180.365,24.617C180.365,25.05 180.383,25.408 180.4,25.645C180.418,25.888 180.435,26.005 180.435,26.005L178.896,26.202C178.891,26.177 178.814,25.567 178.814,24.616C178.818,22.877 179.061,19.986 180.587,17.427C182.098,14.863 185.023,12.734 189.888,12.757C190.363,12.757 190.859,12.779 191.371,12.817L191.311,13.59L191.308,12.817L293.09,12.604L309.891,11.328L309.949,12.099L309.952,12.874C309.952,12.874 261.008,12.969 225.727,12.969C208.083,12.969 193.874,12.944 190.866,12.874L190.884,12.099L190.926,12.872C187.103,13.082 184.773,14.116 183.323,15.429C181.88,16.747 181.257,18.393 181.011,20.02L180.864,21.005L179.946,20.625C179.944,20.623 178.395,19.98 175.951,19.004C172.288,17.546 166.625,15.352 161.234,13.508C155.86,11.659 150.676,10.166 148.26,10.108L148.242,10.106L148.224,10.106C147.649,10.061 147.099,10.041 146.578,10.041C142.051,10.056 139.699,11.549 138.515,13.553L138.503,13.573L138.49,13.593C137.639,14.861 137.102,16.812 136.816,18.741C136.524,20.667 136.463,22.566 136.463,23.769C136.463,24.572 136.49,25.05 136.49,25.053L135.715,25.095L135.063,24.677C135.092,24.63 135.71,23.659 136.924,22.678C138.131,21.692 139.965,20.686 142.354,20.686C143.005,20.686 143.69,20.759 144.411,20.929C145.069,21.087 146.173,21.59 147.85,22.403C159.438,28.029 195.295,48.049 195.306,48.054L194.928,48.733L194.928,47.957L241.057,47.957L236.815,40.87L238.149,40.074Z" style="fill:rgb(39,37,37);fill-rule:nonzero;"/>
        </g>
        <g id="path3179" transform="matrix(1,0,0,1,-134.916,-8.488876)">
            <path d="M223.489,57.041L227.111,57.041L227.111,54.912L223.489,54.912L223.489,57.041ZM226.916,56.846L223.682,56.846L223.682,55.11L226.916,55.11L226.916,56.846Z" style="fill:rgb(253,228,73);fill-rule:nonzero;"/>
        </g>
        <g id="path3181" transform="matrix(1,0,0,1,-134.916,-8.488876)">
            <path d="M238.078,56.828L241.701,56.828L241.701,54.699L238.078,54.699L238.078,56.828ZM241.506,56.633L238.272,56.633L238.272,54.897L241.506,54.897L241.506,56.633Z" style="fill:rgb(253,228,73);fill-rule:nonzero;"/>
        </g>
        <g id="path3193" transform="matrix(1,0,0,1,-134.916,-8.488876)">
            <path d="M145.645,13.956C145.645,14.731 145.018,15.359 144.243,15.359C143.47,15.359 142.842,14.731 142.842,13.956C142.842,13.176 143.47,12.548 144.243,12.548C145.018,12.547 145.645,13.175 145.645,13.956" style="fill:rgb(39,37,37);fill-rule:nonzero;"/>
        </g>
        <g id="path3205" transform="matrix(1,0,0,1,-134.916,-8.488876)">
            <path d="M144.242,12.551C143.469,12.551 142.841,13.179 142.841,13.959C142.841,14.73 143.469,15.357 144.242,15.357C145.017,15.357 145.644,14.729 145.644,13.959C145.645,13.179 145.018,12.551 144.242,12.551M144.242,15.163C143.576,15.163 143.033,14.623 143.033,13.96L143.058,13.717C143.17,13.159 143.658,12.746 144.242,12.746C144.91,12.746 145.453,13.287 145.453,13.959C145.453,14.623 144.91,15.163 144.242,15.163" style="fill:rgb(253,228,73);fill-rule:nonzero;"/>
        </g>
    </g>
    <defs>
        <linearGradient id="_Linear1" x1="0" y1="0" x2="1" y2="0" gradientUnits="userSpaceOnUse" gradientTransform="matrix(129.9917,0,0,129.9917,179.628112,16.61163)"><stop offset="0" style="stop-color:rgb(61,185,77);stop-opacity:1"/><stop offset="1" style="stop-color:white;stop-opacity:1"/></linearGradient>
        <linearGradient id="_Linear2" x1="0" y1="0" x2="1" y2="0" gradientUnits="userSpaceOnUse" gradientTransform="matrix(102.0885,0,0,102.0885,179.325496,29.221598)"><stop offset="0" style="stop-color:rgb(239,44,48);stop-opacity:1"/><stop offset="0.03" style="stop-color:rgb(239,44,48);stop-opacity:1"/><stop offset="1" style="stop-color:white;stop-opacity:1"/></linearGradient>
        <linearGradient id="_Linear3" x1="0" y1="0" x2="1" y2="0" gradientUnits="userSpaceOnUse" gradientTransform="matrix(92.222366,0,0,92.222366,181.157558,36.31386)"><stop offset="0" style="stop-color:rgb(35,31,32);stop-opacity:1"/><stop offset="1" style="stop-color:white;stop-opacity:1"/></linearGradient>
    </defs>
</svg>
