<?xml version="1.0" encoding="UTF-8" standalone="no"?>
<!DOCTYPE svg PUBLIC "-//W3C//DTD SVG 1.1//EN" "http://www.w3.org/Graphics/SVG/1.1/DTD/svg11.dtd">
<svg width="100%" height="100%" viewBox="0 0 681 884" version="1.1" xmlns="http://www.w3.org/2000/svg" xmlns:xlink="http://www.w3.org/1999/xlink" xml:space="preserve" xmlns:serif="http://www.serif.com/" style="fill-rule:evenodd;clip-rule:evenodd;stroke-linecap:square;stroke-miterlimit:2;">
    <g transform="matrix(4.166667,0,0,4.166667,0,0)">
        <g id="g4411" transform="matrix(9.039556,0,0,-9.039556,-2104.110268,416.280942)">
            <g id="g4413">
                <clipPath id="_clip1">
                    <path d="M232.767,31.639C232.767,26.645 236.814,22.598 241.807,22.598C246.801,22.598 250.847,26.645 250.847,31.639C250.847,36.632 246.801,40.679 241.807,40.679C236.814,40.679 232.767,36.632 232.767,31.639"/>
                </clipPath>
                <g clip-path="url(#_clip1)">
                    <g id="g4419" transform="matrix(1,0,0,1,251.0176,41.0989)">
                        <path id="path4421" d="M0,0L-18.971,0" style="fill:none;fill-rule:nonzero;stroke:rgb(255,242,0);stroke-width:0.82px;"/>
                    </g>
                    <g id="g4423" transform="matrix(1,0,0,1,251.0176,22.4285)">
                        <path id="path4425" d="M0,0L-18.971,0" style="fill:none;fill-rule:nonzero;stroke:rgb(241,71,29);stroke-width:0.82px;"/>
                    </g>
                    <g id="g4427" transform="matrix(1,0,0,1,251.0183,40.8534)">
                        <path id="path4429" d="M0,0L-18.971,0M0,-0.246L-18.97,-0.246M0.001,-0.491L-18.97,-0.491M0.002,-0.737L-18.969,-0.737M0.002,-0.982L-18.968,-0.982M0.003,-1.228L-18.968,-1.228M0.003,-1.474L-18.968,-1.474M0.003,-1.719L-18.967,-1.719M0.004,-1.965L-18.966,-1.965M0.005,-2.21L-18.966,-2.21M0.005,-2.456L-18.966,-2.456M0.005,-2.702L-18.964,-2.702M0.007,-2.947L-18.964,-2.947M0.007,-3.193L-18.964,-3.193M0.008,-3.439L-18.963,-3.439M0.008,-3.685L-18.962,-3.685M0.009,-3.93L-18.962,-3.93M0.009,-4.176L-18.962,-4.176M0.009,-4.421L-18.96,-4.421M0.01,-4.667L-18.96,-4.667" style="fill:none;fill-rule:nonzero;stroke:rgb(255,242,0);stroke-width:0.82px;"/>
                    </g>
                    <g id="g4431" transform="matrix(1,0,0,1,251.0176,22.693)">
                        <path id="path4433" d="M0,0L-18.97,0" style="fill:none;fill-rule:nonzero;stroke:rgb(241,74,28);stroke-width:0.82px;"/>
                    </g>
                    <g id="g4435" transform="matrix(1,0,0,1,251.0183,22.9585)">
                        <path id="path4437" d="M0,0L-18.971,0" style="fill:none;fill-rule:nonzero;stroke:rgb(241,78,28);stroke-width:0.82px;"/>
                    </g>
                    <g id="g4439" transform="matrix(1,0,0,1,251.0183,23.223)">
                        <path id="path4441" d="M0,0L-18.971,0" style="fill:none;fill-rule:nonzero;stroke:rgb(241,81,27);stroke-width:0.82px;"/>
                    </g>
                    <g id="g4443" transform="matrix(1,0,0,1,251.0183,23.4879)">
                        <path id="path4445" d="M0,0L-18.971,0" style="fill:none;fill-rule:nonzero;stroke:rgb(242,84,27);stroke-width:0.82px;"/>
                    </g>
                    <g id="g4447" transform="matrix(1,0,0,1,251.0183,23.7534)">
                        <path id="path4449" d="M0,0L-18.97,0" style="fill:none;fill-rule:nonzero;stroke:rgb(242,88,26);stroke-width:0.82px;"/>
                    </g>
                    <g id="g4451" transform="matrix(1,0,0,1,251.0196,24.0182)">
                        <path id="path4453" d="M0,0L-18.971,0" style="fill:none;fill-rule:nonzero;stroke:rgb(242,91,25);stroke-width:0.82px;"/>
                    </g>
                    <g id="g4455" transform="matrix(1,0,0,1,251.0196,24.2831)">
                        <path id="path4457" d="M0,0L-18.971,0" style="fill:none;fill-rule:nonzero;stroke:rgb(243,94,25);stroke-width:0.82px;"/>
                    </g>
                    <g id="g4459" transform="matrix(1,0,0,1,251.0196,24.5483)">
                        <path id="path4461" d="M0,0L-18.97,0" style="fill:none;fill-rule:nonzero;stroke:rgb(243,98,24);stroke-width:0.82px;"/>
                    </g>
                    <g id="g4463" transform="matrix(1,0,0,1,251.0196,24.8128)">
                        <path id="path4465" d="M0,0L-18.97,0" style="fill:none;fill-rule:nonzero;stroke:rgb(243,101,24);stroke-width:0.82px;"/>
                    </g>
                    <g id="g4467" transform="matrix(1,0,0,1,251.0202,25.0776)">
                        <path id="path4469" d="M0,0L-18.971,0" style="fill:none;fill-rule:nonzero;stroke:rgb(243,104,23);stroke-width:0.82px;"/>
                    </g>
                    <g id="g4471" transform="matrix(1,0,0,1,251.0202,25.3431)">
                        <path id="path4473" d="M0,0L-18.97,0" style="fill:none;fill-rule:nonzero;stroke:rgb(244,108,23);stroke-width:0.82px;"/>
                    </g>
                    <g id="g4475" transform="matrix(1,0,0,1,251.0202,25.608)">
                        <path id="path4477" d="M0,0L-18.97,0" style="fill:none;fill-rule:nonzero;stroke:rgb(244,111,22);stroke-width:0.82px;"/>
                    </g>
                    <g id="g4479" transform="matrix(1,0,0,1,251.0209,25.8725)">
                        <path id="path4481" d="M0,0L-18.971,0" style="fill:none;fill-rule:nonzero;stroke:rgb(244,114,21);stroke-width:0.82px;"/>
                    </g>
                    <g id="g4483" transform="matrix(1,0,0,1,251.0209,26.138)">
                        <path id="path4485" d="M0,0L-18.971,0" style="fill:none;fill-rule:nonzero;stroke:rgb(245,118,21);stroke-width:0.82px;"/>
                    </g>
                    <g id="g4487" transform="matrix(1,0,0,1,251.0209,26.4028)">
                        <path id="path4489" d="M0,0L-18.97,0" style="fill:none;fill-rule:nonzero;stroke:rgb(245,121,20);stroke-width:0.82px;"/>
                    </g>
                    <g id="g4491" transform="matrix(1,0,0,1,251.0215,26.6673)">
                        <path id="path4493" d="M0,0L-18.971,0" style="fill:none;fill-rule:nonzero;stroke:rgb(245,125,20);stroke-width:0.82px;"/>
                    </g>
                    <g id="g4495" transform="matrix(1,0,0,1,251.0215,26.9329)">
                        <path id="path4497" d="M0,0L-18.971,0" style="fill:none;fill-rule:nonzero;stroke:rgb(245,128,19);stroke-width:0.82px;"/>
                    </g>
                    <g id="g4499" transform="matrix(1,0,0,1,251.0215,27.1977)">
                        <path id="path4501" d="M0,0L-18.97,0" style="fill:none;fill-rule:nonzero;stroke:rgb(246,131,19);stroke-width:0.82px;"/>
                    </g>
                    <g id="g4503" transform="matrix(1,0,0,1,251.0215,27.4622)">
                        <path id="path4505" d="M0,0L-18.97,0" style="fill:none;fill-rule:nonzero;stroke:rgb(246,135,18);stroke-width:0.82px;"/>
                    </g>
                    <g id="g4507" transform="matrix(1,0,0,1,251.0222,27.7278)">
                        <path id="path4509" d="M0,0L-18.971,0" style="fill:none;fill-rule:nonzero;stroke:rgb(246,138,17);stroke-width:0.82px;"/>
                    </g>
                    <g id="g4511" transform="matrix(1,0,0,1,251.0222,27.9926)">
                        <path id="path4513" d="M0,0L-18.971,0" style="fill:none;fill-rule:nonzero;stroke:rgb(247,141,17);stroke-width:0.82px;"/>
                    </g>
                    <g id="g4515" transform="matrix(1,0,0,1,251.0222,28.2571)">
                        <path id="path4517" d="M0,0L-18.97,0" style="fill:none;fill-rule:nonzero;stroke:rgb(247,145,16);stroke-width:0.82px;"/>
                    </g>
                    <g id="g4519" transform="matrix(1,0,0,1,251.0222,28.5227)">
                        <path id="path4521" d="M0,0L-18.97,0" style="fill:none;fill-rule:nonzero;stroke:rgb(247,148,16);stroke-width:0.82px;"/>
                    </g>
                    <g id="g4523" transform="matrix(1,0,0,1,251.0229,28.7871)">
                        <path id="path4525" d="M0,0L-18.97,0" style="fill:none;fill-rule:nonzero;stroke:rgb(247,151,15);stroke-width:0.82px;"/>
                    </g>
                    <g id="g4527" transform="matrix(1,0,0,1,251.0229,29.052)">
                        <path id="path4529" d="M0,0L-18.97,0" style="fill:none;fill-rule:nonzero;stroke:rgb(248,155,15);stroke-width:0.82px;"/>
                    </g>
                    <g id="g4531" transform="matrix(1,0,0,1,251.0229,29.3169)">
                        <path id="path4533" d="M0,0L-18.97,0" style="fill:none;fill-rule:nonzero;stroke:rgb(248,158,14);stroke-width:0.82px;"/>
                    </g>
                    <g id="g4535" transform="matrix(1,0,0,1,251.0236,29.5824)">
                        <path id="path4537" d="M0,0L-18.971,0" style="fill:none;fill-rule:nonzero;stroke:rgb(248,162,14);stroke-width:0.82px;"/>
                    </g>
                    <g id="g4539" transform="matrix(1,0,0,1,251.0236,29.8469)">
                        <path id="path4541" d="M0,0L-18.971,0" style="fill:none;fill-rule:nonzero;stroke:rgb(249,165,13);stroke-width:0.82px;"/>
                    </g>
                    <g id="g4543" transform="matrix(1,0,0,1,251.0236,30.1118)">
                        <path id="path4545" d="M0,0L-18.97,0" style="fill:none;fill-rule:nonzero;stroke:rgb(249,168,12);stroke-width:0.82px;"/>
                    </g>
                    <g id="g4547" transform="matrix(1,0,0,1,251.0249,30.377)">
                        <path id="path4549" d="M0,0L-18.971,0" style="fill:none;fill-rule:nonzero;stroke:rgb(249,172,12);stroke-width:0.82px;"/>
                    </g>
                    <g id="g4551" transform="matrix(1,0,0,1,251.0249,30.6418)">
                        <path id="path4553" d="M0,0L-18.971,0" style="fill:none;fill-rule:nonzero;stroke:rgb(249,175,11);stroke-width:0.82px;"/>
                    </g>
                    <g id="g4555" transform="matrix(1,0,0,1,251.0249,30.9073)">
                        <path id="path4557" d="M0,0L-18.971,0" style="fill:none;fill-rule:nonzero;stroke:rgb(250,178,11);stroke-width:0.82px;"/>
                    </g>
                    <g id="g4559" transform="matrix(1,0,0,1,251.0249,31.1722)">
                        <path id="path4561" d="M0,0L-18.97,0" style="fill:none;fill-rule:nonzero;stroke:rgb(250,182,10);stroke-width:0.82px;"/>
                    </g>
                    <g id="g4563" transform="matrix(1,0,0,1,251.0256,31.4367)">
                        <path id="path4565" d="M0,0L-18.971,0" style="fill:none;fill-rule:nonzero;stroke:rgb(250,185,10);stroke-width:0.82px;"/>
                    </g>
                    <g id="g4567" transform="matrix(1,0,0,1,251.0256,31.7022)">
                        <path id="path4569" d="M0,0L-18.971,0" style="fill:none;fill-rule:nonzero;stroke:rgb(250,188,9);stroke-width:0.82px;"/>
                    </g>
                    <g id="g4571" transform="matrix(1,0,0,1,251.0256,31.9671)">
                        <path id="path4573" d="M0,0L-18.97,0" style="fill:none;fill-rule:nonzero;stroke:rgb(251,192,8);stroke-width:0.82px;"/>
                    </g>
                    <g id="g4575" transform="matrix(1,0,0,1,251.0263,32.2316)">
                        <path id="path4577" d="M0,0L-18.971,0" style="fill:none;fill-rule:nonzero;stroke:rgb(251,195,8);stroke-width:0.82px;"/>
                    </g>
                    <g id="g4579" transform="matrix(1,0,0,1,251.0263,32.4961)">
                        <path id="path4581" d="M0,0L-18.971,0" style="fill:none;fill-rule:nonzero;stroke:rgb(251,199,7);stroke-width:0.82px;"/>
                    </g>
                    <g id="g4583" transform="matrix(1,0,0,1,251.0263,32.7619)">
                        <path id="path4585" d="M0,0L-18.97,0" style="fill:none;fill-rule:nonzero;stroke:rgb(252,202,7);stroke-width:0.82px;"/>
                    </g>
                    <g id="g4587" transform="matrix(1,0,0,1,251.0263,33.0265)">
                        <path id="path4589" d="M0,0L-18.97,0" style="fill:none;fill-rule:nonzero;stroke:rgb(252,205,6);stroke-width:0.82px;"/>
                    </g>
                    <g id="g4591" transform="matrix(1,0,0,1,251.0269,33.2913)">
                        <path id="path4593" d="M0,0L-18.971,0" style="fill:none;fill-rule:nonzero;stroke:rgb(252,209,6);stroke-width:0.82px;"/>
                    </g>
                    <g id="g4595" transform="matrix(1,0,0,1,251.0269,33.5568)">
                        <path id="path4597" d="M0,0L-18.971,0" style="fill:none;fill-rule:nonzero;stroke:rgb(252,212,5);stroke-width:0.82px;"/>
                    </g>
                    <g id="g4599" transform="matrix(1,0,0,1,251.0269,33.8213)">
                        <path id="path4601" d="M0,0L-18.97,0" style="fill:none;fill-rule:nonzero;stroke:rgb(253,215,4);stroke-width:0.82px;"/>
                    </g>
                    <g id="g4603" transform="matrix(1,0,0,1,251.0276,34.0862)">
                        <path id="path4605" d="M0,0L-18.971,0" style="fill:none;fill-rule:nonzero;stroke:rgb(253,219,4);stroke-width:0.82px;"/>
                    </g>
                    <g id="g4607" transform="matrix(1,0,0,1,251.0276,34.3513)">
                        <path id="path4609" d="M0,0L-18.971,0" style="fill:none;fill-rule:nonzero;stroke:rgb(253,222,3);stroke-width:0.82px;"/>
                    </g>
                    <g id="g4611" transform="matrix(1,0,0,1,251.0276,34.6162)">
                        <path id="path4613" d="M0,0L-18.971,0" style="fill:none;fill-rule:nonzero;stroke:rgb(254,225,3);stroke-width:0.82px;"/>
                    </g>
                    <g id="g4615" transform="matrix(1,0,0,1,251.0276,34.881)">
                        <path id="path4617" d="M0,0L-18.97,0" style="fill:none;fill-rule:nonzero;stroke:rgb(254,229,2);stroke-width:0.82px;"/>
                    </g>
                    <g id="g4619" transform="matrix(1,0,0,1,251.0282,35.1466)">
                        <path id="path4621" d="M0,0L-18.97,0" style="fill:none;fill-rule:nonzero;stroke:rgb(254,232,2);stroke-width:0.82px;"/>
                    </g>
                    <g id="g4623" transform="matrix(1,0,0,1,251.0282,35.4111)">
                        <path id="path4625" d="M0,0L-18.97,0" style="fill:none;fill-rule:nonzero;stroke:rgb(254,235,1);stroke-width:0.82px;"/>
                    </g>
                    <g id="g4627" transform="matrix(1,0,0,1,251.0282,35.6759)">
                        <path id="path4629" d="M0,0L-18.97,0" style="fill:none;fill-rule:nonzero;stroke:rgb(255,239,1);stroke-width:0.82px;"/>
                    </g>
                    <g id="g4631" transform="matrix(1,0,0,1,251.0282,35.9411)">
                        <path id="path4633" d="M0,0L-18.97,0" style="fill:none;fill-rule:nonzero;stroke:rgb(255,242,0);stroke-width:0.82px;"/>
                    </g>
                </g>
            </g>
        </g>
        <g id="g4635" transform="matrix(9.039556,0,0,-9.039556,-2104.110268,416.280942)">
            <g id="g4637">
                <g id="g4643" transform="matrix(1,0,0,1,245.3091,28.8483)">
                    <path id="path4645" d="M0,0C0.193,-0.522 -0.299,-0.811 -0.656,-1.114C-1.766,-1.777 -2.017,-2.151 -3.564,-2.467C-5.138,-2.175 -6.293,-1.361 -7.255,-0.591C-7.338,-0.426 -7.338,-0.206 -7.338,0.013C-4.326,-1.633 -2.904,-1.677 0,0" style="fill:rgb(35,31,32);fill-rule:nonzero;"/>
                </g>
                <g id="g4647" transform="matrix(1,0,0,1,243.4395,26.7141)">
                    <path id="path4649" d="M0,0C0.798,-1.017 1.41,-2.252 1.382,-3.599C-0.532,-4.351 -3.256,-4.258 -5.071,-3.432C-5.125,-2.085 -4.344,-1.045 -3.629,0C-2.612,-0.66 -1.045,-0.66 0,0" style="fill:rgb(35,31,32);fill-rule:nonzero;"/>
                </g>
                <g id="path4653" transform="matrix(0.8,0,0,-0.8,0,595.276)">
                    <g id="g4651">
                        <path id="path46531" serif:id="path4653" d="M302.062,686.531C302.114,688.855 301.822,690.925 301.719,693.125C301.387,693.898 299.299,694.285 298.75,695.625C298.373,696.622 298.451,696.354 298.219,697.531C298.184,697.71 298.156,697.859 298.156,698C298.155,699.851 300.981,698.727 301.812,699.781L301.875,700.156C300.741,699.675 299.375,700.714 298.344,699.75C298.137,699.991 298.056,700.254 298.125,700.562C298.949,701.594 301.236,700.059 301.812,701.438C300.82,701.683 299.606,701.4 298.438,701.469C298.228,701.529 298.074,701.587 298.031,701.781C298.005,702.03 298.066,702.17 298.188,702.375C299.425,701.927 300.669,702.494 301.906,702.562C301.081,703.525 299.316,702.661 298.25,703.281C298.015,703.512 297.952,703.972 298.125,704.281C299.086,704.076 300.342,703.689 301.438,703.812C301.301,705.496 299.156,705.319 298.125,705.937C298.848,706.796 300.163,706.041 301.125,706.281C300.679,707.071 300.206,707.822 300,708.75C300.988,709.61 301.848,709.469 302.062,709.469C302.277,709.469 303.279,709.543 304.031,708.812C303.859,707.884 303.519,707.037 302.969,706.281C304,705.972 305.413,706.866 306.031,705.937C305.515,705.662 304.89,705.644 304.375,705.437C303.447,705.335 303.262,704.427 302.781,703.844C303.984,703.569 305.098,704.179 306.094,704.281C306.164,701.876 303.379,703.834 302.312,702.562C303.585,702.494 304.858,701.927 306.094,702.375C306.06,702.135 306.212,701.762 305.938,701.625C304.701,701.315 303.615,701.851 302.344,701.437C303.135,700.441 304.425,701.305 305.594,701.031C306.075,700.997 306.163,700.35 306.094,699.937C305.188,700.874 303.544,699.752 302.375,700.156C302.444,700.054 302.429,699.916 302.531,699.812C303.369,698.75 306.238,699.919 306.188,698C306.183,697.871 306.188,697.751 306.156,697.594C305.925,696.416 305.973,696.684 305.594,695.687C305.045,694.347 302.986,693.929 302.656,693.156C302.45,690.99 302.363,689.796 302.375,686.531L302.063,686.531L302.062,686.531Z" style="fill:rgb(35,31,32);fill-rule:nonzero;"/>
                    </g>
                </g>
            </g>
        </g>
    </g>
</svg>
