<?xml version="1.0" encoding="UTF-8" standalone="no"?>
<!DOCTYPE svg PUBLIC "-//W3C//DTD SVG 1.1//EN" "http://www.w3.org/Graphics/SVG/1.1/DTD/svg11.dtd">
<svg width="100%" height="100%" viewBox="0 0 416 324" version="1.1" xmlns="http://www.w3.org/2000/svg" xmlns:xlink="http://www.w3.org/1999/xlink" xml:space="preserve" xmlns:serif="http://www.serif.com/" style="fill-rule:evenodd;clip-rule:evenodd;stroke-linejoin:round;stroke-miterlimit:2;">
    <g transform="matrix(4.166667,0,0,4.166667,0,0)">
        <g id="layer1" transform="matrix(3.779527,0,0,3.779527,-5.115318,-5.479053)">
            <path id="path853" d="M19.214,1.45L11.204,16.695C9.762,19.438 8.724,20.659 2.089,20.659L1.353,21.967L12.756,21.967C14.782,21.967 16.042,20.936 16.926,18.943L19.458,12.567L17.028,12.567C16.471,12.567 16.511,11.79 17.028,11.79L19.767,11.79L21.318,7.885C21.725,6.858 22.189,7.551 22.069,7.899L20.72,11.79L27.757,11.79L27.757,1.45L19.214,1.45ZM20.45,12.567L18.817,17.277C18.016,19.588 17.488,21.967 19.915,21.967L27.757,21.967L27.757,12.567L20.45,12.567Z" style="fill:rgb(130,20,26);fill-rule:nonzero;"/>
        </g>
    </g>
</svg>
