<?xml version="1.0" encoding="UTF-8" standalone="no"?><!DOCTYPE svg PUBLIC "-//W3C//DTD SVG 1.1//EN" "http://www.w3.org/Graphics/SVG/1.1/DTD/svg11.dtd"><svg width="100%" height="100%" viewBox="0 0 2612 423" version="1.1" xmlns="http://www.w3.org/2000/svg" xmlns:xlink="http://www.w3.org/1999/xlink" xml:space="preserve" xmlns:serif="http://www.serif.com/" style="fill-rule:evenodd;clip-rule:evenodd;stroke-linejoin:round;stroke-miterlimit:2;"><g id="layer1"><g id="g7069"><g id="g11742"><path id="path11744" d="M2611.493,142.849c-4.236,7.662 -7.538,16.072 -12.895,22.831c-75.345,95.435 -173.489,149.63 -294.526,162.806c-114.59,12.521 -225.1,-8.005 -333.678,-41.768c-92.849,-28.873 -184.702,-61.64 -280.573,-78.927c-223.324,-40.273 -408.587,28.375 -557.003,199.03c-4.049,4.641 -7.88,9.531 -11.836,14.296c-0.218,0.249 -0.716,0.28 -3.862,1.526c44.447,-85.094 106.99,-150.503 185.948,-204.574c-9.406,-2.305 -16.321,-3.893 -23.205,-5.762c-53.137,-14.234 -97.864,-44.478 -142.871,-74.473c-36.286,-24.17 -72.199,-49.68 -111.07,-68.96c-48.901,-24.232 -101.633,-29.932 -155.143,-13.362c-5.482,1.682 -10.715,4.205 -15.916,6.665c-2.554,1.215 -4.703,3.146 -7.506,5.077c1.682,1.464 2.679,2.834 4.08,3.551c60.207,30.555 97.553,80.671 122.221,141.937c22.457,55.816 31.178,114.154 34.168,175.451c-2.243,-1.651 -3.644,-2.18 -4.298,-3.208c-45.662,-73.009 -113.874,-113.001 -195.821,-131.191c-98.02,-21.834 -195.261,-12.583 -291.1,13.393c-46.066,12.49 -90.856,29.652 -136.767,42.858c-82.664,23.734 -166.45,33.234 -251.544,12.926c-38.996,-9.282 -74.877,-25.416 -105.962,-51.05c-8.316,-6.883 -14.919,-15.885 -22.332,-23.921c0.841,-1.121 1.651,-2.243 2.523,-3.395c5.139,2.429 10.528,4.454 15.387,7.351c58.463,34.822 121.972,45.506 189,40.553c78.584,-5.824 152.278,-31.022 226.065,-56.065c51.891,-17.629 103.813,-35.04 158.538,-42.235c103.533,-13.58 201.179,4.08 292.408,54.881c23.983,13.331 46.253,29.745 69.364,44.789c-0.218,0.343 0.685,-0.467 0.561,-0.841c-21.149,-55.784 -46.783,-109.046 -88.271,-153.119c-40.74,-43.232 -91.323,-67.06 -149.817,-73.912c-22.364,-2.616 -45.07,-2.305 -67.62,-3.457c-3.426,-0.187 -6.79,-1.308 -10.216,-1.993c1.184,-3.644 1.37,-8.223 3.738,-10.808c20.246,-22.146 44.634,-32.954 75.251,-27.067c15.76,3.052 31.739,4.952 47.655,7.413c17.816,2.803 34.604,0.343 52.109,-5.139c30.15,-9.406 60.955,-17.91 92.133,-22.582c54.102,-8.098 105.184,4.952 151.935,32.362c33.701,19.778 66.094,41.924 98.549,63.789c48.994,33.016 100.138,60.27 159.909,68.212c36.099,4.828 71.607,3.364 106.367,-7.382c145.83,-45.007 289.169,-37.314 431.169,17.349c72.23,27.845 144.958,54.757 218.497,78.833c74.255,24.295 150.939,34.76 229.336,27.409c98.767,-9.282 184.546,-49.617 261.729,-110.229c13.798,-10.839 27.285,-22.052 40.927,-33.078c1.433,1.09 2.834,2.149 4.267,3.208" style="fill:#1e409a;fill-rule:nonzero;"/></g></g></g></svg>