<?xml version="1.0" encoding="UTF-8" standalone="no"?><!DOCTYPE svg PUBLIC "-//W3C//DTD SVG 1.1//EN" "http://www.w3.org/Graphics/SVG/1.1/DTD/svg11.dtd"><svg width="100%" height="100%" viewBox="0 0 291 372" version="1.1" xmlns="http://www.w3.org/2000/svg" xmlns:xlink="http://www.w3.org/1999/xlink" xml:space="preserve" xmlns:serif="http://www.serif.com/" style="fill-rule:evenodd;clip-rule:evenodd;stroke-linejoin:round;stroke-miterlimit:2;"><g><path d="M186.86,237.002c-12,-32.7 -22.7,-55.3 -30.6,-66.8c-7.9,-11.5 -13,-16.5 -18.4,-20.7c-4.6,-3.6 -14.1,-9.9 -23.9,-9.9l0,-0.7l42.1,0c11.3,0 25.5,4.2 36.7,14.4c3.4,3.1 6.6,6.7 9.6,10.6c2.7,3.6 5.2,7.4 7.6,11.5c11.5,19.5 19.9,43.1 28.9,66.7c0.6,1.4 3,8.1 3.4,9.2c1.6,4 3.3,8 5.1,11.9l41.3,-166.7c13.1,-53.1 -30.3,-96.3 -97,-96.5c-66.8,-0.3 -131.6,42.6 -144.7,95.7l-44.6,179.6c-13.2,53.1 30.3,96.3 97.1,96.5c46.4,0.1 91.9,-20.6 119.7,-51c-8.2,0 -19.5,-0.7 -32.8,-3.3c-27.7,-5.3 -47.5,-33.9 -64.6,-80.5c-12,-32.7 -22.4,-55.3 -30.3,-66.8c-7.9,-11.5 -13.3,-16.3 -18.6,-20.5c-5.4,-4.2 -15.5,-10.1 -24.3,-10.2l0,-0.7l42.5,0c11.3,0 25.7,4.2 36.9,14.4c3.4,3.1 6.6,6.7 9.6,10.6c2.7,3.6 5.2,7.4 7.6,11.5c11.4,19.5 19.9,43.1 28.9,66.7c0.6,1.4 3,8.1 3.5,9.2c10.7,27 27,54.8 45.5,65.1c2.4,-2.9 4.6,-5.8 6.6,-8.8c-16.9,-12.9 -30.6,-37.1 -42.8,-70.5" style="fill:#d40032;fill-rule:nonzero;"/><path d="M177.46,251.202c-0.4,-1.1 -2.8,-7.7 -3.4,-9.2c-9,-23.6 -17.4,-47.2 -28.9,-66.7c-2.4,-4.1 -4.9,-7.9 -7.6,-11.5c-3,-3.9 -6.1,-7.5 -9.6,-10.6c-11.2,-10.2 -25.6,-14.4 -36.9,-14.5l-42.5,0l0,0.7c8.8,0 18.9,5.9 24.3,10.2c5.4,4.2 10.7,9 18.6,20.5c7.9,11.5 18.4,34.1 30.3,66.8c17.1,46.6 36.8,75.2 64.6,80.5c13.3,2.5 24.6,3.2 32.8,3.3c1.3,-1.5 2.6,-2.9 3.9,-4.4c-18.6,-10.3 -34.9,-38.1 -45.6,-65.1Z" style="fill:#fff;fill-rule:nonzero;"/><path d="M247.36,263.102c-1.8,-4 -3.5,-8 -5.1,-11.9c-0.4,-1.1 -2.8,-7.7 -3.4,-9.2c-9,-23.6 -17.4,-47.2 -28.9,-66.7c-2.4,-4.1 -4.9,-7.9 -7.6,-11.5c-3,-3.9 -6.1,-7.5 -9.6,-10.6c-11.2,-10.2 -25.4,-14.4 -36.7,-14.5l-42.2,0l0,0.7c9.8,0 19.3,6.3 23.9,9.9c5.4,4.2 10.5,9.3 18.4,20.7c7.9,11.5 18.6,34.1 30.6,66.8c12.3,33.4 25.9,57.6 42.8,70.5c6.8,-9.9 11.8,-20.5 14.5,-31.6l3.3,-12.6Z" style="fill:#fff;fill-rule:nonzero;"/><path d="M27.66,269.602c0,29.6 24,53.7 53.6,53.7c23.3,0 43.1,-14.8 50.5,-35.6c-1.2,-2 -2.5,-4 -3.7,-6.1c-10,-16.3 -17.6,-38.5 -26.5,-61.7c-6.3,-2.5 -13.1,-4 -20.3,-4c-29.6,0 -53.6,24 -53.6,53.7" style="fill:#fff;fill-rule:nonzero;"/></g></svg>