<?xml version="1.0" encoding="UTF-8" standalone="no"?>
<!DOCTYPE svg PUBLIC "-//W3C//DTD SVG 1.1//EN" "http://www.w3.org/Graphics/SVG/1.1/DTD/svg11.dtd">
<svg width="100%" height="100%" viewBox="0 0 1200 177" version="1.1" xmlns="http://www.w3.org/2000/svg" xmlns:xlink="http://www.w3.org/1999/xlink" xml:space="preserve" xmlns:serif="http://www.serif.com/" style="fill-rule:evenodd;clip-rule:evenodd;stroke-linejoin:round;stroke-miterlimit:2;">
    <g transform="matrix(4.166667,0,0,4.166667,0,0)">
        <g transform="matrix(2.834646,0,0,2.834646,-63.443837,-349.796203)">
            <g transform="matrix(0.988926,0,0,1.011198,0,0)">
                <path d="M28.344,132.588C28.344,132.888 28.464,133.068 28.764,133.053L30.892,133.053C31.027,133.053 31.132,133.038 31.192,132.933L31.267,132.648C31.387,132.348 31.042,132.393 30.818,132.198C30.473,132.063 30.338,131.943 30.338,131.404L30.338,127.041C30.338,126.067 29.933,125.977 29.468,125.782C28.824,125.542 28.104,125.377 27.1,125.377C24.476,125.377 22.632,127.386 22.632,129.754C22.632,131.553 23.727,133.232 25.526,133.232C26.65,133.232 27.834,132.393 28.314,131.284L28.344,131.284L28.344,132.588ZM26.92,126.157C28.149,126.157 28.344,127.221 28.344,128.495C28.344,130.624 27.1,131.973 26.215,131.973C25.286,131.973 24.746,130.804 24.746,129.35C24.746,127.821 25.526,126.157 26.92,126.157Z" style="fill:rgb(228,0,28);fill-rule:nonzero;"/>
                <path d="M33.125,131.448C33.125,132.018 32.735,132.258 32.36,132.333C32.255,132.363 32.135,132.378 32.075,132.543L31.985,132.798C31.91,133.023 32.06,133.053 32.18,133.053L35.868,133.053C36.003,133.053 36.078,133.008 36.123,132.933L36.243,132.633C36.303,132.513 36.273,132.393 36.078,132.363C35.344,132.198 35.119,132.093 35.119,131.448L35.119,125.557L32.36,125.557C32.27,125.557 32.18,125.557 32.135,125.677L32,125.977C31.91,126.157 32.06,126.216 32.21,126.261C32.9,126.411 33.125,126.516 33.125,127.161L33.125,131.448ZM33.02,123.368C33.02,123.983 33.53,124.477 34.144,124.477C34.729,124.477 35.239,123.938 35.239,123.368C35.239,122.768 34.729,122.259 34.129,122.259C33.53,122.259 33.02,122.753 33.02,123.368Z" style="fill:rgb(228,0,28);fill-rule:nonzero;"/>
                <path d="M40.228,125.857C40.228,125.542 40.034,125.557 39.869,125.557L37.455,125.557C37.365,125.557 37.275,125.557 37.23,125.677L37.095,125.977C37.005,126.157 37.155,126.216 37.305,126.261C37.995,126.411 38.22,126.516 38.22,127.161L38.22,131.448C38.22,132.018 37.83,132.258 37.455,132.333C37.35,132.363 37.23,132.378 37.17,132.543L37.08,132.798C37.005,133.023 37.155,133.053 37.275,133.053L41.203,133.053C41.383,133.053 41.473,133.008 41.533,132.933L41.698,132.633C41.773,132.513 41.743,132.393 41.473,132.363C40.513,132.198 40.213,132.093 40.213,131.448L40.213,129.62C40.213,128.855 40.138,128.18 40.498,127.581C40.708,127.221 41.113,127.041 41.802,127.251C42.222,127.371 42.507,127.686 42.672,127.476L43.257,126.996C43.287,126.966 43.302,126.906 43.287,126.861L42.987,125.737C42.927,125.572 42.672,125.377 42.252,125.377C41.593,125.377 40.873,126.037 40.258,126.906L40.228,126.906L40.228,125.857Z" style="fill:rgb(228,0,28);fill-rule:nonzero;"/>
                <path d="M51.63,124.163C51.63,123.593 52.019,123.353 52.394,123.278C52.499,123.248 52.619,123.233 52.679,123.068L52.769,122.813C52.844,122.589 52.694,122.559 52.574,122.559L48.766,122.559C48.631,122.559 48.556,122.604 48.511,122.678L48.391,122.978C48.331,123.098 48.361,123.218 48.556,123.248C49.291,123.413 49.516,123.518 49.516,124.163L49.516,131.448C49.516,132.018 49.126,132.258 48.751,132.333C48.646,132.363 48.526,132.378 48.466,132.543L48.376,132.798C48.302,133.023 48.451,133.053 48.571,133.053L52.379,133.053C52.514,133.053 52.589,133.008 52.634,132.933L52.754,132.633C52.814,132.513 52.784,132.393 52.589,132.363C51.854,132.198 51.63,132.093 51.63,131.448L51.63,127.746L56.067,127.746L56.067,131.448C56.067,132.018 55.677,132.258 55.303,132.333C55.198,132.363 55.078,132.378 55.018,132.543L54.928,132.798C54.853,133.023 55.003,133.053 55.123,133.053L58.93,133.053C59.065,133.053 59.14,133.008 59.185,132.933L59.305,132.633C59.365,132.513 59.335,132.393 59.14,132.363C58.406,132.198 58.181,132.093 58.181,131.448L58.181,124.163C58.181,123.593 58.571,123.353 58.945,123.278C59.05,123.248 59.17,123.233 59.23,123.068L59.32,122.813C59.395,122.589 59.245,122.559 59.125,122.559L55.318,122.559C55.183,122.559 55.108,122.604 55.063,122.679L54.943,122.978C54.883,123.098 54.913,123.218 55.108,123.248C55.842,123.413 56.067,123.518 56.067,124.163L56.067,126.846L51.63,126.846L51.63,124.163Z" style="fill:rgb(228,0,28);fill-rule:nonzero;"/>
                <path d="M64.777,125.377C62.348,125.377 60.579,127.101 60.579,129.455C60.579,131.239 61.928,133.232 64.387,133.232C66.981,133.232 68.6,131.299 68.6,129.155C68.6,127.221 67.175,125.377 64.777,125.377ZM64.642,132.423C63.697,132.423 62.693,131.239 62.693,128.93C62.693,127.596 63.323,126.186 64.612,126.186C65.706,126.186 66.486,127.431 66.486,129.395C66.486,130.819 66.126,132.423 64.642,132.423Z" style="fill:rgb(228,0,28);fill-rule:nonzero;"/>
                <path d="M72.627,125.857C72.627,125.542 72.432,125.557 72.267,125.557L69.868,125.557C69.778,125.557 69.688,125.557 69.643,125.677L69.508,125.977C69.418,126.157 69.568,126.216 69.718,126.261C70.408,126.411 70.633,126.516 70.633,127.161L70.633,131.448C70.633,132.018 70.243,132.258 69.868,132.333C69.763,132.363 69.643,132.378 69.583,132.543L69.493,132.798C69.418,133.023 69.568,133.053 69.688,133.053L73.301,133.053C73.421,133.053 73.496,133.008 73.526,132.933L73.646,132.633C73.691,132.513 73.661,132.393 73.496,132.363C72.821,132.198 72.627,132.093 72.627,131.448L72.627,130.594C72.627,127.746 73.526,126.696 74.575,126.696C75.325,126.696 75.745,127.101 75.745,128.75L75.745,131.448C75.745,132.018 75.4,132.258 75.055,132.333C74.965,132.363 74.86,132.378 74.8,132.543L74.71,132.798C74.65,133.023 74.785,133.053 74.89,133.053L78.488,133.053C78.623,133.053 78.698,133.008 78.743,132.933L78.863,132.633C78.923,132.513 78.893,132.393 78.698,132.363C77.963,132.198 77.739,132.093 77.739,131.448L77.739,127.94C77.739,126.157 76.944,125.377 75.61,125.377C74.635,125.377 73.346,125.887 72.656,127.011L72.627,127.011L72.627,125.857Z" style="fill:rgb(228,0,28);fill-rule:nonzero;"/>
                <path d="M80.103,135.601C79.923,135.916 80.118,136.021 80.402,136.171C81.032,136.486 81.752,136.8 83.341,136.8C86.129,136.8 87.583,135.151 87.583,132.243L87.583,127.041C87.583,126.067 87.179,125.992 86.714,125.782C86.069,125.542 85.35,125.377 84.345,125.377C81.722,125.377 79.878,127.386 79.878,129.754C79.878,131.553 80.972,133.232 82.771,133.232C83.895,133.232 85.08,132.393 85.559,131.284L85.589,131.284L85.589,132.813C85.589,134.732 84.78,135.736 83.281,135.736C81.752,135.736 81.032,134.792 80.867,134.657C80.672,134.492 80.582,134.762 80.447,134.986L80.103,135.601ZM84.165,126.157C85.395,126.157 85.589,127.221 85.589,128.495C85.589,130.624 84.345,131.973 83.461,131.973C82.531,131.973 81.991,130.804 81.991,129.35C81.991,127.821 82.771,126.157 84.165,126.157Z" style="fill:rgb(228,0,28);fill-rule:nonzero;"/>
                <path d="M95.039,133.053L97.572,133.053L97.572,132.558C97.273,132.438 97.018,132.273 96.583,131.808C95.744,130.939 94.754,129.575 93.78,128.375L95.189,127.011C95.803,126.396 96.913,126.456 96.913,126.022C96.913,125.812 96.913,125.557 96.613,125.557L94.799,125.557C94.079,126.456 93.15,127.431 91.981,128.45L91.981,122.334C91.981,122.019 91.786,122.034 91.621,122.034L89.222,122.034C89.132,122.034 89.042,122.034 88.997,122.154L88.862,122.454C88.773,122.634 88.922,122.693 89.072,122.738C89.762,122.888 89.987,122.993 89.987,123.638L89.987,131.448C89.987,132.018 89.597,132.258 89.222,132.333C89.117,132.363 88.997,132.378 88.937,132.543L88.847,132.798C88.773,133.023 88.922,133.053 89.042,133.053L92.655,133.053C92.775,133.053 92.85,133.008 92.88,132.933L93,132.633C93.045,132.513 93.015,132.393 92.85,132.363C92.176,132.198 91.981,132.093 91.981,131.448L91.981,128.945L92.011,128.945L95.039,133.053Z" style="fill:rgb(228,0,28);fill-rule:nonzero;"/>
                <path d="M102.519,125.377C100.09,125.377 98.321,127.101 98.321,129.455C98.321,131.239 99.671,133.232 102.129,133.232C104.723,133.232 106.342,131.299 106.342,129.155C106.342,127.221 104.918,125.377 102.519,125.377ZM102.384,132.423C101.44,132.423 100.435,131.239 100.435,128.93C100.435,127.596 101.065,126.186 102.354,126.186C103.448,126.186 104.228,127.431 104.228,129.395C104.228,130.819 103.868,132.423 102.384,132.423Z" style="fill:rgb(228,0,28);fill-rule:nonzero;"/>
                <path d="M110.369,125.857C110.369,125.542 110.174,125.557 110.009,125.557L107.61,125.557C107.52,125.557 107.43,125.557 107.385,125.677L107.25,125.977C107.16,126.157 107.31,126.216 107.46,126.261C108.15,126.411 108.375,126.516 108.375,127.161L108.375,131.448C108.375,132.018 107.985,132.258 107.61,132.333C107.505,132.363 107.385,132.378 107.325,132.543L107.235,132.798C107.16,133.023 107.31,133.053 107.43,133.053L111.043,133.053C111.163,133.053 111.238,133.008 111.268,132.933L111.388,132.633C111.433,132.513 111.403,132.393 111.238,132.363C110.563,132.198 110.369,132.093 110.369,131.448L110.369,130.594C110.369,127.746 111.268,126.696 112.317,126.696C113.067,126.696 113.487,127.101 113.487,128.75L113.487,131.448C113.487,132.018 113.142,132.258 112.797,132.333C112.707,132.363 112.602,132.378 112.542,132.543L112.452,132.798C112.392,133.023 112.527,133.053 112.632,133.053L116.23,133.053C116.365,133.053 116.44,133.008 116.485,132.933L116.605,132.633C116.665,132.513 116.635,132.393 116.44,132.363C115.705,132.198 115.481,132.093 115.481,131.448L115.481,127.94C115.481,126.157 114.686,125.377 113.352,125.377C112.377,125.377 111.088,125.887 110.398,127.011L110.368,127.011L110.369,125.857Z" style="fill:rgb(228,0,28);fill-rule:nonzero;"/>
                <path d="M117.845,135.601C117.665,135.916 117.86,136.021 118.144,136.171C118.774,136.486 119.494,136.8 121.083,136.8C123.871,136.8 125.325,135.151 125.325,132.243L125.325,127.041C125.325,126.067 124.921,125.992 124.456,125.782C123.811,125.542 123.092,125.377 122.087,125.377C119.464,125.377 117.62,127.386 117.62,129.754C117.62,131.553 118.714,133.232 120.513,133.232C121.637,133.232 122.822,132.393 123.302,131.284L123.332,131.284L123.332,132.813C123.332,134.732 122.522,135.736 121.023,135.736C119.494,135.736 118.774,134.792 118.609,134.657C118.414,134.492 118.324,134.762 118.189,134.986L117.845,135.601ZM121.907,126.157C123.137,126.157 123.332,127.221 123.332,128.495C123.332,130.624 122.087,131.973 121.203,131.973C120.273,131.973 119.734,130.804 119.734,129.35C119.734,127.821 120.513,126.157 121.907,126.157Z" style="fill:rgb(228,0,28);fill-rule:nonzero;"/>
            </g>
        </g>
    </g>
</svg>
