<?xml version="1.0" encoding="UTF-8" standalone="no"?><!DOCTYPE svg PUBLIC "-//W3C//DTD SVG 1.1//EN" "http://www.w3.org/Graphics/SVG/1.1/DTD/svg11.dtd"><svg width="100%" height="100%" viewBox="0 0 104 53" version="1.1" xmlns="http://www.w3.org/2000/svg" xmlns:xlink="http://www.w3.org/1999/xlink" xml:space="preserve" xmlns:serif="http://www.serif.com/" style="fill-rule:evenodd;clip-rule:evenodd;stroke-linejoin:round;stroke-miterlimit:2;"><g><path d="M32.121,0c-21.317,0 -32.121,8.614 -32.121,25.405l0,25.405l14.747,0l0,-23.507c0,-10.22 6.57,-15.477 19.419,-15.477c5.256,0 10.658,0.584 15.769,2.044l3.212,-10.95c-6.862,-1.898 -13.871,-2.92 -21.025,-2.92Z" style="fill:#eb7b6f;fill-rule:nonzero;"/><path d="M71.105,53c21.317,0 32.121,-8.614 32.121,-25.405l0,-25.405l-14.747,0l0,23.507c0,10.22 -6.57,15.477 -19.419,15.477c-5.256,0 -10.658,-0.584 -15.769,-2.044l-3.212,10.95c6.716,2.044 13.871,2.92 21.025,2.92Z" style="fill:#eb7b6f;fill-rule:nonzero;"/></g></svg>