<?xml version="1.0" encoding="UTF-8" standalone="no"?><!DOCTYPE svg PUBLIC "-//W3C//DTD SVG 1.1//EN" "http://www.w3.org/Graphics/SVG/1.1/DTD/svg11.dtd"><svg width="100%" height="100%" viewBox="0 0 139 62" version="1.1" xmlns="http://www.w3.org/2000/svg" xmlns:xlink="http://www.w3.org/1999/xlink" xml:space="preserve" xmlns:serif="http://www.serif.com/" style="fill-rule:evenodd;clip-rule:evenodd;stroke-linejoin:round;stroke-miterlimit:2;"><path d="M23.323,4.84c-3.83,1.61 -8.73,3.88 -11.04,7.66c-1.71,2.8 -1.52,3.19 -1.52,11.21c0,2.22 -0.19,3.11 -1.46,4.46c-1.17,1.25 -1.87,1.67 -2.66,1.8c-2.69,0.44 -6.64,-18 -6.64,-20.41c0,-0.63 -0.05,-0.73 0.24,-1.16c0.42,-0.6 1.29,-1.41 1.82,-1.41c2.36,0 5.15,3.12 5.15,3.12c0,0 1.92,-1.82 6.7,-5.42c3.3,-2.48 6.29,-4.44 7.9,-4.44c1.87,0 3.77,1.76 3.77,2.61c0,1.05 -0.97,1.31 -2.23,2" style="fill:#a20b31;fill-rule:nonzero;"/><path d="M31.493,29.91c-6.83,0 -9.95,-6.1 -9.95,-11.78c0,-5.15 1.36,-9.22 4.42,-13.19c2.12,-2.76 4.41,-4.25 5.48,-4.25c0.05,0 0.09,0 0.13,0.01c2.56,0.31 4.15,2.11 4.45,2.47c0.04,0.05 0.09,0.11 0.12,0.16c0.69,-0.9 1.62,-1.8 2.22,-2.24c1.2,-0.88 1.88,-0.95 2.87,-0.95c3.31,0 6.86,2.01 6.86,6.42c0,3.48 -1.27,7.74 -3.58,12.02c-2.2,4.06 -5.04,7.58 -7.81,9.64c-1.55,1.16 -3.21,1.7 -5.22,1.7m0.58,-23.7c-0.6,0 -1.31,0.32 -2.16,0.97c-2.03,1.55 -4.38,6.14 -4.38,9.76c0,2.79 1.35,4.39 2.48,5.23c1.42,1.06 3.08,1.45 4.16,1.45l0.2,0c3.98,-0.2 7,-3.58 8.45,-5.58c2.22,-3.07 3.38,-6.38 3.38,-8.06c0,-3.64 -2.15,-4.21 -2.85,-4.4c-0.52,-0.14 -0.91,-0.2 -1.24,-0.2c-0.47,0 -0.86,0.11 -1.5,0.32c-0.13,0.04 -0.3,0.1 -0.49,0.18c-0.62,0.23 -1.39,0.52 -1.95,0.52c-0.26,0 -0.47,-0.07 -0.62,-0.2c-0.12,-0.1 -0.25,-0.26 -0.31,-0.5c-0.94,0.59 -1.45,0.84 -1.9,0.84c-0.18,0 -0.35,-0.04 -0.5,-0.13c-0.23,-0.13 -0.47,-0.2 -0.75,-0.2" style="fill:#a20b31;fill-rule:nonzero;"/><path d="M49.503,6.61c0,9.63 1.7,18.48 4.96,21.9c0.92,0.96 1.96,1.49 3.12,1.49c5.29,0 11.36,-8.08 13.45,-13.2c0.76,3.06 2.33,6.42 3.79,9.05c1.46,2.63 3.52,5.86 4.83,5.38c1.47,-0.53 2.47,-2.47 2.76,-3.49c0.39,-1.3 -0.19,-1.51 -2.92,-5.89c-2.72,-4.39 -4.35,-11.4 -4.61,-13.6c-0.18,-1.6 -0.77,-2.74 -2.34,-1.3c-0.97,0.9 -1.94,1.74 -2.17,2.8c-0.43,1.98 -1.67,5.13 -3.54,7.98c-1.69,2.59 -5.89,5.54 -7.68,5.54c-3.93,0 -3.55,-17.09 -3.55,-19.69c0,-2.6 -0.54,-3.48 -2.19,-3.48c-0.76,0 -2.42,1.38 -3.23,2.23c-0.82,0.86 -0.69,1.58 -0.69,4.27" style="fill:#a20b31;fill-rule:nonzero;"/><path d="M100.383,61.97c-5.3,0 -8.72,-4.65 -10.65,-8.55c-2.2,-4.44 -3.24,-9.75 -3.56,-12.69c-0.12,-1.17 -0.24,-2.47 0.05,-3.15c0.45,-1.07 5.22,-3.72 5.38,-3.33c0.17,0.39 0.1,2.58 0.19,3.81c0.35,4.6 1.33,9.29 2.68,12.85c1.48,3.91 3.25,6.07 5.01,6.07c0.89,0 2.28,-1.92 3.5,-7.3c1.1,-4.89 1.74,-8.2 1.74,-14.49c0,-5.53 -0.93,-13.85 -2.09,-15.04l-0.13,0.09c-3.74,2.67 -8.39,5.98 -15.06,5.98c-5.09,0 -6.9,-4.99 -6.9,-9.66c0,-2.88 1.46,-6.96 3.72,-10.4c2.53,-3.86 5.48,-6.07 8.09,-6.08c2.74,0 6.17,2.11 7.77,4.06c0.95,1.16 1.38,3.46 0.8,4.32c-0.59,0.87 -2.11,1.63 -3.79,1.91c-0.17,0.03 -0.33,0.04 -0.48,0.04c-1.11,0 -1.68,-0.7 -2.18,-1.32c-0.13,-0.16 -0.25,-0.31 -0.38,-0.45c-1.13,-1.21 -2.14,-1.9 -2.78,-1.9c-3.4,0 -5.76,4.93 -5.76,9.36c0,4.34 4.95,4.46 5,4.46c2.66,0 6.59,-1.02 8.95,-2.33c2.55,-1.41 3.86,-2.29 5.19,-3.5c0.17,-0.15 0.36,-0.23 0.57,-0.23c1.7,0 3.52,5.42 4.04,7.08c1.4,4.5 1.66,9.56 1.66,13.53c0,4.55 -0.59,10.19 -2.23,16.18c-1.92,6.98 -4.8,10.68 -8.33,10.68" style="fill:#a20b31;fill-rule:nonzero;"/><path d="M138.533,20.01c-0.58,0.55 -2.32,2.09 -4.89,3.35c-2.58,1.27 -4.35,1.83 -8.71,1.42c-5.75,-0.54 -8.64,-4.1 -8.92,-8.37c8.21,0 15.25,-3.52 15.25,-10.89c0,-2.82 -2.37,-5.52 -8.43,-5.52c-4.87,0 -12.75,5.55 -12.75,15.84c0,10.29 7.48,13.98 12.35,14.14c7.78,0.25 13.65,-3.81 15.26,-6.49c0.36,-0.6 1.73,-4.34 0.83,-3.49m-16.75,-15.55c2.31,0 3.97,1.12 3.97,2.46c0,4.32 -4.16,6.59 -9.82,6.67c0.21,-5.37 3.13,-9.13 5.85,-9.13" style="fill:#a20b31;fill-rule:nonzero;"/></svg>