<?xml version="1.0" encoding="UTF-8" standalone="no"?>
<!DOCTYPE svg PUBLIC "-//W3C//DTD SVG 1.1//EN" "http://www.w3.org/Graphics/SVG/1.1/DTD/svg11.dtd">
<svg width="100%" height="100%" viewBox="0 0 336 310" version="1.1" xmlns="http://www.w3.org/2000/svg" xmlns:xlink="http://www.w3.org/1999/xlink" xml:space="preserve" xmlns:serif="http://www.serif.com/" style="fill-rule:evenodd;clip-rule:evenodd;stroke-linejoin:round;stroke-miterlimit:2;">
    <g transform="matrix(4.166667,0,0,4.166667,0,0)">
        <g transform="matrix(1,0,0,1,-6,-3.2)">
            <path d="M58.7,61.5C58.7,61.5 66.8,60.4 69.4,60.3C74.1,60.1 76.4,62 76.4,65.5C76.4,68.9 74.1,70.3 69.4,70.3L58.7,70.3L58.7,61.5ZM49.2,77.5L69.9,77.5C73.3,77.5 76.9,77.6 79.1,76.7C81.3,75.9 82.4,75 83.8,73.3C85.4,71.3 86.1,68.3 86.1,66C86.1,63.3 85.6,60.7 83.6,58.5C83.2,58 83,57.5 83.2,56.8C83.4,56.1 85.4,55.1 86.5,54.7C70.4,55.4 58.8,56.9 49.3,58.8L49.2,77.5Z" style="fill-rule:nonzero;"/>
            <path d="M43.3,64.4C43.2,64 42.9,63.1 43.2,62C43.6,60.8 45.7,59.6 46.1,59.4C46,59.4 44.7,59.7 44.6,59.7C42,60.3 41.4,60.4 39.4,60.9C36.3,61.7 22.5,64.9 10.6,71.5C10.6,71.5 10.2,72.5 10.2,72.6C8.6,76.6 6,77.5 6,77.5L18.1,77.5L20.1,71.8C20.5,70.9 22,69.4 23.8,69.2L35.2,67.8L38.5,77.6L48,77.6L43.3,64.4Z" style="fill-rule:nonzero;"/>
            <path d="M57.9,37.5L45.5,37.5L45.5,37.7C47.1,38.4 49.2,40.3 49.2,43.7L49.2,53.6C52.7,53.3 54.8,53.1 58.7,52.8L58.7,44.3L67,44.3C71.4,44.3 73.7,45.8 73.7,48.8C73.7,50.6 71.9,51.5 69.5,52.2C70.8,52.2 72.3,52.1 73.6,52.1C77.6,51.8 80,51.7 82,49.2C83.7,47.1 83.6,44.3 82.5,42.5C81.7,41.2 80.9,40.3 79.6,39.5C78.2,38.6 75.3,37.9 72.2,37.6C70.1,37.6 60.4,37.5 57.9,37.5" style="fill:rgb(227,6,19);fill-rule:nonzero;"/>
            <path d="M28.2,46.7L31.4,56.3C34.2,55.7 37.1,55.3 40,54.9L33.9,37.6L19,37.6L19,37.9C20.1,38.4 22.1,39.9 20.9,43.8L14.8,60.4C17.4,59.6 22.1,58.4 24.9,57.8L28.2,46.7Z" style="fill:rgb(227,6,19);fill-rule:nonzero;"/>
            <path d="M38.1,17.1C36.7,16.2 34.1,14.5 32.3,11.2C32.1,14.5 30.6,17 29.7,18.3C30.4,18.5 31,18.6 31.8,18.6C34.4,18.9 36.4,18.3 38.1,17.1" style="fill:rgb(255,204,0);fill-rule:nonzero;"/>
            <path d="M60.6,18.6C61.3,18.5 62,18.4 62.7,18.3C61.8,17 60.3,14.5 60.1,11.2C58.3,14.5 55.6,16.3 54.3,17.1C56,18.3 58.1,18.9 60.6,18.6" style="fill:rgb(255,204,0);fill-rule:nonzero;"/>
            <path d="M46.2,27.4C53.6,27.4 60.3,28.8 65.4,31.1L65.5,31.1C67.3,26.3 74.5,9.9 74.5,9.9C73.4,11 68.6,19.7 60.1,20.4C51.7,21.1 48.3,12.7 46.2,3.2C44.1,12.6 40.8,21.1 32.3,20.4C23.9,19.7 19.1,11 18,9.9C18,9.9 25.2,26.3 27,31.1C32,28.8 38.8,27.4 46.2,27.4" style="fill:rgb(255,204,0);fill-rule:nonzero;"/>
        </g>
    </g>
</svg>
