<?xml version="1.0" encoding="UTF-8" standalone="no"?>
<!DOCTYPE svg PUBLIC "-//W3C//DTD SVG 1.1//EN" "http://www.w3.org/Graphics/SVG/1.1/DTD/svg11.dtd">
<svg width="100%" height="100%" viewBox="0 0 546 546" version="1.1" xmlns="http://www.w3.org/2000/svg" xmlns:xlink="http://www.w3.org/1999/xlink" xml:space="preserve" xmlns:serif="http://www.serif.com/" style="fill-rule:evenodd;clip-rule:evenodd;stroke-linejoin:round;stroke-miterlimit:2;">
    <g transform="matrix(4.166667,0,0,4.166667,0,0)">
        <g transform="matrix(1,0,0,1,-469.188,0)">
            <path d="M508.963,112.042C511.486,112.042 513.444,110.084 513.444,107.561C513.444,105.042 511.486,102.799 508.963,102.799C506.444,102.799 504.201,105.042 504.201,107.561C504.201,110.084 506.444,112.042 508.963,112.042ZM508.963,36.133C506.444,36.133 504.201,38.374 504.201,40.895C504.201,43.416 506.444,45.657 508.963,45.657C511.486,45.657 513.444,43.416 513.444,40.895C513.444,38.374 511.486,36.133 508.963,36.133ZM492.159,102.239C489.355,102.239 487.117,104.762 487.117,107.561C487.117,110.364 489.355,112.884 492.159,112.884C495.238,112.884 497.477,110.364 497.477,107.561C497.478,104.762 495.238,102.239 492.159,102.239ZM492.159,95.519C494.678,95.519 496.921,93.557 496.921,90.757C496.921,88.234 494.678,86.272 492.159,86.272C489.636,86.272 487.678,88.234 487.678,90.757C487.678,93.556 489.636,95.519 492.159,95.519ZM558.823,86.272C556.303,86.272 554.342,88.234 554.342,90.757C554.342,93.556 556.304,95.519 558.823,95.519C561.345,95.519 563.585,93.557 563.585,90.757C563.585,88.234 561.346,86.272 558.823,86.272ZM492.159,78.15C494.397,78.15 496.36,76.47 496.36,74.229C496.36,71.987 494.397,70.307 492.159,70.307C489.916,70.307 488.238,71.987 488.238,74.229C488.238,76.47 489.916,78.15 492.159,78.15ZM508.963,94.958C511.206,94.958 512.884,92.996 512.884,90.757C512.884,88.795 511.206,86.833 508.963,86.833C506.725,86.833 504.763,88.795 504.763,90.757C504.763,92.996 506.725,94.958 508.963,94.958ZM542.299,94.958C544.538,94.958 546.22,92.996 546.22,90.757C546.22,88.795 544.538,86.833 542.299,86.833C540.057,86.833 538.098,88.795 538.098,90.757C538.098,92.996 540.057,94.958 542.299,94.958ZM508.963,53.5C506.725,53.5 504.763,55.46 504.763,57.422C504.763,59.661 506.725,61.623 508.963,61.623C511.206,61.623 512.884,59.661 512.884,57.422C512.884,55.461 511.206,53.5 508.963,53.5ZM542.299,61.624C544.538,61.624 546.22,59.662 546.22,57.423C546.22,55.461 544.538,53.501 542.299,53.501C540.057,53.501 538.098,55.461 538.098,57.423C538.098,59.662 540.057,61.624 542.299,61.624ZM508.963,70.867C507.005,70.867 505.323,72.268 505.323,74.229C505.323,76.19 507.005,77.591 508.963,77.591C510.646,77.591 512.327,76.189 512.327,74.229C512.327,72.269 510.646,70.867 508.963,70.867ZM475.631,117.646C471.99,117.646 469.188,120.729 469.188,124.089C469.188,127.73 471.991,130.81 475.631,130.81C479.271,130.81 482.075,127.73 482.075,124.089C482.075,120.729 479.271,117.646 475.631,117.646ZM475.631,84.313C471.99,84.313 469.188,87.393 469.188,90.757C469.188,94.398 471.991,97.477 475.631,97.477C479.271,97.477 482.075,94.397 482.075,90.757C482.075,87.393 479.271,84.313 475.631,84.313ZM475.631,50.979C471.99,50.979 469.188,54.061 469.188,57.422C469.188,61.063 471.991,64.144 475.631,64.144C479.271,64.144 482.075,61.062 482.075,57.422C482.075,54.061 479.271,50.979 475.631,50.979ZM508.963,117.646C505.323,117.646 502.524,120.729 502.524,124.089C502.524,127.73 505.324,130.81 508.963,130.81C512.327,130.81 515.407,127.73 515.407,124.089C515.407,120.729 512.327,117.646 508.963,117.646ZM542.299,117.646C538.655,117.646 535.856,120.729 535.856,124.089C535.856,127.73 538.656,130.81 542.299,130.81C545.659,130.81 548.739,127.73 548.739,124.089C548.739,120.729 545.659,117.646 542.299,117.646ZM525.491,103.641C523.252,103.641 521.57,105.323 521.57,107.561C521.57,109.804 523.252,111.482 525.491,111.482C527.733,111.482 529.692,109.804 529.692,107.561C529.692,105.322 527.733,103.641 525.491,103.641ZM525.491,94.397C527.453,94.397 528.851,92.715 528.851,90.756C528.851,89.074 527.453,87.673 525.491,87.673C523.809,87.673 522.131,89.074 522.131,90.756C522.131,92.715 523.81,94.397 525.491,94.397ZM525.491,77.03C527.173,77.03 528.291,75.909 528.291,74.229C528.291,72.828 527.173,71.426 525.491,71.426C524.09,71.426 522.691,72.827 522.691,74.229C522.691,75.909 524.09,77.03 525.491,77.03ZM508.963,19.047C505.884,19.047 503.641,21.288 503.641,24.089C503.641,27.171 505.884,29.41 508.963,29.41C511.767,29.41 514.005,27.171 514.005,24.089C514.005,21.288 511.767,19.047 508.963,19.047ZM508.963,13.444C512.047,13.444 514.847,10.643 514.847,7.561C514.847,4.201 512.047,1.68 508.963,1.68C505.604,1.68 503.084,4.201 503.084,7.561C503.084,10.643 505.604,13.444 508.963,13.444ZM575.631,85.713C572.552,85.713 570.309,87.954 570.309,90.757C570.309,93.837 572.552,96.076 575.631,96.076C578.431,96.076 580.673,93.837 580.673,90.757C580.673,87.954 578.431,85.713 575.631,85.713ZM592.159,84.872C589.075,84.872 586.276,87.673 586.276,90.757C586.276,94.117 589.075,96.636 592.159,96.636C595.518,96.636 598.038,94.117 598.038,90.757C598.038,87.673 595.519,84.872 592.159,84.872ZM558.823,35.573C556.023,35.573 553.501,38.094 553.501,40.895C553.501,43.697 556.023,46.218 558.823,46.218C561.626,46.218 564.145,43.697 564.145,40.895C564.146,38.094 561.626,35.573 558.823,35.573ZM575.631,17.646C571.99,17.646 569.188,20.728 569.188,24.089C569.188,27.73 571.991,30.811 575.631,30.811C578.991,30.811 582.075,27.729 582.075,24.089C582.075,20.727 578.991,17.646 575.631,17.646ZM592.159,15.405C596.36,15.405 600,11.764 600,7.561C600,3.36 596.36,0 592.159,0C587.954,0 584.594,3.36 584.594,7.561C584.594,11.764 587.954,15.405 592.159,15.405Z" style="fill:rgb(196,0,64);"/>
        </g>
    </g>
</svg>
