<?xml version="1.0" encoding="UTF-8" standalone="no"?><!DOCTYPE svg PUBLIC "-//W3C//DTD SVG 1.1//EN" "http://www.w3.org/Graphics/SVG/1.1/DTD/svg11.dtd"><svg width="100%" height="100%" viewBox="0 0 61 50" version="1.1" xmlns="http://www.w3.org/2000/svg" xmlns:xlink="http://www.w3.org/1999/xlink" xml:space="preserve" xmlns:serif="http://www.serif.com/" style="fill-rule:evenodd;clip-rule:evenodd;stroke-linejoin:round;stroke-miterlimit:2;"><g><g><clipPath id="_clip1"><rect x="-149.947" y="0" width="210.563" height="50"/></clipPath><g clip-path="url(#_clip1)"><path d="M24.396,26.112l-0.221,-0.748c-0.421,-1.653 -1.138,-3.213 -2.168,-4.57l0,-0.016c-0.124,-0.172 -0.233,-0.313 -0.311,-0.406c-2.948,-3.478 -6.755,-6.177 -11.107,-7.768c-0.67,-0.25 -1.341,-0.467 -2.043,-0.654l-0.004,0.01c-0.733,1.263 -1.335,2.593 -1.85,3.982c2.371,0.78 4.57,1.872 6.598,3.244c1.451,0.983 2.793,2.106 4.025,3.354c0.609,0.624 1.2,1.279 1.746,1.965c0.031,0.031 0.047,0.063 0.078,0.109c0.484,0.577 1.201,0.953 2.012,0.953c0.578,0 1.108,-0.188 1.529,-0.5l0.016,0c0.421,1.716 0.997,3.37 1.73,4.93c0.702,1.513 1.545,2.963 2.512,4.32c0.266,0.374 1.405,1.809 1.686,2.137c0.234,0.281 0.483,0.53 0.732,0.795c0.312,0.328 0.625,0.655 0.953,0.967c0.312,-0.296 0.606,-0.608 0.902,-0.92c-0.312,-0.328 -0.606,-0.671 -0.902,-1.014l-0.018,-0.031c-0.265,-0.281 -0.545,-0.592 -0.795,-0.889c-0.312,-0.359 -1.528,-1.934 -1.793,-2.355c-1.342,-1.981 -2.419,-4.149 -3.168,-6.457c-0.047,-0.156 -0.092,-0.297 -0.139,-0.438Zm0.128,-26.108c-0.084,0.007 -0.168,0.022 -0.252,0.043l-0.031,0c-0.172,0.047 -0.344,0.094 -0.516,0.141c-0.203,0.047 -0.404,0.109 -0.607,0.172c-0.125,0.031 -0.235,0.063 -0.344,0.109l-0.842,0.279c-0.187,0.062 -0.375,0.141 -0.562,0.203c-0.172,0.062 -0.359,0.141 -0.531,0.203c-0.031,0.016 -0.076,0.031 -0.107,0.047c1.872,2.309 3.353,4.929 4.367,7.783c0.421,1.185 0.764,2.402 1.014,3.635c0.093,0.468 0.172,0.936 0.25,1.389l0,0.062c0.078,0.437 0.249,0.842 0.514,1.17c0.343,0.452 0.828,0.795 1.389,0.92c-0.062,0.733 -0.094,1.482 -0.094,2.23c0,1.014 0.063,2.027 0.172,3.025c0.219,1.903 0.624,3.759 1.201,5.521c0.219,0.655 0.452,1.28 0.717,1.92c0.234,-0.561 0.453,-1.14 0.656,-1.717c-0.265,-0.858 -0.485,-1.716 -0.656,-2.605l0.016,0.031c-0.483,-1.965 -0.732,-4.023 -0.732,-6.145l0,-0.594c0,-0.593 0.047,-1.185 0.109,-1.777c0,-0.094 0,-0.53 0.016,-1.014l0,-0.904c0,-0.39 0.016,-0.703 0,-0.812c0,-0.343 -0.172,-2.215 -0.172,-2.246c-0.031,-0.25 -0.062,-0.499 -0.109,-0.748c-0.436,-2.964 -1.373,-5.772 -2.715,-8.346c-0.218,-0.406 -0.436,-0.811 -0.67,-1.201c-0.313,-0.532 -0.89,-0.825 -1.479,-0.775l-0.002,0.001Zm11.568,0c-0.589,-0.047 -1.165,0.257 -1.465,0.775c-0.249,0.421 -0.514,0.889 -0.686,1.217c-1.341,2.574 -2.276,5.366 -2.713,8.346c-0.031,0.25 -0.078,0.498 -0.109,0.748c0,0.031 -0.172,1.903 -0.172,2.246l0,1.717c0,0.484 0.016,0.92 0.016,1.014c0.046,0.499 0.079,1.015 0.094,1.514l0,0.842c0,0.281 -0.001,0.577 -0.016,0.857c-0.063,1.934 0.03,3.884 0.451,5.787c0,0.047 0.016,0.094 0.031,0.141c0.562,-2.168 0.857,-4.445 0.857,-6.77c0,-0.764 -0.03,-1.497 -0.092,-2.23c0.062,0 0.124,-0.031 0.188,-0.047c0.499,-0.14 0.918,-0.452 1.23,-0.873c0.265,-0.343 0.438,-0.733 0.516,-1.17l0,-0.062c0.062,-0.468 0.157,-0.936 0.25,-1.389c0.25,-1.248 0.592,-2.465 0.998,-3.635c1.013,-2.839 2.495,-5.475 4.367,-7.783l-0.016,0l0.016,-0.047c0,0 -0.062,-0.016 -0.094,-0.047c-0.171,-0.062 -0.359,-0.141 -0.531,-0.203c-0.187,-0.078 -0.374,-0.141 -0.561,-0.203l-0.842,-0.279c-0.109,-0.047 -0.235,-0.078 -0.344,-0.109c-0.203,-0.062 -0.404,-0.125 -0.607,-0.172c-0.172,-0.047 -0.344,-0.094 -0.516,-0.141c-0.084,-0.021 -0.168,-0.036 -0.252,-0.043l0.002,-0.001Zm8.629,3.896c-1.216,0.858 -2.371,1.824 -3.416,2.869c-2.62,2.605 -4.711,5.756 -6.068,9.266c-0.063,0.14 -0.11,0.266 -0.156,0.406c-0.063,0.171 -0.156,0.499 -0.266,0.904c-0.499,1.778 -1.046,4.976 -1.186,5.615c-0.031,0.125 -0.046,0.266 -0.061,0.391c-0.422,2.277 -1.156,4.445 -2.154,6.473c-0.14,0.312 -0.295,0.608 -0.467,0.92c0.234,0.468 0.499,0.905 0.764,1.357c0.125,-0.218 0.25,-0.422 0.359,-0.641c1.638,-3.026 2.73,-6.395 3.104,-9.967l0.031,0c0.172,0.031 0.328,0.063 0.453,0.078l0.248,0c1.061,-0.062 1.95,-0.748 2.293,-1.715c0.187,-0.499 0.39,-0.983 0.609,-1.467c0.592,-1.357 1.31,-2.653 2.137,-3.885c1.965,-2.948 4.507,-5.474 7.471,-7.439l-0.016,0l0,-0.031c-1.123,-1.154 -2.354,-2.214 -3.664,-3.135l-0.016,0l0.001,0.001Zm-28.811,0.016l0,0.016c-1.325,0.936 -2.574,1.981 -3.697,3.15c2.963,1.95 5.508,4.491 7.473,7.439c0.811,1.232 1.529,2.528 2.137,3.885c0.234,0.484 0.42,0.968 0.607,1.467c0.375,0.998 1.326,1.715 2.465,1.715c0.125,0 0.328,-0.031 0.562,-0.094c0.187,1.809 0.56,3.573 1.09,5.258c0.531,1.638 1.187,3.212 1.998,4.693c0.25,0.484 0.53,0.952 0.811,1.404c0.047,0.078 0.109,0.156 0.156,0.25c0.265,0.406 0.53,0.811 0.811,1.201c0.281,-0.39 0.532,-0.764 0.781,-1.17c-0.281,-0.421 -0.531,-0.858 -0.781,-1.311l-0.031,0c-0.094,-0.156 -0.171,-0.297 -0.264,-0.438c-0.297,-0.515 -0.564,-1.028 -0.812,-1.543c-0.983,-2.028 -1.715,-4.197 -2.152,-6.475c-0.015,-0.125 -0.048,-0.264 -0.062,-0.389c0,-0.062 -0.014,-0.125 -0.029,-0.188c-0.281,-1.825 -0.657,-3.65 -1.156,-5.428c-0.109,-0.405 -0.219,-0.733 -0.266,-0.904c-0.047,-0.14 -0.091,-0.266 -0.154,-0.406c-1.357,-3.51 -3.447,-6.661 -6.068,-9.266c-1.045,-1.061 -2.199,-2.011 -3.416,-2.869l-0.003,0.003Zm36.141,8.033l0,0.016l-0.031,0c-0.67,0.187 -1.326,0.405 -1.965,0.639c-4.352,1.591 -8.173,4.289 -11.105,7.768c-0.078,0.094 -0.188,0.235 -0.312,0.406l-0.016,0c-1.029,1.373 -1.747,2.933 -2.168,4.586c-0.031,0.109 -0.062,0.217 -0.078,0.326c-0.002,0.011 -0.005,0.02 -0.008,0.031c-0.05,0.094 -0.09,0.188 -0.117,0.281c0,0.016 -0.001,0.031 -0.016,0.047c0,0.016 0,0.031 -0.016,0.047c-0.748,2.48 -1.872,4.804 -3.307,6.91c-0.28,0.406 -0.561,0.811 -0.857,1.201c-0.016,0.016 -0.032,0.047 -0.047,0.062c-0.281,0.374 -0.578,0.733 -0.875,1.076c-0.015,0.016 -0.045,0.063 -0.076,0.078c0.281,0.359 0.592,0.686 0.904,1.029c0,-0.016 0.031,-0.031 0.031,-0.047c0.281,-0.328 1.419,-1.762 1.684,-2.137c0.967,-1.341 1.81,-2.792 2.512,-4.32c0.281,-0.593 0.53,-1.187 0.764,-1.795c0.39,-1.014 0.718,-2.059 0.967,-3.135c0.219,0.156 0.454,0.281 0.719,0.375c0.265,0.094 0.529,0.125 0.826,0.125c0.312,0 0.608,-0.047 0.873,-0.141c0.172,-0.062 0.344,-0.157 0.5,-0.25c0.156,-0.109 0.298,-0.219 0.438,-0.359c0.062,-0.062 0.124,-0.125 0.186,-0.203c0.031,-0.031 0.063,-0.063 0.078,-0.109c0.546,-0.686 1.14,-1.341 1.748,-1.965c1.17,-1.186 2.449,-2.261 3.822,-3.213c0.062,-0.047 0.124,-0.094 0.186,-0.141c0.203,-0.14 0.391,-0.264 0.609,-0.389c1.077,-0.686 2.199,-1.311 3.369,-1.826c0.842,-0.39 1.732,-0.733 2.621,-1.029c-0.493,-1.356 -1.094,-2.666 -1.816,-3.9c0.009,-0.006 0.015,-0.006 0.021,-0.014l-0.029,0c-0.006,-0.01 -0.012,-0.021 -0.018,-0.031l-0.001,0.001Zm2.949,8.328l0.008,0.016c0.016,0 0.042,-0.002 0.07,-0.016l-0.078,0Zm0.008,0.016l-0.008,0c-0.072,0.014 -0.142,0.032 -0.213,0.047c0.018,-0.002 0.036,-0.005 0.055,-0.008c-0.203,0.04 -0.406,0.084 -0.605,0.133c-0.205,0.05 -0.408,0.107 -0.609,0.166c0.201,-0.06 0.405,-0.115 0.609,-0.166c0.182,-0.046 0.366,-0.087 0.551,-0.125c-2.193,0.285 -4.312,0.84 -6.293,1.623c-3.244,1.279 -6.177,3.197 -8.641,5.568c-0.234,0.234 -0.469,0.452 -0.688,0.686c-0.405,0.421 -0.81,0.858 -1.184,1.311c-0.063,0.078 -0.173,0.219 -0.297,0.375c-0.64,0.889 -1.185,1.824 -1.668,2.807c-0.03,0.087 -0.072,0.161 -0.115,0.246c-0.01,0.011 -0.018,0.024 -0.027,0.035c-0.062,0.094 -0.125,0.188 -0.203,0.281c0,0 -0.03,0.047 -0.045,0.078c-0.016,0.031 -0.032,0.063 -0.047,0.094c-0.016,0.047 -0.047,0.078 -0.062,0.125c0,0.016 -0.015,0.029 -0.031,0.045c-0.327,0.608 -0.686,1.218 -1.076,1.811c-0.218,0.328 -0.438,0.655 -0.672,0.967c-0.047,0.062 -0.093,0.141 -0.156,0.219c-0.109,0.14 -0.202,0.28 -0.311,0.42c-0.125,0.156 -0.249,0.313 -0.359,0.453c-0.109,0.156 -0.233,0.282 -0.357,0.438c-0.094,0.094 -0.172,0.186 -0.25,0.295c-0.296,0.343 -0.594,0.672 -0.906,1c-0.109,0.125 -0.233,0.233 -0.342,0.357c0.312,0.312 0.639,0.624 0.982,0.92c0.14,-0.14 0.28,-0.28 0.42,-0.42c0.312,-0.328 0.624,-0.67 0.92,-0.998c0.094,-0.109 0.19,-0.203 0.268,-0.312c0.093,-0.109 0.17,-0.219 0.264,-0.312c0.093,-0.125 0.188,-0.233 0.297,-0.357c0.094,-0.125 0.187,-0.25 0.281,-0.375c0.047,-0.062 0.078,-0.109 0.125,-0.172c0.046,-0.062 0.092,-0.125 0.123,-0.172c0.063,-0.094 0.124,-0.172 0.188,-0.266c0.124,-0.172 0.25,-0.358 0.375,-0.529c0.936,-1.373 1.747,-2.838 2.418,-4.367l0.094,0c0.125,0.031 0.263,0.047 0.404,0.047l0.125,0c0.046,0 0.094,0 0.125,-0.016c0.515,-0.078 0.999,-0.313 1.404,-0.656c0.141,-0.125 0.298,-0.248 0.438,-0.357c0.296,-0.234 0.592,-0.469 0.904,-0.703c1.17,-0.873 2.416,-1.638 3.742,-2.309c1.373,-0.702 2.825,-1.278 4.338,-1.73l0.016,0c0.312,-0.109 0.654,-0.188 0.982,-0.281c0.671,-0.172 1.357,-0.328 2.043,-0.438c0.687,-0.125 1.388,-0.217 2.09,-0.279c0.312,-0.031 0.639,-0.063 0.951,-0.078c0.015,-0.312 0.016,-0.625 0.016,-0.922c0,-1.419 -0.125,-2.807 -0.344,-4.164l-0.029,-0.016l-0.008,-0.016l-0.002,-0.003Zm-49.486,0c-0.002,0.011 -0.002,0.022 -0.004,0.033l-0.002,0c-0.23,1.347 -0.336,2.723 -0.336,4.146c0,0.312 -0.001,0.626 0.014,0.922c3.728,0.218 7.254,1.2 10.42,2.807c1.31,0.671 2.558,1.435 3.744,2.309c0.312,0.218 0.608,0.454 0.904,0.703c0.156,0.125 0.298,0.233 0.438,0.357c0.406,0.328 0.889,0.578 1.404,0.656c0.078,0.016 0.17,0.031 0.248,0.031c0.172,0 0.344,-0.016 0.5,-0.047c0.67,1.529 1.482,2.995 2.418,4.367c0.125,0.172 0.234,0.358 0.375,0.529c0.062,0.094 0.123,0.172 0.186,0.266c0.078,0.125 0.172,0.235 0.25,0.344c0.188,0.25 0.39,0.483 0.578,0.732c0.171,0.218 0.342,0.422 0.529,0.641c0.296,0.343 0.593,0.671 0.92,0.998c0.375,0.39 0.765,0.764 1.154,1.139c0.328,0.312 0.67,0.608 1.029,0.904c0.343,-0.281 0.656,-0.561 0.984,-0.857c-0.328,-0.296 -0.656,-0.608 -0.984,-0.936l-0.016,-0.016c-0.39,-0.359 -0.763,-0.717 -1.137,-1.107c-0.312,-0.328 -0.625,-0.657 -0.906,-1c-0.218,-0.234 -0.42,-0.483 -0.607,-0.717c-0.234,-0.296 -0.469,-0.592 -0.672,-0.889c-0.062,-0.062 -0.109,-0.141 -0.156,-0.219c-0.234,-0.312 -0.451,-0.624 -0.67,-0.967c-0.39,-0.593 -0.748,-1.202 -1.076,-1.811c-0.016,-0.031 -0.031,-0.061 -0.062,-0.092c-0.032,-0.062 -0.063,-0.109 -0.094,-0.172c0,-0.016 -0.031,-0.047 -0.047,-0.062c-0.022,-0.03 -0.041,-0.06 -0.062,-0.09c-0.071,-0.141 -0.142,-0.284 -0.219,-0.426l0.033,-0.031c-0.468,-0.983 -1.031,-1.933 -1.67,-2.807c-0.125,-0.172 -0.219,-0.297 -0.297,-0.375c-0.374,-0.452 -0.765,-0.889 -1.186,-1.311c-0.234,-0.234 -0.452,-0.467 -0.701,-0.686c-2.465,-2.387 -5.398,-4.289 -8.643,-5.568c-1.946,-0.776 -4.018,-1.329 -6.174,-1.613c-0.136,-0.03 -0.271,-0.062 -0.408,-0.088l0.001,0.003Zm34.74,2.176l-0.127,0.031c0.042,-0.012 0.084,-0.022 0.127,-0.031Zm-34.912,4.891l0,0.031l0.001,0.01c0.203,1.809 0.655,3.561 1.232,5.214c1.981,0.156 3.916,0.515 5.756,1.076c1.124,0.343 2.2,0.749 3.26,1.248c0.156,0.062 0.328,0.141 0.484,0.219c0.515,0.234 1.015,0.498 1.514,0.779c0.172,0.109 0.342,0.203 0.514,0.297c0.312,0.14 0.655,0.203 1.014,0.203c0.358,0 0.734,-0.094 1.061,-0.234c0.203,-0.094 0.391,-0.203 0.547,-0.312c0.655,1.123 1.404,2.201 2.215,3.215c0.109,0.125 0.202,0.264 0.311,0.389c0.187,0.203 0.485,0.547 0.656,0.766c0.078,0.094 0.156,0.17 0.234,0.264c0,0 0.016,0.031 0.047,0.047c0.094,0.109 0.186,0.219 0.295,0.328c0.312,0.343 0.657,0.671 0.984,0.998c0.421,0.39 0.857,0.78 1.309,1.154c0.375,0.296 0.749,0.592 1.123,0.889c0.359,0.265 0.735,0.532 1.125,0.797c0.062,0.047 0.123,0.078 0.186,0.125c0.67,0.437 1.546,0.452 2.217,0c-0.39,-0.296 -1.967,-1.452 -2.357,-1.732l-0.031,-0.031c-0.374,-0.265 -0.749,-0.561 -1.123,-0.857c-0.437,-0.359 -0.871,-0.733 -1.277,-1.123c-0.343,-0.312 -0.671,-0.639 -0.998,-0.967c-0.156,-0.156 -0.298,-0.313 -0.438,-0.469c-0.156,-0.172 -0.313,-0.326 -0.453,-0.498c-0.156,-0.172 -0.297,-0.344 -0.453,-0.516c-0.156,-0.172 -0.296,-0.36 -0.436,-0.531c-0.188,-0.234 -0.359,-0.467 -0.531,-0.701c-0.171,-0.234 -0.326,-0.452 -0.482,-0.686c-0.037,-0.044 -0.075,-0.086 -0.113,-0.129c-0.077,-0.111 -0.16,-0.24 -0.244,-0.385l-0.002,-0.002c-0.884,-1.37 -1.98,-2.617 -3.275,-3.604c0,0 -0.016,0 -0.016,-0.016c-0.078,-0.062 -0.156,-0.109 -0.234,-0.172c-0.406,-0.296 -0.81,-0.577 -1.232,-0.857c-2.963,-1.934 -6.332,-3.29 -9.951,-3.914c-0.796,-0.14 -1.607,-0.25 -2.434,-0.312l-0.005,-0.001Zm49.898,0.031c-0.015,0.006 -0.03,0.013 -0.045,0.02c-0.811,0.063 -1.606,0.171 -2.387,0.309l0.031,-0.047c-3.619,0.608 -6.989,1.98 -9.953,3.914c-0.421,0.281 -0.826,0.561 -1.232,0.857c-0.078,0.062 -0.154,0.109 -0.232,0.172c0,0 -0.018,0 -0.018,0.016c-1.325,0.998 -2.416,2.262 -3.305,3.65c-0.078,0.125 -0.156,0.25 -0.234,0.344c-0.008,0.012 -0.016,0.02 -0.023,0.031c-0.019,0.021 -0.039,0.047 -0.055,0.062c-0.156,0.234 -0.312,0.467 -0.484,0.686c-0.171,0.25 -0.358,0.485 -0.529,0.719c-0.141,0.172 -0.281,0.358 -0.438,0.529c-0.14,0.172 -0.297,0.344 -0.438,0.516c-0.14,0.172 -0.295,0.326 -0.451,0.498c-0.14,0.156 -0.297,0.313 -0.438,0.469c-0.312,0.328 -0.655,0.655 -0.998,0.967c-0.421,0.39 -0.842,0.764 -1.279,1.123c-0.359,0.296 -0.733,0.577 -1.123,0.857c-0.063,0.047 -0.186,0.125 -0.311,0.234l1.105,0.857c0.125,-0.094 0.25,-0.172 0.359,-0.266c0.374,-0.281 0.749,-0.577 1.123,-0.889c0.452,-0.374 0.889,-0.764 1.295,-1.154c0.343,-0.328 0.671,-0.655 0.998,-0.998c0.109,-0.109 0.219,-0.219 0.297,-0.328c0.016,0 0.032,-0.031 0.047,-0.047c0.109,-0.125 0.233,-0.248 0.342,-0.373c0.188,-0.218 0.376,-0.438 0.547,-0.656c0.11,-0.125 0.22,-0.264 0.312,-0.389c0.811,-1.014 1.56,-2.092 2.215,-3.215c0.156,0.125 0.342,0.234 0.545,0.312c0.328,0.14 0.704,0.234 1.062,0.234c0.359,0 0.702,-0.063 1.014,-0.203c0.171,-0.109 0.343,-0.203 0.514,-0.297c0.5,-0.281 0.999,-0.545 1.514,-0.779c0.155,-0.078 0.326,-0.156 0.482,-0.219c1.045,-0.499 2.137,-0.905 3.26,-1.248c1.825,-0.562 3.759,-0.92 5.74,-1.076c0.078,-0.25 0.172,-0.514 0.25,-0.779c0.047,-0.156 0.094,-0.313 0.141,-0.484c0.063,-0.218 0.125,-0.42 0.172,-0.639c0.261,-1.061 0.476,-2.138 0.602,-3.244l0.006,0l0,-0.031l-0.002,0c0.001,-0.005 0.001,-0.01 0.002,-0.016l0,0.001Zm-16.069,8.131c-0.058,0.037 -0.113,0.077 -0.17,0.115c0.057,-0.038 0.112,-0.079 0.17,-0.115Zm-0.289,0.197c-0.05,0.036 -0.1,0.072 -0.148,0.109c0.049,-0.037 0.098,-0.074 0.148,-0.109Zm-0.287,0.217c-0.04,0.032 -0.078,0.065 -0.117,0.098c0.039,-0.033 0.078,-0.066 0.117,-0.098Z" style="fill:#005843;fill-rule:nonzero;"/><path d="M56.496,38.387c-3.978,0.234 -7.877,0.095 -11.465,0.656c-2.48,0.39 -4.82,1.092 -6.941,2.465c-1.263,0.827 -2.448,1.871 -3.555,3.229c-0.156,0.187 -0.312,0.373 -0.484,0.561c-0.499,0.562 -1.013,1.077 -1.574,1.545c-0.687,0.577 -1.39,1.061 -2.357,1.061l-0.201,0c-0.718,0 -1.296,-0.251 -1.811,-0.625c0.531,0.671 1.046,1.419 1.545,2.246c0.156,0.281 0.405,0.406 0.67,0.406c0.265,0 0.532,-0.141 0.672,-0.406c1.7,-2.808 3.603,-4.694 5.615,-6.02c4.976,-3.244 10.731,-2.98 16.393,-4.135c1.17,-0.25 2.357,-0.546 3.512,-0.951l-0.018,-0.031l-0.001,-0.001Z" style="fill:#005843;fill-rule:nonzero;"/><path d="M60.662,36.406c-0.018,0.012 -0.036,0.022 -0.055,0.033c0.007,-0.001 0.014,-0.001 0.021,-0.002l0.033,-0.031l0.001,0Zm-0.055,0.033c-4.875,0.419 -9.686,0.139 -14.094,0.824c-2.667,0.406 -5.193,1.171 -7.486,2.652c-1.373,0.873 -2.653,2.012 -3.854,3.479c-0.171,0.203 -0.344,0.405 -0.516,0.607c-0.53,0.593 -1.09,1.155 -1.699,1.67c-0.717,0.608 -1.482,1.139 -2.527,1.139l-0.234,0c-1.029,0 -1.809,-0.53 -2.527,-1.139c-0.483,-0.406 -0.95,-0.858 -1.387,-1.326c0.718,0.873 1.309,1.855 1.793,2.9c0.016,0.016 0.031,0.047 0.047,0.062c0.515,0.359 1.094,0.625 1.811,0.625l0.201,0c0.967,0 1.685,-0.499 2.355,-1.061c0.562,-0.468 1.092,-0.983 1.576,-1.545c0.171,-0.187 0.326,-0.373 0.482,-0.561c1.108,-1.357 2.295,-2.402 3.559,-3.229c0.466,-0.301 0.944,-0.566 1.43,-0.807c1.093,-0.407 2.913,-1.097 4.369,-1.451c0.377,-0.077 0.756,-0.147 1.141,-0.207c0.378,-0.059 0.761,-0.107 1.145,-0.152c0.725,-0.081 1.46,-0.144 2.205,-0.193c0.318,-0.021 0.638,-0.04 0.959,-0.057c0.028,-0.001 0.057,-0.002 0.086,-0.004c1.225,-0.058 2.473,-0.089 3.734,-0.123c0.354,-0.004 0.693,-0.011 1.416,-0.045c0.039,-0.002 0.054,-0.002 0.096,-0.004c0.606,-0.021 1.215,-0.045 1.826,-0.078c0.748,-0.265 1.48,-0.577 2.229,-0.936c0.031,-0.016 0.047,-0.031 0.078,-0.031c0.605,-0.303 1.196,-0.636 1.787,-1.012l-0.001,0.003Z" style="fill:#c2342f;fill-rule:nonzero;"/><path d="M26.283,44.315c-0.109,-0.109 -0.218,-0.218 -0.312,-0.343c-0.171,-0.203 -0.343,-0.406 -0.514,-0.608c-0.032,-0.047 -0.063,-0.093 -0.11,-0.125c-1.17,-1.419 -2.417,-2.511 -3.743,-3.354c-2.293,-1.482 -4.82,-2.246 -7.487,-2.652c-4.415,-0.686 -9.234,-0.406 -14.117,-0.827c0.609,0.39 1.217,0.733 1.841,1.045c0.015,0 0.047,0.016 0.078,0.031c1.887,0.92 3.806,1.482 5.74,1.872c0.702,0.14 1.404,0.265 2.106,0.374c4.976,0.78 9.92,0.92 14.288,3.759c1.404,0.92 2.761,2.121 4.024,3.728c-0.484,-1.045 -1.076,-2.028 -1.794,-2.901l-0,0.001Z" style="fill:#b0bcc0;fill-rule:nonzero;"/><path d="M11.231,41.102c4.252,4.767 10.279,7.914 17.037,8.404c-0.09,-0.148 -0.181,-0.282 -0.285,-0.434c-0.267,-0.389 -0.519,-0.728 -0.764,-1.045c-0.021,-0.027 -0.047,-0.078 -0.047,-0.078c-1.138,-1.419 -2.368,-2.564 -3.76,-3.479c-3.334,-2.19 -7.082,-2.673 -11.043,-3.213c-0.391,-0.053 -0.765,-0.109 -1.139,-0.156l0.001,0.001Zm17.037,8.404c0.004,0.006 0.008,0.011 0.012,0.018l0.016,-0.016c-0.009,-0.001 -0.018,-0.001 -0.027,-0.002l-0.001,0Zm20.727,-8.342l-0.672,0.094l0,-0.016c-3.977,0.53 -7.736,1.029 -11.09,3.213c-1.731,1.123 -3.229,2.636 -4.57,4.57c-0.109,0.156 -0.202,0.311 -0.295,0.451c6.598,-0.577 12.462,-3.664 16.627,-8.312Z" style="fill:#9d7614;fill-rule:nonzero;"/></g></g></g></svg>