<?xml version="1.0" encoding="UTF-8" standalone="no"?><!DOCTYPE svg PUBLIC "-//W3C//DTD SVG 1.1//EN" "http://www.w3.org/Graphics/SVG/1.1/DTD/svg11.dtd"><svg width="100%" height="100%" viewBox="0 0 66 40" version="1.1" xmlns="http://www.w3.org/2000/svg" xmlns:xlink="http://www.w3.org/1999/xlink" xml:space="preserve" xmlns:serif="http://www.serif.com/" style="fill-rule:evenodd;clip-rule:evenodd;stroke-linejoin:round;stroke-miterlimit:2;"><g id="Layer-1" serif:id="Layer 1"><g id="g5871"><path id="path4490" d="M28.564,20.961l1.601,-3.2l20.599,0l0,3.2l-22.2,0Z" style="fill:#0063ad;fill-rule:nonzero;"/><path id="path4494" d="M58.545,39.662l-0.599,-0.413l-0.305,-0.019c-1.304,-0.952 -10.364,-7.843 -13.539,-18.315c-3.424,-11.291 -5.084,-15.233 -5.084,-15.233l-14.145,0c0,0 -0.109,0.959 -0.771,2.984c-0.664,2.023 -4.863,8.416 -7.404,11.185c-2.541,2.771 -6.96,5.7 -6.96,5.7c0,0 5.135,3.836 10.443,2.292c5.304,-1.544 9.669,-12.095 11.159,-16.676l1.711,6.235c0,0 2.541,11.719 4.531,15.02c1.407,2.331 3.912,5.609 9.029,6.857c3.336,1.321 11.935,0.384 11.935,0.384" style="fill:#0063ad;fill-rule:nonzero;"/><path id="path4498" d="M24.813,5.753l14.435,0l0.76,2.013l-2.109,-1.007l-0.291,1.684l-1.404,-1.749l-0.877,1.297l-0.82,-1.241l-1.347,1.128l-0.992,-1.128l-1.467,1.128l-1.284,-1.353l-0.763,2.649l-0.587,-2.424l-0.992,1.128l-0.76,-1.353l-1.757,1.523l0.255,-2.295Z" style="fill:#fff;fill-rule:nonzero;"/><path id="path4502" d="M31.354,10.571l1.864,6.787c0.026,0.127 2.56,11.739 4.513,14.981c1.087,1.801 4.385,7.285 13.365,7.285c1.069,0 2.203,-0.08 3.369,-0.229l2.869,-0.185c-1.872,-1.408 -10.361,-8.241 -13.397,-18.248c-3.089,-10.183 -4.756,-14.423 -5.037,-15.116l-13.877,0c-0.055,0.34 -0.237,1.273 -0.757,2.869c-0.688,2.099 -4.931,8.507 -7.44,11.245c-2.22,2.419 -5.901,4.985 -6.795,5.591c0.792,0.537 3.921,2.491 7.517,2.491c0.891,0 1.764,-0.121 2.579,-0.359c4.929,-1.437 9.263,-11.087 11.047,-16.565l0.18,-0.547Zm19.743,29.381c-9.175,0 -12.552,-5.604 -13.664,-7.448c-1.98,-3.288 -4.443,-14.591 -4.551,-15.071l-1.559,-5.676c-1.904,5.609 -6.188,14.813 -11.097,16.243c-0.848,0.245 -1.749,0.373 -2.677,0.373c-4.263,0 -7.883,-2.665 -7.919,-2.693l-0.185,-0.137l0.196,-0.129c0.041,-0.03 4.429,-2.952 6.929,-5.675c2.489,-2.711 6.691,-9.057 7.367,-11.125c0.649,-1.979 0.767,-2.941 0.767,-2.951l0.019,-0.148l14.415,0l0.041,0.104c0.019,0.04 1.704,4.077 5.092,15.249c3.367,11.107 13.533,18.275 13.635,18.343l0.388,0.269l-3.792,0.244c-1.169,0.152 -2.32,0.228 -3.403,0.228" style="fill:#0063ad;fill-rule:nonzero;"/><path id="path4506" d="M18.305,11.785c0,0 -20.768,16.551 -12.528,22.672c8.239,6.124 29.179,-2.48 29.179,-2.48c0,0 -16.735,8.109 -27.46,6.783c-10.732,-1.324 -7.125,-8.357 -6.008,-10.923c1.115,-2.564 6.091,-8.357 12.615,-13.073c6.52,-4.717 4.203,-2.979 4.203,-2.979" style="fill:#03b14d;fill-rule:nonzero;"/><path id="path4510" d="M50.86,0.323c-0.481,0.083 -0.969,0.172 -1.448,0.265c-0.279,0.057 -0.604,0.123 -0.961,0.199c-6.481,1.385 -12.044,3.707 -12.044,3.707c0,0 37.677,-9.461 19.571,13.928l-7.265,7.999c0,0 12.153,-8.341 15.503,-16.581c3.317,-8.172 -2.761,-10.841 -13.355,-9.516" style="fill:#03b14d;fill-rule:nonzero;"/></g></g></svg>