<svg width="200" height="200" xmlns="http://www.w3.org/2000/svg"><title>Air China</title>
   <g>
    <path fill="#ED1C24" clip-rule="evenodd" fill-rule="evenodd" d="m17.4149,73.25368c4.69234,-0.31282 8.4462,3.12822 9.38467,7.50774l0,57.87213c0,16.26676 13.13854,29.71812 29.4053,29.4053c15.95394,0 29.09248,-13.13854 29.4053,-29.4053l0,-41.91819c0,-31.90788 25.65143,-57.55931 57.24649,-57.87213c22.52321,-0.31282 40.66691,-15.3283 45.67206,-36.28739c-11.57443,8.75903 -25.96425,14.38983 -41.60537,14.07701c-3.12822,0 -2.8154,0.31282 -5.31798,0l0.62564,0c-44.42077,0 -79.45688,35.34893 -79.7697,80.08252l0,39.10279l0,-0.62564c0,0.31282 0,0.31282 0,0.62564c0,4.06669 -3.44105,7.50774 -8.13338,7.50774c-4.06669,0 -7.50774,-3.44105 -7.50774,-7.50774c0,-0.31282 0,-0.31282 0,-0.62564l0,-54.11827c0,-5.31798 -4.37951,-9.69749 -9.38467,-9.38467c0.31282,-3.12822 3.12822,-5.31798 5.94362,-5.31798c1.25129,0 2.18976,0.31282 2.8154,0.62564c1.25129,0.31282 2.8154,0.62564 4.06669,0.62564c8.4462,0 15.01547,-6.88209 14.70265,-14.70265c0.31282,-0.31282 0.31282,-0.62564 0,-0.62564c-3.12822,4.37951 -8.4462,7.19491 -14.70265,7.50774c-0.62564,-0.62564 -2.18976,-0.62564 -3.44105,-0.62564c-6.88209,0 -12.51289,5.6308 -12.82572,12.82572l-22.52321,0l0,1.25129l6.56927,0l-0.62564,0" class="st0"/>
    <path fill="#ED1C24" clip-rule="evenodd" fill-rule="evenodd" d="m142.85666,65.74595c-17.20523,0 -30.96941,13.76418 -30.96941,30.96941l0,-0.62564l0,48.48746c0,23.7745 -19.08216,43.16948 -42.85666,42.85666c-16.57958,0 -30.96941,-9.69749 -38.16433,-23.46168c6.56927,6.25645 15.3283,10.32314 25.33861,10.01032c19.39499,0.31282 35.34893,-15.95394 35.66175,-35.66175l0,-41.60537c0,-28.15401 22.83603,-51.30287 50.99004,-50.99004l-1.25129,0c15.01547,0 28.77966,-6.25645 38.78997,-16.26676c-1.56411,20.02063 -18.45652,35.97457 -38.78997,36.28739l1.25129,0" class="st0"/>
    <path fill="#ED1C24" d="m135.66175,110.79236c-0.31282,-4.37951 3.12822,-7.82056 7.50774,-8.13338c4.37951,0 7.82056,3.44105 7.50774,8.13338c0.31282,0.62564 0,1.56411 0,1.87693c-0.31282,1.56411 -1.87693,2.8154 -4.06669,2.8154c-2.18976,0 -3.75387,-1.56411 -3.75387,-3.44105c0,-0.62564 0,-1.25129 0,-1.25129l0,-0.62564c-0.31282,1.87693 -0.62564,3.44105 -0.62564,4.69234c0,7.82056 5.94362,13.76418 13.45136,13.45136c5.31798,0.31282 10.01032,-2.8154 12.20007,-7.50774c1.87693,-3.44105 2.8154,-7.50774 2.8154,-12.20007c0.31282,-14.38983 -11.57443,-25.96425 -26.27708,-26.27708c-14.38983,0 -25.96425,11.88725 -26.27708,26.27708l0,35.66175c0,27.21554 -21.89756,49.11311 -48.80029,49.11311c-3.44105,0 -7.19491,-0.31282 -10.63596,-1.25129l-0.62564,0c6.88209,3.12822 14.70265,5.00516 23.46168,5.31798c29.71812,-0.31282 53.80544,-24.40014 53.49262,-54.43109l0,-32.84635l0.62564,0.62564" class="st1"/>
   </g>
</svg>