<?xml version="1.0" encoding="UTF-8" standalone="no"?>
<!DOCTYPE svg PUBLIC "-//W3C//DTD SVG 1.1//EN" "http://www.w3.org/Graphics/SVG/1.1/DTD/svg11.dtd">
<svg width="100%" height="100%" viewBox="0 0 147 146" version="1.1" xmlns="http://www.w3.org/2000/svg" xmlns:xlink="http://www.w3.org/1999/xlink" xml:space="preserve" xmlns:serif="http://www.serif.com/" style="fill-rule:evenodd;clip-rule:evenodd;stroke-linejoin:round;stroke-miterlimit:2;">
    <g transform="matrix(4.166667,0,0,4.166667,0,0)">
        <g transform="matrix(1,0,0,1,0,-0.5)">
            <path d="M35.163,17.539C31.643,17.539 28.388,16.49 25.652,14.667C26.314,11.477 27.853,8.413 30.347,5.953L29.685,5.294C27.263,7.704 24.234,9.335 20.93,9.967C19.093,7.243 18.045,4.003 18.045,0.5L17.118,0.5C17.118,4.003 16.07,7.243 14.233,9.967C10.934,9.335 7.9,7.704 5.478,5.294L4.816,5.953C7.309,8.413 8.876,11.477 9.511,14.667C6.774,16.49 3.52,17.539 0,17.539L0,18.461C3.52,18.461 6.774,19.505 9.511,21.333C8.876,24.523 7.309,27.587 4.816,30.047L5.478,30.706C7.9,28.296 10.934,26.692 14.233,26.033C16.064,28.757 17.118,31.997 17.118,35.5L18.045,35.5C18.045,31.997 19.098,28.757 20.93,26.033C24.229,26.692 27.263,28.296 29.685,30.706L30.347,30.047C27.853,27.587 26.314,24.523 25.652,21.333C28.388,19.505 31.643,18.461 35.163,18.461L35.163,17.539ZM27.142,8.484C26.044,10.236 25.282,12.136 24.841,14.079C23.594,13.129 22.469,12.037 21.515,10.768C23.523,10.329 25.404,9.577 27.142,8.479M8.021,8.479C9.759,9.571 11.64,10.329 13.648,10.768C12.694,12.031 11.568,13.129 10.322,14.079C9.88,12.13 9.124,10.236 8.021,8.484M8.021,27.516C9.124,25.764 9.88,23.864 10.322,21.915C11.568,22.865 12.694,23.958 13.648,25.226C11.64,25.666 9.759,26.418 8.021,27.516ZM27.142,27.516C25.404,26.423 23.523,25.666 21.515,25.226C22.469,23.958 23.594,22.865 24.841,21.915C25.282,23.864 26.038,25.759 27.142,27.516Z" style="fill:rgb(29,49,105);fill-rule:nonzero;"/>
        </g>
    </g>
</svg>
