<?xml version="1.0" encoding="UTF-8" standalone="no"?>
<!DOCTYPE svg PUBLIC "-//W3C//DTD SVG 1.1//EN" "http://www.w3.org/Graphics/SVG/1.1/DTD/svg11.dtd">
<svg width="100%" height="100%" viewBox="0 0 1592 1941" version="1.1" xmlns="http://www.w3.org/2000/svg" xmlns:xlink="http://www.w3.org/1999/xlink" xml:space="preserve" xmlns:serif="http://www.serif.com/" style="fill-rule:evenodd;clip-rule:evenodd;stroke-linejoin:round;stroke-miterlimit:2;">
    <g transform="matrix(4.166667,0,0,4.166667,0,0)">
        <g id="Small" transform="matrix(1,0,0,1,-17.513286,-15.995495)">
            <path d="M84.225,124.235L192.444,70.118C192.444,70.118 205.865,64.244 192.444,60.706C179.023,57.168 63.052,18.353 63.052,18.353C63.052,18.353 51.4,15.876 44.231,16C37.062,16.124 32.468,16 32.468,16C32.468,16 13.332,17.5 18.353,32.471C23.374,47.442 44.232,117.176 44.232,117.176C44.232,117.176 57.191,146.151 84.225,124.235Z" style="fill:rgb(16,173,228);"/>
        </g>
        <g id="Medium" transform="matrix(1,0,0,1,-17.513286,-15.995495)">
            <path d="M131.277,166.588L253.612,96C253.612,96 275.598,86.212 295.958,112.471C316.318,138.73 394.767,241.882 394.767,241.882C394.767,241.882 414.094,275.312 373.594,260.706C333.094,246.1 131.277,166.588 131.277,166.588Z" style="fill:rgb(75,75,77);"/>
        </g>
        <g id="Large" transform="matrix(1,0,0,1,-17.513286,-15.995495)">
            <path d="M112.456,216L364.183,324.235C364.183,324.235 378.443,328.485 368.883,338.353C359.323,348.221 234.783,467.765 234.783,467.765C234.783,467.765 224.452,481.674 206.552,481.674C188.652,481.674 146.958,467.374 133.621,423.059C120.284,378.744 79.52,239.529 79.52,239.529C79.52,239.529 76.628,200.642 112.456,216Z" style="fill:rgb(16,173,228);"/>
        </g>
    </g>
</svg>
