<?xml version="1.0" encoding="UTF-8" standalone="no"?>
<!DOCTYPE svg PUBLIC "-//W3C//DTD SVG 1.1//EN" "http://www.w3.org/Graphics/SVG/1.1/DTD/svg11.dtd">
<svg width="100%" height="100%" viewBox="0 0 494 221" version="1.1" xmlns="http://www.w3.org/2000/svg" xmlns:xlink="http://www.w3.org/1999/xlink" xml:space="preserve" xmlns:serif="http://www.serif.com/" style="fill-rule:evenodd;clip-rule:evenodd;stroke-linejoin:round;stroke-miterlimit:2;">
    <g transform="matrix(4.166667,0,0,4.166667,0,0)">
        <g transform="matrix(1,0,0,1,-0.216,-0.414)">
            <path d="M81.456,15.658L83.355,15.654C83.516,12.46 84.159,9.578 85.115,7.001L95.662,7.037L95.618,15.629L97.404,15.625L97.427,7.049L107.974,7.083C108.894,9.624 109.506,12.478 109.648,15.599L109.972,15.599L111.206,13.42L109.977,7.083L114.787,7.099L115.852,5.219L109.272,5.211C108.552,3.44 107.712,1.844 106.841,0.414L104.664,0.414C105.611,1.837 106.439,3.462 107.197,5.189L97.427,5.166L97.444,0.414L95.678,0.414L95.662,5.166L85.891,5.129C86.596,3.55 87.332,1.695 88.126,0.414L86.831,0.414L85.893,0.987C85.155,2.242 84.445,3.616 83.819,5.129L79.158,5.104L76.095,6.975L83.113,6.991C82.213,9.578 81.601,12.462 81.455,15.658" style="fill:rgb(209,210,212);fill-rule:nonzero;"/>
        </g>
        <g transform="matrix(1,0,0,1,-0.216,-0.414)">
            <path d="M70.405,15.681C70.486,13.7 70.787,11.76 71.3,9.905L68.56,11.581C68.358,12.866 68.251,14.244 68.249,15.684L70.405,15.681Z" style="fill:rgb(209,210,212);fill-rule:nonzero;"/>
        </g>
        <g transform="matrix(1,0,0,1,-0.216,-0.414)">
            <path d="M118.572,0.414L116.83,0.414C117.176,0.842 117.507,1.282 117.825,1.732L118.572,0.414Z" style="fill:rgb(209,210,212);fill-rule:nonzero;"/>
        </g>
        <g transform="matrix(1,0,0,1,-0.216,-0.414)">
            <path d="M66.98,15.688C67.025,14.543 67.138,13.424 67.314,12.343L65.268,13.592C65.199,14.295 65.155,14.995 65.128,15.692L66.98,15.688Z" style="fill:rgb(209,210,212);fill-rule:nonzero;"/>
        </g>
        <g transform="matrix(1,0,0,1,-0.216,-0.414)">
            <path d="M97.388,18.875L95.611,18.875L95.58,27.05L85.043,27.026C84.162,24.581 83.567,21.84 83.378,18.875L81.483,18.875C81.648,21.84 82.203,24.58 83.042,27.026L72.225,26.967C71.213,24.459 70.617,21.721 70.446,18.875L68.405,18.875C68.946,24.253 70.893,30.117 74.675,34.986L77.292,34.988C75.609,33.166 74.173,31.114 73.06,28.875L83.736,28.896C84.691,31.232 85.838,33.265 87.001,34.995L89.293,34.996C88.033,33.228 86.809,31.192 85.798,28.909L95.58,28.934L95.552,35.001L97.323,35.002L97.346,28.934L102.413,28.946L103.473,27.075L97.355,27.062L97.388,18.875Z" style="fill:rgb(209,210,212);fill-rule:nonzero;"/>
        </g>
        <g transform="matrix(1,0,0,1,-0.216,-0.414)">
            <path d="M62.337,18.875L56.626,18.875L30.317,34.953L67.163,34.98C64.243,29.983 62.724,24.375 62.337,18.875" style="fill:rgb(209,210,212);fill-rule:nonzero;"/>
        </g>
        <g transform="matrix(1,0,0,1,-0.216,-0.414)">
            <path d="M70.64,34.983L73.009,34.985C69.286,30.107 67.401,24.34 67.027,18.875L65.159,18.875C65.494,24.766 67.39,30.307 70.64,34.983" style="fill:rgb(209,210,212);fill-rule:nonzero;"/>
        </g>
        <g transform="matrix(1,0,0,1,-0.216,-0.414)">
            <path d="M95.524,41.109L97.116,38.297L95.537,38.297L95.524,41.109Z" style="fill:rgb(209,210,212);fill-rule:nonzero;"/>
        </g>
        <g transform="matrix(1,0,0,1,-0.216,-0.414)">
            <path d="M75.974,38.293L73.303,38.293C77.784,43.123 83.977,46.643 91.58,48.072L92.596,46.279C85.465,45.03 79.99,42.112 75.974,38.293" style="fill:rgb(209,210,212);fill-rule:nonzero;"/>
        </g>
        <g transform="matrix(1,0,0,1,-0.216,-0.414)">
            <path d="M77.725,38.294C81.519,41.779 86.588,44.37 93.152,45.298L94.28,43.307C89.321,42.896 84.761,41.092 80.978,38.295L77.725,38.294Z" style="fill:rgb(209,210,212);fill-rule:nonzero;"/>
        </g>
        <g transform="matrix(1,0,0,1,-0.216,-0.414)">
            <path d="M69.38,38.292L24.866,38.284L0.216,53.349L88.592,53.349L90.061,50.755C80.549,48.734 73.828,44.118 69.38,38.292" style="fill:rgb(209,210,212);fill-rule:nonzero;"/>
        </g>
        <g transform="matrix(1,0,0,1,-0.216,-0.414)">
            <path d="M91.926,38.296L89.5,38.295C91.388,40.522 93.198,42.122 94.403,43.089L95.259,41.577C94.37,40.823 93.197,39.718 91.926,38.296" style="fill:rgb(209,210,212);fill-rule:nonzero;"/>
        </g>
        <g transform="matrix(1,0,0,1,-0.216,-0.414)">
            <path d="M97.388,18.875L97.355,27.062L103.473,27.075L108.677,17.886L97.392,17.822L97.388,18.875Z" style="fill:rgb(209,50,57);fill-rule:nonzero;"/>
        </g>
        <g transform="matrix(1,0,0,1,-0.216,-0.414)">
            <path d="M95.552,35.001L95.58,28.933L85.797,28.908C86.809,31.192 88.033,33.228 89.293,34.996C90.174,36.233 91.07,37.336 91.927,38.296C93.197,39.718 94.371,40.823 95.26,41.577L95.525,41.108L95.537,38.296L95.552,35.001Z" style="fill:rgb(209,50,57);fill-rule:nonzero;"/>
        </g>
        <g transform="matrix(1,0,0,1,-0.216,-0.414)">
            <path d="M70.375,16.161L81.417,16.22C81.422,16.028 81.447,15.848 81.456,15.658C81.602,12.462 82.213,9.578 83.113,6.991L76.096,6.976L71.301,9.906C70.788,11.76 70.486,13.701 70.405,15.681C70.399,15.842 70.378,16 70.375,16.161" style="fill:rgb(209,50,57);fill-rule:nonzero;"/>
        </g>
        <g transform="matrix(1,0,0,1,-0.216,-0.414)">
            <path d="M85.115,7.001C84.158,9.577 83.515,12.459 83.354,15.654C83.344,15.845 83.318,16.026 83.313,16.219L95.614,16.231L95.618,15.628L95.662,7.037L85.115,7.001Z" style="fill:rgb(209,50,57);fill-rule:nonzero;"/>
        </g>
        <g transform="matrix(1,0,0,1,-0.216,-0.414)">
            <path d="M107.974,7.083L97.427,7.049L97.405,15.625L97.403,16.267L109.575,16.301L109.681,16.113C109.676,15.939 109.656,15.772 109.648,15.599C109.506,12.479 108.894,9.624 107.974,7.083" style="fill:rgb(209,50,57);fill-rule:nonzero;"/>
        </g>
        <g transform="matrix(1,0,0,1,-0.216,-0.414)">
            <path d="M95.662,5.166L95.679,0.415L88.126,0.415C87.332,1.695 86.596,3.55 85.891,5.13L95.662,5.166Z" style="fill:rgb(209,50,57);fill-rule:nonzero;"/>
        </g>
        <g transform="matrix(1,0,0,1,-0.216,-0.414)">
            <path d="M115.851,5.219L117.825,1.732C117.507,1.282 117.176,0.843 116.83,0.415L106.842,0.415C107.712,1.844 108.552,3.441 109.271,5.211L115.851,5.219Z" style="fill:rgb(209,50,57);fill-rule:nonzero;"/>
        </g>
        <g transform="matrix(1,0,0,1,-0.216,-0.414)">
            <path d="M107.198,5.189C106.44,3.462 105.612,1.837 104.665,0.414L97.445,0.414L97.428,5.166L107.198,5.189Z" style="fill:rgb(209,50,57);fill-rule:nonzero;"/>
        </g>
        <g transform="matrix(1,0,0,1,-0.216,-0.414)">
            <path d="M85.894,0.987L79.158,5.104L83.819,5.129C84.446,3.616 85.155,2.242 85.894,0.987" style="fill:rgb(209,50,57);fill-rule:nonzero;"/>
        </g>
        <g transform="matrix(1,0,0,1,-0.216,-0.414)">
            <path d="M111.205,13.42L114.786,7.098L109.976,7.083L111.205,13.42Z" style="fill:rgb(209,50,57);fill-rule:nonzero;"/>
        </g>
        <g transform="matrix(1,0,0,1,-0.216,-0.414)">
            <path d="M95.579,27.05L95.61,18.875L95.614,17.821L83.302,17.796C83.312,18.164 83.354,18.514 83.377,18.875C83.566,21.84 84.161,24.58 85.043,27.025L95.579,27.05Z" style="fill:rgb(209,50,57);fill-rule:nonzero;"/>
        </g>
        <g transform="matrix(1,0,0,1,-0.216,-0.414)">
            <path d="M97.323,35.002L97.312,37.952L102.413,28.946L97.346,28.933L97.323,35.002Z" style="fill:rgb(209,50,57);fill-rule:nonzero;"/>
        </g>
        <g transform="matrix(1,0,0,1,-0.216,-0.414)">
            <path d="M83.042,27.026C82.203,24.58 81.648,21.84 81.482,18.875C81.462,18.515 81.425,18.164 81.417,17.797L70.375,17.762C70.382,18.137 70.423,18.503 70.445,18.875C70.617,21.721 71.213,24.459 72.224,26.967L83.042,27.026Z" style="fill:rgb(209,50,57);fill-rule:nonzero;"/>
        </g>
        <g transform="matrix(1,0,0,1,-0.216,-0.414)">
            <path d="M89.5,38.295C89.208,37.951 88.915,37.593 88.622,37.219C88.09,36.549 87.543,35.801 87.001,34.994C85.838,33.265 84.691,31.232 83.736,28.896L73.06,28.874C74.173,31.114 75.609,33.165 77.292,34.987C78.413,36.201 79.646,37.308 80.978,38.294C84.76,41.091 89.32,42.895 94.28,43.306L94.403,43.088C93.199,42.122 91.389,40.522 89.5,38.295" style="fill:rgb(209,50,57);fill-rule:nonzero;"/>
        </g>
        <g transform="matrix(1,0,0,1,-0.216,-0.414)">
            <path d="M73.303,38.293C72.334,37.248 71.446,36.142 70.64,34.983C67.39,30.307 65.494,24.766 65.159,18.875C65.099,17.824 65.088,16.762 65.129,15.692C65.155,14.995 65.199,14.296 65.269,13.592L62.235,15.447C62.234,15.53 62.236,15.615 62.235,15.698C62.227,16.749 62.262,17.81 62.337,18.875C62.724,24.376 64.243,29.983 67.163,34.98C67.828,36.119 68.566,37.226 69.38,38.293C73.828,44.119 80.55,48.735 90.061,50.756L91.581,48.073C83.977,46.643 77.784,43.123 73.303,38.293" style="fill-rule:nonzero;"/>
        </g>
        <g transform="matrix(1,0,0,1,-0.216,-0.414)">
            <path d="M74.675,34.986C70.893,30.117 68.946,24.254 68.404,18.875C68.295,17.787 68.247,16.722 68.249,15.685C68.252,14.244 68.358,12.866 68.56,11.581L67.314,12.343C67.137,13.425 67.025,14.544 66.979,15.689C66.938,16.733 66.953,17.797 67.027,18.875C67.401,24.341 69.286,30.107 73.009,34.984C73.893,36.142 74.879,37.252 75.974,38.293C79.99,42.111 85.465,45.03 92.596,46.279L93.152,45.297C86.588,44.37 81.519,41.778 77.725,38.293C76.6,37.26 75.583,36.153 74.675,34.985" style="fill-rule:nonzero;"/>
        </g>
    </g>
</svg>
