<?xml version="1.0" encoding="UTF-8" standalone="no"?>
<!DOCTYPE svg PUBLIC "-//W3C//DTD SVG 1.1//EN" "http://www.w3.org/Graphics/SVG/1.1/DTD/svg11.dtd">
<svg width="100%" height="100%" viewBox="0 0 1888 960" version="1.1" xmlns="http://www.w3.org/2000/svg" xmlns:xlink="http://www.w3.org/1999/xlink" xml:space="preserve" xmlns:serif="http://www.serif.com/" style="fill-rule:evenodd;clip-rule:evenodd;stroke-linejoin:round;stroke-miterlimit:2;">
    <g transform="matrix(4.166667,0,0,4.166667,0,0)">
        <g id="path15-0" transform="matrix(0.713658,0,0,0.713658,-108.772211,-1022.388965)">
            <path d="M221.779,1598.417C187.189,1603.117 157.65,1632.806 153.26,1667.457C150.67,1686.286 153.959,1706.227 164.199,1722.417C173.199,1736.607 186.219,1748.377 201.519,1755.417L226.679,1755.417C232.169,1750.977 236.719,1745.476 240.459,1739.506C247.989,1727.576 253.459,1714.476 258.129,1701.196C256.289,1705.186 252.83,1708.167 249.03,1710.227C235.53,1717.967 217.429,1713.676 207.349,1702.296C200.099,1694.716 198.789,1683.367 200.289,1673.407C201.658,1664.517 207.288,1656.836 214.418,1651.586C227.848,1641.816 248.248,1643.918 259.358,1656.308C264.808,1640.558 270.259,1624.797 275.729,1609.037C267.759,1603.107 258.18,1599.707 248.39,1598.417L221.779,1598.417ZM663.038,1598.417C648.989,1600.387 635.249,1606.167 625.089,1616.226C615.179,1625.716 608.349,1638.637 607.319,1652.417C606.009,1669.097 611.089,1685.837 619.609,1700.067C629.819,1716.817 644.979,1730.178 661.889,1739.908C678.639,1749.608 697.879,1755.137 717.279,1755.097C733.029,1755.217 749.299,1751.677 762.239,1742.317C776.409,1732.317 786.269,1716.097 787.289,1698.637L787.289,1691.117C786.009,1675.687 780.508,1660.688 771.668,1647.997C762.328,1634.477 749.559,1623.657 735.709,1614.987C721.949,1606.377 706.439,1600.547 690.329,1598.417L663.038,1598.417ZM688.921,1643.503C699.312,1643.594 709.477,1647.566 717.72,1653.857C727.68,1660.737 734.868,1672.108 735.038,1684.408C735.248,1698.428 721.749,1709.226 708.359,1709.286C691.459,1710.386 674.489,1701.497 665.259,1687.397C660.269,1679.367 657.449,1669.027 660.939,1659.877C664.669,1650.397 674.439,1644.247 684.459,1643.707C685.948,1643.557 687.436,1643.49 688.921,1643.503Z" style="fill:rgb(245,130,32);fill-rule:nonzero;"/>
        </g>
        <g id="path2-8" transform="matrix(0.713658,0,0,0.713658,-108.772211,-1022.388965)">
            <path d="M294.109,1598.417C282.109,1632.677 270.219,1666.976 258.129,1701.196C253.459,1714.476 247.989,1727.576 240.459,1739.506C236.719,1745.476 232.169,1750.977 226.679,1755.417L269.119,1755.417C280.329,1750.487 290.579,1742.046 295.209,1730.446C299.309,1720.156 303.38,1709.857 307.47,1699.567C311.65,1688.507 315.049,1677.167 319.339,1666.147C329.919,1695.847 340.069,1725.697 350.599,1755.417L401.51,1755.417C383.29,1703.117 365.349,1650.717 347.139,1598.417L294.109,1598.417ZM360.009,1598.417C378.229,1650.717 396.16,1703.117 414.37,1755.417L466.418,1755.417C448.228,1703.117 430.329,1650.717 412.159,1598.417L360.009,1598.417ZM424.889,1598.417C443.109,1650.717 461.049,1703.117 479.259,1755.417L523.029,1755.417C520.469,1748.087 518.029,1740.717 515.539,1733.367C528.729,1733.137 541.959,1733.907 555.119,1732.687C563.719,1740.267 572.278,1747.897 580.938,1755.417L649.789,1755.417C632.059,1739.597 614.42,1723.677 596.74,1707.807C600.35,1702.047 602.969,1695.627 603.919,1688.867C605.679,1676.397 602.719,1663.667 597.459,1652.367C589.909,1636.267 576.929,1623.238 562.149,1613.618C549.729,1605.488 535.449,1600.327 520.749,1598.417L424.889,1598.417ZM520.229,1646.257C530.229,1646.317 540.099,1652.077 544.799,1660.957C547.279,1665.647 547.938,1671.668 545.168,1676.388C542.418,1681.238 536.728,1683.727 531.318,1683.767C520.278,1683.807 509.238,1683.797 498.208,1683.767C493.888,1671.267 489.559,1658.777 485.269,1646.267C496.919,1646.207 508.579,1646.217 520.229,1646.257L520.229,1646.257Z" style="fill:rgb(61,16,99);fill-rule:nonzero;"/>
        </g>
        <g id="path2-81" serif:id="path2-8" transform="matrix(0.713658,0,0,0.713658,183.422993,-1140.722544)">
            <path d="M-143.301,1598.417C-154.401,1598.717 -165.501,1598.667 -176.601,1598.806C-194.651,1650.947 -212.641,1703.107 -230.711,1755.237L-230.711,1755.417L-182.721,1755.417C-171.491,1724.077 -160.971,1692.477 -149.891,1661.087C-148.901,1663.017 -148.111,1665.036 -147.471,1667.106C-140.411,1687.436 -133.601,1707.847 -126.361,1728.107C-122.671,1737.177 -119.241,1746.347 -115.561,1755.417L-65.392,1755.417C-83.582,1703.117 -101.581,1650.747 -119.721,1598.417L-143.301,1598.417ZM-106.891,1598.417C-88.661,1650.717 -70.731,1703.117 -52.511,1755.417L-0.482,1755.417C-17.652,1706.117 -34.62,1656.737 -51.72,1607.407C-52.82,1604.377 -53.551,1601.177 -55.271,1598.417L-106.891,1598.417ZM-6.111,1598.417C-18.001,1598.847 -29.902,1598.606 -41.792,1598.796C-23.782,1651.016 -5.75,1703.237 12.37,1755.417L56.139,1755.417C53.439,1747.997 50.89,1740.506 48.26,1733.057C57.8,1732.957 67.338,1733.196 76.878,1732.936C79.558,1732.946 82.339,1732.106 84.969,1732.696C93.639,1740.106 101.959,1747.937 110.579,1755.417L178.459,1755.417C160.849,1739.567 143.349,1723.587 125.789,1707.677C131.919,1698.177 134.409,1686.577 133.039,1675.377C130.699,1654.407 118.599,1635.506 102.539,1622.226C86.389,1608.346 65.819,1599.827 44.549,1598.417L-6.111,1598.417ZM18.459,1646.558C29.089,1646.538 39.719,1646.517 50.349,1646.568C60.209,1646.628 69.929,1652.358 74.549,1661.108C77.109,1665.918 77.698,1672.138 74.688,1676.888C71.728,1681.748 65.818,1683.958 60.318,1683.848C50.628,1683.838 40.938,1683.908 31.248,1683.808C27.008,1671.388 22.739,1658.968 18.459,1646.558L18.459,1646.558Z" style="fill:rgb(61,16,99);fill-rule:nonzero;"/>
        </g>
    </g>
</svg>
