<?xml version="1.0" encoding="utf-8"?>
<!-- Generator: Adobe Illustrator 16.0.0, SVG Export Plug-In . SVG Version: 6.00 Build 0)  -->
<!DOCTYPE svg PUBLIC "-//W3C//DTD SVG 1.1//EN" "http://www.w3.org/Graphics/SVG/1.1/DTD/svg11.dtd">
<svg version="1.1" id="Layer_1" xmlns="http://www.w3.org/2000/svg" xmlns:xlink="http://www.w3.org/1999/xlink" x="0px" y="0px"
	 width="300px" height="300px" viewBox="0 0 300 300" enable-background="new 0 0 300 300" xml:space="preserve">
<g id="AAX">
	<path fill="#ED3024" d="M169.674,48.136c0.247-0.029,0.421-0.082,0.596-0.151C170.064,48.034,169.86,48.075,169.674,48.136z
		 M171.313,47.278c0,0.021-0.01,0.027-0.01,0.038c0.01-0.006,0.01-0.006,0.01-0.011C171.313,47.299,171.313,47.293,171.313,47.278z
		 M46.141,284.275c-0.211,0.132-0.437,0.237-0.626,0.393C45.725,284.521,45.936,284.395,46.141,284.275z M41.444,163.635
		l1.187,0.629l-1.187,0.843c2.05,0.236,2.502-0.916,3.525-1.588C43.452,163.729,43.161,161.548,41.444,163.635z M138.901,59.089
		c-0.014,0.036-0.029,0.057-0.029,0.087c0.036-0.021,0.071-0.048,0.107-0.067L138.901,59.089z M138.873,59.176
		c-0.386,0.221-0.802,0.431-1.25,0.627C138.111,59.655,138.688,59.601,138.873,59.176z M171.303,47.316
		c-0.343,0.224-0.6,0.498-1.033,0.669C170.728,47.871,171.171,47.741,171.303,47.316z M172.676,45.346l-2.344-0.242l0.185,1.424
		L172.676,45.346z M173.976,51.395l-0.117-0.252l-1.831,0.927l0.365,0.312L173.976,51.395z M171.521,53.415l-0.182-0.382
		l-1.751,0.603l0.171,0.385L171.521,53.415z M156.044,61.93l-1.192,0.849l0.979-0.334L156.044,61.93z M172.422,50.736l-1.646,1.302
		l1.359-0.459C172.465,51.322,172.797,51.056,172.422,50.736z M174.743,46.411c-1.297,0.145-1.218,1.3-2.46,0.539
		c-0.437,0.047-0.724,0.186-0.971,0.356C171.401,47.859,174.351,48.003,174.743,46.411z M197.67,25.599
		c-0.205,0.111-0.277,0.246-0.324,0.404C197.512,25.896,197.634,25.761,197.67,25.599z M173.532,44.754
		c0.803-0.358,0.032-0.465-0.228-0.642C172.942,44.427,173.676,43.907,173.532,44.754z M187.918,34.828l-0.115-0.247l-1.836,0.916
		l0.375,0.313L187.918,34.828z M196.703,26.956c0.745-0.145,0.554-0.588,0.643-0.953C196.776,26.337,195.746,26.368,196.703,26.956z
		 M290.134,193.453l-1.033-1.014l-0.699,1.426C288.962,193.628,289.702,192.99,290.134,193.453z M57.02,145.924
		c0.03-0.021,0.068-0.046,0.103-0.066l0.369-0.39L57.02,145.924z M185.463,36.842l-0.177-0.377l-1.757,0.593l0.175,0.395
		L185.463,36.842z M191.124,34.467l-0.309-0.189l-1.254,0.724l0.328,0.189L191.124,34.467z M182.578,42.408
		c-1.729,0.138-3.078,1.64-2.604,2.657C182.885,44.072,179.355,43.214,182.578,42.408z M173.305,44.113
		c0.096-0.087,0.279-0.246,0.605-0.517C173.146,43.851,173.124,44,173.305,44.113z M174.855,50.646l1.066-1.106l-0.306-0.179
		l-1.262,1.167L174.855,50.646z M179.305,45.587l-2.734,1.383l1.926-0.668L179.305,45.587z M175.948,51.753l1.234-0.714l-0.31-0.194
		l-1.255,0.724L175.948,51.753z M55.515,269.475l2.841-1.59C57.225,267.792,56.327,268.887,55.515,269.475z M287.77,217.743
		c0.212-0.416,3.063-5.59,5.148-9.29c-0.039,0.036-0.099,0.052-0.137,0.072c0.522-1.989-3.368-1.13-0.731-3.865
		c-2.835-4.882-2.906-9.191-6.641-12.249l1.574-0.999c-0.099-1.551-1.061-2.274-1.633-3.308l-0.694,1.415
		c-1.045-0.51-0.268-2.129-0.402-3.21c-3.088-1.247-6.735-5.787-8.421-6.356c-1.051-2.281-2.811-3.137-2.885-5.666l0.218-0.145
		c-7.825-7.289-13.668-13.266-22.968-18.736c0.087-1.97-3.3-2.621-0.969-4.244l0.343,0.168l-4.757-4.07
		c-0.301,0.611-0.409,1.3-1.041,1.245c-3.354-5.17-8.532-10.11-13.336-14.601l0.154-0.217c3.684-4.969,8.332-10.183,13.209-15.548
		c0.002-0.01,0.036-0.035,0.045-0.056l0.801-0.9c5.971-6.588,12.197-13.388,17.29-20.258c16.163-17.902,32.282-37.198,21.905-54.742
		c-13.33-8.579-35.067-21.357-57.659-12.16c-0.138-0.338-0.447-0.6-0.477-0.888c-2.896,5.092-1.408-2.916-6.156-1.867
		c-1.978-1.391-4.915-1.422-5.868-3.011c-3.761,4.076-3.19-2.589-7.418-1.005l-0.665,1.987c-0.172-1.851-1.466-0.236-3.542-0.836
		c0.043,0.57,0.911,1.01,0.11,1.722c-1.994,0.533,0.105-0.766-1.552-0.937c-0.83,0.133-0.98,0.77-1.456,1.234
		c0.175,0.378,0.154,0.827,0.8,0.749c-1.179,1.87-2.578,1.763-4.49,3.008c0.391-0.13,1.105-0.519,1.48-0.211l-0.216,0.523
		c0.986-0.782,2.874,1.377,3.019-0.298c0.352-0.117,0.691-0.288,0.975-0.324v-0.003c1.017-3.465,3.767,0.096,4.672,0.153
		c-0.804,0.051-0.972,0.643-1.524,0.843l-0.995-0.698c-1.604,1.42,1.008,0.255,0.132,1.279c-2.313,0.342-1.396,2.391-4.275,1.46
		l1.139-1.423c-0.6,0.652-1.574,0.981-2.453,0.544c0.063-0.082,0.105-0.174,0.171-0.279l-1.021,0.864
		c-1.543,0.083-0.912-1.018-1.672-1.202c-1.482,0.211-2.354,1.25-3.016,1.773l2.364,0.231c0.898,2.492-3.201,1.382-3.7,3.767
		c-1.752,0.596-2.034-1.527-3.882-0.147c-0.606,0.095-0.292,0.424-0.363,0.692c0.691-0.524,1.404-0.725,2.305,0.117l-0.685,0.978
		c-4.763,0.909-0.51,3.915-4.744,4.543c0.233-0.202,0.15-0.51,0.222-0.786c-0.527,0.317-1.446,0.37-0.777,0.853
		c-0.009,0-0.016,0.004-0.016,0.004c0.016,0.021,0.042,0.021,0.068,0.046c0.023,0.01,0.04,0.033,0.085,0.057
		c0.018-0.006,0.018-0.006,0.036-0.006c0.813,0.365,1.67-0.066,2.467-0.41c0.117,0.344,0.181,0.698,0.74,0.631
		c-0.118,0.212-0.25,0.375-0.386,0.542c-2.439,0.898-6.363,1.912-7.199,3.96l2.226-0.2c-1.29,0.304-2.093,1.214-2.709,1.697
		l2.359,0.231c0.221,0.585,0.146,0.96-0.088,1.253c-0.351,0.102-0.754,0.063-1.163-0.25c-0.654,0.517-2.527,0.868-2.326,2.282
		c0.025-0.012,0.053-0.021,0.078-0.021c-0.078,0.153-0.147,0.308-0.19,0.503c-1.751,0.596-2.034-1.516-3.885-0.154
		c-0.612,0.108-0.3,0.431-0.365,0.699c0.678-0.5,1.373-0.705,2.242,0.071l-3.625,1.599l-0.174-0.386
		c0.428-0.312,0.832-0.688,1.214-1.007l-1.238-0.301l-0.335,0.523l-0.043-0.108c-1.031,0.199-1.689,0.729-2.045,1.43l-1.767-0.422
		c-0.406-0.897,1.655-1.307,0.661-2.001c-2.371,0.227,0.483,0.578-0.56,1.23c-2.288,0.924-2.256-0.998-2.742-1.574
		c-1.244,0.057,0.715,5.916,1.834,9.979l-0.29,0.099c-0.103-0.704-2.427-0.362-1.287-1.343c-0.639,0.082-1.241,0.726-1.92,0.217
		c0.136-0.181,0.217-0.516,0.853-0.582l-0.285-0.642c-3.115,1.068-1.048-2.298-1.789-1.45l-1.125,0.971l-0.987-0.691
		c-0.027,0.451-0.939,0.907-0.57,1.225c0.64-0.066,0.714-0.393,0.86-0.59l1.757,0.443l-0.951,1.357
		c-0.24-0.066-0.704-0.066-0.612-0.382l-1.952,0.66l1.761,0.436l-0.494,0.899c-0.845,1.053-2.268,0.853-3.357,0.565
		c0.092-0.16-0.31-0.688-0.675-1.093c-6.562-2.294-4.269-1.86-8.474,0.606l2.107,3.622c-1.009,0.524-2.255,0.725-3.624,0.759
		c-8.356-7.784-18.169-17.26-28.978-28.924c-5.756-2.05-7.728-7.786-13.57-9.636c-0.211-11.142-12.227-11.491-19.944-15.751
		c-12.297-7.759-27.407-3.094-41.142,0.988C27.096,18.775,10.96,26.441,5.554,42.858c-4.943,34.207,24.375,49.017,40.581,69.72
		c6.492,7.72,14.057,14.24,22.175,20.113c-0.924,0.709-1.614,1.489-1.989,1.785c1.089,2.423-7.251,4.834-5.6,6.49
		c-1.034,0.204-0.999,0.775-1.769,1.044c0.972-0.084,2.467-0.777,4.05-1.327c-0.68,0.708-1.214,1.305-1.748,1.859
		c-1.839,0.484-4.846,2.791-3.932,2.815c0.329-0.168,0.626-0.229,0.925-0.235c-0.334,0.235-0.704,0.482-1.125,0.736l-0.296,0.309
		c-0.372-0.057-0.803,0.127-1.439,0.895l0.404,0.213l-0.118,0.135l0.735,0.389l-1.021,0.738c0.03,0.008,0.07,0.008,0.097,0.008
		c-1.521,0.78-2.591,2.09-3.11,2.512c0.278,0.593-0.029,1.188-0.617,1.781l-0.216,0.112l0.141-0.047
		c-1.836,1.758-6.127,3.407-4.91,4.629c-1.038,0.212-0.987,0.777-1.772,1.048c1.732-0.148,5.084-2.173,7.627-2.022
		c-0.078,0.33-0.156,0.663-0.596,0.663c-0.376,0.357-1.424,0.572-1.394,1.036l-0.051,0.033c-0.048,0.157-0.139,0.313-0.238,0.464
		l-1.932,0.429c-1.106-0.953-6.193,2.704-5.042,2.76c1.444-0.79,2.591,0.735,3.116-1.065l1.27,0.229
		c-0.966,0.744-1.86,1.441-2.093,2.093c-0.273,0.08-0.493,0.188-0.698,0.319c0.205-0.019,0.421-0.091,0.684-0.221
		c-0.057,0.176-0.057,0.337,0.026,0.504c-1.162,0.53-1.655,1.271-2.073,2.006c-0.349,0.118-0.698,0.203-1.057,0.257l0.268-0.396
		c-0.52,0.333-1.671,0.276-1.835,0.919c0.884-0.228,1.716-0.438,2.513-0.606c-0.484,0.86-0.956,1.689-2.362,2.166l0.56,0.254
		c-2.23,4.01-7.874,5.936-9.971,9.755c-2.98,1.313-3.591,4.464-5.904,6.29l1.496,0.215c-0.035,0.026-0.078,0.05-0.123,0.066
		l0.566,0.242c-2.236,4.006-7.879,5.937-9.976,9.753c-2.991,1.326-3.597,4.473-5.91,6.292l3.613,0.544
		c-0.682,0.969-1.418,1.812-2.79,2.275c1.731-0.147,3.561-1.07,5.355-1.09l-2.714,3.43l6.033-2.063l-2.03,2.468l3.588-1.511
		c3.284-0.685,0.981,2.167,2.357,2.722c3.428-0.861,0.499,3.079,4.235,2.396l-2.148,2.207l0.964-0.326
		c1.703,1.772-2.204,5.032-2.356,6.701l-0.695-0.057c-1.541,1.56,0.499,1.603,0.987,2.173c0.402,0.896-1.218,1.29-1.81,1.956
		l2.113-0.291c-1.228,1.742-2.086,2.338-3.691,3.763l0.973-0.328c0.261,0.063,0.704,0.056,0.632,0.375
		c-0.027,0.458-0.802,0.715-1.198,0.853l0.298,0.635c-0.395,0.135-3.33,0.113-3.201,1.383c1.943,0.819,0.591-1.668,2.225-1.046
		c0.03,2.044-4.466,4.029-5.596,6.479c-1.444,2.271,0.025,3.533-3.464,5.761c-0.554,0.777-1.978,2.591-0.164,2.117L9.62,248.1
		c3.591-0.487,0.626,2.891,1.948,3.322c4.393,0.27,0.8,4.739,5.042,4.18c-0.427,1.027-1.808,1.942-0.884,2.512
		c1.885-2.274,2.975,0.613,5.467-0.828c0.617,0.379,0.021,1.026-0.396,1.612l2.914-1.005c1.366-0.467,1.635,0.63,2.456,0.933
		l-1.253,0.724l2.235-0.025c-0.356,0.704-1.126,0.97-1.532,1.556c1.274-0.147,1.763-1.042,2.627-1.633
		c2.038-1.438,5.426-1.414,7.292-1.758l-1.929,1.689l5.331-2.11c0.091,0.711-0.649,1.54-1.929,1.687l0.407,0.898
		c1.881-0.804,3.099-2.102,5.247-1.798c-0.621,1.1-1.618,1.886-2.61,2.661c1.068,1.849,0.024,5.017-1.608,5.858l2.738,0.102
		l-0.661,1.995c2.538,0.168,3.102-1.063,5.049-1.721c-1.202,2.778,2.649,2.344,3.618,2.005c2.838-0.666,5.484-2.766,8.773-1.959
		c2.968-0.876,2.586-0.741,4.727-2.943l1.014,0.24c0.318-1.281,3.329-1.577,3.663-1.84l-0.755-0.191
		c1.917-0.204,0.729-1.854,3.166-1.383l0.016,0.01l-0.258,0.389l2.498-0.422c0.575-0.14,1.038-0.14,1.435-0.055
		c-2.971,1.207-7.416,1.157-8.876,4.217l2.04,0.046c-0.956,1.491-3.247,1.594-5.2,2.127c2.646-0.672,4.979,0.514,6.578-1.567
		c-1.367,1.933-1.88,3.296-5.052,4.229l2.838-0.681c-1.67,1.148-2.032,2.838-2.293,4.231c-1.151-0.191-2.39-0.366-3.155,1.332
		l1.947-0.665c-0.514,5.333-9.466,2.927-11.655,7.509l2.046,0.044c-0.947,1.508-3.25,1.607-5.201,2.146
		c2.641-0.678,4.988,0.504,6.578-1.576c-1.367,1.935-1.881,3.298-5.048,4.225l2.848-0.676c-1.728,1.175-2.065,2.92-2.324,4.343
		c4.93-1.535,8.629-4.281,10.881-7.26c3.211-1.841,6.787-3.352,8.34-6.4c-0.966-4.099,8.365-2.85,9.773-7.166
		c-2.368-1.262,1.628-3.357-0.776-3.72c0.72-0.394,1.141,0.057,1.834,0.102c-0.472-0.566,3.963-1.188,2.155-2.2
		c8.124-4.395,12.359-10.405,20.056-15.261c6.384-6.742,15.776-13.794,24.245-20.373c6.033-2.946,19.965-15.079,36.05-29.937
		c2.595,2.074,4.902,4.562,8.107,5.862c-1.026,8.777,9.124,6.716,11.147,11.46l0.688-1.415c0.514,3.002,2.937,2.937,4.758,4.072
		l-0.492,1.018c6.793,2.551,7.708,12.283,16.247,13.941c6.226,15.335,23.993,17.243,34.912,27.841
		c5.22-2.226,8.811,2.029,13.155,2.903c0.382-4.332,5.64,0.494,5.705-0.98l-0.157-0.577l4.059,1.482
		c-0.98-1.992-4.407-1.646-4.825-4.368c-1.945-2.743-6.91-2.384-8.057-5.109c0.254,0.085,0.672,0.171,0.731-0.191l0,0l-0.556,0.234
		c-0.08-0.036-0.146-0.057-0.198-0.086c-0.179-0.454-0.251-0.975-0.211-1.613c0.263,0.48,0.886,0.855,0.965,1.465l0.819-0.342
		c0.52,3.288,2.394,2.074,3.703,2.692c-1.386-1.604-3.106-2.877-4.645-4.589l-0.139-1.422l2.602,0.017l-1.132-3.063
		c2.698,0.309,6.356,2.601,7.649,5.742c6.153-1.011,12.195,4.441,17.366,7.216c0.29-0.603,0.593-1.223,1.225-1.155l0.879,2.187
		c1.373-0.591,2.604,1.779,3.858,1.882l0.164-1.675l0.88,0.424c1.065-1.726,0.007-2.245-0.087-3.802l3.822,0.611
		c-0.155-0.568-0.759-1.115-0.184-1.843c0.467-0.527,1.073,0.027,1.433,0.2c-0.04-1.26-0.469-5.741-1.351-7.933
		c1.048,0.51,1.54-4.511,3.632-3l-0.234-0.854l2.1-0.744c-0.018,0.498,0.223,0.874-0.144,1.188l0.349,0.176l0.494-1.011
		l-0.359-0.174c4.111-1.258,0.109-4.218,0.468-6.299l2.41,0.422c-1.769-2.617-3.776-3.84-4.251-7.332l0.649-0.444
		c-1.977,0.046-2.115-2.782-3.682-4.049l2.223-1.422l-0.385-1.446l-0.638,0.436c1.647-2.943-1.759-3.108-0.973-6.482
		C286.871,217.805,287.256,217.482,287.77,217.743z M63.69,273.436c0.849-0.264,1.656-0.573,2.417-0.909
		C65.634,273.729,64.707,273.61,63.69,273.436z M166.016,67.075l0.447-0.521C166.477,67.047,166.355,67.258,166.016,67.075z
		 M179.857,51.529c-0.384,0.225-0.914,0.37-1.438,0.564C178.449,51.594,178.339,51.21,179.857,51.529z M179.598,54.325
		c-0.326,0.051-0.654,0.071-0.979,0.056l1.123-0.386C179.71,54.097,179.659,54.21,179.598,54.325z M180.322,53.788
		c-0.206-0.177-0.459-0.255-0.757-0.271c0-0.112-0.039-0.255-0.111-0.451c-0.06-0.392,1.135-0.195,2.267-0.344L180.322,53.788z
		 M184.468,48.784c-0.322,0.02-0.662-0.03-0.988-0.189c0.07-0.087,0.116-0.171,0.162-0.279l-1.009,0.863
		c-1.467,0.079-0.978-0.918-1.581-1.17l0.9-0.072c-0.315-0.189-0.763-0.184-0.879-0.442c0.421-0.343,0.863-0.693,1.3-1.037
		c0.242-0.046,0.471-0.046,0.626,0.087l-0.201,0.513c0.586-0.458,1.477,0.109,2.144,0.292c-0.622,0.405-0.915,0.688,0.24,0.802
		C184.935,48.424,184.712,48.626,184.468,48.784z M183.059,45.932c0.79-0.582,1.608-1.135,2.488-1.548
		C184.822,45.209,184.011,45.505,183.059,45.932z M188.404,44.941c-0.298,0.143-0.641,0.247-0.99,0.308
		C187.708,44.962,188.04,44.885,188.404,44.941z M187.233,46.626l-0.42,0.602l-0.769,0.334L187.233,46.626z M185.812,46.766
		c0.065-0.021,0.132-0.046,0.193-0.069c-0.062,0.048-0.128,0.092-0.217,0.145C185.796,46.817,185.796,46.796,185.812,46.766z
		 M186.62,49.598c-0.167,0.082-0.368,0.121-0.626,0.121c0.436-0.698,0.689-1.586,1.604-1.211
		C187.368,48.943,187.033,49.303,186.62,49.598z M187.608,46.883l0.181-0.206l-0.479-0.117l1.059-0.825l0.87,0.442L187.608,46.883z
		 M191.924,37.736c-0.267-1.089,2.159,0.283,1.472-1.238c-0.071-0.581,2.565,0.117,3.694-0.859c0.207-0.288,0.375-0.57,0.467-0.863
		c-0.065,0.392-0.23,0.657-0.467,0.863C196.079,36.996,193.973,38.136,191.924,37.736z M195.799,40.81
		c-0.062-0.062-0.118-0.13-0.167-0.191l0.313,0.028L195.799,40.81z M197.475,37.269c-0.111,0.385-0.313,0.75-1.149,0.734
		L197.475,37.269c0.139-0.571,0.053-1.198,1.273-0.833L197.475,37.269z M202.094,36.24l-0.544,0.421
		C201.679,36.52,201.87,36.375,202.094,36.24l1.126-0.889l-0.755-0.175l1.314-1.053C204.905,34.972,203.141,35.578,202.094,36.24z
		 M227.366,237.706c-0.267,0.198-0.463,0.475-0.492,0.955c-4.072-3.233-9.009-6.903-12.142-9.433
		c1.299-0.865-1.203-1.09-1.308-2.647c1.959,2.213,4.336,5.378,7.779,4.551c-1.808,2.377,1.969,2.216,2.123,2.795l0.495-1.027
		C226,233.441,226.323,236.903,227.366,237.706c0.555-0.411,1.429-0.444,1.923-0.862
		C228.39,237.897,227.815,238.032,227.366,237.706z M243.979,249.527c-1.359-1.668-3.736-2.584-4.103-4.51
		c-1.62,1.973-2.093-1.518-3.887-1.403l-0.333-0.657c0.586,1.037,3.957-0.072,2.791,1.862c1.11,1.298,6.161-3.268,4.215,2.063
		l0.385,1.435c0.479-0.52,0.898-0.065,1.426,0.201L243.979,249.527z M247.31,251.215c0-0.027,0-0.048,0.011-0.063l0.03,0.007
		C247.337,251.167,247.32,251.188,247.31,251.215z M48.52,281.866l-1.581,0.981l1.367-0.469L48.52,281.866z M183.642,48.316
		l0.45-0.37C183.855,48.03,183.734,48.169,183.642,48.316z M172.356,54.289c-0.111,0.087-0.237,0.18-0.343,0.276h0.014
		C172.258,54.5,172.337,54.396,172.356,54.289z M52.062,274.307l2.523,0.627c-1.023,0.207-1.244,0.717-1.933,1.686
		c1.233-0.27,2.421-1.11,3.435-0.872c-0.804,0.713,1.351,1.007-0.403,1.608c1.42,1.143,1.174-1.869,3.121-2.539l-2.33,0.798
		l0.741-0.849C56.119,274.848,54.873,273.06,52.062,274.307z M294.121,204.427c-0.461,0.708-0.271,1.605-0.271,2.406
		c0.553-0.969,0.974-1.698,1.149-1.972L294.121,204.427z M293.851,206.833c-0.287,0.49-0.604,1.033-0.933,1.62
		C293.689,208.073,293.837,207.481,293.851,206.833z M58.567,274.298c0.529-0.319,2.071-0.402,1.778-1.031l-1.953,0.655
		L58.567,274.298z M62.468,265.301l-1.584,0.97l1.368-0.45L62.468,265.301z M154.346,63.02
		C154.227,62.906,154.207,62.891,154.346,63.02L154.346,63.02z M60.093,267.727c-0.22,0.106-0.442,0.214-0.636,0.362
		C59.671,267.951,59.878,267.828,60.093,267.727z M61.573,271.513l3.134-1.521l-5.466,0.844L61.573,271.513z M55.515,269.475
		l-0.56,0.315C55.149,269.729,55.333,269.616,55.515,269.475z M37.59,169.521l1.377-0.461l2.421-1.573L37.59,169.521z
		 M185.985,38.003c0.21-0.077,0.293-0.174,0.318-0.282c-0.12,0.081-0.236,0.175-0.352,0.267L185.985,38.003z M183.723,42.176
		c-0.199,0.108-0.282,0.247-0.321,0.397C183.579,42.474,183.704,42.34,183.723,42.176z M154.346,63.02
		c0.085,0.094,0.211,0.235,0.368,0.401c0.01,0.008,0.036,0.02,0.063,0.036C154.546,63.23,154.411,63.095,154.346,63.02z
		 M274.871,175.713c-0.365-0.332-0.714-0.655-1.073-0.99C273.938,175.271,274.161,175.703,274.871,175.713z M183.55,39.56
		c0.964-0.189,1.688-0.966,2.402-1.572l-1.237-0.303L183.55,39.56z M178.339,48.424c0.032-0.062,0.061-0.124,0.081-0.175
		l-0.575,0.051L178.339,48.424z M273.602,173.854l-0.436,0.289c0.211,0.188,0.422,0.392,0.632,0.58
		C273.729,174.439,273.674,174.143,273.602,173.854z M225.707,29.134c0.093-0.155,0.185-0.335,0.293-0.535
		C225.76,28.799,225.691,28.958,225.707,29.134z M200.991,30.953l0.744-0.843l-0.512-0.124l-0.671,0.972L200.991,30.953z
		 M197.593,31.743l0.448-0.369C197.808,31.457,197.691,31.602,197.593,31.743z M200.728,29.868l0.496,0.119
		C201.083,29.865,200.905,29.833,200.728,29.868z M252.597,256.158c0.376,0.435,0.74,0.889,1.041,1.376
		C253.394,256.748,253.031,256.365,252.597,256.158z"/>
	<g>
		<g>
			<path fill="#FFFFFF" d="M138.728,86.935c-2.8,0.515-5.262,3.131-5.473,5.838c-0.216,2.708,1.887,4.471,4.692,3.948
				c2.816-0.525,5.263-3.151,5.488-5.854C143.64,88.163,141.544,86.399,138.728,86.935z"/>
			<path fill="#FFFFFF" d="M158.55,98.936c-1.163,0.229-2.519,0.476-7.736,6.577c1.28-2.363,1.698-4.286,0.125-5.346
				c-1.639-1.115-4.496-0.256-6.094,0.789c-0.987,0.64-1.003,0.965-1.178,2.188c-0.134,0.801-0.875,2.588-1.378,3.598l-1.587,3.396
				c-6.019,10.47-9.368,13.332-10.366,14.517c-1.005,1.116-1.849,1.758-2.435,1.87c-0.443,0.089-0.626-0.235-0.586-0.794
				c0.072-0.858,0.381-2.042,1.07-3.583c1.145-2.604,2.959-6.459,4.383-9.048c0.777-1.544,2.769-5.178,2.769-5.178
				c1.89-4.216-1.691-5.693-3.781-5.379c-0.607,0.093-7.195,0.858-14.734,2.144c4.121-17.236,3.772-14.672,8.059-25.721
				c2.085-5.385,1.85-6.619,0.092-8.663c-1.769-2.03-1.444-4.287-3.449-4.461c-4.666-0.417-20.802,22.874-33.794,45.515
				c-6.11,1.838-12.238,4.018-17.882,6.574c-3.742,1.715-3.028,4.834-2.694,6.437c0.475,2.236,2.904,3.229,4.836,2.127
				c2.93-1.645,6.285-3.207,9.876-4.667c-0.112,0.237-0.148,0.365-0.112,0.349c-4.918,9.267-10.442,22.197-12.25,27.945
				c-1.014,3.211,0.596,6.074,3.349,7.335c2.758,1.254,4.636-0.079,5.561-4.378c1.155-5.362,8.136-21.954,15.2-35.364
				c0,0,0.042-0.054,0.083-0.138c4.271-1.366,8.581-2.594,12.642-3.668c-2.487,10.556-3.119,14.923-3.095,18.557
				c0.036,3.575,1.348,7.75,5.258,7.184c3.911-0.571,3.272-4.237,3.7-7.641c0.991-7.796,1.151-11.176,2.996-20.093
				c0.047-0.015,0.099-0.117,0.155-0.273c4.347-1.006,8.046-1.798,10.638-2.321c-0.361,0.792-0.776,1.66-1.219,2.574
				c-1.716,3.484-3.567,7.774-4.744,10.869c-1.119,3.094-1.737,5.529-1.896,7.595c-0.364,4.567,1.568,7.025,4.991,6.381
				c2.564-0.477,6.48-3.935,10.893-10.813c-0.509,1.646-0.812,2.988-0.843,3.826c-0.132,3.566,1.628,6.495,7.384,2.604
				c0.571-0.388,0.649-0.966,0.665-2.096c0.308-3.85,1.86-8.953,5.297-14.168c2.683-4.016,4.569-6.297,7.032-7.347
				c4.352-1.894,7.126-1.301,9.56-4.257C165.687,101.624,160.732,98.53,158.55,98.936z M108.44,106.289
				c-3.047,0.611-6.258,1.32-9.563,2.112c5.693-10.14,11.999-20.319,17.868-28.306C113.831,87.266,110.881,96.89,108.44,106.289z"/>
		</g>
		<g>
			<path fill="#FFFFFF" d="M231.521,161.652c-1.252,2.042-2.371,3.754-3.974,5.511c-1.454,1.584-2.601,2.216-3.226,1.982
				c-1.662-0.599-0.719-2.969,0.983-6.459c0.807-1.633,1.923-3.751,2.95-5.569c1.459-2.369,1.761-3.038,1.87-3.884
				c0.147-1.215-0.615-2.021-2.874-2.957c-1.438-0.636-1.561-0.754-2.146-2.415c-0.816-2.049-2.559-3.066-4.701-2.769
				c-3.233,0.451-8.319,4.376-12.816,9.932c-1.643,1.863-7.235,9.4-7.924,10.354l-0.878,1.162c-2.438,3.346-3.126,4.139-4.204,5.33
				c-1.077,1.054-1.944,1.663-2.542,1.742c-0.435,0.064-0.62-0.268-0.537-0.827c0.108-0.852,0.475-2.014,1.24-3.522
				c1.266-2.548,3.264-6.313,4.805-8.823c0.849-1.519,2.311-4.247,2.426-4.541l0.826-1.445c2.124-3.795-1.126-5.626-3.565-5.441
				c-0.954,0.087-2.555,0.775-3.336,1.373c-0.641,0.424-0.727,0.595-0.91,1.452c-0.212,1.079-1.663,4.236-3.164,7.021
				c-1.887,3.406-3.938,7.584-5.268,10.633c-1.251,3.025-1.991,5.442-2.256,7.503c-0.58,4.535,1.229,7.098,4.676,6.613
				c2.585-0.358,5.331-2.814,8.725-6.716c1.075-1.25,2.283-2.939,3.434-4.711c-0.623,5.057,1.898,8.553,6.208,7.947
				c2.86-0.395,5.288-2.502,8.401-5.929c0.411-0.405,0.56-0.577,0.79-0.603c0.22-0.047,0.418,0.145,0.435,0.56l0.151,0.475
				c0.432,2.311,2.163,3.39,4.668,3.041c3.088-0.421,6.47-2.723,10.187-7.414c2.988-3.696,4.18-6.402,4.81-8.079
				C235.498,160.249,232.803,159.558,231.521,161.652z M213.892,167.861c-2.169,2.881-4.204,4.697-5.379,4.863
				c-0.73,0.102-1.145-0.613-1.007-1.677c0.329-2.617,4.579-10.542,7.752-14.47c2.151-2.739,4.423-4.661,5.437-4.794
				c0.816-0.114,1.119,0.326,0.977,1.39C221.375,155.518,216.829,164.122,213.892,167.861z"/>
			<path fill="#FFFFFF" d="M202.037,144.166c2.805-0.524,5.262-3.144,5.476-5.847c0.213-2.709-1.887-4.465-4.698-3.942
				c-2.813,0.515-5.258,3.136-5.484,5.838C197.126,142.934,199.233,144.696,202.037,144.166z"/>
			<path fill="#FFFFFF" d="M160.815,155.817c-0.393,0.057-0.791,0.109-1.202,0.174c4.142-17.266,3.792-14.697,8.078-25.741
				c2.091-5.394,1.85-6.633,0.079-8.677c-1.755-2.03-1.448-4.279-3.443-4.461c-4.651-0.416-20.732,22.77-33.703,45.378
				c-6.095,1.829-12.215,4.04-17.828,6.699c-3.514,1.658-2.794,4.79-2.46,6.38c0.467,2.248,2.76,3.265,4.558,2.192
				c2.904-1.715,6.258-3.332,9.852-4.816c-0.16,0.343-9.861,19.581-12.441,28.447c-0.942,3.229,0.605,6.08,3.365,7.331
				c2.749,1.258,4.629-0.069,5.551-4.364c1.15-5.357,10.385-26.824,15.426-35.753c4.26-1.366,8.537-2.567,12.513-3.621
				c-0.006,0.082-3.093,12.45-3.109,18.759c-0.008,3.574,1.343,7.745,5.247,7.183c3.928-0.572,3.276-4.241,3.71-7.647
				c0.998-7.796,1.152-11.17,2.993-20.082c0.065-0.036,0.147-0.184,0.223-0.427c1.018-0.247,2.006-0.469,2.921-0.669
				c4.883-1.067,6.268-1.021,6.604-4.851C167.952,154.877,162.499,155.534,160.815,155.817z M159.343,131.366
				c-2.9,7.159-5.84,16.752-8.283,26.131c-2.995,0.593-6.191,1.273-9.506,2.061C147.243,149.45,153.503,139.322,159.343,131.366z"/>
			<path fill="#FFFFFF" d="M167.018,187.143c-2.532,0.268-8.043-0.979-8.952-5.401c-0.335-1.429,1.748-5.261,2.18-5.919
				c0.743-1.155,1.912-0.471,2.291,0.107c0.869,1.274,5.514,5.434,8.207,2.746c1.729-1.734-0.954-4.009-2.074-5.85
				c-4.139-6.818,1.448-14.734,3.21-16.479c3.819-3.756,6.512-4.103,8.41-4.154c5.433-0.182,7.309,2.899,6.898,4.718
				c-0.458,2.001-1.512,3.173-2.253,3.957c-0.517,0.58-2.05,0.735-2.527,0.035c-1.155-1.691-1.827-3.96-5.188-2.604
				c-2.688,1.088-2.844,4.754-2.269,6.548c0.941,2.867,4.76,5.022,4.725,9.157C179.593,184.671,170.223,186.805,167.018,187.143z"/>
		</g>
	</g>
</g>
</svg>
