<?xml version="1.0" encoding="UTF-8" standalone="no"?>
<!DOCTYPE svg PUBLIC "-//W3C//DTD SVG 1.1//EN" "http://www.w3.org/Graphics/SVG/1.1/DTD/svg11.dtd">
<svg width="100%" height="100%" viewBox="0 0 937 1015" version="1.1" xmlns="http://www.w3.org/2000/svg" xmlns:xlink="http://www.w3.org/1999/xlink" xml:space="preserve" xmlns:serif="http://www.serif.com/" style="fill-rule:evenodd;clip-rule:evenodd;stroke-linejoin:round;stroke-miterlimit:2;">
    <g transform="matrix(4.166667,0,0,4.166667,0,0)">
        <g id="path1377-92" transform="matrix(3.779527,0,0,3.779527,-247.308009,-4.402784)">
            <path d="M73.501,52.813C76.34,54.099 79.427,54.931 82.895,55.196C88.71,55.642 93.45,53.876 98.108,51.899C102.192,50.167 106.813,47.628 111.002,47.995C115.569,48.394 120.159,51.369 124.906,57.845C123.646,57.118 122.414,57.034 121.212,56.929C117.507,56.605 112.05,59.264 108.12,61.105C102.386,63.791 96.517,65.962 91.249,65.501C83.533,64.826 76.634,58.996 73.501,52.813Z" style="fill:rgb(127,126,131);fill-rule:nonzero;"/>
        </g>
        <g id="layer1" transform="matrix(3.779527,0,0,3.779527,-247.308009,-4.402784)">
            <path id="path1377-5-6-1-1-5" d="M73.501,52.812C76.574,53.329 79.772,53.343 83.192,52.712C88.927,51.654 93.057,48.734 97.054,45.631C100.558,42.91 104.376,39.273 108.519,38.555C113.036,37.773 118.235,39.473 124.481,44.518C123.077,44.138 121.865,44.372 120.675,44.578C117.012,45.213 112.417,49.181 109.089,51.967C104.234,56.031 99.116,59.631 93.906,60.535C86.274,61.857 78.112,57.988 73.501,52.812L73.501,52.812Z" style="fill:rgb(254,210,1);fill-rule:nonzero;"/>
            <path id="path1377-5-6-1-1" d="M73.501,52.813C76.598,52.462 79.675,51.594 82.789,50.044C88.01,47.446 91.175,43.501 94.162,39.416C96.78,35.835 99.447,31.286 103.232,29.454C107.357,27.456 112.824,27.657 120.219,30.785C118.764,30.807 117.663,31.366 116.577,31.892C113.23,33.512 109.908,38.593 107.477,42.188C103.93,47.434 100.004,52.305 95.244,54.61C88.273,57.985 79.361,56.516 73.501,52.812L73.501,52.813Z" style="fill:rgb(237,51,36);fill-rule:nonzero;"/>
            <path id="path1377-5-6-1" d="M73.501,52.813C76.416,51.711 79.186,50.112 81.823,47.844C86.244,44.042 88.341,39.439 90.231,34.745C91.888,30.63 93.354,25.565 96.572,22.858C100.079,19.907 105.427,18.757 113.364,19.969C111.96,20.348 111.03,21.161 110.107,21.938C107.262,24.332 105.291,30.073 103.819,34.157C101.672,40.114 99.064,45.801 95.018,49.206C89.091,54.192 80.092,54.961 73.501,52.813L73.501,52.813Z" style="fill:rgb(118,37,139);fill-rule:nonzero;"/>
            <path id="path1377-5-6" d="M73.501,52.813C76.066,51.042 78.37,48.825 80.384,45.99C83.762,41.236 84.691,36.264 85.397,31.253C86.016,26.86 86.222,21.591 88.695,18.19C91.39,14.482 96.304,12.081 104.3,11.349C103.028,12.055 102.321,13.067 101.611,14.044C99.425,17.051 98.893,23.098 98.446,27.416C97.793,33.714 96.63,39.862 93.52,44.139C88.966,50.404 80.415,53.314 73.501,52.813L73.501,52.813Z" style="fill:rgb(71,168,65);fill-rule:nonzero;"/>
            <path id="path1377-5" d="M73.501,52.813C75.405,50.345 76.924,47.531 77.979,44.217C79.748,38.66 79.118,33.642 78.264,28.654C77.516,24.282 76.107,19.2 77.426,15.208C78.864,10.855 82.813,7.07 90.206,3.938C89.209,4.998 88.844,6.177 88.466,7.323C87.3,10.854 88.635,16.776 89.524,21.024C90.821,27.222 91.585,33.432 89.927,38.453C87.497,45.808 80.239,51.184 73.501,52.813L73.501,52.813Z" style="fill:rgb(180,9,54);fill-rule:nonzero;"/>
            <path id="path1377" d="M73.501,52.813C74.535,49.873 75.095,46.724 75.057,43.247C74.994,37.415 72.822,32.847 70.447,28.379C68.365,24.462 65.434,20.079 65.434,15.874C65.434,11.29 67.997,6.458 74.034,1.165C73.42,2.484 73.444,3.718 73.444,4.925C73.444,8.643 76.569,13.848 78.745,17.603C81.921,23.081 84.594,28.738 84.594,34.026C84.594,41.772 79.388,49.153 73.501,52.813Z" style="fill:rgb(0,44,105);fill-rule:nonzero;"/>
        </g>
    </g>
</svg>
