<?xml version="1.0" encoding="UTF-8" standalone="no"?>
<!DOCTYPE svg PUBLIC "-//W3C//DTD SVG 1.0//EN" "http://www.w3.org/TR/2001/REC-SVG-20010904/DTD/svg10.dtd">
<!-- Created with Inkscape (http://www.inkscape.org/) -->
<svg
   xmlns:svg="http://www.w3.org/2000/svg"
   xmlns="http://www.w3.org/2000/svg"
   version="1.0"
   width="800"
   height="170"
   id="svg2">
  <defs
     id="defs4" />
  <g
     id="layer1">
    <path
       d="M 299.22375,6.7463716 L 342.68535,6.7463716 L 342.68535,60.465328 C 346.98562,55.953623 351.86757,52.569735 357.33118,50.313722 C 362.79464,48.057913 368.83978,46.929951 375.46661,46.929864 C 389.14299,46.929951 400.45779,51.847161 409.41106,61.681409 C 418.3641,71.515888 422.84066,85.632949 422.84081,104.03268 C 422.84066,116.29926 420.79626,127.10295 416.70755,136.44381 C 412.61857,145.78472 406.96116,152.76396 399.73531,157.38153 C 392.50922,161.9991 384.49017,164.30788 375.67811,164.30788 C 368.13481,164.30788 361.22609,162.68644 354.95188,159.44356 C 350.2285,156.90568 345.0822,152.14711 339.51299,145.16787 L 339.51299,161.76998 L 299.22375,161.76998 L 299.22375,6.7463716 z M 342.36811,105.30162 C 342.36805,114.9598 344.18336,121.95664 347.81403,126.2922 C 351.44458,130.62782 356.04452,132.79562 361.61388,132.79559 C 366.76012,132.79562 371.07808,130.66307 374.56777,126.39795 C 378.05729,122.13291 379.80211,114.9598 379.8022,104.87866 C 379.80211,95.996049 378.09255,89.475056 374.67352,85.315649 C 371.25432,81.156386 367.11259,79.076697 362.24836,79.076639 C 356.39702,79.076697 351.62082,81.244504 347.91978,85.580003 C 344.21862,89.915646 342.36805,96.489527 342.36811,105.30162 L 342.36811,105.30162 z M 445.66665,6.7463716 L 488.81101,6.7463716 L 488.81101,161.76998 L 445.66665,161.76998 L 445.66665,6.7463716 z M 639.9804,161.76998 L 599.79691,161.76998 L 599.79691,143.58168 C 593.80456,151.0544 587.75942,156.37695 581.66147,159.54931 C 575.56338,162.7217 568.07306,164.30788 559.19045,164.30788 C 547.34686,164.30788 538.05886,160.76539 531.32641,153.6804 C 524.59389,146.59544 521.22763,135.686 521.22766,120.95203 L 521.22766,49.467743 L 564.47777,49.467743 L 564.47777,111.22341 C 564.47771,118.27317 565.78191,123.27847 568.39036,126.23934 C 570.9987,129.20024 574.66454,130.6807 579.38795,130.68068 C 584.53417,130.6807 588.74638,128.70676 592.02457,124.75888 C 595.30263,120.81108 596.9417,113.72609 596.94178,103.50394 L 596.94178,49.467743 L 639.9804,49.467743 L 639.9804,161.76998 z M 795.09305,116.2992 L 708.80433,116.2992 C 709.57973,123.20798 711.44793,128.35429 714.40885,131.73812 C 718.56814,136.60247 723.99643,139.0346 730.69375,139.0346 C 734.9235,139.0346 738.94184,137.97716 742.74878,135.86221 C 745.07511,134.52278 747.57776,132.16114 750.25676,128.77722 L 792.66089,132.68985 C 786.17501,143.96941 778.34982,152.05899 769.18528,156.95854 C 760.02052,161.85809 746.87278,164.30788 729.74202,164.30788 C 714.86704,164.30788 703.16449,162.2106 694.63438,158.01599 C 686.10416,153.82141 679.03683,147.15944 673.4323,138.03002 C 667.82775,128.90063 665.02548,118.16743 665.02548,105.83035 C 665.02548,88.276605 670.64764,74.071397 681.89198,63.214731 C 693.13626,52.35824 708.66329,46.929951 728.47308,46.929864 C 744.54637,46.929951 757.23588,49.362112 766.54163,54.226318 C 775.84717,59.090728 782.93213,66.140458 787.79656,75.375509 C 792.66074,84.610734 795.0929,96.630534 795.09305,111.43491 L 795.09305,116.2992 z M 751.3142,95.678749 C 750.46814,87.360137 748.22987,81.403111 744.59934,77.80767 C 740.96865,74.212403 736.19247,72.414727 730.27076,72.414639 C 723.43247,72.414727 717.96892,75.128871 713.88015,80.557073 C 711.27169,83.941019 709.61499,88.981578 708.91008,95.678749 L 751.3142,95.678749 z"
       id="text3302"
       style="font-size:74.56667328px;font-style:normal;font-variant:normal;font-weight:normal;font-stretch:normal;text-align:start;line-height:100%;writing-mode:lr-tb;text-anchor:start;fill:#252f86;fill-opacity:1;stroke:none;stroke-width:1px;stroke-linecap:butt;stroke-linejoin:miter;stroke-opacity:1;font-family:Arial Black;-inkscape-font-specification:Arial Black" />
    <path
       d="M 84.816777,147.91727 C 77.76696,153.90953 70.981613,158.13936 64.460678,160.60678 C 57.939627,163.07417 50.942756,164.30788 43.470094,164.30788 C 31.133023,164.30788 21.65116,161.29413 15.024421,155.26661 C 8.3976808,149.2391 5.0843105,141.53728 5.0843105,132.16111 C 5.0843105,126.66236 6.3356209,121.63943 8.8382998,117.09229 C 11.34095,112.54527 14.619061,108.89706 18.672663,106.1476 C 22.726235,103.39825 27.290944,101.31859 32.366762,99.908587 C 36.103093,98.921689 41.742877,97.969962 49.286143,97.053436 C 64.654485,95.220588 75.969283,93.035151 83.230595,90.497184 C 83.300997,87.888874 83.336255,86.232174 83.336343,85.527143 C 83.336255,77.772498 81.538579,72.308979 77.943283,69.136499 C 73.078902,64.836259 65.852936,62.686111 56.265356,62.685994 C 47.312143,62.686111 40.703032,64.254663 36.437993,67.391681 C 32.172867,70.528932 29.018133,76.080569 26.973731,84.04668 L 8.362451,81.508771 C 10.054351,73.542689 12.839014,67.109814 16.71638,62.210146 C 20.593686,57.310681 26.198241,53.539091 33.529983,50.895319 C 40.861668,48.251779 49.356574,46.929951 59.014759,46.929864 C 68.602311,46.929951 76.392273,48.057913 82.384616,50.313722 C 88.376814,52.569735 92.782888,55.407256 95.602867,58.826258 C 98.422672,62.245492 100.39658,66.563448 101.52463,71.780155 C 102.159,75.023124 102.47625,80.874403 102.47636,89.333992 L 102.47636,114.71302 C 102.47625,132.40786 102.88161,143.59931 103.69244,148.28737 C 104.50305,152.97546 106.10686,157.46965 108.50388,161.76998 L 88.623626,161.76998 C 86.649626,157.82212 85.380657,153.20455 84.816777,147.91727 L 84.816777,147.91727 z M 83.230595,105.40736 C 76.321784,108.22732 65.958684,110.62422 52.141265,112.5981 C 44.316015,113.72609 38.781978,114.99506 35.539155,116.40495 C 32.296244,117.81495 29.793594,119.87698 28.031176,122.5911 C 26.268729,125.30527 25.38752,128.31903 25.387549,131.63237 C 25.38752,136.70822 27.308574,140.93806 31.150681,144.32189 C 34.992759,147.70577 40.614914,149.3977 48.017174,149.3977 C 55.34883,149.3977 61.869823,147.79389 67.580183,144.58627 C 73.290397,141.37865 77.484977,136.9902 80.16395,131.42088 C 82.208293,127.12058 83.230508,120.77582 83.230595,112.38661 L 83.230595,105.40736 z M 145.53992,28.635795 L 145.53992,6.7463716 L 164.57419,6.7463716 L 164.57419,28.635795 L 145.53992,28.635795 z M 145.53992,161.76998 L 145.53992,49.467743 L 164.57419,49.467743 L 164.57419,161.76998 L 145.53992,161.76998 z M 213.97972,161.76998 L 213.97972,49.467743 L 231.11057,49.467743 L 231.11057,66.492843 C 235.48136,58.526761 239.51733,53.274708 243.21846,50.736712 C 246.91953,48.19892 250.99076,46.929951 255.43213,46.929864 C 261.84731,46.929951 268.36834,48.974381 274.99513,53.063126 L 268.43888,70.722681 C 263.786,67.973394 259.13317,66.598707 254.48043,66.59859 C 250.32102,66.598707 246.58466,67.850017 243.27135,70.35258 C 239.95792,72.855317 237.59628,76.327322 236.18636,80.768568 C 234.07141,87.536373 233.01397,94.938575 233.014,102.9752 L 233.014,161.76998 L 213.97972,161.76998 z"
       id="text3298"
       style="font-size:74.56667328px;font-style:normal;font-variant:normal;font-weight:normal;font-stretch:normal;text-align:start;line-height:100%;writing-mode:lr-tb;text-anchor:start;fill:#828282;fill-opacity:1;stroke:none;stroke-width:1px;stroke-linecap:butt;stroke-linejoin:miter;stroke-opacity:1;font-family:Arial;-inkscape-font-specification:Arial" />
  </g>
</svg>
