<?xml version="1.0" encoding="UTF-8" standalone="no"?>
<!DOCTYPE svg PUBLIC "-//W3C//DTD SVG 1.1//EN" "http://www.w3.org/Graphics/SVG/1.1/DTD/svg11.dtd">
<svg width="100%" height="100%" viewBox="0 0 114 113" version="1.1" xmlns="http://www.w3.org/2000/svg" xmlns:xlink="http://www.w3.org/1999/xlink" xml:space="preserve" xmlns:serif="http://www.serif.com/" style="fill-rule:evenodd;clip-rule:evenodd;stroke-linejoin:round;stroke-miterlimit:2;">
    <g transform="matrix(4.166667,0,0,4.166667,0,0)">
        <g transform="matrix(1,0,0,1,-1.00011,-1.176417)">
            <path d="M10.272,15.457C10.272,15.457 8.822,9.423 12.132,8.457C15.441,7.492 15.918,8.975 15.918,8.975L16.033,9.78L16.908,9.372L17.114,10.571C17.114,10.571 19.644,10.131 19.344,11.237C19.043,12.345 14.717,13.403 14.111,15.895C14.111,15.895 20.649,11.494 23.69,12.388C26.733,13.285 25.512,14.602 25.512,14.602L26.189,15.139L25.389,15.877L26.78,18.328C26.78,18.328 26.73,20.831 23.005,22.098L17.999,19.576C17.999,19.576 22.706,23.206 21.243,25.892C19.781,28.581 18.135,27.434 18.135,27.434L17.344,26.092L16.699,27.208L16.132,26.854C16.132,26.854 12.065,28.128 11.675,27.942C11.286,27.754 10.802,24.13 12.115,22.304C13.428,20.481 12.03,22.533 12.03,22.533C12.03,22.533 8.82,24.235 7.506,26.958C6.19,29.681 3.798,26.492 3.798,26.492L3.983,25.479L3.36,25.482L1.557,24.86C1.557,24.86 -0.053,20.242 2.202,17.998C4.456,15.75 3.929,16.769 3.929,16.769L3.38,15.582L4.456,15.75C4.456,15.75 5.571,12.451 6.309,12.35C7.047,12.251 9.519,17.914 11.622,18.334C13.726,18.753 10.493,16.725 10.272,15.457" style="fill:rgb(240,73,35);fill-rule:nonzero;"/>
            <path d="M23.887,7.866C23.693,7.528 23.096,7.67 22.554,8.18C22.435,8.29 22.331,8.412 22.24,8.537C22.28,8.378 22.275,8.236 22.218,8.135C22.062,7.865 21.585,7.978 21.152,8.386C20.718,8.795 20.493,9.347 20.648,9.617C20.804,9.887 21.282,9.774 21.715,9.365C21.794,9.291 21.861,9.212 21.925,9.133C21.887,9.251 21.867,9.365 21.868,9.467C18.525,14.4 15.667,17.078 14.422,18.126C14.116,17.558 13.177,15.803 12.663,14.756C12.991,16.277 13.061,19.374 13.061,19.374L11.069,19.181C11.069,19.181 11.281,20.107 10.749,19.903C10.216,19.701 8.647,18.518 8.41,18.898C8.173,19.276 10.305,20.087 9.138,19.948C7.969,19.81 5.83,21.101 5.83,21.101C9.275,20.557 10.004,20.552 10.004,20.552L12.021,20.502C12.103,21.214 13.192,21.371 13.613,21.437C14.034,21.502 13.889,20.159 14.414,20.686C14.941,21.216 15.72,23.552 15.72,23.552C15.827,22.959 15.363,20.225 15.363,20.225C15.363,20.225 15.848,20.926 16.168,21.258C16.487,21.591 17.069,21.297 17.106,20.395C17.143,19.495 15.247,19.36 16.126,18.591C17.004,17.823 19.083,19.287 19.398,18.89C19.712,18.494 18.76,17.34 18.76,17.34C19.051,17.192 22.569,15.901 22.569,15.901C20.955,15.87 17.606,17.085 15.777,17.801C17.034,15.801 19.811,12.676 21.765,10.562C21.744,10.689 21.755,10.802 21.804,10.887C21.959,11.156 22.437,11.043 22.87,10.635C23.305,10.227 23.53,9.674 23.375,9.404C23.36,9.378 23.34,9.36 23.32,9.342C23.819,8.837 24.074,8.19 23.887,7.866" style="fill:rgb(253,185,19);fill-rule:nonzero;"/>
            <path d="M25.808,3.075C26.242,2.666 26.467,2.114 26.312,1.843C26.156,1.572 25.679,1.686 25.246,2.097C24.811,2.506 24.587,3.057 24.742,3.326C24.896,3.597 25.374,3.485 25.808,3.075" style="fill:rgb(253,185,19);fill-rule:nonzero;"/>
            <path d="M22.804,5.936C23.151,5.609 23.33,5.169 23.207,4.952C23.082,4.736 22.7,4.825 22.353,5.153C22.006,5.481 21.826,5.923 21.951,6.138C22.074,6.355 22.457,6.264 22.804,5.936" style="fill:rgb(253,185,19);fill-rule:nonzero;"/>
            <path d="M28.274,1.294C28.149,1.078 27.768,1.168 27.421,1.495C27.074,1.824 26.893,2.265 27.018,2.481C27.143,2.699 27.525,2.606 27.872,2.28C28.218,1.952 28.398,1.512 28.274,1.294" style="fill:rgb(253,185,19);fill-rule:nonzero;"/>
            <path d="M25.475,7.356C25.041,7.766 24.816,8.317 24.971,8.587C25.127,8.857 25.604,8.746 26.037,8.336C26.471,7.927 26.696,7.374 26.541,7.105C26.386,6.834 25.908,6.946 25.475,7.356" style="fill:rgb(253,185,19);fill-rule:nonzero;"/>
            <path d="M25.935,4.461C25.741,4.122 25.144,4.265 24.603,4.777C24.061,5.289 23.779,5.976 23.973,6.316C24.167,6.653 24.765,6.513 25.306,6.001C25.85,5.49 26.13,4.799 25.935,4.461" style="fill:rgb(253,185,19);fill-rule:nonzero;"/>
            <path d="M12.662,14.756C12.586,14.406 12.497,14.139 12.392,14.012C12.212,13.793 12.368,14.158 12.662,14.756" style="fill:rgb(253,185,19);fill-rule:nonzero;"/>
        </g>
    </g>
</svg>
