<?xml version="1.0" encoding="UTF-8" standalone="no"?>
<svg
   xmlns:dc="http://purl.org/dc/elements/1.1/"
   xmlns:cc="http://creativecommons.org/ns#"
   xmlns:rdf="http://www.w3.org/1999/02/22-rdf-syntax-ns#"
   xmlns:svg="http://www.w3.org/2000/svg"
   xmlns="http://www.w3.org/2000/svg"
   width="500"
   height="70"
   viewBox="0 0 132.29166 18.520834"
   version="1.1"
   id="svg8">
  <defs
     id="defs2" />
  <metadata
     id="metadata5">
    <rdf:RDF>
      <cc:Work
         rdf:about="">
        <dc:format>image/svg+xml</dc:format>
        <dc:type
           rdf:resource="http://purl.org/dc/dcmitype/StillImage" />
        <dc:title></dc:title>
      </cc:Work>
    </rdf:RDF>
  </metadata>
  <g
     id="layer1">
    <path
       d="m 29.996417,17.019459 h 5.989921 V 1.1934265 h -5.989921 z"
       style="fill:#dc3626;fill-opacity:1;fill-rule:evenodd;stroke:none;stroke-width:0.0630519"
       id="path943" />
    <path
       d="m 29.996417,17.019459 h 5.989921 V 1.1934265 h -5.989921 z"
       style="fill:none;stroke:#da251d;stroke-width:0.0630519;stroke-linecap:round;stroke-linejoin:round;stroke-miterlimit:10;stroke-dasharray:none;stroke-opacity:1"
       id="path945" />
    <path
       d="M 1.2447462,17.019459 15.99889,1.1932924 H 26.27635 V 17.019459 l -5.98993,-0.063 v -4.098363 l -5.359411,-0.063 2.963438,-3.2157665 h 2.143766 V 5.2287434 L 19.718953,5.1657411 7.9282475,17.208794 1.2447462,17.019638"
       style="fill:#dc3626;fill-opacity:1;fill-rule:evenodd;stroke:none;stroke-width:0.0630519"
       id="path947" />
    <path
       d="M 1.2447462,17.019459 15.99889,1.1932924 H 26.27635 V 17.019459 l -5.98993,-0.063 v -4.098363 l -5.359411,-0.063 2.963438,-3.2157665 h 2.143766 V 5.2287434 L 19.718953,5.1657411 7.9282475,17.208794 Z"
       style="fill:none;stroke:#da251d;stroke-width:0.0630519;stroke-linecap:round;stroke-linejoin:round;stroke-miterlimit:10;stroke-dasharray:none;stroke-opacity:1"
       id="path949" />
    <path
       d="M 40.02167,16.956397 V 1.1932924 l 15.006348,-0.063002 0.630514,0.063002 0.567467,0.2522176 0.315265,0.1261534 1.008825,0.5674672 0.50442,0.5674671 0.315265,0.3783114 0.252202,0.3783114 0.252203,0.5674672 0.189156,0.4413732 0.126153,0.5044053 0.189156,0.5044202 0.063,0.8196698 v 0.630529 l -0.189154,0.5674671 -0.189155,0.5674672 -0.31525,0.5674671 -0.315264,0.3152496 -0.378312,0.4413733 -0.567467,0.441358 -0.441358,0.3152655 -0.567467,0.315249 -0.378312,0.063 -0.189156,0.126153 h -0.252217 v 0.441373 l 6.3052,6.053102 -8.638116,-0.189156 -7.314025,-6.68363 -0.063,-0.6305145 h 4.287535 l 1.261028,-0.6935763 0.378311,-0.4413584 0.252218,-0.6935759 0.063,-0.3783114 V 6.9310852 L 52.064529,6.3005562 51.749279,5.6069952 51.434015,5.2286838 51.055703,4.7873105 50.488236,4.4720609 h -4.855001 l 0.063,12.4843961 h -5.674672"
       style="fill:#dc3626;fill-opacity:1;fill-rule:evenodd;stroke:none;stroke-width:0.0630519"
       id="path951" />
    <path
       d="M 40.02167,16.956397 V 1.1932924 l 15.006348,-0.063002 0.630514,0.063002 0.567467,0.2522176 0.315265,0.1261534 1.008825,0.5674672 0.50442,0.5674671 0.315265,0.3783114 0.252202,0.3783114 0.252203,0.5674672 0.189156,0.4413732 0.126153,0.5044053 0.189156,0.5044202 0.063,0.8196698 v 0.630529 l -0.189154,0.5674671 -0.189155,0.5674672 -0.31525,0.5674671 -0.315264,0.3152496 -0.378312,0.4413733 -0.567467,0.441358 -0.441358,0.3152655 -0.567467,0.315249 -0.378312,0.063 -0.189156,0.126153 h -0.252217 v 0.441373 l 6.3052,6.053102 -8.638116,-0.189156 -7.314025,-6.68363 -0.063,-0.6305145 h 4.287535 l 1.261028,-0.6935763 0.378311,-0.4413584 0.252218,-0.6935759 0.063,-0.3783114 V 6.9310852 L 52.064529,6.3005562 51.749279,5.6069952 51.434015,5.2286838 51.055703,4.7873105 50.488236,4.4720609 h -4.855001 l 0.063,12.4843961 z"
       style="fill:none;stroke:#da251d;stroke-width:0.0630519;stroke-linecap:round;stroke-linejoin:round;stroke-miterlimit:10;stroke-dasharray:none;stroke-opacity:1"
       id="path953" />
    <path
       d="m 77.222283,17.019459 h 6.242138 V 1.4456291 h -6.242138 z"
       style="fill:#dc3626;fill-opacity:1;fill-rule:evenodd;stroke:none;stroke-width:0.0630519"
       id="path955" />
    <path
       d="m 77.222283,17.019459 h 6.242138 V 1.4456291 h -6.242138 z"
       style="fill:none;stroke:#da251d;stroke-width:0.0630519;stroke-linecap:round;stroke-linejoin:round;stroke-miterlimit:10;stroke-dasharray:none;stroke-opacity:1"
       id="path957" />
    <path
       d="m 63.540025,1.2563543 h 6.11603 l 0.063,11.9169287 h 4.413628 v 3.846176 H 63.666074 L 63.539921,1.2563543"
       style="fill:#dc3626;fill-opacity:1;fill-rule:evenodd;stroke:none;stroke-width:0.0630519"
       id="path959" />
    <path
       d="m 63.540025,1.2563543 h 6.11603 l 0.063,11.9169287 h 4.413628 v 3.846176 H 63.666074 Z"
       style="fill:none;stroke:#da251d;stroke-width:0.0630519;stroke-linecap:round;stroke-linejoin:round;stroke-miterlimit:10;stroke-dasharray:none;stroke-opacity:1"
       id="path961" />
    <path
       d="m 87.121442,17.019459 h 6.179076 V 9.5161435 h 0.252218 l 7.755384,7.6924715 5.42245,-0.063 V 1.3825077 h -6.36823 v 7.1248701 l -7.314024,-7.0618082 -6.11603,-0.063002 0.189156,15.6370104"
       style="fill:#dc3626;fill-opacity:1;fill-rule:evenodd;stroke:none;stroke-width:0.0630519"
       id="path963" />
    <path
       d="m 87.121442,17.019459 h 6.179076 V 9.5161435 h 0.252218 l 7.755384,7.6924715 5.42245,-0.063 V 1.3825077 h -6.36823 v 7.1248701 l -7.314024,-7.0618082 -6.11603,-0.063002 z"
       style="fill:none;stroke:#da251d;stroke-width:0.0630519;stroke-linecap:round;stroke-linejoin:round;stroke-miterlimit:10;stroke-dasharray:none;stroke-opacity:1"
       id="path965" />
    <path
       d="m 110.32453,1.44551 v 15.700043 h 6.3052 V 9.2639415 l 7.06181,8.0077205 7.62928,-0.063 -7.62928,-8.3229857 -0.063,-0.7566228 5.86383,-6.7465587 h -7.31403 l -5.17025,6.1790916 -0.31527,-0.2522027 V 1.3824928 l -6.36824,0.063002"
       style="fill:#dc3626;fill-opacity:1;fill-rule:evenodd;stroke:none;stroke-width:0.0630519"
       id="path967" />
    <path
       d="m 110.32453,1.44551 v 15.700043 h 6.3052 V 9.2639415 l 7.06181,8.0077205 7.62928,-0.063 -7.62928,-8.3229857 -0.063,-0.7566228 5.86383,-6.7465587 h -7.31403 l -5.17025,6.1790916 -0.31527,-0.2522027 V 1.3824928 Z"
       style="fill:none;stroke:#da251d;stroke-width:0.0630519;stroke-linecap:round;stroke-linejoin:round;stroke-miterlimit:10;stroke-dasharray:none;stroke-opacity:1"
       id="path969" />
  </g>
</svg>
