<?xml version="1.0" encoding="UTF-8" standalone="no"?>
<!DOCTYPE svg PUBLIC "-//W3C//DTD SVG 1.1//EN" "http://www.w3.org/Graphics/SVG/1.1/DTD/svg11.dtd">
<svg width="100%" height="100%" viewBox="0 0 198 105" version="1.1" xmlns="http://www.w3.org/2000/svg" xmlns:xlink="http://www.w3.org/1999/xlink" xml:space="preserve" xmlns:serif="http://www.serif.com/" style="fill-rule:evenodd;clip-rule:evenodd;stroke-linejoin:round;stroke-miterlimit:2;">
    <g transform="matrix(4.166667,0,0,4.166667,0,0)">
        <g id="g20" transform="matrix(1.333333,0,0,-1.333333,16.275122,23.665783)">
            <path id="path22" d="M0,0C-0.083,0.077 0.09,0.443 0.392,0.821C0.458,0.903 5.711,7.88 9.08,11.96C9.573,12.558 11.22,14.215 12.471,15.054C13.538,15.769 15.05,16.656 15.296,16.428L15.34,16.388C15.585,16.159 14.805,14.588 14.169,13.474C13.42,12.165 11.884,10.405 11.322,9.871C7.491,6.221 0.904,0.487 0.826,0.415C0.471,0.088 0.119,-0.112 0.035,-0.034L0,0" style="fill:rgb(165,199,234);fill-rule:nonzero;"/>
        </g>
        <g id="g24" transform="matrix(1.333333,0,0,-1.333333,13.622855,5.789117)">
            <path id="path26" d="M0,0C2.626,-1.855 5.785,-5.251 5.785,-5.251C6.936,-3.779 7.769,-2.719 9.045,-1.173C9.167,-1.026 9.36,-0.814 9.601,-0.564C9.601,-0.564 -0.182,1.151 -6.825,4.285C-7.873,4.779 -2.754,1.944 0,0" style="fill:rgb(165,199,234);fill-rule:nonzero;"/>
        </g>
        <g id="g28" transform="matrix(1.333333,0,0,-1.333333,36.839122,17.013517)">
            <path id="path30" d="M0,0C-3.155,0.608 -6.621,0.743 -6.621,0.743C-4.957,2.237 -4.314,2.888 -3.38,3.705C-3.235,3.831 -2.912,4.215 -2.56,4.554C-2.56,4.554 0.956,0.669 7.818,-1.949C8.903,-2.362 3.311,-0.637 0,0" style="fill:rgb(165,199,234);fill-rule:nonzero;"/>
        </g>
        <g id="g32" transform="matrix(1.333333,0,0,-1.333333,29.704055,25.148583)">
            <path id="path34" d="M0,0C-0.02,0.018 0.025,0.104 0.102,0.192C0.117,0.209 1.44,1.81 2.285,2.743C2.409,2.882 2.817,3.257 3.123,3.443C3.386,3.6 3.753,3.795 3.81,3.739L3.818,3.729C3.874,3.671 3.672,3.307 3.509,3.049C3.318,2.746 2.934,2.345 2.795,2.224C1.846,1.398 0.219,0.107 0.201,0.09C0.112,0.015 0.027,-0.027 0.007,-0.008L0,0" style="fill:rgb(165,199,234);fill-rule:nonzero;"/>
        </g>
        <g id="g36" transform="matrix(1.333333,0,0,-1.333333,29.260455,20.875516)">
            <path id="path38" d="M0,0C0.603,-0.468 1.318,-1.309 1.318,-1.309C1.607,-0.972 1.815,-0.729 2.135,-0.375C2.166,-0.342 2.215,-0.293 2.273,-0.237C2.273,-0.237 -0.03,0.276 -1.575,1.091C-1.82,1.22 -0.633,0.492 0,0" style="fill:rgb(165,199,234);fill-rule:nonzero;"/>
        </g>
        <g id="g40" transform="matrix(1.333333,0,0,-1.333333,34.662322,23.786983)">
            <path id="path42" d="M0,0C-0.743,0.179 -1.565,0.249 -1.565,0.249C-1.153,0.585 -0.993,0.733 -0.762,0.917C-0.726,0.945 -0.646,1.032 -0.56,1.11C-0.56,1.11 0.236,0.15 1.836,-0.546C2.09,-0.657 0.779,-0.186 0,0" style="fill:rgb(165,199,234);fill-rule:nonzero;"/>
        </g>
        <g id="g44" transform="matrix(1.333333,0,0,-1.333333,3.851522,19.93685)">
            <path id="path46" d="M0,0C-0.028,0.028 0.036,0.151 0.142,0.277C0.166,0.305 2.027,2.647 3.217,4.014C3.391,4.215 3.97,4.767 4.406,5.043C4.778,5.278 5.304,5.569 5.386,5.488L5.4,5.474C5.482,5.393 5.202,4.862 4.974,4.486C4.705,4.045 4.164,3.457 3.966,3.279C2.623,2.063 0.315,0.158 0.288,0.136C0.162,0.025 0.039,-0.039 0.011,-0.011L0,0" style="fill:rgb(165,199,234);fill-rule:nonzero;"/>
        </g>
        <g id="g48" transform="matrix(1.333333,0,0,-1.333333,3.127122,13.83885)">
            <path id="path50" d="M0,0C0.882,-0.658 1.933,-1.85 1.933,-1.85C2.342,-1.357 2.636,-1.001 3.087,-0.483C3.13,-0.434 3.198,-0.362 3.283,-0.28C3.283,-0.28 -0.051,0.395 -2.298,1.528C-2.653,1.708 -0.925,0.69 0,0" style="fill:rgb(165,199,234);fill-rule:nonzero;"/>
        </g>
        <g id="g52" transform="matrix(1.333333,0,0,-1.333333,10.897789,17.84125)">
            <path id="path54" d="M0,0C-1.075,0.237 -2.262,0.314 -2.262,0.314C-1.678,0.811 -1.452,1.028 -1.125,1.299C-1.074,1.342 -0.96,1.469 -0.836,1.583C-0.836,1.583 0.333,0.22 2.659,-0.739C3.028,-0.889 1.127,-0.248 0,0" style="fill:rgb(165,199,234);fill-rule:nonzero;"/>
        </g>
    </g>
</svg>
