<?xml version="1.0" encoding="UTF-8" standalone="no"?>
<!DOCTYPE svg PUBLIC "-//W3C//DTD SVG 1.1//EN" "http://www.w3.org/Graphics/SVG/1.1/DTD/svg11.dtd">
<svg width="100%" height="100%" viewBox="0 0 2070 905" version="1.1" xmlns="http://www.w3.org/2000/svg" xmlns:xlink="http://www.w3.org/1999/xlink" xml:space="preserve" xmlns:serif="http://www.serif.com/" style="fill-rule:evenodd;clip-rule:evenodd;">
    <g transform="matrix(4.166667,0,0,4.166667,0,0)">
        <g id="layer1" transform="matrix(3.779527,0,0,3.779527,-1.746513,-2.67346)">
            <g id="path1132" transform="matrix(0.648856,0,0,0.648856,-40.489338,-4.96)">
                <g id="text1130">
                    <path id="path11321" serif:id="path1132" d="M175.709,28.742C173.786,29.368 172.143,29.607 170.253,29.685C166.254,29.627 164.173,25.755 164.459,22.188C164.588,20.689 165.027,19.321 165.775,18.086C166.534,16.851 167.5,15.911 168.676,15.264C169.862,14.616 171.16,14.291 172.57,14.291C174.323,14.307 175,14.396 176.475,14.807L179.075,10.112C176.989,9.278 173.706,8.734 172.16,8.734C170.479,8.734 168.829,8.987 167.213,9.49C165.595,9.982 164.075,10.808 162.652,11.971C161.229,13.122 160.087,14.568 159.227,16.307C158.376,18.033 157.857,19.982 157.672,22.152C157.511,24.011 157.627,25.689 158.02,27.188C158.412,28.686 159.169,29.994 160.291,31.109C161.411,32.213 162.678,33.008 164.09,33.5C165.511,33.98 167.068,34.221 168.76,34.221C170.514,34.221 173.313,33.813 175.578,33.441L175.709,28.742ZM143.552,9.201L130.121,33.752L136.338,33.761L139.214,27.844L147.143,27.835C147.775,30.509 147.985,31.774 148.273,33.752L155.432,33.752L149.703,9.201L143.552,9.201ZM197.58,13.762L198.171,9.184L182.326,9.201L179.109,33.752L195.676,33.752L195.536,29.433L186.406,29.433L187.186,23.616L195.23,23.616L195.115,18.977L187.872,18.977L188.575,13.724L197.58,13.762ZM145.157,16.578C145.226,17.01 145.778,19.383 146.631,23.616C146.631,23.616 141.503,23.762 141.54,23.626L145.157,16.578Z" style="fill:rgb(6,29,76);fill-rule:nonzero;"/>
                </g>
            </g>
            <path id="path1148-7" d="M1.759,18.387C0.911,18.387 0.462,18.528 0.462,18.988C0.462,20.934 3.398,22.341 7.639,22.341L56.864,22.341C59.647,20.925 62.745,20.185 65.89,20.184C69.035,20.185 72.133,20.925 74.916,22.341L124.724,22.341C128.965,22.341 131.901,20.934 131.901,18.988C131.901,18.528 131.452,18.387 130.605,18.387L1.759,18.387ZM14.537,23.51C13.858,23.51 13.498,23.623 13.498,23.991C13.498,25.552 15.851,26.679 19.251,26.679L51.221,26.679C52.294,25.478 53.52,24.413 54.871,23.51L14.537,23.51ZM76.912,23.51C78.262,24.413 79.487,25.478 80.559,26.679L113.113,26.679C116.513,26.679 118.866,25.552 118.866,23.991C118.866,23.623 118.506,23.51 117.826,23.51L76.912,23.51ZM29.724,27.556C29.245,27.556 28.99,27.666 28.99,28.024C28.99,29.538 30.652,30.632 33.052,30.632L48.515,30.632C49.068,29.548 49.728,28.518 50.486,27.556L29.724,27.556ZM81.295,27.556C82.054,28.518 82.713,29.548 83.266,30.632L99.311,30.632C101.711,30.632 103.373,29.538 103.373,28.024C103.373,27.666 103.119,27.556 102.639,27.556L81.295,27.556Z" style="fill:rgb(6,29,76);fill-rule:nonzero;"/>
            <path id="path1232" d="M74.921,51.285L65.901,44.973L56.888,51.3L60.103,40.771L51.301,34.154L62.309,33.958L65.882,23.542L69.469,33.951L80.48,34.13L71.689,40.759L74.921,51.285Z" style="fill:none;fill-rule:nonzero;stroke:rgb(6,29,76);stroke-width:0.74px;"/>
            <ellipse id="path1240" cx="65.89" cy="38.896" rx="16.943" ry="16.37" style="fill:none;stroke:rgb(172,34,38);stroke-width:1.05px;stroke-linejoin:round;"/>
            <ellipse id="path1240-3" cx="65.89" cy="38.896" rx="19.367" ry="18.711" style="fill:none;stroke:rgb(172,34,38);stroke-width:1.05px;stroke-linejoin:round;"/>
        </g>
    </g>
</svg>
