<?xml version="1.0" encoding="UTF-8" standalone="no"?>
<!DOCTYPE svg PUBLIC "-//W3C//DTD SVG 1.1//EN" "http://www.w3.org/Graphics/SVG/1.1/DTD/svg11.dtd">
<svg width="100%" height="100%" viewBox="0 0 1593 1684" version="1.1" xmlns="http://www.w3.org/2000/svg" xmlns:xlink="http://www.w3.org/1999/xlink" xml:space="preserve" xmlns:serif="http://www.serif.com/" style="fill-rule:evenodd;clip-rule:evenodd;stroke-linejoin:round;stroke-miterlimit:2;">
    <g transform="matrix(4.166667,0,0,4.166667,0,0)">
        <g transform="matrix(1,0,0,1,0.292451,0)">
            <path d="M197,19L351,19C368,19 381,34 381,53L381,345L367,345L367,56C367,43 358,33 346,33L197,33L197,19ZM182,404L31,404C14,404 0,388 0,370L0,63L14,63L14,366C14,379 24,389 35,389L182,389L182,404Z" style="fill:rgb(11,69,132);fill-rule:nonzero;"/>
            <path d="M197,38L342,38C353,38 362,48 362,61L362,345L348,345L348,68C348,60 341,53 334,53L197,53L197,38ZM182,384L40,384C29,384 20,374 20,361L20,63L34,63L34,354C34,363 40,370 48,370L182,370L182,384Z" style="fill:rgb(227,30,36);fill-rule:nonzero;"/>
            <rect x="258" y="172" width="58.981" height="126.767" style="fill:rgb(11,69,132);"/>
            <path d="M63,298L223,114L304,114L145,298L63,298Z" style="fill:rgb(11,69,132);fill-rule:nonzero;"/>
            <path d="M156,37L132,37L105,41L103,37L62,37L62,45L53,45L52,37L31,37L24,33C19,34 2,37 0,41C-3,47 18,47 21,47C27,48 39,47 47,47C53,47 62,47 66,48C68,48 70,49 74,50L79,40L94,40L112,48C120,47 129,45 137,43C138,43 139,43 139,44C141,44 141,42 142,42C144,41 155,37 156,37ZM61,37L53,37L54,44L61,44L61,37ZM125,37L104,37L106,39L125,37ZM76,50C79,50 83,51 89,51C90,51 98,50 99,50C103,50 106,49 110,49L93,42L80,42L76,50Z" style="fill:rgb(227,30,36);fill-rule:nonzero;"/>
            <path d="M27,32L30,35L52,35L54,26L62,26L62,35L103,35L103,26L104,26L104,35L130,35L131,27L133,27L132,35L164,35C166,34 170,33 172,32C174,31 174,29 172,28C172,26 189,4 192,0C173,0 170,0 164,5L137,25C137,26 132,25 131,25C123,23 112,22 104,23L103,23C103,23 102,23 102,24C86,23 70,23 54,23C50,23 43,23 39,24C37,25 33,29 30,30C30,31 27,32 27,32ZM53,35L61,35L61,26L55,26L53,35ZM40,25L43,25L42,26L47,26L46,31L39,31L38,33L30,32L40,25ZM40,26L41,26L38,30L37,32L33,31L40,26ZM42,26L46,26L45,30L39,30L42,26ZM183,2L186,4L184,2L176,2L169,4L172,5L171,4L176,2L183,2ZM179,7L184,6L179,6L158,27L170,27L160,27L179,7ZM76,32C77,30 77,28 76,27C75,27 74,27 74,28C73,28 72,32 74,32L76,32ZM85,28C84,27 83,27 83,27C81,28 81,32 82,32C82,33 84,32 84,32C85,32 85,32 85,31C86,30 85,29 85,28ZM56,28C55,29 55,30 56,31C56,32 56,32 57,32L59,32C60,32 60,28 59,27C58,27 57,27 56,28ZM65,32L67,32C68,32 68,32 68,31L68,28C67,27 66,27 66,27C65,28 65,28 64,29C64,30 64,31 65,32Z" style="fill:rgb(11,69,132);fill-rule:nonzero;"/>
            <path d="M212,380L209,381L209,383C211,386 263,393 267,393C268,393 276,395 276,396C277,397 285,400 286,400C288,400 290,400 291,401C295,402 307,401 307,402C308,403 307,404 310,404L342,404C343,404 345,403 345,402C350,402 373,403 374,397C374,393 360,390 358,390C357,389 357,389 357,388L353,388L354,389C354,391 353,392 352,393C349,395 348,394 347,394L345,389L344,389L345,392C346,393 345,395 344,395L338,395C336,395 335,394 335,393L335,389L330,389L330,392C330,393 329,394 328,394L321,394L320,393L320,389L319,389L319,393C319,394 319,394 318,394L311,394C310,394 310,393 310,392L309,389L290,389L212,380Z" style="fill:rgb(11,69,132);fill-rule:nonzero;"/>
            <path d="M285,372C284,373 284,372 284,373C280,374 276,375 272,376C270,377 271,377 269,377C258,377 246,378 234,378C233,378 232,377 231,377C228,376 226,373 224,371C222,369 219,366 217,363C216,363 216,363 216,362C215,361 215,361 215,360C215,359 215,358 214,358C214,358 214,357 215,357C216,357 216,358 216,356C217,354 220,349 220,347C219,347 218,346 217,347C216,349 214,357 213,357C213,358 212,359 212,359L207,361L206,360C204,360 196,361 195,361C195,362 195,362 196,363C197,364 197,363 199,363C201,363 204,363 206,362C206,362 215,375 215,378L215,379C215,379 283,386 289,387L309,387L309,385C309,384 310,383 311,383L317,383C318,383 318,384 318,385L319,387L320,387L320,385C320,384 320,383 322,383L327,383C328,383 329,384 329,385L329,387L335,387L334,383C334,383 335,382 336,382L339,382C340,382 341,382 341,383L343,387L344,387L342,383C342,382 342,382 343,382L345,381L352,387L356,387C355,386 354,385 353,385L352,385L350,383L349,383C349,382 347,381 346,380C343,379 342,378 339,377C338,376 339,377 337,376L338,376C340,376 344,371 344,370C344,370 339,374 338,375C337,375 336,375 335,376C334,376 333,376 332,375L332,374L285,372ZM340,379L335,378L334,380L335,381L340,381L343,380L340,379Z" style="fill:rgb(227,30,36);fill-rule:nonzero;"/>
            <path d="M291,361C275,360 260,358 244,357C243,356 237,356 236,356L232,356L231,357C232,357 233,356 235,356L236,356C251,358 266,360 280,362L286,362C286,362 285,362 285,363L287,363L287,362L288,363L291,363L292,362L306,364L306,365L310,365C310,366 310,367 309,367C306,367 301,367 298,368C295,368 292,369 289,369C289,369 288,371 288,372C288,372 317,373 328,373C327,371 325,370 324,369C322,368 320,368 317,368L318,366L320,366C320,366 321,366 320,366C320,365 319,366 320,365C321,365 326,366 327,366C330,367 329,367 333,367C346,369 359,370 372,371C374,371 375,371 377,372C378,372 378,373 379,373L382,373C382,373 379,371 378,371L376,371L322,364L321,364L321,363C320,363 319,364 319,363L315,363L318,363C318,363 318,362 317,362C316,362 316,360 314,360C312,360 312,361 311,361L310,362L312,362L312,363C312,363 307,362 306,362L307,363C301,362 296,362 291,361Z" style="fill:rgb(227,30,36);fill-rule:nonzero;"/>
        </g>
    </g>
</svg>
