<svg version="1.2" xmlns="http://www.w3.org/2000/svg" viewBox="0 0 1548 776" width="1548" height="776">
	<title>ALGT_BIG</title>
	<style>
		.s0 { fill: #f48120 } 
		.s1 { fill: #fbce20 } 
	</style>
	<g id="Style">
		<g id="styleguide-unique-icons">
			<g id="logo-allegiant-blue">
				<path id="Fill-1" fill-rule="evenodd" class="s0" d="m1538.3 754l-347.7-53.4 318-160.6c4.7-2.4 6.8-7.7 5.3-12.6-1.7-5-6.4-8-11.7-7.1l-353 54.9 253.5-250.7c3.8-3.9 4.1-9.4 1.2-13.5-2.9-4.4-8.8-5.6-13.2-3.3l-316.6 162.2 159.6-314.9c2.1-4.7 0.9-10.3-3.2-13.2-4.4-2.9-10-2.6-13.5 1.2l-250.5 253 58.6-352.1c0.9-5-2-10-7-11.8-4.7-1.4-10.3 0.6-12.6 5.3l-163.7 319.6-54-347.7c-0.9-5-5.3-8.8-10.3-8.8-5.3 0-9.7 3.8-10.2 8.8l-54.6 347.4-162.3-320.8c-2.3-4.6-7.9-6.7-12.6-5.2-5 1.4-7.9 6.4-7 11.7l58.4 356.5-253.8-259.2c-3.5-3.8-9.1-4.1-13.5-1.1-4.1 2.9-5.6 8.5-3.2 13.2l165.1 321.9-323.3-167.1c-4.7-2.4-10.2-0.9-13.2 3.2-3.2 4.1-2.6 10 0.9 13.5l260 253.3-359.4-58.3c-5-0.9-10 2.3-11.8 7-1.4 5 0.6 10.3 5.3 12.6l323 161.9-356.2 54.2c-5.2 0.9-9.3 5.9-8.8 11.2 0.3 5.5 5 9.6 10.3 9.6h1525.9c5.6 0 10-4.1 10.6-9.6 0.3-5.3-3.6-10.3-8.8-11.2z"/>
				<path id="Fill-2" fill-rule="evenodd" class="s1" d="m1111.7 775.7c0.3-4.1-1.8-6.7-4.7-7.3l-148.8-22.9 136.2-68.6c2.3-1.2 3.5-4.1 2.9-6.5-0.9-2.6-3.5-4.4-6.2-3.8l-151 23.5 108.5-107.3c1.8-2.1 2.1-5 0.6-7.1-1.5-2.3-4.4-2.9-7-1.7l-135.6 69.5 68.4-134.9c1.1-2.4 0.3-5.3-1.8-6.7-2-1.8-5.3-1.5-7 0.5l-107.1 108.2 25.2-150.7c0.3-2.6-1.2-5.3-3.8-6.1-2.6-0.9-5.3 0.3-6.5 2.9l-70.1 136.9-23.2-148.9c-0.5-2.7-2.6-4.7-5.5-4.7-2.4 0-4.7 2-5.3 4.7l-23.2 148.6-69.5-137.5c-1.5-2.3-4.1-3.5-6.8-2.6-2.3 0.9-4.1 3.5-3.5 6.1l25 152.8-108.6-111.1c-1.8-2.1-5-2.4-7-0.6-2.1 1.5-3 4.4-1.8 6.7l70.7 138.1-138.5-71.8c-2.3-1.2-5.3-0.3-6.7 1.8-1.8 2.3-1.5 5.2 0.6 7l111.2 108.5-154.1-24.9c-2.6-0.3-5.2 1.1-5.8 3.8-0.9 2.3 0.3 5.2 2.6 6.4l138.2 69.2-152.3 23.2c-2.9 0.6-5 3.2-4.7 7.3z"/>
			</g>
		</g>
	</g>
</svg>