<?xml version="1.0" encoding="UTF-8" standalone="no"?>
<svg
   xmlns:dc="http://purl.org/dc/elements/1.1/"
   xmlns:cc="http://creativecommons.org/ns#"
   xmlns:rdf="http://www.w3.org/1999/02/22-rdf-syntax-ns#"
   xmlns:svg="http://www.w3.org/2000/svg"
   xmlns="http://www.w3.org/2000/svg"
   width="500"
   height="280"
   viewBox="0 0 132.29166 74.083335"
   version="1.1"
   id="svg8">
  <defs
     id="defs2" />
  <metadata
     id="metadata5">
    <rdf:RDF>
      <cc:Work
         rdf:about="">
        <dc:format>image/svg+xml</dc:format>
        <dc:type
           rdf:resource="http://purl.org/dc/dcmitype/StillImage" />
        <dc:title></dc:title>
      </cc:Work>
    </rdf:RDF>
  </metadata>
  <g
     id="layer1">
    <g
       aria-label="Aloha"
       id="text1341"
       style="font-style:normal;font-variant:normal;font-weight:bold;font-stretch:normal;font-size:23.4774px;line-height:1.25;font-family:'Gill Sans MT';-inkscape-font-specification:'Gill Sans MT Bold';letter-spacing:-0.926042px;fill:#f5841c;fill-opacity:1;stroke:none;stroke-width:0.586935"
       transform="matrix(1.8614604,0,0,1.8614604,-26.576486,-51.730752)">
      <path
         d="m 35.103725,34.853719 7.107416,16.014613 h -4.287377 l -1.318311,-3.163947 h -7.164734 l -1.192212,3.163947 h -4.230059 l 6.453993,-16.014613 z m 0.32098,10.053554 -2.579304,-6.22472 -2.350033,6.22472 z"
         style="font-style:normal;font-variant:normal;font-weight:bold;font-stretch:normal;font-family:'Gill Sans MT';-inkscape-font-specification:'Gill Sans MT Bold';fill:#f5841c;fill-opacity:1;stroke-width:0.586935"
         id="path1349" />
      <path
         d="M 46.237363,34.853719 V 50.868332 H 42.832681 V 34.853719 Z"
         style="font-style:normal;font-variant:normal;font-weight:bold;font-stretch:normal;font-family:'Gill Sans MT';-inkscape-font-specification:'Gill Sans MT Bold';fill:#f5841c;fill-opacity:1;stroke-width:0.586935"
         id="path1351" />
      <path
         d="m 53.782903,39.82891 q 2.544914,0 4.310304,1.490265 1.776854,1.490264 1.776854,4.149813 0,2.671013 -1.799781,4.138351 -1.799781,1.467337 -4.287377,1.467337 -2.69394,0 -4.413476,-1.559046 -1.708072,-1.570509 -1.708072,-4.069569 0,-2.544913 1.742463,-4.081032 1.753927,-1.536119 4.379085,-1.536119 z m 0,9.228177 q 2.441741,0 2.441741,-3.679807 0,-3.519317 -2.441741,-3.519317 -1.169284,0 -1.834172,0.928549 -0.653423,0.92855 -0.653423,2.659549 0,3.611026 2.487595,3.611026 z"
         style="font-style:normal;font-variant:normal;font-weight:bold;font-stretch:normal;font-family:'Gill Sans MT';-inkscape-font-specification:'Gill Sans MT Bold';fill:#f5841c;fill-opacity:1;stroke-width:0.586935"
         id="path1353" />
      <path
         d="m 64.675808,34.853719 v 6.786436 h 0.04585 q 1.421483,-1.811245 3.427609,-1.811245 1.730999,0 2.842966,1.100503 1.12343,1.08904 1.12343,3.037847 v 6.901072 h -3.404681 v -6.178867 q 0,-2.361496 -1.753927,-2.361496 -1.157821,0 -2.281251,1.639291 v 6.901072 H 61.271126 V 34.853719 Z"
         style="font-style:normal;font-variant:normal;font-weight:bold;font-stretch:normal;font-family:'Gill Sans MT';-inkscape-font-specification:'Gill Sans MT Bold';fill:#f5841c;fill-opacity:1;stroke-width:0.586935"
         id="path1355" />
      <path
         d="m 85.037621,48.197319 v 1.89149 q -1.696609,0.985867 -3.186874,0.985867 -1.6049,0 -1.902953,-1.215139 -1.776854,1.215139 -3.565172,1.215139 -1.260993,0 -2.143688,-0.790986 -0.882695,-0.802451 -0.882695,-1.857099 0,-1.41002 0.905622,-2.269788 0.917086,-0.871232 5.525443,-2.235397 0.114635,-1.811245 -1.880027,-1.811245 -2.166615,0 -3.989323,1.811245 v -2.774185 q 2.132224,-1.318311 4.688601,-1.318311 4.58543,0 4.58543,3.290046 v 4.929337 q 0,0.756596 0.561715,0.756596 0.424152,0 1.283921,-0.60757 z m -5.250317,0.04585 v -2.613694 q -1.708073,0.596105 -2.350033,1.077575 -0.630497,0.470007 -0.630497,1.203676 0,0.470006 0.32098,0.813914 0.32098,0.332443 0.779523,0.332443 0.962941,0 1.880027,-0.813914 z"
         style="font-style:normal;font-variant:normal;font-weight:bold;font-stretch:normal;font-family:'Gill Sans MT';-inkscape-font-specification:'Gill Sans MT Bold';fill:#f5841c;fill-opacity:1;stroke-width:0.586935"
         id="path1357" />
    </g>
    <g
       aria-label="Air Cargo"
       id="text1345"
       style="font-style:normal;font-variant:normal;font-weight:bold;font-stretch:normal;font-size:14.7103px;line-height:1.25;font-family:'Gill Sans MT';-inkscape-font-specification:'Gill Sans MT Bold';letter-spacing:-0.79375px;fill:#83bf37;fill-opacity:1;stroke:none;stroke-width:0.367758"
       transform="matrix(1.8614604,0,0,1.8614604,-26.576486,-51.730752)">
      <path
         d="m 30.830544,52.493072 4.453314,10.034321 h -2.686354 l -0.826018,-1.982442 h -4.489227 l -0.747008,1.982442 h -2.65044 l 4.043897,-10.034321 z m 0.201118,6.299284 -1.616122,-3.900241 -1.472467,3.900241 z"
         style="font-style:normal;font-variant:normal;font-weight:bold;font-stretch:normal;font-family:'Gill Sans MT';-inkscape-font-specification:'Gill Sans MT Bold';fill:#83bf37;fill-opacity:1;stroke-width:0.367758"
         id="path1360" />
      <path
         d="m 35.344856,53.541756 q 0,-0.488428 0.344773,-0.833201 0.344773,-0.344773 0.826018,-0.344773 0.488428,0 0.833201,0.344773 0.344772,0.344773 0.344772,0.833201 0,0.481245 -0.344772,0.8332 -0.344773,0.344773 -0.833201,0.344773 -0.481245,0 -0.826018,-0.344773 -0.344773,-0.351955 -0.344773,-0.8332 z m 2.248205,2.205108 v 6.780529 h -2.13328 v -6.780529 z"
         style="font-style:normal;font-variant:normal;font-weight:bold;font-stretch:normal;font-family:'Gill Sans MT';-inkscape-font-specification:'Gill Sans MT Bold';fill:#83bf37;fill-opacity:1;stroke-width:0.367758"
         id="path1362" />
      <path
         d="m 40.800111,55.746864 v 1.939346 h 0.02873 q 0.926577,-2.075818 2.162012,-2.075818 0.588987,0 1.415005,0.617717 l -0.588987,1.889067 q -0.790104,-0.502793 -1.264166,-0.502793 -0.739825,0 -1.249801,0.919394 -0.502794,0.912211 -0.502794,1.063049 v 2.930567 h -2.13328 v -6.780529 z"
         style="font-style:normal;font-variant:normal;font-weight:bold;font-stretch:normal;font-family:'Gill Sans MT';-inkscape-font-specification:'Gill Sans MT Bold';fill:#83bf37;fill-opacity:1;stroke-width:0.367758"
         id="path1364" />
      <path
         d="m 56.791628,59.467536 v 2.190743 q -1.881884,0.998404 -3.943337,0.998404 -2.671988,0 -4.259379,-1.472467 -1.580208,-1.479649 -1.580208,-3.641661 0,-2.162012 1.666401,-3.670392 1.673584,-1.508381 4.367121,-1.508381 2.147646,0 3.634478,0.88348 v 2.23384 q -1.824422,-1.027135 -3.454909,-1.027135 -1.601757,0 -2.621709,0.861931 -1.01277,0.854749 -1.01277,2.183561 0,1.335994 0.998404,2.205108 1.005587,0.869115 2.57143,0.869115 0.775738,0 1.494015,-0.201118 0.718276,-0.2083 2.140463,-0.905028 z"
         style="font-style:normal;font-variant:normal;font-weight:bold;font-stretch:normal;font-family:'Gill Sans MT';-inkscape-font-specification:'Gill Sans MT Bold';fill:#83bf37;fill-opacity:1;stroke-width:0.367758"
         id="path1366" />
      <path
         d="m 64.674655,60.853809 v 1.185156 q -1.063049,0.617718 -1.996808,0.617718 -1.005587,0 -1.192339,-0.761373 -1.113328,0.761373 -2.233839,0.761373 -0.790104,0 -1.343177,-0.495611 -0.553073,-0.502793 -0.553073,-1.163607 0,-0.88348 0.567438,-1.422188 0.574621,-0.54589 3.462093,-1.400639 0.07183,-1.134876 -1.177974,-1.134876 -1.357542,0 -2.499602,1.134876 V 56.43641 q 1.335995,-0.826018 2.937751,-0.826018 2.873105,0 2.873105,2.061453 v 3.088588 q 0,0.474063 0.351956,0.474063 0.265762,0 0.804469,-0.380687 z m -3.289705,0.02873 v -1.63767 q -1.070232,0.373504 -1.472467,0.67518 -0.395052,0.294493 -0.395052,0.75419 0,0.294494 0.201117,0.509976 0.201118,0.208301 0.488428,0.208301 0.603352,0 1.177974,-0.509977 z"
         style="font-style:normal;font-variant:normal;font-weight:bold;font-stretch:normal;font-family:'Gill Sans MT';-inkscape-font-specification:'Gill Sans MT Bold';fill:#83bf37;fill-opacity:1;stroke-width:0.367758"
         id="path1368" />
      <path
         d="m 66.95513,55.746864 v 1.939346 h 0.02873 q 0.926577,-2.075818 2.162012,-2.075818 0.588987,0 1.415004,0.617717 l -0.588986,1.889067 q -0.790104,-0.502793 -1.264167,-0.502793 -0.739824,0 -1.249801,0.919394 -0.502793,0.912211 -0.502793,1.063049 v 2.930567 h -2.133281 v -6.780529 z"
         style="font-style:normal;font-variant:normal;font-weight:bold;font-stretch:normal;font-family:'Gill Sans MT';-inkscape-font-specification:'Gill Sans MT Bold';fill:#83bf37;fill-opacity:1;stroke-width:0.367758"
         id="path1370" />
      <path
         d="m 77.474232,55.746864 v 1.42937 h -0.969673 q 0.33759,0.574621 0.33759,1.127694 0,0.790104 -0.588987,1.458101 -0.588987,0.667997 -1.745412,0.797287 -1.149242,0.122107 -1.307263,0.237031 -0.150838,0.107742 -0.150838,0.287311 0,0.179569 0.201118,0.294493 0.201117,0.107742 1.580208,0.229849 1.386273,0.114924 1.92498,0.725459 0.54589,0.603352 0.54589,1.30008 0,1.113328 -0.926576,1.695132 -0.919394,0.581804 -2.664805,0.581804 -1.781326,0 -2.70072,-0.538707 -0.919393,-0.538707 -0.919393,-1.42937 0,-1.235436 1.810056,-1.723864 -0.818835,-0.244213 -0.818835,-0.883479 0,-0.747008 1.235435,-1.027136 -0.826018,-0.143655 -1.364725,-0.718276 -0.538707,-0.574621 -0.538707,-1.371908 0,-0.976856 0.775738,-1.723863 0.775739,-0.747008 2.255388,-0.747008 z m -3.835596,1.264167 q -0.524342,0 -0.88348,0.359138 -0.351955,0.359138 -0.351955,0.876297 0,0.495611 0.36632,0.861932 0.366321,0.359138 0.869115,0.359138 0.502793,0 0.861932,-0.380687 0.359138,-0.380686 0.359138,-0.912211 0,-0.481245 -0.351956,-0.818835 -0.344772,-0.344772 -0.869114,-0.344772 z m 0.172386,7.635278 q 0.682363,0 1.106146,-0.251397 0.423783,-0.251397 0.423783,-0.603352 0,-0.747008 -1.659219,-0.747008 -0.75419,0 -1.185156,0.215483 -0.430965,0.222666 -0.430965,0.588987 0,0.797287 1.745411,0.797287 z"
         style="font-style:normal;font-variant:normal;font-weight:bold;font-stretch:normal;font-family:'Gill Sans MT';-inkscape-font-specification:'Gill Sans MT Bold';fill:#83bf37;fill-opacity:1;stroke-width:0.367758"
         id="path1372" />
      <path
         d="m 81.097884,55.610392 q 1.594574,0 2.700719,0.933759 1.113329,0.933759 1.113329,2.600161 0,1.673584 -1.127694,2.592977 -1.127694,0.919394 -2.686354,0.919394 -1.687949,0 -2.765364,-0.976856 -1.070232,-0.984038 -1.070232,-2.549881 0,-1.594574 1.09178,-2.557064 1.098963,-0.96249 2.743816,-0.96249 z m 0,5.782125 q 1.529929,0 1.529929,-2.305668 0,-2.205108 -1.529929,-2.205108 -0.732642,0 -1.149242,0.581804 -0.409418,0.581804 -0.409418,1.666401 0,2.262571 1.55866,2.262571 z"
         style="font-style:normal;font-variant:normal;font-weight:bold;font-stretch:normal;font-family:'Gill Sans MT';-inkscape-font-specification:'Gill Sans MT Bold';fill:#83bf37;fill-opacity:1;stroke-width:0.367758"
         id="path1374" />
    </g>
    <path
       style="fill:#6892cc;fill-opacity:1;stroke:none;stroke-width:0.093073;stroke-linecap:butt;stroke-linejoin:miter;stroke-miterlimit:4;stroke-dasharray:none;stroke-opacity:1"
       d="M 33.20265,0.6323511 C 26.637622,6.2939793 19.735654,11.317826 9.7418637,10.489296 11.452077,11.475287 13.485612,12.07703 16.147326,11.95074 19.493243,11.791976 22.77129,10.2422 26.03537,8.4059681 24.218846,10.078099 18.853895,14.505319 10.89236,14.407199 8.6453146,14.379501 6.4938647,13.931585 4.5024445,13.334443 6.6881434,15.412714 9.3354864,17.101498 9.5242031,20.657194 9.6524205,23.073021 8.0392714,25.054252 6.5858953,27.242339 3.8923974,31.297454 1.8415166,35.219172 0.63118393,40.246712 4.7054535,31.905997 11.264538,23.664104 21.899805,14.562676 32.462857,5.523048 32.250306,1.9078163 33.20265,0.6323511 Z"
       id="path1347" />
  </g>
</svg>
