<?xml version="1.0" encoding="UTF-8" standalone="no"?>
<!DOCTYPE svg PUBLIC "-//W3C//DTD SVG 1.1//EN" "http://www.w3.org/Graphics/SVG/1.1/DTD/svg11.dtd">
<svg width="100%" height="100%" viewBox="0 0 140 125" version="1.1" xmlns="http://www.w3.org/2000/svg" xmlns:xlink="http://www.w3.org/1999/xlink" xml:space="preserve" xmlns:serif="http://www.serif.com/" style="fill-rule:evenodd;clip-rule:evenodd;stroke-linejoin:round;stroke-miterlimit:2;">
    <g transform="matrix(4.166667,0,0,4.166667,0,0)">
        <g id="g6" transform="matrix(0.011591,0,0,-0.011901,-0.703001,37.571693)">
            <path id="path8" d="M737.053,3156.937L873.825,2037.791L1088.789,2033.805L1004.32,2673.754L1638.358,1962.066L60.65,1962.959L932.404,1418.567L1077.02,651.878L1670.001,1556.866L2407.653,1339.267L2957.169,1336.465L1221.506,3143.253L737.053,3156.937ZM1082.512,2983.166L1219.284,2979.582L2672.25,1484.597L2533.536,1484.223C2533.536,1484.223 2531.755,1487.692 1080.731,2986.639L1082.512,2983.166ZM675.075,1848.874L1788.075,1848.738L1962.765,1648.264L1567.096,1765.573L1191.694,1186.737L1156.913,1501.463C675.87,1849.152 675.075,1848.871 675.075,1848.871L675.075,1848.874Z" style="fill:rgb(1,117,192);fill-rule:nonzero;"/>
            <path id="path24" d="M1105.377,2983.38L964.16,2982.598L2465.898,1481.502L2566.319,1482.046L1105.377,2983.38Z" style="fill:rgb(238,58,67);fill-rule:nonzero;"/>
        </g>
    </g>
</svg>
