<?xml version="1.0" encoding="UTF-8" standalone="no"?>
<!DOCTYPE svg PUBLIC "-//W3C//DTD SVG 1.1//EN" "http://www.w3.org/Graphics/SVG/1.1/DTD/svg11.dtd">
<svg width="100%" height="100%" viewBox="0 0 205 263" version="1.1" xmlns="http://www.w3.org/2000/svg" xmlns:xlink="http://www.w3.org/1999/xlink" xml:space="preserve" xmlns:serif="http://www.serif.com/" style="fill-rule:evenodd;clip-rule:evenodd;stroke-linejoin:round;stroke-miterlimit:2;">
    <g transform="matrix(4.166667,0,0,4.166667,0,0)">
        <g transform="matrix(1,0,0,1,-99.95,0)">
            <path d="M99.95,0C113.43,6.79 126.91,13.59 140.4,20.38C142.17,21.33 144.13,22.01 145.58,23.47C147.61,25.4 148.87,28.14 148.91,30.95C148.98,36 149.06,41.06 149.13,46.11C149.09,48.95 146.97,51.3 144.51,52.47C144.61,52.3 144.81,51.95 144.92,51.78C145.78,51.12 146.38,50.08 146.48,49C146.57,47.7 145.73,46.55 144.77,45.78C143.1,44.43 141.05,43.71 139.07,42.98C134.65,41.46 130.39,39.5 126.38,37.11C121.29,33.95 116.5,30.25 112.39,25.87C105.76,18.77 101.39,9.6 99.97,0L99.95,0Z" style="fill:rgb(171,55,57);fill-rule:nonzero;"/>
        </g>
        <g transform="matrix(1,0,0,1,-99.95,0)">
            <path d="M123.2,59.66C123.75,52.66 127.61,46.26 132.82,41.7C135.95,43.12 139.24,44.12 142.4,45.48C143.64,45.98 144.8,46.91 145.18,48.25C145.82,50.35 144.53,52.61 142.7,53.64C137.5,56.6 132.31,59.56 127.11,62.52C126.28,63.02 125.19,63.02 124.39,62.47C123.44,61.89 123.09,60.73 123.21,59.67L123.2,59.66Z" style="fill:rgb(96,96,98);fill-rule:nonzero;"/>
        </g>
    </g>
</svg>
