<?xml version="1.0" encoding="UTF-8" standalone="no"?>
<!DOCTYPE svg PUBLIC "-//W3C//DTD SVG 1.1//EN" "http://www.w3.org/Graphics/SVG/1.1/DTD/svg11.dtd">
<svg width="100%" height="100%" viewBox="0 0 829 952" version="1.1" xmlns="http://www.w3.org/2000/svg" xmlns:xlink="http://www.w3.org/1999/xlink" xml:space="preserve" xmlns:serif="http://www.serif.com/" style="fill-rule:evenodd;clip-rule:evenodd;stroke-linejoin:round;stroke-miterlimit:2;">
    <g transform="matrix(3.125,0,0,3.125,0,0)">
        <g transform="matrix(1,0,0,1,0.00016,-0.370995)">
            <path d="M35.053,49.681C35.053,49.681 33.722,97.873 98.155,107.192C98.155,107.192 14.818,136.746 48.898,214.759C48.898,214.759 -51.213,128.226 35.053,49.681Z" style="fill:rgb(73,44,118);fill-rule:nonzero;"/>
            <path d="M263.366,89.486C263.366,89.486 213.044,-11.957 110.803,1.622C110.803,1.622 69.456,5.769 52.085,35.382C47.758,42.758 46.227,51.494 48.219,59.81C50.583,69.676 58.092,80.705 79.98,80.077C80.557,80.06 81.136,80.056 81.713,80.051C84.839,80.025 99.723,78.526 114.397,53.675C114.397,53.675 149.276,-3.569 263.366,89.486Z" style="fill:rgb(73,44,118);fill-rule:nonzero;"/>
            <path d="M154.069,79.768C154.069,88.15 147.274,94.945 138.893,94.945C130.511,94.945 123.716,88.15 123.716,79.768C123.716,71.386 130.511,64.592 138.893,64.592C147.274,64.592 154.069,71.386 154.069,79.768Z" style="fill:rgb(11,39,59);fill-rule:nonzero;"/>
            <path d="M108.939,111.053C108.939,111.053 143.019,117.176 128.908,178.149C128.908,178.149 86.174,196.92 51.294,182.009C51.294,182.009 45.437,135.681 108.939,111.053Z" style="fill:rgb(120,88,165);fill-rule:nonzero;"/>
            <path d="M137.961,120.105C137.961,120.105 176.035,158.978 163.255,227.672C150.475,296.366 87.904,299.294 83.112,299.028C83.112,299.028 165.784,251.102 137.961,120.105Z" style="fill:rgb(135,201,130);fill-rule:nonzero;"/>
            <path d="M155.8,102C155.8,102 210.648,149.659 211.447,206.372C212.246,263.084 163.122,299.789 152.937,305C152.937,305 218.369,221.282 155.8,102Z" style="fill:rgb(242,100,57);fill-rule:nonzero;"/>
            <path d="M158.728,78.57C158.728,78.57 225.825,99.338 246.326,166.433C246.326,166.433 262.301,214.093 220.766,280.39C220.766,280.39 250.586,164.969 158.728,78.57Z" style="fill:rgb(255,195,45);fill-rule:nonzero;"/>
            <path d="M142.753,55.672C142.753,55.672 282.004,40.229 263.366,180.079C263.366,180.079 250.586,90.818 142.753,55.672Z" style="fill:rgb(80,198,217);fill-rule:nonzero;"/>
        </g>
    </g>
</svg>
