<?xml version="1.0" encoding="UTF-8" standalone="no"?>
<!DOCTYPE svg PUBLIC "-//W3C//DTD SVG 1.1//EN" "http://www.w3.org/Graphics/SVG/1.1/DTD/svg11.dtd">
<svg width="100%" height="100%" viewBox="0 0 359 214" version="1.1" xmlns="http://www.w3.org/2000/svg" xmlns:xlink="http://www.w3.org/1999/xlink" xml:space="preserve" xmlns:serif="http://www.serif.com/" style="fill-rule:evenodd;clip-rule:evenodd;stroke-linejoin:round;stroke-miterlimit:2;">
    <g transform="matrix(3.125,0,0,3.125,0,0)">
        <g id="path4980" transform="matrix(1.058133,0,0,1.058133,-187.564564,-292.830254)">
            <path d="M200.875,340.518C200.875,340.518 200.632,336.644 203.053,331.841C203.053,331.841 210.563,322.677 191.428,306.934C191.428,306.934 180.328,298.237 179.199,292.686L187.654,299.852L187.453,298.64C187.453,298.64 177.967,289.86 177.967,289.458L177.868,287.035L187.05,296.419C187.05,296.419 186.505,294.723 185.637,293.856L177.26,284.412L177.504,281.787L186.342,292.686L186.243,291.575C186.243,291.575 178.955,282.472 177.504,279.082L178.069,276.742C178.069,276.742 188.968,299.226 208.242,303.686C208.242,303.686 216.113,305.926 219.442,306.572C219.442,306.572 225.801,308.267 222.168,313.717" style="fill:rgb(148,149,153);fill-rule:nonzero;"/>
        </g>
        <g id="path5000" transform="matrix(1.058133,0,0,1.058133,-187.564564,-292.830254)">
            <path d="M202.04,341.448L226.238,312.89C226.238,312.89 228.44,309.128 235.291,308.958C242.142,308.787 255.462,306.541 258.632,305.669C261.803,304.795 282.373,298.428 285.765,294.609C285.765,294.609 281.225,299.011 279.327,299.758C279.327,299.758 266.676,305.184 263.284,305.959L262.05,307.218C262.05,307.218 275.312,303.246 275.784,302.665L272.35,305.239C272.35,305.239 262.439,308.229 260.084,308.769L258.437,310.32C258.437,310.32 268.682,307.509 269.277,307.218C269.277,307.218 266.842,309.116 266.371,309.475C266.371,309.475 257.428,311.718 256.792,311.967L255.435,313.131L264.543,310.805C264.543,310.805 250.422,319.525 245.066,320.591C245.066,320.591 232.898,324.121 227,324.855C221.104,325.589 218.889,329.216 216.617,331.057C214.348,332.897 206.899,340.553 202.04,341.448" style="fill:rgb(148,149,153);fill-rule:nonzero;"/>
        </g>
    </g>
</svg>
