<?xml version="1.0" encoding="UTF-8" standalone="no"?>
<!DOCTYPE svg PUBLIC "-//W3C//DTD SVG 1.1//EN" "http://www.w3.org/Graphics/SVG/1.1/DTD/svg11.dtd">
<svg width="100%" height="100%" viewBox="0 0 235 260" version="1.1" xmlns="http://www.w3.org/2000/svg" xmlns:xlink="http://www.w3.org/1999/xlink" xml:space="preserve" xmlns:serif="http://www.serif.com/" style="fill-rule:evenodd;clip-rule:evenodd;stroke-linejoin:round;stroke-miterlimit:2;">
    <g transform="matrix(4.166667,0,0,4.166667,0,0)">
        <g id="path358" transform="matrix(2.337373,0,0,2.337373,-306.930682,-610.643665)">
            <path d="M139.159,279.368C139.159,279.204 139.186,279.016 139.246,278.819L131.339,280.256C131.361,280.55 131.397,280.833 131.445,281.105L139.191,279.697C139.17,279.579 139.159,279.468 139.159,279.368" style="fill:rgb(212,14,140);fill-rule:nonzero;"/>
        </g>
        <g id="path362" transform="matrix(2.337373,0,0,2.337373,-306.930682,-610.643665)">
            <path d="M142.832,287.884C144.315,287.884 145.978,287.695 147.592,287.401L155.355,285.989L155.355,281.345L133.806,285.263C136.129,287.239 139.696,287.884 142.832,287.884" style="fill:rgb(0,153,137);fill-rule:nonzero;"/>
        </g>
        <g id="path366" transform="matrix(2.337373,0,0,2.337373,-306.930682,-610.643665)">
            <path d="M143.417,282.374C141.188,282.374 140.015,281.435 139.498,280.52L131.641,281.949C131.938,282.957 132.426,283.808 133.051,284.521L145.744,282.213C145.151,282.309 144.389,282.374 143.417,282.374" style="fill:rgb(248,168,0);fill-rule:nonzero;"/>
        </g>
        <g id="path370" transform="matrix(2.337373,0,0,2.337373,-306.930682,-610.643665)">
            <path d="M131.314,279.382L139.82,277.835C140.459,277.132 141.623,276.53 143.584,276.53C144.732,276.53 145.559,276.596 146.153,276.684L155.355,275.011L155.355,272.074L132.064,276.309C131.61,277.171 131.336,278.187 131.314,279.382" style="fill:rgb(112,182,43);fill-rule:nonzero;"/>
        </g>
        <g id="path374" transform="matrix(2.337373,0,0,2.337373,-306.930682,-610.643665)">
            <path d="M142.415,271.688C139.847,271.688 135.084,272.36 132.72,275.311L147.591,272.605C147.591,272.605 145.921,271.688 142.415,271.688" style="fill:rgb(0,135,59);fill-rule:nonzero;"/>
        </g>
        <g id="path378" transform="matrix(2.337373,0,0,2.337373,-306.930682,-610.643665)">
            <path d="M149.728,262.525L132.681,265.625L135.569,269.852C137.072,268.933 140.078,267.597 142.665,267.597C145.254,267.597 147.59,269.016 147.59,271.019L147.59,272.606L155.1,271.241L155.348,271.196C155.243,267.146 153.197,264.12 149.728,262.525" style="fill:rgb(167,21,128);fill-rule:nonzero;"/>
        </g>
        <g id="path382" transform="matrix(2.337373,0,0,2.337373,-306.930682,-610.643665)">
            <path d="M143.25,261.252C135.819,261.252 132.147,264.843 132.147,264.843L148.158,261.931C146.703,261.487 145.059,261.252 143.25,261.252" style="fill:rgb(230,66,15);fill-rule:nonzero;"/>
        </g>
        <g id="path386" transform="matrix(2.337373,0,0,2.337373,-306.930682,-610.643665)">
            <path d="M147.591,281.877L155.354,280.465L155.354,277.637L147.591,279.049L147.591,281.877Z" style="fill:rgb(0,158,226);fill-rule:nonzero;"/>
        </g>
        <g id="path390" transform="matrix(2.337373,0,0,2.337373,-306.930682,-610.643665)">
            <path d="M147.591,278.169L155.354,276.758L155.354,275.889L147.591,277.302L147.591,278.169Z" style="fill:rgb(142,122,59);fill-rule:nonzero;"/>
        </g>
    </g>
</svg>
