<?xml version="1.0" encoding="UTF-8" standalone="no"?><!DOCTYPE svg PUBLIC "-//W3C//DTD SVG 1.1//EN" "http://www.w3.org/Graphics/SVG/1.1/DTD/svg11.dtd"><svg width="100%" height="100%" viewBox="0 0 96 65" version="1.1" xmlns="http://www.w3.org/2000/svg" xmlns:xlink="http://www.w3.org/1999/xlink" xml:space="preserve" xmlns:serif="http://www.serif.com/" style="fill-rule:evenodd;clip-rule:evenodd;stroke-linejoin:round;stroke-miterlimit:2;"><g><g><path d="M70.7,64.4c-0.1,-0.2 -0.4,-0.8 -0.7,-1.2c-0.9,-1.6 -26.1,-47.2 -35,-63.2c0,0 -23.3,43.1 -35,64.6l18.8,0c0.2,0 0.4,-0.1 0.5,-0.3c0.8,-1.6 15.2,-28.4 15.7,-29.2c0.1,-0.1 0.1,-0.2 0.2,-0.2c0.1,0 0.2,0.1 0.2,0.2c0.2,0.4 0.4,0.8 0.6,1.2c1,1.9 15.2,28 15.2,28c0.1,0.2 0.3,0.3 0.5,0.3l18.8,0c0,0 0.3,0 0.2,-0.2Z" style="fill:#e3050d;fill-rule:nonzero;"/><path d="M60.5,0.3c-0.1,0.1 -7.3,13.3 -10.9,19.9c-0.1,0.2 0,0.4 0.1,0.6c3,5.5 9.1,16.6 9.2,16.7c0.5,-1 1.1,-2 1.6,-3.1l16.1,29.8c0.1,0.3 0.3,0.4 0.6,0.4l18.4,0c-5,-9.2 -34.6,-63.3 -35.1,-64.3Z" style="fill:#22368d;fill-rule:nonzero;"/><path d="M65.6,43.8c1.2,-1.2 2.3,-2.4 3.5,-3.5c2.2,-2.1 4.4,-4.2 7,-5.8c0.8,-0.5 1.6,-0.9 2.4,-1.2c2.9,-1.1 5.9,-0.7 8.9,-0.6c-2.7,0.9 -4.9,2.3 -6.8,4.4c-2.5,3 -3.6,4.9 -5,7.1c-1.2,2 -4.5,7.1 -5.3,8.3c-0.9,1.2 -2,2.5 -3.1,3.6l-0.7,0.8c0,0 -1,1 -1.6,1.4c-2.8,2.2 -6,3.7 -9.4,4.6c-1.5,0.4 -4.9,0.8 -5,0.9c-3.6,0.5 -7.2,0.4 -10.9,-0.2c-2.9,-0.5 -5.7,-1.4 -8.3,-2.8c-2.8,-1.6 -5.1,-3.7 -6.3,-6.7c0,-0.1 -0.3,-0.6 0.1,-0.6c0.3,0 0.6,0.2 0.8,0.3c2.3,1 4.7,1.9 7.1,2.5c1.8,0.5 3.6,0.8 5.4,0.9c2.8,0.2 7.4,-0.3 8.2,-0.5c0.8,-0.1 2.2,-0.4 3.8,-1c1.6,-0.6 4.8,-2.6 7,-4.2c1.3,-1 2.5,-2.1 3.8,-3.2c0.2,-0.1 1.5,-1.4 2.1,-2c0.7,-0.8 1.6,-1.6 2.3,-2.5Z" style="fill:#f6a831;fill-rule:nonzero;"/></g></g></svg>