<svg role="img" viewBox="0 0 24 24" xmlns="http://www.w3.org/2000/svg" fill="#e60013"><title>Asiana Airlines</title><path d="M.005 9.541c0 .336.053.676.18.997.588 1.455 2.077 2.345 3.96 1.586.452-.18 12.982-5.224 12.982-5.224S12.19 19.4 12.01 19.868c-.72 1.79.14 3.414 1.615 3.96.326.116.661.174.997.17 1.192-.01 2.252-.71 2.768-2.121.082-.214 6.245-17.152 6.386-17.56.078-.238.224-.808.224-1.197 0-.836-.311-1.63-.91-2.223a3.045 3.045 0 0 0-2.198-.895c-.4 0-.73.073-1.226.234-.297.092-16.203 6.012-17.56 6.523C.744 7.265-.004 8.349 0 9.54"/></svg>