<?xml version="1.0" encoding="UTF-8" standalone="no"?><!DOCTYPE svg PUBLIC "-//W3C//DTD SVG 1.1//EN" "http://www.w3.org/Graphics/SVG/1.1/DTD/svg11.dtd"><svg width="100%" height="100%" viewBox="0 0 261 80" version="1.1" xmlns="http://www.w3.org/2000/svg" xmlns:xlink="http://www.w3.org/1999/xlink" xml:space="preserve" xmlns:serif="http://www.serif.com/" style="fill-rule:evenodd;clip-rule:evenodd;stroke-linejoin:round;stroke-miterlimit:2;"><path d="M260.25,56.7l-2.4,11.175c0,0 -0.675,5.025 -4.275,6.9c-3.525,1.875 -9.375,1.8 -9.375,1.8l-62.775,0l3.75,-17.55c-6.225,13.65 -22.425,20.1 -51.15,20.1c-13.95,0 -28.35,-1.2 -36.3,-7.275l0.975,4.65l-31.05,0l-1.275,-8.475l-30.45,0l-4.95,8.475l-30.975,0l40.875,-64.05c0,0 4.05,-6.6 7.2,-8.175c3.6,-1.8 10.2,-1.725 10.2,-1.725l24.825,0l11.025,51.675l33.45,0c-0.45,2.475 0.15,4.125 1.95,5.25c1.95,1.05 5.025,1.575 9.6,1.575c9.15,0 12.15,-2.475 12.9,-6c0.45,-2.175 -0.45,-4.35 -4.2,-4.95l-32.325,-4.95c-13.8,-2.175 -18,-10.5 -15.75,-20.85c4.05,-19.125 23.85,-24.3 47.925,-24.3c32.925,0 44.7,8.625 42.375,24.225l-33.975,0c0.675,-3 -0.75,-4.875 -3.225,-5.925c-2.325,-1.125 -5.55,-1.575 -8.775,-1.575c-8.7,0 -12.15,2.175 -12.825,5.25c-0.45,2.1 0.225,3.45 3,3.825l33.825,5.175c11.925,1.8 19.2,6.9 19.725,15.9l9.45,-44.325l29.25,0l-11.475,54.075l45.225,0l0,0.075Zm-181.05,-17.55c0,0 -9.6,-4.575 -21.3,-3.9c-17.7,1.05 -23.775,12.075 -23.775,12.075c0,0 7.5,-5.25 21.225,-4.575c9.525,0.45 15,3.975 15,3.975c0,0 1.275,-3.975 3.525,-5.625c2.25,-1.65 5.325,-1.95 5.325,-1.95" style="fill:#00539b;fill-rule:nonzero;"/></svg>