<?xml version="1.0" encoding="UTF-8" standalone="no"?>
<!DOCTYPE svg PUBLIC "-//W3C//DTD SVG 1.1//EN" "http://www.w3.org/Graphics/SVG/1.1/DTD/svg11.dtd">
<svg width="100%" height="100%" viewBox="0 0 2769 2673" version="1.1" xmlns="http://www.w3.org/2000/svg" xmlns:xlink="http://www.w3.org/1999/xlink" xml:space="preserve" xmlns:serif="http://www.serif.com/" style="fill-rule:evenodd;clip-rule:evenodd;stroke-linejoin:round;stroke-miterlimit:2;">
    <g transform="matrix(4.166667,0,0,4.166667,0,0)">
        <g transform="matrix(1,0,0,1,-33,-157.5)">
            <g>
                <path d="M375,418L50.3,422C40.7,422 33,430.1 33,440.2C33,445 34.8,449.7 38.1,453.1L357.2,766.7C360.5,770.1 364.9,772 369.5,772C379.1,772 386.9,763.8 386.9,753.7L386.9,430.6C387,423.6 381.6,418 375,418Z" style="fill:rgb(0,144,208);fill-rule:nonzero;"/>
                <path d="M455.5,484.7L451.9,192.6C451.9,184 444.6,177 435.5,177C431.2,177 427,178.6 423.9,181.6L141.8,468.7C138.7,471.6 137,475.6 137,479.8C137,488.5 144.4,495.5 153.5,495.5L444.2,495.5C450.4,495.5 455.5,490.7 455.5,484.7Z" style="fill:rgb(0,89,147);fill-rule:nonzero;"/>
                <path d="M439.5,424.5L684.4,421.5C691.6,421.5 697.5,415.4 697.5,407.8C697.5,404.2 696.1,400.7 693.7,398.1L453,161.5C450.5,158.9 447.2,157.5 443.7,157.5C436.4,157.5 430.5,163.7 430.5,171.3L430.5,415C430.5,420.2 434.6,424.5 439.5,424.5Z" style="fill:rgb(0,144,208);fill-rule:nonzero;"/>
                <path d="M399.5,593.7L401.9,788.6C401.9,794.3 406.8,799 412.8,799C415.7,799 418.5,797.9 420.5,795.9L608.7,604.3C610.8,602.3 611.9,599.7 611.9,596.9C611.9,591.1 607,586.4 600.9,586.4L407.1,586.4C402.9,586.5 399.5,589.7 399.5,593.7Z" style="fill:rgb(0,89,147);fill-rule:nonzero;"/>
                <path d="M490.5,475.7L492.2,615.6C492.2,619.7 495.7,623.1 500,623.1C502.1,623.1 504.1,622.3 505.5,620.9L640.6,483.4C642.1,482 642.9,480.1 642.9,478.1C642.9,473.9 639.4,470.6 635,470.6L495.9,470.6C492.9,470.5 490.5,472.8 490.5,475.7Z" style="fill:rgb(0,144,208);fill-rule:nonzero;"/>
            </g>
        </g>
    </g>
</svg>
