<?xml version="1.0" encoding="UTF-8" standalone="no"?>
<!DOCTYPE svg PUBLIC "-//W3C//DTD SVG 1.1//EN" "http://www.w3.org/Graphics/SVG/1.1/DTD/svg11.dtd">
<svg width="100%" height="100%" viewBox="0 0 738 786" version="1.1" xmlns="http://www.w3.org/2000/svg" xmlns:xlink="http://www.w3.org/1999/xlink" xml:space="preserve" xmlns:serif="http://www.serif.com/" style="fill-rule:evenodd;clip-rule:evenodd;stroke-linejoin:round;stroke-miterlimit:2;">
    <g transform="matrix(4.166667,0,0,4.166667,0,0)">
        <g transform="matrix(23.334924,0,0,23.334924,2631.4311,1137.16308)">
            <path d="M-111.115,-43.176L-110.048,-43.176L-106.7,-46.107L-106.7,-43.194L-105.977,-43.194L-105.977,-47.582L-111.115,-43.176Z" style="fill:rgb(206,204,205);fill-rule:nonzero;"/>
            <path d="M-106.98,-47.537L-111.594,-47.537C-111.825,-47.306 -112.027,-47.046 -112.196,-46.764L-107.847,-46.764L-106.98,-47.537Z" style="fill:rgb(215,31,65);fill-rule:nonzero;"/>
            <path d="M-108.292,-46.331L-112.42,-46.331C-112.53,-46.085 -112.615,-45.826 -112.674,-45.557L-109.16,-45.557L-108.292,-46.331Z" style="fill:rgb(215,31,65);fill-rule:nonzero;"/>
            <path d="M-109.769,-45.019L-112.753,-45.019C-112.762,-44.91 -112.768,-44.801 -112.768,-44.691C-112.768,-44.54 -112.759,-44.392 -112.743,-44.245L-110.635,-44.245L-109.769,-45.019Z" style="fill:rgb(215,31,65);fill-rule:nonzero;"/>
            <path d="M-111.034,-43.858L-112.682,-43.858C-112.625,-43.59 -112.543,-43.331 -112.436,-43.085L-111.901,-43.085L-111.034,-43.858Z" style="fill:rgb(215,31,65);fill-rule:nonzero;"/>
            <path d="M-105.182,-42.746L-112.27,-42.746C-112.116,-42.466 -111.93,-42.207 -111.717,-41.972L-105.734,-41.972C-105.521,-42.207 -105.336,-42.466 -105.182,-42.746" style="fill:rgb(215,31,65);fill-rule:nonzero;"/>
            <path d="M-106.084,-41.633L-111.367,-41.633C-110.659,-41.02 -109.737,-40.649 -108.726,-40.649C-107.716,-40.649 -106.793,-41.02 -106.084,-41.633" style="fill:rgb(215,31,65);fill-rule:nonzero;"/>
            <path d="M-108.726,-48.732C-109.636,-48.732 -110.476,-48.431 -111.151,-47.924L-106.301,-47.924C-106.976,-48.431 -107.816,-48.732 -108.726,-48.732" style="fill:rgb(215,31,65);fill-rule:nonzero;"/>
        </g>
    </g>
</svg>
