<?xml version="1.0" encoding="UTF-8" standalone="no"?>
<!DOCTYPE svg PUBLIC "-//W3C//DTD SVG 1.1//EN" "http://www.w3.org/Graphics/SVG/1.1/DTD/svg11.dtd">
<svg width="100%" height="100%" viewBox="0 0 618 618" version="1.1" xmlns="http://www.w3.org/2000/svg" xmlns:xlink="http://www.w3.org/1999/xlink" xml:space="preserve" xmlns:serif="http://www.serif.com/" style="fill-rule:evenodd;clip-rule:evenodd;">
    <g transform="matrix(4.166667,0,0,4.166667,0,0)">
        <g transform="matrix(1,0,0,1,-89.454767,-223.191866)">
            <g>
                <path d="M206.36,356.48C196.22,363.86 184.14,368.53 171.67,369.9C157.81,371.45 143.52,368.99 131.03,362.74C118.57,356.56 107.96,346.74 100.83,334.81C93.98,323.42 90.34,310.13 90.49,296.84C90.48,281.55 95.55,266.34 104.63,254.04C113.48,241.98 126.1,232.7 140.32,227.99C145.85,226.13 151.6,224.96 157.41,224.48C170.98,223.33 184.87,226.05 196.96,232.32C208.65,238.33 218.64,247.56 225.57,258.72C231.82,268.73 235.58,280.29 236.37,292.07C237.24,303.98 235.15,316.11 230.26,327.01C225.08,338.71 216.74,348.98 206.36,356.48ZM206.36,356.48L206.12,356.15L206.36,356.48ZM133.34,236.78C140.91,232.98 149.21,230.68 157.65,229.92C171.62,228.71 185.95,231.91 197.99,239.12C208.51,245.35 217.28,254.49 223.07,265.26C229.36,276.87 232.09,290.37 230.84,303.52C229.7,316.44 224.67,328.98 216.62,339.15C208.34,349.68 196.86,357.67 184.09,361.72C171.22,365.85 157.11,365.98 144.16,362.09C131.71,358.39 120.4,350.97 112,341.06C103.04,330.56 97.43,317.26 96.21,303.52C94.98,290.58 97.62,277.3 103.7,265.81C110.23,253.34 120.76,243.04 133.34,236.78Z" style="fill:rgb(167,25,23);fill-rule:nonzero;stroke:rgb(167,25,23);stroke-width:0.5px;"/>
            </g>
        </g>
        <g transform="matrix(1,0,0,1,-89.454767,-223.191866)">
            <path d="M157.91,264.3C157.88,257.93 161.77,251.9 167.42,248.84C170.54,249.29 173.65,250.23 176.23,252.06C178.95,253.93 180.93,256.68 182.23,259.64C185.69,257.58 189.99,256.56 193.95,257.73C199.23,259.14 203.27,264.02 203.65,269.36C203.93,272.35 203.08,275.36 201.52,277.93C204.91,279.97 206.79,283.82 207.04,287.63C207.74,296.2 202.2,304.75 194.11,307.98C190.06,309.56 185.36,310.47 181.16,308.92C178.88,308.13 177.23,306.23 176.32,304.08C177.16,304.67 177.93,305.43 178.98,305.63C181.3,306.13 183.31,303.67 185.62,304.71C186.81,305.13 187.15,306.45 187.09,307.56C189.15,306.44 190.95,304.75 191.78,302.55C193.21,298.85 192.39,294.63 190.5,291.23C188.02,286.8 183.3,283.89 178.34,282.84C171.72,281.39 164.31,283.08 159.37,287.74C155.67,291.24 153.52,296.02 152.32,300.86C150.3,309.52 151.2,318.89 155.13,326.93C158.14,333.14 163.06,338.5 169.25,341.8C175.09,344.98 181.88,346.26 188.52,346.11C189.13,346.1 189.73,346.12 190.33,346.16C181.82,350.12 172.06,351.56 162.78,349.82C151.69,347.89 141.43,341.64 134.87,332.64C128.51,324.07 125.62,313.36 125.57,302.84C125.59,296.99 125.43,291.06 123.82,285.39C122.96,282.36 121.64,279.33 119.29,277.12C118.14,276.02 116.65,275.31 115.1,274.92C118.16,272.93 121.71,271.39 125.45,271.49C130.08,271.49 134.4,273.97 137.33,277.37C140.54,281.05 142.5,285.67 143.44,290.4C147.11,285.67 147.97,279.07 145.81,273.53C144.3,269.57 141.25,266.3 137.57,264.14C139.26,261.65 141.85,259.74 144.84,259.06C149.75,257.9 155.3,260.02 157.91,264.3Z" style="fill:rgb(253,253,253);fill-rule:nonzero;"/>
        </g>
    </g>
</svg>
