<?xml version="1.0" encoding="UTF-8" standalone="no"?><!DOCTYPE svg PUBLIC "-//W3C//DTD SVG 1.1//EN" "http://www.w3.org/Graphics/SVG/1.1/DTD/svg11.dtd"><svg width="100%" height="100%" viewBox="0 0 87 53" version="1.1" xmlns="http://www.w3.org/2000/svg" xmlns:xlink="http://www.w3.org/1999/xlink" xml:space="preserve" xmlns:serif="http://www.serif.com/" style="fill-rule:evenodd;clip-rule:evenodd;stroke-linejoin:round;stroke-miterlimit:2;"><path d="M86.58,0.871c-0.283,-0.737 -1.132,-0.849 -1.415,-0.849l-17.044,0c0,0 -2.096,-0.284 -3.851,1.189c-1.756,1.416 -64.269,50.906 -64.269,50.906l64.779,0l21.404,-49.604c0,-0.001 0.623,-1.076 0.397,-1.642Z" style="fill:#004c93;"/><path d="M81.937,0.022c0.056,0.169 0.056,0.283 0.113,0.453c-0.283,4.246 -1.359,8.323 -3.001,12.004c-0.567,-1.982 -3.341,-3.851 -7.702,-5.379c0.396,-2.265 0.68,-4.643 0.736,-7.078l-2.378,-0c-0.056,2.208 -0.227,4.36 -0.51,6.398c-2.661,-0.736 -5.775,-1.359 -9.172,-1.812c-0.623,0.453 -1.246,0.963 -1.925,1.529c4.078,0.396 7.758,1.019 10.816,1.812c-0.566,3.568 -1.586,6.852 -2.831,9.74c-2.831,-0.906 -6.454,-1.642 -10.589,-2.095c0.453,-2.548 0.793,-5.323 1.019,-8.21c-0.906,0.68 -1.869,1.472 -2.888,2.265c-0.113,2.038 -0.283,3.964 -0.51,5.776c-1.812,-0.113 -3.681,-0.226 -5.606,-0.226c-0.284,0 -0.623,0.056 -0.906,0.056c-0.623,0.453 -1.19,0.906 -1.812,1.416c0.906,-0.057 1.812,-0.057 2.718,-0.057c1.868,0 3.68,0.057 5.436,0.17c-0.34,2.944 -0.793,5.662 -1.302,7.984c-1.36,-0.113 -2.775,-0.226 -4.303,-0.226c-1.529,0 -3.002,0.113 -4.417,0.226c-0.34,-1.755 -0.68,-3.68 -1.019,-5.832c-0.623,0.509 -1.189,0.963 -1.812,1.472c0.34,1.642 0.793,3.171 1.246,4.53c-2.945,0.396 -5.38,1.076 -7.022,1.925c-0.34,-0.397 -0.68,-0.736 -1.019,-1.133c-0.283,0.283 -0.623,0.509 -0.907,0.793c0.284,0.283 0.623,0.622 0.907,0.906c-0.736,0.566 -1.133,1.133 -1.133,1.755c0,0.056 0.056,0.17 0.056,0.283c-0.735,-0.34 -1.472,-0.736 -2.151,-1.132c-0.34,0.283 -0.679,0.509 -1.019,0.793c0.453,0.509 0.68,1.019 0.906,1.133c0.396,0.283 0.793,0.113 1.076,0.226c0.284,0.057 0.51,0.17 0.85,0.51c0.283,0.283 0.566,0.566 0.906,1.019c0.453,0.566 1.133,0.962 2.039,1.416c0.622,0.396 0.962,0.396 1.302,0.396c0.17,0.056 0.396,0.056 0.679,0.17c0.34,0.056 0.453,0.227 0.68,0.453c0.283,0.283 0.622,0.623 1.359,1.019c0.453,0.227 0.793,0.284 1.076,0.396c0.227,0.057 0.396,0.113 0.566,0.227c0.284,0.171 0.453,0.453 0.623,0.736c0.112,0.227 0.283,0.509 0.566,0.679c0.453,0.283 1.019,0.397 1.189,0.397c0,0.849 0.396,1.359 1.133,1.359l0.056,0c0,0.736 0.283,0.85 0.68,0.962c-0.057,0.227 0.056,0.453 0.112,0.51c0.113,0.113 0.17,0.17 0.284,0.227c0,0.34 -0.057,0.623 0.112,0.85c0.113,0.113 0.227,0.17 0.397,0.17l0.056,0c0.056,0.113 0.113,0.226 0.226,0.283c0.453,0.736 0.962,1.416 0.906,2.492c-0.056,1.019 -0.34,1.642 -0.566,2.266c-0.226,0.51 -0.453,1.076 -0.51,1.812c-0.056,0.51 0.113,1.133 0.283,1.529l0,0.057c-0.566,-0.623 -0.85,-1.812 -0.85,-3.681c0,-1.189 0.17,-2.605 0.51,-4.077c0,0 0,-0.056 0.056,-0.056c0.057,-0.284 -0.056,-0.453 -0.227,-0.51c-0.113,-0.057 -0.34,0 -0.566,0.283c-0.17,0.283 -1.19,2.491 -1.246,4.984c0,2.038 0.566,3.85 1.529,4.586l2.152,0c0.284,-0.227 0.453,-0.51 0.453,-0.622c0.17,-0.283 0.17,-1.019 0.17,-1.19c0,-0.113 0.396,-1.528 0.51,-1.756c0.226,-0.509 0.623,-1.585 0.793,-2.378c0.056,0.057 0.056,0.113 0.056,0.17c0.17,0.453 0.34,1.585 0.396,2.038c0.057,0.113 0.113,0.566 0.397,0.566c0.283,0 0.396,-0.396 0.453,-0.566c0.113,-0.623 0,-2.321 -0.113,-3.001c-0.057,-0.227 -0.113,-0.396 -0.17,-0.566c-0.17,-0.453 -0.397,-0.963 -0.397,-2.095c-0.056,-0.68 0.113,-1.416 0.227,-1.982c0,-0.226 0.056,-0.396 0.056,-0.509c0.056,-0.34 0,-0.567 -0.113,-0.794l0.283,0c0.056,0 0.113,-0.056 0.17,-0.056c0.057,0 0.056,0 0.112,-0.057c0.057,0.057 0.113,0.283 0.057,0.453l0,0.113c0,0.227 -0.057,0.453 0,0.849c0.056,0.17 0.17,0.34 0.226,0.51c0.113,0.17 0.226,0.283 0.226,0.453c0.17,1.076 -0.283,5.719 -0.396,6.398c-0.056,0.283 -0.113,0.51 -0.17,0.736c-0.056,0.34 -0.056,0.566 -0.17,0.793c-0.056,0.113 -0.112,0.227 -0.227,0.396c-0.396,0.51 -0.85,1.19 -0.906,1.756c0,0.113 0.056,0.283 0.112,0.34l3.851,0c0.056,-0.056 0.056,-0.113 0.113,-0.227c0.057,-0.113 0.113,-0.51 -0.283,-0.85c-0.17,-0.113 -0.396,-0.227 -0.566,-0.34c-0.34,-0.17 -0.68,-0.34 -0.68,-0.51c0,-0.17 0.113,-0.396 0.226,-0.566c0.17,-0.227 0.284,-0.453 0.284,-0.68c0,-0.056 0,-0.169 -0.057,-0.339c-0.056,-0.057 -0.112,-0.113 -0.169,-0.113c-0.057,-0.113 -0.057,-0.113 -0.057,-0.227c0,-0.057 0.057,-0.227 0.113,-0.396c0.34,-0.963 1.246,-3.454 1.472,-6.682c0.056,-0.85 -0.17,-1.756 -0.51,-2.435c0.056,0.057 0.17,0.113 0.226,0.113c0.17,0 0.227,-0.113 0.284,-0.17c0.566,-0.51 0.736,-1.189 0.906,-1.812c0,-0.17 0.056,-0.283 0.056,-0.453c0.056,-0.057 0.227,-0.057 0.397,-0.113c0.283,-0.113 0.735,-0.226 1.189,-0.566c0.453,-0.284 0.906,-0.794 1.302,-1.246c0.284,-0.284 0.566,-0.623 0.68,-0.68c0.113,-0.056 0.283,-0.056 0.453,0c0.17,0.056 0.453,0.113 0.736,0.113c1.19,-0.227 2.945,-1.756 4.247,-2.945c0.453,-0.396 0.736,-0.849 1.019,-1.019c0.566,-0.397 1.132,-0.283 1.359,-0.34c0.17,-0.057 0.51,-0.057 0.623,-0.227c0.283,-0.283 0.85,-1.699 2.209,-2.605c8.21,-6.116 13.76,-15.742 14.383,-26.614l-1.3,-0Zm-26.67,16.931c4.02,0.34 7.588,0.963 10.362,1.756c-1.529,3.171 -3.341,5.889 -5.436,8.097c-1.642,-0.793 -4.078,-1.472 -6.965,-1.868c0.793,-2.322 1.472,-4.984 2.039,-7.985Zm-6.683,21.688c-0.34,0.056 0.34,0.283 0.283,0.793c0,0.284 -0.339,0.453 -0.68,0.453c-0.283,0 0.113,0.227 0.227,0.396c0.17,0.283 -0.227,0.509 -0.623,0.566c-0.283,0 -0.906,0.056 -1.302,0c-0.396,-0.057 -0.34,-0.34 -0.113,-0.396c0.226,-0.057 0.623,-0.113 0.906,-0.227c0.509,-0.169 0.17,-0.339 0.056,-0.339c-0.226,0 -0.623,-0.057 -1.132,-0.17c-0.34,-0.113 -0.453,-0.34 -0.34,-0.567c0.056,-0.056 0.227,-0.113 0.34,-0.113c0.283,-0.057 1.076,-0.057 1.416,-0.17c0.339,-0.056 0.509,-0.396 0,-0.396c-0.397,-0.057 -1.133,-0.057 -1.812,-0.113c-0.737,-0.056 -1.19,-0.34 -1.642,-0.85c-0.453,-0.509 -0.567,-1.642 -0.963,-2.265c-0.283,-0.51 -0.906,-0.623 -1.189,-0.623c-0.227,-0.056 -0.453,0 -0.567,0.057c-0.169,0.056 -0.169,0.17 -0.056,0.226c0.453,0.17 0.51,0.85 0.396,0.793c-0.793,-0.736 -2.152,-1.246 -2.605,-1.359c-0.51,-0.17 -0.962,-0.566 -1.189,-0.679c-0.17,-0.112 -1.019,-0.679 -1.36,-0.679c-1.246,0.057 -1.699,-0.453 -2.095,-1.133c-0.17,-0.283 0.283,-0.17 0.396,-0.112c0.396,0.227 1.302,0.736 2.265,1.076c1.076,0.284 1.416,0.17 2.152,0.453c0.566,0.226 1.019,0.85 1.586,0.85c0.736,-0.057 0.793,-0.397 1.755,-0.566c0.227,-0.057 0.906,0 1.076,0.056c0.453,0.113 0.453,0.17 0.68,0.17c0.34,0 0.679,-0.227 0.85,-0.227c0.17,0 0.283,0.112 0.283,0.227l0,0.849c0.057,0.679 0.283,0.963 0.736,1.246c0.566,0.34 0.906,0.453 1.586,0.567l0,0.509c-0.283,0 -0.736,-0.112 -0.962,-0.17c-0.113,0 -0.17,0 -0.17,0.057c-0.057,0.056 -0.113,0.283 0.056,0.283c0.227,0.113 0.566,0.17 0.68,0.226c0.17,0.057 0.396,0.397 0.566,0.51c0.17,0.113 0.283,0.113 0.283,-0.112c-0.057,-0.227 0.113,-0.34 0.34,-0.397c0.509,0 1.019,0.057 1.019,0.679c0.001,0.623 -0.566,0.623 -1.132,0.623Zm8.551,-5.89c-0.623,0 -1.246,0.226 -1.699,0.566c-0.057,0 -0.057,0.057 -0.113,0.113c-0.226,0.17 -0.226,0.056 -0.283,0c0,-0.056 -0.17,-0.17 -0.283,0.056c-0.736,1.246 -1.302,1.529 -2.038,1.869c-0.17,0.056 -0.227,0.056 -0.17,-0.057c0.056,-0.17 0.112,-0.566 0.17,-0.962c0,-0.396 -0.227,-0.793 -0.227,-0.85c-0.056,-0.113 -0.112,-0.17 -0.056,-0.17c0.396,-0.226 1.076,-0.453 1.756,-0.453c0.396,0 0.509,0.283 0.679,0.283c0.113,0.057 0.17,-0.056 0.227,-0.112c0.112,-0.227 0.34,-0.397 0.793,-0.51c0.34,-0.056 0.962,0 1.302,0.112c0.057,0.059 0.057,0.115 -0.056,0.115Zm4.474,-2.888c-2.039,0.906 -4.134,1.642 -6.399,2.152c-0.169,-0.227 -0.51,-0.453 -1.076,-0.453c-1.019,0 -2.208,1.133 -2.321,1.245c-0.34,-0.339 -0.793,-0.736 -1.416,-0.453l-0.227,0.056l0.113,0.226c0.057,0.057 0.057,0.227 0.113,0.397c-0.227,-0.623 -0.623,-1.189 -1.246,-1.36c-0.623,-0.17 -1.302,-0.226 -2.038,-0.056c-0.34,0.056 -0.793,0.396 -1.076,0.68c-0.056,-0.057 -0.17,-0.113 -0.34,-0.113c-0.453,0 -0.85,0.396 -1.076,0.622c0,0.057 -0.056,0.057 -0.056,0.057c0,0 -0.057,-0.057 -0.057,-0.113c0,0 -0.339,-0.453 -0.849,-0.622c-0.453,-0.113 -0.906,-0.113 -1.246,-0.113c-0.227,0 -0.396,0.056 -0.566,0.113c-0.284,0.112 -0.566,0.112 -0.963,0.112c-0.396,0 -0.623,0 -0.849,-0.056c-2.435,-0.566 -4.757,-1.302 -6.965,-2.322c-0.227,-0.227 -0.227,-0.396 -0.227,-0.736c0,-0.397 0.34,-0.85 0.962,-1.189c1.246,1.076 2.548,2.038 3.907,2.831c0.396,0.227 1.189,0.566 1.472,0.453c0.227,-0.056 -0.396,-0.566 -0.736,-0.793c-1.246,-0.85 -2.434,-1.869 -3.568,-3.001c1.529,-0.623 3.964,-1.133 6.796,-1.472c0.623,1.642 1.246,3.002 1.924,4.134c0.227,0.396 0.736,1.076 1.076,1.133c0.17,0.056 -0.113,-0.68 -0.227,-1.019c-0.453,-1.189 -0.85,-2.661 -1.246,-4.36c1.302,-0.113 2.718,-0.17 4.134,-0.17c1.416,0 2.774,0.057 4.077,0.17c-0.396,1.699 -0.849,3.171 -1.302,4.36c-0.113,0.34 -0.396,1.076 -0.17,1.019c0.283,-0.056 0.85,-0.736 1.076,-1.133c0.623,-1.133 1.246,-2.548 1.868,-4.134c2.831,0.283 5.21,0.793 6.796,1.416c-1.132,1.189 -2.378,2.208 -3.624,3.058c-0.283,0.227 -0.962,0.736 -0.736,0.793c0.283,0.113 1.019,-0.284 1.416,-0.566c1.359,-0.849 2.661,-1.812 3.85,-2.888c0.793,0.453 1.19,0.906 1.19,1.36c-0.001,0.284 -0.001,0.51 -0.17,0.737Zm8.154,-5.152c-2.209,1.925 -4.7,3.511 -7.361,4.813c0.056,-0.113 0.056,-0.227 0.056,-0.284c0,-0.679 -0.509,-1.302 -1.359,-1.925c2.378,-2.265 4.473,-4.983 6.172,-8.041c2.661,0.962 4.19,2.095 4.19,3.227c0,0.793 -0.113,0.85 -1.698,2.209Zm8.38,-10.42c-1.529,2.888 -3.454,5.606 -5.72,7.927c-0.113,-1.415 -1.812,-2.775 -4.7,-3.907c1.529,-2.944 2.606,-6.229 3.398,-9.797c4.474,1.416 7.135,3.171 7.135,5.04c0.001,0.227 0.001,0.453 -0.112,0.736Z" style="fill:#fbc34e;"/></svg>