<svg role="img" viewBox="0 0 24 24" xmlns="http://www.w3.org/2000/svg"><title>Atlantic Airways</title><path fill="#004c93" d="M8.42 13.028S6.26 12.04 6.302 11.5a.214.214 0 0 1 .085-.148s1.125-1.24 3.308-2.114c1.76-.706 2.178-.658 2.178-.658-.031.809.492 1.446 1.334 1.74 0 0 3.3-1.051 5.164-1.202 2.249-.183 3.066.654 3.066.654s1.868.108 2.488.491c0 0 .08.064.076.097-.001.01-.012.016-.038.016-.103.002-.446-.073-.947-.02-1.198.13-3.356.394-3.994.749 0 0-3.465 5.49-19.021 5.412 0 0 4.815-1.05 8.42-3.49"/><path fill="#db001b" d="M12.175 7.652c.139-.008.461.047.53.232 0 0-.506-.303-6.898 1.727C3.8 10.245.78 8.141.007 7.483c0 0 2.417.637 12.168.169"/></svg>