<?xml version="1.0" encoding="UTF-8" standalone="no"?><!DOCTYPE svg PUBLIC "-//W3C//DTD SVG 1.1//EN" "http://www.w3.org/Graphics/SVG/1.1/DTD/svg11.dtd"><svg width="100%" height="100%" viewBox="0 0 193 80" version="1.1" xmlns="http://www.w3.org/2000/svg" xmlns:xlink="http://www.w3.org/1999/xlink" xml:space="preserve" xmlns:serif="http://www.serif.com/" style="fill-rule:evenodd;clip-rule:evenodd;stroke-linejoin:round;stroke-miterlimit:2;"><path d="M187.021,6.105c-0.377,-0.982 -1.51,-1.132 -1.887,-1.132l-22.726,0c0,0 -2.794,-0.378 -5.135,1.585c-2.341,1.888 -85.692,67.875 -85.692,67.875l86.372,0l28.539,-66.138c-0,-0.001 0.831,-1.435 0.529,-2.19Z" style="fill:#004c93;"/><path d="M180.83,4.973c0.075,0.226 0.075,0.377 0.15,0.604c-0.377,5.662 -1.812,11.098 -4.001,16.005c-0.756,-2.642 -4.455,-5.134 -10.269,-7.172c0.528,-3.02 0.906,-6.191 0.981,-9.437l-3.171,0c-0.075,2.944 -0.302,5.813 -0.68,8.531c-3.548,-0.981 -7.7,-1.812 -12.23,-2.416c-0.831,0.604 -1.661,1.284 -2.567,2.039c5.437,0.528 10.344,1.359 14.421,2.416c-0.755,4.757 -2.114,9.136 -3.775,12.986c-3.774,-1.208 -8.606,-2.189 -14.118,-2.793c0.604,-3.397 1.057,-7.097 1.359,-10.947c-1.208,0.906 -2.492,1.963 -3.851,3.02c-0.151,2.718 -0.378,5.285 -0.68,7.701c-2.416,-0.151 -4.908,-0.302 -7.475,-0.302c-0.378,0 -0.831,0.075 -1.208,0.075c-0.83,0.604 -1.586,1.208 -2.416,1.888c1.208,-0.076 2.416,-0.076 3.624,-0.076c2.491,0 4.907,0.076 7.248,0.227c-0.453,3.926 -1.057,7.55 -1.736,10.646c-1.813,-0.151 -3.7,-0.302 -5.738,-0.302c-2.038,0 -4.002,0.151 -5.889,0.302c-0.453,-2.34 -0.906,-4.907 -1.359,-7.776c-0.83,0.679 -1.585,1.284 -2.416,1.963c0.453,2.189 1.057,4.228 1.661,6.04c-3.926,0.528 -7.173,1.435 -9.362,2.567c-0.453,-0.529 -0.906,-0.982 -1.358,-1.51c-0.378,0.377 -0.831,0.679 -1.209,1.057c0.378,0.377 0.831,0.83 1.209,1.208c-0.982,0.755 -1.511,1.51 -1.511,2.34c0,0.075 0.075,0.227 0.075,0.377c-0.98,-0.453 -1.963,-0.981 -2.868,-1.51c-0.453,0.377 -0.906,0.679 -1.359,1.057c0.604,0.679 0.906,1.359 1.208,1.51c0.528,0.377 1.057,0.151 1.435,0.302c0.378,0.076 0.68,0.227 1.133,0.68c0.377,0.377 0.755,0.755 1.208,1.359c0.604,0.755 1.51,1.283 2.718,1.888c0.83,0.528 1.283,0.528 1.736,0.528c0.227,0.075 0.528,0.075 0.906,0.227c0.453,0.075 0.604,0.302 0.906,0.604c0.377,0.378 0.83,0.831 1.812,1.359c0.604,0.302 1.057,0.378 1.435,0.528c0.302,0.076 0.528,0.151 0.755,0.302c0.378,0.228 0.604,0.604 0.831,0.982c0.15,0.302 0.377,0.679 0.755,0.905c0.604,0.378 1.358,0.529 1.585,0.529c0,1.132 0.528,1.812 1.511,1.812l0.075,0c0,0.981 0.377,1.133 0.906,1.283c-0.076,0.303 0.075,0.604 0.15,0.68c0.151,0.151 0.227,0.227 0.378,0.302c0,0.453 -0.076,0.831 0.15,1.133c0.151,0.151 0.303,0.227 0.529,0.227l0.075,0c0.075,0.151 0.151,0.302 0.302,0.377c0.604,0.982 1.283,1.888 1.208,3.322c-0.075,1.359 -0.453,2.189 -0.755,3.021c-0.302,0.68 -0.604,1.435 -0.68,2.416c-0.075,0.68 0.151,1.51 0.378,2.038l0,0.076c-0.755,-0.831 -1.133,-2.416 -1.133,-4.908c0,-1.585 0.227,-3.473 0.68,-5.436c0,0 0,-0.075 0.075,-0.075c0.076,-0.378 -0.075,-0.604 -0.302,-0.68c-0.151,-0.076 -0.453,0 -0.755,0.377c-0.227,0.378 -1.586,3.322 -1.661,6.645c0,2.718 0.755,5.134 2.038,6.115l2.869,0c0.378,-0.302 0.604,-0.68 0.604,-0.83c0.227,-0.378 0.227,-1.359 0.227,-1.586c0,-0.151 0.528,-2.038 0.68,-2.341c0.302,-0.679 0.83,-2.113 1.057,-3.171c0.075,0.076 0.075,0.151 0.075,0.227c0.227,0.604 0.453,2.114 0.528,2.718c0.076,0.151 0.151,0.755 0.529,0.755c0.377,0 0.528,-0.528 0.604,-0.755c0.151,-0.83 0,-3.095 -0.15,-4.001c-0.076,-0.302 -0.151,-0.528 -0.227,-0.755c-0.227,-0.604 -0.529,-1.284 -0.529,-2.794c-0.075,-0.906 0.151,-1.888 0.303,-2.643c0,-0.302 0.075,-0.528 0.075,-0.679c0.075,-0.453 0,-0.756 -0.151,-1.058l0.378,0c0.075,0 0.151,-0.075 0.227,-0.075c0.076,0 0.075,0 0.15,-0.076c0.076,0.076 0.151,0.378 0.076,0.604l0,0.151c0,0.302 -0.076,0.604 0,1.132c0.075,0.227 0.227,0.453 0.302,0.68c0.151,0.227 0.302,0.378 0.302,0.604c0.227,1.435 -0.377,7.625 -0.528,8.531c-0.075,0.377 -0.151,0.68 -0.227,0.981c-0.075,0.453 -0.075,0.755 -0.227,1.057c-0.075,0.151 -0.15,0.303 -0.302,0.528c-0.528,0.68 -1.133,1.586 -1.208,2.341c0,0.151 0.075,0.378 0.15,0.453l5.135,0c0.075,-0.075 0.075,-0.151 0.15,-0.302c0.076,-0.151 0.151,-0.68 -0.377,-1.133c-0.227,-0.15 -0.528,-0.302 -0.755,-0.453c-0.453,-0.227 -0.906,-0.453 -0.906,-0.68c0,-0.227 0.151,-0.528 0.302,-0.755c0.227,-0.302 0.378,-0.604 0.378,-0.906c0,-0.075 0,-0.226 -0.076,-0.452c-0.075,-0.076 -0.15,-0.151 -0.226,-0.151c-0.076,-0.151 -0.076,-0.151 -0.076,-0.302c0,-0.076 0.076,-0.302 0.151,-0.528c0.453,-1.284 1.661,-4.605 1.963,-8.909c0.075,-1.133 -0.227,-2.341 -0.68,-3.247c0.075,0.076 0.227,0.151 0.302,0.151c0.227,0 0.303,-0.151 0.378,-0.227c0.755,-0.68 0.981,-1.586 1.208,-2.416c0,-0.227 0.075,-0.377 0.075,-0.604c0.075,-0.076 0.303,-0.076 0.529,-0.151c0.377,-0.151 0.98,-0.302 1.585,-0.755c0.604,-0.378 1.208,-1.058 1.736,-1.661c0.378,-0.378 0.755,-0.831 0.906,-0.906c0.151,-0.075 0.378,-0.075 0.604,0c0.227,0.075 0.604,0.151 0.981,0.151c1.586,-0.302 3.927,-2.341 5.663,-3.926c0.604,-0.528 0.981,-1.132 1.359,-1.359c0.755,-0.529 1.51,-0.377 1.812,-0.453c0.227,-0.076 0.68,-0.076 0.83,-0.302c0.378,-0.377 1.133,-2.265 2.945,-3.473c10.947,-8.154 18.346,-20.989 19.177,-35.485l-1.734,0Zm-35.56,22.574c5.36,0.453 10.117,1.284 13.816,2.341c-2.039,4.228 -4.455,7.852 -7.248,10.796c-2.189,-1.057 -5.437,-1.963 -9.287,-2.491c1.057,-3.096 1.963,-6.645 2.719,-10.646Zm-8.91,28.917c-0.453,0.075 0.453,0.377 0.377,1.057c0,0.378 -0.452,0.604 -0.906,0.604c-0.377,0 0.151,0.302 0.303,0.528c0.227,0.377 -0.303,0.679 -0.831,0.755c-0.377,0 -1.208,0.075 -1.736,0c-0.528,-0.076 -0.453,-0.453 -0.15,-0.528c0.302,-0.076 0.83,-0.151 1.208,-0.303c0.679,-0.226 0.227,-0.452 0.075,-0.452c-0.302,0 -0.831,-0.076 -1.51,-0.227c-0.453,-0.151 -0.604,-0.453 -0.453,-0.756c0.075,-0.075 0.302,-0.15 0.453,-0.15c0.377,-0.076 1.435,-0.076 1.888,-0.227c0.452,-0.075 0.679,-0.528 0,-0.528c-0.529,-0.076 -1.511,-0.076 -2.416,-0.151c-0.982,-0.075 -1.586,-0.453 -2.189,-1.133c-0.604,-0.679 -0.756,-2.189 -1.284,-3.02c-0.377,-0.68 -1.208,-0.831 -1.585,-0.831c-0.303,-0.075 -0.604,0 -0.756,0.076c-0.226,0.075 -0.226,0.227 -0.075,0.302c0.604,0.227 0.68,1.133 0.528,1.057c-1.057,-0.981 -2.869,-1.661 -3.473,-1.812c-0.68,-0.227 -1.283,-0.755 -1.585,-0.906c-0.227,-0.15 -1.359,-0.906 -1.813,-0.906c-1.661,0.076 -2.265,-0.604 -2.793,-1.51c-0.227,-0.377 0.377,-0.227 0.528,-0.15c0.528,0.302 1.736,0.981 3.02,1.434c1.435,0.378 1.888,0.227 2.869,0.604c0.755,0.302 1.358,1.133 2.114,1.133c0.981,-0.076 1.057,-0.529 2.34,-0.755c0.303,-0.076 1.208,0 1.435,0.075c0.604,0.15 0.604,0.227 0.906,0.227c0.453,0 0.906,-0.302 1.133,-0.302c0.227,0 0.377,0.15 0.377,0.302l0,1.132c0.076,0.906 0.378,1.284 0.981,1.661c0.755,0.453 1.208,0.604 2.114,0.756l0,0.679c-0.377,0 -0.981,-0.15 -1.283,-0.227c-0.151,0 -0.227,0 -0.227,0.076c-0.076,0.075 -0.151,0.377 0.075,0.377c0.303,0.151 0.755,0.227 0.906,0.302c0.227,0.076 0.528,0.529 0.755,0.68c0.227,0.151 0.378,0.151 0.378,-0.15c-0.076,-0.303 0.15,-0.453 0.453,-0.529c0.679,0 1.358,0.076 1.358,0.906c0.001,0.83 -0.754,0.83 -1.509,0.83Zm11.401,-7.853c-0.83,0 -1.661,0.302 -2.265,0.755c-0.076,0 -0.076,0.076 -0.151,0.151c-0.302,0.227 -0.302,0.075 -0.377,0c0,-0.075 -0.227,-0.227 -0.378,0.075c-0.981,1.661 -1.736,2.039 -2.718,2.492c-0.227,0.075 -0.303,0.075 -0.227,-0.076c0.075,-0.227 0.15,-0.755 0.227,-1.283c0,-0.528 -0.303,-1.057 -0.303,-1.133c-0.075,-0.15 -0.15,-0.227 -0.075,-0.227c0.528,-0.302 1.435,-0.604 2.341,-0.604c0.528,0 0.679,0.377 0.906,0.377c0.15,0.076 0.227,-0.075 0.302,-0.15c0.15,-0.303 0.453,-0.529 1.057,-0.68c0.453,-0.075 1.283,0 1.736,0.15c0.076,0.078 0.076,0.153 -0.075,0.153Zm5.965,-3.85c-2.719,1.208 -5.512,2.189 -8.532,2.869c-0.226,-0.302 -0.68,-0.604 -1.435,-0.604c-1.358,0 -2.944,1.51 -3.095,1.66c-0.453,-0.452 -1.058,-0.981 -1.888,-0.604l-0.302,0.075l0.15,0.302c0.076,0.076 0.076,0.303 0.151,0.529c-0.302,-0.831 -0.831,-1.586 -1.661,-1.813c-0.83,-0.227 -1.736,-0.302 -2.718,-0.075c-0.453,0.075 -1.058,0.528 -1.435,0.906c-0.075,-0.076 -0.227,-0.151 -0.453,-0.151c-0.604,0 -1.133,0.528 -1.435,0.83c0,0.076 -0.075,0.076 -0.075,0.076c0,0 -0.076,-0.076 -0.076,-0.151c0,0 -0.452,-0.604 -1.132,-0.83c-0.604,-0.151 -1.208,-0.151 -1.661,-0.151c-0.302,0 -0.528,0.075 -0.755,0.151c-0.378,0.15 -0.755,0.15 -1.284,0.15c-0.528,0 -0.83,0 -1.132,-0.075c-3.247,-0.755 -6.343,-1.736 -9.287,-3.096c-0.302,-0.302 -0.302,-0.528 -0.302,-0.981c0,-0.529 0.453,-1.133 1.283,-1.586c1.661,1.435 3.397,2.718 5.21,3.775c0.528,0.302 1.585,0.755 1.963,0.604c0.302,-0.075 -0.528,-0.755 -0.981,-1.057c-1.661,-1.133 -3.246,-2.492 -4.757,-4.001c2.039,-0.831 5.285,-1.51 9.061,-1.963c0.83,2.189 1.661,4.002 2.566,5.512c0.303,0.528 0.981,1.435 1.435,1.51c0.227,0.075 -0.15,-0.906 -0.302,-1.359c-0.604,-1.585 -1.133,-3.548 -1.661,-5.813c1.736,-0.151 3.624,-0.227 5.512,-0.227c1.888,0 3.699,0.076 5.436,0.227c-0.528,2.265 -1.132,4.228 -1.736,5.813c-0.15,0.453 -0.528,1.435 -0.227,1.359c0.378,-0.075 1.133,-0.982 1.435,-1.51c0.831,-1.51 1.661,-3.397 2.491,-5.512c3.775,0.377 6.946,1.057 9.061,1.888c-1.51,1.585 -3.171,2.944 -4.832,4.077c-0.378,0.302 -1.283,0.982 -0.981,1.057c0.378,0.151 1.359,-0.378 1.888,-0.755c1.812,-1.132 3.548,-2.416 5.134,-3.851c1.057,0.604 1.586,1.208 1.586,1.813c-0.001,0.378 -0.001,0.68 -0.227,0.982Zm10.872,-6.87c-2.945,2.567 -6.267,4.681 -9.815,6.417c0.075,-0.151 0.075,-0.302 0.075,-0.378c0,-0.906 -0.679,-1.736 -1.812,-2.566c3.171,-3.02 5.964,-6.644 8.229,-10.721c3.548,1.283 5.587,2.793 5.587,4.303c0,1.057 -0.151,1.133 -2.264,2.945Zm11.173,-13.893c-2.039,3.851 -4.605,7.475 -7.626,10.57c-0.15,-1.887 -2.416,-3.7 -6.267,-5.209c2.039,-3.926 3.474,-8.305 4.53,-13.062c5.965,1.888 9.513,4.228 9.513,6.72c0.001,0.302 0.001,0.604 -0.15,0.981Z" style="fill:#fbc34e;"/></svg>