<?xml version="1.0" encoding="UTF-8" standalone="no"?><!DOCTYPE svg PUBLIC "-//W3C//DTD SVG 1.1//EN" "http://www.w3.org/Graphics/SVG/1.1/DTD/svg11.dtd"><svg width="100%" height="100%" viewBox="0 0 323 83" version="1.1" xmlns="http://www.w3.org/2000/svg" xmlns:xlink="http://www.w3.org/1999/xlink" xml:space="preserve" xmlns:serif="http://www.serif.com/" style="fill-rule:evenodd;clip-rule:evenodd;stroke-linejoin:round;stroke-miterlimit:2;"><path id="path1077" d="M0,82.66l52.83,-82.66l47.046,0l3.318,82.66l-34.1,0l0.009,-49.176l-31.43,49.176l-37.672,0" style="fill:#dc0a29;fill-rule:nonzero;"/><path id="path1077-3" d="M110.051,82.66l52.83,-82.66l47.046,0l3.318,82.66l-34.1,0l0.009,-49.176l-31.43,49.176l-37.672,0" style="fill:#dc0a29;fill-rule:nonzero;"/><path id="path1103" d="M243.568,0l-13.076,47.152l42.443,0l-2.555,9.214l-42.443,0l-7.292,26.295l79.256,0l14.117,-50.907l-40.836,0l3.709,-13.373l40.835,0l5.097,-18.38l-79.256,0Z" style="fill:#dc0a29;fill-rule:nonzero;"/></svg>