<?xml version="1.0" encoding="UTF-8" standalone="no"?>
<!DOCTYPE svg PUBLIC "-//W3C//DTD SVG 1.1//EN" "http://www.w3.org/Graphics/SVG/1.1/DTD/svg11.dtd">
<svg width="100%" height="100%" viewBox="0 0 339 339" version="1.1" xmlns="http://www.w3.org/2000/svg" xmlns:xlink="http://www.w3.org/1999/xlink" xml:space="preserve" xmlns:serif="http://www.serif.com/" style="fill-rule:evenodd;clip-rule:evenodd;stroke-linejoin:round;stroke-miterlimit:2;">
    <g transform="matrix(4.166667,0,0,4.166667,0,0)">
        <g transform="matrix(1,0,0,1,-14.14,-8.1)">
            <circle cx="54.14" cy="48.07" r="35.79" style="fill:rgb(244,124,50);"/>
            <circle cx="55.14" cy="48.53" r="28.04" style="fill:rgb(14,77,141);"/>
            <path d="M54.74,8.1C32.31,8.1 14.14,26.28 14.14,48.7C14.14,71.13 32.32,89.3 54.74,89.3C77.16,89.3 95.34,71.12 95.34,48.7C95.34,26.28 77.16,8.1 54.74,8.1ZM54.5,81.69C36.22,81.69 21.4,66.87 21.4,48.59C21.4,30.31 36.22,15.49 54.5,15.49C72.78,15.49 87.6,30.31 87.6,48.59C87.6,66.87 72.78,81.69 54.5,81.69Z" style="fill:rgb(14,77,141);fill-rule:nonzero;"/>
            <path d="M54.5,19.58C38.47,19.58 25.48,32.57 25.48,48.6C25.48,64.63 38.47,77.62 54.5,77.62C70.53,77.62 83.52,64.62 83.52,48.6C83.52,32.57 70.53,19.58 54.5,19.58ZM68.41,55.59C60.49,48.74 47.59,51.22 40.65,57.35C40.95,52.49 38.53,51.94 36.61,50.32C41.85,51.87 50.16,51.5 51.72,46.54C54.66,37.19 41.9,35.5 43.37,25.73C44.31,33.99 52.69,32.38 55.07,37.19C55.77,38.6 55.56,41.36 55.5,43.55C55.43,45.89 56.91,46.29 59.39,46.1C62.2,45.89 61.82,47.41 63.14,47.97C60.11,48.2 61.53,49.4 62.17,49.39C64.14,49.37 66.68,49.2 68.5,50.31C72.55,52.79 73.25,58.61 79.13,59.8C76.6,60.96 72.68,59.28 68.41,55.59Z" style="fill:rgb(14,77,141);fill-rule:nonzero;"/>
            <path d="M54.5,19.58C38.47,19.58 25.48,32.57 25.48,48.6C25.48,64.63 38.47,77.62 54.5,77.62C70.53,77.62 83.52,64.62 83.52,48.6C83.52,32.57 70.53,19.58 54.5,19.58ZM68.41,55.59C60.49,48.74 47.59,51.22 40.65,57.35C40.95,52.49 38.53,51.94 36.61,50.32C41.85,51.87 50.16,51.5 51.72,46.54C54.66,37.19 41.9,35.5 43.37,25.73C44.31,33.99 52.69,32.38 55.07,37.19C55.77,38.6 55.56,41.36 55.5,43.55C55.43,45.89 56.91,46.29 59.39,46.1C62.2,45.89 61.82,47.41 63.14,47.97C60.11,48.2 61.53,49.4 62.17,49.39C64.14,49.37 66.68,49.2 68.5,50.31C72.55,52.79 73.25,58.61 79.13,59.8C76.6,60.96 72.68,59.28 68.41,55.59Z" style="fill:white;fill-rule:nonzero;"/>
        </g>
    </g>
</svg>
