<?xml version="1.0" encoding="UTF-8" standalone="no"?>
<!DOCTYPE svg PUBLIC "-//W3C//DTD SVG 1.1//EN" "http://www.w3.org/Graphics/SVG/1.1/DTD/svg11.dtd">
<svg width="100%" height="100%" viewBox="0 0 751 219" version="1.1" xmlns="http://www.w3.org/2000/svg" xmlns:xlink="http://www.w3.org/1999/xlink" xml:space="preserve" xmlns:serif="http://www.serif.com/" style="fill-rule:evenodd;clip-rule:evenodd;stroke-linejoin:round;stroke-miterlimit:2;">
    <g transform="matrix(4.166667,0,0,4.166667,0,0)">
        <g transform="matrix(1,0,0,1,-356.715846,-79.389825)">
            <g transform="matrix(1,0,0,1,58.315846,23.090846)">
                <path d="M316.8,97.2C316.577,96.244 316.41,95.276 316.3,94.3C313.979,96.801 310.712,98.216 307.3,98.2C301.7,98.2 298.4,94.9 298.4,89.8C298.4,85 300.9,82.1 305.9,81C312.5,79.4 316,79.9 316,77.7L316,77C316,75.3 314.7,74.5 312.3,74.5C309.6,74.5 308.1,75.6 307.7,77.7L299.1,77.7C300,71.2 304.4,68.2 312.5,68.2C317.5,68.2 321,69.4 322.9,71.9C324.7,74.2 324.8,77.1 324.8,81L324.8,91.8C324.8,94.3 325.2,95.8 326.2,96.3L326.2,97.4L316.8,97.4L316.8,97.2ZM310.3,85.5C308.2,86.1 307.2,86.9 307.2,88.7C307.196,88.769 307.193,88.838 307.193,88.907C307.193,90.662 308.638,92.107 310.393,92.107C310.462,92.107 310.531,92.104 310.6,92.1C313.8,92.1 316,90.1 316,87.1L316,83.8C314.5,84.8 312.4,84.9 310.3,85.5" style="fill:rgb(21,49,82);fill-rule:nonzero;"/>
                <path d="M354.9,97.2L345.8,97.2L345.8,93.3C343.962,96.255 340.678,98.011 337.2,97.9C330.9,97.9 327.7,94.7 327.7,88.3L327.7,68.7L337,68.7L337,84.6C337,88.8 337.8,90.8 340.9,90.8C344.3,90.8 345.6,88.6 345.6,83.9L345.6,68.7L354.9,68.7L354.9,97.2Z" style="fill:rgb(21,49,82);fill-rule:nonzero;"/>
                <path d="M357.2,68.7L366.2,68.7L366.2,73.7C368.2,69.8 371,68.1 375.6,68L375.6,77.2C374.838,77.088 374.07,77.021 373.3,77C370.5,77 368.6,77.8 367.5,79.6C366.6,81 366.5,83.6 366.5,87.5L366.5,97L357.2,97L357.2,68.7Z" style="fill:rgb(21,49,82);fill-rule:nonzero;"/>
                <rect x="377.5" y="68.7" width="9.3" height="28.4" style="fill:rgb(21,49,82);"/>
                <path d="M399.7,99.8C400.2,101.5 401.6,102.1 404,102.1C408.3,102.1 409.5,100.2 409.5,95.9L409.5,92.9C407.627,95.926 404.253,97.689 400.7,97.5C393.9,97.5 388.8,91.8 388.8,82.9C388.8,74 393.8,68 400.8,68C404.403,67.833 407.825,69.582 409.8,72.6L409.8,68.8L418.5,68.8L418.5,92.3C418.5,97.2 418.4,100.8 416.8,103.4C414.6,106.8 410.3,108.8 404.3,108.8C395.7,108.8 391.3,106 390.4,99.8L399.7,99.8ZM403.7,90.1C407.2,90.1 409.3,87.5 409.3,82.8C409.3,77.8 407.4,75.2 403.9,75.2C400.4,75.2 398.4,77.8 398.4,82.8C398.4,87.4 400.5,90.1 403.7,90.1" style="fill:rgb(21,49,82);fill-rule:nonzero;"/>
                <path d="M421.1,68.7L430.2,68.7L430.2,72.6C431.967,69.572 435.301,67.789 438.8,68C445.7,68 448.3,71.4 448.3,78.7L448.3,97.2L439,97.2L439,82.9C439,77.7 438.8,75.1 435.1,75.1C431.7,75.1 430.4,77.3 430.4,82L430.4,97.2L421.1,97.2L421.1,68.7Z" style="fill:rgb(21,49,82);fill-rule:nonzero;"/>
                <path d="M462.4,108C460.6,108.8 458.1,108.8 455,108.8L452.5,108.8L452.5,101.4L454.3,101.4C457.4,101.4 458.8,100.9 458.8,98.5C458.584,96.901 458.111,95.348 457.4,93.9L447.8,68.7L457.8,68.7L463.2,88.1L468.7,68.7L478.6,68.7L467.2,100.3C465.7,104.4 464.6,107 462.4,108" style="fill:rgb(21,49,82);fill-rule:nonzero;"/>
                <path d="M387.3,61.4C387.3,64.198 384.998,66.5 382.2,66.5C379.402,66.5 377.1,64.198 377.1,61.4C377.1,58.602 379.402,56.3 382.2,56.3C382.234,56.299 382.267,56.299 382.301,56.299C385.044,56.299 387.301,58.556 387.301,61.299C387.301,61.333 387.301,61.366 387.3,61.4" style="fill:rgb(173,25,35);fill-rule:nonzero;"/>
            </g>
        </g>
    </g>
</svg>
