<?xml version="1.0" encoding="UTF-8" standalone="no"?>
<!DOCTYPE svg PUBLIC "-//W3C//DTD SVG 1.1//EN" "http://www.w3.org/Graphics/SVG/1.1/DTD/svg11.dtd">
<svg width="100%" height="100%" viewBox="0 0 165 165" version="1.1" xmlns="http://www.w3.org/2000/svg" xmlns:xlink="http://www.w3.org/1999/xlink" xml:space="preserve" xmlns:serif="http://www.serif.com/" style="fill-rule:evenodd;clip-rule:evenodd;stroke-linejoin:round;stroke-miterlimit:2;">
    <g transform="matrix(4.166667,0,0,4.166667,0,0)">
        <g transform="matrix(1,0,0,1,-63.963406,-0.326314)">
            <path d="M92.075,14.655C94.364,15.07 96.557,16.161 98.322,17.926C102.942,22.546 102.942,30.063 98.322,34.684C93.703,39.304 86.184,39.304 81.564,34.684C76.943,30.063 76.943,22.546 81.564,17.926C83.759,15.733 83.759,12.162 81.564,9.967C79.369,7.772 75.8,7.772 73.606,9.967C71.411,12.162 71.411,15.733 73.606,17.926C74.576,18.9 75.821,19.441 77.097,19.55C77.422,18.925 77.798,18.322 78.222,17.741C77.035,17.94 75.776,17.583 74.86,16.67C73.36,15.169 73.36,12.724 74.86,11.223C76.362,9.721 78.808,9.721 80.306,11.223C81.809,12.724 81.809,15.169 80.306,16.67C74.993,21.983 74.993,30.629 80.306,35.939C85.619,41.254 94.265,41.254 99.581,35.939C104.891,30.629 104.891,21.983 99.581,16.67C97.459,14.548 94.809,13.277 92.05,12.849C92.096,13.448 92.106,14.052 92.075,14.655M71.092,7.454C74.672,3.873 80.498,3.873 84.078,7.454C87.657,11.035 87.657,16.858 84.078,20.44C80.844,23.674 80.844,28.936 84.078,32.17C87.311,35.404 92.575,35.404 95.81,32.17C99.04,28.936 99.04,23.674 95.81,20.44C94.581,19.212 93.063,18.452 91.472,18.156C91.299,18.732 91.089,19.299 90.843,19.853C92.202,20.041 93.511,20.656 94.552,21.696C97.09,24.237 97.09,28.372 94.552,30.914C92.01,33.453 87.877,33.453 85.335,30.914C82.793,28.372 82.793,24.237 85.335,21.696C89.608,17.424 89.608,10.469 85.335,6.198C81.063,1.922 74.107,1.922 69.835,6.198C65.56,10.469 65.56,17.424 69.835,21.696C71.447,23.308 73.436,24.312 75.525,24.707C75.59,24.12 75.688,23.533 75.825,22.956C74.088,22.621 72.432,21.783 71.092,20.44C67.513,16.858 67.513,11.035 71.092,7.454M75.454,25.596C73.164,25.181 70.972,24.093 69.205,22.324C64.587,17.705 64.587,10.188 69.205,5.567C73.827,0.948 81.344,0.948 85.963,5.567C90.584,10.188 90.584,17.705 85.963,22.324C83.769,24.518 83.769,28.09 85.963,30.284C88.158,32.479 91.729,32.479 93.922,30.284C96.118,28.09 96.118,24.518 93.922,22.324C92.95,21.351 91.707,20.811 90.432,20.701C90.105,21.325 89.731,21.929 89.307,22.51C90.492,22.311 91.754,22.669 92.666,23.581C94.169,25.083 94.169,27.527 92.666,29.029C91.164,30.53 88.72,30.53 87.219,29.029C85.718,27.527 85.718,25.083 87.219,23.581C92.533,18.268 92.533,9.625 87.219,4.312C81.907,-1.002 73.261,-1.002 67.95,4.312C62.635,9.625 62.635,18.268 67.95,23.581C70.07,25.702 72.72,26.974 75.479,27.403C75.432,26.802 75.424,26.199 75.454,25.596M76.686,20.398C75.327,20.21 74.018,19.596 72.976,18.554C70.436,16.012 70.436,11.88 72.976,9.338C75.517,6.799 79.651,6.799 82.194,9.338C84.733,11.88 84.733,16.012 82.194,18.554C77.92,22.827 77.92,29.782 82.194,34.054C86.466,38.329 93.418,38.329 97.693,34.054C101.967,29.782 101.967,22.827 97.693,18.554C96.081,16.945 94.092,15.941 92.005,15.544C91.94,16.13 91.84,16.717 91.704,17.295C93.439,17.632 95.096,18.469 96.436,19.811C100.016,23.391 100.016,29.217 96.436,32.798C92.856,36.38 87.031,36.38 83.45,32.798C79.867,29.217 79.867,23.391 83.45,19.811C86.682,16.578 86.682,11.316 83.45,8.083C80.217,4.848 74.954,4.848 71.719,8.083C68.485,11.316 68.485,16.578 71.719,19.811C72.947,21.04 74.465,21.799 76.056,22.096C76.229,21.52 76.439,20.952 76.686,20.398" style="fill:rgb(0,42,89);fill-rule:nonzero;"/>
        </g>
    </g>
</svg>
