<?xml version="1.0" encoding="UTF-8" standalone="no"?>
<!DOCTYPE svg PUBLIC "-//W3C//DTD SVG 1.1//EN" "http://www.w3.org/Graphics/SVG/1.1/DTD/svg11.dtd">
<svg width="100%" height="100%" viewBox="0 0 112 202" version="1.1" xmlns="http://www.w3.org/2000/svg" xmlns:xlink="http://www.w3.org/1999/xlink" xml:space="preserve" xmlns:serif="http://www.serif.com/" style="fill-rule:evenodd;clip-rule:evenodd;stroke-linejoin:round;stroke-miterlimit:2;">
    <g transform="matrix(4.166667,0,0,4.166667,0,0)">
        <g transform="matrix(1,0,0,1,-102.30101,-2.184777)">
            <path id="path911-4-99" d="M102.301,33.349C103.245,32.769 104.271,32.262 105.277,31.538L112.079,26.641C117.747,22.813 123.406,19.424 128.991,19.445L128.991,23.35C125.735,23.35 120.365,25.407 115.326,29.037L107.025,35.018L115.326,41C120.365,44.63 125.735,46.686 128.991,46.686L128.991,50.591C123.406,50.613 117.747,47.223 112.079,43.395L105.277,38.498C104.271,37.774 103.245,37.267 102.301,36.687L102.301,33.349Z" style="fill:rgb(255,205,0);fill-rule:nonzero;"/>
            <path id="path911-4-9" d="M102.301,24.776C103.245,24.196 104.271,23.689 105.277,22.965L112.079,18.068C117.747,14.24 123.406,10.85 128.991,10.872L128.991,14.777C125.735,14.777 120.365,16.833 115.326,20.463L107.025,26.445L115.326,32.426C120.365,36.057 125.735,38.113 128.991,38.113L128.991,42.018C123.406,42.039 117.747,38.65 112.079,34.822L105.277,29.925C104.271,29.201 103.245,28.694 102.301,28.114L102.301,24.776Z" style="fill:rgb(76,18,161);fill-rule:nonzero;"/>
            <path id="path911-4" d="M102.301,16.089C103.245,15.509 104.271,15.002 105.277,14.278L112.079,9.381C117.747,5.553 123.406,2.163 128.991,2.185L128.991,6.09C125.735,6.09 120.365,8.146 115.326,11.776L107.025,17.758L115.326,23.74C120.365,27.37 125.735,29.426 128.991,29.426L128.991,33.331C123.406,33.352 117.747,29.963 112.079,26.135L105.277,21.238C104.271,20.514 103.245,20.007 102.301,19.427L102.301,16.089Z" style="fill:rgb(0,193,212);fill-rule:nonzero;"/>
        </g>
    </g>
</svg>
