<?xml version="1.0" encoding="UTF-8" standalone="no"?>
<!DOCTYPE svg PUBLIC "-//W3C//DTD SVG 1.1//EN" "http://www.w3.org/Graphics/SVG/1.1/DTD/svg11.dtd">
<svg width="100%" height="100%" viewBox="0 0 5039 1798" version="1.1" xmlns="http://www.w3.org/2000/svg" xmlns:xlink="http://www.w3.org/1999/xlink" xml:space="preserve" xmlns:serif="http://www.serif.com/" style="fill-rule:evenodd;clip-rule:evenodd;stroke-linejoin:round;stroke-miterlimit:2;">
    <g transform="matrix(4.166667,0,0,4.166667,0,0)">
        <g>
            <path d="M927.8,133.5C926.3,127.8 927.1,125.2 931.4,122.3C938.9,117.4 946.3,112.3 953.8,107.5C962.8,101.6 986,89.4 985.9,85.4C984.4,85.3 982.8,85 981.2,85C946.4,85 911.5,85 876.7,84.9C869.6,84.9 862.4,84.7 855.3,83.9C850.9,83.4 846.4,82.2 842.4,80.5C834.5,77 832.3,69.9 831.3,61.9C829.5,48.1 827.1,34.4 825.1,20.6C824.4,15.6 823.9,10.5 823.2,4.8C829.7,3.8 835.4,4.2 841.2,4.5C842,4.6 842.9,5.4 843.6,6.1C850.6,13.8 857.6,21.5 864.5,29.3C870.4,36 876.3,42.8 882.5,50C886.9,50 891.5,50.1 896.2,50C915.3,49.6 1151.1,44.3 1161.5,44.3C1173.9,44.3 1190.8,52.2 1195.6,55.3C1198.1,56.9 1201.7,59 1204,60.9C1208.1,64.1 1210.4,68.2 1208.4,73.6C1206.6,78.5 1203,81.6 1198,82.6C1193.5,83.5 1188.8,83.9 1184.2,84C1173.7,84.3 1163.2,84.2 1152.7,84.3C1131.7,84.5 1110.7,84.6 1089.7,84.9C1087.4,84.9 1085.1,85.5 1083,86.3C1068.3,92.4 1053.7,98.7 1039,104.7C1023.7,111 1008.7,118 993.4,124.4C986.5,127.3 979.9,130.7 973,133.4C968.4,135.2 963.8,136.5 958.6,136.9C952.1,137.3 945.6,137.1 939.1,137C934.9,137.1 931.1,136.4 927.8,133.5Z" style="fill:rgb(255,83,0);fill-rule:nonzero;"/>
        </g>
        <g>
            <path d="M0,431.4L138.9,431.3L180,370.2L310.6,370.2L310,429.8L415.1,429.8L423.1,-0L307.3,1.6L0,431.4ZM311.7,274.4L244.6,274.4L312.8,173.1L311.7,274.4Z" style="fill:rgb(1,38,82);fill-rule:nonzero;"/>
            <path d="M793,42.1L520.8,42.1C516.4,54.9 487,139.4 487,139.4L565.6,139.4L459.3,429.8L568.6,429.8L676.8,139.3L759.7,139.3L793,42.1Z" style="fill:rgb(1,38,82);fill-rule:nonzero;"/>
            <path d="M902.2,167.1L848.4,327C842.9,343.3 827.6,354.3 810.4,354.3L790.5,354.3C778.1,354.3 769.3,342.1 773.3,330.4L828.2,167.2L739.5,167.2L684.7,320.5C665.4,374.3 705.4,431 762.5,431L789.6,431C859.5,431 921.5,386.2 943.4,319.8L993.9,167.2L902.2,167.1Z" style="fill:rgb(1,38,82);fill-rule:nonzero;"/>
        </g>
    </g>
</svg>
