<?xml version="1.0" encoding="UTF-8" standalone="no"?>
<!DOCTYPE svg PUBLIC "-//W3C//DTD SVG 1.1//EN" "http://www.w3.org/Graphics/SVG/1.1/DTD/svg11.dtd">
<svg width="100%" height="100%" viewBox="0 0 173 80" version="1.1" xmlns="http://www.w3.org/2000/svg" xmlns:xlink="http://www.w3.org/1999/xlink" xml:space="preserve" xmlns:serif="http://www.serif.com/" style="fill-rule:evenodd;clip-rule:evenodd;stroke-linejoin:round;stroke-miterlimit:2;">
    <g transform="matrix(4.166667,0,0,4.166667,0,0)">
        <g transform="matrix(1,0,0,1,-110.899,-0.199951)">
            <path d="M123.466,0.615L145.897,0.615C149.476,0.654 151.146,0.417 152.18,0.2C152.18,3.992 147.627,5.454 144.664,5.454L119.867,5.454C116.288,5.414 114.28,7.034 113.504,8.1C113.504,7.725 114.16,5.138 114.359,4.624C115.055,2.906 116.547,1.543 118.396,0.931C119.708,0.516 121.041,0.634 123.466,0.615Z" style="fill:rgb(50,51,142);"/>
        </g>
        <g transform="matrix(1,0,0,1,-110.899,-0.199951)">
            <path d="M140.746,6.184C144.326,6.224 145.996,5.987 147.03,5.77C147.03,9.562 142.476,11.004 139.514,11.004L118.535,11.004C114.956,10.964 112.947,12.584 112.172,13.65C112.172,13.275 112.828,10.688 113.027,10.174C113.723,8.456 115.214,7.093 117.064,6.481C118.396,6.066 119.728,6.184 122.154,6.165C128.358,6.165 134.542,6.184 140.746,6.184Z" style="fill:rgb(0,172,236);"/>
        </g>
        <g transform="matrix(1,0,0,1,-110.899,-0.199951)">
            <path d="M120.842,11.734L135.616,11.734C139.196,11.774 140.866,11.537 141.9,11.319C141.9,15.112 137.346,16.573 134.383,16.573L117.263,16.573C113.683,16.534 111.675,18.153 110.899,19.22C110.899,18.844 111.556,16.257 111.754,15.744C112.45,14.025 113.942,12.643 115.791,12.05C117.103,11.636 118.436,11.754 120.842,11.734Z" style="fill:rgb(166,215,246);"/>
        </g>
    </g>
</svg>
