<?xml version="1.0" encoding="UTF-8" standalone="no"?>
<!DOCTYPE svg PUBLIC "-//W3C//DTD SVG 1.1//EN" "http://www.w3.org/Graphics/SVG/1.1/DTD/svg11.dtd">
<svg width="100%" height="100%" viewBox="0 0 357 365" version="1.1" xmlns="http://www.w3.org/2000/svg" xmlns:xlink="http://www.w3.org/1999/xlink" xml:space="preserve" xmlns:serif="http://www.serif.com/" style="fill-rule:evenodd;clip-rule:evenodd;stroke-linejoin:round;stroke-miterlimit:2;">
    <g transform="matrix(4.166667,0,0,4.166667,0,0)">
        <g id="layer1" transform="matrix(3.779527,0,0,3.779527,-412.727623,-3.215793)">
            <path id="path9721" d="M109.201,11.957C116.439,8.533 123.606,4.235 130.555,1.256C130.664,1.343 130.772,1.432 130.878,1.522C123.616,5.537 117.151,11.225 109.969,15.798C109.64,14.616 109.219,13.134 109.201,11.957" style="fill:rgb(23,81,149);fill-rule:nonzero;"/>
            <path id="path9723" d="M131.863,2.475C130.595,9.113 129.709,15.86 128.385,22.69C127.331,23.27 125.786,23.874 124.615,23.999C126.811,17.332 129.251,10.483 131.586,2.178C131.68,2.276 131.772,2.375 131.863,2.475" style="fill:rgb(23,81,149);fill-rule:nonzero;"/>
            <path id="path9725" d="M113.949,21.205C119.731,14.404 125.716,8.081 131.105,1.723C131.218,1.824 131.328,1.927 131.437,2.032C126.21,9.055 122.409,16.016 117.75,23.43C116.664,23.039 114.805,22.045 113.949,21.205" style="fill:rgb(23,81,149);fill-rule:nonzero;"/>
            <path id="path9727" d="M130.366,1.1C122.066,2.776 116.114,5.11 110.058,6.58C110.318,5.829 111.181,4.176 111.706,3.507C117.713,2.497 123.319,1.775 130.031,0.851C130.156,0.944 130.244,1.003 130.366,1.1" style="fill:rgb(23,81,149);fill-rule:nonzero;"/>
        </g>
    </g>
</svg>
