<?xml version="1.0" encoding="UTF-8" standalone="no"?>
<!DOCTYPE svg PUBLIC "-//W3C//DTD SVG 1.1//EN" "http://www.w3.org/Graphics/SVG/1.1/DTD/svg11.dtd">
<svg width="100%" height="100%" viewBox="0 0 1713 1325" version="1.1" xmlns="http://www.w3.org/2000/svg" xmlns:xlink="http://www.w3.org/1999/xlink" xml:space="preserve" xmlns:serif="http://www.serif.com/" style="fill-rule:evenodd;clip-rule:evenodd;stroke-linejoin:round;stroke-miterlimit:2;">
    <g transform="matrix(4.166667,0,0,4.166667,0,0)">
        <g id="Capa_x0020_1" transform="matrix(1,0,0,1,-79,-121)">
            <path d="M261,121L377,121C388,187 400,254 412,320C386,320 360,324 334,328C301,334 267,341 234,351C201,360 167,371 135,383C118,390 102,396 86,403C144,309 203,215 261,121ZM303,204C283,242 263,281 243,319L315,319C311,281 307,242 304,204L303,204ZM434,317C440,323 446,328 452,333C449,341 445,349 442,356C458,346 474,335 490,324C471,322 453,320 434,317ZM380,325C391,324 401,323 412,323C413,328 414,332 414,336C392,339 369,343 347,349C297,361 248,378 201,397C171,410 141,423 113,438C112,438 112,439 111,439C100,438 90,439 79,438C104,425 129,412 154,400C185,386 215,373 247,361C275,350 305,340 334,333C349,330 365,327 380,325ZM400,341C405,340 410,340 415,340C416,346 417,353 419,359C400,362 382,365 364,369C342,374 320,380 299,387L264,387C287,375 312,365 337,357C358,350 379,344 400,341ZM380,369C393,366 406,364 419,363C424,388 428,413 432,439L326,439C325,421 323,404 321,387C341,380 360,374 380,369ZM165,439C172,434 179,430 187,426C184,430 182,434 180,439C175,438 170,439 165,439Z" style="fill:rgb(173,13,23);"/>
        </g>
    </g>
</svg>
