<svg role="img" viewBox="0 0 24 24" xmlns="http://www.w3.org/2000/svg"><title>Azerbaijan Airlines</title><path fill="#082e6a" d="M10.669 4.262C2.462 3.822-2.66 13.014 2.033 19.76c4.693 6.747 15.093 5.143 17.535-2.704l-.452.022c-2.753 8.374-14.451 8.762-17.755.592C-1.943 9.5 6.737 1.648 14.537 5.755l.337-.298a9.875 9.875 0 0 0-4.205-1.195Z"/><path fill="#0098da" d="m23.755 0-1.65.043a72.247 72.247 0 0 1-6.164 6.621c-2.24 2.135-4.492 4.049-6.747 5.934C14.132 9.267 19.031 5.536 23.755.002Zm-.334 2.33A100.835 100.835 0 0 1 8.483 13.575a63.4 63.4 0 0 0 14.5-9.284ZM8.483 13.575l-.04.021v.006zm12.657-1.04A99.153 99.153 0 0 1 4.716 16.6c4.617-.054 9.931-.925 16.159-2.885zm-.412 1.83a110.614 110.614 0 0 1-16.92 2.802 62.072 62.072 0 0 0 16.663-1.648Z"/><path fill="#51c2e1" d="M22.674 5.676a109.557 109.557 0 0 1-15.097 8.857c4.895-1.502 9.811-4.107 14.737-7.25Zm-1.12 5a120.235 120.235 0 0 1-15.969 5.321c4.695-.41 9.987-1.887 15.704-4.133Z"/><path fill="#9fd7e0" d="M6.453 15.284a78.978 78.978 0 0 0 15.616-6.911l-.327 1.459c-6.156 3.056-11.373 5.016-15.29 5.452Z"/></svg>