<?xml version="1.0" encoding="UTF-8" standalone="no"?>
<!DOCTYPE svg PUBLIC "-//W3C//DTD SVG 1.1//EN" "http://www.w3.org/Graphics/SVG/1.1/DTD/svg11.dtd">
<svg width="100%" height="100%" viewBox="0 0 130 132" version="1.1" xmlns="http://www.w3.org/2000/svg" xmlns:xlink="http://www.w3.org/1999/xlink" xml:space="preserve" xmlns:serif="http://www.serif.com/" style="fill-rule:evenodd;clip-rule:evenodd;stroke-linejoin:round;stroke-miterlimit:2;">
    <g transform="matrix(4.166667,0,0,4.166667,0,0)">
        <g id="Page-1" transform="matrix(1,0,0,1,-88.85,0)">
            <g id="Group">
                <path id="Path" d="M108.095,2.96L109.949,2.96L109.949,4.42L108.093,4.42L108.095,2.96Z" style="fill:rgb(80,97,170);"/>
                <rect id="Path1" serif:id="Path" x="101.26" y="18.606" width="5.675" height="6.05" style="fill:rgb(139,50,138);"/>
                <rect id="Path2" serif:id="Path" x="104.992" y="25.95" width="3.73" height="2.26" style="fill:rgb(93,128,192);"/>
                <path id="Path3" serif:id="Path" d="M102.78,27.006L107.263,27.006L107.263,31.444L102.781,31.444L102.78,27.006Z" style="fill:rgb(233,78,41);"/>
                <path id="Path4" serif:id="Path" d="M108.333,22.977L112.171,22.977L112.171,24.657L108.335,24.657L108.333,22.977Z" style="fill:rgb(213,38,42);"/>
                <rect id="Path5" serif:id="Path" x="106.93" y="19.918" width="3.935" height="0.995" style="fill:rgb(246,160,34);"/>
                <rect id="Path6" serif:id="Path" x="112.166" y="22.977" width="2.75" height="0.757" style="fill:rgb(106,149,205);"/>
                <rect id="Path7" serif:id="Path" x="106.93" y="15.1" width="3.76" height="4.82" style="fill:rgb(48,111,182);"/>
                <rect id="Path8" serif:id="Path" x="99.586" y="11.404" width="7.35" height="7.203" style="fill:rgb(115,200,221);"/>
                <rect id="Path9" serif:id="Path" x="95.31" y="11.406" width="4.908" height="3.984" style="fill:rgb(146,193,67);"/>
                <rect id="Path10" serif:id="Path" x="101.678" y="4.66" width="8.316" height="6.797" style="fill:rgb(80,97,170);"/>
                <rect id="Path11" serif:id="Path" x="110.683" y="12.286" width="6.06" height="7.397" style="fill:rgb(22,155,214);"/>
                <path id="Path12" serif:id="Path" d="M109.73,16.496L114.917,16.496L114.917,22.996L109.729,22.996L109.73,16.496Z" style="fill:rgb(246,160,34);"/>
                <rect id="Path13" serif:id="Path" x="106.93" y="20.898" width="3.838" height="3.753" style="fill:rgb(213,38,42);"/>
                <path id="Path14" serif:id="Path" d="M104.687,23.255L109.639,23.255L109.639,25.975L104.685,25.975L104.687,23.255Z" style="fill:rgb(25,154,166);"/>
                <rect id="Path15" serif:id="Path" x="114.91" y="19.024" width="1.06" height="3.257" style="fill:rgb(165,191,223);"/>
                <path id="Path16" serif:id="Path" d="M116.74,12.057L119.513,12.057L119.513,13.771L116.741,13.771L116.74,12.057Z" style="fill:rgb(63,183,175);"/>
                <rect id="Path17" serif:id="Path" x="116.483" y="13.77" width="2" height="1.115" style="fill:rgb(174,34,88);"/>
                <rect id="Path18" serif:id="Path" x="106.93" y="8.515" width="3.76" height="6.594" style="fill:rgb(121,193,153);"/>
                <path id="Path19" serif:id="Path" d="M110.683,5.86L115.741,5.86L115.741,12.285L110.685,12.285L110.683,5.86Z" style="fill:rgb(229,223,31);"/>
                <rect id="Path20" serif:id="Path" x="109.988" y="4.66" width="3.687" height="6.024" style="fill:rgb(51,186,207);"/>
                <rect id="Path21" serif:id="Path" x="114.97" y="10.517" width="5.03" height="1.77" style="fill:rgb(108,169,219);"/>
                <rect id="Path22" serif:id="Path" x="115.746" y="6.637" width="2.402" height="3.882" style="fill:rgb(222,80,151);"/>
                <rect id="Path23" serif:id="Path" x="117.427" y="7.858" width="2.228" height="1.628" style="fill:rgb(96,69,150);"/>
                <rect id="Path24" serif:id="Path" x="116.855" y="9.487" width="3.145" height="1.627" style="fill:rgb(250,216,3);"/>
                <path id="Shape" d="M108.08,2.89L109.97,2.89L109.97,4.42L108.08,4.42L108.08,2.89ZM101.678,2.937L105.108,2.937L105.108,6.74L101.678,6.74L101.678,2.937Z" style="fill:rgb(80,97,170);fill-rule:nonzero;"/>
                <rect id="Path25" serif:id="Path" x="91.083" y="2.937" width="10.61" height="8.52" style="fill:rgb(11,184,231);"/>
                <rect id="Path26" serif:id="Path" x="96.525" y="0" width="3.692" height="4.805" style="fill:rgb(65,173,76);"/>
                <rect id="Path27" serif:id="Path" x="88.85" y="10.73" width="6.85" height="2.67" style="fill:rgb(231,183,32);"/>
                <rect id="Path28" serif:id="Path" x="105.1" y="0.436" width="2.66" height="4.224" style="fill:rgb(185,207,55);"/>
                <path id="Path29" serif:id="Path" d="M108.652,16.496L109.729,16.496L109.729,17.57L108.649,17.57L108.652,16.496Z" style="fill:rgb(146,193,67);"/>
            </g>
        </g>
    </g>
</svg>
