<svg role="img" viewBox="0 0 24 24" xmlns="http://www.w3.org/2000/svg"><title>Bamboo Airways</title><path fill="#00558e" d="M.357 21.246c.06 0 .641-.006.876-.015.236-.01 1.16-.052 1.862-.135.702-.084 2.903-.368 3.886-.568.982-.2 3.425-.687 5.531-1.368 2.107-.682 3.943-1.735 4.684-2.663.345-.432.547-.775.708-1.07.185-.339.31-.612.435-.87-.216-.005-.907-.022-2.145.09-1.054.095-2.101.268-2.215.286-.219.036-.572.097-.82.142-.807.148-1.802.379-1.958.416-.158.037-.335.083-.502.126-.379.096-1.184.311-2.304.686-1.023.341-1.974.755-2.042.784-.14.06-.318.14-.79.356-.236.109-1.443.678-2.693 1.493-.73.477-1.474 1.074-2.032 1.548-.392.333-.694.606-.835.732l.128.017c.026.001.165.012.226.013z"/><path fill="#4ebcec" d="M18.338 14.557c-.124.256-.25.53-.435.868a7.011 7.011 0 0 1-.708 1.071c-.74.928-2.577 1.982-4.684 2.663-2.107.681-4.549 1.168-5.53 1.368-.983.2-3.184.484-3.887.568a28.35 28.35 0 0 1-1.862.135c-.235.01-.816.016-.876.015-.06-.001-.2-.012-.228-.014L0 21.214s.041.021.1.04c.059.02.149.043.207.054.058.01.197.036.316.05.118.015.632.072.713.08.082.008 1.191.118 2.035.137.845.02 2.576.096 5.201-.232 2.49-.312 5.757-1.072 8.205-2.083 2.448-1.012 3.849-1.835 4.656-2.35.808-.516 2.567-1.698 2.567-1.698-2.357-.65-5.207-.643-5.662-.655Z"/><path fill="#64ae53" d="M20.42 2.403c-.62.004-1.364.045-1.364.045l-.333 10.647c.016-.069.365-1.197.702-2.427.39-1.429.778-2.992.82-3.156l.697-2.794c.076-.297.322-1.219.364-1.655.06-.63-.266-.643-.336-.648a8.002 8.002 0 0 0-.55-.012zm-2.291.124a8.808 8.808 0 0 0-1.108.208c-.74.192-1.234.648-1.784 1.148-.457.415-.908.836-1.355 1.262l-.069.066.165 9.721c.114-.018 1.16-.19 2.216-.286 1.237-.112 1.928-.095 2.144-.09zm-4.905 3.254a65.028 65.028 0 0 0-1.975 2.008l-.05 7.701a45.616 45.616 0 0 1 1.96-.415zm-1.988 2.021c-.305.325-.595.643-.867.95-1.24 1.405-2.527 2.858-3.77 4.314l-.248 4.02c.068-.03 1.02-.443 2.042-.784 1.12-.375 1.925-.59 2.304-.686zM5.29 14.727s-.832 1.019-1.18 1.453c-.095.118-.343.438-.67.836-.883 1.076-2.305 2.782-2.536 3.063-.317.385-.781.967-.903 1.135.141-.126.442-.398.834-.73.558-.475 1.301-1.072 2.032-1.549a22.89 22.89 0 0 1 2.694-1.493Z"/></svg>