<?xml version="1.0" encoding="UTF-8" standalone="no"?>
<!DOCTYPE svg PUBLIC "-//W3C//DTD SVG 1.1//EN" "http://www.w3.org/Graphics/SVG/1.1/DTD/svg11.dtd">
<svg width="100%" height="100%" viewBox="0 0 1432 350" version="1.1" xmlns="http://www.w3.org/2000/svg" xmlns:xlink="http://www.w3.org/1999/xlink" xml:space="preserve" xmlns:serif="http://www.serif.com/" style="fill-rule:evenodd;clip-rule:evenodd;stroke-linejoin:round;stroke-miterlimit:2;">
    <g transform="matrix(3.125,0,0,3.125,-0.000028,-0.00038)">
        <g transform="matrix(4.166667,0,0,4.166667,-106.858333,-1744.237518)">
            <path d="M87.2,419.222C87.053,419.277 86.902,419.332 86.746,419.387C86.59,419.442 86.429,419.497 86.264,419.553C86.099,419.608 85.897,419.686 85.658,419.787C85.42,419.888 85.181,419.993 84.942,420.103C84.686,420.213 84.392,420.337 84.062,420.475C83.731,420.612 83.364,420.782 82.96,420.984C82.538,421.168 82.066,421.388 81.543,421.645C81.02,421.902 80.464,422.159 79.877,422.416C79.308,422.654 78.753,422.902 78.212,423.159C77.67,423.416 77.216,423.627 76.849,423.792C76.501,423.957 76.225,424.086 76.023,424.177C75.822,424.269 75.62,424.361 75.418,424.453C75.234,424.526 75.051,424.595 74.867,424.659C74.683,424.723 74.518,424.783 74.371,424.838C74.243,424.893 74.128,424.934 74.027,424.962C73.926,424.99 73.849,425.003 73.794,425.003C73.683,425.022 73.605,425.031 73.559,425.031C73.514,425.031 73.463,425.022 73.408,425.003C73.353,425.003 73.307,424.99 73.27,424.962C73.234,424.934 73.188,424.911 73.133,424.893L70.655,424.893C70.545,424.893 70.453,424.912 70.38,424.948L70.05,424.948C69.884,424.948 69.696,424.967 69.485,425.003C69.274,425.04 69.077,425.077 68.894,425.113C68.802,425.113 68.705,425.123 68.604,425.141C68.503,425.159 68.398,425.187 68.288,425.224C68.178,425.242 68.068,425.265 67.958,425.292C67.847,425.32 67.756,425.343 67.682,425.361C67.59,425.361 67.503,425.375 67.421,425.402C67.338,425.43 67.26,425.453 67.187,425.471C67.095,425.508 66.998,425.54 66.898,425.568C66.797,425.595 66.691,425.618 66.581,425.636C66.471,425.673 66.375,425.705 66.292,425.733C66.209,425.76 66.141,425.783 66.086,425.801C66.03,425.801 65.975,425.806 65.92,425.815C65.865,425.825 65.81,425.857 65.755,425.912C65.7,425.912 65.631,425.925 65.549,425.953C65.466,425.981 65.37,426.022 65.26,426.077C65.15,426.132 64.998,426.192 64.805,426.256C64.613,426.32 64.379,426.389 64.104,426.462C63.865,426.554 63.585,426.66 63.264,426.779C62.943,426.898 62.672,426.994 62.452,427.068C62.213,427.16 62.016,427.242 61.86,427.316C61.704,427.389 61.553,427.453 61.406,427.508C60.965,427.71 60.516,427.921 60.057,428.142C59.598,428.362 59.139,428.591 58.68,428.83C58.515,428.922 58.355,429.013 58.199,429.105C58.042,429.197 57.909,429.27 57.799,429.325C57.689,429.38 57.602,429.435 57.538,429.491C57.474,429.546 57.432,429.582 57.414,429.6C57.304,429.6 57.189,429.591 57.07,429.573C56.951,429.555 56.827,429.527 56.698,429.49C56.588,429.49 56.464,429.481 56.327,429.463C56.189,429.444 56.056,429.417 55.927,429.38L54.551,429.38C54.404,429.38 54.303,429.394 54.248,429.422C54.193,429.449 54.129,429.472 54.055,429.49C54,429.49 53.941,429.495 53.877,429.504C53.812,429.513 53.725,429.546 53.615,429.6C53.505,429.6 53.386,429.633 53.257,429.697C53.129,429.761 53.009,429.802 52.899,429.821C52.789,429.857 52.684,429.899 52.583,429.945C52.482,429.991 52.385,430.023 52.294,430.041C52.22,430.078 52.133,430.119 52.032,430.165C51.931,430.211 51.835,430.243 51.743,430.261C51.615,430.316 51.514,430.353 51.44,430.371C51.367,430.39 51.284,430.408 51.192,430.426C51.082,430.426 50.991,430.449 50.917,430.495C50.844,430.541 50.752,430.573 50.642,430.591C50.587,430.591 50.523,430.601 50.449,430.619C50.376,430.637 50.293,430.646 50.201,430.646L49.486,430.646C49.357,430.646 49.284,430.637 49.266,430.619C49.247,430.601 49.192,430.591 49.1,430.591L48.605,430.591C48.55,430.591 48.421,430.582 48.22,430.564C48.018,430.546 47.816,430.536 47.614,430.536L44.393,430.536C44.228,430.536 44.076,430.541 43.939,430.55C43.801,430.56 43.696,430.573 43.622,430.591L43.347,430.591C43.292,430.591 43.223,430.596 43.14,430.605C43.058,430.615 42.962,430.628 42.851,430.646L42.466,430.646C42.319,430.646 42.149,430.669 41.957,430.715C41.764,430.761 41.585,430.793 41.42,430.812C41.255,430.812 41.099,430.835 40.952,430.881C40.805,430.927 40.649,430.959 40.484,430.977C40.319,431.014 40.172,431.046 40.043,431.073C39.915,431.101 39.786,431.124 39.658,431.142C39.511,431.142 39.374,431.165 39.245,431.211C39.117,431.257 38.997,431.289 38.887,431.307C38.777,431.307 38.658,431.33 38.529,431.376C38.401,431.422 38.263,431.454 38.117,431.472C38.061,431.472 38.006,431.477 37.951,431.486C37.896,431.495 37.841,431.509 37.786,431.527C37.713,431.527 37.635,431.541 37.552,431.569C37.469,431.596 37.382,431.619 37.291,431.638C37.217,431.674 37.148,431.688 37.084,431.679C37.02,431.67 36.96,431.674 36.905,431.693C36.85,431.729 36.777,431.752 36.685,431.762C36.593,431.771 36.501,431.784 36.41,431.803L36.134,431.803C36.079,431.803 36.033,431.807 35.997,431.817C35.96,431.826 35.896,431.84 35.804,431.858C35.676,431.858 35.501,431.876 35.281,431.913C35.061,431.95 34.85,431.968 34.648,431.968L34.318,431.968C34.207,431.968 34.097,431.95 33.987,431.913L31.895,431.913C31.785,431.913 31.679,431.917 31.578,431.927C31.477,431.936 31.372,431.95 31.262,431.968L30.821,431.968C30.785,431.968 30.729,431.972 30.656,431.982C30.583,431.991 30.509,432.005 30.436,432.023C30.381,432.023 30.326,432.028 30.271,432.037C30.216,432.046 30.161,432.06 30.105,432.078C30.051,432.115 29.973,432.133 29.872,432.133C29.771,432.133 29.628,432.17 29.445,432.243C29.243,432.298 29,432.386 28.715,432.505C28.431,432.624 28.142,432.757 27.848,432.904L134.439,432.904C134.384,432.849 134.334,432.785 134.288,432.711C134.242,432.638 134.2,432.592 134.164,432.574C134.145,432.519 134.123,432.473 134.095,432.436C134.067,432.399 134.035,432.353 133.998,432.298C133.98,432.243 133.934,432.188 133.861,432.133C133.788,432.078 133.723,432.023 133.668,431.968C133.448,431.784 133.205,431.61 132.939,431.445C132.673,431.28 132.402,431.124 132.127,430.977C131.943,430.867 131.759,430.77 131.576,430.688C131.392,430.605 131.191,430.537 130.97,430.481C130.86,430.463 130.755,430.436 130.654,430.399C130.553,430.362 130.429,430.316 130.282,430.261C130.117,430.206 129.938,430.151 129.745,430.096C129.553,430.041 129.365,429.986 129.181,429.931C128.979,429.876 128.8,429.821 128.644,429.766C128.488,429.711 128.319,429.656 128.135,429.6C127.97,429.546 127.782,429.477 127.571,429.394C127.36,429.311 127.144,429.215 126.924,429.105C126.704,429.031 126.47,428.94 126.222,428.83C125.974,428.719 125.731,428.609 125.492,428.499C125.235,428.389 124.974,428.284 124.708,428.183C124.441,428.082 124.226,428.004 124.061,427.949C123.859,427.875 123.707,427.82 123.607,427.784C123.506,427.747 123.4,427.71 123.29,427.673C123.18,427.655 123.084,427.623 123.001,427.577C122.918,427.531 122.849,427.508 122.795,427.508C122.684,427.49 122.597,427.467 122.533,427.44C122.469,427.412 122.409,427.398 122.354,427.398L121.803,427.398C121.748,427.398 121.684,427.407 121.611,427.426C121.537,427.444 121.455,427.435 121.363,427.398L121.156,427.398C121.092,427.398 121.033,427.38 120.978,427.343C120.922,427.343 120.858,427.311 120.785,427.247C120.711,427.183 120.629,427.105 120.537,427.013C120.482,426.958 120.427,426.903 120.372,426.848C120.317,426.793 120.262,426.738 120.207,426.682C120.152,426.627 120.092,426.572 120.028,426.517C119.964,426.462 119.876,426.407 119.766,426.352C119.693,426.279 119.587,426.196 119.45,426.104C119.312,426.013 119.161,425.912 118.996,425.801C118.83,425.691 118.66,425.577 118.486,425.457C118.312,425.338 118.151,425.242 118.005,425.169C117.894,425.077 117.807,425.012 117.743,424.976C117.679,424.939 117.619,424.911 117.564,424.893C117.491,424.838 117.403,424.792 117.302,424.755C117.201,424.719 117.105,424.673 117.014,424.618C116.903,424.581 116.807,424.554 116.724,424.535C116.642,424.517 116.555,424.526 116.463,424.563L116.215,424.563C116.123,424.563 116.027,424.572 115.926,424.59C115.825,424.609 115.738,424.636 115.664,424.673C115.463,424.691 115.265,424.719 115.073,424.755C114.88,424.792 114.692,424.838 114.508,424.893C114.398,424.911 114.297,424.934 114.205,424.962C114.114,424.99 114.013,425.022 113.903,425.058C113.792,425.077 113.673,425.109 113.545,425.155C113.416,425.201 113.315,425.233 113.242,425.251C113.15,425.251 113.086,425.26 113.049,425.278C113.013,425.297 112.985,425.306 112.967,425.306C112.875,425.361 112.769,425.398 112.65,425.416C112.531,425.435 112.416,425.453 112.306,425.471C112.251,425.471 112.191,425.485 112.127,425.513C112.063,425.54 111.994,425.563 111.921,425.581C111.755,425.636 111.572,425.682 111.37,425.719C111.168,425.756 110.985,425.783 110.819,425.801C110.544,425.912 110.269,426.013 109.994,426.104C109.718,426.196 109.443,426.297 109.168,426.407C108.893,426.517 108.636,426.618 108.397,426.71C108.158,426.802 107.938,426.884 107.736,426.958C107.553,427.05 107.387,427.114 107.241,427.151C107.094,427.187 106.965,427.233 106.855,427.288C106.745,427.325 106.64,427.357 106.539,427.384C106.438,427.412 106.342,427.435 106.25,427.453C106.176,427.49 106.098,427.513 106.016,427.522C105.933,427.531 105.846,427.545 105.754,427.563C105.681,427.6 105.612,427.623 105.548,427.632C105.484,427.641 105.424,427.655 105.369,427.673L104.474,427.673C104.392,427.673 104.323,427.655 104.268,427.618L103.758,427.618C103.676,427.618 103.589,427.6 103.497,427.563C103.423,427.508 103.355,427.453 103.29,427.398C103.226,427.343 103.167,427.288 103.111,427.233C103.093,427.233 103.057,427.215 103.001,427.178C102.946,427.141 102.891,427.104 102.836,427.068C102.781,427.05 102.717,427.022 102.644,426.985C102.57,426.949 102.451,426.903 102.285,426.848C102.139,426.793 101.951,426.719 101.721,426.628C101.492,426.536 101.286,426.444 101.102,426.352C100.937,426.279 100.794,426.219 100.675,426.173C100.556,426.127 100.46,426.077 100.386,426.022C100.294,426.003 100.207,425.971 100.125,425.925C100.042,425.879 99.964,425.838 99.891,425.801C99.781,425.691 99.67,425.586 99.56,425.485C99.45,425.384 99.359,425.288 99.285,425.196C99.193,425.122 99.12,425.049 99.065,424.976C99.01,424.902 98.955,424.838 98.9,424.783C98.734,424.673 98.565,424.558 98.39,424.439C98.216,424.32 98.019,424.196 97.799,424.067C97.578,423.921 97.353,423.792 97.124,423.682C96.895,423.572 96.661,423.462 96.422,423.352C96.165,423.205 95.917,423.067 95.679,422.939C95.44,422.81 95.229,422.709 95.046,422.636C94.862,422.544 94.72,422.471 94.619,422.415C94.518,422.36 94.44,422.305 94.385,422.25C94.33,422.195 94.224,422.108 94.068,421.989C93.912,421.87 93.761,421.755 93.614,421.645C93.541,421.59 93.463,421.516 93.38,421.424C93.297,421.333 93.174,421.223 93.009,421.094C92.843,420.947 92.65,420.778 92.43,420.585C92.21,420.392 92.017,420.232 91.852,420.103C91.687,419.956 91.559,419.842 91.467,419.759C91.375,419.676 91.283,419.608 91.192,419.553C91.118,419.497 91.031,419.433 90.93,419.36C90.829,419.286 90.733,419.222 90.641,419.167C90.568,419.112 90.49,419.057 90.407,419.002C90.324,418.947 90.237,418.91 90.146,418.892C90.017,418.837 89.925,418.795 89.87,418.768C89.815,418.741 89.742,418.727 89.65,418.727C89.577,418.727 89.499,418.713 89.416,418.685C89.333,418.658 89.246,418.635 89.155,418.617L88.893,418.617C88.792,418.617 88.696,418.635 88.604,418.672L88.218,418.672C88.163,418.672 88.099,418.69 88.026,418.727C87.934,418.727 87.824,418.75 87.696,418.796C87.567,418.841 87.439,418.892 87.31,418.947L87.2,419.222ZM32.831,445.463C33.263,445.459 33.721,445.411 34.125,445.375C34.528,445.338 34.905,445.246 35.254,445.099C35.621,444.971 35.96,444.792 36.272,444.563C36.584,444.333 36.832,444.053 37.015,443.723C37.217,443.374 37.355,442.975 37.428,442.525C37.501,442.076 37.511,441.667 37.456,441.3C37.401,440.951 37.304,440.662 37.167,440.433C37.029,440.204 36.887,440.016 36.74,439.869C36.611,439.74 36.501,439.644 36.41,439.58C36.318,439.515 36.226,439.465 36.134,439.428C36.281,439.428 36.437,439.401 36.602,439.346C36.768,439.291 36.942,439.199 37.125,439.07C37.327,438.923 37.547,438.74 37.786,438.52C38.025,438.299 38.208,438.024 38.337,437.694C38.484,437.327 38.548,436.932 38.529,436.51C38.511,436.088 38.447,435.712 38.337,435.381C38.208,435.051 38.034,434.785 37.813,434.583C37.593,434.381 37.346,434.225 37.07,434.115C36.795,434.005 36.51,433.95 36.217,433.95L27.628,433.95L25.646,445.463C25.646,445.463 31.418,445.478 32.831,445.463ZM40.044,445.43L41.255,442.897L44.448,442.897L44.448,445.43L49.1,445.43C49.1,445.43 49.073,444.824 49.018,443.613C48.944,442.401 48.871,441.075 48.798,439.635C48.724,438.194 48.66,436.868 48.605,435.657C48.531,434.445 48.495,433.84 48.495,433.84L42.851,433.84C42.851,433.84 42.567,434.445 41.998,435.657C41.447,436.868 40.842,438.194 40.181,439.635C39.52,441.075 38.906,442.401 38.337,443.613C37.786,444.824 37.511,445.43 37.511,445.43L40.044,445.43ZM107.516,445.485L108.727,442.952L111.921,442.952L111.921,445.485L116.573,445.485C116.573,445.485 116.545,444.879 116.49,443.668C116.435,442.456 116.367,441.13 116.284,439.69C116.201,438.249 116.132,436.923 116.078,435.712C116.022,434.501 115.995,433.895 115.995,433.895L110.324,433.895C110.324,433.895 110.049,434.501 109.498,435.712C108.929,436.923 108.314,438.249 107.654,439.69C106.993,441.13 106.387,442.456 105.837,443.668C105.268,444.879 104.983,445.485 104.983,445.485L107.516,445.485ZM54.386,445.43L55.157,440.585C55.23,440.585 55.308,440.589 55.391,440.598C55.473,440.607 55.542,440.621 55.597,440.64C55.652,440.695 55.694,440.763 55.721,440.846C55.748,440.929 55.762,441.007 55.762,441.08L56.368,445.43L60.965,445.43L60.194,440.695C60.194,440.585 60.176,440.488 60.139,440.406C60.103,440.323 60.066,440.236 60.029,440.144C60.011,440.071 59.979,440.016 59.933,439.979C59.887,439.942 59.855,439.906 59.836,439.869C60.02,439.869 60.203,439.837 60.387,439.772C60.57,439.708 60.727,439.648 60.855,439.594C61.002,439.52 61.13,439.438 61.241,439.346C61.351,439.254 61.461,439.144 61.571,439.015C61.681,438.868 61.791,438.699 61.901,438.506C62.011,438.313 62.103,438.098 62.177,437.859C62.268,437.602 62.328,437.322 62.355,437.019C62.383,436.717 62.378,436.446 62.342,436.207C62.342,435.932 62.305,435.689 62.232,435.478C62.158,435.267 62.066,435.069 61.956,434.886C61.846,434.684 61.718,434.524 61.571,434.404C61.424,434.285 61.222,434.17 60.965,434.06C60.727,433.968 60.442,433.909 60.112,433.881C59.781,433.854 59.451,433.84 59.121,433.84L51.798,433.84L49.761,445.43L54.386,445.43ZM66.636,445.43L67.407,440.585C67.48,440.585 67.558,440.589 67.641,440.598C67.723,440.607 67.792,440.621 67.847,440.64C67.902,440.676 67.944,440.741 67.971,440.832C67.999,440.924 68.013,441.007 68.013,441.08L68.618,445.43L73.243,445.43L72.472,440.695C72.472,440.585 72.449,440.488 72.403,440.406C72.357,440.323 72.325,440.236 72.307,440.144C72.27,440.071 72.229,440.016 72.183,439.979C72.137,439.942 72.105,439.906 72.087,439.869C72.27,439.869 72.454,439.837 72.637,439.772C72.821,439.708 72.986,439.648 73.133,439.594C73.261,439.52 73.385,439.438 73.504,439.346C73.624,439.254 73.739,439.144 73.849,439.015C73.959,438.868 74.064,438.699 74.165,438.506C74.266,438.313 74.353,438.098 74.427,437.859C74.518,437.602 74.578,437.322 74.606,437.019C74.633,436.717 74.628,436.446 74.592,436.207C74.592,435.932 74.555,435.689 74.482,435.478C74.408,435.267 74.316,435.069 74.206,434.886C74.115,434.721 73.991,434.57 73.835,434.432C73.679,434.294 73.481,434.17 73.243,434.06C72.986,433.968 72.692,433.909 72.362,433.881C72.032,433.854 71.701,433.84 71.371,433.84L64.048,433.84L62.011,445.43L66.636,445.43ZM127.585,445.43L128.355,440.585C128.429,440.585 128.507,440.589 128.589,440.598C128.672,440.607 128.741,440.621 128.796,440.64C128.851,440.695 128.892,440.763 128.92,440.846C128.947,440.929 128.961,441.007 128.961,441.08L129.567,445.43L134.164,445.43L133.393,440.695C133.393,440.585 133.374,440.488 133.338,440.406C133.301,440.323 133.264,440.236 133.228,440.144C133.209,440.071 133.177,440.016 133.131,439.979C133.085,439.942 133.044,439.906 133.007,439.869C133.209,439.869 133.402,439.837 133.586,439.772C133.769,439.708 133.925,439.648 134.054,439.594C134.2,439.52 134.329,439.438 134.439,439.346C134.549,439.254 134.659,439.144 134.769,439.015C134.879,438.868 134.989,438.699 135.1,438.506C135.21,438.313 135.301,438.098 135.375,437.859C135.467,437.602 135.526,437.322 135.554,437.019C135.581,436.717 135.577,436.446 135.54,436.207C135.54,435.932 135.503,435.689 135.43,435.478C135.357,435.267 135.265,435.069 135.155,434.886C135.045,434.721 134.916,434.57 134.769,434.432C134.622,434.294 134.421,434.17 134.164,434.06C133.925,433.968 133.636,433.909 133.297,433.881C132.957,433.854 132.622,433.84 132.292,433.84L124.997,433.84L122.96,445.43L127.585,445.43ZM95.266,445.43L96.037,440.585C96.11,440.585 96.188,440.589 96.271,440.598C96.353,440.607 96.422,440.621 96.477,440.64C96.532,440.676 96.573,440.741 96.601,440.832C96.629,440.924 96.642,441.007 96.642,441.08L97.248,445.43L101.873,445.43L101.102,440.695C101.102,440.585 101.079,440.488 101.033,440.406C100.987,440.323 100.955,440.236 100.937,440.144C100.9,440.071 100.859,440.016 100.813,439.979C100.767,439.942 100.735,439.906 100.717,439.869C100.9,439.869 101.084,439.837 101.267,439.772C101.451,439.708 101.616,439.648 101.763,439.594C101.891,439.52 102.01,439.438 102.12,439.346C102.23,439.254 102.341,439.144 102.451,439.015C102.561,438.868 102.671,438.699 102.781,438.506C102.891,438.313 102.983,438.098 103.056,437.859C103.148,437.602 103.208,437.322 103.235,437.019C103.263,436.717 103.258,436.446 103.221,436.207C103.221,435.932 103.185,435.689 103.111,435.478C103.038,435.267 102.946,435.069 102.836,434.886C102.726,434.721 102.597,434.57 102.451,434.432C102.304,434.294 102.111,434.17 101.873,434.06C101.616,433.968 101.322,433.909 100.992,433.881C100.662,433.854 100.331,433.84 100.001,433.84L92.678,433.84L90.641,445.43L95.266,445.43ZM79.051,445.43L80.868,433.84L76.243,433.84L74.316,445.43L79.051,445.43ZM121.914,445.485L123.73,433.895L119.106,433.895L117.179,445.485L121.914,445.485ZM89.751,445.485L90.146,443.117L85.273,443.117L85.768,440.364L89.1,440.364L89.485,438.079L86.154,438.079L86.539,435.987L91.412,435.987L91.797,433.895L82.245,433.895L80.318,445.485L89.751,445.485ZM31.757,438.079L32.115,435.987L32.996,435.987C33.106,435.987 33.212,435.992 33.313,436.001C33.414,436.01 33.492,436.061 33.547,436.152C33.602,436.207 33.643,436.281 33.671,436.373C33.698,436.464 33.694,436.556 33.657,436.648L33.492,437.584C33.492,437.657 33.46,437.721 33.395,437.776C33.331,437.831 33.271,437.877 33.216,437.914C33.161,437.933 33.097,437.965 33.024,438.011C32.95,438.056 32.868,438.079 32.776,438.079L31.757,438.079ZM55.652,438.079L55.982,435.987L57.028,435.987C57.102,435.987 57.18,435.992 57.263,436.001C57.345,436.01 57.414,436.042 57.469,436.097C57.524,436.152 57.565,436.207 57.593,436.263C57.62,436.318 57.634,436.391 57.634,436.483L57.414,437.639C57.414,437.694 57.391,437.749 57.345,437.804C57.299,437.859 57.249,437.914 57.194,437.969C57.139,438.024 57.07,438.056 56.987,438.066C56.905,438.075 56.827,438.079 56.753,438.079L55.542,438.079L55.652,438.079ZM67.847,438.079L68.178,435.987L69.224,435.987C69.297,435.987 69.375,435.992 69.458,436.001C69.54,436.01 69.609,436.042 69.664,436.097C69.719,436.152 69.76,436.207 69.788,436.263C69.816,436.318 69.829,436.391 69.829,436.483L69.609,437.639C69.609,437.694 69.586,437.749 69.54,437.804C69.494,437.859 69.444,437.914 69.389,437.969C69.334,438.024 69.265,438.056 69.182,438.066C69.1,438.075 69.022,438.079 68.949,438.079L67.737,438.079L67.847,438.079ZM128.796,438.079L129.126,435.987L130.172,435.987C130.246,435.987 130.319,435.992 130.392,436.001C130.466,436.01 130.53,436.042 130.585,436.097C130.64,436.152 130.681,436.207 130.709,436.263C130.736,436.318 130.75,436.391 130.75,436.483L130.53,437.639C130.53,437.694 130.511,437.749 130.475,437.804C130.438,437.859 130.392,437.914 130.337,437.969C130.282,437.988 130.213,438.011 130.131,438.038C130.048,438.065 129.97,438.079 129.897,438.079L128.686,438.079L128.796,438.079ZM96.477,438.079L96.808,435.987L97.854,435.987C97.927,435.987 98.005,435.992 98.087,436.001C98.17,436.01 98.239,436.042 98.294,436.097C98.349,436.152 98.39,436.207 98.418,436.263C98.445,436.318 98.459,436.391 98.459,436.483L98.239,437.639C98.239,437.694 98.216,437.749 98.17,437.804C98.124,437.859 98.074,437.914 98.019,437.969C97.964,438.024 97.895,438.056 97.812,438.066C97.73,438.075 97.652,438.079 97.578,438.079L96.367,438.079L96.477,438.079ZM42.301,440.585L44.283,436.097L44.283,440.585C44.301,440.585 43.975,440.585 43.306,440.585L42.301,440.585ZM109.718,440.585L111.7,436.097L111.7,440.585C111.719,440.585 111.393,440.585 110.723,440.585L109.718,440.585ZM30.876,443.117L31.372,440.364L32.611,440.364C32.666,440.364 32.721,440.378 32.776,440.406C32.831,440.433 32.868,440.456 32.886,440.474C32.923,440.511 32.95,440.552 32.969,440.598C32.987,440.644 32.978,440.695 32.941,440.75L32.611,442.622C32.611,442.677 32.597,442.741 32.569,442.814C32.542,442.888 32.501,442.934 32.446,442.952C32.39,442.989 32.335,443.025 32.28,443.062C32.225,443.099 32.152,443.117 32.06,443.117L30.876,443.117Z" style="fill:rgb(37,44,46);fill-rule:nonzero;"/>
        </g>
    </g>
</svg>
