<svg xmlns="http://www.w3.org/2000/svg" xmlns:xlink="http://www.w3.org/1999/xlink" version="1.1" baseProfile="basic" id="Layer_1" x="0px" y="0px" xml:space="preserve" viewBox="63.57 1111.43 2871.59 775.79">
<g>
	<path fill-rule="evenodd" clip-rule="evenodd" fill="#C02555" d="M886.794,1485.091c-231.118,61.504-231.118,158.43-191.977,158.43   c13.048,0,37.279-14.913,76.418-46.598C810.375,1563.372,847.654,1533.548,886.794,1485.091L886.794,1485.091z M1388.168,1393.762   c0-16.775,7.453-31.686,22.366-46.595c14.91-14.913,29.823-22.366,44.732-22.366c7.456,0,14.909,1.862,18.638,5.591   s5.591,11.182,5.591,18.638c0,14.91-7.453,29.822-22.362,44.732c-14.913,16.775-27.961,24.231-42.87,24.231   c-7.457,0-14.913-1.865-20.504-7.456C1390.03,1406.809,1388.168,1401.218,1388.168,1393.762z M1591.327,1574.553l29.817,16.779   c35.417-26.095,72.693-48.462,87.605-61.51c57.778-52.188-13.047-33.551-37.275-16.771   C1649.105,1529.822,1619.286,1548.46,1591.327,1574.553L1591.327,1574.553z M327.643,1479.5l-35.413,39.142   c-9.322,11.181-16.775,20.503-22.369,31.685c-5.591,9.313-9.319,18.636-9.319,24.227c0,11.182,7.457,20.504,24.232,27.961   c16.774,9.315,35.412,13.047,57.778,13.047c39.141,0,76.416-9.322,113.695-27.96c37.275-18.639,55.917-35.41,55.917-52.188   c0-11.182-16.775-22.362-48.461-31.686C432.015,1492.547,387.283,1485.091,327.643,1479.5L327.643,1479.5z M843.926,1587.601   c-44.732,35.416-121.151,100.652-154.698,109.967c-29.823-3.726-55.916-44.731-67.098-74.551   c-96.919,67.096-339.223,119.282-413.776,59.639c-26.091-20.497-42.866-37.275-42.866-61.504c0-14.913,3.729-27.961,9.319-42.867   c5.59-14.912,16.774-31.689,29.822-48.462l42.866-54.051c-115.558-11.185-50.323-65.234,61.506-65.234   c39.142-39.142,78.282-78.283,104.377-95.059c26.094-16.771,48.459-24.227,68.963-24.227c1.862,0,3.729,0,5.591,1.862   c1.862,1.865,1.862,3.728,1.862,5.594c0,1.862,0,3.725-1.862,7.453c-1.862,3.727-3.729,5.593-7.456,9.317l-68.96,76.421   c65.231-9.319,121.146-24.232,162.154-42.87c41.004-18.638,57.779-39.142,57.779-57.777c0-11.186-7.456-20.504-22.366-26.095   c-14.913-7.457-33.551-9.319-57.783-9.319c-33.545,0-72.687,3.729-115.557,13.048c-42.869,7.453-87.601,20.5-137.923,37.275   c16.774,5.593,18.637,14.911,3.728,27.959L200.9,1360.214c-11.185,1.862-74.554,33.548-61.507-13.047   c11.181-41.006,57.778-96.92,82.007-111.832c11.185-7.457,26.095-14.91,46.598-20.501   c100.648-29.821,294.487-78.281,400.726-16.774c63.373,54.051,11.185,149.107-57.778,173.336   c-61.508,20.504-136.061,46.598-240.437,57.779l-22.366,20.502c57.778,11.182,335.494,24.229,225.527,152.837   c-5.594,5.591-11.185,13.047-16.775,18.638c20.5-9.322,42.866-22.37,63.37-44.732c3.729-7.457,7.456-14.913,13.047-22.369   c14.911-20.502,33.55-40.999,59.644-57.778c57.779-41.004,128.604-74.55,201.296-83.872c9.318-1.862,33.547,1.866,42.866,11.185   c7.456,9.319,11.185,13.048,14.913,20.504c1.862,1.862,0,7.451-1.866,9.317c-5.591,3.729-18.638,11.182-26.094,14.909   c31.685,16.776,33.551,35.413-14.91,89.467c-78.281,106.236,14.91,91.33,93.193,13.047v-1.866   c20.502-20.502,39.14-39.14,54.049-55.911c14.913-16.779,20.504-24.232,33.551-41.008c-22.366-3.729-59.642,7.457-68.964,0   c-3.724-5.591,11.185-27.955,24.232-42.868c33.551-44.732,57.779-46.595,109.966-48.46c1.862-3.729,9.319-9.319,11.182-14.91   c27.96-63.372,149.108-82.01,63.374,13.047c13.047,0,37.273,7.453,44.73,3.729c1.865-1.865-5.591,27.957-11.182,35.413   c-11.183,20.501-31.687,46.594-44.734,52.188c-5.59,3.725-29.819,5.591-39.142,5.591c-7.453,0-13.047-1.866-16.771-1.866   c-3.729,0-7.457,1.866-11.185,1.866c-22.366,26.091-39.141,52.186-52.188,80.144c-13.047,27.96-20.5,54.055-20.5,74.559   c0,7.449,1.862,13.047,5.591,16.771c3.728,3.726,9.318,5.591,16.775,5.591c11.181,0,27.955-7.456,52.187-22.362   c20.501-13.047,48.461-33.551,82.008-61.512c3.729-7.456,7.457-16.771,11.186-26.092c35.411-96.92,208.748-162.155,128.603-39.143   c-16.773,26.095-44.73,48.463-78.281,74.557c-1.862,5.591-1.862,9.316-3.729,14.906c0,3.732,0,7.457-1.862,11.188   c-9.319,26.095,9.318,41.001,39.142,35.41c13.047-1.866,31.685-7.456,54.049-22.362c18.639-11.188,37.279-24.236,57.78-42.874   c5.594-20.503,14.913-42.864,26.094-65.234c20.504-39.138,55.912-82.006,106.242-137.923   c46.589-52.188,184.518-173.336,219.933-171.474c5.591,0,9.315,1.866,13.048,5.591c3.725,3.728,5.591,7.456,5.591,13.046   c0,16.776-39.143,61.508-93.195,126.742c-54.048,65.236-141.651,139.79-231.114,231.118v26.095   c48.455-48.464,240.437-203.161,264.665-182.657c108.1,95.053-87.599,169.609-113.692,190.113l-7.457,5.591   c41.001,80.141,119.284,5.591,190.109-54.055l7.456,29.826c-46.598,46.591-83.872,78.276-113.691,96.921   c-41.008,26.093-80.149,42.865-117.423,7.448c-14.913-14.904-41.008-40.999-57.78-76.416   c-24.229,11.188-24.229,18.638-33.549,35.417c-29.822,59.644-68.964,52.188-68.964-39.142   c-26.095,27.96-48.461,48.457-68.959,63.37c-26.095,18.637-52.189,27.959-72.692,27.959c-22.366,0-41.003-9.322-54.05-26.093   c-13.047-16.779-18.638-41.008-18.638-70.827c-33.551,31.686-65.236,55.914-93.196,74.552   c-35.412,22.368-65.231,35.415-87.598,35.415c-16.775,0-27.958-3.731-37.277-13.047c-9.318-7.457-13.047-20.502-13.047-35.416   c0-13.047,1.866-26.094,7.456-41c5.591-14.913,13.048-31.692,22.365-48.464C991.172,1641.655,726.506,1844.81,843.926,1587.601   L843.926,1587.601z"/>
	<rect x="61.111" y="1108.593" fill-rule="evenodd" clip-rule="evenodd" fill="none" width="2877.777" height="782.814"/>
	<path fill-rule="evenodd" clip-rule="evenodd" fill="#FFDE00" d="M525.211,1114.187c-42.87,41.004-191.979,259.071-329.905,430.549   l-20.499,24.227l-3.729,20.504c0,3.725-175.201,11.182-78.282,229.249c-11.182,18.645-20.504,18.645-22.366,67.102   c3.729,1.866,7.457,1.866,11.185,0c1.863-29.819,9.319-52.188,46.595-80.148c33.551-27.952,132.332-102.511,156.564-193.839   c1.862-9.315,5.591-16.772,9.318-26.095l305.669-423.087C599.761,1162.647,560.623,1097.411,525.211,1114.187z"/>
	<rect x="61.111" y="1108.593" fill-rule="evenodd" clip-rule="evenodd" fill="none" width="2877.777" height="782.814"/>
	<path fill-rule="evenodd" clip-rule="evenodd" fill="#E7B000" d="M556.895,1147.734c-41.006,50.325-154.698,221.799-292.625,393.27   l-24.228,1.866c39.141,20.502,31.684,33.549,44.731,67.1c1.862,3.725,5.591-18.638,9.318-24.235l305.669-423.087   c0,0-14.909-26.095-35.413-41.008C555.028,1114.187,575.532,1144.006,556.895,1147.734L556.895,1147.734z"/>
	<path fill-rule="evenodd" clip-rule="evenodd" fill="#743C12" d="M581.123,1166.372   c-41.004,50.324-130.467,199.433-268.394,372.772c-1.862-7.456-3.729-14.913-1.862-24.235   c-24.231,16.779-41.007,55.919-26.094,96.92c1.862-9.315,9.318-20.497,9.318-26.095l305.669-423.087   c-1.862-1.866-3.725-18.642-18.638-29.823C571.804,1125.368,592.308,1157.053,581.123,1166.372z"/>
	<path fill-rule="evenodd" clip-rule="evenodd" fill="#743C12" d="M197.172,1652.836c-7.456,50.321-41.003,68.96-48.46,76.416   c-1.865,1.866,0,33.551-3.728,63.37c29.822-31.686,184.521-169.605,78.282-223.66   C269.86,1606.238,210.219,1649.111,197.172,1652.836z"/>
	<rect x="61.111" y="1108.593" fill-rule="evenodd" clip-rule="evenodd" fill="none" width="2877.777" height="782.814"/>
	<path fill-rule="evenodd" clip-rule="evenodd" fill="#583319" d="M158.031,1705.023c65.235-63.368,1.862-117.423-42.869-76.416   C48.064,1690.112,105.843,1757.212,158.031,1705.023z"/>
	<rect x="61.111" y="1108.593" fill-rule="evenodd" clip-rule="evenodd" fill="none" width="2877.777" height="782.814"/>
	<path fill-rule="evenodd" clip-rule="evenodd" fill="#C02555" d="M2279.087,1427.313   c-100.651,26.093-156.564,61.506-193.839,78.281c-89.463,44.732-98.785,195.705,40.999,63.368   C2169.121,1531.688,2228.766,1481.362,2279.087,1427.313z M2588.483,1386.305c-1.866-16.771,7.456-31.685,22.369-46.595   c14.906-16.775,67.095-35.411,70.827,3.729c1.859,13.048-7.457,27.957-20.504,44.732c-14.913,16.775-27.96,24.229-42.873,24.229   c-7.45,0-14.906-1.862-20.504-7.453C2590.35,1399.353,2588.483,1393.762,2588.483,1386.305L2588.483,1386.305z M2223.168,1557.781   c-14.906,13.047-165.88,137.92-190.108,134.195c-50.321-5.589-104.376-104.376-78.281-152.832   c9.315-16.778,20.504-41.007,41.007-61.511c65.228-67.097,182.65-121.147,285.161-143.514c11.188-1.866,22.369-1.866,37.282-1.866   c26.093,7.456,50.321,27.96,48.456,48.461c0,3.728-1.859,5.59-3.726,7.456c-1.865,1.862-7.456,3.729-13.047,7.457l-16.777,9.318   c18.644,5.591,26.093,16.775,27.959,31.686c3.731,26.093-27.959,57.777-52.188,87.6c-46.598,55.912-41,108.102,27.961,74.55   c44.73-20.497,109.966-85.73,152.832-117.419c57.778-61.506,156.563-78.281,98.784,14.909   c-16.771,26.095-48.462,48.464-82.007,74.557c0,1.859-7.456,14.906-7.456,16.772c0,29.826,14.913,46.598,42.866,42.873   c26.095-3.731,48.463-16.779,67.101-33.551c20.503-18.639,39.142-39.142,57.779-63.375c-5.591,0-14.913,0-16.772-5.591   c-20.504-31.686,20.497-80.143,29.819-89.463c1.866-1.862,61.51-59.643,76.416-31.686c3.731,5.591-1.866,22.366-5.591,27.961   c24.229-1.866,44.732-7.457,70.826-9.323c11.18-1.862,42.872-7.453,46.597-1.862c29.819,31.684,27.96,59.644-3.725,87.601   c-29.826,26.095-48.462,50.321-57.784,67.1c-18.639,31.686-3.726,55.914,33.549,42.867c22.369-7.457,52.188-33.551,87.605-65.236   l7.457,26.095c-44.739,48.464-87.605,83.874-117.424,104.378c-78.283,50.32-117.423-26.095-85.738-91.331   c11.18-24.229,31.684-52.187,63.369-82.006c-18.638,3.725-35.41,7.449-48.457,9.315c-13.046,1.865-24.234,3.731-35.415,5.591   c-11.182,16.778-16.772,27.958-29.819,42.871c-39.142,42.866-76.424,85.733-104.376,106.236   c-26.095,18.637-54.055,31.684-76.417,31.684c-57.785,1.866-72.691-59.637-70.825-102.51c0-5.591,1.858-11.182,1.858-14.906   c-67.095,65.235-178.927,134.195-197.563,132.329C2141.16,1710.614,2211.987,1593.19,2223.168,1557.781L2223.168,1557.781z"/>
	<path fill-rule="evenodd" clip-rule="evenodd" fill="#C02555" d="M534.528,1255.838c-29.821,1.862-61.506,5.591-95.057,11.182   c-13.048,1.866-26.094,5.594-39.142,7.457c-31.684,7.456-63.369,16.775-98.782,27.956c16.775,5.593,18.638,14.912,3.729,27.959   l-100.647,26.095c-11.186,1.862-74.554,33.547-61.508-13.048c11.182-41.006,57.779-96.919,82.008-111.832   c11.185-7.453,26.095-14.91,46.597-20.501c52.188-14.912,128.604-35.412,205.024-42.868c39.139-3.728,78.278-3.728,115.558,1.863   L534.528,1255.838z"/>
</g>
</svg>