<?xml version="1.0" encoding="UTF-8" standalone="no"?><!DOCTYPE svg PUBLIC "-//W3C//DTD SVG 1.1//EN" "http://www.w3.org/Graphics/SVG/1.1/DTD/svg11.dtd"><svg width="100%" height="100%" viewBox="0 0 36 32" version="1.1" xmlns="http://www.w3.org/2000/svg" xmlns:xlink="http://www.w3.org/1999/xlink" xml:space="preserve" xmlns:serif="http://www.serif.com/" style="fill-rule:evenodd;clip-rule:evenodd;stroke-linejoin:round;stroke-miterlimit:2;"><g><clipPath id="_clip1"><rect x="0" y="0" width="120" height="31.616"/></clipPath><g clip-path="url(#_clip1)"><path d="M14.052,0l-7.026,7.025l-7.025,-7.025l14.052,0Z" style="fill:#a8c7e5;fill-rule:nonzero;"/><path d="M14.052,14.052l-7.026,-7.026l7.026,-7.025l0,14.052Z" style="fill:#8bb4da;fill-rule:nonzero;"/><path d="M14.052,14.052l7.025,-7.026l-7.025,-7.025l0,14.052Z" style="fill:#65a0cc;fill-rule:nonzero;"/><path d="M28.104,14.052l-7.026,-7.026l-7.025,7.026l14.052,0Z" style="fill:#4291c4;fill-rule:nonzero;"/><path d="M28.104,14.052l0,-7.026l-7.026,0l7.026,7.026Z" style="fill:#65a0cc;fill-rule:nonzero;"/><path d="M21.077,7.025l7.026,0l0,-7.025l-7.026,7.025Z" style="fill:#8bb4da;fill-rule:nonzero;"/><path d="M28.104,0l0,7.025l7.025,0l-7.025,-7.025Z" style="fill:#a8c7e5;fill-rule:nonzero;"/><path d="M14.052,14.052l7.025,7.025l7.026,-7.025l-14.052,0Z" style="fill:#288ac1;fill-rule:nonzero;"/><path d="M14.052,28.103l7.025,-7.026l-7.025,-7.025l0,14.052Z" style="fill:#4291c4;fill-rule:nonzero;"/><path d="M7.025,28.103l7.026,0l0,-7.026l-7.026,7.026Z" style="fill:#8bb4da;fill-rule:nonzero;"/><path d="M10.539,28.103l-3.513,0l0,3.512l3.513,-3.512Z" style="fill:#a8c7e5;fill-rule:nonzero;"/></g></g></svg>