<?xml version="1.0" encoding="UTF-8" standalone="no"?><!DOCTYPE svg PUBLIC "-//W3C//DTD SVG 1.1//EN" "http://www.w3.org/Graphics/SVG/1.1/DTD/svg11.dtd"><svg width="100%" height="100%" viewBox="0 0 16 16" version="1.1" xmlns="http://www.w3.org/2000/svg" xmlns:xlink="http://www.w3.org/1999/xlink" xml:space="preserve" xmlns:serif="http://www.serif.com/" style="fill-rule:evenodd;clip-rule:evenodd;stroke-linejoin:round;stroke-miterlimit:2;"><g><path d="M7.075,6.075c0.9,-0.4 2,0.1 2.3,1c0.4,0.9 -0.1,2 -1,2.3c-0.9,0.4 -2,-0.1 -2.3,-1c-0.3,-0.9 0.1,-1.9 1,-2.3" style="fill:#455cc7;fill-rule:nonzero;"/><path d="M9.075,15.375c0,0.1 0.1,0.1 0.2,0l0.2,-0.9c0,-0.1 0.1,-0.1 0.1,0l0.6,0.8c0,0.1 0.1,0 0.2,-0.1l0,-1c0,0 0,-0.1 0.1,-0.1l0.1,0l0.7,0.7c0.1,0.1 0.2,0 0.1,-0.1l-0.1,-1c0,-0.1 0.1,-0.1 0.1,-0.1l0.8,0.5c0.07,0 0.1,-0.03 0.1,-0.1l-0.3,-1.1l-2.4,-2.7l-0.1,0c-0.1,0.1 -0.3,0.2 -0.4,0.2c-0.2,0.1 -0.3,0.1 -0.5,0.1c0,0 -0.1,0 -0.1,0.1l0.2,3.6l0.4,1.2Z" style="fill:#455cc7;fill-rule:nonzero;"/><path d="M6.375,0.075c0,-0.1 -0.1,-0.1 -0.2,0l-0.1,0.9c0,0.1 -0.1,0.1 -0.1,0l-0.6,-0.7c0,-0.1 -0.1,-0 -0.1,0.1l0,1.1l-0.1,0l-0.8,-0.8c-0.1,-0.1 -0.2,0 -0.1,0.1l0.1,1c0,0.1 -0.1,0.1 -0.1,0.1l-0.9,-0.6c-0.07,0 -0.1,0.03 -0.1,0.1l0.3,1.1l2.4,2.7l0.1,0c0.1,-0.1 0.3,-0.2 0.4,-0.3c0.2,-0.1 0.3,-0.1 0.5,-0.1c0,0 0.1,0 0.1,-0.1l-0.2,-3.6l-0.5,-1Z" style="fill:#455cc7;fill-rule:nonzero;"/><path d="M15.475,6.375c0.1,0 0,-0.1 0,-0.2l-1,-0.2c-0.1,0 -0.1,-0.1 0,-0.1l0.8,-0.6c0.1,-0.1 0,-0.1 0,-0.1l-1,0c0,0 -0.1,0 -0.1,-0.1l0,-0.1l0.7,-0.7c0.1,-0.1 0,-0.1 -0.1,-0.1l-1,0.1c-0.1,0 -0.1,-0.1 -0.1,-0.1l0.5,-0.8c0,-0.07 -0.03,-0.1 -0.1,-0.1l-1.1,0.3l-2.6,2.5l0,0.1c0.1,0.1 0.2,0.3 0.3,0.4c0.1,0.2 0.1,0.3 0.1,0.5c0,0 0,0.1 0.1,0.1l3.6,-0.2l1,-0.6Z" style="fill:#455cc7;fill-rule:nonzero;"/><path d="M0.075,9.075c-0.1,0 -0.1,0.1 0,0.2l0.9,0.2c0.1,0 0.1,0.1 0,0.1l-0.8,0.6c-0.1,0 0,0.1 0.1,0.1l1,0c0,0 0.1,0 0.1,0.1l0,0.1l-0.7,0.7c-0.1,0.1 0,0.1 0.1,0.1l1,-0.1c0.1,0 0.1,0.1 0.1,0.1l-0.5,0.8c0,0.07 0.03,0.1 0.1,0.1l1.1,-0.3l2.7,-2.4l0,-0.1c-0.1,-0.1 -0.2,-0.3 -0.3,-0.4c-0.1,-0.2 -0.1,-0.3 -0.1,-0.5c0,0 0,-0.1 -0.1,-0.1l-3.6,0.2l-1.1,0.5Z" style="fill:#455cc7;fill-rule:nonzero;"/><path d="M14.175,12.175c0.1,0 0.1,-0.1 0.1,-0.1l-0.5,-0.8c0,-0.07 0.03,-0.1 0.1,-0.1l0.9,0.1c0.1,0 0.1,-0.1 0.1,-0.1l-0.7,-0.7l0,-0.1c0,0 0,-0.1 0.1,-0.1l1,0c0.1,0 0.1,-0.1 0,-0.1l-0.8,-0.6c-0.1,0 0,-0.1 0,-0.1l0.9,-0.2c0.1,0 0.1,-0.1 0,-0.2l-1,-0.5l-3.6,-0.2c0,0 -0.1,0 -0.1,0.1c0,0.2 -0.1,0.3 -0.1,0.5c-0.1,0.2 -0.2,0.3 -0.3,0.4l0,0.1l2.7,2.4l1.2,0.3Z" style="fill:#455cc7;fill-rule:nonzero;"/><path d="M1.375,3.275c-0.1,0 -0.1,0.1 -0.1,0.1l0.5,0.8c0,0.07 -0.03,0.1 -0.1,0.1l-0.9,-0.1c-0.1,0 -0.1,0.1 -0.1,0.1l0.7,0.7l0,0.1c0,0 0,0.1 -0.1,0l-1,0c-0.1,0 -0.1,0.1 0,0.2l0.8,0.6c0.1,0 0,0.1 0,0.1l-0.9,0.2c-0.1,0 -0.1,0.1 0,0.2l1,0.5l3.6,0.2c0,0 0.1,0 0.1,-0.1c0,-0.2 0.1,-0.3 0.1,-0.5c0.1,-0.2 0.2,-0.3 0.3,-0.4l0,-0.1l-2.7,-2.4l-1.2,-0.3Z" style="fill:#455cc7;fill-rule:nonzero;"/><path d="M12.275,1.375c0,-0.1 -0.1,-0.1 -0.1,-0.1l-0.8,0.5c-0.07,0 -0.1,-0.03 -0.1,-0.1l0.1,-0.9c0,-0.1 -0.1,-0.1 -0.1,-0.1l-0.7,0.7l-0.1,0c0,0 -0.1,0 0,-0.1l0,-1c0,-0.1 -0.1,-0.1 -0.2,0l-0.6,0.8c0,0.1 -0.1,0 -0.1,0l-0.2,-1c0,-0.1 -0.1,-0.1 -0.2,-0l-0.5,1l-0.3,3.6c0,0 0,0.1 0.1,0.1c0.2,0 0.3,0.1 0.5,0.1c0.2,0.1 0.3,0.2 0.4,0.3l0.1,0l2.4,-2.7l0.4,-1.1Z" style="fill:#455cc7;fill-rule:nonzero;"/><path d="M3.275,14.075c0,0.1 0.1,0.1 0.1,0.1l0.8,-0.5c0.07,0 0.1,0.03 0.1,0.1l-0.1,0.9c0,0.1 0.1,0.1 0.1,0.1l0.7,-0.7l0.1,0c0,0 0.1,0 0.1,0.1l0,1c0,0.1 0.1,0.1 0.2,0l0.6,-0.8c0,-0.1 0.1,0 0.2,0l0.2,1c0,0.1 0.1,0.1 0.2,0l0.5,-1l0.2,-3.6c0,0 0,-0.1 -0.1,-0.1c-0.2,0 -0.3,-0.1 -0.5,-0.1c-0.2,-0.1 -0.3,-0.2 -0.4,-0.3l-0.1,0l-2.4,2.7l-0.5,1.1Z" style="fill:#455cc7;fill-rule:nonzero;"/></g></svg>