<?xml version="1.0" encoding="UTF-8" standalone="no"?>
<!DOCTYPE svg PUBLIC "-//W3C//DTD SVG 1.1//EN" "http://www.w3.org/Graphics/SVG/1.1/DTD/svg11.dtd">
<svg width="100%" height="100%" viewBox="0 0 734 165" version="1.1" xmlns="http://www.w3.org/2000/svg" xmlns:xlink="http://www.w3.org/1999/xlink" xml:space="preserve" xmlns:serif="http://www.serif.com/" style="fill-rule:evenodd;clip-rule:evenodd;stroke-linejoin:round;stroke-miterlimit:2;">
    <g transform="matrix(4.166667,0,0,4.166667,0,0)">
        <g id="BEOND_-_FULL_BRAND_LOCKUP_-_BLACK" transform="matrix(1,0,0,1,-137.06,-31.19)">
            <path d="M137.06,63.49L137.06,39.82L158.94,39.82C160.81,39.82 162.16,40.19 162.99,40.92C163.83,41.65 164.24,42.82 164.24,44.41L164.24,47.3C164.24,48.43 163.89,49.34 163.19,50.02C162.49,50.7 161.48,51.12 160.17,51.29C161.53,51.47 162.58,51.95 163.32,52.75C164.06,53.54 164.43,54.57 164.43,55.84L164.43,58.86C164.43,60.43 163.86,61.59 162.71,62.35C161.56,63.11 159.81,63.49 157.47,63.49L137.06,63.49ZM156.63,43.86L142.48,43.86L142.48,49.31L156.63,49.31C157.59,49.31 158.25,49.18 158.61,48.93C158.98,48.68 159.16,48.24 159.16,47.61L159.16,45.57C159.16,44.96 158.98,44.52 158.61,44.26C158.24,44 157.58,43.87 156.63,43.87L156.63,43.86ZM156.63,53.21L142.48,53.21L142.48,59.23L156.63,59.23C157.67,59.23 158.38,59.07 158.75,58.76C159.12,58.45 159.3,57.89 159.3,57.1L159.3,55.31C159.3,54.52 159.12,53.97 158.75,53.66C158.38,53.35 157.68,53.2 156.63,53.2L156.63,53.21ZM247.81,63.49L247.81,39.82L251.57,39.82L270.38,55.84L270.38,39.82L275.33,39.82L275.33,63.49L271.57,63.49L252.76,47.38L252.76,63.49L247.81,63.49ZM174.89,63.5L174.89,39.82L201.03,39.82L201.03,44.05L180.4,44.05L180.4,49.14L193.24,49.14L193.24,53.17L180.4,53.17L180.4,59.04L201.25,59.04L201.25,63.5L174.89,63.5ZM284.58,63.49L284.58,39.82L299.49,39.82C303.83,39.82 307.18,40.84 309.51,42.87C311.85,44.9 313.01,47.78 313.01,51.51C313.01,53.72 312.55,55.71 311.64,57.48C310.73,59.25 309.44,60.64 307.79,61.66C306.76,62.3 305.48,62.77 303.95,63.06C302.42,63.35 300.46,63.5 298.07,63.5L284.57,63.5L284.58,63.49ZM290.08,59.03L296.89,59.03C300.68,59.03 303.37,58.44 304.95,57.26C306.53,56.08 307.32,54.13 307.32,51.41C307.32,48.99 306.66,47.36 305.35,46.11C304.04,44.86 302.09,44.24 299.53,44.24L290.08,44.24L290.08,59.03ZM224.99,31.19C216.84,31.19 210.21,37.51 210.21,45.27L210.21,56.53C210.21,64.29 216.84,70.61 224.99,70.61C233.14,70.61 239.77,64.29 239.77,56.53L239.77,45.27C239.77,37.51 233.14,31.19 224.99,31.19ZM234.65,45.55L234.65,56.26C234.65,61.24 230.32,65.3 224.99,65.3C219.66,65.3 215.33,61.25 215.33,56.26L215.33,45.55C215.33,40.57 219.66,36.51 224.99,36.51C230.32,36.51 234.65,40.56 234.65,45.55Z" style="fill:rgb(209,145,105);fill-rule:nonzero;"/>
        </g>
    </g>
</svg>
