<?xml version="1.0"?>
<svg xmlns="http://www.w3.org/2000/svg" width="304.69655" height="81.924736" viewBox="0 0 30.469655 8.1924736">
 <g transform="translate(-93.754617,-145.36075)">
  <g style="fill:#3DAF29" transform="translate(0.13229041,-0.13228799)">
   <path d="m 98.649399,145.62533 c 0.390525,0 0.743303,0.0254 1.057628,0.0773 0.311503,0.0494 0.578203,0.14323 0.793753,0.27622 0.21837,0.13441 0.38523,0.32033 0.50376,0.55669 0.11571,0.23777 0.17357,0.54151 0.17357,0.91087 0,0.21837 -0.031,0.43074 -0.097,0.63888 -0.0649,0.20673 -0.16334,0.39194 -0.28893,0.55668 -0.12806,0.16334 -0.28046,0.2981 -0.45826,0.40852 -0.17815,0.10901 -0.384172,0.1785 -0.615947,0.20743 v 0.0212 c 0.369357,0.10089 0.654047,0.29633 0.854427,0.58314 0.20073,0.28646 0.30057,0.61948 0.30057,0.99695 0,0.42228 -0.0829,0.79305 -0.24624,1.11337 -0.16298,0.31891 -0.38418,0.5842 -0.659343,0.79445 -0.27552,0.21167 -0.591609,0.37218 -0.946503,0.48013 -0.357011,0.10901 -0.732367,0.16334 -1.124656,0.16334 h -4.141611 l 1.624189,-7.7851 z m -0.829028,6.45336 c 0.394406,0 0.715434,-0.10477 0.966964,-0.31432 0.248003,-0.21061 0.373239,-0.52352 0.373239,-0.93768 0,-0.20462 -0.04057,-0.36372 -0.125236,-0.48014 -0.0822,-0.115 -0.188031,-0.2039 -0.320322,-0.2674 -0.131234,-0.0614 -0.275873,-0.0991 -0.43427,-0.1136 -0.161925,-0.0138 -0.3175,-0.0215 -0.470605,-0.0215 H 96.13233 l -0.458964,2.13465 z m 0.493536,-3.30094 c 0.312209,0 0.582084,-0.0857 0.811742,-0.25647 0.2286,-0.17074 0.342194,-0.42721 0.342194,-0.76835 0,-0.30515 -0.08043,-0.51399 -0.244475,-0.62759 -0.163336,-0.11042 -0.383116,-0.16827 -0.658636,-0.16827 H 96.75463 l -0.381,1.82068 z" />
   <path d="m 103.7929,147.77647 -1.19768,5.63421 h -1.54728 l 1.18639,-5.63421 z" />
   <path d="m 106.0281,147.77647 -0.17427,0.78952 h 0.0212 c 0.50236,-0.62548 1.15994,-0.93839 1.97415,-0.93839 1.09678,0 1.64606,0.50447 1.64606,1.51377 0,0.0586 -0.008,0.13229 -0.0226,0.2226 -0.0145,0.0917 -0.031,0.1838 -0.049,0.27834 -0.018,0.0938 -0.0371,0.18415 -0.055,0.26741 -0.0173,0.0818 -0.0324,0.15099 -0.0374,0.19967 l -0.69639,3.30129 h -1.54693 l 0.68475,-3.29988 c 0.0123,-0.0854 0.0332,-0.20108 0.06,-0.34713 0.0261,-0.14464 0.0381,-0.25859 0.0381,-0.33761 0,-0.16687 -0.0794,-0.3048 -0.23354,-0.41416 -0.15734,-0.10901 -0.32526,-0.16334 -0.508,-0.16334 -0.23213,0 -0.43745,0.0448 -0.61525,0.13582 -0.1785,0.0903 -0.33161,0.20885 -0.45825,0.35348 -0.12806,0.14676 -0.23213,0.31221 -0.31539,0.50165 -0.0864,0.18874 -0.14887,0.3803 -0.18979,0.57644 l -0.63288,2.99473 h -1.5367 l 1.16522,-5.63421 z" />
   <path d="m 113.63349,147.77647 -0.2413,1.03223 h -1.10102 l -0.57714,2.80352 -0.0317,0.15699 -0.0131,0.10407 c 0,0.10266 0.0176,0.18133 0.0508,0.23636 l 0.12418,0.12418 0.16933,0.0487 0.18133,0.006 c 0.18733,0 0.37218,-0.0109 0.55527,-0.0325 l -0.26317,1.18604 c -0.1591,0.0155 -0.3182,0.0275 -0.47872,0.0392 -0.16051,0.0102 -0.32314,0.0166 -0.4893,0.0166 -0.18344,0 -0.36124,-0.0166 -0.54081,-0.0497 -0.17921,-0.0317 -0.33761,-0.0903 -0.47978,-0.17357 -0.1397,-0.084 -0.2547,-0.19861 -0.3376,-0.34325 -0.084,-0.14534 -0.12312,-0.33478 -0.1143,-0.56762 0,-0.0723 0.007,-0.15451 0.0215,-0.24518 0.0145,-0.0903 0.0321,-0.18697 0.0557,-0.28822 l 0.63042,-3.02189 h -1.01283 l 0.23919,-1.03223 h 0.99271 l 0.34784,-1.70886 h 1.54834 l -0.34854,1.70886 z" />
   <path d="m 114.87719,151.06651 v 0.0868 0.14111 c 0,0.32738 0.10266,0.59197 0.30374,0.79517 0.20532,0.20425 0.51682,0.3048 0.93804,0.3048 0.15487,0 0.28928,-0.0222 0.40922,-0.0706 0.11994,-0.0466 0.22578,-0.10795 0.31609,-0.17956 0.0917,-0.0709 0.17039,-0.15664 0.2413,-0.25012 0.0681,-0.0938 0.13088,-0.18486 0.19015,-0.27235 h 1.54693 c -0.12277,0.31962 -0.26953,0.60008 -0.43568,0.83997 -0.16652,0.23988 -0.36654,0.44238 -0.60008,0.60572 -0.23142,0.16333 -0.50377,0.28575 -0.81174,0.36583 -0.31009,0.0804 -0.66534,0.11994 -1.07421,0.11994 -0.37818,0 -0.72143,-0.0504 -1.0287,-0.15169 -0.3108,-0.10337 -0.57326,-0.25824 -0.78881,-0.46355 -0.21907,-0.20814 -0.38735,-0.46461 -0.50694,-0.76906 -0.12136,-0.30374 -0.17992,-0.66005 -0.17992,-1.06715 0,-0.44944 0.0723,-0.88336 0.21767,-1.30246 0.14534,-0.41663 0.34925,-0.78528 0.61453,-1.10984 0.2667,-0.32314 0.58985,-0.58173 0.97508,-0.77399 0.38453,-0.19226 0.81915,-0.28928 1.29611,-0.28928 0.39546,0 0.75106,0.0512 1.07526,0.15311 0.32315,0.10195 0.59902,0.25682 0.82903,0.46355 0.23001,0.20602 0.40499,0.4639 0.53411,0.77329 0.12664,0.30868 0.18944,0.66463 0.18944,1.07068 0,0.27552 -0.0296,0.56832 -0.0875,0.88124 h -4.1529 z m 2.71886,-1.50495 c -0.0247,-0.14252 -0.0737,-0.27058 -0.14605,-0.38559 -0.0751,-0.11641 -0.17851,-0.21096 -0.3168,-0.27834 -0.13864,-0.0699 -0.31926,-0.10477 -0.54504,-0.10477 -0.21801,0 -0.41134,0.0335 -0.57679,0.0984 -0.16686,0.0656 -0.31362,0.15311 -0.43674,0.26176 -0.12347,0.10972 -0.22683,0.23495 -0.3108,0.38171 -0.0843,0.14393 -0.15522,0.29704 -0.21307,0.45614 h 2.58233 c 0,-0.14534 -0.0116,-0.28787 -0.037,-0.42933" />
   <path d="m 121.7467,147.77647 -0.22931,1.01212 0.0219,0.0215 c 0.17497,-0.393 0.43885,-0.69039 0.79092,-0.89041 0.35067,-0.19967 0.73519,-0.30092 1.14865,-0.30092 0.15981,0 0.32032,0.0116 0.48083,0.0349 l -0.3175,1.50566 c -0.1083,-0.0222 -0.21766,-0.0434 -0.32526,-0.0656 -0.10936,-0.0205 -0.21766,-0.0328 -0.32737,-0.0328 -0.2974,0 -0.55034,0.0508 -0.75707,0.15346 -0.20884,0.10195 -0.38311,0.23989 -0.52422,0.41416 -0.14147,0.17357 -0.25365,0.37218 -0.33691,0.59338 -0.0836,0.22225 -0.15169,0.4519 -0.20002,0.6925 l -0.52423,2.49625 h -1.53917 l 1.1684,-5.63421 z" />
   <path d="m 102.40939,146.90208 0.28328,-1.2767 h 1.55787 l -0.28258,1.2767 z" />
  </g>
 </g>
</svg>