<svg role="img" viewBox="0 0 24 24" xmlns="http://www.w3.org/2000/svg"><title>British Airways</title><path d="M22.348 11.207c-.677.675-2.146 1.254-2.868 1.526-.987.371-1.425.502-1.977.683-.625.202-1.876.582-1.876.582 2.591.774 4.415 1.008 4.415 1.008s.851-.263 2.198-.985c.73-.371 1.089-.621 1.345-.861.095-.086.339-.34.4-.667.004-.024.015-.085.015-.147 0 0 0-.043-.003-.08-.001-.044-.01-.073-.01-.073s-.014-.077-.033-.132a.87.87 0 0 0-.238-.33c-.09-.073-.246-.256-.811-.455-.192-.067-.503-.129-.503-.129z" fill="url(#a)"/><path d="M24 12.328s-.003-.072-.022-.133a.527.527 0 0 0-.074-.161 1.396 1.396 0 0 0-.191-.226 1.857 1.857 0 0 0-.227-.177c-.354-.232-.81-.362-1.213-.418-.625-.083-1.343-.068-1.411-.07-.231-.004-1.722.009-2.106.016-1.702.034-3.785.039-4.33.039-5.635.025-8.087-.096-10.816-.644-2.322-.461-3.61-.9-3.61-.9 2.047-.07 13.998-.567 16.178-.626 1.428-.04 2.44-.049 3.252-.002a10.9 10.9 0 0 1 1.289.14 6.22 6.22 0 0 1 1.062.288c.485.18.894.44 1.096.707 0 0 .06.062.141.17.091.126.196.283.232.34.296.448.436.73.484.829.054.103.1.21.145.315.044.104.062.167.077.21.032.11.04.211.04.233z" fill="#ce210f"/><defs><linearGradient id="a" x1="247.692" y1="6.093" x2="234.438" y2="29.012" gradientUnits="userSpaceOnUse" gradientTransform="matrix(.22878 0 0 .22878 -35.182 8.994)"><stop stop-color="#E9EAF6"/><stop offset=".07" stop-color="#C7CBE8"/><stop offset=".181" stop-color="#96A0D1"/><stop offset=".277" stop-color="#7183C0"/><stop offset=".353" stop-color="#5972B6"/><stop offset=".4" stop-color="#506CB3"/><stop offset=".9" stop-color="#2E5C99"/></linearGradient></defs></svg>