<svg viewBox="-10.547000000000004 -5.427033620689652 150.046 105.95637068965517" version="1.0" xmlns="http://www.w3.org/2000/svg" style="max-height: 500px" width="150.046" height="105.95637068965517">
  <path d="M.1004 62.68S-1.6144 52.259 9.13 53.037c0 0 6.475.783 12.76 6.221 0 0 5.837 4.83 11.051-6.375 0 0 5.636-22.834 12.151-31.432 4.907-6.484 19.766-18.82 36.885-16.021 0 .0002-31.179 16.151-29.356 52.759 1.562 5.999 6.369 15.536 12.075 20.98 0 0-20.265 23.799-42.645.624L9.907 64.08s-3.2523-4.906-7.7826-2.646L.1004 62.68" fill-rule="evenodd" fill="#cba22e"/>
  <path d="M39.969 55.99s.378-9.476 7.047-9.476c6.659 0 10.758 8.584 18.834 8.584 8.068 0 10.252-17.804 11.405-22.549C78.409 27.802 85.962 0 120.31 0c0 .0001-27.166 15.899-27.166 48.184S130.44 87.907 134.4 87.907c0 0-8.46 1.022-14.73 1.022-6.28 0-19.48-1.66-28.58-9.352-9.098-7.691-20.249-6.913-25.24-3.33 0 0-14.721-29.879-25.881-20.257" fill-rule="evenodd" fill="#bcbec0"/>
</svg>
