<svg version="1.2" xmlns="http://www.w3.org/2000/svg" viewBox="0 0 1429 1567" width="1429" height="1567">
	<title>4EFE8D7E37EED870939153C245AB1DE5-1-pdf-svg</title>
	<defs>
		<clipPath clipPathUnits="userSpaceOnUse" id="cp1">
			<path d="m-1320.94-1690.57h14518.12v19734.38h-14518.12z"/>
		</clipPath>
	</defs>
	<style>
		.s0 { fill: #eb311d } 
	</style>
	<g id="Clip-Path: Page 1" clip-path="url(#cp1)">
		<g id="Page 1">
			<path id="Path 281" class="s0" d="m0.3 572.3h183c0-33 28.1-96.5 98.9-96.5 28 0 32.9 6.1 68.3-1.2 47.6-15.9 68.3-42.7 78.1-64.7 0 0 18.3 78.1-54.9 118.4-41.5 22-105 4.9-105 4.9 0 0-52.4-7.3-58.5 39.1 29.3 0 74.4 29.3 74.4 79.4v426.2c0 30.5 24.4 62.2 62.2 62.2 33 0 61-26.8 61-62.2v-299.2c0-440.9 342.8-624.1 541.7-638.7 165.9-12.2 276.9 2.4 479.5-139.2 0 0-63.5 247.9-350.2 306.5-52.4 11-209.8-7.3-357.4 146.5-118.4 123.4-130.6 235.7-130.6 384.7v263.8c0 114.8-92.7 230.8-234.2 230.8-136.7 0-231.8-108.7-231.8-230.8v-447c0-36.6-26.9-70.8-68.3-70.8h-56.2m159.9 720.5c0 0 151.2 152.7 348.9 36.6 130.5-75.7 135.4-234.4 135.4-234.4v-354.2c0 0-6.1-178.3 153.7-305.3 111-87.9 214.7-81.8 286.7-90.3 183-22 263.5-138 263.5-138 2.5 19.5-17 232-246.4 293.1-46.4 12.2-297.7-12.3-297.7 278.4v351.7c0 73.3-18.3 202.7-154.9 294.3-141.5 94-370.9 79.4-489.2-131.9zm212.2 221c223.3 62.3 479.5-95.2 479.5-355.3v-307.8c0-89.1 74.4-207.6 209.8-207.6 141.6 0 208.7 127 208.7 207.6 0 52.5-20.8 155.1-118.4 155.1-76.8 0-126.9-78.1-102.5-142.9-4.8 20.8 6.1 42.8 29.3 42.8 23.2 0 35.4-22 30.5-47.6 0-6.1-6.1-55-61-55-45.1 0-59.8 41.5-59.8 62.3v273.5c0 291.9-318.4 509.3-616.1 374.9z"/>
		</g>
	</g>
</svg>