<?xml version="1.0" encoding="UTF-8" standalone="no"?>
<!DOCTYPE svg PUBLIC "-//W3C//DTD SVG 1.1//EN" "http://www.w3.org/Graphics/SVG/1.1/DTD/svg11.dtd">
<svg width="100%" height="100%" viewBox="0 0 153 165" version="1.1" xmlns="http://www.w3.org/2000/svg" xmlns:xlink="http://www.w3.org/1999/xlink" xml:space="preserve" xmlns:serif="http://www.serif.com/" style="fill-rule:evenodd;clip-rule:evenodd;stroke-linejoin:round;stroke-miterlimit:2;">
    <g transform="matrix(4.166667,0,0,4.166667,0,0)">
        <path d="M36.5,8.4C36.5,8.4 32.2,13.4 23.6,14.5C23.6,14.5 27.8,15.7 31.1,14.5C35.5,13 36.5,8.4 36.5,8.4ZM36.7,0C35.7,5.8 34.2,8.4 28.8,10.3C25,11.6 21.2,11.1 18.4,12.4C15.6,13.7 15.6,17.1 16,19.9C16.7,24.9 13.5,25.8 12.7,26C11.4,26.3 9.7,26.2 7.4,24.8C5,23.2 3.8,23.1 2.7,23.1C1.6,23.1 0,24 0,24C2.2,24.9 4.3,28.2 5.6,29.8C5.7,29.9 5.8,30 5.8,30.1C5.4,30.2 4.9,30.4 4.5,30.8C3.1,32 2,36.8 10.1,38.8C15.9,40.3 24.8,39 27.6,37.8C6.3,40.4 5,34.1 5.7,32.7C6.1,31.9 6.9,31.7 7.7,31.8C10.5,33.9 13.6,34.5 15.5,34.6C19.5,34.8 23.1,33.4 23.1,33.4C13,34.4 8.5,30 6.3,27.6C2.8,23.8 0,24 0,24C3.6,19.4 7.4,22.9 9.6,23.5C11.6,24.1 14.2,23.7 13.6,20.6C12.5,14.9 14,11.5 17.6,9.6C19.8,8.4 23.8,8.1 27.4,7C34.2,5 36.7,0 36.7,0ZM33.1,21.7C33.1,21.7 29.5,25.6 19.9,24.3C19.9,24.3 23.7,26.6 27.5,26.2C31.6,25.7 33.1,21.7 33.1,21.7ZM35.1,15.3C35.1,15.3 33.4,19.8 28.8,20.4C25.6,20.8 22.7,19.5 22.7,19.5C29.8,19.5 35.1,15.3 35.1,15.3Z" style="fill:rgb(0,70,155);"/>
    </g>
</svg>
