<svg version="1.1" id="Layer_1" xmlns="http://www.w3.org/2000/svg" xmlns:xlink="http://www.w3.org/1999/xlink" x="0px" y="0px" viewBox="0 0 63.6 54.9" style="enable-background:new 0 0 63.6 54.9;" xml:space="preserve"><title>China Airlines</title>
 <style type="text/css">
  .st0{fill-rule:evenodd;clip-rule:evenodd;fill:#DD5365;}
	.st1{clip-path:url(#SVGID_2_);fill:url(#SVGID_3_);}
	.st2{clip-path:url(#SVGID_5_);fill:url(#SVGID_6_);}
	.st3{clip-path:url(#SVGID_8_);fill:url(#SVGID_9_);}
	.st4{clip-path:url(#SVGID_11_);fill:url(#SVGID_12_);}
	.st5{clip-path:url(#SVGID_14_);fill:url(#SVGID_15_);}
	.st6{clip-path:url(#SVGID_17_);fill:url(#SVGID_18_);}
	.st7{clip-path:url(#SVGID_20_);fill:url(#SVGID_21_);}
	.st8{fill-rule:evenodd;clip-rule:evenodd;fill:#FFFFFF;}
	.st9{fill-rule:evenodd;clip-rule:evenodd;fill:#B50029;}
 </style>
 <g>
  <path class="st0" d="M35,0c0.7,0,1.1,0.3,1.5,0.5C37.4,1,37.9,1.3,39,1.3c0.6,0,1.2,0.1,1.7,0.3c1.9,0.9,3,4.2,3.4,6
		c0.1,0.6,0.1,1.3,0,1.9c-0.1,0.6-0.1,1.2,0,1.7c0.2,0.9,0.6,0.9,0.8,0.9h0c0.2,0,0.5-0.1,0.8-0.1c0.2,0,0.5-0.1,0.7-0.1
		c0.5-0.1,1.1-0.1,1.6-0.1c0.7,0,1.5,0.1,2.1,0.3c0.7,0.2,1.4,0.2,2.1,0.3c0.5,0,1.1,0.1,1.7,0.2c0.6,0.1,2.5,0.5,3.7,0.9
		c0.6,0.3,1.1,0.7,1.6,1.1c0.4,0.4,0.8,0.7,1.3,1c2.8,1.5,3.6,3.2,2.8,6c-0.1,0.3-0.2,0.6-0.3,0.9c-0.3,0.9-0.5,1.9-0.9,2.8
		c-0.4,1.2-1,1.7-1.7,2.2c-0.2,0.2-0.4,0.4-0.7,0.6c-0.7,0.6-1.2,1.4-1.7,2.2c-0.7,1.1-1.5,2.3-2.7,3.1c-1,0.6-1.9,0.6-2.9,0.7
		c-0.1,0-0.1,0-0.2,0c-0.5,0.2,0,1.2,0.4,1.8c0.2,0.3,0.4,0.7,0.6,1.2c0.1,0.3,0.1,0.7,0.1,1.1c0,0.3,0,0.6,0.1,0.8
		c0,0.1,0.2,0.2,0.3,0.4c0.3,0.2,0.6,0.5,0.7,0.9c0.3,1.1,0.2,3.4-0.1,4.2c-0.1,0.2-0.3,0.5-0.5,0.7c-0.2,0.2-0.4,0.5-0.5,0.6
		c-0.1,0.2-0.1,0.4-0.2,0.7c-0.1,0.4-0.2,0.8-0.4,1.2c-1.1,1.6-3.5,2.4-5.3,3.1c-0.5,0.2-0.9,0.3-1.3,0.5c-0.5,0.2-0.9,0.3-1.3,0.3
		c-0.5,0-1-0.2-1.4-0.4c-0.2-0.1-0.5-0.2-0.8-0.3c-0.8-0.3-1.5-0.4-2.4-0.4c-0.4,0-0.8-0.1-1.3-0.1c-0.9-0.1-1.5-0.5-2-0.9
		c-0.1,0-0.1-0.1-0.2-0.2h-0.1c-0.8,0-1.4-0.2-1.8-0.5c-0.9,1.3-2.2,2.2-4.2,3c-1.3,0.7-2.7,1-3.8,1.3c-0.3,0.1-0.6,0.2-0.8,0.3
		c-1.1,0.3-2.2,0.5-3.4,0.5c-0.4,0-0.9,0-1.3-0.1c-1.5,0-2.7-0.4-3.7-1c-1-0.5-1.9-1.2-2.7-1.9c-1.1-0.7-2.3-1.6-2.8-2.8
		c-0.7-1.4-0.3-2,0.1-2.9c0.1-0.2,0.2-0.5,0.4-0.7c0-0.1,0.1-0.1,0.1-0.2c0.8-1.8,1-2.6,1.1-2.9c-0.9-0.3-1.7-1.1-2.4-2.4
		c-0.4-0.7-0.8-1.4-1.1-1.7c-0.2-0.2-0.4-0.4-0.6-0.7c-0.2-0.2-0.4-0.3-0.5-0.4C8.4,35,7.4,34.5,6.5,34c-0.9-0.4-1.8-0.9-2.5-1.5
		c-0.5-0.4-0.9-1-1.3-1.7c-1.1-1.8-2.3-3.6-2.6-5.5c-0.3-1.8,0.1-2.9,0.7-4c0.2-0.4,0.4-0.8,0.6-1.1c0.1-0.2,0.2-0.4,0.3-0.6
		c0.1-0.3,0.2-0.5,0.3-0.7c0.2-0.5,0.3-0.9,0.9-1.5c0.7-0.8,1.3-1.2,2.2-1.6c0.9-0.4,1.9-0.7,2.7-0.8c0.1,0,0.6-0.1,0.8,0
		C8.7,15,8.9,15,9,15c0,0,0.1,0,0.1,0c0.2,0,0.4-0.1,0.5-0.2c0.2-0.1,0.5-0.2,0.9-0.2h0.1c0.9,0,3.9,1.6,4.7,1.6c0,0,0.2,0,0.3,0
		c0.1,0,0.2-0.1,0.2-0.1c0.4-0.3,0.7-0.7,0.9-1.3c0,0,0-0.1,0.1-0.1l0,0c0-0.1,0.1-0.2,0.1-0.3l0,0c0-0.1,0.1-0.2,0.1-0.3
		c0.2-0.6,0.3-1.2,0.4-1.8c0-0.2,0.1-0.3,0.1-0.5l0-0.1l0-0.2c0,0,0-0.2,0-0.2c0,0,0-0.1,0-0.1l0,0c0,0,0-0.1,0-0.1l0-0.1
		c0-0.1,0-0.1,0-0.1l0,0c0,0,0-0.1,0-0.1l0,0c0-0.1,0-0.1,0-0.2v0c0-0.1,0-0.1,0-0.1l0,0c0-0.1,0-0.1,0-0.1l0,0c0,0,0-0.1,0.1-0.1
		l0,0c0-0.1,0-0.1,0.1-0.1v0c0,0,0-0.1,0.1-0.1l0,0c0,0,0-0.1,0.1-0.1c0.3-0.6,0.5-1.4,0.7-2.1c0.4-1.6,0.9-3.2,2.3-4.1
		c0.6-0.4,1.3-0.4,1.9-0.5c0.5,0,1-0.1,1.5-0.3c0.4-0.2,0.7-0.5,1.1-0.8c0.5-0.4,1-0.8,1.7-1c0.1,0,0.1,0,0.2-0.1l0.1,0
		c0.1,0,0.1,0,0.2,0l0,0c0.1,0,0.1,0,0.2,0l0.1,0c0.1,0,0.1,0,0.2,0l0.1,0c0.1,0,0.1,0,0.2,0l0.1,0c0.1,0,0.1,0,0.2,0
		c0,0,0.1,0,0.1,0c0,0,0.1,0,0.1,0c0,0,0.1,0,0.1,0c0,0,0.1,0,0.1,0h0.1h0.1h0.1h0.1h0.1c0.2,0,0.5,0,0.7,0h0c0.1,0,0.2,0,0.3,0h0
		c0.1,0,0.2,0,0.3,0c0.2,0,0.4,0,0.6,0c0.6,0,1.1-0.1,1.7-0.2C34,0.1,34.6,0,35,0">
  </path>
  <g>
   <defs>
    <path id="SVGID_1_" d="M34.7,0.4c-0.2,0-0.3,0-0.5,0c-1.3,0.2-1.9,0.5-3.2,0.3c-1.1-0.1-2.2-0.2-3.4,0.2
				c-1.1,0.3-1.7,1.3-2.7,1.8c-1.1,0.6-2.3,0.2-3.4,0.8c-1.9,1.2-1.9,4.2-2.8,6.1c-1,2.1-0.6,5.3-2.6,6.9c0,0-0.1,0.1-0.3,0.1
				c-0.1,0-0.4,0-0.4,0c-0.9,0-3.6-1.5-4.8-1.6c-0.6,0-0.9,0.3-1.5,0.4c-0.3,0-0.5,0-0.7,0c-0.2,0-0.5,0-0.7,0
				c-0.8,0.1-1.8,0.4-2.5,0.8c-0.8,0.4-1.4,0.8-2,1.5c-0.8,0.9-0.7,1.2-1.2,2.1c-1,2.1-2,3-1.5,5.5c0.4,2.1,1.8,4.3,3,6.1
				c1.4,2.1,4.2,2.4,6.1,4.2c0.7,0.7,1.5,1.4,2.1,2.2c0.5,0.6,2.3,2.4,2.5,3.1c0.1,0.6-0.9,2.9-1.2,3.5c-0.6,1.3-1.2,1.7-0.5,3.3
				c0.9,1.9,3.6,3.1,5.2,4.4c2.1,1.8,5.2,1.1,7.7,0.7c2.6-0.4,5-0.8,7.1-2.9c1.1-1.1,1.5-2.2,3.3-1.6c1.3,0.5,1.8,1.4,3.3,1.6
				c1.4,0.2,2.5,0.1,3.8,0.6c1.4,0.5,1.7,1.1,3.3,0.5c1.9-0.7,5.2-1.5,6.5-3.4c0.4-0.6,0.3-1.3,0.6-1.9c0.2-0.4,0.9-1,1-1.3
				c0.3-0.7,0.4-2.9,0.1-3.9c-0.2-0.6-0.8-0.8-1-1.3c-0.2-0.6,0-1.3-0.2-1.9c-0.5-1.4-1.8-2.8-0.9-3.5c0.2-0.1,2.1,0,3.2-0.7
				c2.1-1.2,2.7-3.7,4.3-5.2c1-0.9,1.8-1.3,2.3-2.7c0.4-1.2,0.7-2.4,1.1-3.7c0.8-2.8-0.2-4.3-2.6-5.6c-1.1-0.6-1.8-1.6-2.9-2.1
				c-1-0.4-2.6-0.8-3.6-0.9c-1.4-0.2-2.6-0.2-3.9-0.5c-1.1-0.3-2.3-0.3-3.6-0.1c-1.3,0.2-2.3,0.8-2.7-1c-0.2-1.1,0.2-2.5,0-3.6
				c-0.3-1.8-1.4-4.9-3.2-5.7c-1-0.5-2.2-0.1-3.4-0.8c-0.9-0.5-1.4-0.8-2.3-0.8H34.7z">
    </path>
   </defs>
   <clipPath id="SVGID_2_">
    <use href="#SVGID_1_" style="overflow:visible;">
    </use>
   </clipPath>
   <radialGradient id="SVGID_3_" cx="-304.0985" cy="312.5916" r="1.9493" gradientTransform="matrix(14.8959 0 0 -14.8959 4561.6362 4683.1113)" gradientUnits="userSpaceOnUse">
    <stop offset="0" style="stop-color:#FFFFFF">
    </stop>
    <stop offset="6.748470e-02" style="stop-color:#FFFFFF">
    </stop>
    <stop offset="0.3804" style="stop-color:#F9DDE3">
    </stop>
    <stop offset="1" style="stop-color:#DD5365">
    </stop>
   </radialGradient>
   <rect x="0" y="0.4" class="st1" width="63.8" height="53.4">
   </rect>
  </g>
  <g>
   <defs>
    <path id="SVGID_4_" d="M34.7,0.3c-0.2,0-0.3,0-0.5,0.1c-1.3,0.2-1.9,0.4-3.1,0.3c-0.2,0-0.9-0.1-1.2-0.1c-0.7,0-1.4,0-2.2,0.3
				c-1.1,0.3-1.7,1.3-2.7,1.8c-1.1,0.6-2.3,0.2-3.4,0.8c-1.9,1.2-1.9,4.2-2.8,6.1c-0.8,1.6-0.7,3.7-1.5,5.4c0.1,0.6,0.2,1.2,0.3,1.8
				c0.3,0.9,2.1,0.9,1.8,2.7l0.1,0.3c1.5,4.8,10.1,3.6,12.5,1.7c1.2-1,3.6-1.7,4.6-2.9c0.8-1.1,3.6-1.9,4.2-3.1
				c1.1-1.8,2.5-4.2,2.3-5.8c-0.4-5-3.5-7.4-5.8-8.4c-1.1-0.5-1.5-0.9-2.5-0.9C34.8,0.3,34.7,0.3,34.7,0.3">
    </path>
   </defs>
   <clipPath id="SVGID_5_">
    <use xlink:href="#SVGID_4_" style="overflow:visible;">
    </use>
   </clipPath>
   <radialGradient id="SVGID_6_" cx="-298.6151" cy="308.9188" r="1.9493" gradientTransform="matrix(11.445 0 0 -11.445 3446.949 3539.4839)" gradientUnits="userSpaceOnUse">
    <stop offset="0" style="stop-color:#DD5365">
    </stop>
    <stop offset="0.2086" style="stop-color:#DD5365">
    </stop>
    <stop offset="0.2967" style="stop-color:#DF5C6D">
    </stop>
    <stop offset="0.4392" style="stop-color:#E47483">
    </stop>
    <stop offset="0.6183" style="stop-color:#EC9BA6">
    </stop>
    <stop offset="0.825" style="stop-color:#F6D0D7">
    </stop>
    <stop offset="0.8712" style="stop-color:#F9DDE3">
    </stop>
    <stop offset="1" style="stop-color:#F9DDE3">
    </stop>
   </radialGradient>
   <rect x="17.2" y="0.3" class="st2" width="26" height="24.2">
   </rect>
  </g>
  <g>
   <defs>
    <path id="SVGID_7_" d="M35.5,1C35.4,1,35.2,1,35,1c-1.3,0.2-2,0.5-3.3,0.4c-0.2,0-1-0.1-1.3-0.1c-0.7,0-1.5,0-2.3,0.3
				c-1.1,0.3-1.8,1.3-2.8,1.8C24.2,4,23,3.6,21.9,4.2c-1.1,0.7-2.4,3-2.8,6c-0.1,1,0.5,1.9,0.4,3c-0.6,4.8,0.8,3.7,1.8,5.7
				c1.9,3.6,1.7,4.8,0.8,4.6c1.1,1.3,2,2.9,1.3,4c3.3,0.7,7.5-0.2,9.1-1.4c1.3-1,3.1-2,4.1-3.3c0.9-1.1,2.5-4.6,3.2-5.8
				c1.1-1.8,2.3-2.2,3.2-5.6c1.5-5.7-1.4-8.1-4.5-9.4C37.5,1.5,36.3,1,35.5,1C35.6,1,35.6,1,35.5,1">
    </path>
   </defs>
   <clipPath id="SVGID_8_">
    <use xlink:href="#SVGID_7_" style="overflow:visible;">
    </use>
   </clipPath>
   <radialGradient id="SVGID_9_" cx="-300.9752" cy="309.8426" r="1.9493" gradientTransform="matrix(12.7539 0 0 -12.143 3870.6692 3770.6409)" gradientUnits="userSpaceOnUse">
    <stop offset="0" style="stop-color:#DD5365">
    </stop>
    <stop offset="8.672770e-02" style="stop-color:#DE596B">
    </stop>
    <stop offset="0.2059" style="stop-color:#E26B7B">
    </stop>
    <stop offset="0.3439" style="stop-color:#E88895">
    </stop>
    <stop offset="0.4948" style="stop-color:#F0B0BA">
    </stop>
    <stop offset="0.638" style="stop-color:#F9DDE3">
    </stop>
    <stop offset="0.7635" style="stop-color:#FAE4E9">
    </stop>
    <stop offset="0.9489" style="stop-color:#FEF8F9">
    </stop>
    <stop offset="1" style="stop-color:#FFFFFF">
    </stop>
   </radialGradient>
   <rect x="18.9" y="1" class="st3" width="25.5" height="27.2">
   </rect>
  </g>
  <g>
   <defs>
    <path id="SVGID_10_" d="M30.7,31.3c-2,0.5-5.7,0-7.4,1.3c-1.6,1.1-3,2.6-3.8,4.3c-1.8,2-3.9,3.8-5,5.4c-1.2,1.7-1.5,4.5-0.7,6.1
				c2.2,4.4,7.8,5.8,12.1,4.5c4.1-0.9,9.2-2.1,9.8-7.6c0.3-2.7,1.1-5.5,0.1-8.1c-0.7-1.8-0.8-5.9-4.1-5.9
				C31.4,31.1,31.1,31.2,30.7,31.3">
    </path>
   </defs>
   <clipPath id="SVGID_11_">
    <use xlink:href="#SVGID_10_" style="overflow:visible;">
    </use>
   </clipPath>
   <radialGradient id="SVGID_12_" cx="-289.843" cy="299.7796" r="1.9493" gradientTransform="matrix(8.2809 0 0 -8.2809 2422.5171 2517.7681)" gradientUnits="userSpaceOnUse">
    <stop offset="0" style="stop-color:#FFFFFF">
    </stop>
    <stop offset="0.411" style="stop-color:#F9DDE3">
    </stop>
    <stop offset="1" style="stop-color:#DD5365">
    </stop>
   </radialGradient>
   <rect x="13" y="31.1" class="st4" width="23.7" height="23">
   </rect>
  </g>
  <g>
   <defs>
    <path id="SVGID_13_" d="M0.4,24.5c0,2,1.6,4.2,2.4,5.9c1.3,2.5,2.4,2.6,4.7,3.8c1.9,1,3.1,2.2,4.1,4.2c2.8,5.3,5.7,0.4,8.1-1.6
				c1.8-1.4,2.9-4.6,2.3-7c-0.3-1.5-1.6-3.8-2.9-4.7l0.8,0.5c-1-1-0.2-2.3-0.7-3.5c-0.4-1.1-1-2.4-1.6-3.6c-0.9-1.8-1.8-1.3-2.7-0.9
				c-0.5,0.2-0.9,0.5-1.3,0.4c-1.1-0.3-2.8-0.7-3.8-1.1c-0.7-0.3-1.5-0.4-2.2-0.4C4,16.7,0.5,20.4,0.4,24.5">
    </path>
   </defs>
   <clipPath id="SVGID_14_">
    <use xlink:href="#SVGID_13_" style="overflow:visible;">
    </use>
   </clipPath>
   <radialGradient id="SVGID_15_" cx="-296.8423" cy="306.0186" r="1.9493" gradientTransform="matrix(10.5286 0 0 -10.5286 3147.7527 3252.6506)" gradientUnits="userSpaceOnUse">
    <stop offset="0" style="stop-color:#FFFFFF">
    </stop>
    <stop offset="6.748470e-02" style="stop-color:#FFFFFF">
    </stop>
    <stop offset="0.4294" style="stop-color:#F9DDE3">
    </stop>
    <stop offset="1" style="stop-color:#DD5365">
    </stop>
   </radialGradient>
   <rect x="0.4" y="16.7" class="st5" width="22.3" height="27">
   </rect>
  </g>
  <g>
   <defs>
    <path id="SVGID_16_" d="M45.3,13c-1.1,0.2-2.3,1-3.2,1.6c-0.9,0.7-1.5,2.5-2.4,3.1c-2.1,1-2.2,1.5-3.3,3.3
				c-0.9,1.5-2.1,3.6-3.1,5.3c0,0.6,0,1.3,0.2,1.9c0.2,1,1.4,2.7,1.3,3.6l0.1-0.4c1,5.2,11.6,6.8,9.7,4.3c-5.1-6.6,2.8-9.8,3.8-8.6
				c6.2,7.7,8.7,3.2,9.3,2.4c1.3-1.7,2.3-3.5,2.6-5.2c2-10.9-4.2-9.4-7.6-10.9c-0.2,0-0.4,0-0.6,0c-1.3,0.1-2,0.2-3.3-0.1
				c-0.2,0-0.4-0.1-0.6-0.1c-0.2,0-0.4-0.1-0.6-0.1c-0.4-0.1-0.8-0.1-1.2-0.1C46.1,12.9,45.7,12.9,45.3,13">
    </path>
   </defs>
   <clipPath id="SVGID_17_">
    <use xlink:href="#SVGID_16_" style="overflow:visible;">
    </use>
   </clipPath>
   <radialGradient id="SVGID_18_" cx="-308.7269" cy="317.5237" r="1.9493" gradientTransform="matrix(21.2346 0 0 -21.2346 6627.0205 6754.7646)" gradientUnits="userSpaceOnUse">
    <stop offset="0" style="stop-color:#DD5365">
    </stop>
    <stop offset="0.3067" style="stop-color:#DD5365">
    </stop>
    <stop offset="0.4134" style="stop-color:#E36F7F">
    </stop>
    <stop offset="0.6422" style="stop-color:#F1B6BF">
    </stop>
    <stop offset="0.7607" style="stop-color:#F9DDE3">
    </stop>
    <stop offset="1" style="stop-color:#F9DDE3">
    </stop>
   </radialGradient>
   <rect x="33.4" y="12.9" class="st6" width="28.9" height="25.3">
   </rect>
  </g>
  <g>
   <defs>
    <path id="SVGID_19_" d="M44.3,34.7C44.3,34.7,44.3,34.7,44.3,34.7C44.3,34.7,44.3,34.7,44.3,34.7C44.3,34.7,44.3,34.7,44.3,34.7
				 M42.1,14.5c-0.3,0.3-0.7,0.7-0.8,1c-0.4,0.7-0.7,1.2-1.5,1.6c-0.6,0.3-1,0.5-1.5,1c-0.4,0.5-0.7,1-1.1,1.5
				c-0.7,1-2.1,1.2-3.3,1.2c-0.3,0-0.6,0-0.9,0c-1.7,1.1-3.4,1.7-5.1,1.3c-1-0.2-2.2-2-3.2-1.9c-0.9,0.1,0.5,0.6-0.2,1.4
				c-0.8,0.9-1.8,0.2-2.5-0.6c-0.5-0.5-0.8-1-0.9-1c-0.2,0.1,0,0.6,0,0.8c0,0.5-0.5,0.8-0.6,1.4c-0.1,0.5,0,0.8,0.1,1.1
				c0.1,0.3,0.2,0.7,0.2,1.3c0,0.9,0,0.6-0.1,1.6c-0.1,1.8-0.8,2.6-1.3,4.4c-0.5,2,1.6,3-0.9,6.7c-0.8,1.2-4.5,2.9-4.3,4.4
				c1-0.2,1.6-1.3,2.4-2.1c1.8-1.8,6.6-3.7,9.5-3.8c3-0.1,0.1,3.2,1,3.8c0.8,0.6-0.8,2.4,0.1,1.9c0.9-0.5,2.2-4.8,2.8-5.8
				c0.3-0.7,5-11.6,5.2,4.8c0,1.6,0.9,2.3,0.5,3.8c-0.2,0.7-3,4.7,1.6,4.2c0.6-3.4-2-5.8-0.6-7.5c0.7-0.9,3.2-1,3.2-2.2
				c-0.1-2.5,1.1-2.5,2.2-2.4c0.7,0,1.3,0.1,1.6-0.5c0.4-0.9,0.6-1.2,0.7-1.3c0,0-0.1-0.1-0.1-0.4c-0.1-1.1,0.9-1.1,0.4-2.2
				c1.1,0.3,1.4-0.8,2.3-1.1c0.6-0.2,1.8-0.1,2.5,0c1.5,0.2,2.2,2.7,2.5,2.5c0.3-0.5-0.5-1.8-1.3-2.5c-0.6-0.6-1.4-1.8-1.9-2.4
				c-0.8-1-0.3-2.3-1.4-2.9c-0.3-0.2-0.6-0.1-0.9-0.1c-0.5,0.1-1.1,0.2-2.2-0.5c-5.9,4.2-0.9-2.1-1.3-3.7
				C42.1,19.5,40.5,18.9,42.1,14.5C42.2,14.5,42.2,14.5,42.1,14.5C42.1,14.5,42.1,14.5,42.1,14.5">
    </path>
   </defs>
   <clipPath id="SVGID_20_">
    <use xlink:href="#SVGID_19_" style="overflow:visible;">
    </use>
   </clipPath>
   <radialGradient id="SVGID_21_" cx="-297.5355" cy="306.9732" r="1.9479" gradientTransform="matrix(11.0281 0 0 -11.0281 3314.4062 3416.9629)" gradientUnits="userSpaceOnUse">
    <stop offset="0" style="stop-color:#FFFFFF">
    </stop>
    <stop offset="9.202450e-02" style="stop-color:#FFFFFF">
    </stop>
    <stop offset="0.3742" style="stop-color:#F9DDE3">
    </stop>
    <stop offset="0.466" style="stop-color:#F1B7C1">
    </stop>
    <stop offset="0.5873" style="stop-color:#E98C99">
    </stop>
    <stop offset="0.6966" style="stop-color:#E26D7D">
    </stop>
    <stop offset="0.7888" style="stop-color:#DE5A6B">
    </stop>
    <stop offset="0.8528" style="stop-color:#DD5365">
    </stop>
    <stop offset="1" style="stop-color:#DD5365">
    </stop>
   </radialGradient>
   <rect x="14.2" y="14.5" class="st7" width="38" height="34.6">
   </rect>
  </g>
  <path class="st8" d="M23.5,35.5c-0.6-0.4,0-2,0.7-2.8c0.7-0.8,1.8-2.1,1.6-2.2c-0.3-0.1-1.6,0.1-2,0c-0.4-0.1,2.2-1.2,2.5-1.3
		c0.3-0.2-1.9-0.7-2.6-0.8c-0.8-0.1-2.4,0.1-2.2-0.2c0.1-0.3,1.1-0.8,1.3-1c0.2-0.2-1.2-0.9-1.3-1.3c-0.1-0.3,0.3-0.7,1.8-0.3
		c1.5,0.3,2.7,0.2,3.3,0.3c0.6,0.1,1,0.3,1.2,0.4c0.2,0.2,0.4-0.4,0.6-0.3c0.2,0.1,0.7,0.4,0.7,0.1c0-0.3-0.2-0.8-0.6-1.2
		c-0.4-0.4-1-1.1-1.1-1.3c-0.1-0.3-0.4-0.9,0-1c0.4-0.1,0.7,0,0.9-0.1c0.2-0.1,0.6-0.6,1.1-0.4c0.5,0.2,0.8,0.4,0.9,0.5
		c0.2,0.1,0.5,0.2,0.7,0.1c0.2-0.1,0.6-0.6,1.1-0.3c0.5,0.3,1.3,0.9,2,0.8c0.7-0.2,1.2-0.5,1.4-1c0.2-0.4,0.8-1.8,1.1-2.1
		c0.3-0.3,0.9-0.8,0.8-0.6c-0.1,0.2-0.8,1.7-0.7,2.4c0,0.7-0.1,0.9,0.1,1.1c0.2,0.2,0.5,0.1,0.8,0c0.3-0.1,0.7-0.4,0.7-0.2
		c0.1,0.2-1.5,1.2-1.9,1.7c-0.5,0.4-0.9,1.3-0.7,1.7c0.2,0.4,1.1,0.2,1.5,0.2c0.4,0,1.4,0.1,1.3,0.3c-0.1,0.2-1.7,1.3-1.7,1.5
		c0,0.2,1,0.5,1.5,0.5c0.5,0,1.8,0.2,2.3,0.3c0.5,0.1,0.9,0.1,1,0.4c0.1,0.3,0.3,0.5,0.1,0.5c-0.2,0-1.3-0.1-1.6-0.3
		c-0.4-0.1-2.2-0.6-2.7-0.5c-0.4,0-1.7,0-1.9,0.4c-0.2,0.4,0.7,0.7,0.9,0.9c0.2,0.2,0.9,1,0.5,1c-0.5,0.1-0.8-0.3-1-0.3
		c-0.2-0.1-0.9-0.6-1.1-0.7c-0.2-0.1-1-1-1.3-0.9c-0.4,0-1.2,0.2-1.6,0.5c-0.4,0.3-0.9,0.8-1.2,1.1c-0.3,0.3-1.3,1-1.8,1.3
		c-0.4,0.4-2.9,2.3-3.3,2.6C25.1,35.4,24,35.9,23.5,35.5">
  </path>
  <path class="st9" d="M30.5,21.1c-0.2-0.3-0.1-0.9,0-1.3c0.1-0.3,1.2-2.2,2.2-1.9c0.4,0.1,0.7,0.3,0.8,0.8c0.2,0.8,0.2,1.9-0.3,2.5
		C32.5,22.1,31,21.8,30.5,21.1">
  </path>
  <path class="st9" d="M25.5,23.4c0.3-0.1,0.7-0.4,0.8-0.7c0.1-0.4,0.9-0.4,0.9-0.6c0-0.2-0.8-2.3-1.3-2.5c-0.6-0.2-0.7,0.1-1.2,0.1
		c-0.4,0-0.7-0.2-1,0.2c-0.4,0.6-1,1.5-0.5,2.2C23.7,22.9,24.5,23.6,25.5,23.4">
  </path>
  <path class="st9" d="M37.5,25.1c-0.1,0.2-0.5,0.3-0.7,0.1c0.6-0.8,1.2-1,2-1.6c0.3-0.3,0-1.6,0.2-2c0.1-0.4,1.5-1.3,2-1
		c0.3,0.2,0.6,0.2,0.8,0.5c0.3,0.5,0.3,1.3,0.3,1.7c0,0.5-0.3,0.9-0.4,1.4c-0.1,0.5-1,0.4-1.4,0.4c-0.5,0-1-0.4-1.5,0
		C38.5,24.7,37.8,24.9,37.5,25.1">
  </path>
  <path class="st9" d="M31.7,26.9c0.2-0.3,0-0.8,0-1.1c0-0.3,0.1-0.7-0.2-0.8c-0.1,0.6-0.2,1.4,0,2C31.6,27,31.7,26.9,31.7,26.9">
  </path>
  <path class="st9" d="M19.8,28.6c0.7-1,1.4-1.3,2.3-1.5c0-0.1-0.2-0.2-0.3-0.2c-0.6-0.1-1.1-0.5-1.5-1c-0.8-0.9-1.2-1.7-2.5-1.3
		c-1.3,0.4-1.4,2.6-1,3.6C17.3,29.6,19,29.7,19.8,28.6">
  </path>
  <path class="st9" d="M46,27c1.4-0.5,2.5,0.2,1.8,1.3c-0.3,0.6-0.2,1.2-0.6,1.8c-0.3,0.5-1.1,0.7-1.6,0.5c-0.5-0.2-1.2-0.5-1.6-0.9
		c-0.4-0.4-0.5-0.8-1.2-1c-1.1-0.3-2.3,0-3.4-0.4c1.2-0.6,2.7,0.1,3.9,0C43.8,28.3,44.2,27.3,46,27">
  </path>
  <path class="st9" d="M39.3,28.3c-0.3-0.2-0.7-0.2-1,0C38.5,28.4,39,28.4,39.3,28.3">
  </path>
  <path class="st9" d="M22.5,32.3c-1.2-1.5-3.9,1.3-4.1,1.5c-0.2,0.2-0.7,0.6-0.7,0.7c-0.2,0.6,1.2,1.4,1.6,1.6
		c0.6,0.3,1,1.2,1.8,0.6c0.7-0.6,0.8-1.1,1-2c0.2-0.8,0.5-1.6,1.1-2.1c0.6-0.6,1.3-1,1.8-1.6C23.9,30.9,23.4,31.9,22.5,32.3">
  </path>
  <path class="st9" d="M41,25.9c-0.2-1-1.9,0-2.3,0c0.5,0.1,1.2,0.1,1.8,0.2C40.7,26.1,41.1,26.1,41,25.9">
  </path>
  <path class="st9" d="M33.8,31.3c0.5,0.3,0.6,0.9,1.1,1.2c0.4,0.2,1,0.6,1.4,0.9c0.2,0.2,0.5,1,0.1,1.1c-0.5,0.3-0.7-0.8-1,0.1
		c-0.3,0.9-1.3,1.3-1.5,2.2c-0.1,0.6-0.6,1.5-0.2,2.2c0.1,0.2,0.3,0.3,0.6,0.3c0.5,0.1,0.6,0,1,0.3c0.5,0.3,1,0.5,1.6,0.2
		c0.6-0.3,1-0.7,1.1-1.3c-0.1-0.7-0.3-1.4-0.3-2.1c0-0.7,0.3-1.1,0-1.8c-0.3-0.6-0.5-0.8-1-1.2c-0.4-0.3-0.5-0.8-0.8-1.2
		c-0.4-0.6-1.3-1.4-1.5-1.7c-0.3-0.3-0.6-0.5-1.1-0.5c-0.5,0-1.2,0.5-1.5,0.9c-0.4,0.5-1.1,0.8-1.5,1.3c-0.5,0.5-0.4,1.2-0.7,1.8
		c-0.2,0.5-0.6,1.1-0.7,1.7c0.3-0.2,0.6-0.7,0.8-1c0.2-0.2,0.3-0.5,0.5-0.7c0.2-0.2,0.5-0.2,0.7-0.4c0.6-0.6,0.7-1.3,1.1-2
		C32.2,31.2,33.3,31.1,33.8,31.3">
  </path>
  <path class="st9" d="M45.2,37.2c0-0.4-0.2-0.7-0.1-1.1c0.1-0.5,0-0.8-0.3-1.3c-0.3-0.5-1.1-1.7-1.8-1.4c-0.2,0.1-0.5,0.4-0.8,0.2
		c-0.4-0.2-0.5-0.5-0.9-0.7c-0.4-0.1-0.8-0.2-1.2-0.3c-0.3-0.1-0.5-0.1-0.9-0.2c0.3,0.6,1.2,0.9,1.7,1.3c1,0.8,0.5,1.8,0.5,2.8
		c0,0.3-0.1,0.8,0.1,1.1c0.2,0.3,1.1,0.4,1.3,0.5c0.1,0.1,1.1,0.4,1.6,0.2C44.8,38.2,45.2,37.5,45.2,37.2">
  </path>
  <path class="st9" d="M34,47c0.3-0.1,0.7,0.3,1.4,0.5c0.7,0.3,1.2,0.4,1.7,0.4c0.5,0,1.5,0.6,1.7,1c0.2,0.4,0.3,1.3,0,1.9
		c-0.3,0.6-0.8,1.3-0.6,2.5c0.3,1.2,0.8,1.7-0.1,1.6c-0.9-0.1-1.6-0.4-2.1-0.5c-0.5-0.2-1.3-0.2-1.8-0.9c-0.6-0.7-0.9-0.6-1.8-1.1
		c-0.9-0.6-1.5-1.7-1-2.2c0.5-0.5,1.9-1.8,2-2C33.6,47.8,33.8,47,34,47">
  </path>
  <path class="st9" d="M52.1,39.8c0-0.3,0.7-0.7,0.7-0.9c0-0.2,0.1-1.3-0.1-1.7c-0.1-0.5-0.2-1,0.1-1.2c0.3-0.2,1.3-0.5,1.9-0.3
		c0.6,0.2,1,0.5,1.5,0.7c0.5,0.2,1.9,0.9,2.1,1.4c0.2,0.5,0.6,1,0.2,1.6c-0.4,0.5-0.4,0.9-0.6,1.2c-0.3,0.2-1,0.7-1.4,1.2
		c-0.4,0.5-0.7,1.5-1.1,1.7c-0.5,0.2-1.4,0.5-1.6,0.2c-0.3-0.3-0.4-1-0.3-1.3c0.1-0.3,0.7-0.8,0.5-1.3c-0.2-0.5-0.6-0.5-1.1-0.7
		C52.5,40.2,52.1,40,52.1,39.8">
  </path>
  <path class="st9" d="M9.4,43.9c-0.2-0.3-0.5-0.5-0.4-0.8c0.1-0.3,0.4-0.8,0.5-1.3c0.1-0.4,0-1.5,0-1.8c0-0.3,0.2-0.8,0.2-1.1
		c0.1-0.3,0-0.8,0.5-1c0.5-0.2,1.1-0.1,1.6,0c0.5,0.1,1.4,0.3,1.7,0.8c0.3,0.5,0.4,1.1,0.7,1.3c0.3,0.2,1.3,0.6,1.3,0.8
		c0,0.1-0.2,0.3-0.5,0.9c-0.3,0.6-0.3,2.1-0.3,2.3c0,0.3,0,1.4-0.4,1.6c-0.4,0.2-1,0-1.5-0.3c-0.5-0.3-1.3-0.6-1.6-0.8
		c-0.3-0.3-0.3-0.6-0.5-0.7C10.5,43.8,9.6,44.1,9.4,43.9">
  </path>
  <path class="st9" d="M29.3,38.5c0.2,0.2,0.3,0.9,0.3,1.1c0,0.4-0.1,1-0.3,1.3c-0.2,0.3-0.9,0.7-1.2,0.8c-0.2,0.1-0.9,0.3-1.3,0
		c-0.2-0.1-0.7-0.5-0.9-0.9c-0.2-0.4-0.4-1.7,0.3-2.4c0.3-0.4,0.9-0.4,1.3-0.7c0.3-0.3,0.6-0.6,1-0.8c0,0.4-0.3,0.8,0,1.1
		C28.7,38.2,29.1,38.3,29.3,38.5">
  </path>
  <path class="st9" d="M37.7,30.2C37.2,30.1,37,30,36.5,30c0.3,0.4,1,0.4,1.5,0.5c0.2,0.1,0.4,0.2,0.5,0.3c0.5,0.3,1.5,0.6,1.6,0.8
		c0.1,0.2,1.1,0.6,1.5,0.4c0.2-0.1,0.6-0.2,0.5-0.4c-0.4-0.8-1.5-0.5-2.1-0.9c-0.2-0.1-0.2-0.3-0.5-0.3c-0.3-0.1-0.6,0-0.8-0.1
		C38.4,30.1,38,30.2,37.7,30.2">
  </path>
  <path class="st9" d="M32.2,22.9c0,0,0,0.1-0.1,0.5c-0.1,0.3-0.2,1.1,0.1,1.7c0,0,0.2-0.2,0.1-0.7c0-0.5,0.1-0.6,0.1-0.8
		C32.4,23.4,32.2,22.9,32.2,22.9">
  </path>
  <path class="st9" d="M30.1,29.3c0.2,0.3-0.1,0.7-0.2,0.9c-0.2,0.2-0.5,0.4-1.1,1c-0.6,0.6-1.2,1.4-1.4,1.6
		c-0.2,0.2-0.6,0.8-0.7,0.7c-0.1-0.1,0.3-1,0.4-1.1c0.1-0.2,0.8-1.1,1-1.2c0.2-0.1,1.4-1.1,1.3-1.2c0-0.1-0.4-0.1-0.6-0.1
		c-0.2,0-1,0.3-1.3,0.4c-0.2,0.1-0.5-0.1-0.2-0.4c0.3-0.3,0.4-0.3,0.6-0.4c0.2,0,0.7-0.1,0.8-0.2c0.1-0.1,0.1-0.5,0-0.5
		c-0.1-0.1-0.3,0-0.4,0c-0.1,0-1.9-0.3-2.2-0.4c-0.3-0.1-2-0.5-2.2-0.5c-0.3-0.1-0.3-0.3,0.1-0.3c0.5,0,1.3,0.2,1.6,0.2
		c0.3,0,0.7-0.1,1,0c0.3,0,1.3,0.2,1.5,0.1c0.3-0.1,0.7-0.3,0.7-0.4c0.1-0.2,0.1-0.4-0.1-0.6c-0.2-0.2-0.9-0.7-1.1-1
		c-0.2-0.4-0.4-0.8-0.6-0.9c-0.2-0.1-0.5-0.2-0.7-0.4c-0.1-0.2-0.2-0.7,0-0.6c0.3,0.1,1,0.5,1.1,0.6c0.1,0.1,0.3,0.5,0.5,0.8
		c0.2,0.3,0.7,0.7,0.9,0.8c0.2,0.1,0.7,0.5,0.8,0.7c0.7,0,0.8,0,1.3,0c0.5,0,1.2,0.1,1.3,0.2c0.1,0.1,0.6,0.3,0.8,0.1
		c0.2-0.2,0.6-1.1,0.8-1.4c0.2-0.2,1-1.3,1.2-1.5c0.2-0.3,1.1-1.1,1.2-1c0.1,0.1,0.3,0.2-0.1,0.5c-0.4,0.3-1.4,1.3-1.5,1.6
		c-0.1,0.3-0.7,1.2-0.8,1.4c-0.1,0.2-0.4,0.4-0.3,0.5c0.1,0.1,0.7,0.3,0.8,0.4c0.1,0.1,0.5,0.8,0.2,1c-0.3,0.2-0.6,0-0.8-0.2
		c-0.2-0.3-0.4-0.5-0.6-0.7c-0.3-0.2-0.6-0.3-1-0.4c-0.5-0.2-1.5-0.2-1.8-0.1c-0.3,0.1-0.9,0.3-0.9,0.6
		C29.4,28.2,29.5,28.6,30.1,29.3">
  </path>
  <path class="st9" d="M30.9,26.3c-0.2,0-0.7-0.5-0.9-0.9c-0.2-0.4-0.6-1.1-0.7-1.2c-0.1-0.2-0.2-0.5-0.3-0.6
		c-0.1-0.1-0.7-0.8-0.5-0.9c0.2-0.1,0.8,0.5,0.8,0.7c0.1,0.2,0.7,1,0.8,1.2c0.1,0.2,0.6,0.9,0.7,1.1C30.9,25.8,31.1,26.3,30.9,26.3">
  </path>
 </g>
</svg>
