<svg width="200" height="200" xmlns="http://www.w3.org/2000/svg"><title>China Eastern Airlines</title>
   <g fill-rule="evenodd">
    <path fill="#1b1d80" d="m194.83077,77.18917c-65.25804,1.80937 -128.41185,16.61942 -134.27958,37.61887c-0.53611,1.90587 -0.67014,3.78896 -0.67014,5.7069c0,20.68314 43.17431,27.75712 89.9151,33.58464c0.80149,0.09382 0.76664,-0.54415 0.50528,-1.00387c-0.18362,-0.32569 -0.88458,-1.56142 -1.36306,-2.4125c-0.18764,-0.33373 -0.38868,-0.55219 -1.04273,-0.73983c-25.58185,-6.50838 -51.55238,-16.01764 -51.55238,-24.88357c0,-16.77087 43.51474,-33.3836 93.06743,-40.9776c1.63514,-0.31496 2.41652,-0.62189 3.5142,-1.49441c1.37512,-1.09501 4.39879,-3.56513 5.67741,-4.58642c0.83365,-0.69292 0.53745,-0.91139 0.22249,-0.90469c-1.32687,0.02681 -2.65643,0.05361 -3.99402,0.09382l0,-0.00134z"/>
    <path fill="#df0011" d="m122.64216,178.43497c-33.89826,-8.49601 -67.49362,-36.94605 -62.20087,-63.30392c7.73339,-38.45654 59.45197,-75.70952 123.9943,-93.2162c1.45554,-0.42889 1.99299,-1.39121 0.12733,-1.39121l-88.08965,0c-15.25234,0 -18.55746,1.97155 -24.4654,9.96495c-3.14697,4.25136 -29.5102,40.60366 -41.39845,56.98854c-1.52926,1.9501 -3.69246,4.04897 -8.50405,4.04897l-21.25008,0c0,0.0067 0,0.01072 0.01742,0.02144c25.18379,71.15124 52.23458,87.92881 79.33094,87.92881l42.78429,0c0.60312,0 1.20893,-0.65003 -0.34579,-1.04273"/>
   </g>
</svg>