<?xml version="1.0" encoding="UTF-8" standalone="no"?>
<!DOCTYPE svg PUBLIC "-//W3C//DTD SVG 1.1//EN" "http://www.w3.org/Graphics/SVG/1.1/DTD/svg11.dtd">
<svg width="100%" height="100%" viewBox="0 0 513 521" version="1.1" xmlns="http://www.w3.org/2000/svg" xmlns:xlink="http://www.w3.org/1999/xlink" xml:space="preserve" xmlns:serif="http://www.serif.com/" style="fill-rule:evenodd;clip-rule:evenodd;stroke-linejoin:round;stroke-miterlimit:2;">
    <g transform="matrix(4.166667,0,0,4.166667,0,0)">
        <g transform="matrix(1,0,0,1,-31,-193.4)">
            <path id="path1" d="M92.7,318.4C58.6,318.4 31,290.6 31,256.4C31,251.2 31.6,246.2 32.8,241.4C32.9,242.5 33.1,243.6 33.4,244.7L33.4,243.8C33.4,239.5 34.4,235.6 36.1,232.3C35.9,233.8 35.7,235.2 35.7,236.7C35.7,238.9 36,241.1 36.5,243.2C36.7,235.5 38.3,228.3 40.8,222.1C39.5,226.9 38.8,231.9 38.8,237.1C38.8,240.6 39.1,244.1 39.8,247.5C39.7,246 39.6,244.5 39.6,243C39.6,231.8 42.6,221.5 47.5,213.4C43.5,221.4 41.2,230.4 41.2,239.9C41.2,243.3 41.5,246.7 42.1,249.9C42,248.8 42,247.7 42,246.5C42,229.3 48.2,213.9 57.9,203.7C49.4,214.5 44.3,228 44.3,242.6C44.3,248.5 45.1,254.2 46.7,259.7C45.7,255.2 45.1,250.6 45.1,245.7C45.1,223.9 56.5,205.1 73,196.3C57.6,206.6 47.4,224.7 47.4,245.3C47.4,251.1 48.2,256.8 49.8,262.1C48.8,257.7 48.2,253.1 48.2,248.4C48.2,218 70.7,193.4 98.5,193.4L99.5,193.4C72.4,194 50.6,218.4 50.6,248.4C50.6,254.3 51.4,260 53,265.3C51.9,260.9 51.4,256.3 51.4,251.5L51.4,250.7C51.4,228.5 64,209.5 82.1,201.1C82.3,201 82.4,201 82.6,200.9C88.8,198.1 95.5,196.5 102.7,196.5C110.6,196.5 118,198.4 124.7,201.8C119.4,199.9 113.2,198.9 106.5,198.9L104.8,198.9C103.9,198.9 103.1,199 102.2,199.1L102.1,199.1C96.4,199.5 91.2,200.7 86.7,202.5C75.4,206.7 66.1,214.3 60.3,223.8C57,229.3 54.9,235.6 54.1,242.2C54,243.6 53.9,245 53.9,246.5L53.9,249.5C53.9,270.1 65.5,287.4 81.3,292.9C84.8,294 88.5,294.6 92.3,294.7C94.9,294.7 97.5,294.3 100,293.7C100.3,293.7 100.6,293.8 100.9,293.8C116.1,290.4 127.9,277.6 129.8,261.7L154,261.7C151.3,293.6 124.9,318.4 92.7,318.4ZM55.8,247C59,222.6 79.8,203.8 104.8,203.8C129.8,203.8 150.6,222.6 153.8,247L149.5,247C145.3,224.6 126,207.7 102.8,207.7C79.6,207.7 60.3,224.6 56.1,247L55.8,247ZM58.4,247C62.1,226.9 79.7,211.7 100.9,211.7C122.1,211.7 139.7,226.9 143.4,247L139.4,247C134.5,228.9 118.4,215.6 99.3,215.6C80.2,215.6 64.2,228.9 59.2,247L58.4,247ZM128.4,247C124.8,231.7 109.8,220.3 91.9,220.3C88.6,220.3 85.4,220.7 82.4,221.4C86.7,219.7 91.3,218.7 96.2,218.7C113.6,218.7 128.2,230.8 132.1,247L128.4,247Z" style="fill:rgb(196,1,105);"/>
        </g>
    </g>
</svg>
