<svg width="200" height="200" xmlns="http://www.w3.org/2000/svg"><title>China Southern Airlines</title>
   <g>
    <polygon fill="#008ACA" points="198.54998779296875,29.678909301757812 142.09217834472656,29.678909301757812 1.4500045776367188,170.3210906982422 142.09217834472656,170.3210906982422 " class="st0"/>
    <path fill="#FFFFFF" clip-rule="evenodd" fill-rule="evenodd" d="m132.64907,83.92661c-2.21009,-1.00459 -3.61651,-3.21468 -3.61651,-5.8266c0,-3.61651 2.81284,-6.42936 6.42936,-6.42936c3.61651,0 6.42936,2.81284 6.42936,6.42936c0,2.61193 -1.40642,4.82202 -3.61651,5.8266l0,1.80826c2.00917,0.20092 4.42018,1.00459 5.8266,1.80826c0.60275,0 1.60734,-0.20092 2.41101,-0.20092c8.0367,0 13.8633,5.42477 13.8633,12.85871c0,4.6211 -4.01835,8.84037 -8.63945,8.84037c-4.6211,0 -8.84037,-4.6211 -8.0367,-9.04128c0,0 -0.40183,1.60734 -0.40183,3.4156l0,23.30642c-0.20092,2.61193 -3.81743,17.2789 -20.09174,17.2789c-16.47523,0 -20.09174,-14.66697 -20.29266,-17.2789l0,-23.50734c0,-2.00917 -0.40183,-3.4156 -0.40183,-3.4156c0.80367,4.42018 -3.4156,9.04128 -8.0367,9.04128c-4.6211,0 -8.63945,-4.21927 -8.63945,-8.84037c0,-7.43394 5.62569,-12.85871 13.8633,-12.85871c0.80367,0 1.80826,0 2.41101,0.20092c1.40642,-0.80367 4.01835,-1.60734 5.8266,-1.80826l0,-1.80826c-2.21009,-1.00459 -3.61651,-3.21468 -3.61651,-5.8266c0,-3.61651 2.81284,-6.42936 6.42936,-6.42936c3.61651,0 6.42936,2.81284 6.42936,6.42936c0,2.61193 -1.40642,4.82202 -3.61651,5.8266l0,2.41101c0.60275,0.20092 1.2055,0.40183 1.60734,0.60275c1.00459,-2.21009 3.01376,-3.81743 5.22385,-4.6211l0,-2.00917c-2.21009,-1.00459 -3.61651,-3.21468 -3.61651,-5.8266c0,-3.61651 2.81284,-6.42936 6.42936,-6.42936c3.61651,0 6.42936,2.81284 6.42936,6.42936c0,2.61193 -1.40642,4.82202 -3.61651,5.8266l0,2.00917c2.21009,0.80367 4.21927,2.41101 5.22385,4.6211c0.60275,-0.20092 1.2055,-0.40183 1.60734,-0.60275l0,-2.21009l-0.20092,0z" class="st1"/>
    <path fill="#E30521" d="m157.56283,100.20092c0,-6.02752 -4.01835,-10.84954 -12.45688,-10.84954c-5.62569,0 -12.25596,4.6211 -12.25596,16.67614l0,17.68073c2.41101,-1.60734 5.8266,-3.01376 7.63486,-3.01376l0,-16.67614c0,-6.42936 4.6211,-8.23761 6.63027,-8.23761c-1.2055,1.2055 -2.00917,2.41101 -2.00917,4.21927c0,3.4156 2.81284,6.22844 6.22844,6.22844c3.61651,0 6.22844,-2.41101 6.22844,-6.02752" class="st2"/>
    <path fill="#E30521" d="m88.04541,100.20092c0,-6.02752 4.01835,-10.84954 12.45688,-10.84954c5.62569,0 12.25596,4.6211 12.25596,16.67614l0,17.68073c-2.41101,-1.60734 -5.8266,-3.01376 -7.63486,-3.01376l0,-16.67614c0,-6.42936 -4.6211,-8.23761 -6.63027,-8.23761c1.2055,1.2055 2.00917,2.41101 2.00917,4.21927c0,3.4156 -2.81284,6.22844 -6.22844,6.22844c-3.4156,0 -6.02752,-2.41101 -6.22844,-6.02752" class="st2"/>
    <path fill="#E30521" d="m122.80412,141.18807c14.06422,0 17.2789,-11.85413 17.68073,-14.86789l0,-4.01835c-4.42018,1.00459 -8.23761,3.4156 -10.84954,6.83119c-1.00459,-4.01835 -3.4156,-7.43394 -6.83119,-9.64404c-3.21468,2.21009 -5.8266,5.62569 -6.83119,9.64404c-2.61193,-3.4156 -6.42936,-5.8266 -10.84954,-6.83119l0,4.01835c0.40183,3.01376 3.61651,14.86789 17.68073,14.86789" class="st2"/>
    <path fill="#E30521" d="m123.80871,78.90367l0,4.82202c2.41101,0.40183 4.6211,2.00917 5.22385,4.01835c-2.81284,1.80826 -5.22385,4.6211 -6.22844,8.23761c-1.00459,-3.4156 -3.4156,-6.22844 -6.22844,-8.23761c0.80367,-2.00917 2.81284,-3.61651 5.22385,-4.01835l0,-4.82202c-2.00917,-0.40183 -3.4156,-2.21009 -3.4156,-4.42018c0,-2.41101 2.00917,-4.6211 4.42018,-4.6211c2.41101,0 4.6211,2.00917 4.6211,4.6211c0,2.21009 -1.60734,4.01835 -3.61651,4.42018" class="st2"/>
    <path fill="#E30521" d="m111.35183,82.52019l0,5.22385c6.22844,1.2055 10.44771,7.83578 10.44771,13.66238l0,16.67614c-3.01376,1.60734 -5.62569,5.02294 -6.63027,7.83578c-0.20092,-0.20092 -0.40183,-0.60275 -0.80367,-0.80367l0,-21.69908c0,-6.42936 -3.4156,-13.05963 -9.64404,-15.06881c0,0 2.00917,-0.80367 4.6211,-0.80367l0,-5.02294c-2.00917,-0.40183 -3.4156,-2.21009 -3.4156,-4.42018c0,-2.41101 2.00917,-4.6211 4.42018,-4.6211c2.41101,0 4.6211,2.00917 4.6211,4.6211c0,2.00917 -1.60734,3.81743 -3.61651,4.42018" class="st2"/>
    <path fill="#E30521" d="m136.26559,82.52019l0,5.02294c2.61193,0 4.6211,0.80367 4.6211,0.80367c-6.22844,2.21009 -9.64404,8.84037 -9.64404,15.06881l0,21.49816c-0.40183,0.20092 -0.60275,0.60275 -0.80367,0.80367c-1.00459,-2.81284 -3.61651,-6.22844 -6.63027,-7.83578l0,-16.67614c0,-6.02752 4.42018,-12.45688 10.44771,-13.66238l0,-5.22385c-2.00917,-0.40183 -3.4156,-2.21009 -3.4156,-4.42018c0,-2.61193 2.00917,-4.6211 4.42018,-4.6211c2.61193,0 4.6211,2.00917 4.6211,4.6211c0,2.21009 -1.60734,4.21927 -3.61651,4.6211" class="st2"/>
   </g>
</svg>