<svg version="1.1" id="Layer_1" xmlns="http://www.w3.org/2000/svg" xmlns:xlink="http://www.w3.org/1999/xlink" x="0px" y="0px" viewBox="0 0 48 48" style="enable-background:new 0 0 48 48;" xml:space="preserve">
 <g>
  <g>
   <g>
    <path d="M24,0c-0.3,0-0.3,0-0.6,0C10.2,0.3-0.3,10.8,0,24c0,0.3,0,0.3,0,0.6C0.3,37.8,10.8,48.3,24,48c0.3,0,0.3,0,0.6,0
				C37.8,48,48.3,37.2,48,24c0-0.3,0-0.3,0-0.6C47.7,10.5,36.9,0,24,0z M24,45.9c-0.3,0-0.3,0-0.6,0C11.4,45.6,2.1,36,2.1,24l0,0
				c0-0.3,0-0.3,0-0.6C2.1,11.4,12,1.8,24,2.1c0.3,0,0.3,0,0.6,0C36.6,2.4,46.2,12,45.9,24c0,0.3,0,0.3,0,0.6
				C45.6,36.6,35.7,45.9,24,45.9z">
    </path>
    <path d="M18.9,18.3c-1.2,2.7,2.7,6,2.7,6l-7.5-4.8l2.4-0.6v-2.1H5.1l33,21.6v-3.3l-3-1.8c-6.6-4.5-13.5-11.4-12.9-13.2
				c0.3-0.3,0.6-0.3,0.9-0.3h11.7l-6.3,6l1.5,1.5l12.6-9.9h-21C20.7,16.8,19.5,17.4,18.9,18.3z">
    </path>
   </g>
  </g>
 </g>
</svg>