<svg version="1.1" id="Layer_1" xmlns="http://www.w3.org/2000/svg" xmlns:xlink="http://www.w3.org/1999/xlink" x="0px" y="0px" viewBox="0 0 209.9 213.7" style="enable-background:new 0 0 209.9 213.7;" xml:space="preserve">
 <style type="text/css">
  .st0{fill:#EB2227;}
 </style>
 <g>
  <path class="st0" d="M183.5,46.4h0.1c0.1,0,0.1,0,0.1,0c13.1-1.4,26.2-13.2,24.1-27.1c-1.9-12.7-13.4-20.7-25.7-19.1
		c-7,0.9-15.4,5.2-18.9,11.6c-3.3,5.8-3.8,12.8-2.5,19.2C163,41.7,173.2,46.7,183.5,46.4">
  </path>
  <path class="st0" d="M29.6,106c1.5-13-8.1-19-16.9-21.3c-7.8-1.8-14.2-2.8-12.4-8.8c0.1-0.2,0.2-0.4,0.3-0.6
		c2.8-6,9.8-9.1,19.2-11.6c1.3-0.3,2.6-0.7,4-1c8.8-2,19.2-2.8,29.2-4.6c4.5-0.8,8.8-1.8,12.8-3.2c9.3-4.1,15.3-13.1,19.1-22.2
		c1.6-3.7,2.8-7.5,3.7-11C90,16.2,91,11.4,92.7,7.9c1.7-3.2,4.1-5.3,7.9-5.9c7.4-0.8,10.4,7.3,12.8,19c2.8,13.5,2.4,32.5,8.9,44.1
		c3.5,4.7,10.2,6.4,18.2,6.4c9.5,0,20.8-2.5,30.9-5.5c12.6-3.7,23.6-7.1,30.6-6.5c3.6,0.3,6.2,1.7,7.5,4.8c0.3,0.8,0.4,1.7,0.4,2.6
		c-1.5,7.3-14.2,15.8-30.4,25.7c-20.5,12.3-46.4,23.4-56.9,36c-1.8,2.4-2.9,5.1-3.3,7.9c-2.9,12.4,7.1,28.5,18.7,41.7
		c11.1,12.6,21.4,23.3,20.9,30.3c-0.4,1.4-1.4,2.7-3.1,3.7c-1.7,1.1-3.8,1.6-6.1,1.5c-9.2-0.3-22.9-9-37.9-20.1
		c-18.9-13.9-36.7-32.8-51-38.6c-1.3-0.4-2.6-0.7-3.9-0.7c-10.5-0.3-19.7,12.3-25.6,24.6c-5.3,11.4-9.3,21.2-13.8,20.3
		c-0.9-0.2-1.8-0.8-2.8-1.9c-2.5-2.9-3.3-7.9-3.1-14.3c0.3-6.3,1.7-13.8,3.5-22.1c3.4-15.5,9.8-32.4,12.9-46.1
		C28.7,111.7,29.3,108.8,29.6,106">
  </path>
 </g>
</svg>
