<?xml version="1.0" encoding="UTF-8" standalone="no"?>
<!DOCTYPE svg PUBLIC "-//W3C//DTD SVG 1.1//EN" "http://www.w3.org/Graphics/SVG/1.1/DTD/svg11.dtd">
<svg width="100%" height="100%" viewBox="0 0 493 415" version="1.1" xmlns="http://www.w3.org/2000/svg" xmlns:xlink="http://www.w3.org/1999/xlink" xml:space="preserve" xmlns:serif="http://www.serif.com/" style="fill-rule:evenodd;clip-rule:evenodd;stroke-linejoin:round;stroke-miterlimit:2;">
    <g transform="matrix(4.166667,0,0,4.166667,0,0)">
        <g id="surface1" transform="matrix(1,0,0,1,-333.871094,-0.03916)">
            <path d="M333.871,99.488L337.578,99.488C337.578,99.488 339.059,78.164 354.438,80.574C369.816,82.984 388.895,82.809 391.215,79.922C394.727,75.559 353.512,73.898 346.285,79.273C339.059,84.652 352.402,65.18 362.129,65.922C371.855,66.664 400.879,73.742 414.852,66.828C424.07,62.266 366.48,59.129 361.504,63.062C356.523,66.996 366.348,56.508 374.34,52.18C382.332,47.852 382.332,45.23 398.316,49.949C414.301,54.672 427.531,53.754 429.102,52.309C430.676,50.867 414.562,42.871 403.688,43.395C392.812,43.918 384.953,44.051 384.168,44.707C383.379,45.359 399.758,33.43 405.129,32.773C410.5,32.117 418.23,31.594 426.484,31.984C436.699,32.473 450.59,25.953 451.898,23.855C453.211,21.758 436.18,21.496 428.188,23.988C420.195,26.48 404.344,29.758 402.902,31.461C401.461,33.168 403.82,27.789 412.465,24.379C421.113,20.973 441.219,5.754 440.055,0.73C439.492,-1.695 417.445,8.906 403.949,25.691C390.457,42.477 381.414,43 381.414,43C381.414,43 390.719,31.066 395.828,23.988C400.938,16.906 406.309,1.434 405.652,0.121C404.996,-1.188 389.406,13.496 386.523,21.496C383.645,29.496 380.105,43.523 378.27,44.707C376.438,45.887 367.004,55.328 366.219,55.195C365.434,55.062 366.875,47.852 369.102,43.918C371.328,39.984 370.281,20.184 366.348,17.691C362.418,15.203 360.324,33.168 360.977,35.918C361.633,38.672 365.707,53.785 362.883,55.891C356.199,60.875 334.281,83.988 333.871,99.488Z" style="fill:rgb(26,57,49);fill-rule:nonzero;"/>
        </g>
    </g>
</svg>
