<?xml version="1.0" encoding="UTF-8" standalone="no"?>
<!DOCTYPE svg PUBLIC "-//W3C//DTD SVG 1.1//EN" "http://www.w3.org/Graphics/SVG/1.1/DTD/svg11.dtd">
<svg width="100%" height="100%" viewBox="0 0 1877 1914" version="1.1" xmlns="http://www.w3.org/2000/svg" xmlns:xlink="http://www.w3.org/1999/xlink" xml:space="preserve" xmlns:serif="http://www.serif.com/" style="fill-rule:evenodd;clip-rule:evenodd;stroke-linejoin:round;stroke-miterlimit:2;">
    <g transform="matrix(12.5,0,0,12.5,0,0)">
        <g transform="matrix(0.594971,0,0,0.594971,-181.308914,-306.167305)">
            <path d="M452.3,674.6L404.7,674.6L408.5,658.4L439.1,658.4C449.6,658.4 454.7,649.3 447.2,644.1C439.9,639 435.1,634.9 427.8,629.7C413.1,619.2 420,594.9 444.7,594.7L489.6,594.7L485.7,610.7L455.6,610.7C447.3,610.6 445.5,619.7 450.9,623L470.2,637.3C486.1,649.4 476.8,674.6 452.3,674.6ZM507,761.7C502.2,770.6 490.8,774.4 481.6,770C432.8,746.8 389.8,714.2 354.1,674.6L398.7,674.6L402.7,658.5L374.5,658.5C373.7,658.5 372.9,658.5 372.1,658.4C367.9,657.8 365.4,656.1 364,653.9C362.6,651.7 362.2,649.3 362.5,647.3C362.5,646.8 364,640.7 364.1,640.1L364.1,639.9L368.3,623.1C370.2,615.3 376.7,610.7 385.3,610.4L414.2,610.4L418,594.5L398.1,594.5L373.1,603.9L375.5,594.5L372,594.5C364,594.4 358.4,595.1 354.4,596.9C350.8,598.6 348.2,601.3 347,605.3L335.5,652.5C325.5,639.8 316.2,626.6 307.6,612.7C302.3,604.1 304.5,592.3 313,586.5C378.7,541.7 456.4,516.4 535.9,514.6C546.2,514.3 554.9,522.4 555.8,532.6C557.5,553.3 557.5,574 556,594.7L513.6,594.7L473.4,674.2L502.8,674.2L507.5,663.6C508,662.5 508.5,662.2 509.8,662.2L530.9,662.2C531.3,662.2 532.2,662.3 532.2,663.4L532.5,674.2L542,674.2C533.8,704.6 522,734 507,761.7ZM531.9,648L530.9,615.5C530.9,614.4 529.9,614.3 529.4,615.4L514.6,648.3C514,649.6 514.4,650.8 515.5,650.7L530.4,650.7C531.6,650.6 532,649.6 531.9,648Z" style="fill:rgb(239,0,30);"/>
        </g>
    </g>
</svg>
