<?xml version="1.0" encoding="UTF-8" standalone="no"?>
<!-- Created with Inkscape (http://www.inkscape.org/) -->

<svg
   width="100.48792pt"
   height="100.19361pt"
   viewBox="0 0 35.449904 35.34608"
   version="1.1"
   id="svg1"
   inkscape:version="1.4.3 (0d15f75042, 2025-12-25)"
   sodipodi:docname="edelweiss-air.svg"
   xmlns:inkscape="http://www.inkscape.org/namespaces/inkscape"
   xmlns:sodipodi="http://sodipodi.sourceforge.net/DTD/sodipodi-0.dtd"
   xmlns="http://www.w3.org/2000/svg"
   xmlns:svg="http://www.w3.org/2000/svg">
  <sodipodi:namedview
     id="namedview1"
     pagecolor="#ffffff"
     bordercolor="#000000"
     borderopacity="0.25"
     inkscape:showpageshadow="2"
     inkscape:pageopacity="0.0"
     inkscape:pagecheckerboard="0"
     inkscape:deskcolor="#d1d1d1"
     inkscape:document-units="mm"
     inkscape:zoom="6.0169257"
     inkscape:cx="0.16619783"
     inkscape:cy="70.218584"
     inkscape:window-width="2560"
     inkscape:window-height="1368"
     inkscape:window-x="0"
     inkscape:window-y="0"
     inkscape:window-maximized="1"
     inkscape:current-layer="layer1" />
  <defs
     id="defs1" />
  <g
     inkscape:label="Layer 1"
     inkscape:groupmode="layer"
     id="layer1"
     transform="translate(-0.08067962,-0.08753009)">
    <path
       fill-rule="evenodd"
       clip-rule="evenodd"
       fill="#d62a40"
       d="M 0.08067962,0.08753009 V 35.433609 H 35.530582 V 0.08753009 Z M 31.508365,17.336332 c -0.741071,0.741081 -2.962506,1.693377 -4.231646,2.010212 -1.904597,0.528046 -2.964302,0.422437 -3.597974,0.633656 0.21122,0.107376 2.011999,0.633658 2.856901,2.117613 0.211217,0.42244 0.211217,1.163525 -0.422437,1.37475 -1.376544,0.531633 -3.068125,-0.422438 -3.386755,-0.633656 1.163531,2.751292 2.012006,3.701802 4.022217,6.136254 0.633657,0.741069 0.529874,1.9046 -1.057914,1.800777 -2.434449,-0.318656 -5.92681,-3.388545 -6.773501,-5.608191 -0.211219,1.269138 -0.316828,1.90281 -0.846687,2.432662 -0.316828,0.422437 -0.846689,0.318654 -1.057916,0 -0.422436,-0.531634 -0.633654,-2.432662 -0.633654,-2.432662 0,0 -2.540068,3.597978 -6.138037,5.289563 -1.5877686,0.74107 -1.7989939,-0.318655 -1.4821545,-0.635483 0.7410724,-1.056122 1.3765375,-2.328839 1.7989855,-3.384962 0.42244,-0.95409 0.633659,-2.328839 2.115824,-3.81099 -1.482151,0.422437 -3.0681198,0.318654 -3.8091983,0 C 8.1233464,22.416415 8.1233464,21.884795 8.3345451,21.462352 8.9700267,20.615662 10.663384,19.874584 12.35676,19.452141 8.9700064,19.029703 8.2289371,18.28861 6.2187231,17.866166 4.7365738,17.549338 3.8916789,17.338118 3.5730494,16.913862 3.4674305,16.702643 3.3618319,16.067173 4.1029213,15.64473 c 0.7410801,-0.21122 4.0204312,-0.952306 5.5025821,-1.163526 0.6354846,-0.105619 2.1176156,-0.42426 3.2811386,0.952299 -0.741081,-1.904602 -1.798987,-3.281136 -2.434457,-4.337258 -0.424262,-0.741078 0,-1.2691385 0.846689,-1.057916 0.952305,0.105619 2.645681,1.482155 4.126039,2.962509 0.105619,0.213046 0.422438,0.107455 0.422438,-0.105603 0.952297,-2.751292 0.741072,-3.9166083 0.846689,-6.9847264 0,-0.9523054 0.741073,-1.9046046 1.904596,-0.7410801 1.693376,1.904603 1.798986,5.6081915 1.482151,8.7819275 0.741078,-0.84669 1.693378,-1.587764 2.751291,-2.11583 2.538273,-1.163522 2.221438,0.528049 1.798985,1.376543 -0.318652,0.633657 -0.741072,1.58776 -2.010211,2.432664 0.105619,0.107423 1.057914,-0.528049 2.538272,-0.633657 1.482152,0 1.904604,0.105619 3.809198,0.211218 1.163531,0.105619 1.693376,0.105619 2.328838,0.105619 0.739286,-0.0017 1.587769,0.739277 0.211221,2.008417 z"
       id="path1"
       style="stroke-width:1.79004" />
    <g
       id="g2"
       transform="matrix(1.776715,0,0,1.776715,-15.028508,-12.16292)">
      <path
         fill-rule="evenodd"
         clip-rule="evenodd"
         fill="#3b5fa4"
         d="m 18.059,9.273 c -0.287,0.119 -0.479,0.47 -0.479,0.873 0,0 -0.021,0.919 -0.021,0.919 -0.017,1.046 -0.032,1.695 -0.417,2.836 -0.657,-0.659 -1.688,-1.58 -2.349,-1.653 -0.286,-0.073 -0.548,-0.009 -0.693,0.182 -0.067,0.088 -0.101,0.194 -0.101,0.31 0,0.126 0.041,0.265 0.121,0.405 0.002,0.004 0.304,0.479 0.304,0.479 0.218,0.335 0.463,0.748 0.697,1.201 -0.518,-0.219 -1.023,-0.145 -1.287,-0.1 -0.884,0.127 -2.723,0.543 -3.14,0.663 -0.369,0.206 -0.486,0.484 -0.486,0.716 0,0.108 0.025,0.206 0.063,0.282 0.247,0.334 0.775,0.46 1.618,0.641 0.001,0 1.066,0.319 1.066,0.319 0.397,0.142 0.913,0.287 1.565,0.418 -0.567,0.203 -1.24,0.51 -1.57,0.949 -0.073,0.142 -0.107,0.271 -0.107,0.39 0,0.08 0.015,0.153 0.045,0.222 0.052,0.118 0.176,0.277 0.466,0.359 0.346,0.15 1.023,0.179 1.73,0.07 -0.394,0.512 -0.627,0.997 -0.77,1.396 l -0.146,0.383 c -0.269,0.671 -0.627,1.345 -0.985,1.856 -0.072,0.069 -0.11,0.179 -0.11,0.296 0,0.103 0.03,0.211 0.093,0.301 0.091,0.13 0.381,0.396 1.099,0.062 1.52,-0.715 2.69,-1.997 3.212,-2.638 0.062,0.352 0.163,0.781 0.324,0.984 0.088,0.133 0.261,0.228 0.441,0.232 0.184,0.006 0.356,-0.081 0.474,-0.237 0.228,-0.228 0.324,-0.541 0.405,-0.934 0.715,1.201 2.367,2.618 3.661,2.787 0.636,0.042 0.87,-0.232 0.954,-0.4 0.14,-0.28 0.069,-0.649 -0.181,-0.941 0.002,0.002 -0.166,-0.2 -0.166,-0.2 -0.853,-1.031 -1.31,-1.611 -1.806,-2.657 0.416,0.166 1,0.313 1.535,0.107 v 0 c 0,-0.006 0.382,-0.355 0.382,-0.355 L 23.466,19.1 c -0.298,-0.522 -0.73,-0.802 -1.107,-0.996 0.171,-0.031 1.393,-0.252 1.393,-0.252 0.692,-0.173 1.997,-0.718 2.455,-1.175 0.364,-0.336 0.471,-0.616 0.471,-0.829 0,-0.084 -0.017,-0.158 -0.042,-0.221 -0.115,-0.293 -0.43,-0.424 -0.692,-0.424 l -1.282,-0.059 c -0.007,0 -0.938,-0.064 -0.938,-0.064 l -1.208,-0.054 c -0.008,0 -0.372,0.089 -0.709,0.171 0.265,-0.304 0.456,-0.597 0.566,-0.82 0.124,-0.248 0.21,-0.516 0.21,-0.749 0,-0.168 -0.045,-0.319 -0.154,-0.431 -0.235,-0.244 -0.661,-0.22 -1.3,0.074 -0.467,0.233 -0.85,0.587 -1.224,0.94 0.025,-0.343 0.055,-0.684 0.055,-1.046 0,-1.339 -0.216,-2.734 -0.958,-3.568 C 18.584,9.178 18.259,9.191 18.059,9.273 Z m -0.803,5.095 c 0.153,-0.036 0.26,-0.167 0.26,-0.319 0.425,-1.191 0.435,-1.863 0.453,-2.976 l 0.021,-0.919 c 0,-0.235 0.097,-0.448 0.226,-0.501 0.118,-0.049 0.296,0.034 0.488,0.226 0.922,1.037 0.928,3.151 0.769,4.741 -0.009,0.089 0.041,0.173 0.122,0.208 0.082,0.035 0.177,0.014 0.235,-0.053 0.405,-0.462 0.915,-0.854 1.475,-1.134 0.5,-0.229 0.76,-0.229 0.829,-0.158 0.082,0.084 0.037,0.383 -0.098,0.652 -0.199,0.4 -0.43,0.864 -1.054,1.28 -0.051,0.034 -0.083,0.089 -0.09,0.149 -0.007,0.06 0.015,0.121 0.058,0.165 0.116,0.118 0.252,0.064 0.458,-0.016 0,0 1.121,-0.278 1.121,-0.278 0,10e-4 1.161,0.054 1.161,0.054 l 0.941,0.065 c -0.007,0 1.312,0.059 1.312,0.059 0.123,0 0.269,0.057 0.311,0.164 0.008,0.021 0.012,0.044 0.012,0.07 0,0.138 -0.123,0.331 -0.344,0.535 -0.366,0.366 -1.555,0.895 -2.275,1.075 -0.005,10e-4 -1.429,0.259 -1.429,0.259 l -0.596,0.1 c -0.091,0.015 -0.103,0.103 -0.112,0.194 0,0.004 0,0.007 0,0.011 0,0.088 0.105,0.182 0.188,0.214 0.255,0.099 1.031,0.399 1.408,1.059 0,0 0,0.002 0,0.007 0,0.05 0.02,0.338 0.02,0.338 l -0.142,0.127 c -0.63,0.243 -1.452,-0.155 -1.715,-0.33 -0.076,-0.05 -0.174,-0.044 -0.244,0.014 -0.07,0.058 -0.093,0.154 -0.058,0.237 0.628,1.485 1.093,2.047 2.11,3.275 l 0.167,0.203 c 0.141,0.164 0.192,0.366 0.128,0.494 -0.066,0.133 -0.261,0.195 -0.548,0.177 -1.303,-0.171 -3.172,-1.864 -3.606,-3.002 -0.033,-0.086 -0.12,-0.14 -0.212,-0.131 -0.092,0.01 -0.167,0.079 -0.182,0.171 -0.114,0.685 -0.166,0.997 -0.416,1.248 -0.057,0.072 -0.102,0.097 -0.153,0.096 -0.048,-0.001 -0.097,-0.027 -0.122,-0.064 -0.147,-0.187 -0.275,-0.852 -0.321,-1.269 -0.009,-0.085 -0.07,-0.154 -0.152,-0.176 -0.083,-0.021 -0.17,0.014 -0.219,0.08 -0.014,0.02 -1.413,1.978 -3.349,2.888 -0.375,0.176 -0.545,0.131 -0.587,0.077 0.003,-0.004 0.011,-0.125 0.014,-0.13 0.375,-0.535 0.75,-1.239 1.027,-1.932 -0.002,0.006 0.155,-0.404 0.155,-0.404 0.167,-0.467 0.375,-1.049 0.982,-1.656 0.066,-0.065 0.079,-0.168 0.031,-0.248 -0.047,-0.081 -0.143,-0.119 -0.232,-0.094 -0.756,0.217 -1.606,0.175 -1.991,0.009 -0.101,-0.03 -0.197,-0.07 -0.228,-0.14 -0.008,-0.019 -0.012,-0.04 -0.012,-0.063 0,-0.049 0.016,-0.106 0.046,-0.167 0.27,-0.354 1.107,-0.764 2.113,-1.016 0.091,-0.023 0.155,-0.105 0.155,-0.199 0,-0.004 0,-0.008 0,-0.012 -0.006,-0.099 -0.082,-0.179 -0.179,-0.191 -1.152,-0.144 -1.732,-0.351 -2.294,-0.55 l -1.118,-0.333 c -0.706,-0.151 -1.217,-0.273 -1.354,-0.454 0,-0.004 -0.008,-0.03 -0.008,-0.07 0,-0.083 0.034,-0.222 0.24,-0.339 0.353,-0.095 2.188,-0.509 3.001,-0.625 0.417,-0.071 1.099,-0.187 1.648,0.461 0.064,0.076 0.175,0.095 0.261,0.043 0.086,-0.051 0.123,-0.157 0.086,-0.25 -0.32,-0.822 -0.742,-1.471 -1.081,-1.992 l -0.294,-0.463 c -0.077,-0.134 -0.074,-0.225 -0.047,-0.26 0.032,-0.042 0.135,-0.066 0.294,-0.027 0.434,0.05 1.271,0.662 2.21,1.601 0.03,0.081 0.176,0.15 0.326,0.115 z m -1.661,5.316 c -0.019,0.005 -0.038,0.008 -0.056,0.008 0.019,-0.006 0.037,-0.004 0.056,-0.008 z m 7.525,0.466 z"
         id="path2" />
    </g>
    <polygon
       fill-rule="evenodd"
       clip-rule="evenodd"
       fill="#6c6b84"
       stroke="#ffffff"
       stroke-width="0.1773"
       stroke-miterlimit="2.6131"
       points="16.839,18.304 18.376,18.955 19.5,18.246 19.677,16.59 18.435,15.585 16.78,16.472 "
       id="polygon2"
       transform="matrix(1.776715,0,0,1.776715,-15.028508,-12.16292)" />
    <path
       fill-rule="evenodd"
       clip-rule="evenodd"
       fill="#ffea00"
       enable-background="new    "
       d="m 19.091528,16.893479 c 0.840386,0.316284 1.680773,0 1.997031,-0.735563 0.209645,-0.735557 -0.209649,-1.575942 -1.05004,-1.89042 -0.840389,-0.316284 -1.785598,0 -1.995251,0.735559 -0.31803,0.733781 0.103073,1.574167 1.04826,1.890424 z m -2.625983,-0.316281 c 0.735561,-0.524118 1.050039,-1.471123 0.735561,-1.995251 -0.314471,-0.630755 -1.259693,-0.630755 -2.100078,-0.104833 -0.735559,0.524119 -1.154867,1.471121 -0.735559,1.995259 0.314471,0.630752 1.259687,0.630752 2.100076,0.104817 z m -1.364517,2.100073 c -0.104833,-0.94521 -0.735559,-1.785598 -1.366294,-1.678996 -0.73556,0 -1.259693,0.840389 -1.154867,1.890429 0,0.945212 0.630753,1.680772 1.366294,1.680772 0.733785,-0.104833 1.259693,-0.945215 1.154867,-1.892205 z m 1.154862,1.99703 c -0.945212,-0.419294 -1.997023,-0.104833 -2.311507,0.524117 -0.314471,0.840387 0.209647,1.678993 1.154869,2.10008 0.945212,0.421108 1.995252,0.211393 2.309729,-0.524115 0.31447,-0.735566 -0.207901,-1.679004 -1.153091,-2.100082 z m 6.090583,-1.785597 c 0.106655,-1.05004 -0.419294,-1.997031 -1.154866,-2.101855 -0.732011,-0.209647 -1.464016,0.627194 -1.677221,1.671891 -0.0035,-0.906128 -0.56501,-1.739403 -1.47289,-1.986367 -1.050043,-0.314471 -2.31151,0.31447 -2.625993,1.471121 -0.419293,1.154863 0.209646,2.414549 1.366298,2.730807 1.05004,0.421108 2.309727,-0.316285 2.625983,-1.47112 0.08702,-0.241613 0.104818,-0.485036 0.104818,-0.724901 -0.09239,0.957654 0.262965,1.794482 0.8848,2.014799 -0.504576,-0.238054 -1.192173,-0.198975 -1.725188,0.181251 -0.840387,0.421108 -1.15487,1.469348 -0.735562,2.100081 0.421103,0.735555 1.366295,0.840385 2.20668,0.316217 0.840389,-0.52412 1.050036,-1.47112 0.735558,-2.206679 -0.09951,-0.14747 -0.238051,-0.261151 -0.394448,-0.349992 0.0282,0.0076 0.04768,0.03223 0.07816,0.03759 0.838614,0.103073 1.574171,-0.6325 1.783826,-1.682545 z"
       id="path3"
       style="stroke-width:1.77672" />
    <path
       fill-rule="evenodd"
       clip-rule="evenodd"
       fill="#3b5fa4"
       d="m 14.079417,16.699816 v -0.0056 c 0,0.0017 0,0.0017 0,0.0017 0,0.0017 0,0.0017 0,0.0036 z m 7.234783,-0.24517 c 0.03223,-0.05506 0.07998,-0.09414 0.106655,-0.152764 0.284249,-0.984306 -0.275389,-2.009467 -1.257915,-2.37725 -0.5632,-0.211391 -1.195733,-0.186553 -1.691431,0.06045 l -0.781758,0.916784 c -0.01405,0.03223 -0.0088,0.06749 -0.02154,0.101267 -0.01065,-0.216764 -0.05171,-0.42816 -0.158137,-0.607654 -0.0017,0.01281 -0.76576,-0.605839 -0.76576,-0.605839 -0.532982,-0.149199 -1.222385,-0.0076 -1.840684,0.378464 -0.580993,0.412175 -0.978967,1.018056 -1.058916,1.591939 0,0 0.229187,0.927443 0.231001,0.934547 0.0035,-0.0036 0.06044,0.03759 0.138593,0.09594 -0.248727,-0.0693 -0.536538,-0.149199 -0.540099,-0.151021 0,0.02154 -0.952319,0.461933 -0.952319,0.461933 -0.339318,0.374908 -0.522372,0.916787 -0.522372,1.519093 0,0.101267 0.0052,0.200787 0.01609,0.305609 v 0.0036 c 0,1.00918 0.675147,1.835349 1.529751,1.957942 -0.03759,0.05306 -0.09951,0.09058 -0.127927,0.149198 -0.38733,1.02517 0.166998,2.073429 1.332542,2.595781 0.641364,0.284253 1.359185,0.323401 1.920626,0.103073 l 0.788861,-0.737337 c 0.08527,0.05707 0.971862,0.730233 0.971862,0.730233 0.538354,0.135043 1.140657,0.02154 1.700315,-0.328708 1.000294,-0.623637 1.199285,-1.725186 0.90435,-2.544254 0.703577,-0.236305 1.273908,-0.939884 1.464014,-1.893979 0.01065,-0.110144 0.01609,-0.218507 0.01609,-0.323333 0.0036,-1.106898 -0.586298,-2.016573 -1.401825,-2.183586 z m -2.938689,-1.307668 c 0.01609,-0.04432 0.426414,-0.509947 0.426414,-0.509947 0.316282,-0.15988 0.730231,-0.170576 1.108668,-0.02822 0.628941,0.236306 0.993185,0.870584 0.827952,1.448019 -0.22388,0.511694 -0.868811,0.737336 -1.519094,0.4939 -0.0036,-0.0017 -0.0076,-0.0036 -0.01281,-0.0056 -0.394446,-0.129671 -0.687591,-0.373093 -0.82439,-0.678701 -0.106577,-0.232746 -0.108399,-0.483287 -0.0076,-0.719575 z m 1.18507,2.199579 c -0.0036,0.0056 -0.0052,0.01281 -0.0088,0.01744 -0.0036,-0.0088 -0.01405,-0.01405 -0.01948,-0.02484 0.0088,0.0017 0.01744,0.0056 0.02822,0.0076 z m -0.135043,2.67573 c -0.03759,0.0056 -0.07643,-0.0035 -0.113693,0.0036 0.02484,-0.03558 0.04768,-0.0693 0.07104,-0.104833 0.01281,0.03358 0.02484,0.07104 0.04231,0.101267 z m -1.828236,-4.409809 c 0.01405,0.184809 0.03896,0.373095 0.12081,0.554336 0,0.0017 0.0017,0.0017 0.0017,0.0017 -0.122616,-0.01281 -0.243425,-0.03759 -0.367789,-0.03021 0.104833,-0.172367 0.190112,-0.346432 0.245171,-0.52593 z m 0.362413,1.13177 c 0.477919,0.129686 0.861711,0.444208 1.090903,0.88303 0.09414,0.182996 0.131493,0.382024 0.159881,0.580992 -0.01609,0.0638 -0.04097,0.12436 -0.05506,0.188368 -0.01281,0.126183 -0.01948,0.254101 -0.01948,0.376651 0,0.0693 0.02153,0.129687 0.02484,0.197228 -0.01281,0.04432 -0.0036,0.09413 -0.01948,0.135043 -0.147469,0.536538 -0.518813,0.986078 -1.002069,1.224156 -0.417546,0.207904 -0.863486,0.236306 -1.254359,0.07998 l -0.03021,-0.01065 c -0.470865,-0.127942 -0.856377,-0.440649 -1.083798,-0.881256 -0.234561,-0.453072 -0.26827,-0.993185 -0.09058,-1.480005 0.127911,-0.46724 0.426409,-0.835055 0.835051,-1.080239 0.04769,-0.02484 0.09596,-0.04231 0.143904,-0.07285 0,0 0,0 0,0 0.417548,-0.204344 0.884802,-0.266524 1.300556,-0.140338 z m -2.647302,-1.972154 c 0.421108,-0.261155 0.902567,-0.374908 1.238366,-0.280693 l 0.325148,0.254101 c 0.05171,0.08702 0.07641,0.197228 0.07641,0.321585 0,0.382025 -0.246981,0.88303 -0.694695,1.208169 -0.437088,0.266525 -0.911453,0.382024 -1.243699,0.287812 l -0.325147,-0.254101 c -0.04095,-0.0638 -0.12081,-0.449513 -0.12081,-0.449513 0.05306,-0.369532 0.349993,-0.806627 0.744449,-1.087348 z m -0.02484,5.028104 c 0.06749,0.127911 0.177694,0.218508 0.264711,0.328705 -0.154579,-0.01281 -0.298489,0.01948 -0.445954,0.03358 0.07104,-0.11195 0.127942,-0.232747 0.181252,-0.362483 z m -0.348247,-2.519384 c 0.154579,0.03021 0.318029,0.03558 0.488594,0.02283 -0.08347,0.140338 -0.168744,0.278949 -0.222068,0.43709 -0.07459,-0.168742 -0.163439,-0.323334 -0.266523,-0.460188 z m -1.021609,2.910257 c -0.529488,-0.02282 -0.975421,-0.60228 -0.975421,-1.302327 -0.0076,-0.08353 -0.01281,-0.166997 -0.01281,-0.248727 0,-0.438837 0.119065,-0.813736 0.33401,-1.050043 l 0.470866,-0.229187 c 0.06045,-0.0036 0.39089,0.108399 0.39089,0.108399 0.309164,0.232745 0.55608,0.735556 0.612958,1.24903 0.0076,0.06581 0.01065,0.129687 0.01065,0.193671 0,0.641364 -0.353552,1.1904 -0.831502,1.279235 z m 3.157219,2.439432 -0.469051,0.424666 c -0.383772,0.15102 -0.891914,0.117259 -1.359188,-0.09059 -0.673373,-0.298488 -1.231263,-0.922116 -0.96298,-1.638133 0.206091,-0.408616 1.057147,-0.659156 1.82291,-0.321587 0.620076,0.275387 1.030498,0.826171 1.030498,1.312991 0,0.110143 -0.01948,0.21495 -0.06246,0.312726 z m 0.506388,-1.240147 c -0.07285,-0.126182 -0.174134,-0.239865 -0.273641,-0.353552 0.156324,0.0088 0.307352,-0.0017 0.465495,-0.03021 -0.07998,0.115515 -0.135043,0.250543 -0.191927,0.383772 z m 2.368365,1.391168 c -0.381958,0.238053 -0.795965,0.326896 -1.137095,0.241613 l -0.561455,-0.428158 c -0.140338,-0.213204 -0.170554,-0.481476 -0.09769,-0.758657 0.09594,-0.357111 0.349989,-0.669835 0.680483,-0.836833 0.358925,-0.252289 0.763989,-0.342942 1.131764,-0.27539 l 0.609401,0.362484 c 0.05506,0.133237 0.0871,0.294929 0.0871,0.465494 0,0.421105 -0.193669,0.906128 -0.712463,1.229489 z m 0.662719,-2.572683 c -0.442394,-0.0638 -0.753332,-0.678707 -0.753332,-1.428478 0,-0.09059 0.0056,-0.184811 0.01405,-0.275391 0.11195,-0.550775 0.417549,-1.069581 0.774645,-1.286338 l 0.444207,-0.08172 c 0.582741,0.08702 0.977195,0.883027 0.893692,1.716303 -0.172368,0.845717 -0.751553,1.430258 -1.373401,1.355632 z"
       id="path4"
       style="stroke-width:1.77672" />
    <path
       style="fill:#ffffff;fill-rule:evenodd;stroke:none;stroke-width:0.762933;stroke-linecap:round;stroke-opacity:1;paint-order:stroke fill markers"
       d="M 11.739258,18.860386 C 10.709354,18.705536 9.8296787,18.495015 8.8667887,18.172944 7.9357066,17.861496 6.3210704,17.385431 5.8112073,17.271972 4.4675494,16.972946 3.8867888,16.746982 3.841495,16.505533 3.8199604,16.392179 3.8844717,16.198918 3.9813698,16.085902 4.1351688,15.90626 4.2174064,15.8676 4.6896973,15.7531 6.1766046,15.392631 8.2792234,14.95829 9.4706585,14.765477 10.15105,14.65535 10.455057,14.631052 10.776094,14.660861 c 0.685961,0.0638 1.158531,0.302116 1.6696,0.841771 0.0787,0.08307 0.167405,0.152687 0.214406,0.16822 0.109248,0.03625 0.261354,0.01482 0.350262,-0.04833 0.0977,-0.06956 0.168606,-0.230396 0.150742,-0.342 -0.03694,-0.230196 -0.591335,-1.408488 -0.985916,-2.095019 -0.229525,-0.399349 -0.530832,-0.884928 -1.121879,-1.808173 -0.39438,-0.616047 -0.445148,-0.71014 -0.462605,-0.857242 -0.01609,-0.138733 0.03357,-0.196617 0.189024,-0.219981 0.1335,-0.02016 0.482615,0.03896 0.687718,0.116164 0.77709,0.29251 2.049051,1.251246 3.258738,2.456298 0.471739,0.469926 0.53231,0.510351 0.764882,0.510351 0.303861,0 0.55091,-0.195144 0.597513,-0.472075 0.0088,-0.05036 0.08213,-0.297413 0.163643,-0.54903 0.172299,-0.531706 0.299764,-1.009288 0.394112,-1.476558 0.185059,-0.9164636 0.226904,-1.5137681 0.277536,-3.9596599 0.01343,-0.648279 0.03021,-1.2147897 0.03694,-1.2588531 0.03424,-0.2159716 0.117831,-0.4170125 0.227307,-0.5470832 0.13827,-0.164324 0.306211,-0.1828608 0.550307,-0.060451 0.301846,0.1510821 0.582002,0.4404443 0.854349,0.8824354 0.938702,1.5234128 1.269988,3.8816902 1.019237,7.2555658 -0.01948,0.258062 -0.03961,0.490809 -0.04498,0.517198 -0.0093,0.04432 -0.03089,0.04903 -0.279822,0.06178 -0.274982,0.01405 -0.440782,0.04699 -0.677307,0.133978 -0.127849,0.04699 -0.149476,0.06789 -0.532243,0.516259 -0.219461,0.257055 -0.403246,0.453811 -0.408414,0.437156 -0.0052,-0.01677 -0.01609,-0.0755 -0.02349,-0.130813 -0.0082,-0.05506 -0.03626,-0.1517 -0.06312,-0.214158 -0.04298,-0.09972 -0.09676,-0.152039 -0.443401,-0.430506 -0.386189,-0.310239 -0.397806,-0.317492 -0.549501,-0.343951 -0.307016,-0.0537 -0.7424,-0.0022 -1.113947,0.131277 -0.695603,0.249805 -1.260669,0.788035 -1.523486,1.451194 -0.13478,0.340125 -0.134981,0.362687 -0.0062,0.888571 0.06246,0.255509 0.127186,0.480601 0.143488,0.500209 0.02552,0.03089 0.0235,0.03357 -0.01609,0.02221 -0.02484,-0.0076 -0.123619,-0.03492 -0.218985,-0.06112 l -0.173387,-0.04699 -0.433195,0.208831 c -0.238255,0.114836 -0.455691,0.21751 -0.483288,0.228048 -0.134302,0.05171 -0.402102,0.521965 -0.487655,0.856382 -0.06513,0.254704 -0.09979,0.580254 -0.08575,0.805372 0.01405,0.225692 0.06769,0.210055 -0.452263,0.131894 z"
       id="path7" />
    <path
       style="fill:#ffffff;fill-rule:evenodd;stroke:none;stroke-width:0.762933;stroke-linecap:round;stroke-opacity:1;paint-order:stroke fill markers"
       d="m 25.277632,30.131909 c -0.649623,-0.134781 -1.471348,-0.506995 -2.254489,-1.021199 -0.694615,-0.456091 -1.26622,-0.920697 -1.908048,-1.550867 -0.896284,-0.879993 -1.512451,-1.685094 -1.857019,-2.426424 -0.06446,-0.13847 -0.134163,-0.286402 -0.155051,-0.328708 -0.118124,-0.238859 -0.503503,-0.254974 -0.64217,-0.02685 -0.02283,0.03759 -0.06513,0.205025 -0.09361,0.372157 -0.18882,1.101678 -0.304663,1.478008 -0.559303,1.816748 -0.160492,0.213545 -0.296608,0.329713 -0.386186,0.329576 -0.104709,-1.19e-4 -0.20609,-0.0689 -0.274652,-0.186146 -0.169014,-0.289155 -0.352342,-1.012591 -0.484564,-1.912347 -0.05977,-0.40687 -0.0889,-0.475903 -0.228518,-0.54218 -0.100326,-0.04769 -0.248728,-0.04769 -0.349521,3.78e-4 -0.05306,0.02484 -0.146404,0.125781 -0.281699,0.303254 -0.836413,1.097005 -2.083636,2.377362 -3.159484,3.243408 -0.896135,0.721387 -1.925412,1.375361 -2.7038116,1.717935 -0.3931715,0.173047 -0.7434421,0.236307 -0.8896445,0.160764 -0.051035,-0.0262 -0.056407,-0.04231 -0.052378,-0.148087 0.00463,-0.104879 0.023495,-0.145849 0.1647315,-0.35664 0.3650345,-0.544061 0.6747921,-1.083569 1.0313336,-1.796202 0.367584,-0.734695 0.517737,-1.086831 0.938427,-2.200746 0.135521,-0.358791 0.295128,-0.760464 0.354695,-0.892639 0.297479,-0.659829 0.699823,-1.260517 1.200175,-1.792009 0.240067,-0.254973 0.25625,-0.281834 0.257391,-0.426076 0.0015,-0.186871 -0.100125,-0.320378 -0.280826,-0.369063 -0.07396,-0.02016 -0.132619,-0.01281 -0.361408,0.04432 -0.592277,0.147192 -1.107953,0.20838 -1.756395,0.20838 -0.6586201,0 -1.08757,-0.05843 -1.5258361,-0.208968 -0.2587321,-0.08862 -0.3301145,-0.123156 -0.4102943,-0.198225 -0.083946,-0.0785 -0.098998,-0.177558 -0.051714,-0.340523 0.033575,-0.115516 0.063122,-0.157001 0.2168993,-0.307151 0.5541333,-0.540099 1.8360341,-1.14649 3.2276221,-1.526864 l 0.331728,-0.09065 0.04903,0.121118 c 0.02684,0.06649 0.09758,0.195822 0.15667,0.287072 0.262763,0.406267 0.641095,0.682955 1.068688,0.78165 l 0.108321,0.02484 -0.05573,0.06649 c -0.03089,0.03625 -0.07922,0.140493 -0.107643,0.230935 -0.04364,0.139072 -0.05171,0.215561 -0.05171,0.496316 0,0.370071 0.03558,0.531907 0.182727,0.822989 0.510216,1.011748 1.93169,1.610828 3.039992,1.281207 0.149013,-0.04432 0.172436,-0.06178 0.546277,-0.412108 0.258802,-0.242415 0.39935,-0.358992 0.41654,-0.345695 0.01405,0.01065 0.23295,0.175131 0.485908,0.364564 l 0.459921,0.344486 0.176606,0.02822 c 0.621553,0.100248 1.406815,-0.172844 1.91156,-0.664869 0.277131,-0.270216 0.451055,-0.555878 0.566958,-0.931626 0.05773,-0.187211 0.06178,-0.229456 0.06112,-0.601877 -7.93e-4,-0.333808 -0.0088,-0.426143 -0.04699,-0.554067 l -0.04636,-0.153583 0.168222,-0.0799 c 0.207971,-0.09878 0.349524,-0.194599 0.508605,-0.344418 0.426011,-0.401029 0.731508,-1.0279 0.781308,-1.603262 0.06581,-0.762153 -0.199178,-1.54759 -0.674967,-1.999568 -0.190633,-0.181116 -0.344823,-0.277738 -0.55541,-0.348178 l -0.143224,-0.04769 0.04699,-0.06581 c 0.0799,-0.112274 0.119467,-0.36396 0.105898,-0.673925 -0.01405,-0.325079 -0.05171,-0.47684 -0.187756,-0.758823 -0.179302,-0.371819 -0.500411,-0.711637 -0.840297,-0.889128 -0.07232,-0.03759 -0.131492,-0.07419 -0.131554,-0.08092 -6.7e-5,-0.01544 0.574547,-0.584215 0.69804,-0.691039 0.371547,-0.32132 0.979537,-0.748163 1.422521,-0.998702 0.755963,-0.427555 1.548325,-0.652849 1.786148,-0.5078 0.220456,0.134426 0.136849,0.639751 -0.224016,1.35329 -0.199835,0.395184 -0.404251,0.734991 -0.590999,0.98241 -0.212864,0.282037 -0.659024,0.718763 -0.967356,0.946923 -0.30809,0.22798 -0.354225,0.278814 -0.374234,0.412511 -0.03828,0.256653 0.194734,0.478052 0.461397,0.438098 0.05908,-0.0088 0.193194,-0.04636 0.297614,-0.08319 0.104494,-0.03694 0.630619,-0.176672 1.169282,-0.310574 l 0.979349,-0.243558 1.075747,0.04971 c 0.591671,0.02754 1.446535,0.07529 1.899721,0.1067 0.453206,0.03157 1.369862,0.08206 2.037051,0.112536 0.765641,0.03492 1.242625,0.06581 1.293184,0.08367 0.358789,0.12683 0.417412,0.39814 0.170554,0.789376 -0.179506,0.284387 -0.530698,0.623635 -0.902951,0.872097 -0.796933,0.531972 -2.276307,1.189768 -3.353119,1.490963 -0.228987,0.0638 -2.226401,0.434269 -3.408983,0.631896 -0.555008,0.09273 -0.568775,0.09992 -0.609065,0.317894 -0.03089,0.166748 -0.0048,0.253766 0.110667,0.369602 0.101005,0.101329 0.122231,0.112891 0.462742,0.251482 0.91284,0.371617 1.700038,0.956627 2.111332,1.56898 l 0.130674,0.194531 0.02086,0.297547 0.02086,0.297548 -0.127325,0.120471 c -0.14801,0.140075 -0.280356,0.189907 -0.622694,0.234492 -0.674,0.08776 -1.676282,-0.183518 -2.483375,-0.672266 -0.232613,-0.140817 -0.440176,-0.105559 -0.577366,0.09804 -0.08736,0.129687 -0.07146,0.229658 0.09937,0.624511 0.325484,0.752409 0.747329,1.587459 1.089009,2.155735 0.534258,0.888588 1.041888,1.567939 2.396206,3.206797 0.299092,0.361944 0.558701,0.69844 0.596505,0.773146 0.137605,0.272099 0.146188,0.508069 0.02484,0.675941 -0.16634,0.22959 -0.648818,0.315412 -1.167789,0.207697 z"
       id="path8" />
    <path
       style="fill:#ffffff;fill-rule:evenodd;stroke:none;stroke-width:0.762933;stroke-linecap:round;stroke-opacity:1;paint-order:stroke fill markers"
       d="m 25.279653,30.131807 c -0.999872,-0.209851 -2.2118,-0.880181 -3.445821,-1.905911 -0.354962,-0.295065 -1.269645,-1.208089 -1.550315,-1.547525 -0.543321,-0.657078 -0.875853,-1.180575 -1.159306,-1.824989 -0.07501,-0.170485 -0.158205,-0.223469 -0.350865,-0.223469 -0.280762,0 -0.328304,0.07334 -0.430511,0.663791 -0.16498,0.95296 -0.277468,1.312797 -0.515184,1.64795 -0.1496,0.210983 -0.314003,0.354761 -0.405393,0.354693 -0.105018,-1.19e-4 -0.210192,-0.0709 -0.278477,-0.187483 -0.144645,-0.24685 -0.330519,-0.946729 -0.439508,-1.654902 -0.08507,-0.552789 -0.09725,-0.610741 -0.144861,-0.68906 -0.08165,-0.134287 -0.309299,-0.187417 -0.472074,-0.110128 -0.04971,0.0235 -0.154031,0.136726 -0.298152,0.323132 -1.022757,1.323119 -2.35049,2.64257 -3.603582,3.581085 -0.853876,0.639551 -1.96062,1.284615 -2.5291456,1.474163 -0.2194603,0.0732 -0.5186081,0.09776 -0.6065111,0.04971 -0.051035,-0.02754 -0.056407,-0.04432 -0.052378,-0.149538 0.00463,-0.10596 0.023495,-0.146606 0.1846746,-0.387801 0.3437469,-0.515252 0.678673,-1.100913 1.0188291,-1.78156 0.355161,-0.710725 0.507731,-1.067896 0.908606,-2.127088 0.304932,-0.805663 0.458106,-1.154884 0.66359,-1.512811 0.258533,-0.450382 0.535127,-0.822675 0.915058,-1.231729 0.230061,-0.247722 0.252556,-0.286805 0.252556,-0.439575 0,-0.176877 -0.100248,-0.3052 -0.275251,-0.352276 -0.07118,-0.01948 -0.134364,-0.01127 -0.363088,0.04432 -0.605641,0.147871 -1.110505,0.207563 -1.756818,0.207563 -0.6586202,0 -1.0875794,-0.05841 -1.5258332,-0.208966 C 8.7611561,22.054783 8.6897753,22.020246 8.609597,21.945176 8.525651,21.866676 8.510599,21.76762 8.557883,21.604651 8.591459,21.489352 8.621005,21.447652 8.7733776,21.298844 9.1952882,20.887609 10.0444,20.429953 11.063544,20.064454 c 0.288079,-0.103274 1.263802,-0.39794 1.270828,-0.383704 0.0014,0.0029 0.02221,0.05171 0.04636,0.10812 0.146528,0.345092 0.460054,0.713519 0.754909,0.887186 0.152703,0.08992 0.468583,0.211461 0.549636,0.211461 0.03089,0 0.02684,0.01343 -0.02085,0.07018 -0.03223,0.03828 -0.0822,0.144182 -0.110529,0.234626 -0.06803,0.217512 -0.07393,0.723244 -0.01127,0.954062 0.155977,0.572869 0.596909,1.076968 1.229461,1.405413 0.64593,0.335422 1.364699,0.423793 1.957338,0.240738 0.131354,-0.04029 0.174862,-0.07379 0.537815,-0.410498 0.257056,-0.238453 0.403848,-0.359529 0.420435,-0.346636 0.01405,0.01065 0.232478,0.174727 0.485437,0.364231 l 0.459921,0.344487 0.176606,0.02819 c 0.344556,0.05573 0.787319,-0.01189 1.172571,-0.178487 0.653047,-0.282571 1.110242,-0.77835 1.304371,-1.414464 0.05773,-0.188571 0.06246,-0.235903 0.06312,-0.593954 2.54e-4,-0.319909 -0.0082,-0.418488 -0.04566,-0.554201 l -0.04566,-0.165116 0.184539,-0.0891 c 0.547082,-0.264107 0.953645,-0.774384 1.179385,-1.480367 0.08825,-0.275927 0.116241,-0.568773 0.08856,-0.92524 -0.07036,-0.905611 -0.577638,-1.672581 -1.249521,-1.889332 l -0.120409,-0.03896 0.04636,-0.06447 c 0.07918,-0.111193 0.122354,-0.388334 0.10704,-0.686818 -0.01544,-0.296875 -0.05438,-0.46435 -0.163373,-0.700877 -0.102347,-0.221863 -0.24275,-0.423191 -0.416407,-0.596843 -0.137852,-0.137853 -0.438901,-0.354358 -0.535329,-0.384913 -0.02484,-0.0082 -0.04498,-0.02153 -0.04498,-0.03089 0,-0.02621 0.58939,-0.603693 0.778555,-0.762868 1.040424,-0.875501 2.333236,-1.519551 2.968978,-1.47907 0.127526,0.0082 0.15741,0.01882 0.202327,0.07078 0.157683,0.183314 0.06246,0.667623 -0.256115,1.303464 -0.187349,0.3739 -0.400961,0.732386 -0.583209,0.978781 -0.192131,0.259742 -0.6925,0.756259 -0.946756,0.939415 -0.310305,0.223539 -0.394045,0.311851 -0.412511,0.435072 -0.02956,0.197707 0.09287,0.381759 0.289356,0.434673 0.113355,0.03021 0.22542,0.01343 0.465562,-0.07104 0.100742,-0.03558 0.62088,-0.174586 1.155856,-0.309229 l 0.97275,-0.244902 1.087187,0.04903 c 0.597986,0.02684 1.457977,0.07468 1.911171,0.106037 0.453206,0.03157 1.369856,0.08214 2.037047,0.112674 0.765169,0.03492 1.242655,0.06581 1.293188,0.08389 0.486848,0.172118 0.416875,0.611883 -0.194395,1.222505 -0.328503,0.3281 -0.771087,0.619406 -1.483281,0.97618 -0.733208,0.367321 -1.543475,0.693848 -2.263118,0.912059 -0.300367,0.09105 -1.964649,0.408278 -3.360533,0.640556 -0.308427,0.05104 -0.595028,0.104354 -0.63693,0.117831 -0.09393,0.03021 -0.153923,0.12436 -0.173524,0.272299 -0.03291,0.246715 0.09762,0.380348 0.55843,0.572198 0.548559,0.228451 0.987327,0.478389 1.384999,0.789043 0.255177,0.199312 0.599191,0.561386 0.751444,0.790857 l 0.128205,0.193262 0.02086,0.29755 0.02086,0.297546 -0.127325,0.120486 c -0.152765,0.144598 -0.307419,0.200241 -0.66473,0.239326 -0.618666,0.06763 -1.574145,-0.17613 -2.274952,-0.58039 -0.286335,-0.165183 -0.321789,-0.17996 -0.431044,-0.17996 -0.117831,0 -0.224695,0.05841 -0.305405,0.167608 -0.03558,0.04769 -0.04769,0.0985 -0.04769,0.194532 5e-5,0.11377 0.02552,0.186874 0.203145,0.587712 0.425335,0.958853 0.904455,1.851679 1.375321,2.563051 0.446557,0.674613 0.931034,1.303325 2.037529,2.644018 0.27532,0.333607 0.530093,0.652914 0.566087,0.709528 0.160833,0.252892 0.192582,0.558902 0.07621,0.734771 -0.159881,0.241613 -0.649692,0.334684 -1.177884,0.223879 z"
       id="path9" />
  </g>
</svg>
