<?xml version="1.0" encoding="UTF-8" standalone="no"?>
<!DOCTYPE svg PUBLIC "-//W3C//DTD SVG 1.1//EN" "http://www.w3.org/Graphics/SVG/1.1/DTD/svg11.dtd">
<svg width="100%" height="100%" viewBox="0 0 58 61" version="1.1" xmlns="http://www.w3.org/2000/svg" xmlns:xlink="http://www.w3.org/1999/xlink" xml:space="preserve" xmlns:serif="http://www.serif.com/" style="fill-rule:evenodd;clip-rule:evenodd;stroke-linejoin:round;stroke-miterlimit:2;">
    <g transform="matrix(4.166667,0,0,4.166667,0,0)">
        <g transform="matrix(1,0,0,1,-85.665405,-0.243665)">
            <path d="M95.207,3.445C95.6,3.911 96.174,4.077 96.541,3.809C96.771,3.64 96.856,3.333 96.806,2.998C97.024,3.031 97.236,3.097 97.489,3.199C97.614,3.241 97.763,2.718 97.569,2.7C95.485,2.4 94.328,4.082 94.356,4.055C94.678,3.813 94.944,3.608 95.207,3.445M96.396,3.637C96.121,3.86 95.662,3.721 95.339,3.365C95.774,3.096 96.143,2.969 96.54,2.974C96.621,3.23 96.551,3.514 96.396,3.637M86.013,4.379C86.372,3.203 86.997,2.137 87.809,1.252C91.4,-0.263 96.03,-0.252 99.5,2.541C97.323,1.431 90.885,0.25 86.013,4.379M85.805,8.229C85.647,7.38 85.62,6.504 85.74,5.645C88.281,3.062 92.084,1.362 96.076,2.197C93.891,2.202 88.653,3.699 85.805,8.229M87.164,11.41C86.742,10.818 86.393,10.166 86.143,9.472C87.655,6.271 90.57,3.483 94.488,2.876C92.538,3.611 88.474,6.602 87.164,11.41M89.63,13.689C89.028,13.334 88.484,12.899 87.996,12.407C88.518,9.023 90.585,5.486 93.891,3.65C93.648,4.008 93.536,4.427 93.556,4.873C91.629,6.827 89.715,9.861 89.63,13.689M92.688,14.756C92.036,14.666 91.406,14.504 90.809,14.274C90.831,11.211 91.824,7.574 93.627,5.344C93.727,5.735 93.917,6.136 94.224,6.538C95.651,4.859 97.297,3.672 99.341,3.147C96.554,4.205 92.216,7.58 92.688,14.756" style="fill:rgb(0,38,93);"/>
        </g>
    </g>
</svg>
