<?xml version="1.0" encoding="UTF-8" standalone="no"?><!DOCTYPE svg PUBLIC "-//W3C//DTD SVG 1.1//EN" "http://www.w3.org/Graphics/SVG/1.1/DTD/svg11.dtd"><svg width="100%" height="100%" viewBox="0 0 16 8" version="1.1" xmlns="http://www.w3.org/2000/svg" xmlns:xlink="http://www.w3.org/1999/xlink" xml:space="preserve" xmlns:serif="http://www.serif.com/" style="fill-rule:evenodd;clip-rule:evenodd;stroke-linejoin:round;stroke-miterlimit:2;"><path d="M1.094,5.98l11.67,0c0.212,0 0.304,0.188 0.205,0.421l-0.492,1.152c-0.098,0.232 -0.349,0.42 -0.562,0.42l-11.671,0c-0.211,0 -0.303,-0.188 -0.205,-0.42l0.492,-1.152c0.098,-0.232 0.35,-0.421 0.563,-0.421Zm2.845,-5.98l11.672,0c0.211,0 0.303,0.187 0.205,0.419l-0.49,1.155c-0.1,0.232 -0.352,0.42 -0.564,0.42l-11.672,0c-0.211,0 -0.303,-0.187 -0.204,-0.42l0.491,-1.155c0.099,-0.232 0.35,-0.419 0.562,-0.419Zm4.236,2.534l0.215,0.58l0.81,0c0.172,0 0.21,0.137 0.047,0.33l-0.51,0.6l0.208,0.564c0.047,0.127 0.061,0.264 -0.234,0.264l-0.676,0l-0.511,0.601c-0.127,0.149 -0.17,0.151 -0.239,-0.032l-0.211,-0.568l-0.822,0c-0.174,0 -0.211,-0.138 -0.048,-0.331l0.52,-0.613l-0.205,-0.553c-0.047,-0.125 -0.06,-0.262 0.234,-0.262l0.663,0l0.52,-0.613c0.127,-0.149 0.17,-0.152 0.24,0.033Z" style="fill:#1b358f;fill-rule:nonzero;"/></svg>