<svg clip-rule="evenodd" fill-rule="evenodd" stroke-linejoin="round" stroke-miterlimit="1.41421"
    viewBox="0 0 560 400" xmlns="http://www.w3.org/2000/svg">
    <g fill-rule="nonzero" transform="matrix(2.68211 0 0 2.68211 -763.556 -1616.39)">
        <path
            d="m0 0c4.414-.835 18.081-3.541 22.503-4.343.303-.056.597-.155 1.013-.264-1.701-2.105-3.522-3.976-5.359-5.828-11.826-11.902-24.794-22.477-38.215-32.5-18.293-13.667-37.402-26.056-57.604-36.726-14.853-7.843-30.145-14.665-46.318-19.37-3.564-1.036-7.166-1.932-10.802-2.691-.185-.038-.397-.012-.499-.227-.056-.533-.468-.654-.884-.797-.835-.291-1.697-.254-2.555-.261-1.523-.015-3.043-.004-4.569-.174-.794-.087-1.735-.352-2.363.525 3.394.537 6.803.975 10.163 1.727 10.829 2.435 21.041 6.501 30.887 11.555 17.389 8.931 33.067 20.367 48.004 32.889 11.251 9.43 21.913 19.499 32.205 29.96"
            fill="#d21c2d" transform="matrix(.352778 0 0 -.352778 424.863 650.456)" />
        <path
            d="m0 0c3.447.37 6.958-.159 10.371.707 1.07-.204 2.132-.004 3.186.106 3.303.336 6.603.714 9.903 1.073.185.117.408.144.495-.064.109-.269-.129-.427-.337-.514-.699-.295-1.455-.363-2.188-.492-1.969-.351-3.931-.748-5.911-1.028-6.444-1.013-12.904-1.935-19.397-2.577-10.386-1.028-20.806-1.599-31.238-1.898-10.631-.302-21.263-.336-31.899-.139-13.557.253-27.11.786-40.649 1.579-12.404.73-24.801 1.595-37.179 2.71-.389.034-.782.042-1.171.061v15.73c9.335-1.924 18.697-3.704 28.097-5.295 10.053-1.705 20.137-3.247 30.243-4.596 10.035-1.345 20.092-2.498 30.172-3.42 9.071-.828 18.157-1.44 27.258-1.83 8.595-.37 17.193-.423 25.795-.306 1.486.019 2.967.125 4.449.193"
            fill="#ab1b2c" transform="matrix(.352778 0 0 -.352778 373.48 686.671)" />
        <path
            d="m0 0c2.23-.147 7.597-.677 8.016-.714 10.281-.926 13.867-1.123 24.148-2.026 1.126-.102 2.521-.242 3.67-.34-1.123-.923-.802-.677-1.123-.923-14.661-11.198-30.149-21.146-46.099-30.391-27.806-16.108-56.806-29.643-87.156-40.244-22.926-8.005-46.318-14.204-70.295-18.138-4.743-.779-9.483-1.569-14.268-2.041 2.344.537 4.687 1.073 7.03 1.614.337.079.665.2.994.306.008.004.012.072-.004.098-.015.034-.049.053-.079.08 3.061.593 6.134 1.152 9.188 1.78 18.376 3.779 36.038 9.766 53.186 17.321 25.95 11.433 50.006 26.109 72.982 42.633"
            fill="#d21c2d" transform="matrix(.352778 0 0 -.352778 443.55 653.297)" />
        <g fill="#002d52" fill-opacity=".98">
            <path
                d="m0 0c.102-.941.159-1.886.317-2.82 1.618-9.622 12.48-14.551 20.486-9.157 5.162 3.477 6.757 8.632 5.877 14.626-1.146 7.779-8.663 12.858-16.301 11.086-6.206-1.444-10.303-6.898-10.379-13.735m10.779-17.681c-.797.212-1.599.405-2.388.632-7.922 2.286-12.745 9.463-12.31 18.311.427 8.682 7.479 15.916 15.957 16.366 9.683.518 17.276-5.458 18.671-14.608 1.564-10.254-5.008-19.136-14.283-20.515-.148-.023-.287-.121-.431-.186z"
                transform="matrix(.352778 0 0 -.352778 397.151 697.753)" />
            <path
                d="m0 0c3.916 0 7.714-.125 11.494.064 1.515.076 3.114.628 4.471 1.346 2.381 1.262 3.375 3.477 3.212 6.145-.162 2.616-1.523 4.498-3.961 5.397-1.307.484-2.751.756-4.146.805-3.314.114-6.637.038-9.959.034-.374 0-.748-.034-1.171-.052 0-4.46-.004-8.765 0-13.074 0-.189.034-.378.06-.665m13.905-2.884c3.504-4.667 6.886-9.176 10.443-13.916-1.656 0-3.058-.053-4.453.038-.328.019-.687.465-.929.79-2.873 3.821-5.749 7.638-8.569 11.497-.529.726-1.077.99-1.957.971-2.763-.056-5.53-.022-8.455-.022v-13.202h-3.87v34.042c.098.053.166.117.234.117 5.529-.041 11.059-.041 16.585-.177 1.235-.027 2.498-.405 3.677-.828 4.335-1.561 6.622-5.035 6.493-9.683-.121-4.354-2.766-7.688-7.211-9.075-.597-.185-1.206-.333-1.988-.552"
                transform="matrix(.352778 0 0 -.352778 412.002 697.871)" />
            <path
                d="m0 0c1.062 0 2.052.083 3.016-.038.423-.056.884-.457 1.175-.824 5.315-6.731 10.606-13.478 15.905-20.22 1.583-2.015 3.171-4.022 4.958-6.289v27.295h3.716v-34.076c-1.807-.37-3.133-.106-4.392 1.535-6.497 8.462-13.149 16.803-19.748 25.186-.219.276-.457.533-.888 1.032v-27.817h-3.742z"
                transform="matrix(.352778 0 0 -.352778 333.521 691.708)" />
            <path
                d="m0 0c3.447 0 6.769-.197 10.065.042 6.875.495 11.69 5.775 12.053 12.922.34 6.663-4.256 12.601-10.881 13.591-3.062.457-6.222.246-9.336.333-.616.015-1.236 0-1.901 0zm-3.969 13.55c0 5.253.019 10.507-.018 15.76-.008.956.23 1.304 1.247 1.278 4.418-.114 8.867.132 13.255-.284 6.75-.638 11.947-3.987 14.411-10.484 2.472-6.516 1.504-12.707-3.262-17.979-3.413-3.78-7.918-5.382-12.918-5.534-3.867-.113-7.741.008-11.611-.041-.926-.012-1.122.325-1.119 1.168.031 5.37.015 10.741.015 16.116"
                transform="matrix(.352778 0 0 -.352778 348.505 702.491)" />
            <path
                d="m0 0v-11.66h18.554v-3.549h-18.622v-2.128c0-2.804.049-5.612-.026-8.417-.035-1.118.245-1.481 1.417-1.47 6.047.057 12.094.027 18.142.027h1.492v-3.432h-24.782v34.11h24.556v-3.481z"
                transform="matrix(.352778 0 0 -.352778 323.318 692.966)" />
            <path
                d="m0 0h24.54v-3.504h-20.715v-11.659h18.542v-3.549h-18.527c-.038-.488-.087-.832-.087-1.172-.007-3.201.034-6.406-.026-9.604-.019-1.017.325-1.247 1.281-1.24 6.089.038 12.174.019 18.263.019h1.5v-3.428h-24.771z"
                transform="matrix(.352778 0 0 -.352778 360.636 691.727)" />
            <path
                d="m0 0c-2.642-5.904-5.178-11.565-7.752-17.322h15.466c-2.578 5.791-5.102 11.456-7.714 17.322m-17.367-29.926c1.81 4.014 3.504 7.786 5.212 11.554 3.284 7.26 6.599 14.506 9.838 21.785.427.964.964 1.13 1.931 1.228 1.732.178 2.514-.48 3.209-2.056 4.668-10.53 9.457-21.006 14.204-31.502.124-.276.215-.567.382-1.006-1.304 0-2.48-.056-3.644.038-.302.027-.68.461-.835.798-1.104 2.404-2.177 4.819-3.213 7.249-.283.669-.627.949-1.391.945-5.571-.034-11.142-.034-16.717 0-.763.004-1.084-.284-1.372-.956-1.024-2.393-2.158-4.74-3.171-7.14-.317-.748-.725-1.013-1.511-.952-.896.068-1.799.015-2.922.015"
                transform="matrix(.352778 0 0 -.352778 377.245 693.244)" />
            <path
                d="m0 0c1.213 2.906 2.34 5.59 3.454 8.277 2.778 6.705 5.564 13.406 8.315 20.122.31.76.662 1.149 1.542 1.066.938-.087 1.89-.019 3.017-.019-.163-.468-.265-.831-.409-1.175-4.565-10.704-9.15-21.404-13.685-32.119-.401-.944-.87-1.307-1.909-1.251-2.604.144-1.886-.453-2.937 1.988-4.497 10.477-8.957 20.969-13.428 31.457-.136.314-.242.643-.412 1.097 1.338 0 2.558.075 3.757-.046.347-.038.759-.589.929-.994 3.273-7.865 6.516-15.745 9.77-23.618.628-1.523 1.27-3.043 1.996-4.785"
                transform="matrix(.352778 0 0 -.352778 388.854 702.095)" />
            <path
                d="m0 0v-15.08c4.505 0 8.923-.08 13.338.049 1.259.034 2.559.525 3.734 1.043 3.145 1.391 4.709 4.312 4.275 7.684-.405 3.159-2.582 5.714-6.21 6.043-4.97.45-10.001.265-15.005.348-.03 0-.064-.042-.132-.087m25.202-31.586c-.329-.056-.408-.068-.484-.083-1.897-.332-3.16.348-4.316 1.977-2.744 3.866-5.749 7.544-8.606 11.323-.507.669-1.036.926-1.875.915-3.277-.049-6.553-.019-9.959-.019v-14.109h-2.525v34.231c6.146-.298 12.276.526 18.343-.548 2.573-.453 4.834-1.7 6.447-3.881 3.217-4.339 2-10.726-2.694-13.387-1.618-.919-3.478-1.418-5.333-2.155 3.556-4.614 7.226-9.369 11.002-14.264"
                transform="matrix(.352778 0 0 -.352778 444.844 692.627)" />
            <path
                d="m0 0c-2.993 6.584-5.911 12.994-8.942 19.657-3.069-6.727-5.991-13.122-8.973-19.657zm8.205-11.792c-.181-.102-.211-.132-.245-.136-2.412-.223-2.408-.219-3.402 1.965-.99 2.192-2.022 4.366-2.971 6.577-.31.714-.684 1.001-1.493.997-6.039-.034-12.086-.037-18.13.004-.828.004-1.179-.325-1.478-1.017-.979-2.241-2.007-4.456-3.008-6.686-.953-2.105-.949-2.105-3.474-1.765.994 2.174 1.962 4.313 2.948 6.444 4.101 8.879 8.206 17.753 12.31 26.627.616 1.331 1.221 1.667 2.669 1.285.351-.094.68-.589.861-.971 3.542-7.616 7.064-15.243 10.587-22.866 1.602-3.462 3.197-6.932 4.826-10.458"
                transform="matrix(.352778 0 0 -.352778 433.724 699.577)" />
            <path d="m439.34 691.736h.841v12.044h-.841z" />
        </g>
    </g>
</svg>