<svg version="1.2" xmlns="http://www.w3.org/2000/svg" viewBox="0 0 1398 1485" width="1398" height="1485">
	<title>ENT</title>
	<style>
		.s0 { fill: #0299d2 } 
	</style>
	<path id="Layer" fill-rule="evenodd" class="s0" d="m821.1 1484.9q-397.5 0-609.1-190-212-190.1-212-541.1 0-343.4 197.2-548.3 197.8-204.9 552.9-204.9 322.4 0 484.9 173.7 162.4 173.8 162.4 497.2v157.4h-958.5q6.1 97.6 40.9 163.5 35.2 65.4 93 103.7 55.7 38.8 130.8 55.7 75.1 16.9 164 16.9 76.1 0 150.2-16.9 73.6-16.9 134.9-44.5 53.7-23.5 99.1-51.1 45.5-27.6 74.6-48.5h46v360.7q-53.6 21.5-98.1 39.4-43.9 18.4-121.6 36.8-71.5 18.9-147.2 29.6-75.6 10.7-184.4 10.7zm145.1-919.2q-3.6-139-64.4-211.5-60.3-72.6-185.4-72.6-127.8 0-199.3 76.2-72.1 76.6-79.7 207.9z"/>
</svg>