<svg role="img" viewBox="0 0 24 24" xmlns="http://www.w3.org/2000/svg"><title>Ethiopian Airlines</title><path fill="#b71d20" d="M1.94 21.252c5.019.473 6.913.511 9.214.489 2.203-.073 3.862.242 5.727-1.73 1.949-2.021 1.718-3.072.542-2.745-1.745.522-8.111 2.691-15.623 3.737-.338.044-.255.224.14.248"/><path fill="#ffbe0b" d="M.24 20.71c5.137-1.307 17.986-8.213 19.891-9.44.942-.587 1.976-.239.316 2.466-1.126 1.663-1.906 2.63-4.918 3.544-2.078.785-9.77 3.024-15.16 3.674-.398.033-.524-.114-.128-.245"/><path fill="#557c39" d="M.753 20.347c4.48-1.57 14.233-6.704 17.555-8.744 2.391-1.457 4.24-2.531 4.965-4.355 1.546-4.17.364-5.865-1.104-4.565C20.292 4.506 11.478 13.755.194 20.258c-.169.098-.199.322.559.09"/></svg>