<?xml version="1.0" encoding="UTF-8" standalone="no"?><!DOCTYPE svg PUBLIC "-//W3C//DTD SVG 1.1//EN" "http://www.w3.org/Graphics/SVG/1.1/DTD/svg11.dtd"><svg width="100%" height="100%" viewBox="0 0 171 148" version="1.1" xmlns="http://www.w3.org/2000/svg" xmlns:xlink="http://www.w3.org/1999/xlink" xml:space="preserve" xmlns:serif="http://www.serif.com/" style="fill-rule:evenodd;clip-rule:evenodd;stroke-linejoin:round;stroke-miterlimit:2;"><g id="layer1"><g id="g9159"><g id="g8039"><g id="g8041"><path id="path8043" d="M160.544,29.138c-59.415,4.207 -60.574,27.512 -87.138,35.376c-1.534,0.453 -3.648,1.542 -5.313,1.651c-1.148,0.073 -2.316,0.196 -3.498,0.364l25.831,-32.247c19.379,-20.856 38.14,-34.083 55.83,-34.282l24.697,-0l-10.408,29.138Z" style="fill:#7dd3d9;"/></g></g><g id="g8045"><g id="g8047"><path id="path8049" d="M55.145,78.328c27.645,1.531 39.318,-18.572 70.234,-30.904c12.324,-4.909 24.615,-6.348 31.404,-6.765l-17.96,50.509c-38.377,1.495 -36.089,16.725 -55.169,22.463c-6.529,1.962 -13.791,0.495 -26.096,-0.274c-22.93,-1.441 -42.498,33.82 -57.558,33.82l55.145,-68.849Z" style="fill:#95bee2;"/></g></g><g id="g8051"><g id="g8053"><path id="path8055" d="M37.178,134.169c24.055,-22.779 39.892,-1.814 55.999,-12.077c16.112,-10.26 18.153,-17.867 33.783,-18.22c3.817,-0.087 6.263,0.02 7.745,0.143l-15.041,43.162l-99.968,0c5.926,-3.994 12.155,-7.962 17.483,-13.009" style="fill:#134bb7;"/></g></g></g></g></svg>