<svg role="img" viewBox="0 0 24 24" xmlns="http://www.w3.org/2000/svg"><title>Eurowings</title><path fill="#7cc5d3" d="M9.589 5.005c-2.084-.28-3.14.879-4.598 1.944L0 10.875l.953.504h.01c1.252.617 2.99.411 4.168-.467L7.243 9.23l.804-.636 4.018-3.196Z"/><path fill="#7c2045" d="m18.112 7.426-2.673-.477s-1.869-.448-3.43.757c0 0-1.15.86-2 1.524l-1.888 1.495-4.364 3.467-.037.028 1.317.701c1.253.617 2.991.412 4.178-.467l3.906-3.093 4.991-3.926M24 9.688l-2.897-.524c-1.73-.327-2.552.234-4.234 1.552l-4.308 3.476-4.673 3.776 1.308.701c1.253.617 3.112.449 4.3-.43l4.14-3.29z"/></svg>