<svg version="1.2" xmlns="http://www.w3.org/2000/svg" viewBox="0 0 1400 1066" width="1400" height="1066">
	<title>EVA_Air_logo-svg</title>
	<style>
		.s0 { fill: #ffffff } 
		.s1 { fill: #00a64f } 
		.s2 { fill: #f0451c } 
	</style>
	<g id="layer1">
		<g id="g20060">
			<path id="path12105" class="s0" d="m344.8 639.2c46 146.2 182.6 252.3 344 252.3 199.3 0 360.6-161.6 360.6-360.6 0-191.7-149.4-348.5-338.2-360z"/>
			<path id="path12109" fill-rule="evenodd" class="s1" d="m1399.7 0.1l-370.8 1064.9h-1028.6l833.1-1064.9zm-336.6 531.7c0-191-144.3-350.6-331.8-371.9h-0.1l-393.1 502.5v0.1c54.4 146.3 192.8 243.7 350.6 243.7 206.3 0 374.4-168 374.4-374.4z"/>
			<path id="path12111" fill-rule="evenodd" class="s2" d="m1063.2 531.8c0 206.4-168 374.4-374.4 374.4-157.8 0-296.2-97.4-350.6-243.7l8.3-10.6 8.3-10.4c7.2 21.8 16.3 42.6 27.3 62.1 27.4-14.9 55.8-27.6 84.9-38.5-14.2-40-22.2-82.8-23-127.3h-8.2l20.6-26.4-0.5 14.4h104.4c0.2-33.5 3.4-66.5 9.1-98.9-13.3-2.7-26.7-5.5-39.9-8.9l8.1-10.5c11.4 2.7 22.6 5.5 34 7.4 5.3-26.5 12.6-52.6 21.5-78.2 0 0 28-36.5 28.5-36.5 19.5 6.7 40.2 10.3 61 11v-89l12-15.3v104.4c21.6-0.5 42.8-4.3 62.7-11.1-15.3-35.1-34.3-69-56.8-100.9l7.7-10.1c24.1 33.8 44.2 69.6 60.4 106.9 17-6.9 33.1-16.2 48-27.3-30.6-32.6-66.8-59.7-107.7-80.2l5.7-7.4 1.7-2.1 6.7-8.6 8.4-10.6c187.6 21.3 331.8 180.9 331.8 371.9zm-73.6 182.2c-26.7-14.7-54.6-27.1-82.8-37.6-17 43.4-41.5 83.1-72.4 117.8 13.2 11.2 25.2 24.3 35.7 38.7 48.7-29.3 89.8-70.4 119.5-118.9zm-130 124.9c-9.7-13.2-20.8-25.2-33.1-35.7-29.6 31.4-64.9 57.8-104.4 78.5 49.5-4.6 96-19.8 137.5-42.8zm-152.3 37c41.8-20.2 78.9-47.7 109.7-80.3-14.7-11.4-31-20.7-48.2-27.7-16.5 37.8-37.1 74-61.5 108zm-12.7-2.8c25.1-34.4 46.2-71.1 62.9-109.4-20-6.8-41.2-10.6-62.9-11.3zm-12-120.6c-21.6 0.6-42.7 4.4-62.7 11.4 16.7 38.2 37.7 74.7 62.7 109zm-12.6 123.5c-24.3-34-44.7-70.3-61.4-108.1-17.1 7.2-33.3 16.5-48.1 27.9 30.9 32.4 67.8 59.9 109.5 80.2zm-14.9 5.6c-39.4-20.5-74.4-47-104-78.2-12.3 10.6-23.4 22.6-33.2 35.9 41.7 22.9 88.1 37.9 137.2 42.3zm-267.3-167.3c29.9 49.3 71.1 89.8 119.6 119.2 10.5-14.7 22.5-27.7 35.6-39.2-30.6-34.5-55.2-74.3-72.2-117.7-28.4 10.4-56.3 23-83 37.7zm90.3-53.2c29.7-10.3 60.2-18.6 91.2-24.4-5.8-32.4-8.8-65.2-9.1-98.8h-104.2c0.6 43 8.4 84.5 22.1 123.2zm94.1-135.3h110.4v-87.8c-34.1-0.4-67.9-3.5-101.4-9.3-5.7 32-8.7 64.4-9 97.1zm11.2-108.9c32.7 5.5 65.8 8.7 99.2 8.9v-102.5c-22.9-0.7-45.4-4.9-66.9-12.3-14.1 34.4-25 69.8-32.3 105.9zm111.2-93.5v102.4c33.4-0.2 66.7-3.4 99.4-8.9-7.2-36.1-17.9-71.5-32-105.6-21.4 7.4-44.1 11.6-67.4 12.1zm78.7-16.2c14.3 34.8 25.2 70.9 32.6 107.8 30.1-5.6 59.9-13.6 88.7-23.6-16.5-41.6-40.3-80.1-70-113.7-15.7 12.1-32.9 22-51.3 29.5zm52.6-46c12.6-10.6 24.1-22.9 34-36.5-41.6-23-88.4-38.3-138.2-42.9 39.5 20.8 74.5 47.9 104.2 79.4zm44.5-30.3c-10.7 14.5-22.9 27.7-36.4 39.2 30.5 34.7 54.9 74.2 71.7 117.1 28.8-10.4 56.8-23 83.6-37.6-29.4-48.6-70.2-89.3-118.9-118.7zm51.2 294.9c-0.7-42.5-8.5-84.1-22.7-123.2-29.7 10.4-60 18.4-90.9 24.3 5.6 32.3 9 65.4 9.3 98.9zm-22.1 135.1c13.7-38.8 21.4-80 22.1-123h-104.3c-0.2 33.5-3.4 66.4-9 98.8 30.9 5.8 61.4 14 91.2 24.2zm-126.1 95.9c18.6 7.6 36 17.6 51.8 29.9 29.9-33.6 53.9-72.2 70.4-114.5-29.2-10-59.3-18.1-89.6-23.8q-11 56-32.6 108.4zm-78.8-16.4c23.3 0.5 46.1 4.7 67.5 12.2 14-34.3 24.8-69.8 32.1-106.1-32.9-5.5-66.2-8.5-99.6-9.1zm-123.2-92c-30.3 5.9-60.2 13.9-89.3 24 16.4 42.1 40.4 80.7 70.3 114.5 15.9-12.3 33.1-22.3 51.7-30-14.2-34.9-25.2-71-32.7-108.5zm44 104.3c21.3-7.4 44-11.6 67.2-12.3v-102.8c-33.4 0.4-66.6 3.5-99.3 9 7.2 36.4 17.9 72 32.1 106.1zm79.2-214.8v87.6c34.3 0.3 68.2 3.6 101.8 9.2 5.5-31.5 8.5-64.1 8.9-96.8zm0-12.1h110.7c-0.4-32.7-3.6-65.3-9.1-97.1-33.4 5.8-67.6 8.9-101.6 9.3zm-113.4 109c33.3-5.6 67.2-8.9 101.4-9.3v-87.6h-110.4c0.2 32.8 3.2 65.3 9 96.9zm414.1-274.8q-41.2 22.4-85.1 38.5c14.5 40.4 22.6 83.2 23.3 127.3h106.7c-0.9-59.9-17.1-116.6-44.9-165.8zm44.9 177.9h-106.7c-0.7 44.3-8.7 87.1-22.7 127.3 29.1 10.6 57.3 23.4 84.7 38.3 27.6-49.2 43.8-105.6 44.7-165.6z"/>
			<path id="path12113" class="s0" d="m725.5 615.8l88.3 40.4-41.8-89.5 114.1-28.1v-13.5l-114.1-28.5 43.5-91.5-90.7 42.6-28.2-162.4h-16.1l-27.8 162.1-90.2-42.3 42.5 91.8-113.8 28.2v13.2l113.8 27.7-41.2 90.6 88.7-40.3 27.7 162.2 15.7-0.2z"/>
			<path id="path12115" class="s1" d="m689 294.3l29.5 165.8 79.4-37.6-37.5 79.5 119 29.7-119 29.7 36.2 77.8-78.1-35.7-30.1 164.4-29.3-164.4-78.1 35.9 36-78-118.9-29.7 118.9-29.7-37.1-79.5 79.2 37.2z"/>
		</g>
	</g>
</svg>