<svg role="img" viewBox="0 0 64 64" xmlns="http://www.w3.org/2000/svg" fill="#e1251b"><title>Ewa Air</title><path d="M5.508 41.157a6.087 6.087 0 0 1-2.255-2.328c-1.012-.101-2.766-.391-3.15-1.196l.033.078.04.1a.398.398 0 0 1-.02-.045l-.07-.17L0 37.384l.024.055.054.13c-.2-.62 1.186-1.582 2.384-2.28a8.242 8.242 0 0 1 .705-2.932 9.6 9.6 0 0 1 3.531-3.901 9.504 9.504 0 0 1 4.974-1.686 4.007 4.007 0 0 1 3.395 1.585 4.592 4.592 0 0 1 .893 3.95c-.559 2.228-2.727 3.987-4.57 4.89a17.176 17.176 0 0 1-2.78 1.073 6.024 6.024 0 0 0 1.788.251 18.862 18.862 0 0 0 5.412-1.137c.265-.084.516-.163.76-.238a5.2 5.2 0 0 1 1.38-.28c.27 0 .43.07.475.206.139.427-.905 1.486-1.994 2.26a14.65 14.65 0 0 1-3.298 1.763 17.005 17.005 0 0 1-3.605.92 7.933 7.933 0 0 1-.63.026 6.605 6.605 0 0 1-3.39-.882Zm1.768-7.306a8.454 8.454 0 0 0 2.503-.595c.897-.422 1.808-1.102 1.82-1.671a.608.608 0 0 0-.394-.546 2.472 2.472 0 0 0-.317-.02c-1.573.003-2.948 1.421-3.612 2.832zm33.813 5.957c-.513-.46-.242-.44.467-.198a10.9 10.9 0 0 0 5.044.942c2.454-.175 4.249-1.479 6.202-2.418 1.539-.745 3.439-2.285 6.283-1.835 1.097.174-6.872 5.114-13.12 5.114a7.053 7.053 0 0 1-4.876-1.605zm-7.372.586a4.115 4.115 0 0 1-1.318-.214 4.769 4.769 0 0 1-.511-.208c-.14-.067-.235-.109-.367-.183a4.873 4.873 0 0 1-.711-.47 10.015 10.015 0 0 1-1.606-1.767c-.41-.546-.738-1.023-1.034-1.376a3.69 3.69 0 0 0-.515-.516l-.15-.118a.969.969 0 0 0-.089-.063 1.033 1.033 0 0 0-.15-.078c-.175-.048-.131-.053-.288.03a1.297 1.297 0 0 0-.302.313c-.14.185-.344.502-.575.85l-.178.267-.145.211-.172.233a6.594 6.594 0 0 1-.735.847 3.438 3.438 0 0 1-1.757.963 2.972 2.972 0 0 1-2.51-.766 7.08 7.08 0 0 1-1.033-1.143c-.154-.215-.308-.44-.452-.67a8.725 8.725 0 0 1-.27-.478c-.686-1.284-1.027-2.274-1.341-4.93-.314-2.656.816-9.534 2.077-9.152 1.206.502 1.49 4.31 1.564 5.57a24.429 24.429 0 0 0 .453 3.598 9.522 9.522 0 0 0 .82 2.412c.044.079.086.158.135.228v.003h.006l.164-.243c.198-.296.406-.64.724-1.066a5.732 5.732 0 0 1 1.293-1.27 3.93 3.93 0 0 1 3.798-.428 5.074 5.074 0 0 1 .827.429c.13.083.251.17.37.257.12.087.196.154.3.237a8.321 8.321 0 0 1 1.113 1.12c.576.69.995 1.318 1.368 1.8a3.675 3.675 0 0 0 .87.892c-.009-.003.058.038.138.098a.548.548 0 0 0 .157.118.808.808 0 0 0 .436.053 1.804 1.804 0 0 0 .753-.293l.098-.066a.764.764 0 0 0 .117-.1c.01-.007.013-.006.013-.005.001.002 0 0 .004 0l.048-.042.117-.12c.167-.18.35-.406.534-.64.377-.475.766-.998 1.153-1.529.78-1.072 1.564-2.155 2.285-3.144a37.927 37.927 0 0 1 2.52-3.37 2.394 2.394 0 0 1 .588-.523c.13-.087.232-.05.305.096a4.735 4.735 0 0 1-.282 2.062 31.545 31.545 0 0 1-1.214 3.354 10.277 10.277 0 0 1-.699 1.635c-.505 1.072-1.185 2.51-2.025 4.003-.107.188-.218.376-.342.573l-.198.304c-.079.112-.134.198-.27.364a5.982 5.982 0 0 1-1.145 1.097 4.724 4.724 0 0 1-2.751.954zm10.725-1.702c-5.145-1.784-2.895-7.91-.262-10.668 3.142-3.294 9.22-4.766 13.288-2.328 2.153 1.206-2.995 1.293-3.12 1.312-2.774.38-4.781 1.82-6.698 3.72-.719.725-2.871 2.573-1.896 3.725 1.463-.414 2.63-1.915 3.443-3.117 1.775-2.588 5.74-5.887 8.66-2.56 1.498 1.709 2.017 3.875 3.833 5.418.83.709 1.525.771 2.133 1.295.736.633-.974 1.032-2.468.551a9.475 9.475 0 0 1-4.386-3.204c-1.125-1.423-1.842-2.391-3.304-.593-1.844 2.401-4.158 6.734-7.655 6.734a4.677 4.677 0 0 1-1.568-.285z"/></svg>