<?xml version="1.0" encoding="UTF-8" standalone="no"?><!DOCTYPE svg PUBLIC "-//W3C//DTD SVG 1.1//EN" "http://www.w3.org/Graphics/SVG/1.1/DTD/svg11.dtd"><svg width="100%" height="100%" viewBox="0 0 2300 704" version="1.1" xmlns="http://www.w3.org/2000/svg" xmlns:xlink="http://www.w3.org/1999/xlink" xml:space="preserve" xmlns:serif="http://www.serif.com/" style="fill-rule:evenodd;clip-rule:evenodd;stroke-linejoin:round;stroke-miterlimit:2;"><path d="M1710,0l0,150l-220,0l0,100l220,0l0,140l-220,0l0,140l220,0l0,150l-380,0l0,-680l380,0Zm200,680l-200,0l190,-220l-190,-210l200,0l100,100l90,-100l200,0l-200,210l200,220l-210,0l-90,-110l-90,110Z" style="fill:#f60;fill-rule:nonzero;"/><path d="M1174,0l0,278l-1,0c-35,-40 -79,-54 -131,-54c-104,0 -183,71 -210,165c-32,-104 -113,-167 -234,-167c-98,0 -175,43 -215,115l0,-89l-203,0l0,-97l221,0l0,-151l-401,0l0,679l180,0l0,-285l180,0c-5,21 -8,43 -8,67c0,141 108,241 246,241c116,0 193,-55 233,-154l-154,0c-21,30 -37,39 -79,39c-48,0 -90,-43 -90,-93l315,0c13,113 101,210 221,210c52,0 100,-26 129,-69l1,0l0,44l159,0l0,-679l-159,0Zm-661,396c10,-43 43,-72 85,-72c46,0 78,28 86,72l-171,0Zm565,180c-59,0 -95,-55 -95,-112c0,-61 32,-119 95,-119c66,0 92,58 92,119c0,58 -28,112 -92,112Z" style="fill:#652c8f;fill-rule:nonzero;"/></svg>