<svg xmlns="http://www.w3.org/2000/svg" xmlns:xlink="http://www.w3.org/1999/xlink" viewBox="0 0 624.93 72.46"><defs><style>.cls-1{fill:none;}.cls-2{clip-path:url(#clip-path);}.cls-3{fill:#181716;}.cls-4{clip-path:url(#clip-path-2);}.cls-5{clip-path:url(#clip-path-4);}.cls-6{clip-path:url(#clip-path-6);}.cls-7{clip-path:url(#clip-path-8);}</style><clipPath id="clip-path" transform="translate(-104.41 -253.45)"><rect class="cls-1" width="841.89" height="595.28"></rect></clipPath><clipPath id="clip-path-2" transform="translate(-104.41 -253.45)"><path class="cls-1" d="M719,259.86v61.69q0,4.36,5,4.36,5.28,0,5.28-4.36V259.86c0-2.86-1.74-4.28-5.2-4.28S719,257,719,259.86"></path></clipPath><clipPath id="clip-path-4" transform="translate(-104.41 -253.45)"><path class="cls-1" d="M457.77,256q-4.36,0-4.36,4.36,0,4,4.36,4h50.76q16.9,0,16.9,8.95v9q0,7.41-15.22,7.41h-40.9a5.3,5.3,0,0,0-4.13,1.61,5.12,5.12,0,0,0-1.45,3.52,4.65,4.65,0,0,0,.69,2.44,4,4,0,0,0,2,1.68l57.41,26.46a4,4,0,0,0,1.76.46,3.84,3.84,0,0,0,3.17-1.65,5.62,5.62,0,0,0,1.27-3.48,4.26,4.26,0,0,0-.54-2.06,3.52,3.52,0,0,0-1.76-1.53l-45-19.27h26.45q26.44,0,26.45-16.51v-7.49q0-17.9-28.74-17.89Z"></path></clipPath><clipPath id="clip-path-6" transform="translate(-104.41 -253.45)"><path class="cls-1" d="M398.45,259.78v61.77c0,2.81,1.74,4.21,5.2,4.21s5.28-1.4,5.28-4.21V259.78q0-4.27-5.05-4.28-5.43,0-5.43,4.28"></path></clipPath><clipPath id="clip-path-8" transform="translate(-104.41 -253.45)"><path class="cls-1" d="M301.42,256.23a8.47,8.47,0,0,0-2.94,2.79l-39.91,59.71.08-.08A3.47,3.47,0,0,0,258,320a5.86,5.86,0,0,0-.15,1.23,4,4,0,0,0,1.68,3.32,5.83,5.83,0,0,0,3.59,1.27,5.55,5.55,0,0,0,2.3-.46,3.91,3.91,0,0,0,1.68-1.61l38.15-57.34,38.07,57.19v-.08a4.08,4.08,0,0,0,1.84,1.68,5.47,5.47,0,0,0,2.37.54,5.85,5.85,0,0,0,3.55-1.22,3.82,3.82,0,0,0,1.65-3.21,5,5,0,0,0-1.07-2.76h.07l-40-59.55a8.31,8.31,0,0,0-3.1-2.83,7.79,7.79,0,0,0-3.55-.92,7.37,7.37,0,0,0-3.64,1"></path></clipPath></defs><title>Asset 1Logo-bijeli</title><g id="Layer_2" data-name="Layer 2"><g id="Layer_1-2" data-name="Layer 1"><g class="cls-2"><path class="cls-3" d="M729.34,259.86c0-2.86-1.74-4.28-5.2-4.28S719,257,719,259.86v61.69q0,4.36,5,4.36,5.28,0,5.28-4.36Z" transform="translate(-104.41 -253.45)"></path></g><g class="cls-4"><path class="cls-3" d="M532.33,307c3.46,0,5.2-1.66,5.2-5s-1.74-5.05-5.2-5.05H472.39V259.7q0-4.27-5.05-4.28t-5.12,4.28v41.67q0,5.65,5.43,5.66Zm20.26-47.33q0-4.27-5.24-4.28t-5.24,4.28v61.7q0,4.37,5.24,4.36t5.24-4.36Z" transform="translate(-104.41 -253.45)"></path></g><g class="cls-2"><path class="cls-3" d="M525.43,282.26q0,7.41-15.22,7.41h-40.9a5.3,5.3,0,0,0-4.13,1.61,5.17,5.17,0,0,0-1.45,3.52,4.65,4.65,0,0,0,.69,2.44,4,4,0,0,0,2,1.68l57.41,26.46a4,4,0,0,0,1.76.46,3.84,3.84,0,0,0,3.17-1.65,5.56,5.56,0,0,0,1.27-3.48,4.26,4.26,0,0,0-.54-2.06,3.52,3.52,0,0,0-1.76-1.53l-45-19.27h26.45q26.44,0,26.45-16.51v-7.49q0-17.9-28.74-17.89H457.77q-4.36,0-4.36,4.36,0,4,4.36,4h50.76q16.9,0,16.9,8.95Z" transform="translate(-104.41 -253.45)"></path></g><g class="cls-5"><path class="cls-3" d="M520.8,307q5.21,0,5.2-5c0-3.36-1.73-5.05-5.2-5.05H460.87V259.7c0-2.85-1.69-4.28-5.05-4.28s-5.12,1.43-5.12,4.28v41.67q0,5.65,5.43,5.66Zm20.26-47.33q0-4.27-5.23-4.28t-5.24,4.28v61.7q0,4.37,5.24,4.36t5.23-4.36Z" transform="translate(-104.41 -253.45)"></path></g><g class="cls-2"><path class="cls-3" d="M408.93,259.78q0-4.27-5.05-4.28c-3.62,0-5.42,1.43-5.42,4.28v61.77q0,4.21,5.19,4.21t5.28-4.21Z" transform="translate(-104.41 -253.45)"></path></g><g class="cls-6"><path class="cls-3" d="M514.75,307q5.21,0,5.2-5c0-3.36-1.73-5.05-5.2-5.05H454.81V259.7q0-4.27-5-4.28t-5.13,4.28v41.67q0,5.65,5.43,5.66ZM535,259.7c0-2.85-1.74-4.28-5.24-4.28s-5.23,1.43-5.23,4.28v61.7q0,4.37,5.23,4.36c3.5,0,5.24-1.45,5.24-4.36Z" transform="translate(-104.41 -253.45)"></path></g><g class="cls-2"><path class="cls-3" d="M343.28,323.62v-.08a4.08,4.08,0,0,0,1.84,1.68,5.47,5.47,0,0,0,2.37.54,5.85,5.85,0,0,0,3.55-1.22,3.83,3.83,0,0,0,1.65-3.22,5,5,0,0,0-1.07-2.75h.07l-40-59.55a8.31,8.31,0,0,0-3.1-2.83,7.79,7.79,0,0,0-3.55-.92,7.37,7.37,0,0,0-3.64,1,8.47,8.47,0,0,0-2.94,2.79l-39.91,59.71.08-.08A3.45,3.45,0,0,0,258,320a5.7,5.7,0,0,0-.15,1.22,4,4,0,0,0,1.68,3.32,5.83,5.83,0,0,0,3.59,1.27,5.55,5.55,0,0,0,2.3-.46,3.91,3.91,0,0,0,1.68-1.61l38.15-57.34Z" transform="translate(-104.41 -253.45)"></path></g><g class="cls-7"><path class="cls-3" d="M504.66,307q5.2,0,5.2-5c0-3.36-1.73-5.05-5.2-5.05H444.73V259.7c0-2.85-1.69-4.28-5.05-4.28s-5.12,1.43-5.12,4.28v41.67q0,5.65,5.43,5.66Zm20.26-47.33q0-4.27-5.23-4.28t-5.24,4.28v61.7q0,4.37,5.24,4.36t5.23-4.36Z" transform="translate(-104.41 -253.45)"></path></g><g class="cls-2"><path class="cls-3" d="M646.87,321.55V259.78q0-4.27-5-4.28-5.42,0-5.42,4.28v28.66H597.77V260.87q0-4.29-5-4.29t-5.13,4.29V292q0,5.65,5.43,5.66H636.4v23.9q0,4.21,5.2,4.21t5.27-4.21" transform="translate(-104.41 -253.45)"></path><path class="cls-3" d="M192.38,290.5c1.34,0,2-2,2-3.33,0-1.52-.67-3.11-2-3.11H176c-5.65.23-5.42-2.23-5.42-4.44V256.09c0-1.47-1.86-2.23-3.67-2.23s-3.59.76-3.59,2.23v26.22c.25,5.2,4.48,8.31,9.48,8.19Z" transform="translate(-104.41 -253.45)"></path><path class="cls-3" d="M134.51,257.1c0-1.34-.65-3-2-3H113.89c-5-.11-9.23,3-9.48,8.2v26.21c0,1.47,1.8,2.23,3.58,2.23s3.68-.76,3.68-2.23v-12c1.22,0,3.87,0,4.31,0h14.41c1.28,0,1.91-1.51,1.91-3,0-1.27-.63-3.16-1.91-3.16H111.67V265c0-2.2-.23-5.29,5.42-5.07h15.43c1.34,0,2-1.32,2-2.84" transform="translate(-104.41 -253.45)"></path><path class="cls-3" d="M255.49,256.84a2.84,2.84,0,0,0-.29-1.23,3.77,3.77,0,0,0-.81-1.09,3.87,3.87,0,0,0-1.17-.78,3.51,3.51,0,0,0-1.43-.29,3.13,3.13,0,0,0-1.12.21,3,3,0,0,0-1,.68l-16.12,21.35-16.12-21.35a3,3,0,0,0-1-.68,3.09,3.09,0,0,0-1.12-.21,3.55,3.55,0,0,0-1.43.29,4.13,4.13,0,0,0-1.17.78,4,4,0,0,0-.81,1.09,2.83,2.83,0,0,0-.28,1.23,2.14,2.14,0,0,0,.73,1.51l17.27,22.77a3.75,3.75,0,0,0,.44.37l0,0v6q0,3,3.54,3c2.11,0,3.26-1,3.43-2.91l.05-5.51a5.46,5.46,0,0,0,0-.56,3.84,3.84,0,0,0,.5-.42l17.27-22.77a2.18,2.18,0,0,0,.73-1.51" transform="translate(-104.41 -253.45)"></path></g></g></g></svg>