<svg version="1.1" id="svg3336" xmlns:svg="http://www.w3.org/2000/svg" xmlns="http://www.w3.org/2000/svg" xmlns:xlink="http://www.w3.org/1999/xlink" x="0px" y="0px" width="140.896px" height="60px" viewBox="0 0 145.896 66.075" enable-background="new 0 0 160.896 62" xml:space="preserve">
 <g id="layer1" transform="translate(-69.74777,-472.70631)">
  <path id="path15303" fill="#5a3f99" d="M147.477,474.713c-2.363,0-3.457,1.818-3.457,4.321v37.638c0,4.448,1.098,5.576,4.712,5.576
		c3.194,0,2.911-0.976,6.244-0.976c3.336,0,3.641,1.812,8.782,1.812c8.613,0,15.278-6.398,15.278-19.46
		c0-11.254-6.274-17.37-14.888-17.37c-3.894,0-5.834,1.534-8.058,1.534c-1.945,0-2.899-2.238-2.899-4.182v-4.573
		c0-2.918-1.54-4.321-3.485-4.321H147.477L147.477,474.713z M199.724,485.084c-9.031,0-17.648,5.398-17.648,19.572
		c0,11.811,7.644,18.066,17.787,18.066c10.422,0,15.418-6.252,15.418-8.476c0-1.668-2.491-3.597-4.711-3.597
		c-3.612,0-4.593,4.852-10.566,4.852c-3.614,0-7.221-3.327-7.221-6.384c0-2.362,1.654-3.625,4.851-3.625h14.47
		c3.337,0,4.712-0.819,4.712-4.015C216.815,498.699,214.871,485.085,199.724,485.084L199.724,485.084z M199.724,492.306
		c3.336,0,6.273,2.487,6.273,4.711c0,1.946-2.387,2.928-6.971,2.928c-3.753,0-5.688-1.124-5.688-3.206
		C193.34,494.238,196.947,492.306,199.724,492.306L199.724,492.306z M161.668,492.779c5.556,0,8.058,5.431,8.058,12.518
		c0,7.505-3.891,11.096-8.336,11.096c-4.725,0-8.058-4.015-8.058-12.072S157.359,492.779,161.668,492.779z M224.064,509.954
">
  </path>
  <path id="path15315" fill="#5a3f99" d="M84.608,472.706c-6.116,0-8.338,4.16-8.894,6.245c-1.112,3.89-1.09,5.159-1.924,5.855
		c-2.084,1.804-4.042,2.35-4.042,4.711c0,3.474,5.27,2.225,5.27,8.894v18.903c0,3.612,1.684,4.851,5.437,4.851
		c3.611,0,5.13-1.655,5.13-4.851v-19.6c0-1.945,0.699-3.458,1.673-4.154c1.111-0.835,4.6-1.679,4.6-4.182
		c0-1.112-0.701-2.372-2.23-3.067c-2.084-0.974-2.509-1.507-2.509-2.621c0-0.972,0.706-1.678,2.928-2.927
		c2.362-1.252,2.062-2.906,2.062-4.433c0-1.948-2.072-3.625-4.851-3.625H84.608L84.608,472.706z M99.607,472.901
		c-2.5,0-4.154,1.962-4.154,4.461v39.729c0,3.613,1.519,5.157,5.688,5.157c3.474,0,5.158-1.539,5.158-4.461v-39.729
		c0-3.471-1.543-5.158-4.461-5.158H99.607z M112.599,486.312c-1.946,0-4.176,0.714-2.509,6.273
		c0.416,1.529,9.172,27.357,9.172,29.72c0,1.946-1.374,3.768-4.014,4.321c-2.503,0.557-4.043,1.654-4.043,3.875
		c0,2.362,1.54,3.765,3.764,3.765h3.458c4.027,0,8.484-1.254,11.263-9.87l10.985-33.344c0.14-0.559,0.278-1.256,0.278-2.23
		c0-1.391-1.397-2.509-3.067-2.509h-2.369c-2.639,0-4.297,1.261-4.852,3.625l-2.927,13.466c-0.416,2.086-1.259,4.321-2.648,4.321
		c-1.111,0-2.064-0.709-2.761-4.182l-2.788-12.769c-0.693-2.918-2.07-4.46-4.433-4.46L112.599,486.312L112.599,486.312z
		 M245.141,497.101c-7.546,0-12.379,5.4-12.379,12.853c0,8.478,5.204,12.769,12.379,12.769c5.775,0,9.701-3.627,9.701-5.492
		c0-1.396-1.391-2.342-2.788-2.342c-2.701,0-2.436,2.342-6.161,2.342c-3.168,0-5.687-2.517-5.687-7.36
		c0-5.498,3.172-7.193,5.408-7.193c2.516,0,3.648,2.147,5.604,2.147c2.05,0,3.541-1.382,3.541-2.593
		C254.759,499.808,249.8,497.101,245.141,497.101L245.141,497.101z M269.201,497.407c-6.52,0-12.769,3.844-12.769,12.602
		c0,8.2,5.492,12.574,12.573,12.574c8.759,0,13.049-5.512,13.049-12.686C282.054,500.674,275.165,497.407,269.201,497.407z
		 M298.225,498.439c-2.703,0-4.113,1.227-6.162,1.227c-1.117,0-2.979-0.669-4.377-0.669c-1.953,0-2.982,0.926-2.982,2.509v17.899
		c0,1.769,0.924,2.704,2.787,2.704s2.816-0.842,2.816-2.426v-10.232c0-4.101,1.58-6.523,4.656-6.523c2.98,0,4.459,2.237,4.459,6.245
		v10.511c0,1.583,0.928,2.426,2.789,2.426c1.863,0,2.816-0.842,2.816-2.426v-9.953c0-4.658,1.955-6.719,4.656-6.719
		c2.887,0,4.461,2.524,4.461,6.997v9.675c0,1.583,0.924,2.426,2.787,2.426c1.865,0,2.816-0.842,2.816-2.426v-14.442
		c0-4.471-2.154-6.803-6.998-6.803c-4.1,0-5.686,2.147-7.639,2.147C302.875,500.586,301.764,498.439,298.225,498.439z
		 M269.285,502.454c3.913,0,6.161,3.252,6.161,7.444c0,4.473-2.619,7.751-6.161,7.751c-3.725,0-6.245-3.279-6.245-7.751
		C263.04,505.053,265.839,502.454,269.285,502.454z">
  </path>
 </g>
</svg>