<?xml version="1.0" encoding="UTF-8" standalone="no"?>
<svg xmlns="http://www.w3.org/2000/svg" width="158" height="32">
  <g fill="none" fill-rule="evenodd">
    <path fill="#FF8200" d="M39.0593742 6.85248045V21.1553893c0 1.3166273-.5714786 3.2851905-5.8341365 3.2851905-5.2626578 0-5.8355406-1.9685632-5.8355406-3.2851905V6.85248045h-2.9893806V21.3183733c0 3.5417132 2.9079414 5.0851008 8.3053952 5.0851008 2.7605084 0 4.7950845-.466276 6.3213676-.8999551v6.4655043h2.9430445l-.0154453-25.11654285h-2.8953043ZM11.9415216.02699402c-3.15085487 0-7.82518465.66185676-7.82518465 3.90736422v2.91812221H.70291079v1.67377481h3.41342616V25.9485361h2.86160531V8.52625526H11.482373l.0014041-1.67377481H6.97794226V4.29434029c0-2.49152931 2.88126305-2.88835991 4.96357934-2.88835991 3.4457211 0 5.1601568.26219165 5.1601568 4.06893096l-.0014041 20.47362476h2.8602012V.48760097h-2.8587971c-1.593681 0-2.3631412-.46060695-5.1601568-.46060695ZM154.398356 8.67931849c-1.729881 0-3.134005 1.42150391-3.134005 3.17181031 0 1.753141 1.404124 3.1760621 3.134005 3.1760621 1.746731 0 3.143834-1.4229211 3.143834-3.1760621 0-1.7503064-1.397103-3.17181031-3.143834-3.17181031Z"/>
    <path fill="#006496" d="M131.561679 11.1748075c2.224132-.2551054 4.216585-.3798235 5.471872-.3840753-.690829-2.68852736-3.847301-3.73871122-9.055198-3.73871122-4.498814 0-8.513205 1.5674809-8.513205 1.5674809v3.73445942s2.78157-2.2605172 8.590432-2.2605172c1.902589 0 2.952874.3429751 3.506099 1.0813634Zm-69.4114808 9.3836266c-.1614743 2.0691882-2.3701618 3.1888174-4.5156637 3.1888174-4.6476515 0-5.2991651-2.0394259-5.2991651-6.6979337 0-4.6528389.9112766-6.688013 5.0702928-6.688013 2.6959186 0 4.5830617 1.1125429 4.744536 3.1803138.1291794 1.6723576.1965774 2.5269607.1965774 3.5076992 0 .983573-.067398 1.9373837-.1965774 3.5091163Zm.1965774-12.36552513c-1.9194379-.75397815-3.3797272-1.14797425-5.7541014-1.14797425-7.2466855 0-9.4567771 2.75797271-9.4567771 10.00438308 0 7.216648 3.2491436 10.0072175 10.4986374 10.0072175 4.417375 0 7.6286073-1.6681058 9.9117134-1.6681058V1.1406622h-5.1994723v7.05224677Zm84.3864664-.70437432-5.199473.00141725v3.1477171h5.199473V7.48853465ZM132.16826 20.5116648c0 2.7267932-2.527423 3.4155777-4.258709 3.4155777-2.952873 0-4.465115-.8971206-4.465115-2.8274181 0-3.2596799 4.142167-4.9362892 8.723824-5.2154879v4.6273283Zm15.660199-8.0117265-1.509434.0028345c-21.080118 0-27.911183 3.951299-27.911183 8.469499 0 4.1964836 3.574901 6.0374942 9.361297 6.0374942 3.733566 0 7.512065-1.6284228 9.489072-1.6284228V15.2068899c2.465642-.3146299 4.309257-.365651 4.309257-.365651v11.763193h5.19526v-8.8549916c0-3.1633068 1.065731-5.249502 1.065731-5.249502Zm-42.648872 11.2473132c-2.146906 0-4.354189-1.1196292-4.515664-3.1888174-.129179-1.5717326-.195173-2.5255433-.195173-3.5091163 0-.9807385.065994-1.8353416.195173-3.5091164.161475-2.0663537 2.050022-3.1788966 4.745941-3.1788966 4.157612 0 5.068888 2.0351741 5.068888 6.688013 0 4.6585078-.650109 6.6979337-5.299165 6.6979337Zm1.040456-16.70231678c-2.37297 0-3.834663.3939961-5.751293 1.14797425V1.1406622h-5.1994721v24.2477673c2.281702 0 5.4901261 1.6681058 9.9103091 1.6681058 7.24809 0 10.498638-2.7905695 10.498638-10.0072175 0-7.24641037-2.211496-10.00438308-9.458182-10.00438308ZM85.7830142 20.6902386c0 1.3166272-.4254497 3.2809387-4.3247028 3.2809387-3.8992532 0-4.3190864-1.9643115-4.3190864-3.2809387V7.50554167h-5.2036846V21.9714345c.0014041 3.5417132 3.6057912 5.0851008 9.0060532 5.0851008 4.7754268 0 7.8588837-1.4767768 9.3879751-1.641178l.6501095-.0680281V7.50554167h-5.196664V20.6902386Z"/>
  </g>
</svg>