<svg xmlns="http://www.w3.org/2000/svg" viewBox="0 0 191.34 152.11"><title>FlyEgypt logo - Brandlogos.net</title><path d="M348.73,333.47c-.29,0-.58.06-.87.06-6.72,0-13.44,0-20.16,0A13.57,13.57,0,0,0,315.24,341a11.41,11.41,0,0,0-1.34,5.59c0,2.1,0,4.2,0,6.3,0,.67.17.86.83.84a37.82,37.82,0,0,1,13.41,1.89A39.56,39.56,0,0,1,344.28,366c.36.38.33.61,0,1-7,7.27-15.44,11.56-25.6,12.23-1.3.09-2.6.11-3.9.08-.7,0-.89.16-.89.87,0,6.27,0,12.54,0,18.81q0,10.92,0,21.84c0,.68-.08.88-.8.58q-19.9-8.2-24-29.32c-.29-1.51-.47-3-.61-4.58,0-.17.06-.38-.16-.49V343c.23-.1.16-.31.18-.48a38.55,38.55,0,0,1,32-34,29.34,29.34,0,0,0,3.72-.61h37.31c-1.19,1.42-2.61,2.62-3.82,4a41.47,41.47,0,0,0-5.43,8A31.56,31.56,0,0,0,348.73,333.47Z" transform="translate(-288.33 -307.94)" style="fill:#216092"/><path d="M427.2,385a16.29,16.29,0,0,0,2.58,5.59,13.89,13.89,0,0,0,21.64.73,12.31,12.31,0,0,0,2.63-7.69,40.59,40.59,0,0,1,1.66-11.7,37.59,37.59,0,0,1,10.77-16.47c.36-.34.55-.22.84.06A39.26,39.26,0,0,1,478.08,373a40.87,40.87,0,0,1,1.41,7.26c0,.19-.07.44.18.56v46.08c-.34.14-.2.45-.22.68a38.18,38.18,0,0,1-4.73,14.77,39,39,0,0,1-19.48,17.25c-.22.09-.59.07-.61.46h-.8c.31-.18.18-.48.18-.72q0-19.52,0-39c0-.92,0-1-1-.65a38.73,38.73,0,0,1-24.2.25,37.4,37.4,0,0,1-14.44-8.3h0c0-.35.33-.53.54-.76,1.13-1.19,2.34-2.31,3.37-3.58a40.51,40.51,0,0,0,5.47-8.67,36.53,36.53,0,0,0,3-10.37C426.91,387.14,426.67,386,427.2,385Z" transform="translate(-288.33 -307.94)" style="fill:#eb7204"/><path d="M348.73,333.47a31.56,31.56,0,0,1,3.53-13.53,41.47,41.47,0,0,1,5.43-8c1.21-1.41,2.63-2.61,3.82-4h.16a42.79,42.79,0,0,1,9.78,12.92,29.66,29.66,0,0,1,3,11.79c0,.29,0,.58,0,.87a3.9,3.9,0,0,0-.4,0H349.47a5.12,5.12,0,0,0-.63.08A.17.17,0,0,1,348.73,333.47Z" transform="translate(-288.33 -307.94)" style="fill:#0d2060"/><path d="M479.67,330.27s-.06,0-.07,0c-1.79,3.47-4.34,3.55-6.67,3.11a5.91,5.91,0,0,1-4.87-5.56,64.05,64.05,0,0,1,0-12c.25-2.44,1.3-4.49,3.91-5.28.1,0,.2,0,.37-.07,0,1.41,0,2.79,0,4.16,0,.5.15.63.63.62,2.23,0,4.46,0,6.69,0v.32c-.14,0-.15.11-.2.2a5.17,5.17,0,0,1-5.07,3c-.48,0-1,0-1.43,0s-.63.16-.61.63c0,.9,0,1.8,0,2.7a33.1,33.1,0,0,0,.26,5.79,2.16,2.16,0,0,0,2.12,2,33.28,33.28,0,0,0,4.92,0Z" transform="translate(-288.33 -307.94)" style="fill:#0d2060"/><path d="M348.84,333.56a5.12,5.12,0,0,1,.63-.08H374a3.9,3.9,0,0,1,.4,0c0,.82,0,1.65,0,2.47,0,15.49.1,31,0,46.47a13.37,13.37,0,0,0,10.42,13.29A13.59,13.59,0,0,0,400,388.38a17,17,0,0,0,1.37-4.22c.24.21.16.49.15.75a29.21,29.21,0,0,0,.91,7.12,35.61,35.61,0,0,0,5.6,12.42,36.28,36.28,0,0,0,5.72,6.54.86.86,0,0,1,.38.58,38.73,38.73,0,0,1-18.21,9.32,39.34,39.34,0,0,1-44.83-24.7,35.86,35.86,0,0,1-2.26-12.24q0-25,0-50C348.82,333.83,348.84,333.7,348.84,333.56Z" transform="translate(-288.33 -307.94)" style="fill:#c20e2f"/><path d="M414.14,411.57a.86.86,0,0,0-.38-.58,36.28,36.28,0,0,1-5.72-6.54,35.61,35.61,0,0,1-5.6-12.42,29.21,29.21,0,0,1-.91-7.12c0-.25.08-.54-.15-.75,0-7.08,1.42-13.8,5.16-19.92a42.84,42.84,0,0,1,7.22-8.76c.3-.28.5-.44.9-.06A36.9,36.9,0,0,1,426,374.24a44.14,44.14,0,0,1,1.1,9c0,.58.08,1.16.13,1.74-.53,1-.29,2.17-.43,3.26a36.53,36.53,0,0,1-3,10.37,40.51,40.51,0,0,1-5.47,8.67c-1,1.27-2.24,2.39-3.37,3.58-.22.23-.5.4-.54.76h0Z" transform="translate(-288.33 -307.94)" style="fill:#d5441d"/><polygon points="126.1 103.67 126.09 103.66 126.09 103.66 126.1 103.67" style="fill:#c20e2f"/><path d="M413.38,336.73h4.38c.85,0,1.7,0,2.55-.06a2.31,2.31,0,0,0,2.5-2.26c.09-.54.12-1.1.18-1.79a10.41,10.41,0,0,1-6.91.71c-3-.5-4.46-1.86-5-4.84a24.28,24.28,0,0,1-.13-8.49,5.53,5.53,0,0,1,4.8-4.95,18.31,18.31,0,0,1,7.2.09c2.71.59,4,2.66,4.46,5.16a16.8,16.8,0,0,1,.15,3.26c-.06,3.53.18,7.07-.13,10.59-.32,3.7-2.32,5.66-6,6a12.93,12.93,0,0,1-4.51-.21A5,5,0,0,1,413.38,336.73ZM423,324.48a21.09,21.09,0,0,0-.15-3.78,2.32,2.32,0,0,0-2.29-2.32,9.63,9.63,0,0,0-3.09,0,2.17,2.17,0,0,0-2.07,2.07,26.41,26.41,0,0,0,.07,7.54,2.1,2.1,0,0,0,2,1.89,12.32,12.32,0,0,0,3.1,0,2.23,2.23,0,0,0,2.14-2.08A27.81,27.81,0,0,0,423,324.48Z" transform="translate(-288.33 -307.94)" style="fill:#0d2060"/><path d="M432.27,336.73h5.91c3,0,3.85-1,3.68-4.07-2.2,1.17-4.52,1-6.85.66-3-.49-4.57-2-5.07-5a25.07,25.07,0,0,1,0-8.56,5.48,5.48,0,0,1,3.44-4.53c.58-.22.8-.23.79.51,0,3.45,0,6.91,0,10.36,0,3.11.83,3.93,3.91,3.93a10.74,10.74,0,0,0,1.27-.07,2.64,2.64,0,0,0,2.58-2.62c.23-2.25-.06-4.52.14-6.77a5.93,5.93,0,0,1,3.66-5.35c.57-.24.8-.27.79.5,0,5.34,0,10.68,0,16a15.4,15.4,0,0,1-.29,3.49c-.61,2.65-2.13,4.4-4.92,4.85a14.79,14.79,0,0,1-4.92,0A5.28,5.28,0,0,1,432.27,336.73Z" transform="translate(-288.33 -307.94)" style="fill:#0d2060"/><path d="M453.4,332.59c0,2.29,0,4.46,0,6.63,0,.65-.13.77-.74.53-2.38-.93-3.3-2.89-3.6-5.21a63.76,63.76,0,0,1-.15-8,53.18,53.18,0,0,1,.12-5.81c.36-3.44,2.2-5.36,5.64-5.84a19.67,19.67,0,0,1,5.71.05,5.62,5.62,0,0,1,5.06,4.87,25.13,25.13,0,0,1,.07,8.17c-.53,3.44-2.4,5.07-5.85,5.43A10.21,10.21,0,0,1,453.4,332.59Zm0-8.46a27.94,27.94,0,0,0,.26,3.73,2.25,2.25,0,0,0,2.17,2.08,12.65,12.65,0,0,0,3,0,2.22,2.22,0,0,0,2.16-2.07,27.47,27.47,0,0,0,0-7.47,2.1,2.1,0,0,0-1.9-2,10.14,10.14,0,0,0-3.56,0,2.12,2.12,0,0,0-1.86,1.88A25.69,25.69,0,0,0,453.39,324.13Z" transform="translate(-288.33 -307.94)" style="fill:#0d2060"/><path d="M407.74,330a5,5,0,0,1-3.3,3,13.41,13.41,0,0,1-8.46-.09,5.07,5.07,0,0,1-3.36-4.13,23.74,23.74,0,0,1,0-9,5.43,5.43,0,0,1,4.75-4.7,17.94,17.94,0,0,1,6.5,0c2.6.51,4.31,2.56,4.68,5.54a12.15,12.15,0,0,1,.05,3.26,2.12,2.12,0,0,1-2.4,2.11c-2.9,0-5.79,0-8.69,0-.64,0-.73.19-.66.76.31,2.74.84,3.28,3.6,3.33C402.82,330.05,405.21,330,407.74,330Zm-7.11-7.63c1.14,0,2.28,0,3.42,0,.37,0,.49-.1.49-.5,0-2.7-.9-3.58-3.59-3.6h-.4c-2.85,0-3.57.69-3.74,3.52a.52.52,0,0,1,0,.08c-.09.4.1.5.47.49C398.4,322.38,399.52,322.4,400.63,322.4Z" transform="translate(-288.33 -307.94)" style="fill:#0d2060"/></svg>