<?xml version="1.0" encoding="UTF-8" standalone="no"?><!DOCTYPE svg PUBLIC "-//W3C//DTD SVG 1.1//EN" "http://www.w3.org/Graphics/SVG/1.1/DTD/svg11.dtd"><svg width="100%" height="100%" viewBox="0 0 253 215" version="1.1" xmlns="http://www.w3.org/2000/svg" xmlns:xlink="http://www.w3.org/1999/xlink" xml:space="preserve" xmlns:serif="http://www.serif.com/" style="fill-rule:evenodd;clip-rule:evenodd;stroke-linejoin:round;stroke-miterlimit:2;"><path d="M61.419,80.885l-39.826,0c-2.626,0 -4.786,2.161 -4.786,4.786l0,58.23c0,2.626 2.161,4.786 4.786,4.786l6.109,-0c2.626,-0 4.786,-2.161 4.786,-4.786l0,-21.274l20.216,0c2.626,-0.001 4.786,-2.161 4.786,-4.786l-0,-6.108c-0,-2.626 -2.161,-4.786 -4.786,-4.786l-20.216,0l0,-10.381l28.93,0c2.626,-0 4.786,-2.161 4.786,-4.786l0,-6.108c-0,-2.626 -2.161,-4.786 -4.786,-4.787Z" style="fill:#0094d9;fill-rule:nonzero;"/><path d="M112.652,133.089l-27.627,0l0,-47.417c-0,-2.626 -2.16,-4.786 -4.786,-4.786l-6.109,0c-2.626,0 -4.786,2.161 -4.786,4.786l0,58.23c0,2.626 2.161,4.786 4.786,4.786l38.522,0c2.626,-0 4.786,-2.161 4.786,-4.786l0,-6.027c-0,-2.626 -2.161,-4.786 -4.786,-4.786Z" style="fill:#0094d9;fill-rule:nonzero;"/><path d="M162.372,83.507c-0.815,-1.606 -2.469,-2.621 -4.27,-2.621l-7.575,0c-1.528,0 -2.968,0.732 -3.868,1.967l-13.653,18.73l-13.719,-18.738c-0.901,-1.23 -2.337,-1.959 -3.861,-1.959l-7.575,0c-2.625,0.001 -4.785,2.161 -4.785,4.787c0,1.017 0.324,2.008 0.925,2.828l21.146,28.87l0,26.532c0,2.626 2.161,4.786 4.786,4.786l6.107,-0c2.626,-0 4.786,-2.161 4.786,-4.786l0,-26.532l21.147,-28.87c1.063,-1.453 1.222,-3.387 0.409,-4.994Z" style="fill:#0094d9;fill-rule:nonzero;"/><path d="M143.456,184.67c0.12,-0.119 0.188,-0.282 0.188,-0.451c0,-0.348 -0.287,-0.635 -0.635,-0.635c-0.081,0 -0.16,0.015 -0.235,0.045c-48.653,18.943 -104.13,7.801 -141.695,-28.46c-0.119,-0.114 -0.277,-0.178 -0.442,-0.178c-0.349,0 -0.637,0.288 -0.637,0.637c0,0.128 0.038,0.253 0.11,0.358c20.823,30.742 53.508,51.493 90.189,57.258c2.417,0.36 5.813,0.953 7.115,0.428c21.028,-8.478 35.529,-18.872 46.042,-29.003Z" style="fill:#0094d9;fill-rule:nonzero;"/><path d="M243.711,101.739c3.157,-13.53 7.516,-30.739 8.432,-61.259c0.489,-16.314 -0.368,-32.81 -0.748,-38.997c-0.052,-0.829 -0.749,-1.483 -1.58,-1.483c-0.282,0 -0.558,0.075 -0.801,0.218l-92.24,53.59c-0.488,0.284 -0.79,0.807 -0.79,1.372c0,0.683 0.441,1.293 1.09,1.507l27.391,9.033c0.84,0.27 1.481,0.959 1.69,1.817c1.849,8.269 2.78,16.717 2.776,25.191c0.037,29.855 -9.942,58.876 -28.331,82.396c-12.753,16.355 -29.113,29.545 -47.8,38.539c-0.236,0.111 -0.388,0.35 -0.388,0.611c0,0.371 0.305,0.676 0.676,0.676c0.001,0 0.001,-0 0.002,-0c66.023,-0.87 115.312,-47.595 130.622,-113.209Z" style="fill:#224099;fill-rule:nonzero;"/></svg>