<?xml version="1.0" encoding="UTF-8" standalone="no"?>
<!DOCTYPE svg PUBLIC "-//W3C//DTD SVG 1.1//EN" "http://www.w3.org/Graphics/SVG/1.1/DTD/svg11.dtd">
<svg width="100%" height="100%" viewBox="0 0 484 432" version="1.1" xmlns="http://www.w3.org/2000/svg" xmlns:xlink="http://www.w3.org/1999/xlink" xml:space="preserve" xmlns:serif="http://www.serif.com/" style="fill-rule:evenodd;clip-rule:evenodd;stroke-linejoin:round;stroke-miterlimit:2;">
    <g transform="matrix(4.166667,0,0,4.166667,0,0)">
        <g id="layer1" transform="matrix(3.779528,0,0,3.779528,-5.43165,-3.285379)">
            <g id="g10" transform="matrix(0.228742,0,0,-0.228742,1.39747,28.556989)">
                <g id="g12" transform="matrix(0.1,0,0,0.1,0,0)">
                    <path id="path16" d="M5.668,332.531C15.836,327.715 32.082,308.668 44.805,297.102C142.773,208.051 233.277,162.02 337.031,162.012C458.547,162 611.648,267.648 737.012,393.375C898.773,555.602 1038.45,744.598 1164.66,746.68C1249.21,748.074 1319.86,644.02 1344.66,570.496C1326.05,583.641 1307.14,591.266 1286.91,589.883C1213.27,584.848 1081.09,394.293 909.383,233.906C777.406,110.625 619.789,12.293 460.402,12.293C289.273,12.293 135.863,140.668 28.73,291.23C19.402,304.348 -8.488,339.238 5.668,332.531ZM278.664,1208.01C277.168,1200.95 267.195,1187.9 261.625,1178.2C218.734,1103.52 217.137,1043.52 240.32,980.789C268.148,905.477 354.125,846.48 462.246,793.559C605.137,723.613 737.77,659.344 753.137,579.012C763.32,525.789 723.023,442.328 663.496,415.426C669.133,429.02 670.238,441.723 666.688,454.262C648.457,518.637 506.293,573.129 370.273,654.402C265.719,716.875 168.609,777.188 141.703,875.977C112.816,982.039 172.598,1097.24 255,1187.24C262.176,1195.09 280.754,1217.84 278.664,1208.01" style="fill:rgb(2,23,166);"/>
                </g>
            </g>
        </g>
    </g>
</svg>
