<svg version="1.1" id="Layer_1" xmlns="http://www.w3.org/2000/svg" xmlns:xlink="http://www.w3.org/1999/xlink" x="0px" y="0px" viewBox="0 0 57.1 47.6" style="enable-background:new 0 0 57.1 47.6;" xml:space="preserve">
 <style type="text/css">
  .st0{fill:#006643;}
 </style>
 <g>
  <g transform="translate(-395 -22)">
   <g>
    <g>
     <g>
      <path id="fbpsh" class="st0" d="M451.9,22h-38.1c-4.4,0-6.6,2-8.1,7.9l-1.8,6.9c-0.1,0.2,0.1,0.3,0.3,0.2c0,0,2.2-1.5,6-1.5
						h32.2c4,0,7-3.5,7.9-6.5l1.8-6.7C452.1,22.1,452.1,22,451.9,22z">
      </path>
     </g>
    </g>
    <g>
     <g>
      <path id="fbpsi" class="st0" d="M445.6,39.1h-36.3c-4.4,0-6.3,1.7-8.1,7.9l-1.8,6.8c-0.1,0.2,0.1,0.3,0.3,0.2
						c0,0,2.3-1.5,6.1-1.5h29.6c4.6,0,7.8-3.6,9.3-8.8l1.2-4.4C445.8,39.1,445.7,39.1,445.6,39.1L445.6,39.1z">
      </path>
     </g>
    </g>
    <g>
     <g>
      <path id="fbpsj" class="st0" d="M421.2,56.1h-16.6c-4.3,0-6.5,1.9-8,7.4l-1.6,5.9c0,0.1,0.1,0.2,0.2,0.2h15.9
						c4,0,7.4-2.5,8.9-8l1.4-5.3C421.4,56.3,421.3,56.1,421.2,56.1z">
      </path>
     </g>
    </g>
   </g>
  </g>
 </g>
</svg>