<svg role="img" viewBox="0 0 24 24" xmlns="http://www.w3.org/2000/svg"><title>Garuda Indonesia</title><path fill="#008b99" d="M6.005 10.036c-.31-.002-.516.001-.564.001H2.117l.135.225H5.15c.6 0 2.914.034 4.678.977 1.516.815 3.01 1.932 3.29 2.134.28.202 2.556 1.825 2.556 1.825s.533.36 1.022.36c.488 0 1.01-.522 1.01-.522s-3.627-2.607-3.958-2.837c-.326-.23-1.635-1.297-3.735-1.796-1.23-.312-3.08-.362-4.008-.367zM3.18 11.862l.122.225h2.37c.68 0 2.14.068 3.898.983l.01.006c1.191.623 2.5 1.6 2.758 1.774.253.174 1.915 1.37 1.915 1.37s.523.37 1.006.37c.51 0 1.033-.532 1.033-.532s-3.105-2.219-3.335-2.37c-.236-.146-1.41-1.04-3.118-1.494-1.359-.365-3.678-.332-3.87-.332zm1.038 1.826.135.23h1.842c.275 0 2.01.084 3.245.904h.007c1.174.78 1.864 1.348 2.089 1.511.224.163 1.269.91 1.269.91s.483.376 1.072.376c.444 0 .995-.517.995-.517s-2.494-1.758-2.724-1.915c-.23-.157-1.028-.786-2.522-1.18-1.247-.325-3.021-.32-3.14-.32z"/><path fill="#002560" d="m0 6.382.135.23h4.02c1.012 0 3.937.084 6.144 1.044v.006c1.662.73 4.044 2.504 4.392 2.757.348.253 3.773 2.701 3.773 2.701s.54.388 1.04.388.993-.5.993-.5-4.846-3.476-5.194-3.723c-.354-.253-1.96-1.6-4.948-2.387-2.044-.539-5.566-.516-5.97-.516Zm1.055 1.82.135.23h3.55c1.291 0 3.509.111 5.306 1.01l-.006.006c1.668.837 3.583 2.246 3.858 2.443.281.196 3.145 2.24 3.145 2.24s.539.382 1.033.382c.54 0 1.039-.516 1.039-.516s-4.397-3.145-4.588-3.28c-.202-.14-2.117-1.6-4.347-2.106-1.932-.438-4.851-.41-5.267-.41Zm16.483 1.684c-.196.444.573.954.573.954l2.386 1.713c.304.191.573.04.573.04s.613-.309.96-.382c.304-.078 1.258-.118 1.376-.079.27.04.573.308.573.308.151-1.072-.54-1.145-.994-1.224v-.01c-.45-.08-1.033-.112-1.033-.112l-.803.23-.46-.383s.954.08 1.223.119c.23 0 .152-.118.04-.348-.113-.225-.382-.225-.382-.225h-2.41s-.432 0-.932-.113c-.5-.118-.69-.488-.69-.488z"/></svg>