<?xml version="1.0" encoding="UTF-8" standalone="no"?><!DOCTYPE svg PUBLIC "-//W3C//DTD SVG 1.1//EN" "http://www.w3.org/Graphics/SVG/1.1/DTD/svg11.dtd"><svg width="100%" height="100%" viewBox="0 0 194 193" version="1.1" xmlns="http://www.w3.org/2000/svg" xmlns:xlink="http://www.w3.org/1999/xlink" xml:space="preserve" xmlns:serif="http://www.serif.com/" style="fill-rule:evenodd;clip-rule:evenodd;stroke-linejoin:round;stroke-miterlimit:2;"><g id="layer1"><path id="path1070" d="M0,90.107c6.027,-9.044 18.144,-18.375 36.452,-24.248c13.331,-4.282 33.22,-7.34 53.428,-7.34c41.497,0 81.233,11.638 99.593,31.707c-2.414,-50.237 -43.906,-90.225 -94.739,-90.225c-50.787,0 -92.258,39.927 -94.734,90.107m94.734,99.598c35.366,0 71.335,-22.637 71.335,-38.264c0,-13.434 -26.565,-21.541 -66.296,-21.541c-20.898,0 -38.3,3.171 -55.183,3.171c-16.764,0 -33.199,-6.192 -41.723,-14.52c10.521,40.92 47.663,71.155 91.867,71.155" style="fill:url(#_Radial1);fill-rule:nonzero;"/><path id="path1098" d="M38.995,76.765c-18.453,6.228 -33.05,18.813 -33.05,27.064c0,9.486 19.189,18.839 39.052,18.839c12.93,0 27.635,-2.728 51.709,-2.728c57.376,0 78.443,15.534 78.443,29.102c0,17.655 -24.145,33.055 -47.436,39.561l-0.175,3.938c44.055,-11.458 66.275,-35.933 66.275,-68.334c0,-15.153 -5.533,-27.126 -20.553,-36.133c-18.839,-11.308 -50.566,-18.669 -82.206,-18.669c-17.933,0 -37.333,2.399 -52.059,7.36" style="fill:url(#_Linear2);fill-rule:nonzero;"/><path id="path1124" d="M38.558,83.858c-13.769,5.183 -25.247,14.958 -25.247,20.11c0,5.271 15.158,11.344 22.236,11.344c18.283,-14.706 54.246,-30.904 97.689,-30.904c9.666,0 17.984,1.513 29.169,3.938c-14.515,-7.263 -40.828,-13.064 -67.042,-13.064c-22.406,0 -42.696,3.274 -56.804,8.575" style="fill:url(#_Linear3);fill-rule:nonzero;"/><path id="path1150" d="M31.182,54.112c0,4.396 0.911,8.642 2.584,12.647c0.88,-0.304 1.771,-0.602 2.687,-0.901c13.331,-4.282 33.22,-7.34 53.428,-7.34c23.312,0 46.067,3.675 64.793,10.454c2.321,-4.648 3.598,-9.651 3.598,-14.86c0,-24.691 -28.449,-44.708 -63.542,-44.708c-35.094,0 -63.547,20.017 -63.547,44.708" style="fill:url(#_Linear4);fill-rule:nonzero;"/></g><defs><radialGradient id="_Radial1" cx="0" cy="0" r="1" gradientUnits="userSpaceOnUse" gradientTransform="matrix(94.795278,0,0,94.795278,94.739791,94.8538)"><stop offset="0" style="stop-color:#3c9776;stop-opacity:1"/><stop offset="0.9" style="stop-color:#108565;stop-opacity:1"/><stop offset="1" style="stop-color:#108565;stop-opacity:1"/></radialGradient><linearGradient id="_Linear2" x1="0" y1="0" x2="1" y2="0" gradientUnits="userSpaceOnUse" gradientTransform="matrix(158.07666,91.265695,-91.265695,158.07666,25.180312,68.00663)"><stop offset="0" style="stop-color:#4dbf5d;stop-opacity:1"/><stop offset="0.75" style="stop-color:#37a961;stop-opacity:1"/><stop offset="1" style="stop-color:#108565;stop-opacity:1"/></linearGradient><linearGradient id="_Linear3" x1="0" y1="0" x2="1" y2="0" gradientUnits="userSpaceOnUse" gradientTransform="matrix(17.192457,47.236004,-47.236004,17.192457,77.58951,68.20381)"><stop offset="0" style="stop-color:#b8e5b1;stop-opacity:1"/><stop offset="1" style="stop-color:#5ec569;stop-opacity:1"/></linearGradient><linearGradient id="_Linear4" x1="0" y1="0" x2="1" y2="0" gradientUnits="userSpaceOnUse" gradientTransform="matrix(0,59.568335,-59.568335,0,94.72754,9.40403)"><stop offset="0" style="stop-color:#fff;stop-opacity:1"/><stop offset="1" style="stop-color:#3c9776;stop-opacity:1"/></linearGradient></defs></svg>