<?xml version="1.0" encoding="UTF-8" standalone="no"?><!DOCTYPE svg PUBLIC "-//W3C//DTD SVG 1.1//EN" "http://www.w3.org/Graphics/SVG/1.1/DTD/svg11.dtd"><svg width="100%" height="100%" viewBox="0 0 84 44" version="1.1" xmlns="http://www.w3.org/2000/svg" xmlns:xlink="http://www.w3.org/1999/xlink" xml:space="preserve" xmlns:serif="http://www.serif.com/" style="fill-rule:evenodd;clip-rule:evenodd;stroke-linejoin:round;stroke-miterlimit:2;"><path d="M16.862,37.363c32.898,-9.224 28.07,17.431 56.963,-0.024c-11.223,1.554 -13.794,-5.133 -25.326,-9.2c0,0 -8.723,-4.913 -18.286,-2.106c-3.363,1.101 -3.321,1.102 -8.264,5.586c-0.844,0.766 -3.795,4.337 -5.086,5.746" style="fill:#ffcb00;fill-rule:nonzero;"/><path d="M16.862,37.363c26.68,-19.768 47.867,-15.111 67.112,-37.363c-4.338,47.874 -40.67,20.038 -67.112,37.363Z" style="fill:#b61e3f;fill-rule:nonzero;"/><path d="M33.468,21.33c-11.6,-5.174 -16.62,-17.755 -33.468,-20.696c9.399,6.109 9.533,18.1 20.503,27.896c1.985,-6.56 7.82,-7.814 12.965,-7.2l0,-0Z" style="fill:#1d1d1b;fill-rule:nonzero;"/></svg>