<?xml version="1.0" encoding="UTF-8" standalone="no"?>
<!DOCTYPE svg PUBLIC "-//W3C//DTD SVG 1.1//EN" "http://www.w3.org/Graphics/SVG/1.1/DTD/svg11.dtd">
<svg width="100%" height="100%" viewBox="0 0 1628 870" version="1.1" xmlns="http://www.w3.org/2000/svg" xmlns:xlink="http://www.w3.org/1999/xlink" xml:space="preserve" xmlns:serif="http://www.serif.com/" style="fill-rule:evenodd;clip-rule:evenodd;stroke-linejoin:round;stroke-miterlimit:2;">
    <g transform="matrix(12.5,0,0,12.5,0,0)">
        <g transform="matrix(5.02308,0,0,-5.02308,43.007608,56.83263)">
            <path d="M0,0C-0.167,0.206 -0.344,0.46 -0.614,0.93C-0.86,1.356 -3.147,5.313 -3.602,6.102C-4.056,6.891 -4.647,7.853 -6.952,7.853C-7.438,7.853 -7.995,7.853 -8.562,7.797C-8.126,7.31 -7.71,6.644 -7.234,5.821C-5.935,3.571 -4.062,0.326 -3.936,0.109C-3.853,-0.035 -3.575,-0.533 -3.399,-0.778C-2.741,-1.187 -0.954,-1.204 0,0" style="fill:rgb(250,178,11);fill-rule:nonzero;"/>
        </g>
        <g transform="matrix(5.02308,0,0,-5.02308,87.950106,0)">
            <path d="M0,0C-2.305,0 -2.895,-0.963 -3.35,-1.752C-3.805,-2.541 -8.088,-9.958 -8.333,-10.384C-8.604,-10.854 -8.78,-11.108 -8.947,-11.314C-7.993,-12.518 -6.207,-12.501 -5.548,-12.092C-5.373,-11.847 -5.094,-11.35 -5.011,-11.205C-4.886,-10.988 -1.017,-4.283 0.282,-2.032C0.758,-1.21 1.174,-0.544 1.609,-0.057C1.044,0 0.487,0 -0,0" style="fill:rgb(118,11,57);fill-rule:nonzero;"/>
        </g>
        <g transform="matrix(5.02308,0,0,-5.02308,43.007608,56.83263)">
            <path d="M0,0C-0.954,-1.204 -2.741,-1.187 -3.399,-0.778C-2.638,-1.843 -1.4,-2.536 0,-2.536C1.399,-2.536 2.638,-1.843 3.399,-0.778C2.741,-1.187 0.954,-1.204 0,0" style="fill:rgb(169,6,80);fill-rule:nonzero;"/>
        </g>
        <g transform="matrix(5.02308,0,0,-5.02308,77.152494,56.83263)">
            <path d="M0,0C-0.167,0.206 -0.344,0.46 -0.615,0.93C-0.86,1.356 -3.148,5.313 -3.602,6.102C-4.055,6.891 -4.646,7.853 -6.952,7.853C-7.438,7.853 -7.995,7.853 -8.562,7.797C-8.127,7.31 -7.71,6.644 -7.234,5.821C-5.935,3.571 -4.062,0.326 -3.936,0.109C-3.853,-0.035 -3.575,-0.533 -3.399,-0.778C-2.741,-1.187 -0.954,-1.204 0,0" style="fill:rgb(250,178,11);fill-rule:nonzero;"/>
        </g>
        <g transform="matrix(5.02308,0,0,-5.02308,122.091978,0)">
            <path d="M0,0C-2.304,0 -2.895,-0.963 -3.35,-1.752C-3.804,-2.541 -8.088,-9.958 -8.332,-10.384C-8.602,-10.854 -8.779,-11.108 -8.946,-11.314C-7.992,-12.518 -6.207,-12.501 -5.548,-12.092C-5.373,-11.847 -5.094,-11.35 -5.01,-11.205C-4.885,-10.988 -1.016,-4.283 0.283,-2.032C0.758,-1.21 1.175,-0.544 1.61,-0.057C1.044,0 0.488,0 -0,0" style="fill:rgb(118,11,57);fill-rule:nonzero;"/>
        </g>
        <g transform="matrix(5.02308,0,0,-5.02308,77.152494,56.83263)">
            <path d="M0,0C-0.954,-1.204 -2.741,-1.187 -3.399,-0.778C-2.638,-1.843 -1.4,-2.536 0,-2.536C1.398,-2.536 2.638,-1.843 3.399,-0.778C2.74,-1.187 0.954,-1.204 0,0" style="fill:rgb(169,6,80);fill-rule:nonzero;"/>
        </g>
        <g transform="matrix(5.02308,0,0,-5.02308,69.611344,44.446218)">
            <path d="M0,0C-0.648,1.12 -1.474,2.549 -1.899,3.286C-2.569,2.125 -3.266,0.918 -3.796,0C-3.077,-1.245 -2.503,-2.24 -2.435,-2.356C-2.352,-2.501 -2.074,-2.999 -1.897,-3.243C-1.722,-2.999 -1.443,-2.501 -1.36,-2.356C-1.314,-2.276 -0.753,-1.304 -0,0" style="fill:rgb(169,6,80);fill-rule:nonzero;"/>
        </g>
    </g>
</svg>
