<svg version="1.2" xmlns="http://www.w3.org/2000/svg" viewBox="0 0 1552 1311" width="1552" height="1311"><style>.a{fill:#c1bfbc}.b{fill:#ee7203}</style><path class="a" d="m897 0.6c-41.3 0-81.8 3.8-121 11.1 303.8 56.8 533.8 300.3 533.8 620.7 0 228-184.8 436-412.8 436-42.1 0-82.7-6.3-121-18-168.9-51.7-291.8-209-291.8-394.9 0-186 122.9-343.2 291.8-394.9-38.2-11.7-78.8-18.1-120.9-18.1-228 0-412.8 208-412.8 436.1 0 320.3 229.9 563.8 533.7 620.6 39.2 7.3 79.7 11.2 121 11.2 361.5 0 654.7-293.2 654.7-654.9 0-361.7-293.2-654.9-654.7-654.9z"/><path class="b" d="m655.1 0.6c41.3 0 81.7 3.8 120.9 11.1 303.8 56.8 533.8 300.3 533.8 620.7 0 228-184.8 436-412.8 436-42.1 0-82.7-6.3-121-18 169-51.7 291.9-209 291.9-394.9 0-186-122.9-343.2-291.9-394.9-38.2-11.7-78.8-18.1-120.9-18.1-228 0-412.8 208-412.8 436.1 0 320.3 229.9 563.8 533.7 620.6-39.2 7.3-79.6 11.2-120.9 11.2-361.6 0-654.7-293.2-654.7-654.9 0-361.7 293.1-654.9 654.7-654.9z"/></svg>