<svg version="1.2" xmlns="http://www.w3.org/2000/svg" viewBox="0 0 1548 1394" width="1548" height="1394"><style>.a{fill:#e60012}</style><path class="a" d="m485.3 33.3c68.7-17.2 139.1-27.9 210.3-32.6-129.2 11.3-258.3 46.9-367.3 118.5-68.2 45.1-129.1 106.4-159.2 183.5-24.6 61.6-25.7 132-2.2 194.4 27.5 74.9 84.7 135.8 149.3 180.9 54.7 38.2 115.6 65.7 178.7 87.3 64.2 21.3 129.5 41.9 187.5 77.5 37 22.7 71.2 52.8 91.3 92.1 15.1-29 37.8-53.6 63.9-73 60.9-45.9 134.6-70.1 206.2-93.6 77.4-25.7 152.6-60.6 216.4-111.9 58-46.6 107.2-107.9 127.7-180.6 17.6-61.2 11.8-128.7-14.6-186.7-33.8-74.5-95.4-133.2-163.7-176.5-107.5-67.2-233-101.3-358.4-111.9 121.8 7.7 242.8 33.4 355.5 81.4 71.9 30.8 140.5 71.2 199.2 123.3 48.4 43.3 89.9 95.8 115.2 156 19.8 46.2 28.6 96.5 25.3 146.4-3.3 62-24.2 122.2-58.7 173.5-46.2 69.4-113 122.6-184.9 163.7-43.7 25.3-89.5 46.2-136.5 64.2-69 26-136.8 56.5-197 99.1-59.1 41.1-110.4 93.9-146 156.6-23.5 40.8-39.7 85.5-49.6 131.4-17.9-82.9-58.7-160.4-117.7-221.3-72.3-75.9-167-124.7-263.8-161.8-69.8-26-138-58-199.3-100.5-66.4-46.2-125.8-105.7-160.3-179.4-34.9-74.9-42.6-162.6-17.3-241.5 25.7-81.8 81.5-150.8 147.5-204.4 93.6-75.6 206.6-124.4 322.5-154.1z"/><path class="a" d="m599.5 33.3c22.3-4.4 44.7-8.8 67.5-9.9-84.8 10.3-168.1 37.4-241.5 81.8-56.5 34.9-107.8 82.6-135 144.2-23.5 52.2-23.8 113.4-2.2 165.9 22.8 56.9 67.9 101.6 118.2 135.4 73.7 48.4 158.8 76.3 245.1 93.2 42.9 8.1 88.7 17.2 122.1 48.1 34.2-32 81.9-40.8 126.2-48.8 69.8-13.6 138-35.3 201.1-68.7 57.2-30.8 111.2-73 144.2-130.2 29.7-50.6 38.2-113.8 20.6-170.3-17.3-58.3-58.4-106-105.7-142.7-70.8-53.9-156.3-85.9-243.3-102.7-12.1-2.6-24.6-4.1-37-5.2 28.2 1.1 56.1 7.4 83.6 13.2 91.7 20.9 181.3 57.3 255 116 49.9 40 92.5 92.1 111.2 154.1 18.7 60.9 11 129.1-20.6 184.6-33.7 59.8-88.4 104.5-147.1 138.7-48.8 28.2-101.2 50.2-154.8 67.8-54 18-109.7 29.8-162.2 51.8-28.2 12.1-55.4 30.1-71.2 57.2-16.1-27.5-43.3-45.5-71.9-57.6-58.7-24.6-121.8-36.3-181.6-58-81.8-29.3-162.2-68.2-225.6-128.4-43.3-41.1-76.7-95-84.8-154.8-8.1-55.1 5.1-112.3 33.8-159.7 28.6-47.7 70-86.9 115.5-118.1 72.3-48.8 155.2-79.3 240.4-96.9z"/><path class="a" d="m461.5 112.2c51.7-32.3 109.7-54.7 169.5-66.4-54.7 13.2-107.5 35.6-153 69-39.2 28.6-73 67.1-88 113.7-14.4 42.6-9.6 90.7 11.3 129.9 28.6 55.4 80.4 95.1 135.4 121.8 92.1 44.4 197 58 297.9 48.1 85.2-8.8 170.3-34.8 238.9-86.6 43.7-32.6 80.3-78.9 89.9-133.5 8.8-47.4-5.9-96.9-34.1-134.7-38.9-52.8-97.3-88.1-157.8-111.2-18-6.6-36.7-12.1-55.4-16.9 49.5 9.6 97.2 26.8 141.6 50.3 54 29 104.6 69.4 133.9 124 23.2 42.2 29.8 93.2 16.2 139.5-14.7 51.7-51 94.3-92.8 126.5-55.4 42.2-121.1 70.1-188.6 85.5-37.5 8.5-76.4 11.1-113.8 20.2-14.7 3.3-28.2 10.7-38.9 21.7-23.4-25.3-60.5-25.7-92.1-31.6-79.9-9.9-158.8-35.2-226.3-79.6-45.2-30.1-86.3-70.1-107.5-120.7-19.5-45.2-19.5-98-0.4-143.5 22.4-53.2 66-94.7 114.1-125.5z"/><path class="a" d="m758 85.8c36.6-4 74.8 6.6 104.2 29 33.3 25.3 55.4 65.7 57.9 107.9 3 37-8.4 75.2-32.3 104.2-24.9 31.9-63.8 52.4-104.2 54.6-38.5 3-77.4-10.2-106.4-35.9-31.1-26.8-49.9-67.5-50.6-108.6-1.1-39.3 14.3-78.6 41.5-106.8 23.4-24.6 56.1-40.7 89.9-44.4z"/><path class="a" d="m274.7 987.7c73.8-13.9 151.2 0.4 218.7 32.7 79.6 38.1 147.1 98.3 197.8 170.2 32.6 46.3 58 98 73.4 152.3-29-42.9-64.2-81.8-102.4-117.1-51.4-46.6-110.1-86.9-176.5-108.9-46.9-14.3-98.7-19.5-146.4-5.2-25.3 7.7-49.5 22-64.6 44.4-13.2 19.1-18.7 44.1-11.7 66.4 7.7 24.6 31.6 43.3 57.6 44.1 30.1 1.8 58.7-20.9 64.2-50.7 5.2-24.9-6.6-51.7-27.5-66.4 24.9 10.3 47.3 27.9 60.9 51.8 20.9 35.9 20.6 82.5 0 118.5-16.1 29.3-44.8 49.5-75.2 61.6-41.8 16.2-89.2 14.7-131.4 1.5-43.3-13.2-81.4-42.6-105.6-81.1-27.9-44.4-37.1-100.5-23.9-151.5 11-43.3 36.7-82.2 71.2-110.1 34.5-28.3 77.8-44.1 121.4-52.5z"/><path class="a" d="m1137 991c59-13.6 122.1-11 179.4 8.5 38.5 12.4 74.8 34.1 101.6 64.9 26.4 29.4 44.4 66.8 49.9 106 7.7 52.9-7.3 108.7-41.1 150.1-52.8 66.4-151.5 91-229.7 58.4-33-14-62.3-38.6-75.5-72.3-15.8-37.5-11-83 13.2-115.6 13.5-19.1 33-32.3 53.9-41.1-23.1 15.8-34.9 47.7-24.9 74.5 8.4 25.7 35.2 44 62.3 42.5 27.2-1.1 51.8-22 58-48.4 6.6-25.3-2.9-52.8-20.2-71.9-22.4-25.3-56.5-37.4-89.5-41.5-49.2-5.8-99.4 4.1-144.9 23.5-48.1 20.9-92.1 51-131.8 85.1-44 38.2-83.6 81.1-116.3 129.2 27.6-96.1 84.8-182.4 159.6-248.4 56.2-49.2 123-87 196-103.5z"/></svg>