<svg xmlns="http://www.w3.org/2000/svg" width="2500" height="2500" viewBox="0 0 192.756 192.756">
    <g fill-rule="evenodd" clip-rule="evenodd">
        <path
            d="M176.869 71.623c0-.724.145-1.447.145-2.171 0-2.751-.578-5.501-1.592-7.962 1.014-1.737 1.447-3.474 1.447-5.501 0-1.013-.145-2.026-.434-3.185-1.014-3.764-1.449-7.383-1.449-9.12v-.579l.436-3.185-3.186.724c-1.883.29-4.053-.869-5.936-2.027l-2.172-1.013c-1.158-.579-4.053-1.882-7.094-1.592-.434-3.04-3.475-7.962-12.738-8.831-4.055-.29-6.949-1.303-7.674-1.737l-1.881-1.592-1.303 1.882c-8.977-8.397-24.756-13.608-35.758-14.043-4.054 0-24.032 0-36.048 12.595-8.251-.724-28.664 3.909-41.982 33.152-.579 1.303-1.593 3.764-.145 5.356.435.579 1.303 1.013 2.461.869-.579.434-1.158.869-1.592 1.303-9.121 9.266-11.871 18.82-11.871 26.782 0 9.266 3.475 16.36 4.777 18.53.724 1.449 1.592 2.896 3.33 3.186 1.158.289 2.172-.145 3.041-.58-1.737 2.463-2.172 5.068-2.172 7.385v1.158c.579 13.463 16.069 28.953 27.072 34.164 2.026.869 3.619 1.594 5.211.58 1.159-.725 1.303-2.027 1.303-3.041 1.447 5.066 4.632 8.83 9.555 11.002 3.04 1.303 6.37 2.172 10.134 2.896 8.251 1.736 16.938 3.619 22.583 12.594.724 1.158 1.737 1.449 2.461 1.449.579 0 1.592-.291 2.172-1.594 1.014-2.172 1.736-4.342 2.316-6.369.145.289.434.725.869 1.158 1.592 1.303 3.328.145 4.922-1.014 8.686-6.08 18.674-8.975 25.334-10.568 12.016-2.895 20.846-6.369 27.217-10.713 13.463-8.83 16.357-20.123 16.938-26.059.145-.723.145-1.447.145-2.025 0-4.199-1.303-8.107-3.908-11.148h.145c2.316 1.594 4.488 2.607 7.094-1.012 2.461-3.33 5.211-10.279 5.211-18.386-.001-6.662-1.882-14.335-7.384-21.718z"
            fill="#fff" />
        <path fill="#52368b"
            d="M119.975 169.342h1.593v3.474h1.159v-3.474h1.591v-.869h-4.343v.869zM127.359 170.064l-1.449-1.591h-.867v4.343h1.012v-2.607l1.158 1.305h.146l1.303-1.305v2.607h1.012v-4.343h-.867l-1.448 1.591zM173.105 110.42c2.025 1.449 2.461 1.738 3.908-.434 3.764-4.922 9.844-22.294-2.75-37.929.578-3.909 0-7.962-1.594-11.147-.867 1.303-2.17 2.316-3.619 3.185-1.303-2.026-3.908-3.04-6.225-3.04-1.447 0-1.014.434-.289.724 9.555 4.054 6.08 15.201 4.922 17.517-1.303 2.461-1.014 5.501-1.014 5.501-3.039-.869-5.646-.145-8.107.29-4.777.724-7.816-.145-10.277-1.303-2.027-.869-5.066-2.896-5.646-6.804 0-.724-.434-1.158-.723.145-.58 2.171-.146 4.922 1.447 6.66-1.738 8.686-18.82 8.107-18.82 8.107-1.014-3.33-7.094-4.633-9.844-8.542-.291 9.699-4.199 16.793-6.08 19.254-.146.289-.146.578.289.434 2.605-.434 6.08-3.184 7.672-5.355.436-.58 1.014-.291 1.014.289 2.75 27.217-7.672 58.197-13.174 70.357-1.592 3.33-3.184 5.211.434 2.605 8.688-6.08 18.676-9.121 26.059-10.857 14.621-3.619 22.295-7.383 26.494-10.279 10.711-7.238 15.199-16.502 16.068-24.465 1.303-13.898-13.029-18.096-13.463-18.387-.58-.145-.291-.434.289-.578 4.053-.145 8.83 1.157 13.029 4.052z" />
        <path
            d="M31.522 106.367c.435 0 .869.434.29.578-11.871 4.633-12.305 9.846-12.16 14.043.579 12.16 15.345 27.217 25.769 32.139 2.461 1.158 3.474 1.594 3.185-1.303-.145-7.094 2.896-12.16 4.633-14.188.29-.434.724-.434.724.145-.145.436-5.936 17.951 7.383 23.887 9.555 4.199 25.045 2.461 33.875 16.359.29.578.434.434.579 0 8.252-17.807 0-34.311-1.448-37.93 4.198-2.316 8.108-5.211 10.713-8.396 2.025-2.461 2.75-4.197 3.33-5.355.578-1.158.289-1.883-.725-1.303-6.658 3.908-20.268 9.119-39.667 5.355 0 0-5.356-.725-4.488-6.225.145-1.447.869-3.041 1.592-4.488.145-.578.869-2.605.145-3.619-.579-1.014-1.013-1.736-.579-2.895.29-1.014 1.592-2.172 3.62-2.605 1.737-.58 4.922-.725 7.527-.58.579.145 1.303 0 1.737 0 .724-.145 1.158-.723 1.014-1.447-.29-.434-.579-.869-1.158-2.316-.435 1.014-.869 1.303-2.027 1.158s-3.475-1.014-5.646-1.592c-2.171-.58-3.475-.146-4.777 1.592-1.158 1.736-1.158 0-1.014-.58.145-1.012 1.448-2.316 1.593-3.039.145-.725.29-1.592-1.593-2.896-1.158-.867-2.026-1.592-2.605-2.17-1.737-1.738-2.026-3.475 1.303-6.226 2.316-2.026 7.528-7.383 8.976-10.567.29-.435 1.593-2.461.145-4.633-1.013-1.448-1.158-1.737-1.448-2.316-.869-1.448-.29-2.751 1.013-4.777.579-.869 1.013-2.027 2.316-6.081 1.593-4.922 4.488-9.989 8.252-13.029 1.592-3.185.579-8.252 6.949-13.897 5.067-4.488 22.439-10.279 42.996-7.094.725-.435 1.158-1.014 1.594-1.448-7.674-8.251-24.178-14.477-35.902-14.911-8.108-.29-25.335 1.448-35.179 12.595-7.239-1.303-27.651 2.895-40.68 31.704-1.158 2.75-.869 3.474.869 2.895 5.501-2.027 10.423-2.027 12.885-1.448 1.013.145.579.579.289.579-.145 0-.579.145-1.303.29-2.606.579-9.121 2.75-12.595 6.081-19.254 19.254-7.962 40.245-6.659 42.417 1.158 2.316 1.882 2.75 3.764 1.303s6.223-3.621 12.593-3.766z"
            fill="#a5418d" />
        <path
            d="M71.912 99.854c-.579 1.012-1.737 2.316-4.343.723-2.316-1.303-2.896-1.592-4.054-2.172-.29-.145-.434-.289-.434-.578.145-.145.579-.145 1.303-.145 1.303.289 3.475.867 3.909 1.014.579 0 1.882.289 2.461-.291.579-.434 1.013-.723 1.303-.289.289.288 0 1.446-.145 1.738z"
            fill="#a5418d" />
        <path
            d="M172.525 42.525c-.145 1.592.291 6.225 1.594 10.568 1.303 4.632-1.014 8.686-5.068 11.002-1.303-2.026-3.908-3.04-6.225-3.04-1.447 0-1.014.434-.289.724 9.555 4.054 6.08 15.201 4.922 17.517-1.303 2.461-1.014 5.501-1.014 5.501-3.039-.869-5.646-.145-8.107.29-4.777.724-7.816-.145-10.277-1.303-2.027-.869-5.066-2.896-5.646-6.804 0-.724-.434-1.158-.723.145-.58 2.171-.146 4.922 1.447 6.66-1.738 8.686-18.82 8.107-18.82 8.107-1.158-3.764-8.977-4.922-10.713-10.423-.869-2.461-.145-5.212-.145-5.212 4.488 1.014 7.094-1.158 8.541-2.895.869-1.014.145-1.159-.434-.724-5.646 3.619-11.004 0-12.016-5.067-1.449-5.501-6.949-7.238-6.949-7.238 3.908-2.461 2.895-6.804 4.922-10.423 5.355-9.41 13.029-6.659 13.029-6.659.723 2.316 2.895 3.909 5.211 4.632 1.303.29 1.014-.29.436-.724-5.357-3.909-4.055-10.134.289-13.029 7.383-5.067 8.686-7.239 8.686-7.239 1.303 1.013 4.922 1.882 8.83 2.316 8.543.724 10.568 5.211 10.713 6.804-1.012.579-2.75 2.171-3.619 4.777-.289 1.303.291 1.013.725.435 3.33-4.488 7.383-3.62 11.291-1.883 2.462 1.158 5.935 3.909 9.409 3.185z"
            fill="#df927b" />
        <path
            d="M120.555 43.249c.723 2.316 2.895 3.909 5.211 4.632.58.145.869.145.869 0s0-.29-.145-.434c0-.145-.145-.145-.289-.29-5.357-3.909-4.055-10.134.289-13.029 2.316-1.593 4.053-2.896 5.355-4.054-20.557-3.185-37.929 2.605-42.996 7.094-6.37 5.646-5.356 10.712-6.949 13.897 2.75-2.027 5.646-3.33 9.265-4.054 9.121-2.026 13.753 1.303 15.923 3.909.146-.29.291-.724.436-1.014 5.357-9.408 13.031-6.657 13.031-6.657zM133.439 69.741c0 .435.145.579.434.145 1.447-1.737 3.764-4.488 7.527-6.081 4.344-1.882 6.371-4.777 7.094-7.672.289-1.592.289-4.488 2.027-6.659.578-.724-.145-.724-.725-.579-.578.29-3.33 1.882-4.777 4.488-1.736-1.158-2.025-3.04-2.172-4.198 0-.435-.289-.579-.578-.145-1.303 1.593-1.883 3.475-2.027 4.632 0 0-1.303-.579-1.303-2.895.145-.29-.145-.145-.289 0-1.738 2.027-1.014 4.343-1.014 4.777 0 0-2.461-.724-5.936-.434-1.014-2.027-4.777-1.882-4.777.579 0 2.172 3.764 3.041 4.777.869 0 0 4.922-.579 10.135 2.606.434.435.723.724.434 1.013-.145.145-.869 0-1.592-.434-1.014-.29-7.674-2.606-12.016 1.013-.146.29-.146.435.145.435 1.014 0 3.184.29 4.053 1.592-1.303.579-3.186 1.882-3.908 5.356-.289.869.289.869.723.434.291-.434 3.041-2.895 4.199-3.04 0 0-.725 1.737-.434 4.198z"
            fill="#52368b" />
        <path
            d="M88.995 74.519c-1.592-1.014-3.908-1.014-4.343-1.014-.435-.145-.579-.579.145-.869.869-.435 2.606-.145 2.606-.435.145-.289-.29-.868-1.592-1.303-1.303-.579-4.198-.434-5.646-.145-1.448.145-2.75-1.158-.434-3.04 2.316-2.027 5.501-1.593 6.804-1.737s.724-.724.435-.869c-.435-.145-2.172-1.158-5.067-1.014-3.041.29-5.646 2.027-7.239 3.764-.868 1.014-1.158 2.027-1.303 2.896-.145 1.592 1.014 2.171 2.461 1.592.579-.29 1.014-.29 1.593-.29.579.145 1.013.579.724.869-.29.145-.579.579-.869 1.448-.145 1.014.435 1.737 1.158 2.606.29.579.434.869.579 1.303s0 .724-.434 1.013c-.435.435-.145 1.014.868.724 1.158-.289 1.737-.579 2.606-1.303 1.159-1.013 1.159-1.592 1.882-2.461.868-.868 3.474-.868 4.922-.579 1.592.146 1.881-.143.144-1.156z"
            fill="#a5418d" />
    </g>
</svg>