<?xml version="1.0" encoding="UTF-8" standalone="no"?>
<!-- Created with Inkscape (http://www.inkscape.org/) -->

<svg
   version="1.1"
   width="758.95239"
   height="576.91956"
   id="svg10898"
   sodipodi:docname="helvetic-airways.svg"
   inkscape:version="1.4.3 (0d15f75042, 2025-12-25)"
   xmlns:inkscape="http://www.inkscape.org/namespaces/inkscape"
   xmlns:sodipodi="http://sodipodi.sourceforge.net/DTD/sodipodi-0.dtd"
   xmlns="http://www.w3.org/2000/svg"
   xmlns:svg="http://www.w3.org/2000/svg"
   xmlns:rdf="http://www.w3.org/1999/02/22-rdf-syntax-ns#"
   xmlns:cc="http://creativecommons.org/ns#"
   xmlns:dc="http://purl.org/dc/elements/1.1/">
  <sodipodi:namedview
     id="namedview1"
     pagecolor="#ffffff"
     bordercolor="#000000"
     borderopacity="0.25"
     inkscape:showpageshadow="2"
     inkscape:pageopacity="0.0"
     inkscape:pagecheckerboard="0"
     inkscape:deskcolor="#d1d1d1"
     inkscape:zoom="0.65635321"
     inkscape:cx="265.10116"
     inkscape:cy="430.4085"
     inkscape:window-width="2560"
     inkscape:window-height="1368"
     inkscape:window-x="0"
     inkscape:window-y="0"
     inkscape:window-maximized="1"
     inkscape:current-layer="svg10898" />
  <defs
     id="defs10900" />
  <metadata
     id="metadata10903">
    <rdf:RDF>
      <cc:Work
         rdf:about="">
        <dc:format>image/svg+xml</dc:format>
        <dc:type
           rdf:resource="http://purl.org/dc/dcmitype/StillImage" />
      </cc:Work>
    </rdf:RDF>
  </metadata>
  <g
     transform="translate(33.847624,-15.628613)"
     id="layer1">
    <g
       transform="matrix(7.7174913,0,0,7.7174913,-7550.9751,-3213.6961)"
       id="g10979">
      <g
         transform="matrix(1.25,0,0,-1.25,1065.0169,489.46639)"
         id="g9999">
        <path
           d="M 0,0 0.042,0.068 0.283,0.157 2.285,0.158 2.474,0.822 H 0.499 c -0.412,0 -0.745,-0.093 -0.989,-0.276 -0.179,-0.133 -0.303,-0.31 -0.386,-0.532 -0.125,-0.442 0.059,-0.636 0.059,-0.636 0,0 0.175,-0.284 0.831,-0.273 0,0 0.57,0 0.92,-0.001 0.122,0 0.177,-0.029 0.204,-0.068 L 1.156,-1.023 1.15,-1.069 1.122,-1.163 1.08,-1.231 0.838,-1.32 -1.208,-1.319 -1.406,-2.008 0.616,-2.009 c 0.412,0 0.745,0.093 0.99,0.277 0.204,0.152 0.343,0.37 0.412,0.631 0,0 0.019,0.076 0.022,0.195 C 2.044,-0.787 2,-0.655 1.936,-0.572 1.871,-0.488 1.674,-0.291 1.085,-0.291 H 0.176 c -0.123,0 -0.165,0.05 -0.183,0.072 l -0.025,0.081 0.011,0.069 z"
           id="path10001"
           style="fill:#9a9898;fill-opacity:1;fill-rule:nonzero;stroke:none" />
      </g>
      <g
         transform="matrix(1.25,0,0,-1.25,1063.9303,488.46301)"
         id="g10003">
        <path
           d="m 0,0 h -1.18 c 0,0 -0.988,-1.461 -1.136,-1.68 l -0.008,-0.026 h -0.004 l 0.004,0.025 C -2.348,-1.426 -2.482,0 -2.482,0 h -1.015 l 0.389,-2.811 h 0.004 l -0.129,-0.17 -0.065,-0.062 C -3.452,-3.151 -3.774,-3.12 -4.064,-3.107 l -0.105,0.004 -0.186,-0.679 0.442,-0.005 c 0.512,-0.006 0.9,0.089 1.189,0.292 0.102,0.072 0.19,0.156 0.262,0.254 0.088,0.116 0.303,0.398 0.327,0.43 h 0.003 z"
           id="path10005"
           style="fill:#9a9898;fill-opacity:1;fill-rule:nonzero;stroke:none" />
      </g>
      <g
         transform="matrix(1.25,0,0,-1.25,1057.2444,491.76426)"
         id="g10007">
        <path
           d="M 0,0 -0.049,-0.17 H 0.798 L 1.347,1.75 C 1.42,2.019 1.408,2.229 1.292,2.381 1.152,2.565 0.872,2.657 0.461,2.657 H -1.537 L -1.722,2.001 0.297,2 0.487,1.911 0.49,1.844 0.462,1.746 0.403,1.544 H -0.771 C -1.506,1.544 -2.018,1.3 -2.187,0.686 L -2.213,0.488 c 0,-0.132 0.019,-0.27 0.1,-0.377 0.141,-0.187 0.42,-0.278 0.849,-0.281 h 0.672 c 0.277,0 0.476,0.086 0.587,0.172 z M 0.164,0.706 C 0.136,0.619 0.057,0.519 -0.178,0.519 L -0.594,0.518 -1.092,0.519 c -0.094,0 -0.152,0.026 -0.185,0.069 l -0.028,0.067 0.006,0.064 0.011,0.04 c 0.063,0.196 0.298,0.187 0.338,0.187 h 1.182 z"
           id="path10009"
           style="fill:#9a9898;fill-opacity:1;fill-rule:nonzero;stroke:none" />
      </g>
      <g
         transform="matrix(1.25,0,0,-1.25,1053.4506,488.46301)"
         id="g10011">
        <path
           d="m 0,0 c 0,0 -0.988,-1.461 -1.136,-1.68 l -0.008,-0.026 h -0.003 l 0.003,0.026 C -1.169,-1.426 -1.302,0 -1.302,0 h -1.015 0.001 C -2.323,-0.01 -3.304,-1.462 -3.452,-1.68 L -3.461,-1.706 H -3.463 L -3.46,-1.68 C -3.484,-1.426 -3.618,0 -3.618,0 h -1.015 l 0.389,-2.811 h 0.976 l 1.119,1.6 0.221,-1.6 h 0.976 L 1.18,0 Z"
           id="path10013"
           style="fill:#9a9898;fill-opacity:1;fill-rule:nonzero;stroke:none" />
      </g>
      <g
         transform="matrix(1.25,0,0,-1.25,1047.3234,488.44189)"
         id="g10015">
        <path
           d="M 0,0 H -0.352 C -0.53,0 -0.733,-0.037 -0.904,-0.146 l -0.036,-0.027 -0.005,0.002 0.012,0.037 0.035,0.133 h -0.843 l -0.81,-2.827 h 0.886 l 0.492,1.732 c 0.05,0.173 0.178,0.303 0.36,0.356 l 0.12,0.023 c 0,0 0.246,0.013 0.485,-0.007 z"
           id="path10017"
           style="fill:#9a9898;fill-opacity:1;fill-rule:nonzero;stroke:none" />
      </g>
      <g
         transform="matrix(1.25,0,0,-1.25,1043.2222,488.43501)"
         id="g10019">
        <path
           d="M 0,0 -0.81,-2.833 H 0.091 L 0.901,0 Z M 0.306,1.076 0.108,0.388 h 0.901 l 0.197,0.688 z"
           id="path10021"
           style="fill:#9a9898;fill-opacity:1;fill-rule:nonzero;stroke:none" />
      </g>
      <g
         transform="matrix(1.25,0,0,-1.25,1040.4919,491.76426)"
         id="g10023">
        <path
           d="M 0,0 -0.049,-0.17 H 0.798 L 1.347,1.75 C 1.42,2.019 1.408,2.229 1.292,2.381 1.152,2.565 0.872,2.657 0.461,2.657 H -1.537 L -1.722,2.001 0.297,2 0.487,1.911 0.49,1.844 0.462,1.746 0.403,1.544 H -0.771 C -1.506,1.544 -2.018,1.3 -2.187,0.686 L -2.213,0.488 c 0,-0.132 0.019,-0.27 0.1,-0.377 0.141,-0.187 0.42,-0.278 0.849,-0.281 h 0.673 c 0.276,0 0.475,0.086 0.586,0.172 z M 0.164,0.706 C 0.136,0.619 0.057,0.519 -0.178,0.519 L -0.594,0.518 -1.092,0.519 c -0.094,0 -0.153,0.026 -0.185,0.069 l -0.028,0.067 0.006,0.064 0.011,0.04 c 0.062,0.196 0.297,0.187 0.338,0.187 h 1.182 z"
           id="path10025"
           style="fill:#9a9898;fill-opacity:1;fill-rule:nonzero;stroke:none" />
      </g>
      <g
         transform="matrix(1.25,0,0,-1.25,1066.4433,473.20301)"
         id="g10027">
        <path
           d="m 0,0 c -3.005,0 -4.812,-0.582 -5.521,-3.089 0,0 -0.171,-0.486 -0.326,-1.025 -0.242,-0.839 -0.506,-1.868 -0.506,-1.868 -0.27,-0.975 -0.243,-1.745 0.199,-2.33 0.582,-0.769 1.773,-1.159 3.541,-1.159 H 2.12 l 0.699,2.396 -4.89,0.003 c -0.45,0 -0.787,0.117 -0.948,0.329 -0.132,0.174 -0.132,0.414 -0.039,0.714 0,0 0.146,0.709 0.336,1.382 0.172,0.606 0.388,1.185 0.388,1.185 0.247,0.753 0.903,1.107 1.791,1.107 L 1.24,-2.328 4.083,-2.355 4.749,0 Z"
           id="path10029"
           style="fill:#9a9898;fill-opacity:1;fill-rule:nonzero;stroke:none" />
      </g>
      <g
         transform="matrix(1.25,0,0,-1.25,1054.6347,473.17914)"
         id="g10031">
        <path
           d="M 0,0 -2.711,-9.49 H 0.307 L 3.02,0 Z M 1.025,3.605 0.365,1.3 H 3.382 L 4.04,3.605 Z"
           id="path10033"
           style="fill:#9a9898;fill-opacity:1;fill-rule:nonzero;stroke:none" />
      </g>
      <g
         transform="matrix(1.25,0,0,-1.25,1046.3382,468.67064)"
         id="g10035">
        <path
           d="m 0,0 -2.749,-9.648 c -0.286,-1.012 -0.205,-1.814 0.239,-2.388 0.552,-0.713 1.622,-1.06 3.278,-1.06 H 2.2 l 0.66,2.362 -0.253,-0.005 c -0.956,-0.035 -2.048,-0.127 -2.345,0.252 -0.108,0.138 -0.126,0.306 -0.055,0.553 l 1.103,3.908 h 2.805 l 0.688,2.4 H 1.995 L 3.018,0 Z"
           id="path10037"
           style="fill:#9a9898;fill-opacity:1;fill-rule:nonzero;stroke:none" />
      </g>
      <g
         transform="matrix(1.25,0,0,-1.25,1028.3217,477.00139)"
         id="g10039">
        <path
           d="m 0,0 -0.95,-3.391 c -0.244,-0.903 -0.203,-1.605 0.186,-2.116 0.467,-0.614 1.404,-0.925 2.784,-0.925 h 6.687 l 0.655,2.31 -6.683,-0.001 c -0.283,0 -0.503,0.084 -0.616,0.236 -0.057,0.076 -0.086,0.17 -0.086,0.276 l 0.039,0.231 c 10e-4,0.004 0.131,0.448 0.197,0.676 h 7.843 l 0.796,2.781 c 0.091,0.325 0.135,0.626 0.135,0.902 0,0.441 -0.116,0.816 -0.35,1.119 -0.478,0.62 -1.408,0.929 -2.843,0.941 H 4.774 C 2.189,3.039 0.583,2.017 0,0 M 3.04,0.184 C 3.132,0.476 3.397,0.811 4.182,0.811 L 5.677,0.839 7.242,0.811 c 0.317,0 0.572,-0.085 0.681,-0.229 L 7.987,0.385 7.963,0.231 7.696,-0.701 H 2.785 Z"
           id="path10041"
           style="fill:#9a9898;fill-opacity:1;fill-rule:nonzero;stroke:none" />
      </g>
      <g
         transform="matrix(1.25,0,0,-1.25,1023.9059,473.27214)"
         id="g10043">
        <path
           d="m 0,0 c 0,0 -3.308,-4.893 -3.804,-5.627 l -0.029,-0.087 -0.01,0.001 0.012,0.085 C -3.914,-4.775 -4.361,0 -4.361,0 h -3.398 l 1.303,-9.415 h 3.267 L 3.952,0 Z"
           id="path10045"
           style="fill:#9a9898;fill-opacity:1;fill-rule:nonzero;stroke:none" />
      </g>
      <g
         transform="matrix(1.25,0,0,-1.25,1010.2364,468.67064)"
         id="g10047">
        <path
           d="m 0,0 -3.747,-13.096 h 3.183 L 3.183,0 Z"
           id="path10049"
           style="fill:#9a9898;fill-opacity:1;fill-rule:nonzero;stroke:none" />
      </g>
      <g
         transform="matrix(1.25,0,0,-1.25,992.26432,477.00139)"
         id="g10051">
        <path
           d="m 0,0 -0.948,-3.391 c -0.246,-0.903 -0.205,-1.605 0.185,-2.116 0.467,-0.614 1.404,-0.925 2.783,-0.925 h 6.691 l 0.683,2.31 -6.714,-0.001 c -0.284,0 -0.502,0.084 -0.616,0.236 -0.058,0.076 -0.086,0.17 -0.086,0.276 l 0.039,0.231 c 10e-4,0.004 0.131,0.448 0.197,0.676 h 7.845 l 0.797,2.781 c 0.09,0.325 0.135,0.626 0.135,0.902 0,0.441 -0.117,0.816 -0.35,1.119 -0.478,0.62 -1.408,0.929 -2.843,0.941 H 4.777 C 2.19,3.039 0.583,2.017 0,0 M 3.041,0.184 C 3.133,0.476 3.398,0.811 4.186,0.811 L 5.607,0.839 7.246,0.811 c 0.317,0 0.571,-0.085 0.681,-0.229 L 7.991,0.385 7.967,0.231 7.699,-0.701 H 2.786 Z"
           id="path10053"
           style="fill:#9a9898;fill-opacity:1;fill-rule:nonzero;stroke:none" />
      </g>
      <g
         transform="matrix(1.25,0,0,-1.25,985.3502,476.20263)"
         id="g10055">
        <path
           d="m 0,0 c 0.206,0 0.381,-0.023 0.521,-0.071 0.347,-0.12 0.481,-0.395 0.355,-0.855 L -0.877,-7.071 H 2.101 L 3.897,-0.74 C 4.173,0.228 4.093,0.961 3.669,1.476 3.2,2.049 2.103,2.4 0.829,2.4 H -1.686 C -2.282,2.4 -2.961,2.275 -3.533,1.911 L -3.656,1.82 -3.672,1.826 -3.632,1.951 -2.48,6.026 H -5.306 L -9.05,-7.071 h 2.966 l 1.648,5.802 c 0.168,0.579 0.595,1.013 1.206,1.188 0.139,0.041 0.239,0.066 0.403,0.079 0,0 0.637,0.044 1.483,0.045 C -0.876,0.044 0,0 0,0"
           id="path10057"
           style="fill:#9a9898;fill-opacity:1;fill-rule:nonzero;stroke:none" />
      </g>
      <g
         transform="matrix(1.25,0,0,-1.25,1076.7619,483.00326)"
         id="g10059">
        <path
           d="m -63.173686,20.59175 c 0,-3.419771 2.841948,-6.218481 6.340335,-6.218481 h 25.223762 c 3.506249,0 6.352127,2.79871 6.352127,6.218481 v 24.838547 c 0,3.423702 -2.845878,6.218481 -6.352127,6.218481 h -25.223762 c -3.498387,0 -6.340335,-2.794779 -6.340335,-6.218481 z"
           id="path10061"
           style="fill:#ee2722;fill-opacity:1;fill-rule:nonzero;stroke:none;stroke-width:3.93077"
           sodipodi:nodetypes="sssssssss" />
      </g>
      <g
         transform="matrix(1.25,0,0,-1.25,1081.0776,475.41476)"
         id="g10063">
        <path
           d="m -53.055021,38.38388 c 0,0 3.187856,-9.16656 3.46301,-9.948784 -0.770431,-0.03145 -3.671341,-0.192608 -3.671341,-0.192608 -0.02752,-0.0039 -4.512526,-0.483484 -5.322265,-0.573892 l -2.991317,3.073863 -2.051863,-0.200469 1.540863,-3.966149 -1.536932,-4.017249 2.047932,-0.2044 2.959871,3.038486 5.326196,-0.530654 c 0.01572,0 2.401702,-0.149369 3.698856,-0.200469 -0.275154,-0.782224 -3.632033,-10.428338 -3.632033,-10.428338 l 2.621825,0.188678 7.574597,10.440129 h 7.212966 l 1.784571,0.145439 c 1.010208,0.149369 2.519624,1.22247 2.578586,1.269639 l 0.377354,0.271223 -0.377354,0.271224 c -0.05896,0.04324 -1.568378,1.12027 -2.582517,1.27357 l -1.78064,0.149369 h -7.212966 l -7.574597,10.428338 -2.621825,0.192608 z"
           id="path10065"
           style="fill:#ffffff;fill-opacity:1;fill-rule:nonzero;stroke:none;stroke-width:3.93077" />
      </g>
    </g>
  </g>
</svg>
