<?xml version="1.0" encoding="UTF-8" standalone="no"?>
<!DOCTYPE svg PUBLIC "-//W3C//DTD SVG 1.1//EN" "http://www.w3.org/Graphics/SVG/1.1/DTD/svg11.dtd">
<svg width="100%" height="100%" viewBox="0 0 806 745" version="1.1" xmlns="http://www.w3.org/2000/svg" xmlns:xlink="http://www.w3.org/1999/xlink" xml:space="preserve" xmlns:serif="http://www.serif.com/" style="fill-rule:evenodd;clip-rule:evenodd;stroke-linejoin:round;stroke-miterlimit:2;">
    <g transform="matrix(4.166667,0,0,4.166667,0,0)">
        <g id="layer1" transform="matrix(1,0,0,1,16.051965,-363.110738)">
            <g id="g27198" transform="matrix(8.680519,0,0,8.680519,-1036.4261,-2432.5705)">
                <g id="g25905" transform="matrix(1.25,0,0,-1.25,125.74384,333.43507)">
                    <path id="path25907" d="M0,0C1.002,-0.639 2.037,-0.689 2.355,-1.281C2.673,-0.689 3.709,-0.639 4.711,0C5.447,0.47 5.903,1.087 5.903,1.902C5.903,2.602 5.438,3.423 4.711,3.882C5.128,3.472 5.442,2.843 5.442,2.276C5.442,1.453 4.984,0.671 3.721,0.145C3.104,-0.112 2.582,-0.203 2.355,-0.47C2.13,-0.203 1.607,-0.112 0.989,0.145C-0.274,0.671 -0.732,1.453 -0.732,2.276C-0.732,2.843 -0.417,3.472 0,3.882C-0.728,3.423 -1.192,2.602 -1.192,1.902C-1.192,1.087 -0.737,0.47 0,0M1.147,0.641C1.623,0.365 2.141,0.274 2.36,0.043C2.58,0.274 3.097,0.365 3.573,0.641C4.151,0.975 4.503,1.507 4.599,2.131C4.82,3.572 3.881,4.583 3.206,6.104C2.637,7.386 2.36,9.097 2.36,9.097C2.36,9.097 2.083,7.386 1.514,6.104C0.838,4.583 -0.1,3.572 0.121,2.131C0.217,1.507 0.569,0.975 1.147,0.641M2.36,2.088C2.724,2.088 3.02,1.792 3.02,1.428C3.02,1.063 2.724,0.768 2.36,0.768C1.995,0.768 1.7,1.063 1.7,1.428C1.7,1.792 1.995,2.088 2.36,2.088M7.881,-5.367C7.682,-4.844 7.589,-4.46 7.4,-4.001C6.558,-1.956 5.022,-1.838 4.131,-2.004C2.879,-2.238 2.357,-3.109 2.357,-3.109C2.357,-3.109 1.834,-2.238 0.582,-2.004C-0.309,-1.838 -1.845,-1.956 -2.687,-4.001C-2.876,-4.46 -2.968,-4.844 -3.168,-5.367C-3.387,-5.942 -3.639,-6.356 -4,-6.57C-4.251,-6.72 -4.602,-6.839 -5.134,-6.909C-4.067,-7.433 -2.241,-7.641 -0.849,-6.891C0.423,-6.206 0.9,-5.113 1.205,-4.211C1.339,-3.816 1.517,-3.602 1.612,-3.518C1.712,-3.425 1.826,-3.352 1.957,-3.309C2.08,-3.262 2.217,-3.237 2.357,-3.237C2.496,-3.237 2.633,-3.262 2.756,-3.309C2.887,-3.352 3.002,-3.425 3.102,-3.518C3.196,-3.602 3.374,-3.816 3.508,-4.211C3.814,-5.113 4.29,-6.206 5.563,-6.891C6.955,-7.641 8.78,-7.433 9.846,-6.909C9.316,-6.839 8.964,-6.72 8.713,-6.57C8.352,-6.356 8.1,-5.942 7.881,-5.367M0.585,-2.683C0.323,-2.678 -0.009,-2.687 -0.232,-2.858C-0.392,-2.98 -0.412,-3.144 -0.362,-3.268C-0.3,-3.42 -0.122,-3.481 0.03,-3.422C0.164,-3.37 0.233,-3.232 0.186,-3.105C0.159,-3.034 0.102,-2.982 0.032,-2.968C0.36,-2.995 0.535,-3.334 0.411,-3.646C0.338,-3.827 0.169,-3.974 -0.061,-4.027C-0.54,-4.137 -0.964,-3.849 -1.065,-3.495C-1.155,-3.185 -1.08,-2.827 -0.697,-2.565C0.082,-2.032 1.594,-2.416 2.196,-3.247C1.818,-2.938 1.228,-2.696 0.585,-2.683M5.779,-3.495C5.677,-3.849 5.253,-4.137 4.775,-4.027C4.545,-3.974 4.375,-3.827 4.302,-3.646C4.178,-3.334 4.353,-2.995 4.682,-2.968C4.612,-2.982 4.554,-3.034 4.528,-3.105C4.48,-3.232 4.549,-3.37 4.684,-3.422C4.835,-3.481 5.013,-3.42 5.075,-3.268C5.126,-3.144 5.105,-2.98 4.945,-2.858C4.722,-2.687 4.391,-2.678 4.128,-2.683C3.485,-2.696 2.895,-2.938 2.518,-3.247C3.119,-2.416 4.631,-2.032 5.41,-2.565C5.793,-2.827 5.868,-3.185 5.779,-3.495M8.902,3.818C7.361,3.681 6.757,2.76 6.457,1.459C6.034,-0.377 4.729,-0.772 3.675,-1.181C2.594,-1.6 2.355,-2.173 2.355,-2.173C2.355,-2.173 2.117,-1.6 1.036,-1.181C-0.018,-0.772 -1.323,-0.377 -1.746,1.459C-2.046,2.76 -2.65,3.681 -4.192,3.818C-5.329,3.919 -6.227,3.433 -6.557,3.237C-6.557,3.237 -6.172,3.226 -5.825,2.979C-5.57,2.797 -5.306,2.518 -5.131,1.813C-4.796,0.463 -4.49,-0.026 -4.127,-0.444C-3.586,-1.065 -2.51,-1.702 -0.348,-1.592C1.327,-1.507 2.077,-2.191 2.355,-2.532C2.633,-2.191 3.383,-1.507 5.058,-1.592C7.22,-1.702 8.297,-1.065 8.837,-0.444C9.201,-0.026 9.507,0.463 9.842,1.813C10.016,2.518 10.281,2.797 10.536,2.979C10.882,3.226 11.267,3.237 11.267,3.237C10.937,3.433 10.039,3.919 8.902,3.818" style="fill:rgb(230,0,18);fill-rule:nonzero;"/>
                </g>
            </g>
        </g>
    </g>
</svg>
