<?xml version="1.0" encoding="UTF-8" standalone="no"?>
<svg
   xmlns:dc="http://purl.org/dc/elements/1.1/"
   xmlns:cc="http://creativecommons.org/ns#"
   xmlns:rdf="http://www.w3.org/1999/02/22-rdf-syntax-ns#"
   xmlns:svg="http://www.w3.org/2000/svg"
   xmlns="http://www.w3.org/2000/svg"
   viewBox="0 0 643.85065 135.42532"
   height="135.42532"
   width="643.85065"
   xml:space="preserve"
   id="svg2"
   version="1.1"><metadata
     id="metadata8"><rdf:RDF><cc:Work
         rdf:about=""><dc:format>image/svg+xml</dc:format><dc:type
           rdf:resource="http://purl.org/dc/dcmitype/StillImage" /></cc:Work></rdf:RDF></metadata><defs
     id="defs6"><clipPath
       id="clipPath18"
       clipPathUnits="userSpaceOnUse"><path
         id="path16"
         d="M 0,101.569 H 482.888 V 0 H 0 Z" /></clipPath></defs><g
     transform="matrix(1.3333333,0,0,-1.3333333,0,135.42533)"
     id="g10"><g
       id="g12"><g
         clip-path="url(#clipPath18)"
         id="g14"><g
           transform="translate(325.7614,10.5982)"
           id="g20"><path
             id="path22"
             style="fill:#b5b4b0;fill-opacity:1;fill-rule:nonzero;stroke:none"
             d="M 0,0 -1.646,7.566 -5.939,0 Z M 9.846,-10.479 H 2.129 L 1.066,-5.712 H -9.147 l -2.759,-4.767 h -7.984 l 12.917,21.41 c 2.093,3.721 1.39,5.258 1.39,5.258 h 1.784 0.53 2.723 c 2.309,0 4.316,-1.578 4.858,-3.823 z M 53.656,6.94 c 0,1.627 -0.804,2.891 -3.382,2.891 H 45.406 L 44.218,3.392 h 4.228 c 3.991,0 5.21,2.286 5.21,3.548 m 1.605,-10.55 4.456,-6.861 -0.316,-0.008 c -7.684,-0.366 -8.577,-0.075 -10.516,3.508 l -2.407,4.573 h -3.276 l -1.467,-8.073 H 34.31 l 3.965,21.732 c 0.522,3.396 -0.178,4.928 -0.178,4.928 h 1.079 10.053 c 4.419,0 11.92,-0.601 11.92,-8.225 0,-5.485 -4.497,-8.068 -7.211,-9.448 l 1.323,-2.128 z M 27.502,11.772 23.476,-10.471 h -7.39 l 3.93,21.7 c 0.528,3.419 -0.175,4.96 -0.175,4.96 h 1.071 1.244 1.656 c 2.339,0 4.107,-2.116 3.69,-4.417" /></g><g
           transform="translate(180.7555,73.4678)"
           id="g24"><path
             id="path26"
             style="fill:#37abcd;fill-opacity:1;fill-rule:nonzero;stroke:none"
             d="m 0,0 h -9.198 l 2.587,14.003 h 10.59 c 5.605,0 7.353,-2.744 7.353,-6.286 C 11.332,4.973 8.685,0 0,0 m 14.828,-15.234 -2.881,4.628 c 5.904,2.999 15.686,8.623 15.686,20.548 0,16.588 -16.316,17.899 -25.926,17.899 h -21.875 -2.347 c 0,0 1.525,-3.338 0.391,-10.725 l -8.629,-47.277 h 16.156 l 3.188,17.567 h 7.126 c 0,0 5.238,-9.95 5.241,-9.952 4.216,-7.79 6.158,-8.425 22.876,-7.627 l 0.684,0.012 -9.693,14.927 z m 257.106,43.075 h -6.122 -0.021 -1.023 c 0,0 0.446,-2.148 -0.185,-6.606 L 259.909,-4.39 245.375,21.778 c -2.078,3.743 -6.02,6.063 -10.299,6.063 h -5.282 -2.698 -2.343 c 0,0 1.486,-3.234 0.446,-10.393 l -8.688,-47.609 h 15.991 l 6.019,33.475 16.777,-30.21 c 1.118,-2.014 3.241,-3.265 5.545,-3.265 h 10.351 l 8.765,48.392 c 0.906,5.004 -2.941,9.61 -8.025,9.61 m -393.382,0 h -6.309 -1.045 c 0,0 0.525,-2.497 -0.351,-7.711 l -2.764,-15.267 h -21.892 l 2.422,13.368 c 0.907,5.004 -2.94,9.61 -8.027,9.61 h -3.547 -2.761 -2.276 c 0,0 1.348,-2.96 0.561,-9.462 l -2.445,-13.516 h -10.874 V 1.809 c 0,-5.017 3.712,-9.157 8.536,-9.853 l -4.005,-22.117 h 16.075 l 3.982,22.003 h 21.893 l -3.984,-22.003 h 16.073 l 8.762,48.392 c 0.907,5.004 -2.938,9.61 -8.024,9.61 m 180.862,0 H 55.81 53.106 50.771 c 0,0 1.535,-3.357 0.381,-10.79 l -8.55,-47.212 h 16.075 l 8.761,48.392 c 0.908,5.004 -2.938,9.61 -8.024,9.61 M 190.929,-1.178 c -1.004,-8.088 -8.401,-14.67 -16.491,-14.67 -3.911,0 -7.407,1.518 -9.842,4.277 -2.464,2.785 -3.55,6.497 -3.061,10.451 1.002,8.088 8.399,14.667 16.488,14.667 3.912,0 7.408,-1.517 9.844,-4.274 2.463,-2.788 3.551,-6.5 3.062,-10.451 m -11.046,29.279 c -16.144,0 -30.905,-13.133 -32.905,-29.279 -0.973,-7.85 1.18,-15.218 6.065,-20.745 4.832,-5.467 11.77,-8.478 19.536,-8.478 16.144,0 30.905,13.135 32.905,29.281 0.975,7.85 -1.18,15.218 -6.065,20.745 -4.832,5.467 -11.768,8.476 -19.536,8.476 M -57.035,-1.178 c -1.004,-8.088 -8.401,-14.67 -16.49,-14.67 -3.912,0 -7.408,1.518 -9.844,4.277 -2.463,2.785 -3.549,6.497 -3.06,10.451 1.002,8.088 8.399,14.667 16.489,14.667 3.911,0 7.406,-1.517 9.845,-4.274 2.463,-2.788 3.549,-6.5 3.06,-10.451 m -11.046,29.279 c -16.144,0 -30.905,-13.133 -32.905,-29.279 -0.973,-7.85 1.18,-15.218 6.065,-20.745 4.832,-5.467 11.771,-8.478 19.535,-8.478 16.145,0 30.907,13.135 32.908,29.281 0.973,7.85 -1.182,15.218 -6.067,20.745 -4.83,5.467 -11.768,8.476 -19.536,8.476 M 88.577,-11.382 115.226,14.335 H 88.131 l 1.379,7.557 c 0.628,3.445 3.63,5.949 7.133,5.949 h 43.253 l -0.289,-1.566 c -1.2,-6.526 -4.417,-12.509 -9.195,-17.111 l -26.734,-25.737 h 28.254 l -2.456,-13.588 H 79.098 l 0.298,1.634 c 1.19,6.533 4.4,12.531 9.181,17.145" /></g><g
           transform="translate(477.6022,96.4292)"
           id="g28"><path
             id="path30"
             style="fill:#37abcd;fill-opacity:1;fill-rule:nonzero;stroke:none"
             d="M 0,0 C 0.658,0 1.024,0.321 1.024,0.863 1.024,1.434 0.658,1.757 0,1.757 H -0.762 V 0 Z M -0.762,-3.163 H -1.874 V 2.723 H 0.16 c 1.143,0 1.992,-0.806 1.992,-1.845 0,-0.819 -0.527,-1.494 -1.289,-1.744 L 2.182,-3.163 H 0.907 l -1.23,2.195 h -0.439 z m 0.673,-1.452 c 2.343,0 4.19,1.89 4.19,4.35 0,2.46 -1.847,4.335 -4.19,4.335 -2.344,0 -4.187,-1.875 -4.187,-4.335 0,-2.46 1.843,-4.35 4.187,-4.35 m 0,9.755 c 2.974,0 5.375,-2.43 5.375,-5.405 0,-2.972 -2.401,-5.417 -5.375,-5.417 -2.957,0 -5.331,2.445 -5.331,5.417 0,2.975 2.374,5.405 5.331,5.405" /></g></g></g></g></svg>