<svg version="1.1" id="Content" xmlns="http://www.w3.org/2000/svg" xmlns:xlink="http://www.w3.org/1999/xlink" x="0px" y="0px" viewBox="0 0 469.9 400" style="enable-background:new 0 0 469.9 400;" xml:space="preserve">
 <style type="text/css">
  .st0{fill:#001B71;}
  .st1{fill:#FFFFFF;}
 </style>
 <g>
  <!-- White background for the inner area -->
  <polygon class="st1" points="352.5,0 0,400 345.7,400 469.9,0"/>
  <!-- Original blue path on top -->
  <path class="st0" d="M352.5,0L0,400h345.7L469.9,0H352.5z M220.1,324.6c-5.6,0.7-11.2,1-16.8,0.9c-8.6-0.1-14-1.2-18.1-2.8
		c-3.5-1.4-6.6-5.2-5.5-8.1c1-2.2,2.6-4.1,4.8-5.3c10.1-6.5,28.3-9.9,48.4-11.2C231.1,302,220.1,324.6,220.1,324.6z M327.1,272.1
		c-14.6,17.2-29,18.4-57.4,15.8c-74.6-6.6-89,14-91.4,16.6c0.5-1.9,1.1-3.8,2-5.5c4.7-10.7,10.4-22.6,16.8-36.8
		c3.6-7.4,5.6-7.7,8.9-10.1c13.5-8.9,35.2-17.2,64.1-14.7c21.3,1.9,30.6,6.2,43.7,6.9c5.6,0.4,11.2,0.1,16.7-0.9
		c14-3,17.6-7.2,17.6-7.2S338.1,258,327.1,272.1z M344.2,227c-4.6,2.7-10.6,5.3-22.2,5.7c-12.8,0.4-20.6-2.4-34.7-4.7
		c-19.3-3.1-38-4.3-58.2,2.1c-8.6,2.7-16.7,7-23.8,12.6c0,0,14.9-33.5,18.8-42.1c6.4-13.1,27.7-22.5,55.7-22.2
		c25.2,0.3,36.5,6.8,57.2,7.1c30.9-0.1,41.1-10.4,41.1-10.4c-1.8,3.8-11.2,23.5-15.6,31.9C355.2,218.4,350,223.6,344.2,227z">
  </path>
 </g>
</svg>