<?xml version="1.0" encoding="UTF-8" standalone="no"?>
<!DOCTYPE svg PUBLIC "-//W3C//DTD SVG 1.1//EN" "http://www.w3.org/Graphics/SVG/1.1/DTD/svg11.dtd">
<svg width="100%" height="100%" viewBox="0 0 276 262" version="1.1" xmlns="http://www.w3.org/2000/svg" xmlns:xlink="http://www.w3.org/1999/xlink" xml:space="preserve" xmlns:serif="http://www.serif.com/" style="fill-rule:evenodd;clip-rule:evenodd;stroke-linejoin:round;stroke-miterlimit:2;">
    <g transform="matrix(4.166667,0,0,4.166667,0,0)">
        <path d="M0,31.642L0.939,29.932L1.942,28.287L3.01,26.642L4.111,25.062L5.276,23.514L6.507,21.998L7.769,20.546L9.096,19.095L10.423,17.708L11.815,16.353L13.272,15.063L14.729,13.805L16.282,12.612L17.804,11.45L19.422,10.354L21.041,9.289L22.724,8.289L24.408,7.322L26.123,6.419L27.871,5.58L29.652,4.806L31.464,4.096L33.277,3.419L35.122,2.806L37,2.226L38.877,1.742L40.755,1.322L42.665,0.935L44.575,0.645L46.517,0.387L48.459,0.194L50.369,0.065L52.343,0L54.286,0L56.228,0.065L58.17,0.161L60.08,0.355L62.022,0.613L63.932,0.903L65.842,1.258L63.997,1.516L62.12,1.839L60.307,2.226L58.462,2.645L56.649,3.161L54.868,3.742L53.088,4.354L51.34,5.032L49.624,5.774L46.258,7.451L44.639,8.386L43.021,9.386L41.467,10.418L39.913,11.483L38.424,12.644L37,13.837L35.575,15.063L34.216,16.353L32.889,17.675L31.626,19.062L30.396,20.482L29.231,21.933L28.098,23.449L27.03,24.997L26.026,26.578L25.055,28.191L24.181,29.835L23.307,31.513L24.181,33.158L25.087,34.803L26.058,36.416L27.094,37.964L28.195,39.512L29.328,40.996L30.493,42.447L31.756,43.866L33.051,45.221L34.345,46.543L35.737,47.834L37.162,49.027L38.618,50.22L40.107,51.349L41.661,52.414L43.247,53.446L44.866,54.413L46.517,55.317L48.168,56.155L49.883,56.962L51.599,57.671L53.379,58.349L55.16,58.961L56.94,59.51L58.753,59.994L60.598,60.445L62.411,60.8L64.288,61.09L66.166,61.316L64.256,61.703L62.314,62.026L60.404,62.284L58.462,62.477L56.519,62.606L54.609,62.703L52.635,62.703L50.693,62.671L48.75,62.574L46.84,62.38L44.898,62.155L42.988,61.864L41.046,61.51L39.169,61.09L37.291,60.639L35.414,60.09L33.569,59.51L31.723,58.832L29.911,58.155L28.13,57.381L26.382,56.542L24.634,55.672L22.951,54.736L21.268,53.736L19.617,52.704L18.03,51.607L16.477,50.478L14.923,49.285L13.434,48.027L11.977,46.737L10.553,45.414L9.193,44.06L7.898,42.608L6.604,41.157L5.374,39.673L4.176,38.125L3.043,36.544L1.975,34.932L0.971,33.287L0,31.642Z" style="fill:rgb(242,111,53);fill-rule:nonzero;"/>
        <path d="M65.906,11.128C51.048,8.644 36.578,17.224 31.723,31.448C36.708,45.608 51.275,54.091 66.1,51.414L66.1,51.446L64.676,51.059L63.316,50.64L61.925,50.124L60.565,49.575L59.27,48.995L57.943,48.317L56.713,47.608L55.45,46.834L54.285,46.027L53.087,45.156L51.987,44.221L50.886,43.253L49.85,42.254L48.847,41.189L47.908,40.093L47.002,38.964L46.16,37.77L45.351,36.577L44.606,35.319L43.926,34.029L43.279,32.738L42.696,31.416L43.247,30.061L43.894,28.739L44.574,27.481L45.286,26.223L46.095,24.997L46.937,23.804L47.811,22.675L48.75,21.578L49.753,20.514L50.789,19.482L51.857,18.482L52.958,17.579L54.123,16.676L55.321,15.837L56.551,15.063L57.781,14.321L59.076,13.676L60.403,13.031L61.73,12.482L63.122,11.966L64.482,11.515L65.906,11.16L65.906,11.128Z" style="fill:rgb(36,139,69);fill-rule:nonzero;"/>
    </g>
</svg>
