<?xml version="1.0" encoding="UTF-8" standalone="no"?>
<!DOCTYPE svg PUBLIC "-//W3C//DTD SVG 1.1//EN" "http://www.w3.org/Graphics/SVG/1.1/DTD/svg11.dtd">
<svg width="100%" height="100%" viewBox="0 0 1230 472" version="1.1" xmlns="http://www.w3.org/2000/svg" xmlns:xlink="http://www.w3.org/1999/xlink" xml:space="preserve" xmlns:serif="http://www.serif.com/" style="fill-rule:evenodd;clip-rule:evenodd;stroke-linejoin:round;stroke-miterlimit:2;">
    <g transform="matrix(4.166667,0,0,4.166667,0,0)">
        <g id="_-12470dff" serif:id="#12470dff" transform="matrix(0.5,0,0,0.5,-3.525,-0.687475)">
            <path id="path3019" d="M211.54,9.31C238.5,5.1 265.76,3.25 293.01,2.34C299.29,1.34 305.66,1.53 312,1.42C324.99,1.55 338.06,0.87 350.99,2.36C433.64,4.83 516.25,13.54 597.18,30.73C584.46,30.43 571.79,28.93 559.07,28.58C503.99,26.03 448.58,28.97 394.23,38.48C386.68,39.69 379.37,42.01 372.01,44.01C351.3,49.98 330.65,56.65 311.39,66.43C301.94,71.47 292.37,77.16 285.77,85.79C283.83,88.59 281.33,91.94 282.47,95.54C284.11,99.51 288.41,101.33 292.15,102.79C303.98,106.91 316.59,107.93 328.98,109.1C368.14,113.01 407.27,117.14 446.35,121.8C473.44,125.19 500.59,128.37 527.41,133.58C533.36,135.01 539.75,135.74 544.97,139.21C531.27,141.62 517.34,142.63 503.53,144.3C441.15,150.9 378.58,155.48 316,159.57C309.96,160.2 303.61,161.02 298.39,164.37C294.76,166.64 292.62,171.54 294.43,175.62C296.14,179.39 299.73,181.87 303.26,183.81C312.11,188.51 321.93,190.92 331.64,193.17C352.19,197.6 373.11,200.02 394.01,202.05C421.71,204.69 449.51,206.16 477.3,207.48C474.54,210.47 470.49,211.6 466.75,212.83C455.53,216.09 443.92,217.7 432.37,219.27C400.04,223.3 367.5,225.36 334.98,227.17C311.31,227.73 287.59,227.74 263.96,225.99C247.3,224.61 230.51,222.71 214.55,217.51C207.14,214.96 199.61,211.65 194.19,205.8C190.57,201.88 188.67,196.44 189.36,191.12C190.28,183.57 194.47,176.91 199.02,171C203.9,164.84 211.14,161.37 218.2,158.34C163.15,156.48 108.04,154.89 53.17,149.79C41.8,148.64 30.41,147.41 19.23,144.99C14.88,143.88 9.9,143.02 7.05,139.16C12.06,134.79 18.71,133.39 24.96,131.78C39.46,128.39 54.19,126.19 68.91,124.05C101.27,119.48 133.79,116.13 166.28,112.72C149.09,105.8 131.68,99.03 115.94,89.09C108.8,84.46 101.66,79.25 96.99,72C93.82,67.24 92.93,60.83 95.5,55.61C98.54,49.25 104.38,44.87 110.18,41.17C121.69,34.15 134.41,29.45 147.18,25.28C168.26,18.59 189.86,13.62 211.54,9.31Z" style="fill:rgb(18,71,13);fill-rule:nonzero;"/>
        </g>
        <g id="_-13480eff" serif:id="#13480eff">
        </g>
    </g>
</svg>
