<?xml version="1.0" encoding="UTF-8" standalone="no"?>
<!DOCTYPE svg PUBLIC "-//W3C//DTD SVG 1.1//EN" "http://www.w3.org/Graphics/SVG/1.1/DTD/svg11.dtd">
<svg width="100%" height="100%" viewBox="0 0 488 557" version="1.1" xmlns="http://www.w3.org/2000/svg" xmlns:xlink="http://www.w3.org/1999/xlink" xml:space="preserve" xmlns:serif="http://www.serif.com/" style="fill-rule:evenodd;clip-rule:evenodd;stroke-linejoin:round;stroke-miterlimit:2;">
    <g transform="matrix(4.166667,0,0,4.166667,0,0)">
        <g id="path3" transform="matrix(1,0,0,1,-315.77807,-2.063805)">
            <path d="M317.533,36.079L374.312,36.079L374.312,2.064C374.312,2.064 391.742,31.136 392.521,35.689C394.278,45.51 386.215,56.696 368.719,72.108C353.758,85.313 315.778,104.368 315.778,104.368C315.778,104.368 342.767,58.453 343.807,54.615C344.85,50.777 317.533,36.079 317.533,36.079Z" style="fill:rgb(244,170,71);"/>
        </g>
        <g id="path5" transform="matrix(1,0,0,1,-315.77807,-2.063805)">
            <path d="M348.037,93.834L373.598,135.523L373.598,103.326L432.455,103.326L403.709,85.119L432.78,36.405L404.424,51.492C404.424,51.492 402.343,52.859 401.952,50.387C401.628,47.981 406.897,32.892 400.912,23.787C396.816,17.478 385.498,18.193 383.744,19.56C381.985,20.99 380.947,27.299 380.947,27.299C380.947,27.299 385.889,23.073 391.092,23.788C396.362,24.503 397.661,30.681 398.116,36.406C398.83,44.794 391.092,56.371 386.93,61.965C382.7,67.557 366.246,85.768 348.037,93.834Z" style="fill:rgb(244,170,71);"/>
        </g>
    </g>
</svg>
