<?xml version="1.0" encoding="utf-8"?>
<!-- Generator: Adobe Illustrator 23.0.1, SVG Export Plug-In . SVG Version: 6.00 Build 0)  -->
<svg version="1.1" id="Livello_1" xmlns:svg="http://www.w3.org/2000/svg"
	 xmlns="http://www.w3.org/2000/svg" xmlns:xlink="http://www.w3.org/1999/xlink" x="0px" y="0px" width="480px" height="200.371px"
	 viewBox="0 0 480 200.371" enable-background="new 0 0 480 200.371" xml:space="preserve">
<g>
	<path id="Shape" fill="#006E44" d="M39.069,86.916V0L19.673,3.984C8.062,6.151-0.265,16.407,0.006,28.205v86.996l19.38-3.984
		C31,109.05,39.332,98.797,39.069,86.996 M277.223,20.872c-5.342,7.037-13.686,11.153-22.526,11.111h-68.45v83.218h-39.078V31.919
		H51.856V0H292.06L277.223,20.872z M424.687,104.09L352.234,4.92l-80.714,110.28h-47.053L300.606,11.19
		c5.395-6.982,13.714-11.082,22.541-11.111h72.438L480,115.201h-32.787C438.387,115.184,430.067,111.081,424.687,104.09
		 M436.665,167.071l-8.562-3.698c-2.573-1.143-5.131-3.174-5.131-6.349c0-4.857,3.701-6.555,7.943-6.555
		c5.703,0,11.12,3.413,15.393,7.412v-10.555c-4.138-3.519-9.403-5.44-14.837-5.413c-9.976,0-18.252,5.127-18.252,15.968
		c0,7.396,4.575,11.396,10.85,14.285l9.404,4.286c3.177,1.413,5.989,3.174,5.989,6.825c0,5.428-4.845,7.127-9.69,7.127
		c-6.561,0-11.406-2.555-17.109-7.396v10.539c4.814,3.722,10.736,5.727,16.823,5.698c10.548,0,19.682-6.556,19.682-16.809
		c0-8.269-5.703-12.539-12.549-15.396 M357.889,142.818h-11.326l20.54,30.491v25.078h10.262v-25.078l20.826-30.491h-11.692
		l-13.979,21.094L357.889,142.818z M293.998,198.371l5.719-12.253h23.669l5.417,12.253h10.834l-28.181-57.886l-28.244,57.854
		L293.998,198.371z M311.472,161.04l8.26,17.094h-16.267L311.472,161.04z M241.02,141.088l-14.837,35.903l-13.677-34.189h-10.85
		l23.399,57.569l15.679-37.046l15.123,37.046l23.669-57.569h-10.548l-13.693,34.189L241.02,141.088z M173.142,159.897
		c0,6.349-4.559,8.555-10.278,8.555h-5.703V151.04h5.703c5.989,0,10.278,2.841,10.278,8.825 M183.975,159.865
		c0-11.396-9.69-17.094-20.254-17.094h-16.553v55.553h9.976V176.69h5.147l15.965,21.65h11.692l-17.109-23.364
		c6.667-1.991,11.205-8.158,11.12-15.11 M118.925,142.771h-10.548v55.553h10.548V142.771z M41.356,198.324l5.703-12.253h23.669
		l5.417,12.253h11.12l-28.594-57.854l-28.228,57.854H41.356z M58.751,160.992l8.229,17.11H50.76L58.751,160.992z"/>
	<path id="Path" fill="#C2251B" d="M311.17,83.202l-23.383,31.998h47.068l31.485-43.03h-32.645
		c-8.822,0.033-17.134,4.133-22.526,11.111"/>
</g>
</svg>
