<svg version="1.2" xmlns="http://www.w3.org/2000/svg" viewBox="0 0 1574 833" width="1574" height="833">
	<title>jazeera-logo-svg</title>
	<defs>
		<clipPath clipPathUnits="userSpaceOnUse" id="cp1">
			<path d="m-2059.3-989.38h8260.77v2784.21h-8260.77z"/>
		</clipPath>
		<clipPath clipPathUnits="userSpaceOnUse" id="cp2">
			<path d="m-2059.3-989.38h8260.77v2784.21h-8260.77z"/>
		</clipPath>
		<clipPath clipPathUnits="userSpaceOnUse" id="cp3">
			<path d="m-2059.3-989.38h8260.77v2784.21h-8260.77z"/>
		</clipPath>
		<clipPath clipPathUnits="userSpaceOnUse" id="cp4">
			<path d="m-2059.3-989.38h8260.77v2784.21h-8260.77z"/>
		</clipPath>
	</defs>
	<style>
		.s0 { fill: #00a1df } 
		.s1 { fill: #004a97 } 
		.s2 { fill: #0082ca } 
	</style>
	<g id="Layer">
		<g id="Layer">
			<g id="Clip-Path" clip-path="url(#cp1)">
				<g id="Layer">
					<g id="Clip-Path" clip-path="url(#cp2)">
						<path id="Layer" class="s0" d="m405.9 0.8h-193v516.7c0 54.3-10.3 93.1-30.9 116.2-20.7 23.1-54.5 34.6-101.5 34.6-5.1 0-10.1-0.4-15.1-0.6l-64.8 157.3c28.6 5.2 60.2 7.8 94.7 7.8 61.1 0 111.6-8 151.6-24.1 40-16.1 71.8-37.9 95.3-65.6 23.5-27.5 40-60 49.5-97.1 9.5-37.1 14.2-76.6 14.2-118.6 0 0 0-526.6 0-526.6z"/>
					</g>
					<g id="Clip-Path" clip-path="url(#cp3)">
						<path id="Layer" class="s1" d="m1566.9 165h-517.1v153.4h277.1c-22.3 26.3-46.6 55.8-73 88.3-26.4 32.6-53 66.2-79.8 100.8q-40.2 52-76.7 103.3c-24.3 34.2-45.1 66.1-62.5 95.8v108.9h538.2v-153.4h-314.9c24-34.6 50.6-70.5 80-107.6 29.3-37.1 58.4-72.5 87.4-106.3 28.9-33.8 56-64.7 81.2-92.7q37.8-42.1 60.1-66.8z"/>
					</g>
					<g id="Clip-Path" clip-path="url(#cp4)">
						<path id="Layer" fill-rule="evenodd" class="s2" d="m848.2 166q54.3 18.6 87.1 53.2 32.8 34.6 46.5 84.1c9 32.9 13.6 69.6 13.6 110v387c-26.4 5.7-63.2 12.5-110.1 20.4-47.1 7.8-104 11.7-170.8 11.7-42.1 0-80.2-3.7-114.4-11.1-34.3-7.4-63.8-19.6-88.5-36.5-24.8-16.9-43.7-38.9-56.9-66.2-13.2-27.1-19.8-60.6-19.8-100.1 0-37.9 7.6-70.1 22.9-96.4 15.2-26.4 35.7-47.5 61.2-63.1 25.6-15.6 54.8-27.1 87.8-34q49.6-10.5 102.7-10.5c20.9 0 69.1 2.9 108.9 5.5v-15.4c0-31.3-9.4-43.9-28.4-62.8-9.8-9.8-23.4-17.1-40.6-21.8l-3.7-1q-12.4-3.8-36.6-6.9c-16-2-29.9-2.7-41.4-3-7.4-0.2-14.4-0.3-21.2-0.3-89.6 0-124.6 16.2-139.9 20v-152.1c9.9-4 22.1-7.6 36.1-10.5 5.6-1.1 11.2-2.2 16.9-3.2v-0.2c9.1-1.7 18.7-3.3 28.7-4.8 18.9-2.9 38.9-5.4 60-7.5 21-2 42.2-3 63.7-3q81.6 0 136.2 18.5zm-69.4 523c16.5-0.8 29.7-2.1 39.6-3.7v-132c-30.7-6.8-60.9-9.2-86.9-9.2-39.7 0-69.6 5.5-76.4 8.9q-17.3 8.7-27.2 23.5c-6.6 9.9-9.9 22.3-9.9 37.1 0 28.9 9.7 48.8 29.1 60 19.3 11.1 45.9 16.7 79.8 16.7 18.1 0 35.4-0.4 51.9-1.3z"/>
					</g>
				</g>
			</g>
		</g>
	</g>
</svg>