<?xml version="1.0" encoding="UTF-8" standalone="no"?>
<!-- Created with Inkscape (http://www.inkscape.org/) -->

<svg
   xmlns:dc="http://purl.org/dc/elements/1.1/"
   xmlns:cc="http://creativecommons.org/ns#"
   xmlns:rdf="http://www.w3.org/1999/02/22-rdf-syntax-ns#"
   xmlns:svg="http://www.w3.org/2000/svg"
   xmlns="http://www.w3.org/2000/svg"
   xmlns:sodipodi="http://sodipodi.sourceforge.net/DTD/sodipodi-0.dtd"
   xmlns:inkscape="http://www.inkscape.org/namespaces/inkscape"
   id="svg2403"
   sodipodi:version="0.32"
   inkscape:version="0.92.5 (2060ec1f9f, 2020-04-08)"
   width="300.00101"
   height="103.86758"
   xml:space="preserve"
   sodipodi:docname="Jazz Aviation logo.svg"
   inkscape:output_extension="org.inkscape.output.svg.inkscape"
   version="1.1"><metadata
     id="metadata2408"><rdf:RDF><cc:Work
         rdf:about=""><dc:format>image/svg+xml</dc:format><dc:type
           rdf:resource="http://purl.org/dc/dcmitype/StillImage" /><dc:title /></cc:Work></rdf:RDF></metadata><defs
     id="defs2406" /><sodipodi:namedview
     inkscape:window-height="1057"
     inkscape:window-width="1858"
     inkscape:pageshadow="2"
     inkscape:pageopacity="0.0"
     guidetolerance="10.0"
     gridtolerance="10.0"
     objecttolerance="10.0"
     borderopacity="1.0"
     bordercolor="#666666"
     pagecolor="#ffffff"
     id="base"
     showgrid="false"
     inkscape:zoom="3.8300518"
     inkscape:cx="151.3821"
     inkscape:cy="35.986123"
     inkscape:window-x="54"
     inkscape:window-y="-8"
     inkscape:current-layer="g2412"
     inkscape:window-maximized="1"
     fit-margin-top="0"
     fit-margin-left="0"
     fit-margin-right="0"
     fit-margin-bottom="0" /><g
     id="g2412"
     inkscape:groupmode="layer"
     inkscape:label="Air_Canada_Jazz"
     transform="matrix(1.25,0,0,-1.25,-10.629868,203.22053)"><path
       d="m 45.603021,153.30023 c 0.0478,0.11198 0.06965,0.23215 0.06691,0.35232 v 0.001 c -0.0027,0.0997 -0.03141,0.19801 -0.08467,0.28268 v 0 c -0.375537,0.46566 -0.800236,0.88763 -1.265902,1.26044 l 0.113344,-0.127 c -1.473472,1.64417 -3.023416,3.21869 -4.643006,4.71811 l -0.111978,0.10105 c -0.898559,0.91085 -1.984203,1.61823 -3.180459,2.07297 l -0.01912,0.008 c -1.459815,0.56536 -3.041169,0.73879 -4.577457,0.50664 l -0.02048,-0.003 c -1.749321,-0.29087 -3.487717,-0.65138 -5.20836,-1.07745 l -1.562235,-0.5394 c -4.726307,-2.53727 -8.914572,-5.97173 -12.325816,-10.1122 l 0.0014,0.003 c -0.345494,-0.47112 -0.34686,-1.11432 -0.0041,-1.58681 l -0.01775,0.0328 c 1.876321,-3.66661 4.428609,-6.94539 7.523036,-9.66155 l 0.02322,-0.0205 c 2.863642,-2.78171 7.432906,-2.72162 10.222806,0.13246 l -0.648655,-0.48615 c 4.573361,3.43856 9.015625,7.04781 13.319965,10.81821 l 0.617247,0.53804 c 0.689623,0.85759 1.283654,1.78619 1.773901,2.77078 l 0.0082,0.015"
       style="fill:#ce3728;fill-opacity:1;fill-rule:evenodd;stroke:none;stroke-width:1.36558998"
       id="path2436"
       inkscape:connector-curvature="0" /><path
       d="m 184.61872,93.696325 c 2.03063,0.68416 4.01483,1.499418 5.94031,2.44304 l 0.0533,0.02595 c 0.80024,0.237613 1.66466,0.107882 2.35974,-0.355053 l 0.52166,-0.535311 c 1.27819,-1.170311 2.53999,-2.355643 3.78814,-3.555997 l -0.008,0.0055 c 0.4643,-0.320914 1.00917,-0.505268 1.57316,-0.529849 l -0.0259,0.0014 c 3.50001,-0.243075 7.0164,0.105151 10.40034,1.031021 l -0.005,0.0082 c 1.19216,0.05462 2.36794,0.290871 3.48909,0.697817 l 0.0601,0.01912 c 1.75615,0.376903 3.57239,0.211667 5.23294,-0.472494 l -0.0341,0.0027 c 6.57668,-0.610418 13.20253,1.055601 18.73726,4.726307 l -0.83847,-0.344128 c 3.60379,1.554041 7.17345,3.185922 10.70623,4.894272 l 0.90402,0.43835 c 0.72239,0.33867 1.13344,1.11432 1.00917,1.89954 v 0.004 c -0.0396,0.127 -0.10652,0.24171 -0.19528,0.34004 -0.0819,0.0888 -0.18299,0.15704 -0.29633,0.19937 l 0.0123,-0.004 c -0.67461,0.17343 -1.37515,0.22532 -2.07433,0.15158 l 0.20347,-0.0109 c -6.40735,0.35506 -12.73276,0.01 -18.96258,-1.02556 l 0.0437,-0.005 c -2.00605,0.14475 -4.02166,0.0505 -6.00586,-0.28404 l -0.0751,-0.015 c -1.11432,-0.35369 -2.26824,-0.56672 -3.43582,-0.63637 l 0.0164,0.001 -1.00097,-0.0642 h -0.004 c -2.12213,-0.007 -3.3375,2.4089 -2.0675,4.10632 l -0.004,-0.004 c 1.49122,2.60008 3.39759,4.93934 5.64125,6.9249 1.14164,1.95689 2.44987,3.81137 3.90832,5.5443 l -0.0573,-0.0519 c 1.16758,1.07199 2.21089,2.27097 3.11491,3.57238 l 0.0423,0.0628 c 0.45065,0.63363 0.29633,1.51444 -0.34276,1.95825 -0.82209,0.60496 -1.6947,1.14027 -2.60691,1.59911 -0.0806,0.0355 -0.1707,0.0478 -0.2581,0.0341 l 0.0109,0.001 c -0.2895,-0.0437 -0.57354,-0.11198 -0.85076,-0.20348 l -0.015,-0.004 c -0.23898,-0.0806 -0.49025,-0.11335 -0.74425,-0.10242 l -0.0109,0.001 c -0.39602,0.0191 -0.78931,0.0847 -1.17168,0.19392 l -0.11607,0.0109 c -2.30648,0.28814 -4.58292,0.78521 -6.79927,1.48576 l 0.12973,-0.041 c -0.59677,0.0915 -1.20992,0.0109 -1.76571,-0.23488 l -0.0683,-0.0219 c -2.08389,-0.67596 -4.2743,-0.9641 -6.46197,-0.85212 l 0.55443,0.0901 c -4.88608,-0.91904 -9.73666,-2.01424 -14.54354,-3.28424 l -0.47386,-0.12563 c -3.21186,-0.78385 -3.91241,-5.04313 -1.12115,-6.8143 l 0.0123,-0.007 1.39154,-0.70054 -0.003,0.003 c 1.00234,-0.61315 2.23001,-0.72376 3.32794,-0.29907 l 0.0123,0.004 c 3.2624,1.09657 6.67091,1.6865 10.1122,1.75478 0.28404,-10e-4 0.55989,-0.0942 0.78658,-0.26492 0.0573,-0.0587 0.0901,-0.13656 0.0901,-0.2185 0.001,-0.10924 -0.03,-0.21576 -0.0874,-0.30725 l -0.0123,-0.0137 c -0.381,-0.45747 -0.78795,-0.89309 -1.21674,-1.30414 l -0.36871,-0.46839 c -2.68748,-3.37165 -5.41457,-6.71188 -8.17989,-10.01934 l 0.39193,0.46976 c -0.22533,-0.23488 -0.53395,-0.37007 -0.85759,-0.3769 h 0.004 c -3.92197,0.19801 -7.90949,-0.10378 -11.80962,-0.90538 l -0.12154,-0.0219 c -0.46703,-0.007 -0.93133,0.0915 -1.35466,0.28814 l 0.01,-0.004 c -0.2581,0.10378 -0.52439,0.18162 -0.79751,0.23215 -0.097,0.0191 -0.19801,0.01 -0.29087,-0.0259 l -0.0341,-0.008 c -2.55229,-0.61725 -5.18514,-0.83438 -7.83302,-0.64046 l 0.0888,-0.005 -1.16894,0.14065 -0.004,0.001 c -0.62134,0.33593 -0.7661,1.16484 -0.2936,1.6906 l 0.0983,0.11198 c 1.04604,1.17987 2.13442,2.3215 3.26376,3.42216 l -0.26219,-0.34003 c 2.57277,3.89193 4.78912,8.00646 6.62311,12.29577 l 0.10788,0.25264 c 0.66095,1.57316 0.0164,3.39759 -1.49122,4.20738 l -0.007,0.004 c -0.5121,0.33047 -1.04058,0.63773 -1.58136,0.91904 -0.10105,0.0437 -0.20893,0.0656 -0.31818,0.0656 -0.11471,0.001 -0.22942,-0.0191 -0.3373,-0.0614 l -0.0164,-0.008 c -0.5913,-0.32228 -1.24541,-0.51209 -1.91592,-0.55716 l 0.0546,0.003 c -1.48167,-0.0847 -2.94422,-0.37144 -4.34941,-0.85076 l 0.12837,-0.01 c -3.52186,-0.0724 -7.03279,-0.4165 -10.50276,-1.02692 l -0.1625,-0.0287 c -4.43134,-0.57764 -8.70973,-2.00605 -12.59757,-4.20602 l -0.0341,-0.01 c -0.92177,-0.23897 -1.87086,-0.34686 -2.82267,-0.31954 l 1.11159,0.18981 c -1.89817,-0.33183 -3.79225,-0.67733 -5.68495,-1.03648 l -1.07063,-0.20347 c -0.30452,-0.007 -0.59676,-0.11744 -0.83028,-0.31272 v 0 c -0.19801,-0.23215 -0.30862,-0.52575 -0.31135,-0.83028 l 10e-4,0.0164 c -0.0519,-1.49396 0.31272,-2.96333 1.05287,-4.25109 l 0.005,-0.008 0.6309,-0.70191 0.52029,-0.12837 -0.0273,0.0109 c 1.54858,-0.60633 3.25557,-0.71967 4.86969,-0.32501 l -0.27448,-0.0505 c 5.08546,0.95045 10.1395,2.06614 15.15395,3.34433 l 0.28951,0.0724 c 0.38919,0.0505 0.78794,0.0219 1.17031,-0.0833 0.14202,-0.0478 0.25809,-0.15158 0.32091,-0.28813 0.0601,-0.1352 0.0615,-0.28951 0.001,-0.42607 l -0.0109,-0.0232 c -1.58272,-3.24601 -3.93426,-6.05503 -6.8498,-8.18672 l 0.0396,0.0355 c -0.87124,-0.93133 -1.57452,-2.00332 -2.08252,-3.17227 l -0.0123,-0.0314 c -0.64319,-1.40793 -1.83672,-2.48948 -3.302,-2.99065 l 0.041,0.0191 c -0.85622,-0.412403 -1.67558,-0.898553 -2.4485,-1.452982 l -0.0314,-0.02185 c -0.2144,-0.157043 -0.36052,-0.390558 -0.40558,-0.651386 l 0.0819,-0.327742 -0.0628,0.178893 c 0.47795,-1.349203 1.01053,-2.676557 1.59637,-3.980695 l 0.0737,-0.166602 c 0.65685,-1.081547 1.61686,-1.945966 2.75986,-2.488105 l 0.007,-0.0027 0.61588,-0.434258 -0.003,0.0014 c 0.95318,-0.675967 2.18494,-0.812526 3.26376,-0.359151 l 0.0109,0.0055 c 3.15179,0.704644 6.38141,0.998246 9.60829,0.872612 l -0.0683,-0.01093 c 0.54623,0.0833 1.08974,0.191183 1.62641,0.322279 l 0.0669,0.01775 c 0.36324,0.118806 0.74424,0.180258 1.12661,0.181623 h 0.008 c 0.37281,0 0.74835,-0.05872 1.1075,-0.174795 l -0.005,0.0027 c 1.29731,-0.561257 2.76805,-0.563989 4.06673,-0.0055 l 0.0137,0.0055 c 0.36188,0.116075 0.73878,0.174796 1.11432,0.17343 0.37827,0 0.75244,-0.06009 1.11295,-0.176161 l -0.005,0.0027 c 1.30004,-0.595397 2.80083,-0.543505 4.0558,0.140656 l -0.46839,-0.202107 c 1.45298,0.62544 2.89505,1.276826 4.32618,1.951428 l 0.42061,0.206204"
       style="fill:#ce3728;fill-opacity:1;fill-rule:evenodd;stroke:none;stroke-width:1.36558998"
       id="path2438"
       inkscape:connector-curvature="0" /><path
       d="m 51.485982,103.46439 c -0.630902,1.68377 -1.477568,3.28015 -2.518148,4.74679 -0.277214,0.54897 -0.667773,1.03375 -1.147095,1.42021 l -0.385097,0.23762 0.0027,-0.001 c -0.318183,0.0751 -0.652752,0.041 -0.949085,-0.0983 l 0.292236,0.13519 c -4.861501,-2.24639 -9.585076,-4.78093 -14.146147,-7.58722 l 0.06009,0.15295 C 30.01208,99.902931 27.405168,97.256418 24.87473,94.537528 l -0.318182,-0.342763 c -1.481665,-1.925482 -0.308624,-4.735866 2.103008,-5.036296 h 0.0041 c 0.946354,-0.08876 1.869493,-0.355053 2.71889,-0.785214 l -0.0041,0.0014 c 0.109247,-0.0437 0.223957,-0.06555 0.341397,-0.06418 h -0.0014 c 0.109247,0 0.217129,0.02185 0.318182,0.06418 l 0.0027,0.0014 c 4.780931,1.754783 9.626044,3.326577 14.525781,4.714017 l -0.09422,-0.04643 c 1.403826,0.677332 2.788534,1.392902 4.154124,2.145342 l 0.0915,0.05053 1.183966,0.917677 -0.03824,-0.05189 c 0.603591,0.801601 1.185332,1.620955 1.743858,2.45533 l 0.02731,0.0437 c 0.681429,0.954548 0.817988,2.193139 0.361881,3.273319 l -0.05326,0.15432 c -0.176161,0.52438 -0.342763,1.0515 -0.499806,1.58271 z m 64.560998,17.72126 c -0.0573,0.0587 -0.13656,0.0915 -0.21849,0.0915 h -0.001 c -0.10652,10e-4 -0.21303,-0.0287 -0.30453,-0.0874 l 0.0273,0.0232 c -0.45884,-0.37827 -0.8972,-0.78385 -1.3096,-1.21264 l -0.0492,-0.0533 c -1.18806,-1.32599 -2.70933,-2.30921 -4.40402,-2.85135 l 0.0819,0.0314 c -4.9407,-2.08526 -8.961,-5.89116 -11.313912,-10.71032 l -0.02321,-0.0464 -0.766096,-2.04293 -0.170698,-0.53258 c -0.07238,-0.41104 0.16387,-0.81389 0.55716,-0.94908 h -0.0027 c 0.629537,-0.1748 1.289117,-0.18163 1.921386,-0.0191 l 0.0109,0.003 c 0.52575,0.007 1.03648,0.18982 1.44752,0.51892 l -0.72376,-0.55579 c 4.34667,3.32111 8.5841,6.78289 12.70545,10.38121 l 0.66914,0.58311 c 1.74932,1.75478 2.54956,4.24289 2.15353,6.68866 l -0.003,0.0178 -0.28404,0.7224 z M 46.255773,85.971182 c 9.168571,3.968405 17.767691,9.139894 25.572038,15.376548 l 0.09013,0.0751 c 4.649834,3.09306 7.118821,8.58 6.349993,14.11201 l 0.0027,-0.01 c -0.22942,0.6391 -0.602226,1.21674 -1.091107,1.68924 l -0.0082,0.007 -0.316817,0.39056 v 0.001 c -0.135194,0.18299 -0.133828,0.43152 0.0041,0.61178 l 0.0055,0.007 c 0.565354,0.69918 1.405192,1.12525 2.306481,1.17031 l -0.01912,0.001 c 1.850375,-0.041 3.693921,0.2458 5.444607,0.8453 l 0.01775,0.005 c 1.536289,0.46293 3.190018,0.32911 4.632081,-0.37417 v 10e-4 c 0.204839,-0.11607 0.453376,-0.11607 0.658215,-0.003 l 0.01502,0.008 c 0.327742,0.17616 0.673236,0.32091 1.029655,0.43016 l -0.01366,-0.004 c 0.722397,0.0997 1.448891,0.15977 2.176751,0.18026 0.431526,0.0232 0.827547,-0.23488 0.981859,-0.6391 0.159774,-0.56945 -0.05462,-1.1785 -0.535311,-1.524 l 0.0014,10e-4 c -2.247761,-1.45709 -4.428608,-3.01386 -6.534348,-4.66895 -0.622709,-0.66505 -1.029655,-1.50488 -1.162117,-2.40754 l -0.0014,-0.001 c -0.06282,-0.23625 -0.172064,-0.45748 -0.318182,-0.65276 l -0.0027,-0.004 c -0.151581,-0.20075 -0.340032,-0.37144 -0.55443,-0.50391 l 0.01502,0.008 c -1.037849,-0.45338 -1.814869,-1.35057 -2.115299,-2.44168 l -0.0027,-0.0136 c -0.111979,-0.42334 -0.282678,-0.82892 -0.506634,-1.20445 l 0.0014,0.003 c -0.132462,-0.22259 -0.316817,-0.41105 -0.538042,-0.54897 l -0.0096,-0.007 c -0.11471,-0.071 -0.232151,-0.13656 -0.352323,-0.19528 l 0.01229,0.007 c -0.269021,-0.13519 -0.523021,-0.2977 -0.757903,-0.48888 -0.391924,-0.32091 -0.686891,-0.74698 -0.850762,-1.22767 l -0.169333,-0.8808 0.01229,0.0273 c -1.339644,-2.98928 -1.436601,-6.390961 -0.269021,-9.451248 l 0.01092,-0.03141 c 1.95416,-3.609255 6.070048,-5.480113 10.073958,-4.58292 l -0.05736,0.0027 c 5.058145,-0.04506 9.911452,1.899535 13.523438,5.409102 l -0.17206,-0.105151 c 2.74074,1.752052 5.34219,3.713039 7.78113,5.866577 l 0.1625,0.14612 c 1.12252,0.58311 2.04566,1.48576 2.65608,2.59325 l 0.003,0.005 0.34959,0.70464 0.004,0.005 c 1.28228,1.47757 3.67343,1.09521 4.43134,-0.71283 l -0.0123,0.0259 c 0.80433,-1.68104 1.80257,-3.26103 2.97698,-4.70719 l 0.0177,-0.02185 c 0.041,-0.06691 0.0615,-0.142022 0.0587,-0.21986 v -0.0014 c -0.003,-0.118806 -0.0287,-0.234881 -0.0751,-0.344129 v -0.0014 c -0.0587,-0.18572 -0.13656,-0.363247 -0.23215,-0.531215 l 10e-4,0.0027 c -0.0437,-0.103784 -0.0328,-0.221225 0.0273,-0.315451 l -0.001,0.0041 c 0.11198,-0.177527 0.26629,-0.32501 0.44791,-0.431527 l -0.0478,0.03278 c 1.43387,-0.943623 2.9128,-1.816235 4.43134,-2.615105 l 0.0478,-0.02731 c 2.45533,-0.957279 5.21792,-0.637731 7.39057,0.856225 l -0.24034,-0.107882 c 4.18144,1.95416 8.18944,4.263372 11.97759,6.900334 l 0.18299,0.11197 c 0.64865,0.62954 1.28365,1.2741 1.90636,1.93095 l 0.0533,0.0573 0.32501,0.381 v -0.001 c 0.13656,0.18162 0.13656,0.43289 -0.003,0.61451 v 0 c -0.36325,0.48479 -0.87398,0.83711 -1.45708,1.00235 l 0.003,-10e-4 c -0.0219,0.007 -0.0437,0.0123 -0.0669,0.0177 l -0.003,0.001 -1.62778,0.37144 -0.0232,0.005 c -0.45337,0.10515 -0.89309,0.2581 -1.31369,0.45747 l 0.0109,-0.005 c -0.30043,0.14339 -0.57764,0.32911 -0.82208,0.55443 l 0.008,-0.008 c -1.1389,0.99415 -2.37749,1.86813 -3.69529,2.60554 l -0.008,0.007 c -0.64729,0.508 -1.02966,1.28093 -1.04331,2.10438 l 0.001,-0.01 c -0.27858,3.47542 -0.66504,6.94129 -1.16075,10.39214 l -0.52438,1.57589 0.004,-0.007 c -0.18708,0.25127 -0.40967,0.47386 -0.65958,0.66095 l -0.0164,0.0123 c -0.14612,0.11061 -0.28405,0.23351 -0.41105,0.36734 l 0.0137,-0.0137 c -0.72103,0.90676 -1.89544,1.32463 -3.03025,1.07336 v 0 l -0.81662,-0.23762 -0.17479,-0.0533 c -3.42354,-1.03649 -6.94403,-1.71382 -10.50685,-2.02517 l 0.14612,0.001 c -0.42197,-0.1666 -0.84667,-0.32637 -1.2741,-0.47659 l 0.0341,0.0123 c -0.254,-0.086 -0.52302,-0.12017 -0.79341,-0.10242 h 0.003 c -0.20893,0.015 -0.40967,0.0819 -0.58447,0.19801 l -0.097,0.0683 c -0.30999,0.22259 -0.61724,0.45065 -0.9204,0.6828 l 0.10378,-0.0792 c -0.54487,0.55716 -1.27956,0.889 -2.05794,0.9286 l -0.15841,0.004 c -0.98869,0.0328 -1.97601,0.0997 -2.9606,0.19938 l 0.13929,-0.0137 c -0.26219,0.0246 -0.52029,0.0819 -0.76883,0.17207 h -10e-4 c -0.27312,0.0997 -0.53395,0.22941 -0.77566,0.38782 l 0.0109,-0.007 c -2.17675,1.25497 -4.58156,2.0634 -7.07376,2.37885 l 0.19801,-0.0136 c -6.393694,0.45474 -12.719107,0.18299 -18.95166,-0.8016 l -0.03004,-0.004 c -0.817988,-0.10379 -1.648267,0.0191 -2.400707,0.35505 l 0.01366,-0.007 -0.431526,0.21031 c -0.204839,0.1147 -0.453376,0.1147 -0.658215,0 l -0.124268,-0.0396 c -2.942847,-0.92723 -5.990844,-1.47347 -9.07298,-1.62915 l 0.120172,0.007 c -0.562623,0.004 -1.106128,0.20621 -1.533558,0.57082 l -0.370075,0.32638 c -2.972889,2.62193 -5.835166,5.3654 -8.581367,8.22358 l 0.348225,-0.36052 c -4.632081,2.14261 -9.382969,4.01893 -14.229448,5.61667 h 0.0014 c -0.129731,0.0314 -0.267656,0.0314 -0.398752,-0.003 l 0.01365,0.003 c -0.348225,-0.0888 -0.688257,-0.2103 -1.014633,-0.36188 l -0.09013,-0.041 c -1.753417,-0.7975 -3.596964,-1.37924 -5.492403,-1.73156 l -0.663677,-0.28951 c -3.512297,-1.42704 -7.058734,-2.76805 -10.635214,-4.02303 l 0.763364,0.26902 c -0.400117,-0.13109 -0.63773,-0.5394 -0.558526,-0.95318 v 0.003 c 0.06555,-0.40148 0.221226,-0.78111 0.453376,-1.11432 l -0.05872,0.0765 c 2.95104,-3.9411 6.246208,-7.61317 9.845903,-10.97115 l 0.07238,-0.0683 c 1.34374,-1.57863 2.631492,-3.20368 3.861888,-4.87243 0.05462,-0.12154 0.05462,-0.26083 -0.0027,-0.381 v 0 c -0.07238,-0.15158 -0.193914,-0.27448 -0.344129,-0.34822 h 0.0014 c -7.342878,-2.99698 -14.203603,-7.06916 -20.35422,-12.07678 l -0.0068,-0.004 c -0.570816,-0.34003 -1.200353,-0.57218 -1.855837,-0.68416 l 0.0068,0.001 c -0.237612,-0.0642 -0.458838,-0.17207 -0.654117,-0.31955 l 0.0027,0.004 c -0.200742,-0.15021 -0.372806,-0.3373 -0.505268,-0.55169 l -0.222592,-0.25674 C 16.679825,98.23418 13.71786,95.001829 10.68625,91.836391 l 0.247172,0.26629 C 9.8774111,90.503575 9.2170118,88.673685 9.0064378,86.768687 l -0.00505,-0.03551 C 8.8902261,86.3713 8.7435617,86.020343 8.563577,85.687139 l 0.00382,0.0082 C 8.5252,85.587457 8.503624,85.472748 8.503897,85.356673 v -0.0027 c 4.097e-4,-0.109247 0.022942,-0.217128 0.065821,-0.318182 l -0.00341,0.0096 c 1.530553,-3.827749 5.506605,-6.091897 9.569235,-5.456897 l -0.03824,0.0055 c 6.365015,-0.05326 12.768266,0.947719 18.880647,2.961965 l 0.178893,0.06418 c 3.315652,0.285409 6.496111,1.457085 9.204076,3.392126 l -0.10515,-0.04097"
       style="fill:#ce3728;fill-opacity:1;fill-rule:evenodd;stroke:none;stroke-width:1.36558998"
       id="path2440"
       inkscape:connector-curvature="0" /><path
       style="fill:#000000;stroke-width:0.80000001"
       d=""
       id="path39"
       inkscape:connector-curvature="0" /></g></svg>