<?xml version="1.0"?>
<svg xmlns="http://www.w3.org/2000/svg" viewBox="0 0 609.90002 119.6" width="609.90002" height="119.6">
<g transform="translate(-21.7,-267)" fill="#F15A22">
<polygon fill="#00A7E1" points="522.5,296.5 568.3,272.1 532.3,272 " style="fill:#00a7e1" />
<polygon points="194.7,358.1 151.9,358.1 159.3,339.5 197.5,339.5 205.5,318.7 167.1,318.7 175.2,298.2 213.4,298.2 222.1,276 183.8,276 150,276 111,380.5 186,380.5 " style="fill:#f15a22" />
<path d="m 206.4,358.1 -8.9,22.5 c 19.8,2.1 36.7,-0.2 36.7,-0.2 11.7,-1.1 31.4,-4.9 42,-30.4 l 29.6,-74 H 272 l -25.9,64 c 0,0 -4.1,13.9 -18.9,17.6 -5.3,1.4 -14.9,0.8 -20.8,0.5" />
<path d="m 35.6,358.1 -8.9,22.5 c 19.8,2.1 36.6,-0.2 36.6,-0.2 11.7,-1.1 31.4,-4.9 42,-30.4 l 29.6,-74 H 101 l -25.9,64 c 0,0 -4.1,13.9 -18.9,17.6 -5.1,1.4 -14.8,0.8 -20.6,0.5" />
<path d="m 378.1,276 -24.8,67 c -5.9,15 -11.3,15.8 -19.5,15.8 -9.6,0 -7.2,-7.9 -5.9,-12.5 L 354.4,276 h -33.5 l -27.3,73.5 c -9.5,26.2 12.2,31.7 22.9,31.7 H 334 c 9.6,0 39.8,-2.6 49,-27.3 l 28.8,-77.8 h -33.7 z" />
<polygon points="551.8,298.4 521.5,298.4 490.5,381.5 520.9,381.5 " />
</g>
<path d="m 598.5,31.4 c -16.3,0 -25.8,9.4 -30.8,15.4 l 6.1,-15.4 h -30.3 l -31,83.1 h 30.4 l 14.8,-39.4 c 7.6,-17.7 23.8,-18.8 26.6,-18.8 h 11.5 l 9.1,-24.9 z" style="fill:#f15a22" />
<path d="m 437.1,84.6 c 0,0 -4,12.3 -21.2,12.3 -2.6,0 -6.2,-1.5 -5.6,-6.2 0.6,-5.2 4,-7.2 8.3,-8.1 l 20.7,-3.9 z m -22.9,-17 c -19.3,2.1 -34.8,10.9 -36.8,27.4 -1,8.2 3,19.5 24.7,19.5 0,0 16.3,0.6 26.4,-6.3 l -2.4,6.4 h 29.7 l 20.4,-55.8 1.1,-2.9 c 2.8,-7.6 2.7,-24.4 -33.1,-25.2 -15.1,-0.3 -39.8,2.6 -54.4,28.1 h 29.6 c 0,0 4.2,-10.9 17.8,-10.9 0,0 8.5,-0.4 9.2,5.2 0,0 1,8.2 -11.5,11.3 -7.3,1.7 -20.7,3.2 -20.7,3.2" style="fill:#f15a22" />
</svg>