<svg version="1.2" xmlns="http://www.w3.org/2000/svg" viewBox="0 0 1350 1546" width="1350" height="1546">
	<title>Jet2Logo-svg</title>
	<style>
		.s0 { fill: #e2231a } 
	</style>
	<path id="Layer" class="s0" d="m1349.9 1c0 0-34.4 149.9-76.9 346.5l-36.4 42.5-198.3-12.1 95.1-229h-42.5l-164 227c0 0-42.5 2-60.7 2-4 2-10.1 2-18.2 2 4.1-24.3 6.1-46.6 10.1-64.8 12.2-70.9 38.5-182.4 87.1-241.2 48.5-56.7 133.5-70.9 206.4-72.9 72.9-2 198.3 0 198.3 0zm-113.3 435.7l14.2 16.2c-16.2 72.9-32.4 149.9-48.6 226.9-54.7 261.4-91.1 502.5-161.9 603.9-141.7 202.6-305.6 261.4-552.5 261.4-323.9 0-487.8-194.6-487.8-344.5 0-166.2 16.2-322.2 16.2-322.2l376.4 2c0 0-14.1 162.1-14.1 255.3 0 50.7 64.7 83.1 135.6 83.1 218.5 0 214.5-180.3 265.1-435.6 26.3-131.8 46.5-251.3 60.7-342.5 10.1 2 20.3 2 28.3 2 16.2 2.1 60.8 2.1 60.8 2.1l163.9 226.9h42.5l-95.1-226.9z"/>
</svg>