<svg version="1.2" xmlns="http://www.w3.org/2000/svg" viewBox="0 0 1551 1494" width="1551" height="1494">
	<title>JetBlue_Airways_Logo-svg</title>
	<style>
		.s0 { fill: #003876 } 
	</style>
	<g id="g3">
		<path id="path19" fill-rule="evenodd" class="s0" d="m143.5 343.3h170.3v912.9c0 142-103.5 237.3-247.1 237.3h-66.7v-160.4h48.3c58.5 0 95.2-26.8 95.2-90.3zm0-342.4h170.3v170.4h-170.3zm450.5 830.2c0 138.6 85.1 208.8 202 208.8 65.1 0 135.2-30.1 185.4-81.8l123.4 105.2c-83.4 96.8-192 137-305.4 137-173.7 0-375.7-83.5-375.7-431 0-329.1 185.3-436 349-436 186.9 0 348.9 138.7 348.9 357.5v140.3zm357.2-140.3c-4.9-128.6-78.4-197.1-178.6-197.1-100.2 0-175.3 68.5-178.6 197.1zm305.3-604.7h170.2v257.2h123.5v130.3h-123.5v492.8c0 46.8 18.4 63.5 60 63.5h63.5v160.4h-88.5c-118.5 0-205.2-75.3-205.2-208.9v-507.8h-85.3v-130.3h85.3z"/>
	</g>
</svg>