<?xml version="1.0" encoding="UTF-8" standalone="no"?>
<!DOCTYPE svg PUBLIC "-//W3C//DTD SVG 1.1//EN" "http://www.w3.org/Graphics/SVG/1.1/DTD/svg11.dtd">
<svg width="100%" height="100%" viewBox="0 0 366 515" version="1.1" xmlns="http://www.w3.org/2000/svg" xmlns:xlink="http://www.w3.org/1999/xlink" xml:space="preserve" xmlns:serif="http://www.serif.com/" style="fill-rule:evenodd;clip-rule:evenodd;stroke-linejoin:round;stroke-miterlimit:2;">
    <g transform="matrix(4.166667,0,0,4.166667,0,0)">
        <g id="Layer_1_1_" transform="matrix(1,0,0,1,-54.515264,-54.3)">
            <path d="M136.8,105.8C124.1,98.3 118.9,97.4 109,91.6C108.2,91.1 107.6,89.9 107.5,89C106.5,79.6 105.4,70.3 104.5,60.9C104.2,57.8 101.8,54.3 98.3,54.3C94.8,54.3 92.4,57.8 92.1,60.9C91.2,70.3 90.1,79.6 89.1,89C89,89.9 88.4,91.1 87.6,91.6C77.7,97.4 72.5,98.3 59.8,105.8C55.3,108.5 53.7,112.7 54.9,117.7L71.4,116.3L71.4,119.6C71.4,121.9 73.1,123.8 75.4,123.9C77.7,124 79.6,122.1 79.6,119.8L79.6,115.6L87.3,114.9C89.1,114.7 90.7,116.1 90.9,117.9C91.3,122.9 91.9,132 92.1,135.7C92.1,136.5 91.7,137.5 91.2,138.1C89.2,140.6 87,143.3 84.9,145.7C83.7,147.1 83.4,148.5 83.8,150.3C88.2,148.8 92.4,147.7 96.7,146.4C97.2,146.2 97.8,146.2 98.4,146.2C99,146.2 99.6,146.3 100.1,146.4C104.4,147.7 108.7,148.8 113,150.3C113.4,148.4 113.1,147.1 111.9,145.7C109.8,143.3 107.6,140.6 105.6,138.1C105.1,137.5 104.6,136.5 104.7,135.7C104.9,132.1 105.5,122.9 105.9,117.9C106,116.1 107.6,114.7 109.5,114.9L117.2,115.6L117.2,119.8C117.2,122.1 119.1,124 121.4,123.9C123.7,123.8 125.4,121.9 125.4,119.6L125.4,116.3L141.9,117.7C142.9,112.6 141.3,108.4 136.8,105.8Z" style="fill-rule:nonzero;"/>
            <path d="M104.3,171.1L104.3,177.7C119.4,177.7 131.7,165.4 131.7,150.3L125.1,150.3C125.2,161.7 115.8,171.1 104.3,171.1Z" style="fill-rule:nonzero;"/>
        </g>
    </g>
</svg>
