<svg version="1.2" xmlns="http://www.w3.org/2000/svg" viewBox="0 0 1549 1164" width="1549" height="1164">
	<title>272450</title>
	<style>
		.s0 { fill: #bed600 } 
	</style>
	<path class="s0" d="m963.4 578.4l-32.2-24-96.5-66.4v-7.6-28.1q0-18.9-0.5-37.3-1-18.9-2.6-37.2-2-18.9-4.5-37.3-2.6-18.4-6.2-36.8c0-4-2-10.2-2-14.3-2.1-4-2.1-9.7-4.1-15.8q2-2 4.6-4.1 2.5-1.5 5.1-3.5 2.6-1.6 5.1-3.1 2.6-2 5.1-3.6 47.5-34.7 97-66.3 49.5-31.7 101.1-59.8 52.1-28 105.7-52 53.6-24.5 108.7-44.4c4.1-2.1 10.2-4.1 13.8-6.2 2 0 4.1-2 6.1-2q18.4-6.1 36.8-11.2 18.9-4.6 37.8-8.2 18.9-3.6 37.7-5.6 19.4-2.1 38.8-3.1h5.7c13.7 0 27.5 2.1 40.3 6.6 12.8 5.2 24.5 11.8 35.2 20.5 10.2 8.6 18.9 19.4 26.1 31.1 6.6 11.7 11.2 25 13.2 38.3q0 1 0 2 0 1.1 0.5 2.1 0 1 0.5 2 0.6 1 1.1 2.1 2 15.8 3.5 31.6 1.6 15.8 2.6 31.7 1 15.8 1.5 31.6 0.5 15.8 0.5 31.7 0 30.1-2 60.2-1.5 30.1-5.1 60.2-3.6 29.6-8.7 59.2-5.1 30.2-12.2 59.3v4q-7.7 30.7-21 59.8-12.7 29.1-30.6 55.6-18.4 26-40.8 48.5-22.5 23-48.5 40.8-20 14.3-41.4 25.6-22 11.2-44.9 19.9-22.5 8.1-46.5 13.3-24 5.6-48 7.6z"/>
	<path class="s0" d="m879.1 928.1l-78.6-52.1-2-2.1 2-15.8 12.3-90.8 2-7.7 17.9-122.5 42.3 17.8 88.4 36.3 36.2 13.8 185.3 76.5q12.3 11.3 23 23.5 10.7 12.8 20.4 26.6 9.2 13.8 16.9 28 8.1 14.9 14.3 30.2 0 0.5 0 1 0 1 0.5 1.5 0 0.5 0.5 0.5 0.5 0.5 1 1.1c0 2 0 2 1.5 4 2.1 4.1 2.1 8.2 4.1 12.3q1 1.5 1.6 3.6 0.5 2 1 4 0.5 2.1 1 4.1 0.5 2.1 0.5 4.1 2.1 8.2 3.1 16.3 1 8.2 1 16.9 0 8.2 0 16.3-0.5 8.7-2 16.9-0.6 7.6-2.1 15.3-1.5 7.6-4.1 14.8-2 7.1-5.1 14.3-3 7.1-6.6 13.8c-10.7 21.9-24.5 41.8-42.4 58.2-17.3 16.8-37.8 30.1-59.7 39.8q-33.7 13.8-70.5 15.3c-24 0.5-48-3.1-70.9-10.7h-2.1c-2 0-4.1-2.1-6.1-2.1q0 0-0.5 0-0.5 0-1-0.5 0-0.5 0-0.5-0.5-0.5-0.5-1c-9.7-4.1-20-8.2-27.6-11.7q-27.1-14.3-50.6-33.2-23.4-18.9-43.4-41.9-19.4-23-34.2-49-15.3-26.5-25-55.1l58.2 10.2 22.5 4.1v-30.2z"/>
	<path class="s0" d="m585.1 578.4l32.1-24 97-66.4v-7.6-28.1q-0.5-18.9 0.5-37.3 0.5-18.9 2.6-37.2 1.5-18.9 4.1-37.3 3-18.4 6.6-36.8c0-4 2.1-10.2 2.1-14.3 2-4 2-9.7 4-15.8q-2.5-2-5.1-4.1-2-1.5-4.6-3.5-2.5-1.6-5.1-3.1-2.5-2-5.6-3.6-47-34.7-96.5-66.3-49.5-31.7-101.6-59.8-51.5-28-105.1-52-53.6-24.5-108.8-44.4c-4.1-2.1-10.2-4.1-14.3-6.2-2 0-4.1-2-6.1-2q-17.9-6.1-36.8-11.2-18.3-4.6-37.2-8.2-18.9-3.6-38.3-5.6-18.9-2.1-38.3-3.1h-6.1c-13.8 0-27.1 2.1-39.9 6.6-12.7 5.2-25 11.8-35.2 20.5-10.7 8.6-19.4 19.4-26 31.1-6.7 11.7-11.2 25-13.3 38.3q0 1 0 2-0.5 1.1-0.5 2.1-0.5 1-0.5 2-0.5 1-1 2.1-2.6 15.8-4.1 31.6-1.5 15.8-2.6 31.7-1 15.8-1.5 31.6 0 15.8 0 31.7 0 30.1 1.5 60.2 2.1 30.1 5.6 60.2 3.1 29.6 8.7 59.2 5.1 30.2 12.3 59.3v4q7.6 30.7 20.4 59.8 13.3 29.1 31.1 55.6 17.9 26 40.4 48.5 22.4 23 48.5 40.8 19.9 14.3 41.8 25.6 21.5 11.2 44.5 19.9 22.9 8.1 46.9 13.3 23.5 5.6 48 7.6z"/>
	<path class="s0" d="m667.8 928.1l78.6-52.1 2-2.1-2-15.8-12.3-90.8-2-7.7-18.4-122.5-41.8 17.8-88.9 36.3-36.2 13.8-180.8 76.5q-12.2 11.3-23.4 23.5-10.8 12.8-20.5 26.6-9.1 13.8-16.8 28-8.2 14.9-13.8 30.2-0.5 0.5-0.5 1 0 1-0.5 1.5 0 0.5-0.5 0.5-0.5 0.5-0.5 1.1c0 2 0 2-2.1 4-2 4.1-2 8.2-4.1 12.3q-1 1.5-1.5 3.6-0.5 2-1 4-0.5 2.1-1 4.1-0.5 2.1-0.5 4.1-1.6 8.2-2.6 16.3-1 8.2-1.5 16.9 0 8.2 0.5 16.3 0.5 8.7 1.5 16.9 1 7.6 2.6 15.3 1.5 7.1 3.5 14.8 2.1 7.1 5.1 14.3 3.1 7.1 7.2 13.8c10.2 21.9 24.5 41.3 41.9 58.2 17.3 16.8 37.7 30.1 60.2 39.3 22 9.7 45.9 14.8 69.9 15.3 24 1 48.5-2.6 71-10.2h2c2.1 0 4.1-2.1 6.2-2.1q0.5 0 0.5-0.5 0.5 0 1 0 0-0.5 0.5-1 0 0 0-0.5c10.2-4.1 19.9-8.2 28.1-12.3q26.5-13.7 50-32.6 23.5-18.9 43.4-41.9 19.4-23 34.7-49.5 14.8-26 24.5-54.6l-57.6 10.2-22 4.1v-30.2z"/>
</svg>