<?xml version="1.0" encoding="UTF-8"?>
<svg width="160.27pt" height="47.16pt" version="1.2" viewBox="0 0 160.27 47.16" xmlns="http://www.w3.org/2000/svg" xmlns:cc="http://creativecommons.org/ns#" xmlns:dc="http://purl.org/dc/elements/1.1/" xmlns:rdf="http://www.w3.org/1999/02/22-rdf-syntax-ns#" xmlns:xlink="http://www.w3.org/1999/xlink">
 <metadata>
  <rdf:RDF>
   <cc:Work rdf:about="">
    <dc:format>image/svg+xml</dc:format>
    <dc:type rdf:resource="http://purl.org/dc/dcmitype/StillImage"/>
    <dc:title/>
   </cc:Work>
  </rdf:RDF>
 </metadata>
 <defs></defs>
 <g transform="translate(-116.94 -691.01)" fill="#0700b8">
  <path d="m255.89 692.76-20.633 29.844c-2.7148 3.9258-7.1172 7.707-12.441 8.1094v0.91797h18.66c6.0938 0 10.535-3.9648 13.547-8.332l21.18-30.539z"/>
  <path d="m182.38 724.06c-3.3516 0-6.3711-1.3906-8.5273-3.6211 1.1328-2.5156 1.7656-5.3047 1.7656-8.2383 0-2.9414-0.63281-5.7266-1.7656-8.2422 2.1562-2.2305 5.1758-3.6211 8.5273-3.6211 6.5469 0 11.859 5.3125 11.859 11.863 0 6.5469-5.3125 11.859-11.859 11.859m36.648-32.051c-8.6055 0-15.848 6.1562-17.402 14.441-2.4727-8.293-10.152-14.34-19.246-14.34-5.1641 0-9.8672 1.9453-13.426 5.1445-3.5586-3.1992-8.2617-5.1445-13.422-5.1445-8.7461 0-16.18 5.5898-18.938 13.387v-12.734h-8.8945v25.754c0 6.5664-3.1914 9.7617-9.7578 9.7617v8.8906c11.379 0 18.492-6.9961 18.645-18.285v-8e-3c2.7539 7.8125 10.191 13.41 18.945 13.41 5.1602 0 9.8633-1.9492 13.422-5.1484 3.5586 3.1992 8.2617 5.1484 13.426 5.1484 8.75 0 16.191-5.6016 18.945-13.414v12.762h8.9414v-21.918c0-4.8398 3.9219-8.7656 8.7617-8.7656s8.7656 3.9258 8.7656 8.7656v16.562c0.1172-0.0195 0.29688-0.11328 0.38672-0.16406 2.6289-1.5078 5.9648-6.2305 7.5469-8.6523 0.98828-1.5156 1.0078-1.5547 1.0078-1.625v-6.1211c0-9.7773-7.9258-17.707-17.707-17.707"/>
 </g>
</svg>
