<svg width="200" height="200" xmlns="http://www.w3.org/2000/svg"><title>Juneyao Airlines</title>
 <g>
  <path fill="#C5996B" d="m11.4095,99.90118c0,-48.87436 39.61751,-88.49675 88.58789,-88.49675c48.859,0 88.56777,39.62238 88.56777,88.49675c0,48.95025 -39.70876,88.57781 -88.56777,88.57781c-48.97038,0 -88.58789,-39.62755 -88.58789,-88.57781m88.58789,-90.24062c-49.82219,0 -90.33172,40.49437 -90.33172,90.24062c0,49.84247 40.50953,90.32163 90.33172,90.32163c49.73094,0 90.22557,-40.47916 90.22557,-90.32163c0,-49.74625 -40.49462,-90.24062 -90.22557,-90.24062m0,182.3112c-50.81078,0 -92.07063,-41.26492 -92.07063,-92.07058c0,-50.70949 41.25985,-91.9846 92.07063,-91.9846c50.71948,0 91.96417,41.27511 91.96417,91.9846c0,50.80566 -41.24469,92.07058 -91.96417,92.07058m0,-189.41345c-53.8319,0 -97.43924,43.60192 -97.43924,97.34287c0,53.81684 43.60735,97.54053 97.43924,97.54053c53.82723,0 97.44446,-43.72369 97.44446,-97.54053c0,-53.74095 -43.61723,-97.34287 -97.44446,-97.34287m-0.18752,166.74314c-5.55613,4.57251 -18.9849,8.85616 -34.07158,6.0326c2.62601,0.96304 4.85655,1.66262 6.61558,2.04799c8.94756,1.75407 17.12965,0.97328 23.76039,-1.27242c7.4825,-2.62089 15.07147,-8.74991 21.60594,-14.78748c7.57877,-7.00091 14.57953,-12.85096 20.53604,-13.43901c4.57276,-0.38538 7.58891,1.28251 7.89308,4.08595c0.38026,3.99977 -4.57743,3.69565 -4.29866,1.36869c-1.36387,-0.87701 -2.82371,-0.68939 -3.71076,0.38026c-1.16095,1.36869 -1.16095,4.48141 0,6.42807c1.28251,1.37376 3.21877,1.66277 4.40015,1.76411c3.6956,0.17743 7.77151,-1.57152 9.53546,-4.00489c0.97343,-1.55124 1.8404,-4.28365 1.05449,-7.38613c-0.57274,-2.14436 -2.13432,-5.27224 -6.71707,-7.50263c-6.82343,-3.49298 -19.35497,-2.25082 -27.7447,5.93623c-3.58423,3.60435 -6.12385,6.62577 -8.55215,9.53546c-3.01118,3.71096 -5.84508,7.11249 -10.30622,10.81321m-80.98372,-60.93942c-3.23434,5.16563 -2.44346,12.273 0.28896,17.51989c3.79187,7.10717 11.39072,8.77505 15.27414,9.93088c-2.337,3.3155 -4.95307,10.03749 -0.862,16.83557c0.2738,0.48656 0.66926,1.06965 1.05449,1.749c3.31038,4.97811 9.7282,9.8447 16.55665,13.83443c19.95336,10.80794 40.39319,5.45464 47.59692,-0.30923c4.27326,-3.58413 6.89927,-6.80325 10.01691,-10.59507c2.52974,-2.93012 5.05426,-6.02768 8.66383,-9.64207c8.08064,-7.88801 21.21549,-10.7066 29.90442,-6.31649c5.0391,2.61577 6.87914,6.23031 7.56853,8.74986c0.78591,3.01615 0.2992,6.33165 -1.36357,8.76491c-2.0378,2.92515 -6.51404,4.86162 -10.80282,4.77032c1.93631,0.68442 4.1922,0.78069 6.63069,0.0913c4.95773,-1.26223 8.83589,-5.43948 9.13017,-11.77625c0.41057,-7.18331 -4.95804,-13.53538 -11.0971,-14.31095l1.76923,0c19.94814,1.47018 34.07158,-6.22519 34.36053,-22.0925c0.08603,-7.88289 -3.31038,-13.53026 -8.18705,-16.94715c3.5131,4.09619 4.95773,9.63204 4.59263,14.81298c-0.80076,11.56323 -10.14871,17.4184 -27.84619,17.62123c-3.51305,0 -27.54202,-0.20283 -50.80551,-0.4055c-20.8507,-0.0913 -42.24874,-0.28389 -47.99239,-0.28389c-7.1935,0 -16.0597,1.94665 -16.84561,11.29465c-0.18225,2.24058 0.58815,4.56242 2.14948,6.4229c1.83513,2.15445 4.46605,3.5131 7.10752,3.68541c3.00591,0.29904 5.74856,-0.78064 7.3909,-2.72217c1.06473,-1.44483 1.46014,-3.1076 0.96846,-4.56247l0,-0.11153c-1.16617,-2.42318 -3.40659,-3.00114 -5.15575,-1.35353c0.5882,2.05808 -1.0696,3.89321 -3.59908,3.41156c-1.56158,-0.20774 -4.87693,-2.63092 -2.64111,-6.51404c1.36357,-2.44853 3.51305,-3.42702 12.3641,-3.32554c7.011,0.10641 47.03412,0.78064 72.90313,0.97835c-2.62068,0.6793 -4.76525,1.64761 -6.32653,2.53471c-4.46605,2.62089 -11.47705,7.97926 -14.2045,13.23619c-0.47652,-5.65234 -3.79187,-11.39087 -9.33776,-13.03848c-5.27209,-1.55124 -9.72825,-0.57796 -13.0436,2.61065c-0.68442,0.60848 -1.16586,1.27759 -1.65258,1.95177c2.03283,-1.55124 4.75998,-2.52447 7.9791,-2.61577c4.28386,-0.2079 8.27338,1.73876 10.71684,5.3533c2.41806,3.58408 2.70702,8.06549 0.95792,11.96883c-0.18747,0.47652 -0.77537,0.67423 -1.17078,0.47652c-0.47652,-0.19771 -0.66926,-0.76041 -0.47652,-1.16095c1.55109,-3.39641 1.26735,-7.19847 -0.78591,-10.21989c-2.13432,-3.11764 -5.55086,-4.86659 -9.16043,-4.67907c-3.87293,0.20283 -6.99057,1.66789 -8.73445,3.99465c-0.8874,1.37893 -1.37903,2.81859 -1.37903,4.38514c0,0.48164 0,0.86682 0.10149,1.25716c0.09125,0.20283 0.09125,0.40053 0.09125,0.59312c0.10119,0.10646 0.10119,0.10646 0.10119,0.1826c0.5882,2.53962 2.33208,5.36334 4.28877,6.13901c2.33203,0.88198 4.96823,-1.36372 4.47629,-2.82366c-1.35865,-0.28901 -2.14426,-1.74388 -1.93631,-2.71219c0.18225,-0.97835 1.43444,-2.63604 3.28473,-2.73748c1.75407,-0.09115 4.40542,0.96826 4.40542,4.48136c0.08106,2.04302 -1.47003,4.57773 -4.01001,6.23543c-2.33173,1.55124 -6.02241,3.58408 -16.54646,3.19885c-10.78766,-0.3905 -19.16745,-3.6956 -23.35474,-6.5142c-1.65258,-1.17626 -3.7869,-3.11272 -5.06445,-4.28365c3.12783,-0.88218 5.46483,-2.53471 6.7223,-4.674c-2.04835,2.04799 -5.06941,3.11764 -8.26847,2.91481c-3.21386,-0.28389 -6.24019,-1.85541 -8.37452,-4.37495c-1.85556,-2.2457 -2.82868,-4.9628 -2.54495,-7.78652c0.68939,-8.2783 7.32535,-12.85096 18.60464,-12.85096c5.74365,0 27.25337,0.0913 47.99239,0.28901c23.26349,0.19771 47.29245,0.40038 50.80551,0.40038c16.55665,-0.20268 25.30159,-5.55101 26.08223,-15.97372c0.58293,-7.97419 -3.41684,-16.84566 -13.35304,-18.68576c-4.56227,2.4281 -9.71801,3.97934 -12.93714,4.48121c-0.47647,0.09642 -0.97307,-0.2888 -0.97307,-0.79068c-0.10149,-0.48159 0.20268,-0.96319 0.67915,-0.96319c2.8339,-0.49695 7.2189,-1.75919 11.19823,-3.70584c1.95177,-1.07968 3.79217,-2.14441 8.66388,-5.43948c7.48747,-5.16563 12.75459,-14.70125 7.59393,-23.85661c-4.48648,-7.87782 -13.91057,-8.77019 -18.78725,-4.7653c-3.00626,2.53471 -3.39671,6.80832 -2.33203,9.35307c0.98362,2.4283 3.31535,4.46625 5.74365,4.65372c-0.49168,0.88218 -1.07461,1.46511 -1.85034,1.96186c-5.45459,4.95784 -13.15498,5.15063 -24.55122,5.24172l-2.60558,0.11158l-1.46506,0c-6.43298,0 -17.10927,0.09125 -22.38136,7.29995c-2.24078,2.90984 -2.6362,6.79808 -1.18133,9.72313c2.06842,3.88824 7.20871,6.0326 14.71164,6.0326c0.48144,0 0.87189,0.48159 0.87189,0.97343c0,0.48656 -0.39045,0.88198 -0.87189,0.88198c-10.52436,0 -14.59499,-3.89828 -16.24757,-7.09718c-1.76426,-3.51817 -1.26735,-8.09078 1.26208,-11.60389c5.82501,-7.88289 17.51492,-7.96907 23.83653,-8.06032l1.36357,0l2.70707,0c7.91351,-0.10134 13.84467,-0.20283 18.50346,-1.86053c-3.79182,0.28901 -9.04378,0.19771 -16.53125,0.19771c-15.97377,0 -31.83607,-0.98347 -36.59609,12.85608c-5.94135,0.18752 -8.85135,0.18752 -11.88265,0.18752c1.16059,-6.23528 -1.16617,-13.53523 -6.50943,-14.79762c0.08633,0.09637 0.28404,0.09637 0.38026,0.20278c2.82371,2.51955 5.44967,8.08576 3.199,15.76086c-2.12936,7.39126 -10.40771,11.29465 -19.55298,9.24666c-0.48641,-0.09637 -0.78064,-0.58308 -0.67423,-1.07477c0.09657,-0.48671 0.56777,-0.78064 1.06965,-0.66926c8.26319,1.85044 15.57831,-1.5664 17.42362,-7.98934c1.83513,-6.42802 0,-11.58361 -2.63092,-13.92061c-1.65785,-1.35353 -3.50814,-1.64249 -5.15047,-0.87189l-0.11665,0c-1.94159,1.26223 -2.23551,3.40153 -2.0378,4.86659c1.75376,-0.67935 4.57748,-0.48656 5.15544,2.33203c0.5882,2.73241 -1.94159,5.54589 -6.71702,4.37987c-3.98958,-1.05941 -6.1239,-7.39126 -3.21913,-13.03848c2.5449,-4.96296 7.21393,-7.59408 10.62554,-9.24154c-0.78561,-2.05311 -0.68939,-4.29384 0.19274,-6.24547c0.87194,-1.93662 2.53471,-3.49298 4.48648,-4.27362c1.75407,-0.57289 3.49267,-0.57289 5.15544,0.19771c1.63742,0.68954 2.91993,2.04307 3.4979,3.69053c0.5882,1.36372 0.48671,2.92008 -0.10119,4.1772c-0.57796,1.37381 -1.75929,2.45365 -3.11794,2.94533c-1.05418,0.48159 -2.33173,0.38538 -3.4979,-0.1165c-1.06437,-0.47156 -1.93631,-1.35865 -2.43322,-2.52467c-0.28901,-0.96831 -0.28901,-2.03795 0.10149,-2.93509c0.48144,-0.95315 1.16586,-1.64249 2.14948,-2.02787c0.47647,-0.2078 0.95792,0 1.15567,0.48159c0.19274,0.50187 -0.09627,0.97835 -0.49665,1.17114c-0.57796,0.19259 -0.96846,0.58293 -1.16617,1.06965c-0.19771,0.48651 -0.27877,1.07472 -0.10119,1.55631c0.29889,0.78064 0.8871,1.27232 1.56625,1.56133c0.68442,0.38517 1.47033,0.38517 2.14953,0.09125c0.87189,-0.38026 1.6578,-1.05449 2.03283,-1.93662c0.38026,-0.8871 0.4969,-1.96678 0.11665,-2.91993c-0.49168,-1.16602 -1.37908,-2.14436 -2.53998,-2.73241c-1.28251,-0.47135 -2.53471,-0.47135 -3.79679,-0.08618c-1.56133,0.67423 -2.82371,1.83006 -3.50286,3.39661c-0.68442,1.55616 -0.78591,3.22405 -0.19771,4.87171c1.17078,3.20377 6.12882,5.3533 10.03734,3.79694c5.23681,-2.23566 7.86246,-7.28977 15.07116,-10.81306c8.57258,-4.27853 13.72305,-3.79694 16.25776,-2.43844c3.6956,2.05818 2.32184,6.82855 0,7.20881c-2.337,0.3801 -3.41684,-0.87701 -3.10745,-2.04302c-2.03811,-0.2078 -3.23429,1.85029 -2.64111,3.20889c0.60301,1.36377 3.71076,3.99977 8.8662,3.42196c5.25196,-0.69958 8.85135,-5.25708 9.24154,-9.55589c0.39541,-4.46108 -0.96816,-7.39126 -2.91993,-9.42916c3.00626,-0.20268 9.15521,0.18762 11.21339,0.48666c4.16721,0.58805 6.59546,2.42318 6.69695,4.37495c0,1.54105 -1.8404,3.30531 -3.41192,1.75407c-1.93626,0.48159 -2.71198,2.12905 -2.13924,3.80206c0.88705,2.73241 5.15575,3.40153 8.17712,2.33188c2.82341,-0.97835 5.35315,-4.08083 6.24024,-7.29489c1.15598,-4.58285 0.19279,-10.71167 -5.35315,-15.20312c-5.56104,-4.56257 -13.0436,-4.16716 -18.02171,-4.56257c-5.34326,-0.41062 -3.61454,-1.37893 -4.77052,-6.32658c-0.78064,-3.70584 -4.26834,-7.88801 -10.4074,-9.05914c-6.1239,-1.27227 -10.42287,-0.588 -18.78228,3.70077c-8.17681,4.09614 -14.70637,8.47601 -20.04928,10.51908c-5.36369,1.95162 -9.83471,2.91993 -12.26296,1.75392c-2.14451,-1.07973 -1.85556,-3.32047 -1.08511,-4.29886c0.78094,-0.96319 2.25594,-2.03283 3.89858,-2.81347c-0.77567,-1.6577 -2.23581,-3.59923 -3.02664,-4.77037c-0.57274,0.10646 -1.33822,0.38538 -2.32681,0.67423l-2.71198,1.37376c-4.18728,2.23059 -8.6688,7.97931 -5.66253,14.01191c2.43844,4.97811 9.82939,6.5142 19.75535,4.19747c8.40022,-1.95177 16.95207,-7.30508 23.85169,-11.69514c2.2457,-1.35353 4.48121,-2.7171 6.33677,-3.79187c4.07059,-2.23566 8.26811,-2.81859 11.477,-1.45994c2.44873,0.96816 4.10622,2.91988 4.87698,5.55592c0.09622,0.48671 -0.21286,0.96324 -0.67945,1.04937c-0.48144,0.21307 -0.98331,-0.08613 -1.07958,-0.56265c-0.57796,-2.14436 -1.95177,-3.60942 -3.80206,-4.38499c-2.73241,-1.16602 -6.31664,-0.68949 -9.92591,1.35353c-1.85556,1.07968 -3.98988,2.34212 -6.23036,3.80718c-7.09201,4.36983 -15.76086,9.82447 -24.41941,11.8675c-10.7979,2.54474 -18.99514,0.57781 -21.8037,-5.15063c-2.25067,-4.48633 -0.8871,-8.85616 1.55636,-12.17663c-1.1761,0.88198 -2.24048,1.76411 -3.02142,2.64116c-3.21386,3.88312 -2.04799,9.53546 -0.19249,12.05501c-4.48151,0.79083 -9.54069,1.75898 -15.47677,4.5827c-5.95154,2.73241 -11.78152,6.71195 -15.17792,10.90431c-3.61951,4.17725 -5.06941,8.07568 -5.74892,12.64322c-0.59809,3.51305 0.20298,7.60909 1.74388,10.03222c1.65785,2.63113 5.07469,5.05938 9.34825,5.3533c3.50783,0.2992 7.49771,-0.78064 9.53024,-3.41156c1.36387,-1.63742 2.05818,-3.60435 2.34719,-5.63719c-1.27724,2.91481 -3.51305,5.15047 -6.03757,6.0326c-5.35345,1.9465 -10.62057,0.19264 -13.23107,-4.28877c-3.21913,-5.73868 -1.06473,-13.43389 5.15539,-18.77716c3.12788,-2.81859 14.7927,-11.78132 30.95891,-11.87262c0.47647,0 0.87194,0.38538 0.87194,0.86697s-0.39546,0.8871 -0.87194,0.8871c-15.48178,0.0913 -26.77654,8.74986 -29.79269,11.48724c-5.6527,4.76033 -7.5992,11.57357 -4.7653,16.53146c2.13402,3.70569 6.61558,5.05426 11.08655,3.51305c2.24605,-0.77552 4.20275,-2.925 5.16599,-5.65234c0.69431,-1.8402 0.77537,-3.59923 0.37498,-4.86659c-0.66926,-1.1609 -1.33822,-2.13944 -1.93135,-2.61592c-0.96846,0.96831 -2.14948,1.94153 -2.93012,2.41821c0.19243,1.95162 0.59809,3.51305 -0.46628,4.5827c-0.99386,0.97835 -2.84414,1.35865 -4.09107,-0.19771c-1.75934,-2.2457 -0.59312,-6.71195 1.73861,-9.1402c2.35246,-2.35728 5.84508,-4.78041 9.26192,-6.23528c3.30019,-1.36372 6.7118,-2.23054 9.81428,-1.56143c-3.01615,3.70564 -6.61031,9.54053 -7.97419,13.54035c-1.36357,3.98461 -4.09107,15.07643 0.78064,24.32304c5.91626,11.29972 15.47185,19.28415 37.07784,19.47674l3.69063,0c-7.39648,-1.15583 -13.61132,-2.82878 -18.56936,-5.16578c-11.39102,-5.25181 -17.33729,-13.82424 -18.30053,-26.09227c-1.36387,-17.51989 12.06525,-27.82084 25.11377,-31.6229c0.46628,-0.10149 0.95827,0.1824 1.15598,0.57274c0.11138,0.49178 -0.19771,0.9785 -0.57796,1.18117c-12.46564,3.59938 -25.2001,13.22103 -23.95318,29.67634c1.75934,22.58925 20.93176,31.93228 64.14339,31.2581c0.10149,0 0.19771,0 0.2992,0.09125c14.7924,-0.18767 28.22147,-0.38538 31.82055,-0.38538c3.71081,0 7.89809,0.09642 7.89809,3.00626c1.55631,-0.56777 2.13432,-1.45502 2.13432,-2.22562c0,-1.55616 -2.13432,-3.31023 -5.54097,-3.59923c-4.2835,-0.39541 -12.47055,-0.28896 -21.21022,-0.19771c-10.32634,0.0913 -21.14959,0.19771 -27.65375,-0.39029c-0.4969,0 -0.88213,-0.48671 -0.78064,-0.97328c0,-0.48671 0.47652,-0.78576 0.96319,-0.78576c6.42807,0.60321 17.14486,0.48656 27.4712,0.3801c8.73967,-0.08106 17.02821,-0.18747 21.29655,0.10646c4.18728,0.38538 7.3102,2.73753 7.20871,5.45971c0,0.96831 -0.49168,3.79202 -6.14403,4.76033c-1.24723,0.30416 -3.01645,0.40038 -5.43451,0.58805c-6.32658,0.48159 -83.31581,-0.18767 -92.86673,-0.0913c-6.23528,0.0913 -16.7389,1.16095 -19.95803,-0.78576c-3.11764,-2.03283 -4.66411,-4.28365 -3.38652,-6.99579c0.76548,-1.87568 5.32283,-1.76411 5.52054,1.541c2.15475,1.37893 4.97811,0.10149 5.55116,-3.20377l0,-0.8871c-0.28404,-1.85044 -1.24723,-3.20894 -2.91496,-4.27874c-2.8339,-1.95162 -7.00603,-2.34192 -9.72298,-1.65765c-2.44868,0.58308 -4.77052,2.34207 -6.32161,4.8819c-1.76426,2.72222 -2.35246,5.93111 -1.76426,8.56731c1.27754,5.64231 5.93111,9.92596 11.57849,10.71172c0.49168,0.08106 0.8871,0.46628 0.77572,0.953c-0.08633,0.48671 -0.48175,0.88213 -0.97343,0.78064c-6.42279,-0.8871 -11.67476,-5.73852 -13.13485,-12.06013c-0.67423,-3.11764 0,-6.81836 1.94153,-9.95116c1.85029,-2.89981 4.57778,-4.95292 7.50298,-5.63719c2.54459,-0.57796 6.32125,-0.3905 9.54565,0.97835c-1.85059,-1.65765 -4.19747,-2.93012 -6.52951,-3.11267c-6.32161,-0.57781 -11.86258,2.63108 -15.17265,7.88304m99.96371,-68.34086c-3.03161,0.49183 -8.28357,0.21292 -14.21474,-2.22542c3.89833,-3.4979 8.36468,-6.90966 11.08691,-7.41153c2.63092,-0.47135 5.93111,0 6.91473,3.12788c0,0 0,0.09125 0.09622,0.09125c-0.39541,-0.48159 -0.96816,-0.88725 -1.55636,-1.06453c-2.03775,-0.97343 -4.28872,-0.20283 -5.04402,1.55621c-0.79088,1.84532 0.18255,3.98973 2.22035,4.86674c0.78591,0.39034 1.57147,0.47647 2.33203,0.28886c-0.57796,0.39541 -1.26735,0.58308 -1.83513,0.77055m18.5793,57.63426c2.33203,-2.6362 5.74887,-3.21913 8.29346,-1.36372c2.23581,1.55636 2.80359,4.67907 1.14579,6.89435c-1.26735,1.86559 -3.88809,2.34719 -5.74365,0.98347c-0.39541,-0.19264 -0.49163,-0.77557 -0.18752,-1.16586c0.29925,-0.39034 0.78069,-0.48671 1.26735,-0.28901c1.04922,0.78064 2.51433,0.4714 3.20397,-0.58293c1.06437,-1.36372 0.68412,-3.39661 -0.78591,-4.37495c-2.02259,-1.46506 -4.46605,-0.49178 -5.93111,1.07477c-2.23054,2.52447 -5.92123,4.17213 -9.24154,2.13924c-2.72217,-1.66789 -3.51305,-5.05933 -1.85551,-7.79174c0.59312,-1.06965 1.6578,-1.75904 2.93012,-2.04804c1.1609,-0.28384 2.42333,-0.09125 3.50317,0.48671c0.39511,0.29398 0.57766,0.87706 0.26858,1.2522c-0.26858,0.39526 -0.76056,0.59302 -1.23177,0.30913c-0.59317,-0.38522 -1.37908,-0.49168 -2.14953,-0.38522c-0.79083,0.18747 -1.46506,0.66911 -1.86047,1.3586c-1.07492,1.84522 -0.48671,4.17725 1.27232,5.34311c2.62104,1.56655 5.45464,0 7.10225,-1.8401m4.20275,-5.35345c-0.50714,0 -0.99878,-0.39029 -0.99878,-0.88198c0,-0.49178 0.30411,-0.87701 0.78556,-0.87701c6.63601,-0.48671 12.46594,-1.84025 17.92555,-4.18232c6.80336,-3.01123 11.48227,-6.42295 13.3174,-9.82447c2.04799,-3.59416 1.65785,-7.99446 0.31435,-10.40756c-1.37903,-2.44853 -4.59816,-4.39523 -7.40641,-3.21898c-2.05326,0.87686 -3.03658,3.21898 -2.23581,5.24177c0.6795,1.57147 2.43352,2.34207 3.96945,1.76411c0.5882,-0.29904 0.98859,-0.68442 1.27232,-1.26735c0.19771,-0.58293 0.19771,-1.16602 0,-1.75904c-0.19771,-0.37514 0,-0.96319 0.49199,-1.1609c0.39014,-0.18767 0.97835,0.0911 1.18102,0.48656c0.38026,1.0696 0.38026,2.13924 0,3.11779c-0.49168,0.96319 -1.27232,1.74895 -2.26091,2.23551c-2.41806,0.97338 -5.24699,-0.18752 -6.32653,-2.72222c-1.16095,-2.91993 0.27877,-6.32673 3.20362,-7.599c3.82746,-1.55636 7.90337,0.78571 9.65247,4.00468c1.56128,2.71726 2.14918,7.77151 -0.27912,12.1565c-2.1544,3.79699 -6.93486,7.29489 -14.22954,10.60526c-5.63749,2.43834 -11.66487,3.89833 -18.37662,4.28862" class="st0"/>
 </g>
</svg>