<svg xmlns:xlink="http://www.w3.org/1999/xlink" xmlns="http://www.w3.org/2000/svg" width="263" height="22" viewBox="0 0 263 22" fill="none">
<g clip-path="url(#clip0_6554_33931)">
<path d="M0.375977 0.0605469C10.3447 0.0789091 20.3134 0.0972713 30.2838 0.115634C30.2943 1.68811 30.3048 3.26058 30.3153 4.83305C30.3153 4.92153 30.3153 4.96493 30.3153 5.0534C30.3153 5.13019 30.3153 5.16858 30.3153 5.24704C30.3153 5.30212 30.3153 5.3305 30.3153 5.38559C30.3153 5.41898 30.3153 5.43567 30.3153 5.46905C30.3153 5.48074 30.3153 5.48575 30.3153 5.49743C22.0747 5.50244 13.8342 5.50745 5.5936 5.51246C4.36345 5.51246 3.21369 4.83973 2.55494 3.72965C1.69349 2.27403 1.26014 1.54622 0.396945 0.0889248C0.388208 0.0772398 0.384713 0.0722319 0.375977 0.0605469Z" fill="#231F20"/>
<path d="M4.35459 6.76546C5.25973 8.28618 5.71404 9.04571 6.61917 10.5648C7.39675 11.8668 8.74746 12.653 10.196 12.6497C16.9199 12.628 23.6437 12.608 30.3676 12.5863C30.3676 12.5746 30.3676 12.5696 30.3676 12.5579C30.3676 12.5245 30.3676 12.5078 30.3676 12.4744C30.3676 12.4193 30.3676 12.391 30.3676 12.3359C30.3676 12.2591 30.3676 12.2207 30.3676 12.1422C30.3676 12.0538 30.3676 12.0104 30.3676 11.9219C30.3553 10.1842 30.3448 8.44476 30.3326 6.70703C21.6674 6.71705 13.004 6.72706 4.33887 6.73541C4.3476 6.74709 4.3511 6.7521 4.35809 6.76379L4.35459 6.76546Z" fill="#231F20"/>
<path d="M8.61513 13.9207C9.52551 15.4431 10.4359 16.9671 11.348 18.4895C12.0924 19.8951 14.0459 21.0803 15.7164 21.0102C20.6178 20.9701 25.5209 20.93 30.4222 20.8917C30.4222 20.88 30.4222 20.875 30.4222 20.8633C30.4222 20.8299 30.4222 20.8132 30.4222 20.7798C30.4222 20.7364 30.4222 20.713 30.4222 20.6696C30.4222 20.5928 30.4222 20.5545 30.4222 20.476C30.4222 20.3875 30.4222 20.3441 30.4222 20.2557C30.4082 18.1039 30.3925 15.9522 30.3785 13.7988C23.1182 13.8305 15.8579 13.8606 8.59766 13.8923C8.60639 13.904 8.60989 13.909 8.61862 13.9207H8.61513Z" fill="#231F20"/>
<path d="M262.808 0.582488C261.962 1.86951 261.538 2.51219 260.692 3.80255C260.046 4.78743 258.906 5.38504 257.674 5.38504C249.434 5.38838 241.193 5.39172 232.953 5.39339C232.953 5.38337 232.953 5.37836 232.953 5.36835C232.953 5.3383 232.953 5.32328 232.953 5.29323C232.953 5.24315 232.953 5.21811 232.953 5.16803C232.953 5.09792 232.953 5.06287 232.953 4.99276C232.953 4.91263 232.953 4.87257 232.953 4.79244C232.942 3.07474 232.935 2.21673 232.925 0.499023C242.894 0.519055 252.862 0.539086 262.833 0.557449C262.824 0.567464 262.82 0.572472 262.813 0.582488H262.808Z" fill="#231F20"/>
<path d="M258.956 6.47404C250.29 6.48239 241.627 6.49073 232.962 6.49908C232.972 8.0799 232.983 9.66239 232.993 11.2432C232.993 11.3233 232.993 11.3634 232.993 11.4435C232.993 11.5136 232.993 11.5487 232.993 11.6188C232.993 11.6689 232.993 11.6939 232.993 11.744C232.993 11.774 232.993 11.7891 232.993 11.8191C232.993 11.8291 232.993 11.8341 232.993 11.8442C239.717 11.8158 246.441 11.7891 253.165 11.7607C254.613 11.754 255.955 11.0446 256.716 9.88107C257.603 8.5256 258.045 7.84787 258.933 6.49574C258.942 6.48573 258.945 6.48072 258.952 6.4707L258.956 6.47404Z" fill="#231F20"/>
<path d="M254.785 12.862C247.524 12.8921 240.264 12.9221 233.004 12.9522C233.016 14.9102 233.03 16.8683 233.042 18.8264C233.042 18.9065 233.042 18.9466 233.042 19.0267C233.042 19.0968 233.042 19.1319 233.042 19.202C233.042 19.2421 233.042 19.2621 233.042 19.3021C233.042 19.3322 233.042 19.3472 233.042 19.3773C233.042 19.3873 233.042 19.3923 233.042 19.4023C237.945 19.3689 242.847 19.3372 247.75 19.3038C249.35 19.3556 251.294 18.3206 252.087 16.9902C252.978 15.6214 253.869 14.2525 254.762 12.8854C254.771 12.8754 254.774 12.8704 254.781 12.8604L254.785 12.862Z" fill="#231F20"/>
<path d="M47.2875 7.14466C49.0087 4.81433 50.7316 2.48399 52.458 0.157C50.7193 0.153662 48.979 0.150323 47.2403 0.146985C45.2536 2.81284 43.2721 5.48037 41.2941 8.15124C41.2766 5.48037 41.2574 2.80784 41.2399 0.1353C39.5782 0.131961 37.9147 0.128622 36.2529 0.126953C36.3001 7.11461 36.3473 14.1039 36.3945 21.0916C38.1523 21.0782 39.0312 21.0716 40.7891 21.0582C40.7751 19.0083 40.7611 16.9568 40.7471 14.9069C41.8707 13.7417 42.996 12.5765 44.1213 11.413C45.7603 14.6081 47.4011 17.8031 49.0436 20.9964C50.7193 20.9831 52.395 20.9714 54.069 20.958C51.8044 16.3558 49.5434 11.7502 47.2875 7.14299V7.14466Z" fill="#231F20"/>
<path d="M68.7312 0.185797C66.9944 0.182458 65.2557 0.17912 63.5189 0.175781C61.0795 7.095 58.649 14.0176 56.2236 20.9418C58.1632 20.9268 59.133 20.9201 61.0726 20.9051C62.7972 15.9573 64.5253 11.0112 66.257 6.06504C67.1167 9.46873 67.9781 12.8741 68.8396 16.2778C67.6933 16.2845 67.1202 16.2878 65.9739 16.2928C65.4427 17.8219 64.9115 19.3509 64.3803 20.8783C68.1826 20.85 71.9866 20.8216 75.7888 20.7932C73.4299 13.9257 71.078 7.05493 68.733 0.184128L68.7312 0.185797Z" fill="#231F20"/>
<path d="M159.946 0.359625C158.21 0.356287 156.471 0.352948 154.734 0.349609C152.293 6.98505 149.861 13.6238 147.434 20.2643C149.373 20.2492 150.343 20.2426 152.283 20.2275C154.009 15.4834 155.737 10.7393 157.47 5.99849C158.33 9.26196 159.19 12.5254 160.05 15.7906C158.903 15.7972 158.33 15.8006 157.182 15.8056C156.649 17.2712 156.118 18.7369 155.587 20.2042C159.389 20.1758 163.193 20.1474 166.995 20.119C164.638 13.5353 162.288 6.94999 159.945 0.361294L159.946 0.359625Z" fill="#231F20"/>
<path d="M191.32 0.419195C189.583 0.415857 187.845 0.412518 186.108 0.40918C183.667 6.94613 181.233 13.4881 178.806 20.03C180.745 20.015 181.715 20.0083 183.655 19.9933C185.381 15.3193 187.111 10.6453 188.844 5.97293C189.702 9.18799 190.562 12.4047 191.423 15.6198C190.277 15.6264 189.704 15.6298 188.558 15.6348C187.92 17.3675 187.6 18.2339 186.962 19.9683C190.765 19.9399 194.569 19.9115 198.371 19.8831C196.015 13.3979 193.665 6.9094 191.322 0.419195H191.32Z" fill="#231F20"/>
<path d="M83.7859 1.50309C83.7824 0.987283 83.7807 0.730212 83.7772 0.214401C81.8463 0.211063 80.8801 0.209393 78.9492 0.206055C78.9527 0.723535 78.9545 0.980606 78.958 1.49809C78.9912 6.40747 79.0244 11.3169 79.0576 16.2263C79.0698 18.0458 79.075 18.9555 79.0873 20.7734C84.1371 20.735 89.1853 20.6983 94.2351 20.6599C94.7017 20.6566 94.9341 20.6549 95.4006 20.6515C95.3884 18.847 95.3832 17.944 95.3709 16.1378C91.5425 16.1578 87.714 16.1795 83.8855 16.2012C83.8523 11.3035 83.8191 6.40414 83.7877 1.50643L83.7859 1.50309Z" fill="#231F20"/>
<path d="M98.1406 1.5196C98.1825 7.88795 98.2262 14.258 98.2681 20.6263C99.8722 20.6146 100.674 20.608 102.28 20.5963C102.747 20.5929 102.979 20.5913 103.446 20.5879C103.404 14.2346 103.36 7.88128 103.318 1.52628C103.315 1.01548 103.313 0.760077 103.309 0.249274C101.583 0.245935 99.8582 0.242596 98.1318 0.239258C98.1353 0.75173 98.1371 1.00713 98.1406 1.5196Z" fill="#231F20"/>
<path d="M107.412 1.53079C107.421 2.76106 107.424 3.37536 107.433 4.60563C109.655 4.60563 111.876 4.60563 114.099 4.60563C114.102 5.10474 114.104 5.35347 114.108 5.85092C114.141 10.7369 114.174 15.6213 114.206 20.5073C115.698 20.4956 116.444 20.4906 117.936 20.4789C118.473 20.4756 118.74 20.4723 119.276 20.4689C119.243 15.5946 119.21 10.7219 119.179 5.84758C119.175 5.35013 119.173 5.10141 119.17 4.60396C121.048 4.60396 122.927 4.60396 124.805 4.60396C125.265 4.60396 125.494 4.60396 125.951 4.60396C125.943 3.3837 125.939 2.77441 125.93 1.55583C125.927 1.05003 125.925 0.79797 125.922 0.292175L107.401 0.258789C107.405 0.769592 107.407 1.02332 107.41 1.53413L107.412 1.53079Z" fill="#231F20"/>
<path d="M129.406 1.55984C129.415 2.77675 129.418 3.38604 129.427 4.60296C131.65 4.60296 133.871 4.60296 136.093 4.60296C136.097 5.0954 136.098 5.34245 136.102 5.83656L136.2 20.3427C137.692 20.331 138.438 20.326 139.93 20.3143C140.467 20.311 140.734 20.3077 141.271 20.3043C141.237 15.4801 141.206 10.6558 141.173 5.83156C141.169 5.33911 141.167 5.09373 141.164 4.60129C143.042 4.60129 144.921 4.60129 146.799 4.60129C147.259 4.60129 147.488 4.60129 147.945 4.60129C147.937 3.39439 147.933 2.7901 147.925 1.58321C147.921 1.08242 147.919 0.832025 147.916 0.331237C141.742 0.319552 135.569 0.309537 129.396 0.297852C129.399 0.801978 129.401 1.05571 129.404 1.55984H129.406Z" fill="#231F20"/>
<path d="M201.191 1.64827C201.231 7.71615 201.273 13.784 201.313 19.8519C202.841 19.8402 203.604 19.8352 205.131 19.8235C205.598 19.8202 205.83 19.8185 206.297 19.8152C206.257 13.7623 206.215 7.7078 206.175 1.65495C206.171 1.16751 206.169 0.925467 206.166 0.438034C204.504 0.434695 202.842 0.431357 201.181 0.429688C201.184 0.917121 201.186 1.16251 201.189 1.64994L201.191 1.64827Z" fill="#231F20"/>
<path d="M224.054 11.2097C224.306 11.0928 224.432 11.0344 224.683 10.9176C224.912 10.7823 225.026 10.7139 225.255 10.5787C225.468 10.4134 225.575 10.3316 225.788 10.1664C225.985 9.98275 226.085 9.89094 226.282 9.70732C226.45 9.50367 226.532 9.40351 226.7 9.19985C226.761 9.11305 226.791 9.06965 226.852 8.98285C226.943 8.84763 226.988 8.77919 227.079 8.64565C227.086 8.62562 227.089 8.61727 227.098 8.59724C227.182 8.43365 227.222 8.35185 227.306 8.18659C227.336 8.13818 227.352 8.11481 227.381 8.06641C227.427 7.93119 227.449 7.86442 227.493 7.72921C227.539 7.62237 227.561 7.57063 227.607 7.46379C227.629 7.37699 227.64 7.33359 227.663 7.24678C227.708 7.08319 227.729 7.0014 227.774 6.83781V6.76603C227.802 6.57406 227.818 6.47724 227.848 6.2836C227.848 6.24521 227.848 6.22518 227.848 6.18678C227.855 6.03321 227.858 5.95475 227.865 5.80118C227.865 5.69434 227.865 5.64259 227.864 5.53576C227.864 5.45897 227.864 5.42058 227.864 5.34379C227.839 5.16017 227.827 5.07003 227.802 4.8864C227.771 4.72281 227.755 4.64102 227.724 4.47743C227.708 4.39062 227.699 4.34722 227.684 4.26042C227.661 4.19365 227.649 4.15859 227.626 4.09182C227.579 3.95661 227.556 3.88984 227.509 3.75462C227.493 3.70621 227.486 3.68284 227.47 3.63443C227.362 3.39406 227.308 3.2722 227.2 3.03182C227.06 2.8098 226.992 2.69963 226.852 2.47761C226.689 2.26561 226.609 2.15878 226.446 1.94678C226.261 1.75314 226.169 1.65799 225.985 1.46435C225.893 1.38757 225.847 1.34917 225.754 1.27072C225.655 1.18391 225.604 1.14051 225.505 1.05371C225.489 1.04369 225.482 1.03868 225.466 1.03034C225.244 0.875094 225.132 0.798307 224.909 0.643062C224.664 0.517866 224.54 0.454432 224.295 0.327566C224.042 0.220732 223.916 0.167314 223.663 0.0604795C219.223 0.052133 214.783 0.0454558 210.343 0.0371094C210.353 1.67135 210.366 3.30558 210.376 4.93982C210.409 9.8876 210.442 14.8354 210.476 19.7832C212.12 19.7715 213.762 19.7581 215.407 19.7464C215.389 17.0806 215.372 14.4147 215.352 11.7489C217.081 11.7422 217.944 11.7388 219.672 11.7338C220.855 14.3863 222.038 17.0372 223.223 19.688C225.066 19.6747 226.909 19.6613 228.751 19.648C227.186 16.8369 225.623 14.0241 224.063 11.2097H224.054ZM222.707 6.84281C222.686 7.0064 222.674 7.08987 222.653 7.25346C222.63 7.34026 222.62 7.38366 222.597 7.47047C222.567 7.5773 222.552 7.63072 222.522 7.73589C222.469 7.8711 222.443 7.93954 222.391 8.07475C222.368 8.12316 222.358 8.14653 222.335 8.19494C222.237 8.35853 222.188 8.442 222.089 8.60559C222.073 8.62562 222.066 8.63396 222.05 8.654C221.937 8.78921 221.879 8.85765 221.765 8.99286C221.598 8.99286 221.514 8.99286 221.344 8.99286C219.338 8.99787 217.33 9.00288 215.325 9.00622C215.314 7.37699 215.309 6.56237 215.297 4.93481C215.297 4.91478 215.297 4.90643 215.297 4.8864C215.297 4.72114 215.297 4.63935 215.293 4.47409C215.293 4.31884 215.293 4.24206 215.291 4.08681C215.291 3.9516 215.291 3.88316 215.29 3.74795C217.31 3.74795 219.328 3.74795 221.348 3.74795C221.501 3.88316 221.578 3.9516 221.732 4.08681C221.786 4.15358 221.812 4.18864 221.867 4.25541C221.937 4.34221 221.971 4.38562 222.04 4.47242C222.141 4.63601 222.19 4.71947 222.291 4.88306H222.31C222.387 5.06669 222.428 5.1585 222.504 5.34212C222.527 5.41891 222.539 5.4573 222.564 5.53576C222.595 5.64259 222.611 5.69434 222.642 5.80118C222.667 5.95642 222.679 6.03321 222.702 6.18678C222.709 6.22518 222.714 6.24521 222.721 6.2836C222.721 6.39044 222.721 6.44385 222.721 6.54902C222.721 6.63582 222.721 6.67922 222.721 6.76603C222.714 6.7944 222.711 6.80943 222.702 6.83781L222.707 6.84281Z" fill="#231F20"/>
</g>
<defs>
<clipPath id="clip0_6554_33931">
<rect width="262.454" height="21.0565" fill="white" transform="translate(0.375977 0.0351562)"/>
</clipPath>
</defs>
</svg>