<svg role="img" viewBox="0 0 24 24" xmlns="http://www.w3.org/2000/svg" fill="#ed1c24"><title>Kenya Airways</title><path d="M12.351 1.162c-2.631.027-5.383.984-7.714 2.887C-.336 8.111-1.486 15.005 2.05 19.384c3.17 3.924 9.036 4.533 13.795 1.685 3.581 2.005 6.059.742 7.062-.287C23.995 19.667 24 17.417 24 17.417s-2.3 1.858-4.97.994c3.594-4.112 4.133-9.915 1.008-13.784-1.88-2.332-4.705-3.496-7.687-3.465Zm1.76 1.747c2.279.027 4.33.865 5.676 2.525 2.625 3.24 1.631 8.508-2.11 12.301-2.17-1.5-5.161-4.15-6.31-5.153.194-.082 4.447-.538 6.486-3.365l.029.005c1.194-1.663.537-5.524-.217-4.355-.657 1.014-3.938 3.186-6.833 4.95 0 0 .705-1.86 1.31-3.364.604-1.505-2.118-.87-3.693-.063-.15.077-1.407.86-1.513 1.356.662-.115 1.044-.164.967 0-.077.163-.097.236-.155.366-.483 1.153-1.13 2.715-1.788 4.268-1.513 4.235-.754 6.148-.754 6.148l4.045.168s-1.015-.433-.584-2.764c.43-2.331 1.043-2.634 1.179-2.687.226.919 1.582 4.593 4.638 6.932-4.253 2.379-9.068 2.102-11.52-.933-2.86-3.543-1.42-9.512 3.224-13.329 2.467-2.027 5.34-3.037 7.923-3.006Z"/></svg>