<svg role="img" viewBox="0 0 24 24" xmlns="http://www.w3.org/2000/svg" fill="#009fd9"><title>KLM</title><path d="M11.636 7.188h.752v-.752h.744v-.752h-.744V4.93h-.752v.753h-.752v.752h.752zm4.873-.192c-.727 0-1.316.592-1.313 1.32a1.313 1.313 0 0 0 1.313 1.32c.721 0 1.312-.59 1.312-1.32a1.313 1.313 0 0 0-1.312-1.32m-9.003 4.528h9.003v-1.512H7.506ZM8.82 8.316c0-.729-.591-1.32-1.313-1.32-.727 0-1.316.593-1.312 1.32a1.313 1.313 0 1 0 2.625 0m3.377 0c0 .73.59 1.32 1.312 1.32.721 0 1.312-.59 1.312-1.32a1.313 1.313 0 0 0-1.312-1.32c-.721 0-1.312.59-1.312 1.32m-1.689 1.32c.722 0 1.313-.59 1.313-1.32 0-.729-.591-1.32-1.313-1.32-.727 0-1.316.593-1.312 1.32a1.313 1.313 0 0 0 1.312 1.32m9.755 3.4-1.128 3.4-1.128-3.4h-3.753v6.033H16.5V14.54l1.497 4.527h2.256l1.497-4.527v4.527H24v-6.04h-3.738zm-10.5 0H7.515v6.033h6.002v-1.52H9.763Zm-3.008 0H4.506L2.249 15.3v-2.264H0v6.033h2.25v-2.264l2.255 2.264h3.001l-3.377-3.4Z"/></svg>