<svg role="img" viewBox="0 0 24 24" xmlns="http://www.w3.org/2000/svg" fill="#1c285b"><title>Kuwait Airways</title><path d="M0 7.341c2.373 1.362 8.564 6.319 15.153 8.335.316.1.632.188.938.265 2.585.684 5.252.925 7.909.701-9.606-1.75-12.644-4.703-13.08-5.346-.049-.07-.07-.112-.07-.112-.028-.011 1.554-1.674 4.613-1.632 3.819.053 6.404 1.308 6.404 1.308a15.918 15.918 0 0 0-3.84-1.798c-.605-.2-1.222-.36-1.844-.477-.387-.083-.78-.142-1.178-.183-1.974-.224-3.447.242-4.674.708-1.15.436-2.634 1.255-4.603.341-.846-.394-1.435-.524-2.406-.406C1.79 8.355.633 7.548.055 7.276Z"/></svg>