<?xml version="1.0" encoding="utf-8"?>
<!-- Generator: Adobe Illustrator 23.0.3, SVG Export Plug-In . SVG Version: 6.00 Build 0)  -->
<svg version="1.1" id="Ebene_1" xmlns="http://www.w3.org/2000/svg" xmlns:xlink="http://www.w3.org/1999/xlink" x="0px" y="0px"
	 viewBox="0 0 397.77 237.18" style="enable-background:new 0 0 397.77 237.18;" xml:space="preserve">
<style type="text/css">
	.st0{display:none;fill:#981919;}
	.st1{fill:#E61842;}
</style>
<rect x="-17.78" y="-14.34" class="st0" width="452.15" height="264.89"/>
<path class="st1" d="M105.21,12.72H58.08L7.89,154.67c-6.31,17.73-3.67,37.54,7.07,52.99c10.74,15.45,28.39,24.84,47.3,25.1
	l121.74-0.45v-44.44l-121.22,0.46c-6.51-0.09-10.1-4.25-11.34-6.03c-1.24-1.78-3.89-6.59-1.68-12.78L105.21,12.72z"/>
<path class="st1" d="M191.99,145.9v-10.19c-12.29,1.66-16.3,5.17-16.3,9.58c0,3.76,2.58,5.6,6.69,5.6
	C186.3,150.89,188.92,148.95,191.99,145.9 M159.15,146.67c0-12.29,9.78-18.94,32.85-21.37c-0.35-5.1-2.89-8.43-9.22-8.43
	c-4.9,0-9.78,2.06-15.43,5.27l-6.14-11.35c7.4-4.52,15.74-7.68,24.91-7.68c14.91,0,23.17,8.52,23.17,26.39v33.34h-14.1l-1.24-5.97
	h-0.43c-4.91,4.31-10.41,7.38-16.97,7.38C165.9,164.25,159.15,156.49,159.15,146.67"/>
<path class="st1" d="M219.4,140.73v-36.21h17.28v34c0,8.39,2.25,11.02,7.24,11.02c4.34,0,7-1.83,10.37-6.42v-38.6h17.28v58.32h-14.1
	l-1.24-8.09h-0.43c-4.87,5.81-10.36,9.5-18.31,9.5C224.8,164.25,219.4,155.3,219.4,140.73"/>
<path class="st1" d="M318.19,144.89v-23.95c-3.06-2.74-6.48-3.69-9.65-3.69c-5.6,0-10.51,5.17-10.51,16.26
	c0,11.45,3.95,16.61,10.65,16.61C312.36,150.11,315.33,148.72,318.19,144.89 M280.33,133.7c0-19.07,11.91-30.59,24.19-30.59
	c6.43,0,10.36,2.39,14.3,6.08l-0.62-8.84V80.48h17.28v82.36h-14.1l-1.24-5.78h-0.43c-4.12,4.12-9.89,7.19-15.52,7.19
	C289.69,164.25,280.33,152.74,280.33,133.7"/>
<path class="st1" d="M375.94,145.9v-10.19c-12.29,1.66-16.3,5.17-16.3,9.58c0,3.76,2.59,5.6,6.69,5.6
	C370.24,150.89,372.87,148.95,375.94,145.9 M343.09,146.67c0-12.29,9.78-18.94,32.85-21.37c-0.35-5.1-2.89-8.43-9.22-8.43
	c-4.9,0-9.78,2.06-15.43,5.27l-6.14-11.35c7.4-4.52,15.74-7.68,24.91-7.68c14.91,0,23.17,8.52,23.17,26.39v33.34h-14.1l-1.24-5.97
	h-0.43c-4.91,4.31-10.41,7.38-16.97,7.38C349.84,164.25,343.09,156.49,343.09,146.67"/>
<polygon class="st1" points="104.15,86.22 121.47,86.22 121.47,148.31 151.71,148.31 151.71,162.84 104.15,162.84 "/>
</svg>
