<?xml version="1.0" encoding="UTF-8" standalone="no"?>
<!DOCTYPE svg PUBLIC "-//W3C//DTD SVG 1.1//EN" "http://www.w3.org/Graphics/SVG/1.1/DTD/svg11.dtd">
<svg width="100%" height="100%" viewBox="0 0 215 210" version="1.1" xmlns="http://www.w3.org/2000/svg" xmlns:xlink="http://www.w3.org/1999/xlink" xml:space="preserve" xmlns:serif="http://www.serif.com/" style="fill-rule:evenodd;clip-rule:evenodd;stroke-miterlimit:2.613;">
    <g transform="matrix(4.166667,0,0,4.166667,0,0)">
        <g id="airlines-logo" transform="matrix(1,0,0,1,-173.649185,-55.617185)">
            <g id="Ellipse_339" transform="matrix(1,0,0,1,176.445,58.415)">
                <ellipse cx="23.002" cy="22.391" rx="23.002" ry="22.391" style="fill:white;"/>
            </g>
            <g id="Path_23932" transform="matrix(1,0,0,1,-99.373,-1.117)">
                <path d="M298.82,60.416C286.651,60.416 276.726,70.077 276.726,81.922C276.726,93.767 286.651,103.429 298.82,103.429C310.989,103.429 320.914,93.768 320.914,81.922C320.914,70.076 310.989,60.416 298.82,60.416ZM298.82,59.532C311.489,59.532 321.82,69.59 321.82,81.922C321.82,94.254 311.487,104.313 298.82,104.313C286.153,104.313 275.82,94.255 275.82,81.922C275.82,69.589 286.151,59.532 298.82,59.532Z" style="fill:rgb(203,154,81);stroke:rgb(203,154,81);stroke-width:2px;"/>
            </g>
            <g id="Path_23933" transform="matrix(1,0,0,1,-102.441,-12.643)">
                <path d="M301.485,84.018L289.929,89.753L289.929,85.9L282.336,93.286L289.475,93.286L301.13,87.536L318.13,101.315L321.3,101.315L321.3,98.409L319.2,98.409L301.485,84.018Z" style="fill:rgb(111,47,57);"/>
            </g>
            <g id="Line_15" transform="matrix(1,0,0,1,201.085,76.303)">
                <path d="M0.056,0.11L0,0" style="fill:none;fill-rule:nonzero;stroke:rgb(26,24,24);stroke-width:0.22px;"/>
            </g>
            <g id="Line_16" transform="matrix(1,0,0,1,209.097,83.242)">
                <path d="M0,0.039L0.078,0" style="fill:none;fill-rule:nonzero;stroke:rgb(26,24,24);stroke-width:0.22px;"/>
            </g>
            <g id="Group_64" transform="matrix(1,0,0,1,179.792,65.785)">
                <g id="Path_23934" transform="matrix(1,0,0,1,-282.142,-73.456)">
                    <path d="M301.58,73.569C298.187,73.837 285.104,80.385 282.142,87.706L290.242,79.5C291.242,78.775 297.27,74.466 302.05,73.456L301.58,73.569Z" style="fill:rgb(26,24,24);"/>
                </g>
                <g id="Group_63" transform="matrix(1,0,0,1,3.681,11.805)">
                    <g id="Path_23935" transform="matrix(1,0,0,1,-289.097,-95.968)">
                        <path d="M289.1,96.745C289.92,97.48 291.174,97.485 292,96.758C291.181,96.021 289.926,96.016 289.1,96.745Z" style="fill:rgb(26,24,24);"/>
                    </g>
                    <g id="Path_23936" transform="matrix(1,0,0,1,-289.103,-95.76)">
                        <path d="M289.11,96.536C289.943,95.838 291.169,95.838 292.002,96.536C291.681,96.051 291.137,95.759 290.556,95.759C289.975,95.759 289.431,96.051 289.11,96.536Z" style="fill:white;"/>
                    </g>
                    <g id="Path_23937" transform="matrix(1,0,0,1,-289.099,-96.459)">
                        <path d="M291.994,97.247C291.161,97.945 289.934,97.945 289.101,97.247C289.422,97.732 289.966,98.025 290.548,98.025C291.129,98.025 291.673,97.732 291.994,97.247Z" style="fill:white;"/>
                    </g>
                </g>
            </g>
            <g id="Path_23938" transform="matrix(1,0,0,1,-102.382,-23.742)">
                <path d="M310.012,109.5L289.865,109.5L289.865,107.6L282.211,110.947L289.864,114.317L289.864,112.417L310.012,112.417L310.012,109.5Z" style="fill:rgb(111,47,57);"/>
            </g>
            <g id="Path_23939" transform="matrix(1,0,0,1,-112.373,-17.894)">
                <path d="M331.236,97.08L311.089,97.08L311.089,95.173L303.435,98.52L311.088,101.891L311.088,99.991L331.236,99.991L331.236,97.08Z" style="fill:rgb(111,47,57);"/>
            </g>
        </g>
    </g>
</svg>
