<?xml version="1.0" encoding="UTF-8" standalone="no"?>
<!DOCTYPE svg PUBLIC "-//W3C//DTD SVG 1.1//EN" "http://www.w3.org/Graphics/SVG/1.1/DTD/svg11.dtd">
<svg width="100%" height="100%" viewBox="0 0 267 203" version="1.1" xmlns="http://www.w3.org/2000/svg" xmlns:xlink="http://www.w3.org/1999/xlink" xml:space="preserve" xmlns:serif="http://www.serif.com/" style="fill-rule:evenodd;clip-rule:evenodd;stroke-linejoin:round;stroke-miterlimit:2;">
    <g transform="matrix(4.166667,0,0,4.166667,0,0)">
        <g id="lw-logo" transform="matrix(1,0,0,1,-368.384,-251.968256)">
            <g id="Path_138" transform="matrix(1,0,0,1,-124.197,-22.804)">
                <path d="M517.862,320.554C513.189,320.243 508.744,318.408 505.212,315.332C504.012,315.399 502.816,315.499 501.625,315.632C506.205,320.514 512.609,323.288 519.304,323.288C532.005,323.288 542.662,313.306 543.492,300.632L543.492,300.609C542.559,301.362 541.575,302.048 540.546,302.663C538.68,313.494 528.829,321.262 517.861,320.55" style="fill:rgb(8,101,173);fill-rule:nonzero;"/>
            </g>
            <g id="Path_139" transform="matrix(1,0,0,1,-118.377,0)">
                <path d="M491.948,274.8C492.674,263.535 502.143,254.657 513.431,254.657C518.663,254.657 523.719,256.564 527.648,260.019C528.766,259.853 529.882,259.672 530.995,259.477C526.422,254.684 520.078,251.968 513.454,251.968C500.154,251.968 489.21,262.912 489.21,276.212C489.21,277.994 489.406,279.77 489.795,281.508C490.369,280.011 491.084,278.571 491.929,277.208C491.89,276.408 491.896,275.607 491.946,274.808" style="fill:rgb(8,101,173);fill-rule:nonzero;"/>
            </g>
            <g id="Path_140" transform="matrix(1,0,0,1,-116.212,-11.642)">
                <path d="M487.353,301.354C487.533,301.208 487.696,301.043 487.873,300.893C487.946,300.831 488.015,300.764 488.089,300.701C488.134,300.662 488.177,300.622 488.222,300.583C488.68,300.183 489.145,299.793 489.584,299.373C489.612,299.347 489.643,299.323 489.671,299.296C489.951,299.03 490.223,298.771 490.489,298.496L490.496,298.496C490.72,298.279 490.938,298.046 491.163,297.821C491.286,297.711 491.387,297.585 491.503,297.47C491.743,297.235 491.987,297.004 492.203,296.75C493.015,295.919 493.788,295.05 494.54,294.167C495.329,293.239 496.095,292.29 496.857,291.339C497.234,290.864 497.6,290.376 497.966,289.89C498.813,288.877 499.605,287.82 500.394,286.761C501.094,285.95 501.761,285.111 502.527,284.37C503.235,283.652 503.954,282.958 504.703,282.296C507.204,280.014 510.073,278.172 513.188,276.847C513.127,276.821 513.062,276.807 512.996,276.804C512.805,276.806 512.615,276.84 512.435,276.904C511.404,277.195 510.372,277.504 509.353,277.831C509.009,277.941 508.667,278.06 508.325,278.176C507.597,278.421 506.874,278.68 506.157,278.953C504.672,279.51 503.218,280.147 501.801,280.861C500.945,281.256 500.114,281.704 499.314,282.203C498.322,282.773 497.373,283.414 496.474,284.121C495.058,285.193 493.795,286.453 492.719,287.866C491.601,289.343 490.657,290.943 489.906,292.636C489.782,292.914 489.651,293.189 489.537,293.471C489.137,294.352 488.789,295.257 488.481,296.171C488.472,296.202 488.46,296.231 488.445,296.259L488.445,296.266L488.338,296.549C487.932,297.626 487.538,298.713 487.059,299.756C486.987,299.93 486.906,300.099 486.816,300.264C486.793,300.313 486.766,300.364 486.743,300.408C486.659,300.582 486.573,300.754 486.48,300.924C486.469,300.947 486.455,300.969 486.438,300.988C486.384,301.088 486.322,301.188 486.263,301.288C486.191,301.412 486.123,301.539 486.048,301.658C485.81,302.014 485.547,302.351 485.26,302.669C485.037,302.926 484.809,303.178 484.596,303.442C484.973,303.184 485.329,302.899 485.696,302.627C486.047,302.367 486.408,302.12 486.749,301.846C486.954,301.688 487.16,301.521 487.359,301.346" style="fill:rgb(140,140,140);fill-rule:nonzero;"/>
            </g>
            <g id="Path_141" transform="matrix(1,0,0,1,-117.423,-3.099)">
                <path d="M546.628,260.573C546.177,260.809 545.723,261.041 545.267,261.268C542.261,262.673 539.138,263.815 535.935,264.681C535.514,264.803 535.094,264.918 534.675,265.025C533.668,265.28 532.656,265.525 531.638,265.73L531.628,265.774L531.537,265.79L529.716,266.119L529.59,266.141C528.626,266.312 527.662,266.477 526.696,266.63C525.848,266.764 524.996,266.89 524.143,266.987C521.242,267.204 518.388,267.841 515.669,268.876C512.102,270.428 508.945,272.791 506.45,275.776C504.229,278.199 502.47,280.991 500.35,283.504C499.194,284.904 497.95,286.228 496.679,287.52C496.079,288.131 495.479,288.749 494.86,289.338C494.485,289.681 494.11,290.016 493.729,290.35C493.668,290.403 493.604,290.45 493.543,290.506C493.026,290.961 492.496,291.406 491.96,291.84C491.838,291.94 491.724,292.04 491.602,292.14L491.562,292.169C491.311,292.369 491.045,292.549 490.791,292.744C490.609,292.883 490.424,293.018 490.24,293.154C489.893,293.411 489.558,293.684 489.2,293.929L489.19,293.936C488.899,294.141 488.601,294.339 488.296,294.529C487.929,294.767 487.554,294.997 487.171,295.219C487.588,295.141 487.999,295.033 488.4,294.896L488.407,294.896C488.775,294.785 489.15,294.668 489.529,294.588C489.546,294.581 489.564,294.577 489.582,294.577C489.614,294.565 489.648,294.558 489.682,294.554C490.397,294.374 491.118,294.233 491.841,294.108C492.141,294.055 492.441,293.999 492.749,293.955L492.779,293.955C493.779,293.804 494.779,293.691 495.779,293.605C498.737,293.352 501.724,293.335 504.679,293.279C507.143,293.315 509.616,293.314 512.079,293.132C516.183,292.756 520.104,291.255 523.41,288.795C523.937,288.405 524.451,287.995 524.941,287.562C525.654,286.943 526.322,286.275 526.941,285.562C525.233,286.196 523.478,286.694 521.692,287.051C519.867,287.416 518.024,287.683 516.17,287.851C512.782,288.08 509.381,288.1 506.002,288.429C505.642,288.465 505.281,288.486 504.92,288.529C504.53,288.516 504.139,288.54 503.753,288.601C503.424,288.654 503.091,288.684 502.758,288.692C503.642,287.6 504.794,286.755 506.102,286.241C506.608,286.044 507.136,285.912 507.675,285.848C512.649,285.211 517.699,285.223 522.652,284.329C523.029,284.274 523.404,284.205 523.778,284.136C524.325,284.036 524.869,283.921 525.409,283.789C526.442,283.539 527.46,283.232 528.459,282.87C529.586,282.43 530.67,281.887 531.697,281.249C532.599,280.687 533.464,280.068 534.286,279.395C534.422,279.285 534.564,279.184 534.698,279.072C535.182,278.672 535.653,278.243 536.108,277.816L536.293,277.633C536.679,277.246 537.057,276.85 537.43,276.449C537.925,275.919 538.409,275.38 538.869,274.82C538.969,274.699 539.069,274.571 539.169,274.442C539.201,274.409 539.231,274.373 539.258,274.336C539.445,274.109 539.619,273.873 539.792,273.636C539.822,273.604 539.847,273.568 539.866,273.529C539.882,273.523 539.883,273.515 539.883,273.508C540.13,273.172 540.37,272.836 540.595,272.483C540.312,272.674 540.031,272.851 539.741,273.034C539.374,273.257 538.992,273.479 538.611,273.686C537.717,274.182 536.797,274.629 535.855,275.025C535.702,275.092 535.542,275.145 535.388,275.209C535.255,275.265 535.119,275.315 534.988,275.368C534.628,275.511 534.271,275.668 533.906,275.794C533.09,276.086 532.26,276.34 531.426,276.578C530.995,276.701 530.562,276.82 530.126,276.931C528.665,277.302 527.188,277.609 525.711,277.86C522.484,278.275 519.261,278.694 516.043,279.115C515.527,279.168 515.011,279.24 514.495,279.315C513.775,279.415 513.053,279.515 512.333,279.585C512.06,279.619 511.79,279.639 511.518,279.658C512.366,278.573 513.445,277.69 514.675,277.072C515.65,276.566 516.69,276.196 517.766,275.972C520.766,275.323 523.807,274.941 526.821,274.361C528.106,274.12 529.39,273.853 530.674,273.561C531.481,273.377 532.289,273.192 533.089,272.973L533.17,272.95C533.326,272.904 533.482,272.862 533.639,272.815C534.128,272.675 534.617,272.528 535.1,272.365C536.05,272.053 536.98,271.703 537.9,271.314L537.951,271.291C538.218,271.175 538.473,271.058 538.734,270.941C538.813,270.909 538.889,270.868 538.96,270.821C538.981,270.815 539.002,270.807 539.021,270.795C539.059,270.776 539.094,270.754 539.132,270.734C542.965,268.73 546.155,265.683 548.332,261.946C548.385,261.858 548.432,261.766 548.481,261.678C548.708,261.288 548.93,260.894 549.14,260.492C549.491,259.9 549.739,259.253 549.874,258.578C548.853,259.332 547.769,259.998 546.635,260.569" style="fill:rgb(8,101,173);fill-rule:nonzero;"/>
            </g>
        </g>
    </g>
</svg>
