<?xml version="1.0" encoding="UTF-8" standalone="no"?><!DOCTYPE svg PUBLIC "-//W3C//DTD SVG 1.1//EN" "http://www.w3.org/Graphics/SVG/1.1/DTD/svg11.dtd"><svg width="100%" height="100%" viewBox="0 0 107 122" version="1.1" xmlns="http://www.w3.org/2000/svg" xmlns:xlink="http://www.w3.org/1999/xlink" xml:space="preserve" xmlns:serif="http://www.serif.com/" style="fill-rule:evenodd;clip-rule:evenodd;stroke-linejoin:round;stroke-miterlimit:2;"><path d="M94.307,30.419c-0.264,1.161 -1.319,2.69 -1.846,3.693c-0.334,-0.246 -0.879,-0.967 -1.284,-1.389c-0.528,-0.545 -0.826,-1.037 -1.178,-1.688c0.914,0 1.635,-0.053 2.286,-0.176c0.932,-0.158 1.231,-0.387 2.022,-0.44Zm-26.974,74.485c-0.106,-0.721 -0.246,-1.618 -0.369,-2.532c0.774,-0.053 1.547,-0.106 2.321,-0.158l0.07,0c1.266,-0.088 3.394,-0.404 6.946,-2.268c2.163,-1.143 5.17,-4.185 6.559,-6.154c2.216,-3.165 3.394,-7.121 3.394,-11.183l0,-0.193c0,-1.055 -0.106,-2.092 -0.264,-3.095c-0.018,-0.07 -0.018,-0.158 -0.035,-0.229l-0.018,-0.053c-0.317,-1.846 -0.897,-3.675 -1.758,-5.433c-2.479,-5.117 -7.245,-8.704 -12.643,-10.146c-1.108,-0.299 -2.251,-0.51 -3.411,-0.615l-0.193,-0.018l-0.176,-0.018c-3.235,-0.246 -6.559,0.281 -9.654,1.688c-0.299,0.141 -0.58,0.264 -0.844,0.404c-2.374,1.196 -4.466,2.866 -6.172,4.853l-0.035,0.053l-0.334,-0.158c-6.154,-2.954 -15.228,-20.081 -17.373,-27.87c-2.655,-9.636 -4.343,-26.024 -2.18,-36.012c0.334,-1.547 0.756,-3.728 0.914,-4.484c-6.242,-3.956 -14.841,1.424 -15.808,13.645c-1.565,19.694 10.515,40.285 24.6,52.523c2.04,1.776 3.605,2.919 4.73,3.798l3.024,2.198c-0.44,0.844 -0.826,1.741 -1.143,2.655c-2.163,-1.284 -4.079,-2.497 -6.436,-4.273c-2.057,-1.53 -3.939,-2.972 -5.855,-4.589c-4.238,-3.622 -6.453,-6.119 -10.304,-10.585c-4.765,-5.521 -12.942,-19.307 -13.364,-28.855c-9.249,-1.231 -14.999,16.247 2.321,32.196c11.218,10.339 18.586,13.452 32.811,19.413c-0.123,0.721 -0.193,1.442 -0.229,2.18l-0.018,0.193c-2.286,0.193 -10.814,-2.532 -13.241,-3.411c-22.279,-8.089 -27.466,-17.76 -30.051,-20.485c-3.64,2.585 -4.238,10.04 -1.02,14.348c5.451,7.297 17.285,11.5 26.516,12.537c5.732,0.651 10.146,0.932 15.896,0.686l2.11,-0.193c0.141,0.985 0.352,1.952 0.615,2.884l-0.317,0.07l-0.387,0.088l-0.018,0c-12.115,2.479 -21.716,1.952 -33.304,-1.758c-3.306,-1.055 -7.579,-3.587 -8.124,-3.886c-1.037,0.862 -3.007,15.614 17.091,15.773c5.047,0.035 10.111,-0.95 14.454,-2.339c4.097,-1.319 7.825,-2.919 11.975,-4.519c0.404,0.774 0.844,1.512 1.354,2.233l-0.58,0.528c-0.123,0.141 -0.281,0.264 -0.44,0.404c-2.778,2.374 -9.618,5.275 -13.153,6.418c-7.913,2.55 -11.394,2.145 -19.254,1.231c0.95,10.445 12.66,9.179 19.307,6.559c6.735,-2.655 11.201,-7.684 16.16,-12.643c0.563,0.58 1.161,1.125 1.794,1.635c-0.422,0.95 -0.897,1.741 -1.442,2.55c-2.884,4.203 -10.04,9.654 -14.278,11.588c-4.361,1.987 -6.858,2.11 -7.508,2.233c0.404,2.725 3.253,4.203 6.594,4.185c10.023,-0.088 16.529,-12.907 18.358,-16.599l1.037,-2.075c0.668,0.387 1.372,0.721 2.092,1.02l-0.756,2.497c-0.035,0.106 -0.07,0.229 -0.106,0.352l0,0.018c-0.44,1.372 -1.266,3.183 -2.638,5.486c-5.099,8.581 -9.724,9.882 -10.251,10.146c1.161,2.04 4.712,2.585 7.385,1.495c6.524,-2.638 7.508,-12.274 8.651,-17.689l0.281,-1.459c0.703,0.193 1.407,0.334 2.145,0.44l0.018,0.088c1.196,11.271 -3.851,16.705 -4.167,17.232c3.464,0.598 6.471,-0.035 8.071,-2.673c1.547,-2.55 0.809,-6.858 0.422,-9.97c3.517,-0.123 7.614,-1.319 10.287,-2.198c8.493,-2.831 14.12,-10.058 16.458,-18.498c0.229,-0.809 0.58,-1.635 0.774,-2.497c1.354,0 2.866,-0.141 2.866,-1.846c0,-0.369 -0.334,-1.477 -0.51,-1.758c-0.528,-0.844 -2.778,-2.268 -2.778,-4.607c0,-0.51 0.299,-1.354 0.404,-1.846c1.108,-0.088 2.673,-1.231 2.673,-2.462c0,-1.846 -3.13,-2.813 -4.273,-3.939c-1.125,-1.125 -2.514,-3.956 -2.514,-5.697c0,-1.055 -0.528,-3.693 1.02,-3.693c1.635,0 8.212,3.359 8.212,-6.77c-2.567,1.231 -4.431,2.057 -7.016,0.035c-3.024,-2.356 -0.51,-10.498 5.17,-10.498c1.231,0 2.11,0.264 2.725,0.967c0.545,0.615 0.932,1.881 0.967,2.937c1.143,-0.756 1.969,-1.758 2.813,-2.919c0.51,-0.703 1.495,-3.376 1.495,-4.466c0,-0.756 -0.387,-1.02 -0.334,-1.618c0.088,-0.967 1.424,-2.251 -0.264,-3.323c-1.336,-0.844 -3.974,0.721 -8.493,-1.547c-0.598,-0.299 -1.248,-0.756 -1.776,-0.897c0.018,-1.143 0.404,-1.319 0.404,-2.462c0,-1.794 -5.592,-4.044 -7.508,-5.222c-1.336,-0.826 -2.567,-1.67 -3.622,-2.725c-1.477,-1.495 -2.198,-2.708 -2.391,-3.499c-0.299,-0.141 -0.58,-0.246 -1.037,-0.246c-1.688,0 -2.954,1.284 -3.288,2.673c-0.369,-0.387 -0.651,-0.668 -1.178,-1.02c-0.528,-0.369 -1.108,-0.668 -1.635,-0.897c-3.781,-1.618 -6.295,-1.706 -10.322,-3.833c-1.495,1.002 -2.743,2.62 -2.251,4.712c-1.899,-1.002 -3.605,-0.826 -5.644,-0.528c-1.231,0.176 -5.152,0.721 -6.154,0.651c-0.985,0 -2.356,-0.176 -3.165,-0.334c-0.088,1.143 -0.615,2.075 -0.615,3.482c0,1.389 0.422,2.268 0.615,2.673c-2.321,0 -3.482,0.018 -5.345,0.387c-1.934,0.387 -3.359,0.492 -5.31,0.422c-0.58,2.462 -0.668,3.693 0.651,6.119c0.475,0.879 1.547,2.462 2.005,2.919c-1.02,0.352 -2.866,0.703 -3.904,0.826c0,2.901 1.248,6.998 2.005,9.689c2.233,7.983 6.172,14.647 11.131,21.083c0.492,0.633 0.95,1.161 1.442,1.635c0.51,-0.492 0.879,-0.809 1.442,-1.231c4.642,-3.605 9.056,-5.134 15.386,-5.134c3.007,0 6.699,1.073 8.757,2.11c2.778,1.407 4.396,2.514 6.471,4.607c2.954,2.954 4.783,6.488 5.82,10.603c2.128,8.352 -0.844,18.287 -7.842,23.334c-1.231,0.879 -2.356,1.53 -3.745,2.233c-2.216,1.108 -6.207,2.145 -9.355,2.251l-0.088,-0.035Zm3.992,-77.158c0,0.774 0.721,2.163 0.404,2.251c-1.653,-0.141 -2.462,-1.723 -2.462,-3.482c0,-3.341 6.172,-4.501 7.174,-0.211c-0.739,-0.369 -2.216,-0.826 -3.077,-0.826c-0.985,0 -2.057,1.284 -2.057,2.251l0.018,0.018Z" style="fill:#fb0102;"/></svg>