<svg role="img" viewBox="0 0 24 24" xmlns="http://www.w3.org/2000/svg" fill="#252668"><title>LOT Polish Airlines</title><path d="M12 0C5.38 0 0 5.38 0 12s5.38 12 12 12 12-5.38 12-12S18.62 0 12 0Zm0 .8c1.223 0 2.398.2 3.5.563l-3.121 6.278-3 6-8.152 1.418A11.178 11.178 0 0 1 .8 12C.8 5.82 5.82.8 12 .8Zm4.418.907C20.404 3.423 23.199 7.389 23.199 12c0 6.18-5.019 11.2-11.199 11.2-5.061 0-9.341-3.368-10.727-7.981h7.849l7.077 6.96c.4-.42.64-.977.64-1.577 0-.7-.319-1.342-.859-1.762l-4.718-3.621h11.437c.02-.08.062-.178.082-.278a1.78 1.78 0 0 1-1.402-.863h-2.7l.2.281h.922l.46.582H15.18c0-.08-.02-.18-.02-.28-.16-1-1.12-1.7-2.12-1.54l-1.821.277 5.402-9c.2-.36.32-.779.32-1.199 0-.554-.19-1.078-.523-1.492z"/></svg>