<?xml version="1.0" encoding="UTF-8" standalone="no"?>
<!DOCTYPE svg PUBLIC "-//W3C//DTD SVG 1.1//EN" "http://www.w3.org/Graphics/SVG/1.1/DTD/svg11.dtd">
<svg width="100%" height="100%" viewBox="0 0 364 363" version="1.1" xmlns="http://www.w3.org/2000/svg" xmlns:xlink="http://www.w3.org/1999/xlink" xml:space="preserve" xmlns:serif="http://www.serif.com/" style="fill-rule:evenodd;clip-rule:evenodd;stroke-linejoin:round;stroke-miterlimit:2;">
    <g transform="matrix(4.166667,0,0,4.166667,0,0)">
        <g id="layer1" transform="matrix(3.779528,0,0,3.779528,-407.958336,-6.180063)">
            <path id="path2380" d="M125.172,10.488L130.372,5.29C131.209,4.456 131.209,3.099 130.372,2.262C129.536,1.426 128.184,1.428 127.345,2.262L122.146,7.461L116.948,2.262C116.116,1.427 114.759,1.425 113.924,2.262C113.091,3.099 113.094,4.453 113.924,5.287L119.124,10.484L113.924,15.686C113.09,16.518 113.085,17.869 113.924,18.707C114.763,19.543 116.112,19.543 116.948,18.707L122.148,13.503L127.348,18.704C128.184,19.541 129.54,19.541 130.372,18.704C131.209,17.867 131.209,16.51 130.372,15.678" style="fill:rgb(35,31,32);fill-rule:nonzero;"/>
            <path id="path2382" d="M111.697,4.228L107.994,7.924C107.921,7.997 107.921,8.114 107.994,8.191C108.031,8.225 108.079,8.247 108.128,8.247C108.175,8.247 108.224,8.226 108.26,8.191L111.961,4.492C112.035,4.417 112.035,4.301 111.961,4.229C111.89,4.155 111.77,4.155 111.697,4.229" style="fill:rgb(35,31,32);fill-rule:nonzero;"/>
            <path id="path2384" d="M128.161,20.653L124.457,24.35C124.386,24.423 124.386,24.54 124.457,24.616C124.494,24.654 124.546,24.672 124.592,24.672C124.64,24.672 124.686,24.654 124.726,24.616L128.424,20.918C128.5,20.843 128.5,20.727 128.424,20.653C128.351,20.581 128.233,20.581 128.161,20.653" style="fill:rgb(35,31,32);fill-rule:nonzero;"/>
        </g>
    </g>
</svg>
