<?xml version="1.0" encoding="UTF-8" standalone="no"?>
<!DOCTYPE svg PUBLIC "-//W3C//DTD SVG 1.1//EN" "http://www.w3.org/Graphics/SVG/1.1/DTD/svg11.dtd">
<svg width="100%" height="100%" viewBox="0 0 639 639" version="1.1" xmlns="http://www.w3.org/2000/svg" xmlns:xlink="http://www.w3.org/1999/xlink" xml:space="preserve" xmlns:serif="http://www.serif.com/" style="fill-rule:evenodd;clip-rule:evenodd;stroke-linejoin:round;stroke-miterlimit:2;">
    <g transform="matrix(4.166667,0,0,4.166667,0,0)">
        <g id="g3009" transform="matrix(5.114792,0,0,-5.114792,90.774223,16.736623)">
            <path id="path3011" d="M0,0L-13.769,-16.562C-13.911,-16.719 -13.965,-16.905 -13.9,-17.05C-13.835,-17.207 -13.694,-17.302 -13.496,-17.302L7.781,-17.307C7.971,-17.307 8.106,-17.143 8.106,-16.964C8.106,-16.778 8.018,-16.667 7.83,-16.623C7.064,-16.444 2.886,-15.54 -0.116,-14.63C-1.976,-14.067 -2.704,-12.469 -2.218,-10.336C-1.684,-7.971 0.586,-0.375 0.593,-0.353C0.647,-0.196 0.612,0 0.448,0.078C0.267,0.174 0.108,0.13 0,0" style="fill:rgb(0,171,191);fill-rule:nonzero;"/>
        </g>
        <g id="g3013" transform="matrix(5.114792,0,0,-5.114792,76.701425,0)">
            <path id="path3015" d="M0,0C8.239,0 14.942,-6.709 14.942,-15.008C14.942,-23.234 8.239,-29.95 0,-29.95C-8.291,-29.95 -14.996,-23.234 -14.996,-15.008C-14.996,-6.709 -8.291,0 0,0M0,-1.826C-7.272,-1.826 -13.168,-7.721 -13.168,-15.008C-13.168,-22.271 -7.272,-28.168 0,-28.168C7.271,-28.168 13.17,-22.271 13.17,-15.008C13.17,-7.672 7.271,-1.826 0,-1.826" style="fill:rgb(0,171,191);fill-rule:nonzero;"/>
        </g>
    </g>
</svg>
