<?xml version="1.0" encoding="UTF-8" standalone="no"?>
<svg
   width="330pt"
   height="61pt"
   viewBox="0 0 330 61"
   version="1.1"
   id="svg7"
   xmlns:sodipodi="http://sodipodi.sourceforge.net/DTD/sodipodi-0.dtd"
   xmlns="http://www.w3.org/2000/svg"
   xmlns:svg="http://www.w3.org/2000/svg">
  <defs
     id="defs11" />
  <g
     id="surface1">
    <path
       style="fill:#bd193a;fill-opacity:1;fill-rule:evenodd;stroke:none"
       d="m 148.86133,1.5802765 c -6.4375,3.464844 -17.28906,20.5859375 -18.4375,22.5312505 -3.05469,5.097656 -10.70703,16.085937 -17.23438,19.910156 -4.16796,2.433594 -5.64843,-0.621094 -2.41406,-5.390625 2.02735,-3.003906 4.66016,-3.582031 4.66016,-4.953125 0,-3.808594 -3.54297,-4.480469 -5.92188,-3.019531 -0.92968,0.570312 -1.4375,0.589844 -3.08984,2.082031 -1.16016,-2.554687 -4.15625,-4.34375 -7.414067,-4.34375 -1.08203,0 -2.51563,0.515625 -4.09766,1.402344 v 5.574219 c 0.67578,-0.390625 1.37891,-0.734375 2.09375,-1.027344 3.554697,-1.429688 5.687507,-1.890625 2.25781,1.710937 -1.26562,1.332032 -2.76562,2.667969 -4.35156,3.800782 v 8.75 c 2.11719,-0.976563 3.83203,-1.914063 5.347667,-2.441407 1.92578,7.410157 7.18359,6.625 12.03515,3.378907 4.41407,-2.933594 9.96875,-7.421875 11.67578,-8.597657 -0.0156,11.773438 5.22657,13.480469 13.5586,8.945313 1.82422,1.261719 2.80859,2.605469 5.91797,2.605469 h 1.6914 c 0.82422,0 2.23047,-0.507813 3.72266,-1.183594 v -7.210938 c -0.33594,0.46875 -0.69141,0.914063 -1.04688,1.328125 -2.28515,2.660157 -4.28906,2.0625 -3.11328,-1.757812 0.78907,-2.582031 2.26563,-5.105469 4.16016,-7.054688 v -7.011718 c -4.91797,3.484375 -11.17578,11.4375 -11.97656,14.980468 -8.90235,3.230469 -4.39063,-7.375 -2.65235,-11.894531 2.77344,-7.214844 7.53516,-15.386719 12.49219,-17.925781 0.48438,-0.25 1.27734,-0.796875 2.13672,-1.5 z m 2.375,38.8085945 v 9.769531 c -0.76172,0.402344 -1.57813,0.804687 -2.375,1.15625 v -7.210938 c 0.85937,-1.144531 1.66016,-2.425781 2.375,-3.714843 z m 0,-12.132813 v 6.328125 c -0.64063,0.417969 -1.36719,1.03125 -2.09766,1.75 -0.0859,0.09766 -0.18359,0.179688 -0.27734,0.285156 v -7.011718 c 0.83984,-0.597657 1.65234,-1.0625 2.375,-1.351563 z m 0,-27.2460945 V 11.076371 c -0.75391,0.800781 -1.59375,1.5625 -2.375,2.191406 V 1.5802765 c 0.89453,-0.472656 1.69141,-0.68359399 2.375,-0.570313 z M 94.912103,29.799027 v 5.574219 c -1.80469,1.058593 -3.44531,2.453125 -4.72266,4.039062 -2.49609,3.074219 -1.35156,3.84375 1.75,2.265625 1.00391,-0.503906 2.00782,-1.125 2.97266,-1.820312 v 8.75 c -1.81641,0.851562 -3.92578,1.726562 -6.48437,2.425781 -4.55469,1.214844 -12.375,2.539062 -16.91797,0.664062 -5.35938,-2.210937 -6.38282,-8.796875 -5.67969,-15.234375 0.44922,-4.097656 1.81641,-6.191406 -2.37109,-3.152343 -5.82813,4.210937 -15.53516,12.746093 -21.82813,16.757812 -7.48828,4.785156 -15.05078,1.105469 -12.65234,-8.449219 0.6914,-2.75 1.77734,-4.761718 2.77734,-7.113281 1.95703,-4.625 2.37109,-5.761719 -2.30469,-2.730469 -9.23047,6.011719 -14.39843,16.726563 -19.4648399,25.0625 -1.7656248,2.910157 -3.5585938,4.484375 -6.8789058,3.566407 -1.414063,-0.386719 -2.78515599,-0.992188 -2.78515599,-2.074219 0,-4.28125 24.92187169,-44.757813 33.58593169,-54.9414065 1.37501,-1.621094 2.71875,-3.02734399 4.44922,-3.05468799 h 0.0781 c 0.71875,0.0039 1.5039,0.25 2.38672,0.81249999 1.8789,1.210938 1.17968,3.667969 -0.42188,5.75 -2.78906,3.6093755 -9.33593,14.1835945 -11.95703,18.0312505 4.05859,-1.121094 14.22266,-10.996094 14.22266,0.378906 0,4.074219 -3.82422,9.664063 -5.74219,14.882813 -1.66797,4.523437 -1.10547,5.007812 3.08203,2.59375 4.80469,-2.765625 11.14063,-8.269531 13.82813,-10.347656 0.74609,-0.582032 2.92187,-2.195313 5.55078,-4.066407 4.01953,-2.875 11.21484,-10.265625 16.10937,-7.070312 2.64453,1.734375 2.03125,3.886719 1.07813,6.605469 -0.58985,1.714843 -4.33985,10.273437 -3.3086,15.0625 0.78125,3.578125 3.88672,3.25 6.66407,3.25 0.35546,-4.277344 8.84765,-13.023438 14.98437,-16.417969 z M 151.23633,11.076371 c 1.31641,-1.3906253 2.36719,-2.8906255 2.36719,-4.0156255 0,-4.039063 -0.90625,-5.808594 -2.36719,-6.050782 z m 18.71484,24.902343 c -1.96484,3.703125 -3.60156,7.679688 -3.60156,9.296875 0,2.660157 1.63672,5.097657 3.60156,6.246094 z m 0,-29.8750005 V 18.345902 c -1.96093,3.859375 -3.53515,7.503906 -3.89453,8.441406 -2.14844,5.527344 -3.40625,11.125 -3.35937,16.675781 0.0273,4.085938 4.26172,13.457032 -5.6836,6.511719 -2.18359,-1.527344 -2.28125,-1.777344 -4.49609,-0.515625 -0.39063,0.222656 -0.83203,0.457031 -1.28125,0.699219 v -9.769531 c 0.60156,-1.082032 1.12109,-2.1875 1.52734,-3.21875 1.35157,-3.433594 0.2461,-3.734375 -1.52734,-2.585938 v -6.328125 c 0.55859,-0.222656 1.07031,-0.335937 1.52734,-0.335937 2.10157,0 3.17969,2.171875 5.08203,3.46875 2.70704,-5.234375 6.8125,-18.082032 12.10547,-25.2851575 z m 0,12.2421885 c 1.1211,-2.222656 2.38282,-4.523438 3.59375,-6.417969 V 2.3419955 c -1.25,0.90625 -2.44531,2.203125 -3.59375,3.761718 z m 0,33.175781 c 0.7461,0.449219 1.55469,0.699219 2.32422,0.699219 0.47656,0 0.89453,-0.01953 1.26953,-0.06641 v -21.99609 c -1.11328,1.453125 -2.41797,3.589844 -3.59375,5.820312 z m 9.45313,-8.039062 c -0.28516,0.890625 -0.44531,1.835937 -0.44531,2.875 0,0.796875 0.16015,1.511718 0.44531,2.160156 z m 0,-13.503907 v 5.769532 c -1.75391,3.210937 -4.58985,6.234375 -4.58985,8.652343 0,3.140625 3.61329,7.195313 -1.26953,7.753907 V 30.158402 c 1.71485,-2.226563 2.94532,-2.070313 5.25391,-0.550781 0.20703,0.132812 0.41016,0.242187 0.60547,0.371093 z m 0,-12.75 v 3.933594 c -0.44531,-0.664062 -0.71485,-1.316406 -0.71485,-1.761719 0,-0.898437 0.27735,-1.636718 0.71485,-2.171875 z m 0,-15.9062505 v 8.3554692 c -0.14453,-0.25 -0.27344,-0.554687 -0.39844,-0.890625 -0.95312,-2.5976562 -3.14453,-0.464844 -5.46094,3.1406253 V 2.3419955 c 1.21094,-0.867188 2.47657,-1.36328199 3.77344,-1.36328199 0.73438,0 1.4375,0.12890699 2.08594,0.34374999 z m 6.17578,19.1679695 c 0,1.417969 -1.23828,3.152344 -2.42578,3.152344 -0.65625,0 -1.3086,-0.246094 -1.89844,-0.621094 v -6.867187 c 1.96484,-0.347657 4.32422,1.015625 4.32422,4.335937 z m -4.32422,-9.460937 V 2.2990265 c 1.40234,1.039062 2.35156,2.566406 2.5625,4.085937 0.30859,2.1796882 -1.07422,4.5625005 -2.5625,4.6445325 z m 0,5.125 c -0.50781,0.09375 -0.99609,0.3125 -1.41016,0.640625 v 4.949218 c 0.40625,0.484375 0.88282,0.917969 1.41016,1.277344 z m 0,-13.8554695 c -0.42969,-0.3125 -0.90234,-0.589844 -1.41016,-0.8125 v 8.8515625 c 0.45313,0.519532 0.9375,0.722657 1.41016,0.691407 z m 0,37.5390625 c -0.52734,0.800782 -1.00391,1.621094 -1.41016,2.492188 v 6.988281 c 0.37891,0.539063 0.85547,1.019531 1.41016,1.417969 z m -1.41016,-4.972656 c 0.54297,-1.148437 0.90235,-2.316406 0.90235,-3.5 0,-0.457031 -0.35938,-0.765625 -0.90235,-1.113281 z M 179.4043,9.6779327 V 1.3224635 c 0.15625,0.05469 0.30078,0.109375 0.4414,0.164063 v 8.8515625 c -0.14843,-0.183593 -0.30468,-0.4023433 -0.4414,-0.6601563 z m 0,11.4843753 v -3.933594 c 0.13281,-0.160156 0.28125,-0.304687 0.4414,-0.433593 v 4.949218 c -0.16015,-0.191406 -0.30859,-0.390625 -0.4414,-0.582031 z m 0,14.585938 v -5.769532 l 0.4414,0.273438 v 4.613281 c -0.125,0.296875 -0.28125,0.582031 -0.4414,0.882813 z m 0,12.769531 v -5.035156 c 0.125,-0.394532 0.27734,-0.773438 0.4414,-1.152344 v 6.988281 c -0.16406,-0.25 -0.3164,-0.519531 -0.4414,-0.800781 z m 26.08594,-5.410156 c -0.28907,0.902343 -0.44922,1.65625 -0.44922,2.167968 0,0.835938 0.16015,1.644532 0.44922,2.410157 z m 0,-16.230469 v 6.652344 c -3.71875,7.160156 -14.23047,18.714843 -19.15235,18.714843 -1.8789,0 -3.71484,-0.519531 -5.08203,-1.507812 V 39.838089 c 1.46875,-2.242187 3.23438,-4.34375 3.96484,-7.085937 0.55079,-2.066406 0.0156,-2.121094 1.9375,-3.21875 l 3.27344,-0.84375 c 5.28906,-0.714844 2.91016,6.46875 1.64453,8.414062 l -2.42578,4.351563 c -1.04297,1.871094 -0.91406,1.679687 0.65235,0.390625 3.20312,-2.617188 7.51562,-7.277344 8.78515,-11.808594 0.51953,-1.839844 1.00781,-3.871094 3.64453,-3.871094 1.08985,0 2.03907,0.234375 2.75782,0.710938 z m 0,6.652344 0.44921,-0.898438 v -5.402344 c -0.14453,-0.132812 -0.29296,-0.25 -0.44921,-0.351562 z m 0,14.15625 c 0.12109,0.339843 0.27343,0.671875 0.44921,0.980468 v -6.820312 c -0.17578,0.445312 -0.32812,0.871094 -0.44921,1.261719 z m 0.89453,-6.96875 v 8.671875 c -0.16016,-0.230469 -0.3125,-0.46875 -0.44532,-0.722657 v -6.820312 c 0.13282,-0.367188 0.28516,-0.742188 0.44532,-1.128906 z m 0,-12.921875 v 3.746093 c -0.13282,0.347657 -0.26953,0.707032 -0.44532,1.089844 v -5.402344 c 0.17579,0.167969 0.3125,0.355469 0.44532,0.566407 z m 0,3.746093 c 0.28515,-0.777343 0.45312,-1.457031 0.45312,-2.007812 0,-0.683594 -0.16797,-1.265625 -0.45312,-1.738281 z m 12.01953,12.742188 c -0.41016,1.472656 -0.4961,2.863281 -0.15625,4.054687 0.0508,0.171875 0.10156,0.328125 0.15625,0.492188 z m 0,-14.113281 v 4.96875 c -1.6875,3.4375 -4.89063,6.6875 -4.89063,9.261718 0,3.378907 4.16797,7.820313 -2.54297,7.820313 -1.64062,0 -3.40625,-1.136719 -4.58593,-2.832031 v -8.671875 c 1.49218,-3.570313 3.92968,-8.054688 5.85937,-10.558594 1.71094,-2.226563 2.94141,-2.070313 5.2461,-0.550781 0.33984,0.207031 0.64453,0.394531 0.91406,0.5625 z m 0,-13.265625 v 4.683593 c -0.62891,-0.796875 -1.02735,-1.636718 -1.02735,-2.1875 0,-1.105468 0.41797,-1.9375 1.02735,-2.496093 z m 0,4.683593 c 0.11719,0.152344 0.24219,0.304688 0.36719,0.429688 v -5.402344 c -0.125,0.08594 -0.25,0.191406 -0.36719,0.289063 z m 0,13.550782 c 0.14062,-0.273438 0.26562,-0.542969 0.36719,-0.8125 v -3.910157 c -0.10157,-0.08203 -0.22657,-0.160156 -0.36719,-0.246093 z m 0,13.691406 c 0.10937,0.257812 0.23828,0.496094 0.36719,0.726562 v -6.390625 c -0.12891,0.375 -0.25782,0.75 -0.36719,1.117188 z m 0.70703,-6.492188 v 7.65625 c -0.125,-0.140625 -0.23438,-0.28125 -0.33984,-0.4375 v -6.390625 c 0.10546,-0.273437 0.21484,-0.550781 0.33984,-0.828125 z m 0,-11.65625 v 2.722657 c -0.0937,0.3125 -0.20313,0.609375 -0.33984,0.921875 v -3.910157 c 0.13671,0.08984 0.24609,0.171875 0.33984,0.265625 z m 0,-14.246093 v 5.917968 c -0.11328,-0.101562 -0.22656,-0.226562 -0.33984,-0.335937 v -5.402344 c 0.11328,-0.05859 0.22656,-0.128906 0.33984,-0.179687 z m 110.56641,31.785156 c -0.22657,-0.757813 -0.95704,-1.453125 -2.31641,-1.898438 -4.46094,-1.40625 -9.09375,-3.976562 -10.375,-4.511718 -5.24219,-2.1875 -7.99609,-4.191407 -12.14453,-7.734375 -10.07422,-8.597657 -17.15235,1.933593 -29.58985,8.632812 -3.17968,1.722656 -4.65625,2.167969 -3.64843,-2.25 0.72656,-3.171875 2.23828,-4.042969 2.25,-7.613281 0.0273,-3.148438 -3.24219,-5.3125 -5.65235,-3.34375 -3.19531,2.640625 -11.11328,11.179687 -17.76953,15.476562 -2.03515,1.316407 -3.92578,2.53125 -5.23828,-0.480468 -0.80859,-1.859375 -1.12891,-3.488282 -0.004,-5.757813 0.76563,-1.578125 2.71875,-3.027344 2.71875,-4.902344 0,-0.933593 -2.45312,-3.488281 -4.20703,-3.5 -1.63672,-0.0039 -2.59375,1.652344 -3.63672,2.246094 -2.34375,-1.632812 -2.89843,-3.492187 -6.7539,-3.519531 -0.60938,-0.0039 -1.29297,0.144531 -2.02735,0.425781 v 8.035156 c 0.13672,-0.117187 0.27344,-0.234375 0.41016,-0.339843 7.30859,-5.839844 4.58594,1.328125 -0.41016,5.171875 v 8.070312 c 1.15625,-0.550781 2.23829,-1.289062 3.53125,-2.1875 1.76172,-1.230469 2.3125,-2.527344 3.70313,-0.421875 0.53516,0.808594 1.08203,1.824219 1.62891,2.671875 3.80078,6.023438 16.80078,-4.757812 22.05078,-8.8125 2.05859,-1.582031 1.44922,-0.710937 1.43359,1.53125 -0.0156,3.75 1.81641,6.199219 4.44922,7.8125 3.05469,1.875 5.38672,0.617188 8.24609,-0.78125 5.89844,-2.878906 12.5,-8.730469 17.27344,-10.910156 4.11328,-1.863281 5.00391,-1.324219 8.59766,1.207031 5.78906,4.050781 12.44531,8.5625 19.28125,10.992188 4.29297,1.519531 7.67187,-0.28125 8.19922,-2.242188 z M 219.11133,22.353714 v -5.917968 c 2.04687,-0.988282 5.16406,0.238281 5.16406,4.054687 0,1.417969 -1.24219,3.152344 -2.42969,3.152344 -0.98828,0 -1.95312,-0.558594 -2.73437,-1.289063 z m 0,11.050782 c 0.21094,-0.675782 0.32422,-1.355469 0.32422,-2.039063 0,-0.261719 -0.1211,-0.480469 -0.32422,-0.683594 z m 0,16.589843 v -7.65625 c 2.33203,-5.351562 8,-11.21875 12.17187,-12.847656 v 8.035156 c -1.375,1.199219 -2.60937,2.699219 -3.60546,3.929688 -2.35547,2.90625 -1.27344,3.628906 1.65625,2.140625 0.67968,-0.339844 1.32421,-0.769531 1.94921,-1.238281 v 8.070312 c -1.75,0.832031 -3.65625,1.25 -6.65625,1.230469 -2.875,-0.01953 -4.5625,-0.574219 -5.51562,-1.664063 z"
       id="path4"
       sodipodi:nodetypes="ccccsccsccccccccccsscccccccccccccccccccccccccccccccccccccccccccsccccccsccccccccccscccscccccccccccccsccccccccscccccsccccsccccccsccccccscssccsccccccccccccccccccccscccccccccccccccccccccccsccccscccccccccsccccccccccccccccccccccsccccccccsscccccccsccccccccccccccccccccccccccccccccccccccccccsccccccccccccccccccccccssccscccccccccccc" />
  </g>
</svg>
