<?xml version="1.0" encoding="UTF-8" standalone="no"?>
<!DOCTYPE svg PUBLIC "-//W3C//DTD SVG 1.1//EN" "http://www.w3.org/Graphics/SVG/1.1/DTD/svg11.dtd">
<svg width="100%" height="100%" viewBox="0 0 704 568" version="1.1" xmlns="http://www.w3.org/2000/svg" xmlns:xlink="http://www.w3.org/1999/xlink" xml:space="preserve" xmlns:serif="http://www.serif.com/" style="fill-rule:evenodd;clip-rule:evenodd;stroke-linejoin:round;stroke-miterlimit:2;">
    <g transform="matrix(4.166667,0,0,4.166667,0,0)">
        <g transform="matrix(4.166667,0,0,4.166667,0,-4.166667)">
            <path d="M29,33C28,33 27.1,32.9 26.2,32.7C25.4,32.5 24.6,32.2 23.9,31.8L23.6,31.6C23.5,31.6 23.5,31.5 23.4,31.5C23.2,31.4 23,31.2 22.8,30.9C22.6,30.7 22.5,30.4 22.5,30.2C22.5,29.9 22.5,29.5 22.6,29.2C22.7,28.9 22.9,28.6 23.1,28.3C23.2,28.1 23.4,28 23.6,27.8C23.8,27.6 24.1,27.7 24.3,27.6C24.5,27.5 24.5,27.2 24.7,27.2C24.9,27.2 24.8,27.6 24.6,27.8L24.6,28L25,28C24.9,28.2 24.7,28.2 24.7,28.3C24.6,28.4 25,28.4 25,28.4C24.8,28.6 24.4,28.5 24.2,28.6L24.2,29C24.8,28.9 25.6,28.4 26.2,28.8C26.1,28.8 26,28.9 25.9,28.9C26.2,29.1 26.6,28.9 26.9,29L27.8,29C27.7,28.9 27.5,28.9 27.5,28.8C28,28.8 28.6,28.9 29.1,29.1C29,29 28.9,28.9 28.8,28.8C28.7,28.7 28.5,28.7 28.4,28.7C28.2,28.7 28,28.5 27.9,28.3C27.9,28.2 27.9,28.2 28,28.2C28.2,28.2 28.4,28.2 28.5,28.3C28.7,28.4 28.8,28.4 28.9,28.3C29,28.2 29.3,28.4 29.6,28.3C29.3,28 28.9,28.3 28.6,27.9C28.9,27.8 29.1,27.9 29.4,27.7C29.7,27.5 29.9,27.6 30.1,27.6C30.4,27.6 30.8,27.6 31.1,27.7C31.2,27.7 31.3,27.8 31.4,27.8C31.7,27.8 31.9,28.1 32.2,27.9C32.2,27.8 32.1,27.8 32,27.7C31.8,27.7 31.5,27.7 31.4,27.5C31.4,27.4 31.4,27.4 31.5,27.4C31.8,27.4 32.1,27.8 32.4,27.6C31.9,27.2 31.3,27.5 30.8,27.2C30.5,27 30,26.9 29.8,26.6C29.7,26.7 29.6,26.7 29.5,26.7C29.4,26.7 29.4,26.5 29.4,26.5C29.1,26.5 28.7,26.6 28.7,26.3C28.7,26 29.1,26.1 29.3,26.1C30,26 30.6,26.4 31.3,26.5C31.4,26.5 31.4,26.6 31.4,26.7C31.4,26.8 31.3,26.8 31.2,26.8C31.5,26.9 31.9,26.9 32.2,26.9C32.7,26.9 33.2,27 33.6,27.1C33.9,27.2 34.1,27.3 34.4,27.2C34.2,27.1 33.8,27.3 33.9,26.9C33.9,26.8 34.2,26.9 34.3,26.8L34.2,26.7C34.3,26.5 34.4,26.6 34.5,26.6C34,26.4 33.6,26.2 33.1,26C33.4,25.6 33.8,25.8 34.2,25.8C34.2,25.8 34.2,25.7 34.1,25.7C34.2,25.5 34.4,25.8 34.6,25.7C34.5,25.6 34.4,25.6 34.3,25.5C33.8,25.4 33.4,25.3 32.9,25.2C33,25.1 33.3,25.3 33.2,25C33.1,24.7 32.6,24.7 32.3,24.6C32.6,24.4 32.9,24.4 33.2,24.5C33.5,24.6 33.9,24.4 34.2,24.5C33.7,24 33,24.6 32.4,24.1C32.5,23.9 32.7,23.9 32.8,23.7C33.2,23.8 33.7,23.6 34,23.7C33.5,23.5 33,23.3 32.5,23.2L32.4,23.2C32.2,23.1 32,23.1 31.8,23.2C31.7,23.2 31.6,23.3 31.4,23.3C31,23.4 30.5,23.4 30,23.2L30.1,23.2C30.3,23.1 30.6,23 30.9,23L31.3,23C31.4,23 31.3,22.8 31.4,22.8L32.2,22.8C32.6,23 33,23.1 33.4,23.2C33.6,23.2 33.7,23.3 33.9,23.3C34,23.4 34,23.4 34.1,23.5C34.5,23.5 34.8,23.6 35.2,23.8C35.3,23.9 35.3,23.8 35.3,23.7C35.2,23.4 35.2,23.2 35.4,23.1L35.5,23.1C35.5,23 35.4,22.9 35.4,22.9C35.3,22.8 35.2,22.8 35.2,22.8C35.6,22.7 36.2,22.6 36.5,23.1L36.7,23.1C36.7,22.9 36.8,22.9 36.9,22.8C37.2,22.7 37.4,23.1 37.7,23.1C38.3,23 38.9,23 39.5,22.9C39.1,22.8 38.7,22.7 38.2,22.6L38,22.6C37.9,22.6 37.8,22.5 37.8,22.5C38,22.3 38.4,22.4 38.6,22.4C38.8,22.5 38.7,22.1 38.8,22.2C39.1,22.3 39.4,22.4 39.7,22.5C40,22.6 40.3,22.7 40.5,22.9C40.2,22.3 39.4,22.4 39.4,21.9C39.3,21.6 39.8,22.1 40,21.8C38.8,21.5 37.5,21.6 36.3,21.4L36,20.9C36.3,20.7 36.8,20.6 37.2,20.6C37.3,20.7 37.3,20.7 37.4,20.7C37.6,20.7 37.8,20.7 38.1,20.8L38.1,20.7C37.6,20.6 37.2,20.6 36.7,20.5C36.4,20.4 36,20.6 35.6,20.7C34.5,20.8 33.4,20.5 32.3,20.6L30.7,20.6C30.2,20.7 29.7,20.7 29.3,20.6C28.9,20.5 28.5,20.6 28.1,20.7C27.8,20.7 27.5,20.7 27.2,20.5C27.1,20.4 27.2,20.4 27.3,20.4C28.1,20.3 28.9,20.5 29.7,20.4C29.4,20.1 28.9,20.3 28.5,20.2C28.4,20.2 28.4,20 28.3,20C28.6,19.9 28.9,19.9 29.1,19.9C29.2,19.9 29.2,20 29.2,20L30.4,20L30.3,20C31.1,19.8 32,19.9 32.8,19.8C32.2,19.6 31.5,19.9 30.9,19.7C31,19.6 31.1,19.6 31.2,19.6L31.5,19.6C31.4,19.5 31.2,19.5 31.1,19.4C31.7,19.3 32.3,19.2 32.9,19.2C32.9,19.1 32.8,18.9 32.9,18.8C32.9,18.9 33,18.9 33,18.9C33,18.9 33.1,19 33.2,19C33.6,18.9 33.9,18.8 34.2,19.2C34,19.3 33.8,19.4 33.6,19.4C33.8,19.7 34.1,19.4 34.4,19.5C34.5,19.5 34.5,19.6 34.5,19.6C34.9,19.7 35.3,19.6 35.7,19.5C35.8,19.5 35.9,19.8 36,19.6C35.6,19.4 35.2,19.5 34.8,19.2C34.4,19 34.1,18.7 33.8,18.4L33.9,18.3L34.1,18.3C34.1,18.3 34.2,18.3 34.2,18.4C34.4,18.5 34.5,18.6 34.7,18.6C34.8,18.7 34.8,18.4 34.9,18.4C35.2,18.3 35.5,18.3 35.7,18.5C36.1,18.6 36.5,18.7 36.9,18.7C37,18.7 37,18.6 37,18.6C37,18.7 37.1,18.7 37.1,18.7C36.7,18.4 36.2,18.7 35.9,18.4C35.8,18.3 35.6,18.1 35.4,18C35.5,17.9 35.7,17.9 35.8,17.9C35.9,17.9 36.1,18 36.1,18.1C36.1,18 36.1,17.9 36.2,17.9C36.3,17.9 36.5,18.1 36.6,18C36.4,17.7 36.1,17.9 35.8,17.6C35.3,17.4 34.8,17.5 34.3,17.3C34.3,17.2 34.4,17.2 34.4,17.2C33.9,17.3 33.5,17.1 33.1,16.9C33.3,16.8 33.5,16.8 33.7,16.8C33.9,16.8 34.1,16.8 34.3,16.9C34.5,17 34.6,17.1 34.8,17.2C34.9,17.2 35.1,17.3 35.1,17.1C35.1,17 35,16.9 34.8,16.8C35,16.6 35.2,17 35.4,16.8C35.4,16.7 35.3,16.7 35.3,16.6C35.6,16.4 36.2,16.8 36.4,16.6C36.6,16.4 36.9,16.7 37.2,16.6C36.9,16.4 36.6,16.3 36.3,16.2C35.9,16.1 35.4,16 35,15.8C35.1,15.6 35.2,15.6 35.3,15.6C35.1,15.4 34.9,15.4 34.6,15.3C34.9,15.2 35.3,15.2 35.6,15.3C35.9,15.4 36.1,15.5 36.4,15.6C36.5,15.7 36.7,15.8 36.7,15.9C36.6,15.7 36.5,15.5 36.3,15.4C36.1,15.3 36,15.2 35.8,15.1C35.7,15 35.8,15 35.9,15C36,15 36.2,15.1 36.3,15.1C36.2,15.1 36.2,15 36.2,15C36.5,14.7 36.7,15 37,15C37.1,15 37.1,15.1 37.2,15.2L37.2,15.1C37.2,15.1 37.2,15 37.3,15C36.6,14.7 35.9,14.4 35.1,14.3C34.5,14.2 33.9,14.2 33.3,14.2C32.1,14.1 31,14.2 29.8,14.1C30.5,13.7 31.2,14.2 31.9,13.9C31.8,13.8 31.6,13.8 31.6,13.7C32.1,13.4 32.6,13.9 33,13.6C32.4,13.4 31.8,13.5 31.2,13.2C31.2,13.1 31.3,13.1 31.4,13.1L31.6,13.1C31.5,13 31.4,12.9 31.6,12.8C31.8,12.7 32.1,12.9 32.3,12.8C31.6,12.7 30.9,12.7 30.5,12.1C31.4,11.9 32.3,11.7 33.2,11.7C33.6,11.6 34.1,11.6 34.6,11.7C34.7,11.8 34.9,11.9 34.9,12C35,11.8 34.8,11.8 34.8,11.7C34.5,11.5 34.1,11.3 33.7,11.3C33.4,11.2 33.2,11.2 32.9,11.2C32.1,10.9 31.3,11.2 30.5,11C30.4,10.9 30.2,11.1 30,11.1C30.1,11.2 30.3,11.1 30.3,11.2C30.1,11.6 29.6,11.3 29.2,11.3C28.5,11.4 27.8,11.3 27.1,11.1C27.6,10.8 28.2,11.1 28.8,11C28.7,10.9 28.9,10.9 28.8,10.8C29.1,10.6 29.4,11 29.7,10.9C29.8,10.8 29.6,10.7 29.6,10.5C29.7,10.4 29.8,10.5 29.9,10.4L29.9,10C30.4,9.6 30.9,10 31.4,10.2C31.3,10 31,9.9 30.8,9.6L30.8,9.4L30.9,9.3L31,9.3C31.5,9.3 32,9.3 32.5,9.5C31.9,9.1 31.2,8.9 30.5,9C29.4,9.2 28.4,9.2 27.3,9.1C25.7,8.9 24.3,8.7 22.7,8.4C22.6,8.3 22.5,8.2 22.5,8.2C22.5,7.9 22.8,8.2 22.9,8L22.8,8L22.9,7.9L23.1,7.9C23.1,7.9 23.2,7.9 23.2,8L23.2,8.1L23,8.1C22.9,8.4 23.3,8.2 23.3,8.2C23.8,8.3 24.3,8.2 24.8,8.1C25.5,8 26,8.4 26.6,8.5C26.5,8.4 26.3,8.4 26.4,8.3C26.6,8 27,8.2 27.3,8.2C27.9,8.2 28.4,8.3 28.9,8.6C29,8.6 29.2,8.7 29.3,8.7C29.4,8.6 29.2,8.6 29.2,8.6C28.5,8.2 27.7,8.3 27,7.8L27,7.7L27.1,7.7C27.2,7.6 27.3,7.9 27.4,7.8C26.8,7.2 25.8,7.8 25.1,7.4C25.2,7.2 25.1,7 25.2,6.8C25.3,6.6 25.6,6.7 25.8,6.7C25.8,6.7 25.9,6.7 25.9,6.8L26,6.8C26.4,6.9 26.8,7.1 27.2,7.2C27.3,7.3 27.1,7.1 27.1,7L27.1,6.9L27.2,6.9C27.3,6.9 27.5,7 27.5,7.1C27.7,7 28,7 28.2,7.1C28.4,7.2 28.5,7.5 28.8,7.5C29,7.2 28.8,7.1 28.6,7L28.6,6.9L29,6.9C28.8,6.9 28.7,6.8 28.5,6.8C28.1,6.7 27.8,6.4 27.5,6.3C27.6,6.1 27.8,6.2 27.9,6.1C27.5,5.8 26.9,6.1 26.5,5.8C26.7,5.7 26.9,5.6 27,5.6L27.6,5.6C27.2,5.5 26.7,5.5 26.3,5.5L26,5.5C25.9,5.5 25.8,5.4 25.8,5.3C25.7,5.1 26.1,5.2 25.9,5.1C25.9,5 25.4,5.2 25.1,5L25.2,5C24.9,4.7 24.5,4.8 24.2,4.9C24.4,5.1 24.1,5.1 24.1,5.1C23.7,5.1 23.2,5.2 22.7,5.2C22.2,5.2 21.7,5.4 21.3,5.5C20.9,5.6 20.8,5.1 20.5,5.1C20.7,5 20.9,5.1 21,5.1L22.6,5.1C22.7,5.1 23,5.3 23.1,4.9C23,4.9 22.8,5 22.8,4.8C23.3,4.6 23.7,4.8 24.2,4.6C23.9,4.6 23.7,4.4 23.5,4.3C23.7,4 24,4.3 24.2,4.4C24.4,4.5 24.4,4.3 24.5,4.3C24.6,4.5 24.8,4.6 25,4.6C25.2,4.7 25.4,4.7 25.6,4.6C25.2,4.5 24.8,4.3 24.6,4C25.1,3.9 25.6,4 26.1,4.2C25.8,3.9 25.5,3.8 25.1,3.7C23.6,3.5 22.1,3.5 20.7,3.6C20.6,3.6 20.2,3.9 20.1,3.7C20,3.3 20.6,3.5 20.7,3.3C20.5,3.1 20.1,3.4 20,3.2C20.7,3 21.4,3.1 22.1,3.3C22,3 21.7,3.2 21.6,3L21.6,2.9L21.7,2.9C22,2.9 22.4,3.1 22.7,3C23.2,3 23.6,3.2 24,3.2C23.8,3 23.5,2.8 23.2,2.8C22.6,2.6 22,2.7 21.4,2.4L21.5,2.3C21.5,2.3 21.4,2.3 21.4,2.2C21.8,1.7 22.4,2.3 22.9,2.2L22.8,2.2L22.7,2.1C22.9,1.9 23.1,2.1 23.3,2C22.1,1.7 20.9,1.7 19.7,1.5C19.6,1.5 19.6,1.4 19.6,1.3C20,0.9 20.6,1.3 21.2,1.1C20.4,1 19.7,1 19,1C18.4,1.1 17.8,1.1 17.2,1.1C17.2,1.2 17.5,1.3 17.3,1.3C17,1.3 16.6,1.4 16.3,1.4C16.6,1.5 16.9,1.3 17.1,1.5C16.5,1.9 15.7,1.6 15.2,2.1C15.1,2.2 14.8,2.1 14.6,2.2C14.1,2.3 13.7,2.5 13.3,2.7C13.8,2.8 14.3,2.7 14.8,2.5C14.9,2.5 14.9,2.7 14.9,2.7C15.4,2.4 15.8,2.5 16.3,2.5C16.4,2.4 16.5,2.5 16.5,2.4C16.6,2.5 16.8,2.7 16.6,2.8C16.1,2.9 15.8,3.2 15.3,3.1C15.1,3.1 14.9,3.1 14.7,3.2C14.6,3.3 14.4,3.4 14.3,3.4C14.4,3.5 14,3.5 14.2,3.5C14.4,3.5 14.4,3.4 14.6,3.4C14.8,3.4 14.7,3.7 14.8,3.6C14.9,3.5 15.1,3.4 15.1,3.5C15.7,3.6 16.3,3.2 16.9,3.5C16.9,3.5 16.8,3.8 16.6,3.8C16,3.8 15.3,3.9 14.7,4C14.1,4.1 13.6,4.1 13,4C12.8,4 12.7,3.9 12.5,4C12.3,4 12.2,4.1 12.1,4.2C12.4,4 12.7,3.9 12.9,4C12.6,4.3 12.3,4.3 11.9,4.5C11.8,4.7 11.6,4.7 11.4,4.9C12.2,4.5 13,4.4 13.8,4.1C13.9,4 14,4.4 13.8,4.4C13.6,4.5 13.6,4.6 13.5,4.6C13.7,4.6 14,4.5 14.2,4.6C14.4,4.7 14.6,4.6 14.6,4.4C14.7,4.2 14.4,4.3 14.3,4.2C14.7,3.9 15.6,3.8 15.5,4.5C15.5,4.6 15.3,4.6 15.2,4.6C15.1,4.6 15.2,4.4 15.1,4.3C15,4.2 14.8,4.4 14.7,4.4C14.7,4.6 15.1,4.5 15,4.7C15.2,4.9 15.2,5 15.1,5C14.3,4.8 13.7,5.2 13,5.1C12.7,5.1 12.3,5 12.1,5.2C12.2,5.2 12.4,5.2 12.5,5.3C12.6,5.4 12.2,5.4 12.2,5.6L12.3,5.6C12.3,5.6 12.4,5.6 12.4,5.7C12.5,5.6 12.5,5.6 12.6,5.6L12.8,5.6C13.8,5.4 14.9,5.3 15.9,5.3C16.1,5.3 16.5,5.2 16.5,5.4C16.5,5.6 15.9,5.5 15.5,5.6C15.4,5.8 15.3,6 15.2,6C14.8,6.1 14.4,5.8 13.9,5.9C13.9,6 13.9,6 13.8,6L13,6L13,6.1C12.9,6.3 12.7,6.2 12.6,6.2C12.1,5.9 11.5,5.8 11,5.9C11.1,5.9 11.3,5.8 11.4,5.9C11.6,6 11.7,6 11.8,6C11.9,6 11.8,6.4 11.7,6.4C11.2,6.3 10.8,6.2 10.3,6.3C10.4,6.5 10.7,6.2 10.7,6.5C10.8,6.7 10.4,6.5 10.3,6.7C10,6.5 9.6,6.9 9.1,6.8C9.5,7 9.9,6.7 10.3,6.9C10.5,6.9 10.6,6.9 10.7,6.8C11.3,6.7 11.9,6.7 12.5,6.9C12.5,6.9 12.5,7.1 12.4,7.1L12,7.1C11.9,7.1 11.9,7.2 11.9,7.2C12.3,7.4 12.7,7 13.1,7.4C13,7.4 13,7.6 12.9,7.5C12.6,7.4 12.4,7.5 12.1,7.4C12.1,7.5 11.9,7.5 12,7.5C12.2,7.7 12.4,7.6 12.6,7.6C12.6,7.7 12.9,7.7 12.7,7.8C13,7.9 13.2,7.9 13.5,8L13,8C13.1,8.2 13.5,7.9 13.5,8.2L13.5,8.3L13.4,8.3C12.7,8.4 11.9,8.3 11.3,8C11.2,7.9 11.3,7.9 11.4,7.9C11.8,7.8 12,8.1 12.4,8.1C12,7.8 11.4,8 11,7.6C11.1,7.5 11.1,7.5 11.2,7.5L11.4,7.5C11,7.3 10.7,7.6 10.3,7.5C10.1,7.4 10,7.3 9.8,7.4L9.8,7.5C9.4,7.8 8.9,7.8 8.3,8C8.8,8.1 9.1,7.8 9.6,8C9.6,8.2 9.3,8.1 9.3,8.3C9.6,8.3 9.9,8.3 10.2,8.4C9.4,8.7 8.5,8.5 7.7,9C8.2,8.8 8.7,8.8 9.2,8.9C9.3,8.9 9.3,9.1 9.3,9.1C10,8.9 10.6,9 11.2,9.2L11.4,9.4C11.1,9.5 10.7,9.3 10.4,9.3C9.4,9.3 8.5,9.5 7.8,9.9C8.3,9.7 8.9,9.6 9.5,9.6C9.6,9.6 9.7,9.8 9.8,9.7C10.3,9.8 10.7,9.8 11.2,9.8C11.8,9.6 12.3,9.7 12.9,9.9C12.6,10 12.3,9.9 12.1,10C12.1,10 12.1,10.1 12.2,10.1C11.4,10.5 10.5,10.1 9.6,10.3C9.2,10.4 8.9,10.5 8.5,10.5C9.1,10.6 9.7,10.2 10.3,10.5C10.7,10.7 11.2,10.7 11.6,10.6C11.7,10.6 11.7,10.7 11.7,10.8C12,10.8 12,10.9 12,11.2C11.4,11.3 10.8,11 10.1,11C10,11 10,11.1 10,11.1C10.3,11.2 10.5,11 10.7,11.2C10.6,11.3 10.5,11.6 10.4,11.6C9.9,11.7 9.6,11.5 9.1,11.7C9.4,11.7 9.8,11.6 9.9,11.9C10,12 9.7,11.9 9.6,12C9.2,11.8 8.8,12.1 8.4,12.1C8.6,12.2 8.8,12 9,12.1C9.2,12.2 9.1,12.2 9.1,12.2C9.1,12.3 9,12.3 9,12.3C8.8,12.3 8.6,12.4 8.4,12.4L6.8,12.4C6.8,12.5 6.6,12.5 6.7,12.5C7,12.6 7.3,12.3 7.6,12.5C7.2,12.9 6.7,12.5 6.3,12.7C6.1,12.9 5.9,12.9 5.7,13.1C6.2,13 6.7,12.7 7.2,12.9C7.2,13 7,13 7,13.1C7.1,13.2 7.4,13 7.5,13.2C7.2,13.5 6.7,13.5 6.4,13.7C6.6,13.8 6.9,13.6 6.8,13.7C6.6,14.1 6.1,14.2 5.8,14.5L6.5,14.3C6.9,14.2 7.4,14.1 7.8,14.1C8,14.2 7.9,14.4 7.8,14.5C7.2,14.5 6.7,14.6 6.1,14.7C5.8,14.8 5.5,15 5.3,15.3C5.7,15.1 6.1,14.7 6.5,14.9C6.6,14.9 6.9,14.9 7,15C7.1,15.1 6.7,15.4 6.7,15.4C7.1,15.5 7.5,15.3 7.9,15.5C7.6,15.8 7,15.7 6.8,16C6.8,16 6.8,16.1 6.7,16.1C6.8,16.1 6.9,16 7.1,16L7.3,16C8.2,15.8 9.1,15.7 10,15.8C9.5,16 9.3,16 9,16.1C7.8,16.4 6.5,16.2 5.3,16.4C5.5,16.4 5.8,16.5 5.9,16.7C5.5,16.9 5.1,16.6 4.7,16.8C4.4,17 4.1,16.9 3.9,17.2C4.3,17.1 4.7,16.7 4.9,17.1C5,17.3 4.4,17.1 4.5,17.5C4.5,17.6 4.9,17.4 5,17.6C5,17.7 4.8,17.6 4.8,17.7C5.3,17.8 5.8,17.6 6.3,17.8C5.9,18 5.5,17.9 5.1,17.9L5.1,18C5.2,18.1 5.4,18 5.3,18.1C5.2,18.2 4.8,18.2 4.6,18.4C4.8,18.4 5.1,18.4 5.3,18.5C5.4,18.6 5.8,18.4 5.9,18.6C5.9,19.1 5.4,19 5.2,19C4.5,19 3.8,19 3.1,19.1L3.1,19.2C3.2,19.1 3.4,19.1 3.5,19.1C3.6,19.1 3.8,19.1 3.9,19.2C3.3,19.6 2.6,19.4 1.9,19.7C2.3,19.7 2.7,19.7 3.1,19.9C2.7,20.3 2.2,20 1.7,20.2C2.6,20.3 3.6,20.1 4.5,20.3C4.5,20.4 4.4,20.4 4.3,20.4C4,20.5 3.8,20.3 3.5,20.5C3.3,20.6 3.1,20.6 2.9,20.7L2.8,20.8L2.6,20.8C3,20.9 3.3,20.5 3.7,20.7C3.9,20.8 4.2,20.7 4.2,20.9C4.1,21.1 3.9,21 3.7,21.2C3.9,21.2 4.2,21.1 4.3,21.3C3.8,21.6 3.2,21.6 2.7,21.5C2.1,21.4 1.5,21.4 0.9,21.5C1.1,21.6 1.3,21.5 1.4,21.7C1.1,21.9 0.8,22.1 0.5,22.2C0.7,22.2 0.8,22.1 0.9,22.1C1,22.1 1.1,22.2 1.2,22.2C1.3,22.1 1.2,22 1.3,22C1.6,22 1.8,21.9 2,22.1C1.9,22.2 1.6,22 1.5,22.3C2,22.4 2.6,22 3,22.4C2.6,22.6 2.2,22.8 1.8,22.9C1.2,23 0.6,23.2 0,23.6C0.2,23.6 0.5,23.5 0.7,23.5C1.6,23.3 2.5,23.3 3.4,23.3C3.6,23.3 4,23.2 3.9,23.5C3.8,23.9 3.3,24.1 2.8,24.1C2.8,24.1 2.8,24.2 2.9,24.2C3.2,24.1 3.4,24.2 3.6,24.1C3.8,24.1 4,24 4.1,23.8C4.3,23.7 4.5,23.7 4.7,23.7C4.7,23.7 4.7,23.8 4.8,23.8L4.8,23.9C4.4,24.3 3.9,24.3 3.4,24.5C3.8,24.6 4.2,24.3 4.6,24.3C5.1,24.3 5.3,24.1 5.8,24.2C5.7,24.1 5.5,24.1 5.5,24C5.6,23.8 6.1,23.2 6.3,23.5C6.5,23.8 6,23.8 6.1,23.8C6.6,24.3 7,23.4 7.6,23.6L7.6,23.5C7.4,23.4 7.2,23.6 7,23.4C7.5,23.1 8.1,23.1 8.5,22.8L8.4,22.8C8.3,22.8 8.3,22.7 8.3,22.7C8.3,22.4 8.6,22.5 8.7,22.5C9.5,22.3 10.4,21.9 11.2,22.3C10.8,22.5 10.3,22.5 9.9,22.5C10.1,22.8 10.6,22.3 10.6,22.7L10.6,22.8C10.6,23 10.4,23 10.2,23C10.3,23.3 10.7,23 10.6,23.2C10.6,23.3 10.5,23.5 10.4,23.5C10.1,23.6 9.7,23.4 9.3,23.5C9,23.6 8.4,23.5 8,23.8L8,23.9L8.1,23.9C7.8,24.1 7.4,23.9 7.1,24.2L6.8,24.2C7.2,24.3 7.7,24.1 8.1,24.2L8.2,24.3C8,24.4 7.9,24.6 7.7,24.7C7.3,24.8 6.9,24.6 6.5,24.9C6.8,25 7.1,24.8 7.5,25C7.2,25.1 7,25 6.8,25.1C6.8,25.2 6.8,25.2 6.9,25.2C7.4,25.2 7.9,25.2 8.3,25.3C7.9,25.5 7.6,25.7 7.2,25.9L7.1,25.8C6.9,25.8 6.6,25.7 6.4,25.6C6.1,25.6 5.8,25.6 5.5,25.7C5.6,25.7 5.7,25.7 5.7,25.8C5.7,25.9 5.4,25.9 5.3,25.9C4.8,25.6 4.3,25.7 3.9,25.5C3.7,25.4 3.4,25.3 3.2,25.3C3,25.3 2.7,25.3 2.5,25.4C2.5,25.4 2.2,25.4 2.3,25.5C2.7,25.6 3.3,25.4 3.7,25.6C3.2,26.1 2.4,26 1.9,26.5C2.7,26.2 3.6,26.1 4.4,26.1C4.7,26.1 5.1,25.9 5.4,26.2C4.7,26.3 4.1,26.7 3.4,26.9C3.3,27 3.3,27.1 3.2,27.2C2.6,27.4 2,27.7 1.4,28.1C1.7,28.2 2.1,27.9 2.4,27.9C2.7,27.9 3.4,27.3 3.8,27.7C3.5,28 3,28 2.8,28.4C2.8,28.5 2.7,28.5 2.7,28.6C2.7,28.5 2.8,28.5 2.9,28.4L3,28.3C3.3,28.3 3.6,28.1 3.8,28C3.9,27.9 4.1,28.1 4.3,28C4.5,27.9 4.7,27.8 4.9,27.7C5,27.6 5,27.7 5,27.8C5,27.9 4.7,28 4.7,28.1C4.9,28.2 5.1,28 5.3,28C5.6,28 5.9,27.6 6.2,27.5C6.8,27.3 7.4,27.2 8,27.1C8.2,27.1 8.4,27 8.6,26.9C9.3,26.8 10,26.7 10.7,26.5C11,26.4 11.4,26.3 11.7,26.5C10.9,26.8 10.1,27 9.2,27C9,27.1 8.9,27.4 8.6,27.4C7.8,27.5 7,27.6 6.2,27.9C6.6,28.1 7,27.7 7.4,28C7.4,28.1 7.4,28.2 7.3,28.2C7,28.3 6.8,28.3 6.5,28.4C6.3,28.4 6.2,28.5 6,28.5C6.2,28.4 6.3,28.4 6.5,28.4C6.7,28.4 6.9,28.4 7,28.5C6.9,28.6 6.8,28.7 6.7,28.8C6.7,28.9 6.8,28.9 6.9,28.9C7,28.9 7,28.7 7.2,28.6C7.4,28.5 7.7,28.4 8,28.5C8.1,28.5 8.1,28.6 8.1,28.8C8.3,28.7 8.6,28.5 8.8,28.4C9,28.3 9.1,28.2 9.3,28.2L11.4,27.9C11,27.8 10.7,28 10.3,27.8C11,27.5 11.7,27.3 12.4,27.2C12.5,27.2 12.7,27.1 12.7,27.3C12.6,27.6 12.2,27.3 12,27.7C12.3,27.9 12.5,27.7 12.8,27.8C12.9,27.8 12.9,27.7 12.9,27.7C13.6,27.6 14.5,27.4 15,27.8C14.4,28 13.8,27.7 13.2,27.8C12.6,27.9 12.3,28.1 11.8,28.3L11.6,28.3C11.5,28.3 11.4,28.4 11.3,28.4L10.8,28.4C10.2,28.4 9.6,28.4 9,28.6C9,28.6 9,28.7 9.1,28.7C8.5,29 7.8,29.2 7.1,29.3C6.6,29.3 6.2,29.7 5.7,29.9C6,30.1 6.3,29.8 6.7,29.6L6.8,29.6C6.8,29.6 6.9,29.6 6.9,29.7L6.9,30C6.9,30.1 6.8,30.2 6.8,30.2C6.7,30.3 6.9,30.4 6.9,30.5C7,30.2 7.3,29.9 7.6,30.2C7.7,30.3 7.6,30.4 7.6,30.5C7.7,30.3 7.9,30.2 8,30.1C8.2,30 8.4,29.9 8.6,29.9C8.7,29.9 8.7,30.1 8.6,30.2C8.9,30.2 9.2,30 9.4,29.8C9.6,29.7 9.8,29.9 10,29.8C10.5,29.6 10.9,29.4 11.4,29.3C11.5,29.3 11.5,29.4 11.5,29.4C11.7,29.3 11.9,29.3 12.1,29.3C12.2,29.2 12.3,29.3 12.3,29.2C12.3,29.3 12.6,29.3 12.4,29.4C13.1,29.5 13.7,29.3 14.4,29.3C14,29 13.7,29.3 13.5,29C13.5,28.9 13.5,28.8 13.6,28.8L15.6,28.8C15.3,28.5 14.8,28.8 14.4,28.7C14.3,28.7 14.3,28.6 14.3,28.6C14.4,28.5 14.5,28.5 14.6,28.4C15.4,28.2 16.2,28.1 17,28.1C17.1,28.1 17.1,28.2 17.1,28.3L17.1,28.5C16.9,29.1 16.7,29.7 16.4,30.4C16.1,31 15.6,31.6 15,32C14.2,32.5 13.4,32.9 12.5,33L2.5,33L2.5,33.7L38.26,33.7L38.26,33L29,33ZM31.5,26.2C31.6,26.3 31.8,26.3 32,26.4C31.8,26.5 31.5,26.7 31.3,26.5C31.2,26.4 31.6,26.5 31.5,26.4C31.4,26.3 31.2,26.5 31.2,26.3C31.2,26.1 31.4,26.1 31.5,26.2ZM34.2,20.9C34.7,20.9 35.2,21 35.6,21.2C35.4,21.2 35.1,21.2 34.9,21.1C34.6,21 34.4,21 34.2,20.9C34.1,21 34.1,20.9 34.2,20.9ZM32.8,15.3C32.9,15.3 32.9,15.5 33,15.4C33.3,15.2 33.5,15.4 33.8,15.5C33.8,15.6 34.1,15.7 33.9,15.7C33.6,15.8 33.2,15.8 32.9,15.7C32.7,15.7 32.5,15.4 32.8,15.3ZM4,19.8C3.9,19.5 4.7,19.5 5.1,19.5C5.2,19.5 5.2,19.6 5.2,19.6C4.9,19.9 4.2,20.2 4,19.8ZM7.3,21.8C7.2,22.2 6.7,21.9 6.3,21.7C6.4,21.6 6.6,21.5 6.6,21.6C6.9,21.6 7.4,21.6 7.3,21.8ZM7.8,21.5C7.7,21.5 7.4,21.6 7.4,21.4C7.4,21.3 7.7,21.2 7.8,21.3L7.8,21.5ZM7.8,20C7.8,20.1 7.8,20.2 7.7,20.2C7.2,20.1 6.7,20.4 6.2,20.2C6.4,20 6.4,20 6.6,20L6.6,19.9L5.8,19.9C5.8,20 5.7,20 5.7,20.1C5.6,20.2 5.5,20 5.5,20C5.5,20.1 5.5,20.2 5.4,20.2C5.3,20 5.3,20.3 5.2,20.2C5.2,20 5.1,20 5.1,20C5.5,19.7 6,19.6 6.5,19.7C6.6,19.7 6.6,19.8 6.6,19.8C7.1,19.8 7.5,19.6 7.9,19.8L7.8,20L7.7,19.9L7.8,20ZM23.3,26.1C23.2,26.1 23,26.2 23,26C23,26.1 23,26.1 22.9,26.1L22.3,26.1C22.2,26.1 22.2,26 22.2,25.9C22.3,25.8 22.4,25.8 22.5,25.8C22.6,25.8 22.7,25.8 22.7,25.9C22.8,25.9 22.8,26 22.9,26.1C23,26 23.2,25.9 23.3,26C23.4,26 23.4,26.1 23.3,26.1ZM22.2,17.2L22.2,17.1C22.4,17.1 22.7,16.9 22.9,17.1C22.8,17.2 22.7,17.3 22.6,17.3C22.4,17.3 22.3,17.3 22.2,17.2ZM22.5,22.3C22.4,22.4 22.4,22.4 22.3,22.3C22.2,22.2 22.3,21.9 22.4,21.9C22.5,21.8 22.6,22.2 22.5,22.3ZM22.5,23.7C22.6,23.4 22.9,23.4 23.2,23.4C23.3,23.4 23.3,23.5 23.3,23.5C23.3,23.6 23.1,23.7 23,23.8C22.9,23.9 22.6,24.4 22.4,24.4C22,24.3 22.3,24 22.5,23.7ZM23.4,24.8C23.4,24.9 23.3,24.8 23.3,24.9C23.1,25.1 23,25.5 22.6,25.3C22.8,25 23,24.8 23.3,24.6C23.4,24.6 23.4,24.6 23.4,24.7L23.4,24.8ZM23.1,21.1C23,21 22.8,20.9 23,20.8C23.2,20.7 23.3,20.8 23.5,20.8C23.9,20.6 24.4,20.6 24.9,20.6C25,20.6 25,20.7 25,20.7C25.1,20.8 25,20.8 24.9,20.8C24.5,20.9 24.1,20.7 23.8,20.9C23.6,21 23.3,21.1 23.1,21.1ZM24.9,24L23.9,24C24,23.7 24.4,23.9 24.5,23.6C24.7,23.8 24.9,23.5 25.1,23.8C25.3,24.1 25,24 24.9,24ZM25.6,25.8C25.6,25.7 25.6,25.6 25.7,25.6L25.8,25.6C26.3,25.6 26.7,25.7 27.2,25.9C27.1,26 27.1,26.1 27,26.1C26.6,26 26.3,26 26,25.9C25.9,26 25.7,26 25.6,25.8ZM27.1,27.5L26.7,27.5C26.7,27.6 26.7,27.6 26.6,27.6C26.3,27.5 26.1,27.6 25.9,27.5C26.1,27.1 26.5,27.3 26.9,27.3C27,27.3 27.1,27.2 27.2,27.4C27.3,27.5 27.2,27.5 27.1,27.5ZM31,24C30.6,24.2 30,24.4 29.8,23.9C29.7,23.7 30,23.6 30.1,23.7C30.3,23.8 30.7,23.6 31,24ZM30.5,22.2C30.6,22.3 30.3,22.3 30.1,22.3C29.9,22.3 29.5,22.4 29.3,22.2C29.7,22 30.3,21.7 30.5,22.2ZM29.4,20.8C29.5,21 29.7,21 30,21L30.1,21L30.1,21.2L29.8,21.2C29.5,21.1 29.2,21.3 29,21C29.2,21 29.2,20.8 29.4,20.8ZM27.9,24.4C27.8,24.5 28.3,24.4 28.5,24.4C28.8,24.5 29.1,24.4 29.3,24.6C29,24.5 28.6,24.7 28.3,24.5L28.1,24.5C28,24.5 28,24.4 27.9,24.4ZM27.9,27.5C27.7,27.6 27.4,27.6 27.2,27.6C27.3,27.5 27.5,27.3 27.6,27.4C27.7,27.4 27.9,27.4 27.9,27.5ZM27.5,25.7C27.2,25.6 27,25.8 26.8,25.7C26.6,25.6 26.6,25.7 26.6,25.6C26.6,25.5 26.6,25.5 26.7,25.5C26.8,25.4 26.8,25.7 26.9,25.6C27,25.5 27.1,25.5 27.3,25.5C27.4,25.5 27.5,25.6 27.6,25.6L27.5,25.7ZM27.5,22.5C27.5,22.6 27.3,22.5 27.2,22.6C27.1,22.7 27.1,22.6 27.1,22.5C27.1,22.4 27.2,22.4 27.4,22.4C27.5,22.4 27.5,22.5 27.5,22.5ZM27.2,21.4C27.3,21.4 27.3,21.5 27.3,21.5C27.4,21.6 27.3,21.6 27.2,21.6C27.1,21.6 27,21.4 26.8,21.5C26.5,21.6 26.2,21.4 25.9,21.6C26.2,21.7 26.5,21.5 26.7,21.7C26.1,22 25.5,22.2 24.8,22.1L24.7,22.1C24.7,22.1 24.7,22.2 24.8,22.2C24.6,22.3 24.5,22.5 24.2,22.5C24.1,22.5 24.1,22.6 24.1,22.6C24,22.6 24,22.5 24,22.5C24.1,22.2 24.3,22.2 24.6,22.2C24.3,22.2 24,22.2 23.7,22C23.8,21.8 24,21.7 24.3,21.7C24.5,21.7 24.7,21.7 24.9,21.8L24.8,21.9C25.1,21.8 25.4,22 25.6,21.7C25.7,21.6 25.3,21.6 25.3,21.5C25.3,21.4 25.5,21.4 25.6,21.4C25.9,21.4 26.2,21.5 26.5,21.5C26.7,21.5 26.9,21.5 27.2,21.4ZM27,20.4C27,20.3 26.9,20.3 26.9,20.3C26.8,20.3 26.9,20.4 26.8,20.4C26.6,20.4 26.4,20.3 26.3,20.3C25.8,20.2 25.2,20.4 24.8,20.1C24.9,19.5 25.4,20 25.8,19.8C25,19.4 24.1,20.2 23.5,19.7C23.4,19.6 23.8,19.6 23.9,19.6C23.8,19.5 23.7,19.5 23.5,19.5C23.3,19.5 23.4,19.4 23.4,19.4C23.7,19.1 24,18.8 24.4,18.6C24.6,18.5 24.7,18.5 24.9,18.6C25.1,18.6 25.2,18.7 25.3,18.8C25,19 24.6,18.7 24.5,19.1C24.5,19.2 24.5,19.3 24.6,19.3C24.7,19.3 25,19.2 25.2,19.2C25.6,19.3 25.8,19.6 26.2,19.4C26.3,19.3 26.5,19.1 26.6,19.2C26.6,19.2 26.7,19.2 26.7,19.3L26.7,19.5L26.6,19.6L26.3,19.6C26.4,20.1 27,19.7 27.2,20.1C27.2,20.3 27,20.3 27,20.4ZM24.6,14.9C24.7,14.8 24.8,14.8 24.9,14.8C25,14.8 25.4,14.7 25.6,14.9C25.3,15.2 24.5,15.4 24.6,14.9ZM27.6,13.1C27.9,13 28.5,12.9 28.6,13.2C28.7,13.3 28.3,13.3 28.2,13.3C28,13.4 27.7,13.5 27.4,13.5C27.1,13.5 26.9,13.4 26.6,13.3C27,13.2 27.3,13.2 27.6,13.1ZM28.7,18.6C28.7,18.5 28.8,18.5 28.8,18.5C28.8,18.6 28.9,18.6 28.9,18.6C29.3,18.6 29.7,18.7 30,18.9C29.7,19 29.8,19.1 29.7,19.3C29.4,19.1 28.9,19.2 28.6,18.9C28.6,18.8 28.7,18.8 28.8,18.8C28.8,18.7 28.7,18.7 28.7,18.6ZM28.6,15.5C28.6,15.4 28.7,15.4 28.8,15.4C28.9,15.4 29.3,15.4 29.1,15.6L28.8,15.6C28.7,15.6 28.6,15.6 28.6,15.5ZM27.8,13.9C27.9,13.8 28.1,13.8 28.3,13.8C28.5,13.8 28.6,13.8 28.8,13.9C28.9,14 29.1,13.8 29.2,14L28.5,14C28.3,14 28,14 27.8,13.9ZM27.6,15.2C27.7,15.3 28.1,15.3 28,15.4C27.8,15.8 27.2,15.4 26.8,15.3C26.9,15.2 27.1,15.2 27.2,15.2C27.3,15.1 27.5,15.1 27.6,15.2ZM26.8,13.8C26.8,13.7 26.9,13.7 27,13.7L27,13.8C27,13.9 26.8,13.9 26.8,13.8ZM26.8,16.4C26.6,16.5 26.5,16.6 26.3,16.6C26.1,16.6 25.9,16.6 25.7,16.5C25.9,16.4 26.1,16.4 26.2,16.2C26.4,16.4 26.6,16.2 26.8,16.4ZM27.1,17.2C27,17.1 27.1,17.1 27.2,17.1L27.3,17.1C27.6,17.3 27.9,17 28.2,17.3C28.2,17.4 28.2,17.4 28.1,17.4C27.8,17.2 27.4,17.4 27.1,17.2ZM27.3,19.1C27.2,19 27.4,18.7 27.7,18.7C27.8,18.7 27.8,18.8 27.8,18.8L27.7,18.9C28,19 28.3,18.9 28.5,19.2C28.6,19.3 28.5,19.3 28.4,19.3C28.1,19.3 27.5,19.5 27.3,19.1ZM28.4,19.7C28.3,19.7 28,19.8 27.9,19.6C28.5,19.5 29.1,19.4 29.7,19.5C29.9,19.5 30.2,19.5 30.3,19.6C29.7,20 29.1,19.7 28.4,19.7ZM30.8,18.2C30.8,18.3 30.8,18.3 30.7,18.3C30,18.4 29.3,18.3 28.7,18.1C28.9,17.9 29.2,18.2 29.4,17.9C29.5,17.8 29.8,18 30,17.9C30.1,17.8 30.3,17.8 30.5,17.9C30.6,18 30.7,18.1 30.8,18.2ZM30,12.9C29.9,12.9 29.9,12.9 29.9,12.8C30,12.7 30.1,12.7 30.2,12.7C30.3,12.7 30.4,12.7 30.5,12.8C30.4,13 30.3,12.9 30.2,12.9C30.7,13.2 31.3,12.7 31.8,13C31.4,13.1 30.9,13.2 30.4,13.3C30.1,13.4 30,13.1 29.7,13C29.7,12.8 29.8,13.1 30,12.9ZM29.5,13.5C29.5,13.6 29.5,13.6 29.4,13.6C29,13.4 28.6,13.8 28.2,13.5C28.5,13.3 28.8,13.2 29.1,13.3C29.3,13.4 29.4,13.4 29.5,13.5ZM27,12.5C27.7,12.5 28.5,12.6 29.2,12.6C29,13 28.7,12.6 28.4,12.7C28.1,12.8 28.1,12.9 28,12.9C27.7,12.7 27.3,12.7 27,12.6C26.8,12.6 26.9,12.5 27,12.5ZM26,11.4C26.3,11.4 26.5,11.5 26.7,11.7L26.6,11.8C26.3,11.7 25.9,11.9 25.6,11.6C25.7,11.5 25.8,11.3 26,11.4ZM24,9.4C24.6,9.4 25.3,9.2 25.9,9.6L25.9,9.7L25.8,9.7C25.5,9.7 25.1,9.4 24.8,9.6C24.5,9.8 23.9,9.6 23.4,9.6C23.3,9.6 23.3,9.5 23.3,9.4C23.5,9.3 23.8,9.4 24,9.4ZM24,11.9C24.1,11.9 24.3,11.9 24.3,12C24.2,12.4 23.6,12.2 23.4,12.1C23.5,12 23.7,11.9 24,11.9ZM23.6,16C23.7,16.1 23.8,16.1 23.9,16.2C24,16.3 23.9,16.3 23.8,16.3C23.7,16.3 23.3,16.5 23.3,16.3C23.3,16.1 23.5,16 23.6,16ZM23.3,17.5L23.1,17.6C23,17.5 23.1,17.5 23.2,17.5C23.2,17.4 23.3,17.4 23.3,17.5ZM23.4,6.6C23.5,6.6 23.6,6.6 23.6,6.7C23.6,6.8 23.9,6.7 24,6.8C23.8,6.9 23.5,7 23.3,6.9C23.4,6.8 23.3,6.7 23.4,6.6ZM22.9,6.8C23,6.8 23,6.9 22.9,7C22.8,7.1 22.6,7.1 22.6,6.9C22.6,6.8 22.8,6.7 22.9,6.8ZM23.3,7.2C23.4,7.2 23.4,7.1 23.5,7.1C23.6,7 23.6,7.2 23.6,7.2C23.5,7.3 23.3,7.4 23.1,7.4C22.9,7.4 22.7,7.4 22.6,7.3C22.7,7.1 23,7.2 23.3,7.2ZM22.7,11.7L23,11.7C23.1,11.7 23.2,11.8 23.2,11.8C23,11.9 22.7,12.2 22.5,12.1C22.4,12.1 22.4,12 22.4,12L22.5,11.9C22.4,11.9 22.2,12 22.2,11.8C22.3,11.6 22.5,11.7 22.7,11.7ZM22.9,14.1C23,14.2 22.9,14.2 22.8,14.2L22.3,14.2C22.2,14.2 22.2,14.1 22.2,14.1C22.3,14 22.4,13.9 22.5,13.9C22.6,13.9 22.8,14 22.9,14.1ZM22,6.3L22,6.5C21.8,6.7 21.5,6.9 21.2,6.7C21.3,6.5 21.5,6.6 21.6,6.4C21.8,6.2 21.9,6.5 22,6.3ZM21.1,6.3L21.2,6.3C21.3,6.3 21.5,6.2 21.5,6.3C21.5,6.4 21.2,6.7 21,6.5C21,6.4 21,6.3 21.1,6.3ZM19,6.7C19.5,6.6 20.1,6.6 20.6,6.8C20.5,7.1 20.3,7 20.2,7C20.1,7 19.8,7.1 19.7,7.1C19.6,7 19.4,6.9 19.2,6.9C19.2,7.1 19.1,7.1 19.1,7.1C18.7,7.2 18.2,7.1 17.8,7C18.1,6.8 18.5,6.8 19,6.7ZM19.1,12.5C19.1,12.6 19.1,12.6 19,12.6C18.8,12.5 18.4,12.5 18.5,12.2C18.5,12.1 18.7,12 18.9,12C19.1,12 19.2,12.1 19.2,12.2C19.3,12.3 19,12.3 18.9,12.3L19.1,12.5ZM18.4,9.4C18.4,9.3 18.6,9.3 18.6,9.4C18.6,9.5 18.4,9.4 18.4,9.4ZM18.9,13L18.9,13.1C18.7,13.1 18.5,13.1 18.4,13L18.3,13.1C18.2,13.1 18.2,13 18.1,13C18.1,12.9 18,12.9 18,12.8C18,12.7 18.2,12.7 18.3,12.7C18.5,12.8 18.7,12.9 18.9,13ZM18,13.9C18,13.8 18,13.8 18.1,13.8C18.2,13.8 18.2,13.9 18.2,13.9L18.3,14C18.2,14.1 18.2,14.1 18,13.9ZM18,21.1C17.9,21.1 17.9,21 17.9,20.9C17.9,20.8 18,20.8 18,20.8L18.1,20.9L18.1,21L18,21.1ZM17.7,10.5C17.6,10.6 17.6,10.7 17.5,10.7C17.2,10.7 17,10.9 16.8,11C16.6,11.1 16.7,10.9 16.6,10.9C16.2,11 15.7,10.9 15.4,10.7C15.7,10.4 16.1,10.7 16.5,10.6C16.7,10.5 16.9,10.5 17.1,10.5C17.3,10.5 17.5,10.4 17.7,10.5ZM14.1,20.3C13.9,20.4 13.7,20.4 13.6,20.4C13.4,20.4 13.2,20.3 13.1,20.2C13.2,20.1 13.4,20.2 13.5,20.3C13.8,20.3 13.9,20.1 14.1,20.1C14.5,20 14.8,19.8 15.2,19.8C15.4,19.8 15.5,20 15.6,20.1C15.2,20.2 14.7,20.3 14.1,20.3ZM14.5,21.1C14.3,21.3 14.1,21.3 13.9,21.3C13.7,21.3 13.5,21.2 13.3,21.1C13.4,21 13.6,21.1 13.7,21.2C14.1,21.2 14.3,20.8 14.5,21.1ZM11.8,20.2C11.7,20.2 11.4,20.3 11.4,20.1C11.5,19.7 11.9,19.9 12.2,19.8C12.6,19.7 13,19.7 13.4,19.7C13.5,19.7 13.5,19.8 13.5,19.8C13,20.1 12.4,20 11.8,20.2ZM15.4,17.5C15.3,17.5 15.2,17.4 15.2,17.4C15.2,17.4 15.3,17.1 15.5,17.2C15.6,17.4 15.8,17.6 15.9,17.8C15.9,17.9 15.9,17.9 15.8,17.9L15.7,17.9L15.6,17.8L15.6,17.7C15.6,17.5 15.5,17.5 15.4,17.5ZM13.3,10.6C13.6,10.5 13.8,10.5 14.1,10.5C14.4,10.5 14.7,10.6 14.9,10.7C14.8,11 14.6,10.9 14.3,10.9C14,10.9 13.7,10.9 13.4,10.8C13.5,10.7 13.7,10.7 13.9,10.7C13.8,10.6 13.5,10.8 13.3,10.6ZM15.3,11.9C15.4,12 15.3,12.2 15.4,12.3C15.5,12.4 15.8,12.3 15.9,12.4C16,12.5 15.8,12.5 15.7,12.6C15.4,12.4 15,12.8 14.9,12.6C14.8,12.4 15,12.5 15.2,12.4C14.6,12.3 14,12.2 13.4,12.2C14,12 14.6,11.9 15.3,11.9ZM16.2,13.8C16.2,13.9 16.1,13.9 16.1,13.9C15.9,13.8 15.6,13.7 15.5,13.5C15.5,13.4 15.5,13.4 15.6,13.4C15.7,13.4 15.9,13.5 16,13.5C16.1,13.5 16.1,13.7 16.2,13.8ZM13.6,14.5C13.7,14.2 14.1,14.4 14.5,14.5C14.4,14.6 14.2,14.7 14.2,14.9C14.1,15 13.5,14.6 13.6,14.5ZM14.7,16.3C14.5,16.4 14.4,16.6 14.2,16.6L14,16.6C13.9,16.6 13.9,16.5 13.9,16.5C14.1,16.2 14.5,16 14.7,16.3ZM14.5,14.8C14.6,14.7 14.8,14.7 15,14.7C15.2,14.7 15.3,14.7 15.5,14.8C15.4,14.9 15.2,15 15,15C14.8,15 14.7,14.9 14.5,14.8ZM15.8,19.2C15.6,19.4 15.4,19.5 15.1,19.5C14.7,19.5 14.4,19.8 14,19.6C14.2,19.2 14.6,19.5 14.9,19.2C15.2,19.1 15.5,19.1 15.8,19.2ZM15.8,21.3C15.8,21.4 16.1,21.4 15.9,21.5C15.7,21.6 15.6,21.4 15.6,21.6L15.6,21.7C15.3,21.8 14.9,21.9 14.8,21.6C15,21.3 15.4,21.4 15.8,21.3ZM16.5,23.2C16.3,23.5 15.9,23.1 15.7,23.4C15.6,23.2 15.3,23.5 15.2,23.3C15.6,23 16.1,23.1 16.5,23.2ZM16.3,17.3C16.2,17.3 16.1,17.4 16,17.2C16,17 16,17.1 16,17.1L16.1,17.1C16.3,17.1 16.5,17.2 16.3,17.3ZM16.9,17.5C16.7,17.6 16.6,17.6 16.4,17.5L16.5,17.4L16.7,17.4L16.9,17.5ZM16.3,21.2C16.5,21.3 16.9,21.3 16.8,21.6C16.8,21.9 16.3,21.8 16,21.6C16.1,21.4 16.2,21.2 16.3,21.2ZM17.1,22.2C17.2,22.3 17.2,22.5 17.1,22.5C16.8,22.6 16.4,22.5 16.4,22.3C16.4,22.1 16.9,22 17.1,22.2ZM16.2,23.6L17.1,23.6C17.2,23.7 17.2,23.7 17.2,23.8C17.2,23.9 17.2,24 17.1,24.1C16.7,23.6 16.1,23.9 15.5,23.9L15.4,23.9L15.3,23.8C15.5,23.6 15.8,23.5 16.2,23.6ZM17.2,24.1C17.2,24.2 17.3,24.3 17.1,24.4C17,24.5 17,24.3 16.8,24.3C16.7,24.3 16.7,24.2 16.7,24.2C16.9,24.2 17.1,24.1 17.2,24.1ZM15.7,16.3C16,16.2 16.3,15.8 16.5,16C16.6,16.1 16.8,15.9 16.8,16C16.9,16.2 17.1,16.1 17.3,16.3L17.3,16.4L17.2,16.4C16.7,16.5 16.2,16.4 15.7,16.3ZM16.7,14.1C16.6,14.1 16.6,13.8 16.5,13.8C16.6,13.7 16.7,13.7 16.8,13.7C16.9,13.7 17,13.7 17.1,13.8C17.2,13.9 17.4,13.9 17.5,14C17.4,14.2 17,14 16.7,14.1ZM16.8,7.7C16.9,7.7 16.9,7.8 16.9,7.8C16.8,7.9 16.6,7.9 16.6,7.8C16.6,7.7 16.7,7.7 16.8,7.7ZM15.4,7.2L15.9,7.2C16.1,7.2 16.3,7.2 16.5,7.3C16.3,7.4 16.2,7.5 16.1,7.6C16,7.7 15.5,7.5 15.3,7.4L15.4,7.2ZM14.9,7.3L15.2,7.3C15.3,7.3 15.3,7.4 15.3,7.4C15.2,7.5 14.9,7.6 14.9,7.3C14.9,7.4 14.9,7.3 14.9,7.3ZM14.7,8.7C15,8.7 15.2,8.7 15.5,8.8C15.3,8.9 15.1,8.8 14.9,8.9C15.2,8.9 15.6,8.7 15.8,9.1C15.3,9.3 14.8,9.3 14.3,9.2C14.1,9.2 14,9.1 13.8,9.3C13.8,9.2 13.7,9.1 13.7,9.1C13.6,9 13.6,9 13.5,9C13.8,8.6 14.3,8.9 14.7,8.7ZM14.1,10.2C14.6,10.1 15.2,10.1 15.7,10.2C15.7,10.1 15.7,10.1 15.8,10.1C16.1,10.1 16.5,9.9 16.6,10.2C16.7,10.4 16.4,10.3 16.3,10.3C15.3,10.4 14.2,10.5 13.2,10.4C13.4,10.1 13.7,10.3 14.1,10.2ZM13.9,15.8C13.8,15.9 13.8,15.9 13.7,15.9L13.5,15.9C13.3,15.9 13.1,15.8 13,15.8C13.2,15.7 13.3,15.7 13.5,15.7C13.6,15.7 13.8,15.7 13.9,15.8ZM13.8,17.8C13.3,18 12.8,18 12.4,17.9C12.5,17.6 12.7,17.7 12.9,17.7C13.2,17.7 13.5,17.5 13.8,17.8ZM12.1,12.6L12.1,12.7C11.9,12.8 11.7,12.9 11.6,12.9C11.4,12.9 11.2,12.9 11,12.8C11.3,12.6 11.7,12.7 12.1,12.6ZM12,14.6C12.3,15 12.6,14.5 12.9,14.7C12.9,14.8 12.7,14.7 12.7,14.8C12.4,15.4 11.7,15.2 11.3,15C11.1,15 10.9,14.9 10.6,14.8C10.8,14.7 11,14.6 11.3,14.5C11.5,14.5 11.7,14.5 12,14.6ZM9.9,15.2L10.4,15.2C10.7,15.2 11,15.1 11.3,15.1C11.4,15.2 11.4,15.3 11.6,15.4C11.5,15.6 11.2,15.4 11,15.5L11,15.7C10.5,16 10.1,15.6 9.8,15.3C9.8,15.3 9.8,15.2 9.9,15.2ZM9.8,17.2C9.9,17.1 10,17.3 10.1,17.4C10.2,17.5 10.1,17.6 10,17.6C9.8,17.6 9.6,17.7 9.4,17.5C9.5,17.4 9.6,17.2 9.8,17.2ZM9.4,18.9L13.1,18.7C12.8,18.5 12.4,18.7 12.1,18.6C12.1,18.6 11.8,18.5 12,18.4C12.9,18.2 13.9,18.2 14.9,18.1L15.4,18.1C15.6,18.2 15.7,18.3 15.8,18.5C15.9,18.8 15.5,18.6 15.5,18.6C14.8,18.7 14.1,18.4 13.5,18.8C13.9,18.7 14.3,18.7 14.7,18.9C14.7,18.9 15,19 14.8,19C14.1,19.2 13.3,19.3 12.6,19.3C12.2,19.3 11.9,19.3 11.6,19.2C10.7,19.1 9.8,19.1 9,19.1C8.9,19.1 9,19 9.1,19C9.2,18.9 9.3,18.9 9.4,18.9ZM11,19.7C10.9,19.8 10.8,19.8 10.7,19.8C10.6,20.4 10,20.1 9.7,20.4C9.5,20.5 9.5,20.2 9.4,20.1C9.6,19.9 9.9,20 10.1,19.9C10.2,19.9 10.2,19.7 10.2,19.7C9.7,19.6 9.3,19.9 8.8,19.7C8.7,19.6 8.5,19.5 8.7,19.5C9.7,19.2 10.7,19.2 11.6,19.5L11.6,19.6C11.3,19.7 11.1,19.6 11,19.7ZM8.3,25C8.2,25 8.2,24.8 8.1,24.6L8.1,24.5L8.2,24.4L8.4,24.4C8.7,24.6 8.9,24.5 9.1,24.5C9.4,24.5 9.7,24.3 9.9,24.2C10,24.2 10.2,24.3 10.3,24.3C10.4,24.3 10.6,24.2 10.7,24.3C10.1,25 9.2,24.9 8.3,25ZM10.7,25.5C10.6,25.5 10.6,25.6 10.6,25.7C10.5,25.8 10.3,25.9 10.2,25.9C10,25.9 9.9,25.8 9.8,25.7C9.5,25.6 9.4,25.9 9.1,25.6C9.9,25.3 10.7,25.2 11.5,25C11.7,24.9 11.9,24.9 12.2,24.9C12.4,24.9 12.6,24.9 12.9,25C12.1,25.3 11.4,25.5 10.7,25.5ZM12.8,23.8C12.3,23.9 11.8,24 11.3,23.9C10.5,23.9 9.8,24 9.1,24.3C9,24.4 9,24.2 9,24.2C9.2,24 9.5,24 9.7,23.9C9.8,23.8 9.4,23.8 9.4,23.8C9.7,23.5 10.1,23.7 10.4,23.6L10.3,23.5C10.3,23.4 10.5,23.4 10.6,23.3C10.9,23.2 11.3,23.4 11.6,23.2C11.7,23 11.9,22.8 12.1,22.8L12.5,22.8L12.6,23C12.5,23.2 12.3,23.2 12.1,23.4C12.2,23.4 12.2,23.5 12.2,23.5L12.4,23.5C12.5,23.5 12.5,23.4 12.6,23.4C12.8,23.3 12.9,23.5 13,23.7C13.1,23.8 12.9,23.8 12.8,23.8ZM13.3,22.7C13.2,22.5 13,22.6 13,22.6C12.4,22.5 11.8,22.6 11.3,22.8C11.1,22.9 10.7,23 10.7,22.8C10.6,22.6 11,22.7 11.2,22.4C11.3,22.3 11.6,22.5 11.7,22.4C12.3,22.1 13,22.1 13.7,22.3C14.4,22.3 15.1,22.5 15.7,22.8C15.3,22.9 15,23 14.6,23C14.4,23 14.3,22.7 14.1,22.6C13.8,22.6 13.5,22.6 13.3,22.7ZM17.2,27.4C17.1,27.7 16.8,27.5 16.6,27.5C16.4,27.6 16,27.8 16,27.5C16,27.4 16,27.3 16.1,27.3C16.3,27.3 16.4,27.2 16.6,27.2C16.8,27.2 17,27.1 17.2,27.2L17.2,27.4ZM17.3,25.6C17.2,25.7 17,25.8 16.9,25.7C16.9,25.5 17,25.4 17,25.3C16.3,25.3 15.6,25.4 14.9,25.4C14.5,25.5 14,25.7 13.8,25.4C13.7,25.3 13.5,25.3 13.7,25.2C14.4,25 15.2,25.5 15.6,24.8C16.1,24.9 16.6,24.7 17.1,24.9C17.4,25 17.4,25.4 17.3,25.6ZM17.4,15L17.6,15C17.7,15 17.7,15.1 17.8,15.1C17.9,15.3 17.6,15.1 17.5,15.2C17.3,15.3 17.2,15.1 17.4,15ZM17.5,19.9C17.9,20.2 18,20.7 17.6,20.7C17.5,20.7 17.4,20.2 17.5,19.9ZM17.8,21.4C17.8,21.3 17.9,21.3 18.1,21.4C17.9,21.5 17.8,21.5 17.8,21.4ZM18.1,22.3C17.9,22.1 17.9,21.9 17.8,21.7C17.8,21.6 17.9,21.6 18,21.6C18.1,21.6 18.1,21.7 18.1,21.7C18.2,21.8 18.3,22.1 18.1,22.3ZM18.4,16C18.3,16.1 18,15.7 18.3,15.6C18.3,15.6 18.4,15.6 18.4,15.7C18.4,15.7 18.5,16 18.4,16ZM18.6,24.1C18.5,24.1 18.5,24 18.5,23.9C18.5,23.8 18.6,23.8 18.6,23.8C18.6,23.8 18.7,23.8 18.7,23.9L18.7,24L18.6,24.1C18.7,24 18.6,24.1 18.6,24.1ZM19.1,14.6C19,14.7 18.9,14.5 18.8,14.5C18.7,14.4 18.9,14.4 19,14.4C19.1,14.4 19.1,14.5 19.1,14.5C19.2,14.5 19.1,14.6 19.1,14.6ZM19.1,13.7C19.1,13.6 18.9,13.6 19,13.5C19.1,13.3 19.3,13.4 19.3,13.6L19.3,13.7L19.2,13.8C19.2,13.7 19.2,13.7 19.1,13.7ZM19.8,22.4C19.7,21.9 19.6,21.3 19.6,20.7C19.6,20.6 19.8,20.6 19.9,20.6C20,20.6 20,20.6 20.1,20.7L20.2,20.8C20.1,21.4 20.2,22 19.8,22.4ZM19.5,18.9C19.6,18.8 19.6,18.7 19.7,18.7L19.6,18.8C19.6,19.1 19.6,19 19.5,18.9ZM19.3,18.4C19.3,18.4 19.3,18.3 19.3,18.4L19.3,18.3L19.4,18.3C19.5,18.3 19.7,18.2 19.8,18.4L19.9,18.3L20.1,18.5C20,18.6 19.8,18.6 19.7,18.6C19.6,18.6 19.5,18.5 19.3,18.4ZM19.5,16.5C19.5,16.4 19.8,16.2 19.9,16.4C20,16.5 19.9,16.6 19.8,16.6L20.2,16.6C20.3,16.6 20.6,16.7 20.5,16.7C20.3,16.8 19.9,16.6 19.7,16.8C19.7,16.7 19.5,16.8 19.5,16.7L19.5,16.5ZM20.1,12.3C20.1,12.4 19.8,12.5 19.6,12.4C19.7,12.3 19.7,12.2 19.9,12.2C19.9,12.2 20.1,12.1 20.1,12.3ZM19.8,10.6L19.9,10.6L19.8,10.6ZM20.1,15.7C20.2,15.6 20.3,15.6 20.4,15.6C20.4,15.7 20.6,15.7 20.5,15.8C20.5,15.8 20.6,15.8 20.6,15.9L20.6,16C20.6,16.1 20.4,16.2 20.3,16.2C20.2,16.2 20.1,15.9 20.3,15.8L20.4,15.8C20.2,15.9 20.2,15.8 20.1,15.7ZM20.2,14.8L19.9,14.8C19.9,14.7 19.6,14.7 19.8,14.6C19.7,14.5 19.7,14.2 19.8,14.2C19.9,14.1 20.1,14.1 20.2,14.3C20.3,14.4 20.5,14.4 20.5,14.5C20.4,14.7 20,14.4 19.8,14.6C19.9,14.6 20.1,14.5 20.3,14.7C20.4,14.8 20.3,14.8 20.2,14.8ZM20,16.1C20,16.2 20,16.2 19.9,16.2C19.8,16.2 19.6,16.3 19.5,16.1C19.4,16 19.7,16 19.8,16C20.1,16.1 20,16.1 20,16.1ZM20.7,14.7C20.6,14.8 20.4,14.8 20.3,14.7L20.4,14.6L20.5,14.6C20.5,14.6 20.6,14.6 20.7,14.7C20.6,14.7 20.7,14.7 20.7,14.7ZM20.6,15.3C20.5,15.2 20.3,15.1 20.3,14.9C20.4,14.8 20.4,14.9 20.4,15C20.4,14.9 20.5,14.9 20.5,14.9C20.6,14.9 20.6,15 20.6,15.1L20.6,15.3C20.7,15.2 20.6,15.3 20.6,15.3ZM19.8,13.7C19.7,13.7 19.7,13.6 19.7,13.5C19.9,13.2 20.3,13.4 20.5,13.4C20.6,13.4 20.6,13.5 20.6,13.5C20.4,13.8 20.1,13.7 19.8,13.7ZM20.3,10.9C20.2,10.8 20,10.5 20.2,10.4C20.3,10.4 20.4,10.4 20.5,10.5C20.7,10.6 20.8,10.5 20.9,10.7C21,10.9 20.8,10.9 20.8,10.9C20.7,10.9 20.6,11 20.5,11C20.4,11 20.3,10.9 20.3,10.9ZM20.3,13.2C20.3,13.3 20.6,13.3 20.4,13.4C20.2,13.4 20,13.3 19.9,13.3C20,13.1 20.2,13.2 20.3,13.2ZM19.6,15.6C19.5,15.6 19.7,15.6 19.7,15.6C19.7,15.7 20,15.8 19.8,15.8C19.7,15.8 19.6,15.9 19.6,15.6ZM20.2,17.6L20.3,17.5L20.4,17.5C20.4,17.5 20.5,17.5 20.5,17.6C20.6,17.7 20.5,18 20.4,18C20.3,18 20.2,17.8 20.2,17.6ZM20.6,25.8C20.5,25.3 20.3,24.6 20.7,24.2C20.8,24.1 20.9,24.2 20.9,24.3C20.9,24.8 20.8,25.3 20.6,25.8ZM20.8,22.9L20.7,22.8C20.8,22.4 20.6,22 21,21.8L21,22.4C21,22.6 20.9,22.7 20.8,22.9ZM21.2,21.3C21.1,21.4 21.1,21.4 21,21.5C20.9,21.6 20.9,21.5 20.9,21.4C20.9,21.2 20.9,20.9 21.1,20.9L21.1,20.8L21.2,20.7L21.2,20.8C21.3,20.9 21.3,21.1 21.2,21.3ZM19.2,8.1C19.3,8.1 19.3,8.2 19.3,8.2L19.8,8.2C19.8,8.1 19.8,8.1 19.9,8.1C20,8.1 20,8.2 20,8.2C20.2,8.1 20.5,8.2 20.6,8.3C20.2,8.6 19.8,8.3 19.4,8.3C19,8.4 18.7,8.3 18.4,8.1C18.8,7.8 19.4,7.7 19.9,7.8C20.5,7.7 21,7.7 21.6,7.8C20.8,8.3 20,7.9 19.2,8.1ZM22.2,27.9C21.7,27.7 22.2,27 22.1,26.5C22.2,26.5 22.2,26.2 22.3,26.4C22.3,26.5 22.3,26.5 22.2,26.6L22.2,26.8C22.3,26.9 22.4,26.9 22.4,26.9C22.4,27.1 22.5,27.2 22.4,27.3C22.5,27.4 22.3,27.9 22.2,27.9Z" style="fill:rgb(24,115,88);"/>
        </g>
    </g>
</svg>
