<?xml version="1.0" encoding="UTF-8" standalone="no"?>
<!DOCTYPE svg PUBLIC "-//W3C//DTD SVG 1.1//EN" "http://www.w3.org/Graphics/SVG/1.1/DTD/svg11.dtd">
<svg width="100%" height="100%" viewBox="0 0 1202 771" version="1.1" xmlns="http://www.w3.org/2000/svg" xmlns:xlink="http://www.w3.org/1999/xlink" xml:space="preserve" xmlns:serif="http://www.serif.com/" style="fill-rule:evenodd;clip-rule:evenodd;stroke-linejoin:round;stroke-miterlimit:2;">
    <g transform="matrix(4.166667,0,0,4.166667,0,0)">
        <g transform="matrix(1,0,0,1,0,-0.012488)">
            <path d="M120.62,22.92C118.176,23.286 115.794,23.986 113.54,25C111.603,25.838 109.809,26.971 108.22,28.36C106.53,29.87 105.29,31.7 103.46,33.08C98.19,37.08 87.69,37.49 83.46,31.67C83.79,31.17 84.37,30.26 84.37,30.26C87.55,33.54 92.76,34.32 97.09,33.58C100.583,33.065 103.736,31.191 105.86,28.37C106.533,27.494 107.305,26.699 108.16,26C108.91,25.365 109.72,24.805 110.58,24.33C111.18,24.01 112.85,23.75 112.78,22.96L7.8,22.96C8.28,25.3 7.39,28.35 4.8,28.96L0,28.96L2,36.96L11.83,36.96L5.89,43.09L11.66,49.09C13.699,45.652 17.262,43.387 21.24,43C27.04,42.66 31.83,46.73 35.5,50.76C38.97,54.58 40.75,59.89 45.57,62.31C51.22,65.14 57.43,63.61 61.75,59.14C63.642,61.094 65.3,63.262 66.69,65.6C68.406,68.159 69.946,70.832 71.3,73.6C73.862,78.952 75.737,84.607 76.88,90.43C79.64,104.24 77.01,118.14 71.36,130.87C70.576,139.26 71.953,147.713 75.36,155.42C77.93,161.34 81.8,166.02 86.22,170.63C91.04,175.63 95.99,180.7 101.6,184.85C102.15,184.41 128.48,161.61 161.2,133.25L154.77,133.25C152.684,133.01 151.101,131.209 151.13,129.11L166,129.11C174.85,121.44 184.09,113.44 193.34,105.41L143.48,105.41L139.81,100.35L197.51,100.35C198.719,100.25 199.869,99.778 200.8,99L224.87,78.12L128.58,78.12L125.03,73.12L229,73.12C231.52,72.87 233.45,70.77 235.27,69.19L243.57,61.99L257.24,50.14L105,50.17L101.5,45.26L260.08,45.26C262.95,44.99 265.49,42.89 267.59,41.07L274.67,34.9C279.237,30.9 283.803,26.92 288.37,22.96L120.62,22.96L120.62,22.92ZM61.62,18.87C61.62,19.56 62.62,18.59 62.67,18.42C62.87,17.98 62.83,17.51 63.07,17.09C63.85,15.886 64.981,14.95 66.31,14.41C69.73,12.83 72.76,13.89 76.31,13.79C80.02,13.67 83.76,12.18 85.64,8.79C86.307,7.617 86.917,6.427 87.47,5.22C88,4 89.15,2.26 89.05,0.87C85.799,2.98 81.874,3.801 78.05,3.17C76.05,2.76 74.53,1.68 72.69,0.93C70.37,-0.108 67.751,-0.271 65.32,0.47C62.553,1.495 60.377,3.693 59.38,6.47C58.658,8.633 58.627,10.968 59.29,13.15C59.83,15.06 61.57,16.83 61.62,18.85L61.62,18.87ZM50.11,28.07C52.43,28.42 54.89,30.07 57.4,32.32C55.4,33.82 52.76,32.44 51.11,31.77C50.19,31.39 47.19,33.25 46.87,31.67C46.44,29.49 47.93,28.15 50.11,28.07Z" style="fill:rgb(22,65,148);"/>
        </g>
    </g>
</svg>
