<?xml version="1.0" encoding="UTF-8" standalone="no"?><!DOCTYPE svg PUBLIC "-//W3C//DTD SVG 1.1//EN" "http://www.w3.org/Graphics/SVG/1.1/DTD/svg11.dtd"><svg width="100%" height="100%" viewBox="0 0 46 62" version="1.1" xmlns="http://www.w3.org/2000/svg" xmlns:xlink="http://www.w3.org/1999/xlink" xml:space="preserve" xmlns:serif="http://www.serif.com/" style="fill-rule:evenodd;clip-rule:evenodd;stroke-linejoin:round;stroke-miterlimit:2;"><g id="layer1"><path id="path851" d="M0.702,61.71l-0.67,-15.898c-0.767,-18.194 12.707,-22.283 22.219,-27.869c11.681,-6.861 15.721,-11.244 18.484,-16.855c0.804,-1.634 2.347,-1.254 2.682,-0c1.316,4.927 -1.499,11.693 -15.132,19.824c-24.829,14.81 -18.292,13.791 -18.292,13.791c4.239,-4.583 10.104,-7.756 16.089,-10.247c8.897,-3.704 14.619,-8.218 17.526,-14.174c1.191,-2.44 2.011,-0.458 2.011,0.766c0,3.648 -2.234,12.268 -18.196,18.771c-6.469,2.635 -12.626,5.934 -18.371,10.545c-0.911,0.732 -0.838,1.867 0.605,0.58c4.743,-2.761 8.045,-5.017 12.977,-6.336c7.692,-2.058 12.001,-4.992 15.132,-8.332c1.064,-1.07 2.035,-1.51 1.532,1.149c-0.897,4.747 -6.976,8.63 -14.653,11.109c-7.065,2.281 -13.161,5.632 -18.497,10.349c-0.818,0.723 0.008,1.521 0.646,1.132c3.245,-1.97 6.454,-4.043 10.189,-5.639c4.245,-1.813 9.032,-3.092 11.397,-5.408c1.581,-1.548 3.303,-1.041 1.605,1.312c-2.555,3.539 -5.704,6.452 -11.852,8.118c-8.17,2.213 -13.478,7.095 -17.43,13.312Z" style="fill:#d1222a;fill-rule:nonzero;"/></g></svg>