<?xml version="1.0" encoding="UTF-8" standalone="no"?>
<!DOCTYPE svg PUBLIC "-//W3C//DTD SVG 1.1//EN" "http://www.w3.org/Graphics/SVG/1.1/DTD/svg11.dtd">
<svg width="100%" height="100%" viewBox="0 0 988 963" version="1.1" xmlns="http://www.w3.org/2000/svg" xmlns:xlink="http://www.w3.org/1999/xlink" xml:space="preserve" xmlns:serif="http://www.serif.com/" style="fill-rule:evenodd;clip-rule:evenodd;stroke-linejoin:round;stroke-miterlimit:2;">
    <g transform="matrix(12.5,0,0,12.5,0,0)">
        <path d="M39.4,17.1L22.6,47.1L39.4,76.9C39.4,77 39.5,77 39.6,76.9L56.4,47.1L39.6,17.1L39.4,17.1" style="fill:rgb(115,20,114);fill-rule:nonzero;"/>
        <path d="M10.8,5.4C10.8,2.4 8.4,0 5.4,0C2.4,0 0,2.4 0,5.4C0,8.4 2.4,10.8 5.4,10.8C8.4,10.8 10.8,8.4 10.8,5.4" style="fill:rgb(115,20,114);fill-rule:nonzero;"/>
        <path d="M39.5,11C42.5,11 44.9,8.6 44.9,5.6C44.9,2.6 42.5,0.2 39.5,0.2C36.5,0.2 34.1,2.6 34.1,5.6C34.1,8.6 36.5,11 39.5,11" style="fill:rgb(115,20,114);fill-rule:nonzero;"/>
        <path d="M73.6,0.1C70.6,0.1 68.2,2.5 68.2,5.5C68.2,8.5 70.6,10.9 73.6,10.9C76.6,10.9 79,8.5 79,5.5C79,2.5 76.6,0.1 73.6,0.1" style="fill:rgb(115,20,114);fill-rule:nonzero;"/>
        <path d="M74.6,14.6L56.4,47L56.4,76.4C56.4,76.5 56.5,76.6 56.6,76.6L74.5,76.6C74.6,76.6 74.7,76.5 74.7,76.4C74.7,76.4 74.7,14.5 74.6,14.6" style="fill:rgb(115,20,114);fill-rule:nonzero;"/>
        <path d="M4.2,14.6L4.2,76.4C4.2,76.5 4.3,76.6 4.4,76.6L22.3,76.6C22.4,76.6 22.5,76.5 22.5,76.4L22.5,47L4.4,14.6C4.3,14.5 4.2,14.5 4.2,14.6" style="fill:rgb(115,20,114);fill-rule:nonzero;"/>
    </g>
</svg>
