<?xml version="1.0" encoding="UTF-8" standalone="no"?><!DOCTYPE svg PUBLIC "-//W3C//DTD SVG 1.1//EN" "http://www.w3.org/Graphics/SVG/1.1/DTD/svg11.dtd"><svg width="100%" height="100%" viewBox="0 0 81 43" version="1.1" xmlns="http://www.w3.org/2000/svg" xmlns:xlink="http://www.w3.org/1999/xlink" xml:space="preserve" xmlns:serif="http://www.serif.com/" style="fill-rule:evenodd;clip-rule:evenodd;stroke-linecap:round;stroke-linejoin:round;stroke-miterlimit:22.926;"><g id="surface1"><path d="M40.076,41.951c-4.789,-0.051 -9.16,-2 -11.605,-4.754c-3.914,-4.406 -4.625,-11.449 -4.203,-19.422c8.047,-11.125 23.574,-11.117 31.621,0.004c0.422,7.973 -0.289,15.02 -4.203,19.426c-2.449,2.754 -6.816,4.695 -11.609,4.746" style="fill:#f5d85a;"/><path d="M40.076,40.017c-1.562,0.02 -3.289,-0.418 -4.855,-1.309c-4.793,0.555 -6.895,-2.707 -6.879,-5.914c-3.203,-0.59 -1.148,-3.285 -1.555,-6.113c-0.477,-3.34 -0.754,-6.488 1.613,-7.188c1.117,-0.328 2.711,1.336 2.445,2.484l0.492,-2.129c1.047,-4.516 5.246,-5.668 8.738,-5.715c3.473,-0.051 7.223,1.582 8.637,5.723l0.438,1.641c0.293,-1.516 0.781,-3.105 2.484,-2.73c2.781,0.613 1.891,4.379 1.434,8.238c-0.309,2.609 1.922,5.074 -1.309,5.512c0.699,2.906 -2.5,6.48 -6.621,6.188c-1.984,1.199 -3.844,1.297 -5.062,1.312" style="fill:#fa2810;"/><path d="M40.076,40.017c-1.562,0.02 -3.289,-0.418 -4.855,-1.309c-4.793,0.555 -6.895,-2.707 -6.879,-5.914c-3.203,-0.59 -1.148,-3.285 -1.555,-6.113c-0.477,-3.34 -0.754,-6.488 1.613,-7.188c1.117,-0.328 2.711,1.336 2.445,2.484l0.492,-2.129c1.047,-4.516 5.246,-5.668 8.738,-5.715c3.473,-0.051 7.223,1.582 8.637,5.723l0.438,1.641c0.293,-1.516 0.781,-3.105 2.484,-2.73c2.781,0.613 1.891,4.379 1.434,8.238c-0.309,2.609 1.922,5.074 -1.309,5.512c0.699,2.906 -2.5,6.48 -6.621,6.188c-1.984,1.199 -3.844,1.297 -5.062,1.312Z" style="fill:none;fill-rule:nonzero;stroke:#cb181f;stroke-width:0.28px;"/><path d="M34.275,37.083c-2.004,0.391 -2.836,-1.367 -2.445,-2.422l1.734,-4.652c0.23,-0.625 1.133,-0.969 1.832,-0.969c1.594,0 1.543,0.734 4.68,0.766c3.141,-0.031 3.086,-0.766 4.684,-0.766c0.699,0 1.602,0.344 1.832,0.969l1.734,4.652c0.391,1.055 -0.434,2.789 -2.445,2.422c-5.309,-0.961 -6.715,-0.953 -11.605,0" style="fill:#fefefe;"/><path d="M34.275,37.083c-2.004,0.391 -2.836,-1.367 -2.445,-2.422l1.734,-4.652c0.23,-0.625 1.133,-0.969 1.832,-0.969c1.594,0 1.543,0.734 4.68,0.766c3.141,-0.031 3.086,-0.766 4.684,-0.766c0.699,0 1.602,0.344 1.832,0.969l1.734,4.652c0.391,1.055 -0.434,2.789 -2.445,2.422c-5.309,-0.961 -6.715,-0.953 -11.605,0Z" style="fill:none;fill-rule:nonzero;stroke:#aa1317;stroke-width:0.22px;"/><path d="M35.193,38.833c-0.43,0.082 -0.902,0.129 -1.426,0.113c-0.445,-0.012 -0.867,-0.066 -1.262,-0.156c-1.422,-0.332 -2.543,-1.137 -3.297,-2.148c-0.754,-1.012 -1.145,-2.23 -1.113,-3.387c0.008,-0.305 0.047,-0.605 0.113,-0.895l2.523,-10.914c0.023,-0.105 0.125,-0.168 0.23,-0.145c0.059,0.012 0.102,0.051 0.125,0.098c0.387,0.656 0.762,1.203 1.168,1.574c0.383,0.352 0.793,0.547 1.262,0.523c0.309,-0.016 0.629,-0.109 0.977,-0.215c0.551,-0.16 1.172,-0.344 1.98,-0.305c0.566,0.027 1.211,0.281 1.766,0.652c0.551,0.371 1.023,0.859 1.242,1.367c0.027,0.055 0.023,0.121 -0.008,0.172c-0.273,0.547 -0.926,1.156 -1.715,1.629c-0.727,0.434 -1.578,0.758 -2.363,0.816c-0.117,0.008 -0.234,0.008 -0.352,0.004c-1.164,-0.047 -2.18,-0.723 -2.926,-1.715c-0.672,-0.895 -1.129,-2.047 -1.277,-3.234l-2.262,9.777c-0.059,0.266 -0.094,0.543 -0.102,0.816c-0.027,1.074 0.336,2.207 1.039,3.152c0.703,0.941 1.746,1.691 3.074,2c0.371,0.086 0.77,0.137 1.184,0.148c1.734,0.047 2.844,-0.586 3.828,-1.148c2.059,-1.176 2.859,-1.184 4.926,-0.004c0.984,0.562 2.094,1.195 3.828,1.148c0.418,-0.008 0.812,-0.062 1.184,-0.148c1.332,-0.305 2.371,-1.059 3.074,-2c0.703,-0.945 1.07,-2.078 1.039,-3.148c-0.008,-0.277 -0.039,-0.555 -0.102,-0.82l-2.262,-9.777c-0.148,1.188 -0.602,2.34 -1.273,3.234c-0.75,0.996 -1.766,1.668 -2.926,1.715l-0.004,0c-0.117,0.004 -0.234,0.004 -0.352,-0.004c-0.785,-0.059 -1.637,-0.383 -2.363,-0.816c-0.789,-0.473 -1.441,-1.082 -1.715,-1.629c-0.027,-0.051 -0.035,-0.113 -0.008,-0.172c0.223,-0.504 0.691,-0.996 1.242,-1.367c0.555,-0.371 1.199,-0.625 1.766,-0.652c0.809,-0.039 1.43,0.145 1.98,0.305c0.352,0.105 0.672,0.199 0.977,0.215c0.473,0.023 0.883,-0.172 1.266,-0.523c0.402,-0.371 0.777,-0.914 1.164,-1.57c0.023,-0.051 0.07,-0.086 0.125,-0.102c0.105,-0.023 0.207,0.043 0.23,0.145l2.527,10.914c0.066,0.289 0.102,0.59 0.109,0.895c0.031,1.156 -0.359,2.379 -1.113,3.387c-0.754,1.012 -1.871,1.82 -3.293,2.148c-0.398,0.09 -0.816,0.145 -1.262,0.156c-0.414,0.012 -0.793,-0.012 -1.145,-0.066c-0.012,0.012 -0.023,0.02 -0.039,0.027c-0.715,0.375 -1.613,0.723 -2.559,0.965c-0.848,0.219 -1.734,0.352 -2.551,0.348c-0.863,-0.008 -1.727,-0.133 -2.555,-0.367c-0.824,-0.234 -1.617,-0.578 -2.328,-1.016" style="fill:#03114d;fill-rule:nonzero;"/><path d="M35.193,38.833c-0.43,0.082 -0.902,0.129 -1.426,0.113c-0.445,-0.012 -0.867,-0.066 -1.262,-0.156c-1.422,-0.332 -2.543,-1.137 -3.297,-2.148c-0.754,-1.012 -1.145,-2.23 -1.113,-3.387c0.008,-0.305 0.047,-0.605 0.113,-0.895l2.523,-10.914c0.023,-0.105 0.125,-0.168 0.23,-0.145c0.059,0.012 0.102,0.051 0.125,0.098c0.387,0.656 0.762,1.203 1.168,1.574c0.383,0.352 0.793,0.547 1.262,0.523c0.309,-0.016 0.629,-0.109 0.977,-0.215c0.551,-0.16 1.172,-0.344 1.98,-0.305c0.566,0.027 1.211,0.281 1.766,0.652c0.551,0.371 1.023,0.859 1.242,1.367c0.027,0.055 0.023,0.121 -0.008,0.172c-0.273,0.547 -0.926,1.156 -1.715,1.629c-0.727,0.434 -1.578,0.758 -2.363,0.816c-0.117,0.008 -0.234,0.008 -0.352,0.004c-1.164,-0.047 -2.18,-0.723 -2.926,-1.715c-0.672,-0.895 -1.129,-2.047 -1.277,-3.234l-2.262,9.777c-0.059,0.266 -0.094,0.543 -0.102,0.816c-0.027,1.074 0.336,2.207 1.039,3.152c0.703,0.941 1.746,1.691 3.074,2c0.371,0.086 0.77,0.137 1.184,0.148c1.734,0.047 2.844,-0.586 3.828,-1.148c2.059,-1.176 2.859,-1.184 4.926,-0.004c0.984,0.562 2.094,1.195 3.828,1.148c0.418,-0.008 0.812,-0.062 1.184,-0.148c1.332,-0.305 2.371,-1.059 3.074,-2c0.703,-0.945 1.07,-2.078 1.039,-3.148c-0.008,-0.277 -0.039,-0.555 -0.102,-0.82l-2.262,-9.777c-0.148,1.188 -0.602,2.34 -1.273,3.234c-0.75,0.996 -1.766,1.668 -2.926,1.715l-0.004,0c-0.117,0.004 -0.234,0.004 -0.352,-0.004c-0.785,-0.059 -1.637,-0.383 -2.363,-0.816c-0.789,-0.473 -1.441,-1.082 -1.715,-1.629c-0.027,-0.051 -0.035,-0.113 -0.008,-0.172c0.223,-0.504 0.691,-0.996 1.242,-1.367c0.555,-0.371 1.199,-0.625 1.766,-0.652c0.809,-0.039 1.43,0.145 1.98,0.305c0.352,0.105 0.672,0.199 0.977,0.215c0.473,0.023 0.883,-0.172 1.266,-0.523c0.402,-0.371 0.777,-0.914 1.164,-1.57c0.023,-0.051 0.07,-0.086 0.125,-0.102c0.105,-0.023 0.207,0.043 0.23,0.145l2.527,10.914c0.066,0.289 0.102,0.59 0.109,0.895c0.031,1.156 -0.359,2.379 -1.113,3.387c-0.754,1.012 -1.871,1.82 -3.293,2.148c-0.398,0.09 -0.816,0.145 -1.262,0.156c-0.414,0.012 -0.793,-0.012 -1.145,-0.066c-0.012,0.012 -0.023,0.02 -0.039,0.027c-0.715,0.375 -1.613,0.723 -2.559,0.965c-0.848,0.219 -1.734,0.352 -2.551,0.348c-0.863,-0.008 -1.727,-0.133 -2.555,-0.367c-0.824,-0.234 -1.617,-0.578 -2.328,-1.016Z" style="fill:none;fill-rule:nonzero;stroke:#03114d;stroke-width:0.71px;"/><path d="M37.794,37.747c-0.605,0.348 -1.258,0.719 -2.066,0.953c0.59,0.328 1.23,0.59 1.898,0.781c0.793,0.223 1.625,0.344 2.453,0.352c0.781,0.004 1.633,-0.125 2.449,-0.336c0.75,-0.191 1.473,-0.453 2.09,-0.742c-0.91,-0.23 -1.621,-0.633 -2.281,-1.012c-1.93,-1.102 -2.602,-1.105 -4.543,0.004" style="fill:#fa2810;fill-rule:nonzero;"/><path d="M31.994,23.255c-0.277,-0.254 -0.543,-0.582 -0.801,-0.969l0,0.004c0.086,1.234 0.535,2.461 1.23,3.383c0.684,0.906 1.598,1.52 2.633,1.562l0.004,0c0.098,0.004 0.203,0 0.309,-0.008c0.723,-0.051 1.516,-0.352 2.195,-0.762c0.695,-0.414 1.266,-0.934 1.527,-1.398c-0.203,-0.406 -0.602,-0.809 -1.066,-1.117c-0.5,-0.336 -1.07,-0.566 -1.566,-0.59c-0.746,-0.039 -1.336,0.137 -1.855,0.289c-0.375,0.113 -0.715,0.215 -1.07,0.23c-0.582,0.027 -1.082,-0.203 -1.539,-0.625" style="fill:#fefefe;fill-rule:nonzero;"/><path d="M48.138,23.251c-0.457,0.422 -0.957,0.652 -1.539,0.625c-0.355,-0.016 -0.695,-0.117 -1.066,-0.227c-0.523,-0.156 -1.113,-0.328 -1.859,-0.293c-0.492,0.027 -1.066,0.254 -1.566,0.59c-0.465,0.309 -0.859,0.711 -1.066,1.117c0.262,0.469 0.836,0.984 1.527,1.402c0.684,0.406 1.473,0.707 2.195,0.762c0.105,0.008 0.211,0.008 0.309,0.004l0.004,0c1.035,-0.039 1.953,-0.656 2.633,-1.562c0.695,-0.922 1.145,-2.145 1.234,-3.379l0,-0.008c-0.262,0.387 -0.523,0.715 -0.805,0.969" style="fill:#fefefe;fill-rule:nonzero;"/><path d="M35.263,35.357c-1.383,0.191 -1.094,-0.836 -0.824,-1.555l1.184,-3.184c0.156,-0.426 0.773,-0.66 1.254,-0.66c1.09,0 1.055,0.297 3.199,0.32c2.148,-0.023 2.113,-0.32 3.203,-0.32c0.48,0 1.094,0.234 1.254,0.66l1.184,3.184c0.27,0.719 0.578,1.809 -0.805,1.613c-3.902,-0.543 -5.758,-0.602 -9.648,-0.059" style="fill:#03114d;"/><path d="M43.169,32.384l1.488,2.078l-1.488,0l0,-2.078Zm-1.523,1.254l1.098,0l0,0.824l-1.098,0l0,-0.824Zm-1.41,0l1.102,0l0,0.824l-1.102,0l0,-0.824Zm-1.469,0l1.102,0l0,0.824l-1.102,0l0,-0.824Zm-1.418,0l1.098,0l0,0.824l-1.098,0l0,-0.824Zm-0.398,-1.254l-1.492,2.078l1.492,0l0,-2.078Z" style="fill:#fefefe;stroke:#fefefe;stroke-width:0.22px;"/><path d="M42.814,32.095l1.305,-1.297l-1.305,0l0,1.297Zm-1.336,-0.781l0.965,0l0,-0.516l-0.965,0l0,0.516Zm-1.238,0l0.969,0l0,-0.516l-0.969,0l0,0.516Zm-1.285,0l0.965,0l0,-0.516l-0.965,0l0,0.516Zm-1.246,0l0.965,0l0,-0.516l-0.965,0l0,0.516Zm-0.348,0.781l-1.309,-1.297l1.309,0l0,1.297Z" style="fill:#fefefe;stroke:#fefefe;stroke-width:0.22px;"/><path d="M39.986,32.056c1.023,0 2.383,0.605 2.723,1.242l-5.344,0c0.43,-0.617 1.602,-1.242 2.621,-1.242" style="fill:#fa2810;"/><path d="M31.408,20.025c0.656,0.598 1.309,1.039 2.062,1.066c0.965,0.031 1.934,-0.461 2.891,-0.348c2.137,0.258 3.336,2.211 3.305,4.098c-0.594,-1.102 -1.941,-2.016 -3.262,-2.047c-1.254,-0.031 -2.137,0.598 -2.914,0.57c-0.859,-0.027 -1.797,-1.176 -2.332,-2.25c0.094,-0.496 0.176,-0.719 0.25,-1.09" style="fill:#fefefe;"/><path d="M48.728,20.001c-0.656,0.598 -1.312,1.039 -2.066,1.066c-0.961,0.035 -1.934,-0.461 -2.887,-0.348c-2.137,0.258 -3.34,2.215 -3.309,4.098c0.598,-1.102 1.945,-2.012 3.262,-2.047c1.258,-0.027 2.141,0.598 2.918,0.57c0.859,-0.027 1.797,-1.176 2.328,-2.25c-0.09,-0.496 -0.172,-0.719 -0.246,-1.09" style="fill:#fefefe;"/><path d="M35.579,23.392c0.469,0 0.891,0.188 1.195,0.492c0.305,0.305 0.492,0.727 0.492,1.191c0,0.469 -0.188,0.891 -0.492,1.195c-0.305,0.305 -0.727,0.492 -1.195,0.492c-0.465,0 -0.887,-0.188 -1.191,-0.492c-0.305,-0.305 -0.492,-0.727 -0.492,-1.195c0,-0.465 0.188,-0.887 0.492,-1.191c0.305,-0.305 0.727,-0.492 1.191,-0.492Zm0.922,0.766c-0.234,-0.234 -0.562,-0.383 -0.922,-0.383c-0.359,0 -0.684,0.148 -0.918,0.383c-0.238,0.234 -0.383,0.559 -0.383,0.918c0,0.363 0.145,0.688 0.383,0.922c0.234,0.238 0.559,0.383 0.918,0.383c0.359,0 0.688,-0.145 0.922,-0.383c0.234,-0.234 0.383,-0.559 0.383,-0.922c0,-0.359 -0.148,-0.684 -0.383,-0.918" style="fill:#03114d;fill-rule:nonzero;"/><path d="M35.579,24.669c0.227,0 0.41,0.184 0.41,0.406c0,0.227 -0.184,0.41 -0.41,0.41c-0.223,0 -0.406,-0.184 -0.406,-0.41c0,-0.223 0.184,-0.406 0.406,-0.406" style="fill:#03114d;"/><path d="M44.579,23.349c-0.465,0 -0.887,0.188 -1.191,0.492c-0.305,0.305 -0.496,0.727 -0.496,1.195c0,0.465 0.191,0.887 0.496,1.191c0.305,0.305 0.727,0.492 1.191,0.492c0.465,0 0.887,-0.188 1.195,-0.492c0.305,-0.305 0.492,-0.727 0.492,-1.191c0,-0.469 -0.188,-0.891 -0.492,-1.195c-0.309,-0.305 -0.73,-0.492 -1.195,-0.492Zm-0.922,0.766c0.238,-0.234 0.562,-0.383 0.922,-0.383c0.359,0 0.688,0.148 0.922,0.383c0.234,0.234 0.383,0.562 0.383,0.922c0,0.359 -0.148,0.684 -0.383,0.918c-0.234,0.238 -0.562,0.383 -0.922,0.383c-0.359,0 -0.684,-0.145 -0.922,-0.383c-0.234,-0.234 -0.379,-0.559 -0.379,-0.918c0,-0.359 0.145,-0.688 0.379,-0.922" style="fill:#03114d;fill-rule:nonzero;"/><path d="M44.579,24.626c-0.227,0 -0.406,0.184 -0.406,0.41c0,0.223 0.18,0.406 0.406,0.406c0.227,0 0.406,-0.184 0.406,-0.406c0,-0.227 -0.18,-0.41 -0.406,-0.41" style="fill:#03114d;"/><path d="M28.435,24.458c0.254,-0.738 0.828,-0.746 0.781,-2.18c-0.086,-0.754 -1.16,-0.75 -1.363,0.188c-0.09,2.176 -0.246,7.023 -0.023,6.543c0.223,-0.488 0.332,-3.863 0.605,-4.551" style="fill:#aa1317;"/><path d="M51.322,24.458c-0.258,-0.738 -0.828,-0.746 -0.785,-2.18c0.09,-0.754 1.16,-0.75 1.363,0.188c0.09,2.176 0.25,7.023 0.027,6.543c-0.227,-0.488 -0.336,-3.863 -0.605,-4.551" style="fill:#aa1317;"/><path d="M40.216,14.564c0.453,0.398 0.836,0.984 1.105,1.641c0.277,0.672 0.441,1.414 0.441,2.105c0,0.68 -0.188,1.48 -0.473,2.184c-0.289,0.719 -0.684,1.344 -1.094,1.668c-0.074,0.059 -0.18,0.055 -0.246,-0.008c-0.422,-0.344 -0.832,-0.977 -1.133,-1.699c-0.285,-0.688 -0.473,-1.465 -0.473,-2.16c0,-0.738 0.133,-1.473 0.418,-2.137c0.262,-0.613 0.656,-1.168 1.191,-1.605c0.078,-0.066 0.191,-0.059 0.262,0.012" style="fill:#03114d;"/><path d="M40.966,16.353c-0.227,-0.551 -0.531,-1.043 -0.895,-1.398c-0.422,0.383 -0.738,0.848 -0.957,1.355c-0.262,0.613 -0.387,1.293 -0.387,1.984c0,0.645 0.176,1.371 0.445,2.016c0.246,0.598 0.57,1.125 0.906,1.445c0.316,-0.305 0.621,-0.82 0.855,-1.402c0.266,-0.664 0.441,-1.41 0.441,-2.043c0,-0.641 -0.152,-1.336 -0.41,-1.957" style="fill:#fefefe;"/><path d="M40.064,16.869c0.359,0 0.68,0.168 0.91,0.441c0.227,0.266 0.363,0.629 0.363,1.031c0,0.398 -0.137,0.762 -0.363,1.027c-0.23,0.273 -0.551,0.445 -0.91,0.445c-0.355,0 -0.68,-0.172 -0.91,-0.445c-0.223,-0.266 -0.363,-0.629 -0.363,-1.027c0,-0.402 0.141,-0.766 0.363,-1.031c0.23,-0.273 0.555,-0.441 0.91,-0.441" style="fill:#03114d;"/><path d="M40.681,17.56c-0.16,-0.191 -0.379,-0.309 -0.617,-0.309c-0.238,0 -0.457,0.117 -0.617,0.309c-0.168,0.195 -0.27,0.473 -0.27,0.781c0,0.305 0.102,0.582 0.27,0.781c0.16,0.188 0.379,0.305 0.617,0.305c0.238,0 0.457,-0.117 0.617,-0.305c0.168,-0.199 0.273,-0.477 0.273,-0.781c0,-0.309 -0.105,-0.586 -0.273,-0.781" style="fill:#fefefe;"/><path d="M40.083,18.095c0.156,0 0.281,0.129 0.281,0.289c0,0.16 -0.125,0.293 -0.281,0.293c-0.156,0 -0.281,-0.133 -0.281,-0.293c0,-0.16 0.125,-0.289 0.281,-0.289" style="fill:#03114d;"/><path d="M39.658,4.036l0.258,-0.344c0.012,-0.023 0.031,-0.043 0.051,-0.059c0.09,-0.059 0.207,-0.035 0.27,0.051c0.117,0.164 0.227,0.32 0.332,0.473c1.055,1.492 2.113,2.992 2.113,4.758c0,0.648 -0.336,1.348 -0.828,1.883c-0.484,0.527 -1.129,0.902 -1.77,0.93l-0.07,0c-0.629,0 -1.305,-0.324 -1.824,-0.797c-0.527,-0.477 -0.902,-1.117 -0.93,-1.746l0,-0.066c0,-1.898 1.242,-3.547 2.398,-5.082" style="fill:#03114d;fill-rule:nonzero;"/><path d="M40.072,4.122l-0.109,0.145c-1.117,1.484 -2.32,3.082 -2.32,4.852l0,0.055l0.004,0c0.02,0.52 0.344,1.059 0.801,1.473c0.457,0.418 1.035,0.699 1.566,0.699l0.059,-0.004c0.531,-0.02 1.078,-0.344 1.5,-0.805c0.434,-0.469 0.723,-1.074 0.723,-1.621c0,-1.645 -1.023,-3.094 -2.039,-4.535l-0.184,-0.258" style="fill:#fefefe;fill-rule:nonzero;"/><path d="M39.744,6.388l0.113,-0.156c0.012,-0.023 0.031,-0.043 0.055,-0.059c0.086,-0.059 0.207,-0.035 0.266,0.051l0.148,0.223c0.48,0.707 0.965,1.422 0.965,2.27c0,0.328 -0.16,0.68 -0.398,0.945c-0.234,0.266 -0.551,0.453 -0.867,0.469l-0.035,0c-0.309,0 -0.637,-0.16 -0.891,-0.398c-0.25,-0.238 -0.434,-0.562 -0.445,-0.879l0,-0.02l-0.004,-0.02c0,-0.918 0.566,-1.699 1.094,-2.426" style="fill:#03114d;fill-rule:nonzero;"/><path d="M40.013,6.669c-0.48,0.66 -0.977,1.371 -0.977,2.145l0,0.023c0.008,0.215 0.141,0.441 0.328,0.613c0.184,0.176 0.414,0.297 0.625,0.297l0.02,0c0.207,-0.008 0.426,-0.148 0.598,-0.34c0.176,-0.203 0.297,-0.457 0.297,-0.691c0,-0.73 -0.445,-1.395 -0.891,-2.047" style="fill:#fa2810;fill-rule:nonzero;"/><path d="M29.962,7.841l0.035,-0.352c0,-0.02 0.004,-0.043 0.012,-0.062c0.035,-0.078 0.129,-0.117 0.207,-0.082c0.156,0.07 0.297,0.129 0.438,0.191c1.379,0.594 2.77,1.195 3.523,2.43c0.281,0.457 0.344,1.09 0.23,1.68c-0.117,0.578 -0.406,1.117 -0.844,1.41l-0.051,0.031c-0.441,0.27 -1.055,0.336 -1.625,0.227c-0.57,-0.113 -1.109,-0.398 -1.398,-0.828l0,-0.004l-0.02,-0.031l-0.012,-0.012c-0.812,-1.332 -0.648,-3.023 -0.496,-4.598" style="fill:#03114d;fill-rule:nonzero;"/><path d="M30.29,7.724l-0.016,0.148c-0.145,1.52 -0.305,3.156 0.457,4.398l0.004,0.012l0.02,0.027c0.234,0.355 0.699,0.598 1.195,0.691c0.496,0.098 1.027,0.043 1.398,-0.184l-0.004,0l0.043,-0.023c0.363,-0.242 0.609,-0.707 0.707,-1.211c0.102,-0.516 0.051,-1.062 -0.188,-1.449c-0.703,-1.152 -2.047,-1.734 -3.379,-2.309l-0.238,-0.102" style="fill:#fefefe;fill-rule:nonzero;"/><path d="M31.033,9.454l0.012,-0.156c0,-0.023 0.004,-0.043 0.016,-0.062c0.035,-0.082 0.129,-0.117 0.207,-0.082l0.199,0.094c0.641,0.289 1.285,0.582 1.648,1.18c0.145,0.23 0.18,0.543 0.129,0.832c-0.051,0.289 -0.191,0.555 -0.406,0.703l-0.004,0l-0.008,0.004l-0.016,0.012c-0.215,0.133 -0.516,0.16 -0.793,0.102c-0.281,-0.062 -0.547,-0.207 -0.691,-0.426l-0.004,-0.004l-0.004,-0.008l-0.012,-0.016c-0.391,-0.641 -0.332,-1.434 -0.273,-2.172" style="fill:#03114d;fill-rule:nonzero;"/><path d="M31.341,9.536c-0.051,0.672 -0.094,1.383 0.234,1.926l0.008,0.008l0.004,0.008c0.098,0.148 0.289,0.25 0.492,0.293c0.207,0.043 0.422,0.027 0.566,-0.062l0.008,-0.004l0.008,-0.008c0.141,-0.094 0.234,-0.281 0.273,-0.492c0.035,-0.219 0.012,-0.449 -0.09,-0.613c-0.312,-0.512 -0.91,-0.785 -1.504,-1.055" style="fill:#fa2810;fill-rule:nonzero;"/><path d="M24.697,12.372l-0.016,-0.355c0,-0.02 0,-0.039 0.008,-0.062c0.023,-0.082 0.109,-0.133 0.195,-0.105c0.16,0.043 0.309,0.086 0.457,0.129c1.445,0.402 2.902,0.809 3.82,1.934c0.336,0.414 0.488,1.035 0.449,1.633c-0.035,0.586 -0.25,1.16 -0.645,1.512l-0.047,0.039c-0.398,0.324 -0.996,0.469 -1.578,0.438c-0.582,-0.031 -1.152,-0.242 -1.496,-0.629l-0.004,-0.004l-0.02,-0.027l-0.012,-0.012c-0.988,-1.211 -1.051,-2.91 -1.113,-4.488" style="fill:#03114d;fill-rule:nonzero;"/><path d="M25.005,12.212l0.008,0.148c0.059,1.527 0.121,3.168 1.039,4.301l0.031,0.031c0.281,0.32 0.77,0.496 1.277,0.523c0.508,0.031 1.023,-0.094 1.359,-0.367l0.039,-0.031c0.328,-0.289 0.508,-0.781 0.539,-1.293c0.031,-0.523 -0.098,-1.062 -0.383,-1.414c-0.855,-1.047 -2.262,-1.438 -3.66,-1.828l-0.25,-0.07" style="fill:#fefefe;fill-rule:nonzero;"/><path d="M25.974,13.826l-0.012,-0.156c0,-0.023 0,-0.043 0.008,-0.066c0.023,-0.082 0.113,-0.129 0.195,-0.105l0.211,0.066c0.672,0.199 1.352,0.402 1.793,0.945c0.172,0.211 0.25,0.516 0.238,0.809c-0.012,0.293 -0.113,0.574 -0.309,0.75l-0.004,0l-0.02,0.02c-0.195,0.16 -0.488,0.227 -0.773,0.207c-0.285,-0.023 -0.57,-0.133 -0.742,-0.328l-0.023,-0.023c-0.473,-0.586 -0.52,-1.379 -0.562,-2.117" style="fill:#03114d;fill-rule:nonzero;"/><path d="M26.29,13.865c0.039,0.672 0.094,1.387 0.492,1.879l0.012,0.012c0.117,0.133 0.32,0.211 0.531,0.227c0.207,0.016 0.418,-0.031 0.551,-0.141l0.008,-0.004l0.004,-0.008c0.129,-0.113 0.195,-0.312 0.203,-0.523c0.012,-0.223 -0.047,-0.449 -0.168,-0.598c-0.379,-0.465 -1.008,-0.656 -1.633,-0.844" style="fill:#fa2810;fill-rule:nonzero;"/><path d="M49.521,7.915l-0.035,-0.352c0,-0.023 -0.004,-0.043 -0.012,-0.062c-0.035,-0.078 -0.129,-0.117 -0.211,-0.082c-0.152,0.066 -0.293,0.129 -0.438,0.191c-1.379,0.594 -2.766,1.191 -3.523,2.43c-0.277,0.457 -0.344,1.09 -0.227,1.68c0.113,0.578 0.406,1.117 0.844,1.41l0.051,0.031c0.441,0.27 1.051,0.332 1.621,0.223c0.574,-0.109 1.113,-0.395 1.398,-0.824l0.004,-0.004l0.02,-0.031l0.008,-0.012c0.816,-1.332 0.652,-3.023 0.5,-4.598" style="fill:#03114d;fill-rule:nonzero;"/><path d="M49.193,7.798l0.012,0.148c0.148,1.52 0.309,3.156 -0.453,4.398l-0.004,0.012l-0.02,0.027c-0.238,0.355 -0.699,0.598 -1.195,0.691c-0.5,0.094 -1.027,0.043 -1.398,-0.184l-0.039,-0.023c-0.367,-0.246 -0.609,-0.711 -0.711,-1.211c-0.102,-0.516 -0.047,-1.066 0.188,-1.453c0.707,-1.148 2.047,-1.73 3.379,-2.305l0.242,-0.102" style="fill:#fefefe;fill-rule:nonzero;"/><path d="M48.451,9.529l-0.012,-0.156c0,-0.023 -0.004,-0.047 -0.016,-0.066c-0.035,-0.078 -0.129,-0.113 -0.211,-0.078l-0.199,0.094c-0.637,0.289 -1.285,0.582 -1.648,1.18c-0.141,0.23 -0.176,0.543 -0.129,0.832c0.051,0.289 0.191,0.555 0.41,0.703l0,-0.004l0.004,0.004l0.008,0.004l0.012,0.012c0.219,0.133 0.52,0.16 0.797,0.098c0.281,-0.059 0.547,-0.207 0.691,-0.422l0,-0.004l0.016,-0.023c0.395,-0.645 0.332,-1.434 0.277,-2.172" style="fill:#03114d;fill-rule:nonzero;"/><path d="M48.138,9.611c0.055,0.668 0.098,1.383 -0.234,1.926l-0.008,0.016c-0.098,0.145 -0.289,0.25 -0.496,0.293c-0.203,0.043 -0.418,0.027 -0.562,-0.062l-0.008,-0.008l-0.008,-0.004c-0.145,-0.094 -0.238,-0.285 -0.273,-0.492c-0.039,-0.219 -0.012,-0.449 0.086,-0.613c0.316,-0.516 0.914,-0.785 1.504,-1.055" style="fill:#fa2810;fill-rule:nonzero;"/><path d="M54.787,12.447l0.012,-0.355c0.004,-0.02 0.004,-0.039 -0.004,-0.062c-0.023,-0.082 -0.109,-0.133 -0.195,-0.109c-0.16,0.047 -0.309,0.09 -0.461,0.133c-1.445,0.402 -2.902,0.809 -3.816,1.934c-0.336,0.414 -0.488,1.031 -0.453,1.633c0.035,0.586 0.254,1.16 0.648,1.508l0.043,0.043l0.004,0c0.398,0.324 0.996,0.469 1.574,0.438c0.582,-0.031 1.156,-0.242 1.5,-0.629l0,-0.004l0.023,-0.027l0.012,-0.012c0.984,-1.211 1.051,-2.91 1.113,-4.488" style="fill:#03114d;fill-rule:nonzero;"/><path d="M54.478,12.283l-0.008,0.152c-0.059,1.527 -0.121,3.168 -1.043,4.297l-0.004,0.012l-0.023,0.023c-0.285,0.32 -0.773,0.496 -1.277,0.523c-0.508,0.027 -1.023,-0.094 -1.359,-0.367l-0.039,-0.031c-0.328,-0.289 -0.508,-0.785 -0.539,-1.293c-0.031,-0.527 0.094,-1.062 0.383,-1.414c0.852,-1.047 2.262,-1.441 3.656,-1.832l0.254,-0.07" style="fill:#fefefe;fill-rule:nonzero;"/><path d="M53.509,13.9l0.008,-0.156c0.004,-0.023 0.004,-0.043 -0.004,-0.066c-0.027,-0.082 -0.113,-0.129 -0.199,-0.105l-0.207,0.062c-0.676,0.203 -1.352,0.406 -1.797,0.949c-0.168,0.207 -0.246,0.516 -0.238,0.809c0.012,0.289 0.117,0.574 0.312,0.75l0.008,0.008l0.016,0.012c0.195,0.16 0.488,0.227 0.773,0.207c0.285,-0.023 0.566,-0.133 0.742,-0.328l0,-0.004l0.008,-0.008l0.012,-0.016c0.477,-0.582 0.523,-1.375 0.566,-2.113" style="fill:#03114d;fill-rule:nonzero;"/><path d="M53.189,13.939c-0.039,0.672 -0.09,1.383 -0.488,1.875l-0.016,0.016c-0.117,0.133 -0.32,0.207 -0.527,0.223c-0.207,0.016 -0.418,-0.027 -0.551,-0.137l-0.008,-0.004l-0.008,-0.008c-0.125,-0.113 -0.195,-0.312 -0.203,-0.523c-0.008,-0.223 0.047,-0.449 0.168,-0.598c0.383,-0.465 1.012,-0.656 1.633,-0.844" style="fill:#fa2810;fill-rule:nonzero;"/><path d="M36.701,42.275c-0.699,-0.133 -1.387,-0.305 -2.047,-0.512c-1.215,-0.375 -2.336,-0.863 -3.266,-1.414c-0.406,-0.215 -0.812,-0.441 -1.223,-0.688c-0.859,-0.094 -1.965,-0.168 -2.98,-0.215c-1.125,-0.055 -2.148,-0.078 -2.617,-0.051c-0.195,0.008 -0.41,0.031 -0.645,0.051c-1.445,0.133 -3.648,0.332 -5.852,-1.023c-0.066,-0.039 -0.105,-0.109 -0.098,-0.191c0.008,-0.105 0.105,-0.18 0.211,-0.168c2.402,0.254 3.684,0.059 4.422,-0.059c0.277,-0.043 0.48,-0.074 0.648,-0.07c0.113,0.004 0.309,0.004 0.566,0.004c0.953,0 2.73,0 4.094,0.156c-0.598,-0.363 -1.41,-0.613 -2.422,-0.766c-1.395,-0.203 -3.16,-0.215 -5.258,-0.07c-0.277,0.016 -0.578,0.043 -0.875,0.07c-2.199,0.195 -4.402,0.387 -6.5,-1.773l0.004,0c-0.047,-0.051 -0.07,-0.121 -0.047,-0.191c0.031,-0.102 0.137,-0.156 0.238,-0.125c2.324,0.707 4.27,0.555 6.305,0.391c0.238,-0.02 0.48,-0.039 0.75,-0.059c1.332,-0.098 2.559,-0.035 3.707,0.141c0.926,0.141 1.805,0.359 2.641,0.633c-0.664,-0.781 -1.637,-1.383 -2.941,-1.773c-1.508,-0.449 -3.449,-0.617 -5.844,-0.441c-1.559,0.117 -3.344,0.164 -4.977,-0.184c-1.656,-0.355 -3.148,-1.121 -4.07,-2.637c-0.031,-0.055 -0.039,-0.121 -0.012,-0.18c0.047,-0.098 0.16,-0.137 0.258,-0.094c1.293,0.609 2.699,0.922 4.105,1.082c1.418,0.16 2.832,0.168 4.129,0.168c1.328,0 2.656,0.047 4.012,0.277c1.215,0.207 2.449,0.559 3.723,1.152c-0.426,-0.738 -1.383,-1.391 -2.832,-1.91c-1.711,-0.613 -4.094,-1.031 -7.086,-1.188c-0.43,-0.023 -0.863,-0.035 -1.301,-0.047c-2.949,-0.078 -6.195,-0.168 -7.867,-3.277c-0.035,-0.055 -0.039,-0.125 -0.012,-0.184c0.047,-0.098 0.16,-0.137 0.258,-0.094c1.328,0.633 2.746,1 4.195,1.199c1.453,0.203 2.938,0.23 4.395,0.184c1.602,-0.055 3.168,0.227 4.723,0.73c1.383,0.445 2.75,1.066 4.125,1.777c-0.531,-0.867 -1.836,-1.918 -3.668,-2.688c-1.699,-0.719 -3.844,-1.188 -6.238,-1.047c-2.188,0.129 -4.773,-0.031 -6.895,-0.973c-1.629,-0.723 -2.98,-1.902 -3.672,-3.762c-0.016,-0.051 -0.016,-0.105 0.012,-0.156c0.047,-0.094 0.164,-0.133 0.258,-0.082c1.422,0.746 3.059,1.469 4.73,1.941c1.344,0.383 2.703,0.602 3.992,0.539c2.199,-0.105 4.133,0.133 6.016,0.805c1.738,0.621 3.438,1.609 5.273,3.035c-0.418,-1.039 -1.602,-2.387 -3.66,-3.527c-1.82,-1.012 -4.312,-1.852 -7.555,-2.168c-0.566,-0.055 -1.172,-0.086 -1.789,-0.125c-4.012,-0.234 -8.613,-0.5 -9.238,-6.465c-0.004,-0.055 0.016,-0.113 0.059,-0.156c0.078,-0.074 0.199,-0.07 0.273,0.004c1.637,1.719 2.887,2.738 4.254,3.352c1.367,0.617 2.859,0.832 4.992,0.938c3.277,0.164 5.754,0.691 7.746,1.617c1.809,0.84 3.211,2.004 4.453,3.512c-0.203,-1.508 -1.113,-2.957 -2.859,-4.191c-1.801,-1.27 -4.484,-2.312 -8.191,-2.957c-0.738,-0.129 -1.543,-0.215 -2.375,-0.305c-4.457,-0.484 -9.59,-1.039 -9.055,-8.16c0.004,-0.055 0.031,-0.102 0.074,-0.137c0.082,-0.066 0.203,-0.055 0.27,0.031c1.652,2.082 3.449,3.461 5.379,4.379c1.934,0.918 4,1.379 6.191,1.621c2.637,0.293 4.746,0.945 6.469,1.855c1.531,0.812 2.758,1.832 3.781,2.984c-0.191,-1.262 -1.023,-2.562 -2.348,-3.707c-1.488,-1.289 -3.586,-2.371 -6.082,-2.988c-1.145,-0.285 -2.426,-0.453 -3.734,-0.621c-3.633,-0.477 -7.465,-0.977 -9.352,-4.027c-0.488,-0.789 -0.805,-1.734 -0.91,-2.906l0,-0.008c-0.105,-1.164 -0.008,-2.547 0.332,-4.223c0.203,-1.004 0.523,-1.645 0.859,-1.938c0.172,-0.148 0.355,-0.215 0.531,-0.203c0.184,0.012 0.348,0.105 0.492,0.277c0.266,0.316 0.453,0.934 0.473,1.836c0.164,7.227 6.012,7.926 10.633,8.48l0.164,0.02c3.051,0.367 5.75,1.363 7.641,2.891c1.781,1.434 2.852,3.336 2.844,5.609l0,0.012c-0.047,2.184 -0.047,4.277 0.109,6.234c0.152,1.945 0.461,3.75 1.031,5.363c0.566,1.605 1.211,3.246 2.047,4.723c0.828,1.465 1.852,2.77 3.168,3.723c0.008,0.004 0.016,0.008 0.023,0.012c0.34,0.289 0.738,0.566 1.184,0.832c1.297,0.676 2.562,1.188 3.797,1.543c0.504,0.145 1,0.262 1.492,0.355c1.035,0.191 2.098,0.289 3.141,0.273l0.098,0c1.043,0.016 2.105,-0.082 3.141,-0.273c0.492,-0.094 0.988,-0.211 1.492,-0.355c1.234,-0.355 2.5,-0.867 3.797,-1.543c0.445,-0.266 0.844,-0.543 1.188,-0.832c0.004,-0.004 0.012,-0.008 0.02,-0.012c1.316,-0.953 2.34,-2.258 3.168,-3.723c0.836,-1.477 1.48,-3.117 2.047,-4.723c0.57,-1.613 0.879,-3.418 1.031,-5.363c0.156,-1.957 0.156,-4.051 0.109,-6.234l0,-0.012c-0.008,-2.273 1.062,-4.176 2.844,-5.609c1.891,-1.527 4.59,-2.523 7.641,-2.891l0.164,-0.02c4.617,-0.555 10.469,-1.254 10.633,-8.48c0.02,-0.902 0.207,-1.52 0.473,-1.836c0.145,-0.172 0.312,-0.266 0.492,-0.277c0.18,-0.012 0.359,0.055 0.531,0.203c0.336,0.293 0.66,0.934 0.859,1.938c0.34,1.676 0.438,3.059 0.336,4.223l-0.004,0.008c-0.105,1.172 -0.418,2.117 -0.91,2.906c-1.887,3.051 -5.719,3.551 -9.352,4.027c-1.309,0.168 -2.59,0.336 -3.734,0.621c-2.496,0.617 -4.594,1.699 -6.082,2.988c-1.324,1.145 -2.156,2.445 -2.348,3.707c1.023,-1.152 2.25,-2.172 3.781,-2.984c1.723,-0.91 3.832,-1.562 6.469,-1.855c2.191,-0.242 4.258,-0.703 6.191,-1.621c1.93,-0.918 3.727,-2.297 5.379,-4.379c0.066,-0.086 0.188,-0.098 0.27,-0.031c0.043,0.035 0.07,0.082 0.074,0.137c0.535,7.121 -4.598,7.676 -9.055,8.16c-0.828,0.09 -1.637,0.176 -2.375,0.305c-3.707,0.645 -6.391,1.688 -8.191,2.957c-1.75,1.234 -2.656,2.684 -2.859,4.191c1.242,-1.508 2.645,-2.672 4.453,-3.512c1.992,-0.926 4.469,-1.453 7.75,-1.617c2.129,-0.105 3.625,-0.32 4.988,-0.938c1.367,-0.613 2.617,-1.633 4.258,-3.352c0.07,-0.074 0.191,-0.078 0.27,-0.004c0.043,0.043 0.062,0.102 0.059,0.156c-0.625,5.965 -5.227,6.23 -9.238,6.465c-0.617,0.039 -1.223,0.07 -1.789,0.125c-3.242,0.316 -5.734,1.156 -7.555,2.168c-2.059,1.141 -3.242,2.488 -3.66,3.527c1.836,-1.426 3.535,-2.414 5.273,-3.035c1.887,-0.672 3.816,-0.91 6.02,-0.805c1.285,0.062 2.648,-0.156 3.988,-0.539c1.668,-0.473 3.309,-1.195 4.73,-1.941c0.094,-0.051 0.211,-0.012 0.258,0.082c0.027,0.051 0.031,0.105 0.012,0.156c-0.691,1.859 -2.043,3.039 -3.672,3.762c-2.121,0.941 -4.707,1.102 -6.895,0.973c-2.395,-0.141 -4.539,0.328 -6.238,1.047c-1.832,0.77 -3.137,1.82 -3.668,2.688c1.375,-0.711 2.742,-1.332 4.125,-1.777c1.555,-0.504 3.121,-0.785 4.723,-0.73c1.457,0.047 2.941,0.02 4.398,-0.184c1.445,-0.199 2.863,-0.566 4.191,-1.199c0.098,-0.043 0.211,-0.004 0.258,0.094c0.027,0.059 0.02,0.129 -0.012,0.184c-1.672,3.109 -4.918,3.199 -7.867,3.277c-0.438,0.012 -0.871,0.023 -1.301,0.047c-2.992,0.156 -5.375,0.574 -7.086,1.188c-1.445,0.52 -2.406,1.172 -2.832,1.91c1.273,-0.594 2.508,-0.945 3.723,-1.152c1.355,-0.23 2.684,-0.277 4.012,-0.277c1.297,0 2.711,-0.008 4.129,-0.168c1.406,-0.16 2.816,-0.473 4.109,-1.082c0.094,-0.043 0.207,-0.004 0.254,0.094c0.027,0.059 0.023,0.125 -0.012,0.18c-0.922,1.516 -2.414,2.281 -4.07,2.637c-1.629,0.348 -3.418,0.301 -4.977,0.184c-2.395,-0.176 -4.336,-0.008 -5.844,0.441c-1.305,0.391 -2.277,0.992 -2.941,1.773c0.836,-0.273 1.715,-0.492 2.641,-0.633c1.148,-0.176 2.375,-0.238 3.707,-0.141c0.27,0.02 0.512,0.039 0.75,0.059c2.039,0.164 3.98,0.316 6.305,-0.391c0.102,-0.031 0.211,0.023 0.238,0.125c0.023,0.07 0,0.141 -0.043,0.191c-2.098,2.16 -4.301,1.969 -6.5,1.773c-0.297,-0.027 -0.598,-0.055 -0.875,-0.07c-2.098,-0.145 -3.863,-0.133 -5.258,0.07c-1.012,0.152 -1.824,0.402 -2.422,0.766c1.363,-0.156 3.141,-0.156 4.094,-0.156c0.258,0 0.453,0 0.566,-0.004c0.168,-0.004 0.371,0.027 0.648,0.07c0.738,0.117 2.02,0.312 4.422,0.059c0.105,-0.012 0.199,0.062 0.211,0.168c0.012,0.082 -0.031,0.152 -0.098,0.191c-2.199,1.355 -4.406,1.156 -5.852,1.023c-0.234,-0.02 -0.449,-0.043 -0.641,-0.051c-0.473,-0.027 -1.496,-0.004 -2.621,0.051c-1.016,0.047 -2.121,0.121 -2.98,0.215c-0.41,0.246 -0.816,0.473 -1.223,0.688c-0.93,0.551 -2.051,1.039 -3.266,1.414c-0.66,0.207 -1.348,0.379 -2.047,0.512c-1.141,0.223 -2.258,0.316 -3.352,0.293c-1.09,0.023 -2.203,-0.07 -3.348,-0.293" style="fill:#221f1f;fill-rule:nonzero;"/><path d="M29.829,39.244c-1.219,-0.961 -2.18,-2.219 -2.965,-3.609c-0.852,-1.504 -1.508,-3.16 -2.078,-4.781c-0.578,-1.648 -0.895,-3.484 -1.051,-5.461c-0.156,-1.965 -0.156,-4.07 -0.109,-6.273c0.008,-2.148 -1.008,-3.949 -2.699,-5.312c-1.836,-1.48 -4.465,-2.453 -7.449,-2.809l-0.164,-0.02c-4.762,-0.57 -10.797,-1.293 -10.969,-8.855c-0.02,-0.805 -0.172,-1.344 -0.383,-1.598c-0.074,-0.086 -0.148,-0.137 -0.223,-0.141c-0.078,-0.004 -0.164,0.031 -0.258,0.113c-0.277,0.238 -0.551,0.805 -0.734,1.723c-0.332,1.637 -0.43,2.984 -0.328,4.109c0.102,1.113 0.398,2.008 0.855,2.75c1.793,2.895 5.535,3.383 9.078,3.844c1.32,0.176 2.613,0.344 3.777,0.629c2.555,0.633 4.707,1.75 6.238,3.074c1.609,1.391 2.531,3.02 2.52,4.57c0,0.105 -0.086,0.188 -0.191,0.188c-0.059,0 -0.113,-0.027 -0.148,-0.07c-1.062,-1.301 -2.363,-2.445 -4.043,-3.336c-1.68,-0.891 -3.742,-1.527 -6.328,-1.812c-2.23,-0.25 -4.34,-0.719 -6.316,-1.66c-1.859,-0.883 -3.594,-2.18 -5.203,-4.098c-0.234,6.285 4.562,6.805 8.738,7.258c0.84,0.09 1.656,0.18 2.402,0.309c3.766,0.656 6.5,1.719 8.344,3.02c2.094,1.48 3.047,3.266 3.066,5.113c0,0.105 -0.086,0.191 -0.191,0.191c-0.062,0 -0.117,-0.031 -0.152,-0.074c-1.297,-1.699 -2.762,-2.988 -4.695,-3.887c-1.949,-0.902 -4.379,-1.422 -7.605,-1.582c-2.18,-0.109 -3.715,-0.332 -5.129,-0.969c-1.301,-0.586 -2.488,-1.516 -3.973,-3.02c0.824,5.086 5.078,5.336 8.801,5.551c0.621,0.035 1.223,0.07 1.805,0.129c3.301,0.32 5.848,1.18 7.707,2.211c2.559,1.418 3.832,3.188 4.004,4.355c0.016,0.105 -0.055,0.203 -0.16,0.219c-0.059,0.008 -0.113,-0.012 -0.156,-0.047c-1.977,-1.598 -3.777,-2.68 -5.613,-3.336c-1.84,-0.656 -3.723,-0.887 -5.875,-0.785c-1.332,0.066 -2.734,-0.16 -4.109,-0.551c-1.52,-0.43 -3.008,-1.062 -4.34,-1.734c0.695,1.48 1.875,2.453 3.266,3.074c2.055,0.91 4.578,1.062 6.719,0.938c2.457,-0.148 4.664,0.336 6.41,1.074c2.297,0.969 3.816,2.391 4.113,3.422c0.027,0.102 -0.031,0.207 -0.133,0.234c-0.051,0.016 -0.102,0.008 -0.145,-0.012c-1.527,-0.812 -3.043,-1.523 -4.559,-2.016c-1.516,-0.488 -3.039,-0.762 -4.594,-0.711c-1.477,0.047 -2.98,0.02 -4.461,-0.184c-1.281,-0.18 -2.543,-0.484 -3.746,-0.984c1.645,2.422 4.566,2.5 7.234,2.574c0.449,0.012 0.895,0.023 1.312,0.047c3.027,0.156 5.449,0.586 7.195,1.211c1.859,0.668 2.973,1.566 3.266,2.617c0.031,0.102 -0.031,0.207 -0.133,0.234c-0.047,0.016 -0.098,0.008 -0.137,-0.012c-1.402,-0.715 -2.754,-1.117 -4.078,-1.344c-1.332,-0.227 -2.641,-0.273 -3.949,-0.273c-1.312,0.004 -2.742,-0.004 -4.172,-0.168c-1.219,-0.141 -2.441,-0.391 -3.598,-0.848c0.863,1.059 2.094,1.629 3.438,1.918c1.586,0.34 3.344,0.289 4.871,0.176c2.441,-0.18 4.43,-0.008 5.984,0.457c1.648,0.492 2.812,1.32 3.512,2.422c0.055,0.09 0.027,0.207 -0.062,0.266c-0.055,0.035 -0.121,0.035 -0.18,0.012c-0.98,-0.355 -2.023,-0.641 -3.141,-0.812c-1.121,-0.172 -2.32,-0.23 -3.621,-0.137c-0.23,0.02 -0.492,0.039 -0.75,0.059c-1.848,0.148 -3.617,0.289 -5.68,-0.199c1.805,1.469 3.711,1.301 5.617,1.133c0.289,-0.027 0.574,-0.051 0.883,-0.07c2.125,-0.148 3.918,-0.137 5.34,0.074c1.453,0.215 2.527,0.633 3.191,1.301c0.078,0.078 0.074,0.199 0,0.273c-0.047,0.047 -0.109,0.062 -0.168,0.051l-0.004,0c-1.355,-0.25 -3.625,-0.254 -4.746,-0.254c-0.262,0 -0.465,0 -0.574,-0.004c-0.137,-0.004 -0.328,0.027 -0.582,0.066c-0.652,0.102 -1.723,0.27 -3.574,0.145c1.816,0.809 3.586,0.648 4.797,0.535c0.246,-0.02 0.469,-0.043 0.66,-0.051c0.48,-0.027 1.516,-0.004 2.656,0.051c0.883,0.039 1.828,0.102 2.625,0.18" style="fill:#03114d;fill-rule:nonzero;"/><path d="M50.271,39.244c1.219,-0.961 2.18,-2.219 2.965,-3.609c0.852,-1.504 1.508,-3.16 2.078,-4.781c0.582,-1.648 0.895,-3.484 1.051,-5.461c0.16,-1.965 0.16,-4.07 0.109,-6.273c-0.008,-2.148 1.008,-3.949 2.699,-5.312c1.836,-1.48 4.465,-2.453 7.449,-2.809l0.164,-0.02c4.762,-0.57 10.797,-1.293 10.969,-8.855c0.02,-0.805 0.172,-1.344 0.387,-1.598c0.07,-0.086 0.148,-0.137 0.219,-0.141c0.078,-0.004 0.164,0.031 0.258,0.113c0.277,0.238 0.551,0.805 0.734,1.723c0.332,1.637 0.43,2.984 0.328,4.109c-0.102,1.113 -0.398,2.008 -0.855,2.75c-1.793,2.895 -5.535,3.383 -9.078,3.844c-1.32,0.176 -2.613,0.344 -3.777,0.629c-2.555,0.633 -4.707,1.75 -6.238,3.074c-1.609,1.391 -2.531,3.02 -2.52,4.57c0,0.105 0.086,0.188 0.191,0.188c0.059,0 0.113,-0.027 0.148,-0.07c1.062,-1.301 2.363,-2.445 4.043,-3.336c1.68,-0.891 3.742,-1.527 6.328,-1.812c2.23,-0.25 4.34,-0.719 6.316,-1.66c1.855,-0.883 3.594,-2.18 5.203,-4.098c0.234,6.285 -4.562,6.805 -8.738,7.258c-0.84,0.09 -1.656,0.18 -2.402,0.309c-3.766,0.656 -6.5,1.719 -8.344,3.02c-2.094,1.48 -3.047,3.266 -3.066,5.113c0,0.105 0.086,0.191 0.191,0.191c0.062,0 0.117,-0.031 0.152,-0.074c1.297,-1.699 2.762,-2.988 4.695,-3.887c1.949,-0.902 4.379,-1.422 7.605,-1.582c2.18,-0.109 3.715,-0.332 5.129,-0.969c1.301,-0.586 2.488,-1.516 3.969,-3.02c-0.82,5.086 -5.074,5.336 -8.797,5.551c-0.621,0.035 -1.223,0.07 -1.805,0.129c-3.301,0.32 -5.848,1.18 -7.703,2.211c-2.559,1.418 -3.836,3.188 -4.008,4.355c-0.016,0.105 0.055,0.203 0.16,0.219c0.059,0.008 0.113,-0.012 0.156,-0.047c1.977,-1.598 3.777,-2.68 5.613,-3.336c1.84,-0.656 3.723,-0.887 5.875,-0.785c1.332,0.066 2.734,-0.16 4.109,-0.551c1.52,-0.43 3.008,-1.062 4.34,-1.734c-0.695,1.48 -1.875,2.453 -3.266,3.074c-2.055,0.91 -4.578,1.062 -6.719,0.938c-2.457,-0.148 -4.664,0.336 -6.41,1.074c-2.297,0.969 -3.816,2.391 -4.109,3.422c-0.031,0.102 0.027,0.207 0.129,0.234c0.051,0.016 0.102,0.008 0.145,-0.012c1.527,-0.812 3.043,-1.523 4.559,-2.016c1.516,-0.488 3.039,-0.762 4.594,-0.711c1.477,0.047 2.98,0.02 4.461,-0.184c1.281,-0.18 2.543,-0.484 3.746,-0.984c-1.645,2.422 -4.566,2.5 -7.234,2.574c-0.449,0.012 -0.895,0.023 -1.312,0.047c-3.027,0.156 -5.449,0.586 -7.195,1.211c-1.859,0.668 -2.973,1.566 -3.266,2.617c-0.031,0.102 0.031,0.207 0.133,0.234c0.047,0.016 0.098,0.008 0.137,-0.012c1.402,-0.715 2.754,-1.117 4.078,-1.344c1.332,-0.227 2.641,-0.273 3.949,-0.273c1.312,0.004 2.742,-0.004 4.172,-0.168c1.219,-0.141 2.441,-0.391 3.598,-0.848c-0.863,1.059 -2.094,1.629 -3.438,1.918c-1.586,0.34 -3.34,0.289 -4.871,0.176c-2.441,-0.18 -4.43,-0.008 -5.98,0.457c-1.652,0.492 -2.816,1.32 -3.512,2.422c-0.059,0.09 -0.031,0.207 0.059,0.266c0.055,0.035 0.121,0.035 0.18,0.012c0.98,-0.355 2.023,-0.641 3.141,-0.812c1.121,-0.172 2.32,-0.23 3.621,-0.137c0.23,0.02 0.492,0.039 0.75,0.059c1.848,0.148 3.617,0.289 5.68,-0.199c-1.801,1.469 -3.711,1.301 -5.617,1.133c-0.289,-0.027 -0.574,-0.051 -0.883,-0.07c-2.125,-0.148 -3.918,-0.137 -5.34,0.074c-1.449,0.215 -2.527,0.633 -3.191,1.301c-0.074,0.078 -0.074,0.199 0,0.273c0.047,0.047 0.109,0.062 0.168,0.051l0.004,0c1.355,-0.25 3.625,-0.254 4.746,-0.254c0.262,0 0.465,0 0.574,-0.004c0.137,-0.004 0.328,0.027 0.582,0.066c0.652,0.102 1.723,0.27 3.574,0.145c-1.816,0.809 -3.586,0.648 -4.797,0.535c-0.246,-0.02 -0.469,-0.043 -0.66,-0.051c-0.48,-0.027 -1.516,-0.004 -2.656,0.051c-0.883,0.039 -1.828,0.102 -2.625,0.18" style="fill:#03114d;fill-rule:nonzero;"/></g></svg>