<?xml version="1.0" encoding="UTF-8" standalone="no"?>
<!-- Created with Inkscape (http://www.inkscape.org/) -->

<svg
   xmlns:dc="http://purl.org/dc/elements/1.1/"
   xmlns:cc="http://creativecommons.org/ns#"
   xmlns:rdf="http://www.w3.org/1999/02/22-rdf-syntax-ns#"
   xmlns:svg="http://www.w3.org/2000/svg"
   xmlns="http://www.w3.org/2000/svg"
   xmlns:sodipodi="http://sodipodi.sourceforge.net/DTD/sodipodi-0.dtd"
   xmlns:inkscape="http://www.inkscape.org/namespaces/inkscape"
   width="302"
   height="181.05223"
   viewBox="0 0 79.904166 47.903403"
   version="1.1"
   id="svg3017"
   inkscape:version="0.92.0 r15299"
   sodipodi:docname="niki.svg">
  <defs
     id="defs3011" />
  <sodipodi:namedview
     id="base"
     pagecolor="#ffffff"
     bordercolor="#666666"
     borderopacity="1.0"
     inkscape:pageopacity="0.0"
     inkscape:pageshadow="2"
     inkscape:zoom="2.6733333"
     inkscape:cx="150"
     inkscape:cy="89.526118"
     inkscape:document-units="mm"
     inkscape:current-layer="layer1"
     showgrid="false"
     fit-margin-top="0"
     fit-margin-left="0"
     fit-margin-right="0"
     fit-margin-bottom="0"
     units="px"
     inkscape:window-width="1280"
     inkscape:window-height="744"
     inkscape:window-x="-4"
     inkscape:window-y="-4"
     inkscape:window-maximized="1" />
  <metadata
     id="metadata3014">
    <rdf:RDF>
      <cc:Work
         rdf:about="">
        <dc:format>image/svg+xml</dc:format>
        <dc:type
           rdf:resource="http://purl.org/dc/dcmitype/StillImage" />
        <dc:title></dc:title>
      </cc:Work>
    </rdf:RDF>
  </metadata>
  <g
     inkscape:label="Layer 1"
     inkscape:groupmode="layer"
     id="layer1"
     transform="translate(181.05064,-340.15388)">
    <path
       id="path2979"
       d="m -101.65588,360.34981 c -1.09391,-5.30112 -5.30101,-10.51802 -10.34968,-12.87411 l -0.16833,-0.33657 c 1.26224,-0.50489 2.44022,-0.33656 3.70233,-0.1682 1.00979,0 2.10369,1.09387 2.86091,0.1682 -2.52421,-1.51455 -5.30101,-2.27189 -7.99366,-3.44987 -11.61174,-2.86091 -24.90647,-4.29134 -37.44402,-2.44009 -12.03251,1.76699 -26.75767,6.56316 -29.61858,20.27861 -0.75722,7.40466 2.10369,13.96783 8.33018,18.25916 16.4081,10.51794 42.99761,10.68631 59.48947,0.42077 6.98399,-4.12311 12.70574,-11.35943 11.1911,-19.85791 z m -10.60212,12.87392 h -0.42065 c -0.3367,-6.05827 1.00966,-11.78006 1.51455,-17.67015 -0.50489,-1.09391 -1.34635,-2.01944 -2.44022,-2.52434 -1.34622,-0.16832 -2.35601,0.33657 -3.0291,1.43043 -1.59876,6.05835 -1.26223,13.04233 -1.93532,19.60554 0,0.92554 0.84146,1.767 1.68287,2.10357 v 0.50489 c -9.67652,5.72171 -21.87736,6.56317 -33.74154,5.55352 -6.64743,-1.00978 -12.95822,-2.52433 -18.34341,-6.56317 l -0.0841,-0.50489 3.70232,-10.93875 h 0.42069 l 5.38519,13.37885 c 1.34631,1.17811 2.69267,2.18777 4.71211,1.76712 0.5049,-0.42081 1.34632,-0.9257 1.43044,-1.59879 0.42064,-8.751 1.51455,-17.08118 4.37541,-24.73829 -0.0841,-0.84141 -0.84142,-1.59875 -1.59864,-2.01944 -2.01957,-0.75734 -3.45,0.84146 -4.71211,1.93537 -1.09391,4.03885 -2.18777,7.99362 -2.69254,12.28495 h -0.42081 c -1.43043,-3.61825 -3.19743,-6.98398 -3.7864,-10.93875 -1.00979,-1.09374 -2.52434,-1.17799 -3.78645,-1.09374 -1.00978,0.25228 -2.01944,1.09374 -2.44021,2.10353 -1.85112,4.79622 -2.94498,9.92897 -4.96442,14.64097 h -0.50489 c -1.43043,-2.94498 -2.01944,-7.32043 -0.58901,-10.43376 6.56324,-11.35942 20.02617,-12.8741 32.31117,-13.6313 5.97416,0 12.28495,0.1682 17.67015,2.01945 6.73153,1.2621 14.38853,4.12296 17.08118,11.19109 1.09391,5.30108 -0.33657,10.68628 -4.79623,14.13616 z m -9.00327,-20.3628 c -4.29148,-0.33657 -7.48887,2.77679 -10.93876,5.13275 h -0.75721 c 0.16824,-2.01944 0.16824,-4.12296 0.58901,-5.80583 -0.50489,-0.92558 -1.76712,-1.767 -3.02923,-1.85112 -1.17799,0.25232 -2.35597,1.00966 -2.69254,2.18764 l -1.00978,9.67653 -1.34635,1.26223 c -0.2524,0.92554 0.50489,1.43043 0.9257,2.10353 l -1.59879,10.93875 0.25244,1.767 c 0.42065,1.00966 1.51455,1.68288 2.60846,1.767 1.2621,-0.16833 2.69253,-0.84146 3.11331,-2.18777 l 0.84145,-7.99366 0.25245,-0.42065 c 1.59863,0.84142 3.11331,1.85108 4.62786,2.94498 2.77678,1.34631 4.29133,5.13275 7.90954,4.45967 0.50477,-0.25245 1.34619,-0.58901 1.51456,-1.34635 0.33652,-1.26211 -0.0841,-2.44022 -0.6731,-3.44988 -3.53414,-2.69267 -7.15224,-5.63764 -10.68631,-8.07788 2.35597,-2.01945 5.04864,-3.61807 7.6571,-5.30101 1.26211,-1.93532 6.64732,0 4.62786,-4.03885 -0.50489,-0.84146 -1.34635,-1.51468 -2.18765,-1.76713 z m -23.64435,-1.2621 c -0.84146,0.25244 -1.68292,0.84145 -1.93537,1.59879 -1.34631,7.57285 -2.27185,15.22995 -3.70233,22.80291 l 0.25245,1.76699 c 0.42069,1.00978 1.59868,1.43043 2.44009,2.01944 1.00979,0.0841 2.44026,-0.0841 2.94515,-1.2621 l 3.61807,-25.15906 c -0.84146,-1.09391 -2.01944,-2.10357 -3.61807,-1.767 z"
       inkscape:connector-curvature="0"
       style="clip-rule:evenodd;fill:#c20437;fill-rule:evenodd;stroke-width:0.26501125;image-rendering:optimizeQuality;shape-rendering:geometricPrecision;text-rendering:geometricPrecision" />
  </g>
</svg>
