<svg version="1.2" xmlns="http://www.w3.org/2000/svg" viewBox="0 0 1552 2054" width="1552" height="2054"><style>.a{fill:#293a66}</style><path fill-rule="evenodd" class="a" d="m505.9 0.9c182.3-2.7 275.5 81 317.6 218.5 5.9 19.5 8.2 41.2 12.2 62.9q0.9 16.3 2.3 32.1c3.2 18.6 0 53.9-2.7 69.7q-8.6 60.2-17.2 119.9c-3.2 19-5.4 57.9-2.3 78.7q1.8 27.2 3.6 53.9c6.8 41.6 10.4 80.9 21.3 117.6 85.5 285.9 278.3 477.7 573.7 552.8 42.6 10.9 88.3 14.1 137.6 18.6v0.5l-20.8 62.4c-9.5 24.9-20.4 48.8-30.3 72.4-5 10.8-15.4 39.8-22.7 47-27.1 0-55.6-4-79.6-9q-28.9-5.5-57.9-10.4c-46.2-11.8-90.1-24-131.2-40.3-205.5-81.9-354.3-214.9-462-395-28.5-47.5-49.8-98.6-71-153.8-7.7-19-16.3-40.7-20-62q-0.4 0.5-1.3 0.9-25.4 49.4-50.7 99.1-31.7 62.5-63.8 125.3c-35.3 61.1-67 123.6-89.1 197.8-9.1 30.3-11.8 62.8-17.7 96.3l-2.7 42.1c-2.3 14-2.7 36.2-0.4 50.7l1.8 38.9c4.5 26.7 6.3 52.9 12.2 76.9 6.8 27.6 11.8 53.4 21.7 78.3 46.2 118.5 111.8 216.2 204.1 288.6 34.4 26.7 67.8 48.9 106.8 71.5 11.3 6.3 23.5 14.5 36.2 18.5v0.9l-45.3 9.5-62.4 10q-41.7 4.1-82.8 8.1l-34.4 0.9c-17.2 2.8-47.5 1.8-63.8-0.9l-24.5-1.3-12.6-8.6c-12.2-8.2-24-16.3-35.3-24.9-20.8-14.5-39.4-30.3-58.8-45.7q-11.4-10.9-23.1-21.7c-10.9-8.6-21.7-19-30.3-29.9l-23.6-24.4c-15.8-20.4-33.4-39.4-48.8-60.6-53.9-75.6-98.7-162-124.9-265.1q-3.6-24.9-7.7-50.3c-5-27.6-5.9-57.9-5.9-90q0-16.3 0.5-32.6l2.7-48.8c7.2-40.8 10.4-80.1 21.2-116.8 14.1-47 29.5-90.4 47.6-132.5 22.1-49.8 51.5-93.7 79.1-137.6 64.3-101.3 139.4-192.2 205.5-291.3 46.6-70.1 91.4-139.8 116.7-231.2 15.8-57 15.4-118.1-6.3-167.9-32.6-72.8-122.7-128.4-234-99.9-55.2 14-96.8 37.1-135.3 67.4-25.7 20.3-70.5 73.3-60.1 125.3 9.9 51.1 51.1 74.6 100 86.9 13.1 3.1 25.3 2.2 39.8 4.5 16.3 2.7 37.1 0.9 51.6-1.8 47.5-8.6 86.4-21.7 124.8-38.5q26.3-11.3 53-23.1l24.4-12.6c10.4-3.6 17.7 4 19 11.7 1.8 9.5-11.7 23.6-15.8 29.4-19.5 26.3-41.2 50.3-67 70.2-47.5 36.6-98.2 61.5-166.5 78.7-111.3 28-244.3-9.1-293.2-70.6-13.6-16.7-24.9-35.3-31.2-59.7-14-57 2.7-120.4 20.3-160.2 53.4-121.7 172.4-205.8 305.5-247.9 35.3-10.9 72.4-16.3 112.2-24l47.9-4z"/></svg>