<svg xmlns="http://www.w3.org/2000/svg" width="276.87036" height="275.43744"><path d="M141.09142 0v36.5625c16.11409-.97641 28.72515-11.29644 37.5625-30.71875C166.60766 2.19628 153.99493.23334 141.09142 0zm-5.84375.03125c-12.63873.29458-25.00289 2.2362-36.8125 5.8125 8.69833 19.11946 21.05588 29.43968 36.8125 30.6875v-36.5zM92.84142 7.6875c-10.92257 3.82787-21.33021 9.0257-31 15.53125 21.88154 25.00771 46.56322 38.15998 73.40625 39.15625v-20c-18.18276-1.2776-32.77122-13.19984-42.40625-34.6875zm91.375 0c-9.76743 21.7839-24.59305 33.72082-43.125 34.71875v20c27.13429-.77451 52.03659-13.94479 74.125-39.1875-9.67144-6.50555-20.07909-11.70338-31-15.53125zM57.06017 26.59375c-5.59699 4.12243-10.93132 8.67966-15.9375 13.6875-2.86303 2.86302-5.57953 5.87256-8.15625 8.9375C54.88436 73.66212 91.88013 87.87074 135.24767 88.5625V68.21875c-28.76441-.99461-55.0416-14.98222-78.1875-41.625zm162.96875 0c-23.34945 26.87778-49.88017 40.8834-78.9375 41.65625v20.34375c43.69357-.5362 80.95297-14.78765 103-39.375-2.57838-3.06328-5.26031-6.07282-8.125-8.9375-5.00618-5.00783-10.34051-9.56506-15.9375-13.6875zm-190.75 27.21875c-8.54939 11.0864-15.29132 23.28194-20.0625 36.25 39.88225 20.85713 87.79069 24.08616 126.03125 24.25V94.40625C90.62734 93.71283 52.37352 79.05189 29.27892 53.8125zm218.53125 0c-23.22699 25.38337-61.77571 40.08715-106.71875 40.625v19.875c38.36137-.12412 86.63752-3.25385 126.78125-24.25-4.76952-12.96971-11.51311-25.16526-20.0625-36.25zm-240.5 41.84375c-12.03302 32.43671-7.16089 65.30508 0 84.125 40.53099-20.9134 88.54226-24.29148 127.0625-24.5v.0625h8.03125v-.0625c38.53017.20356 86.60209 3.575 127.15625 24.5 7.1609-18.81992 12.03302-51.68994 0-84.125-40.5525 20.92665-88.62443 24.29314-127.15625 24.5v-.0937h-8.03125v.0937c-38.52024-.20852-86.53151-3.5866-127.0625-24.5zm12.34375 28.78125h32.8125c5.21304 0 10.8125 3.43254 10.8125 9.84375 0 .48159-.03251.95942-.09375 1.40625l7.96875-11.21875h16.59375l13.8125 18.1875v-18.1875h17.9375l15.90625 16.375V124.4375h13.25c.79437 0 .65204.625 0 .625-5.24614 0-7.46875 3.61338-7.46875 5.5v21.5h-9.625c-3.29001 0-5.26843-1.78625-6.28125-2.84375l-17.9375-18.25v12.3125c.0943 4.8986 3.53676 7.59375 8.78125 7.59375.65205 0 .79603 1.1875 0 1.1875H96.46642c-3.76167 0-6.04968-1.5532-7.0625-3.0625l-3.75-4.90625h-16.9375c-1.15845 0-3.44014.56265-3.8125 2.40625-.657 3.25359 1.66012 4.375 6.90625 4.375.65039 0 .79437 1.21875 0 1.21875H51.27892c.65204-.753 2.15374-2.93052 3.09375-4.0625l3.78125-5.3125c-1.74595.93504-3.73633 1.40625-5.6875 1.40625l-14.9375-.0312c-1.1568 0-3.8125.52128-3.8125 2.40625 0 3.64416 1.66175 4.375 6.90625 4.375.65204 0 .79602 1.21875 0 1.21875H19.65392v-27.65625zm151.15625.625h16.59375l13.78125 18.1875v-18.1875h17.0625c-.0728 0 9.9375 12.59375 9.9375 12.59375l9.3125-12.59375h23c.79602 0 .65204.875 0 .875-6.79847 0-8 3.33212-8 5.21875v15.0625c0 1.88663 1.20153 5.21875 8 5.21875.65204 0 .79602.625 0 .625h-20.25v-19.90625l-14.09375 19.90625h-3.40625l-15.78125-19.53125v11.3125c0 3.92219 3.56801 7.625 8.8125 7.625.65205 0 .79436.59375 0 .59375h-19.65625c-3.76167 0-6.08259-.9611-7.09375-2.46875l-3.71875-4.90625h-16.96875c-1.1568 0-3.62238.52789-3.78125 2.40625-.28134 3.35124 1.66176 4.375 6.90625 4.375.65204 0 .79602.59375 0 .59375h-20.5625c.65039-.75134 2.18499-2.33677 3.125-3.46875l16.78125-23.53125zm-95.8125 5-5.71875 8h11.78125l-6.0625-8zm-41.46875.46875v7.53125h11.03125c1.99253 0 3.625-1.70596 3.625-3.78125 0-2.07528-1.63247-3.75-3.625-3.75H33.52892zm141.09375.125-5.6875 8h11.78125l-6.09375-8zm-39.375 30.4375c-38.2389.16384-86.149 3.42412-126.03125 24.28125 4.77118 12.96971 11.51311 25.1636 20.0625 36.25 23.09625-25.23939 61.34842-39.90033 105.96875-40.59375v-19.9375zm5.84375 0V181c44.9149.5362 83.42263 15.21057 106.65625 40.5625 8.39547-10.91098 15.20858-23.08354 20.0625-36.21875-40.13546-20.97629-88.37062-24.12422-126.71875-24.25zm0 25.75v20.34375c29.03416.77286 55.53877 14.72775 78.875 41.5625 8.9052-6.54691 16.99739-14.11075 24.09375-22.5625-22.05365-24.55922-59.30166-38.80755-102.96875-39.34375zm-5.84375.03125c-43.36588.69011-80.36165 14.89872-102.28125 39.34375 2.57838 3.06328 5.29321 6.04157 8.15625 8.90625 5.00783 5.00784 10.34217 9.59632 15.9375 13.71875 23.1459-26.64443 49.4231-40.63204 78.1875-41.625V186.875zm5.84375 26.15625v20c18.51375.99793 33.32467 12.91703 43.09375 34.65625 11.03013-3.88579 21.45104-9.11838 31-15.53125-22.07516-25.20134-46.98097-38.35214-74.09375-39.125zm-5.84375.0312c-26.84303.99793-51.52471 14.14854-73.40625 39.15625 9.66979 6.50721 20.07743 11.70173 31 15.53125 9.63503-21.48766 24.22349-33.40824 42.40625-34.6875v-20zm5.84375 25.8125v36.5625c13.02929-.23831 25.61572-2.27533 37.53125-5.90625-8.83569-19.38259-21.43371-29.6815-37.53125-30.65625zm-5.84375.0312c-15.75827 1.24781-28.11582 11.5697-36.8125 30.6875 11.80961 3.57631 24.17212 5.51626 36.8125 5.8125v-36.5z" fill="#2b67ac"/></svg>