<svg version="1.2" xmlns="http://www.w3.org/2000/svg" viewBox="0 0 1570 1279" width="1570" height="1279">
	<title>PGSUS</title>
	<style>
		.s0 { fill: #dc2c2b } 
	</style>
	<g id="1170">
		<g id="Main-Page">
			<g id="Header">
				<g id="logo-pegasus">
					<path id="path-1" fill-rule="evenodd" class="s0" d="m409 18.8l985.6-18.8c0 0 151.3 48.5 171.8 231.8 21.2 183.3-73.1 368.3-215.2 443.1-142.2 74.2-234.7 91.9-342.6 94.2l-311.8 6.3-165.6 402c0 0 69.1 62.2-2.3 91.9l-515.6 9.7c0 0-22.3-11.4-8-39.4 13.7-28.5 438.5-1057.5 438.5-1057.5 0 0 46.3-33.1 2.3-71.9 0 0-50.2-26.8-54.2-30.8-18.3-20 17.1-60.6 17.1-60.6zm350 599.6c0 0 15.4 2.3 38.8 2.3 38.3 0 98.8-5.8 147.4-33.7 45.1-26.3 119.9-90.2 147.9-166.2 20.5-58.2 47.9-141 7.4-203.8-31.4-48.6-47.4-62.8-105.1-73.7-28.5-5.7-46.8 0.6-46.8 0.6z"/>
				</g>
			</g>
		</g>
	</g>
</svg>