<?xml version="1.0" encoding="UTF-8" standalone="no"?>
<!DOCTYPE svg PUBLIC "-//W3C//DTD SVG 1.1//EN" "http://www.w3.org/Graphics/SVG/1.1/DTD/svg11.dtd">
<svg width="100%" height="100%" viewBox="0 0 269 190" version="1.1" xmlns="http://www.w3.org/2000/svg" xmlns:xlink="http://www.w3.org/1999/xlink" xml:space="preserve" xmlns:serif="http://www.serif.com/" style="fill-rule:evenodd;clip-rule:evenodd;stroke-linejoin:round;stroke-miterlimit:2;">
    <g transform="matrix(4.166667,0,0,4.166667,0,0)">
        <g transform="matrix(1,0,0,1,-20.662026,-1.085994)">
            <path d="M47.254,37.691L82.272,1.086L81.86,7.146L51.722,39.076C51.183,39.598 51.564,39.937 51.564,39.937C52.071,40.275 52.451,39.629 52.451,39.629L81.733,8.715L81.321,14.528L58.282,39.045C57.743,39.568 58.123,39.906 58.123,39.906C58.631,40.244 59.011,39.598 59.011,39.598L81.194,16.128L80.719,22.772L64.969,39.137C64.462,39.568 64.62,39.937 64.62,39.937C64.81,40.46 65.571,40.306 65.571,40.306L85.156,40.306C71.085,50.365 21.711,45.105 21.711,45.105C19.936,44.982 20.95,44.028 20.95,44.028L23.01,42.059C24.215,41.044 25.989,41.106 25.989,41.106C31.884,40.521 40.82,40.368 40.82,40.368C45.162,40.429 47.254,37.691 47.254,37.691Z" style="fill:rgb(28,104,167);fill-rule:nonzero;"/>
        </g>
    </g>
</svg>
