<?xml version="1.0" encoding="UTF-8" standalone="no"?><!DOCTYPE svg PUBLIC "-//W3C//DTD SVG 1.1//EN" "http://www.w3.org/Graphics/SVG/1.1/DTD/svg11.dtd"><svg width="100%" height="100%" viewBox="0 0 26 26" version="1.1" xmlns="http://www.w3.org/2000/svg" xmlns:xlink="http://www.w3.org/1999/xlink" xml:space="preserve" xmlns:serif="http://www.serif.com/" style="fill-rule:evenodd;clip-rule:evenodd;stroke-linejoin:round;stroke-miterlimit:2;"><path id="path36-0-2" d="M13.298,0.017c-0.499,-0.025 -1.003,-0.023 -1.495,0.013c-1.435,0.091 -3.066,0.491 -4.325,1.068c-0.407,0.185 -0.523,0.242 -0.534,0.26c-0.007,0.013 -0.176,0.567 -0.377,1.239c-0.716,2.392 -0.665,2.203 -0.623,2.203c0.014,0 0.153,-0.106 0.316,-0.234c1.352,-1.072 2.991,-1.798 4.7,-2.085c0.19,-0.031 0.366,-0.057 0.391,-0.057c0.027,0 0.282,-0.123 0.565,-0.277c0.284,-0.154 1.159,-0.623 1.944,-1.046c0.979,-0.527 1.424,-0.778 1.419,-0.8c-0.009,-0.037 -0.047,-0.045 -0.511,-0.122c-0.476,-0.078 -0.971,-0.13 -1.469,-0.155l-0,-0.005Zm3.27,0.594c-0.021,0 -0.741,0.379 -1.599,0.84c-1.593,0.859 -1.696,0.922 -1.483,0.922c0.156,0 0.811,0.094 1.191,0.171c1.476,0.296 2.953,0.955 4.152,1.853l0.226,0.171l2.029,0.6c1.114,0.33 2.065,0.607 2.106,0.614c0.069,0.013 0.077,0.013 0.077,-0.035c0,-0.084 -0.497,-0.767 -0.943,-1.296c-0.311,-0.369 -1.192,-1.239 -1.562,-1.542c-1.073,-0.88 -2.168,-1.531 -3.365,-2.008c-0.323,-0.129 -0.785,-0.289 -0.83,-0.289l-0,-0Zm-10.748,1.408c-0.026,-0.014 -0.101,0.028 -0.287,0.154c-2.247,1.524 -3.927,3.7 -4.84,6.276l-0.039,0.112l0.681,1.255c0.375,0.69 0.732,1.35 0.796,1.467c0.064,0.117 0.136,0.243 0.159,0.277c0.062,0.088 0.108,0.081 0.108,-0.013c0,-0.039 0.021,-0.215 0.046,-0.389c0.165,-1.113 0.471,-2.094 0.972,-3.098c0.304,-0.611 0.591,-1.077 1.003,-1.626l0.186,-0.244l0.614,-2.051c0.336,-1.126 0.612,-2.066 0.612,-2.089c0,-0.016 -0.003,-0.026 -0.012,-0.031l-0,0.001Zm6.669,2.62c-4.496,0 -8.14,3.617 -8.14,8.08c0,4.463 3.645,8.082 8.14,8.082c4.496,0 8.14,-3.619 8.14,-8.082c0,-4.463 -3.645,-8.08 -8.14,-8.08Zm8.024,1.241c-0.021,0 -0.037,0.013 -0.037,0.021c0,0.014 0.096,0.142 0.213,0.289c0.757,0.938 1.363,2.05 1.752,3.21c0.206,0.617 0.371,1.339 0.449,1.979l0.037,0.309l0.511,0.934c0.279,0.513 0.729,1.339 0.997,1.837c0.442,0.81 0.525,0.947 0.559,0.913c0.043,-0.04 0.214,-1.099 0.269,-1.646c0.048,-0.482 0.039,-1.975 -0.012,-2.443c-0.153,-1.359 -0.455,-2.511 -0.972,-3.707c-0.197,-0.457 -0.287,-0.636 -0.333,-0.675c-0.034,-0.029 -3.37,-1.021 -3.434,-1.021l0,0Zm-12.154,2.305l6.677,0c0.561,0.047 0.982,0.16 1.436,0.38c0.574,0.278 0.97,0.655 1.253,1.192c0.21,0.402 0.317,0.789 0.335,1.245c0.038,0.882 -0.293,1.666 -0.937,2.234c-0.421,0.37 -0.945,0.607 -1.644,0.744c-1.518,0.096 -2.082,0.059 -4.015,0.067l0.029,3.072c0.043,0.083 0.162,0.153 0.298,0.169c0.136,0.018 0.176,0.049 0.165,0.128l0.006,0.039l-3.589,0c-0.018,-0.014 -0.03,-0.053 -0.025,-0.084c0.007,-0.052 0.021,-0.059 0.12,-0.073c0.154,-0.023 0.298,-0.082 0.339,-0.138l0.035,-8.64l-0.068,-0.063c-0.063,-0.058 -0.224,-0.112 -0.335,-0.112c-0.023,0 -0.052,-0.013 -0.068,-0.025c-0.029,-0.029 -0.037,-0.113 -0.012,-0.138l0,0.004Zm-8.024,1.605c-0.013,-0.001 -0.022,0.013 -0.029,0.028c-0.034,0.099 -0.161,0.82 -0.207,1.182c-0.082,0.654 -0.111,1.207 -0.095,1.89c0.034,1.431 0.258,2.658 0.73,3.979c0.133,0.373 0.462,1.152 0.505,1.19c0.023,0.02 3.085,0.939 3.318,0.995c0.096,0.023 0.079,-0.029 -0.083,-0.242c-0.391,-0.511 -0.685,-0.982 -0.987,-1.57c-0.581,-1.128 -0.918,-2.228 -1.076,-3.501l-0.037,-0.291l-0.8,-1.473c-0.442,-0.812 -0.891,-1.634 -0.999,-1.831c-0.134,-0.248 -0.202,-0.352 -0.24,-0.356l0,-0Zm11.129,0.326l0,2.093l1.613,-0.014c1.465,-0.013 1.623,-0.013 1.767,-0.045c0.579,-0.15 0.811,-0.448 0.811,-1.036c0.002,-0.335 -0.039,-0.458 -0.199,-0.633c-0.149,-0.157 -0.283,-0.236 -0.534,-0.301c-0.185,-0.048 -0.225,-0.049 -1.824,-0.057l-1.634,0l0,-0.006Zm11.495,3.401c-0.018,0 -0.038,0.035 -0.045,0.083c-0.007,0.048 -0.018,0.142 -0.025,0.21c-0.025,0.224 -0.126,0.799 -0.186,1.052c-0.357,1.542 -1.1,3.04 -2.102,4.239c-0.103,0.122 -0.155,0.21 -0.19,0.317c-0.073,0.222 -1.126,3.757 -1.142,3.827c-0.009,0.043 -0.003,0.063 0.015,0.063c0.062,0 0.758,-0.475 1.191,-0.812c0.826,-0.642 1.644,-1.471 2.284,-2.319c0.549,-0.724 0.992,-1.459 1.363,-2.25c0.247,-0.525 0.517,-1.219 0.517,-1.326c0,-0.043 -0.221,-0.463 -1.061,-2c-0.092,-0.167 -0.263,-0.481 -0.377,-0.696c-0.117,-0.213 -0.226,-0.387 -0.242,-0.387l-0,-0Zm-21.045,5.629c-0.023,0 -0.041,0.018 -0.041,0.038c0,0.02 0.088,0.171 0.196,0.334c1.167,1.748 2.774,3.209 4.625,4.195c0.542,0.292 1.518,0.712 1.706,0.74c0.066,0.013 0.279,-0.099 1.574,-0.8c0.824,-0.445 1.502,-0.824 1.506,-0.842c0.005,-0.028 -0.07,-0.045 -0.345,-0.087c-1.817,-0.269 -3.637,-1.081 -5.047,-2.252l-0.19,-0.155l-1.973,-0.586c-1.085,-0.321 -1.991,-0.584 -2.011,-0.584l0,-0Zm17.22,1.455c-0.032,-0.013 -0.116,0.038 -0.283,0.165c-0.828,0.64 -1.904,1.202 -2.952,1.546c-0.783,0.258 -1.615,0.433 -2.379,0.494l-0.24,0.02l-0.503,0.27c-0.277,0.149 -1.088,0.587 -1.804,0.972c-0.911,0.491 -1.298,0.709 -1.293,0.734c0.016,0.079 1.082,0.263 1.953,0.34c0.414,0.037 1.625,0.037 2.037,0c1.307,-0.113 2.468,-0.382 3.626,-0.834c0.22,-0.088 0.508,-0.208 0.641,-0.27l0.24,-0.112l0.364,-1.22c0.199,-0.669 0.42,-1.403 0.486,-1.627c0.069,-0.224 0.124,-0.424 0.124,-0.444c0,-0.018 -0.005,-0.029 -0.015,-0.034l-0,-0Z" style="fill:#003d80;fill-rule:nonzero;"/></svg>