<?xml version="1.0" encoding="UTF-8" standalone="no"?>
<!DOCTYPE svg PUBLIC "-//W3C//DTD SVG 1.1//EN" "http://www.w3.org/Graphics/SVG/1.1/DTD/svg11.dtd">
<svg width="100%" height="100%" viewBox="0 0 642 156" version="1.1" xmlns="http://www.w3.org/2000/svg" xmlns:xlink="http://www.w3.org/1999/xlink" xml:space="preserve" xmlns:serif="http://www.serif.com/" style="fill-rule:evenodd;clip-rule:evenodd;stroke-linejoin:round;stroke-miterlimit:2;">
    <g transform="matrix(4.166667,0,0,4.166667,0,0)">
        <g id="Symbols" transform="matrix(1,0,0,1,-0.618233,-0.881818)">
            <g id="Logo-Portugalia-Color-White" serif:id="Logo-Portugalia/Color-White">
                <g id="Logo" transform="matrix(1,0,0,1,0.4,0.5)">
                    <path id="Shape" d="M119.155,2.564C119.155,2.564 106.17,0.818 103.388,0.382C104.643,1.636 105.461,3.164 105.461,5.455C105.461,6.764 104.861,8.509 104.261,9.545L119.155,2.564Z" style="fill:url(#_Linear1);fill-rule:nonzero;"/>
                    <path id="Shape1" serif:id="Shape" d="M103.388,0.382C104.643,1.636 105.461,3.164 105.461,5.455C105.461,6.764 104.861,8.509 104.261,9.545L107.971,7.8C108.025,7.473 108.025,7.309 108.025,6.927C108.025,4.145 106.007,1.145 103.388,0.382Z" style="fill:rgb(80,184,72);fill-rule:nonzero;"/>
                    <g id="Group" transform="matrix(1,0,0,1,0,2.181818)">
                        <path id="Shape2" serif:id="Shape" d="M3.71,19.309L6.492,19.309C8.238,19.309 9.82,19.145 11.184,18.873C12.548,18.6 13.749,18.109 14.731,17.455C15.713,16.8 16.422,15.982 16.968,14.945C17.459,13.909 17.731,12.655 17.731,11.182C17.731,8.509 16.804,6.491 14.894,5.127C13.039,3.764 10.312,3.109 6.82,3.109C5.838,3.109 4.692,3.164 3.492,3.218C2.291,3.327 1.2,3.491 0.218,3.709L0.218,20.182C1.419,19.691 2.51,19.309 3.71,19.309ZM3.71,6.327C4.528,6.273 5.62,6.218 7.147,6.218C8.075,6.218 8.948,6.273 9.82,6.436C10.639,6.6 11.403,6.818 12.057,7.2C12.712,7.582 13.203,8.073 13.585,8.727C13.967,9.382 14.131,10.145 14.131,11.127C14.131,12.164 13.967,12.982 13.585,13.636C13.203,14.291 12.712,14.836 12.057,15.164C11.403,15.545 10.584,15.818 9.657,15.982C8.675,16.145 7.638,16.2 6.438,16.2L3.819,16.2L3.819,6.327L3.71,6.327ZM112.008,9.218C113.372,9.218 114.463,9.382 115.391,9.764C116.318,10.091 117.082,10.636 117.628,11.236C118.173,11.891 118.61,12.655 118.828,13.527C119.046,14.4 119.21,15.382 119.21,16.473L119.21,28.364C118.937,28.418 118.501,28.473 118.01,28.582C117.519,28.691 116.918,28.745 116.264,28.8C115.609,28.855 114.9,28.964 114.136,29.018C113.372,29.073 112.608,29.127 111.899,29.127C110.862,29.127 109.88,29.018 109.007,28.8C108.135,28.582 107.371,28.255 106.716,27.764C106.061,27.273 105.57,26.673 105.188,25.909C104.807,25.145 104.643,24.218 104.643,23.073C104.643,22.036 104.861,21.109 105.298,20.345C105.734,19.582 106.28,18.982 106.989,18.545C107.698,18.109 108.571,17.727 109.499,17.509C110.481,17.291 111.463,17.182 112.499,17.182C112.827,17.182 113.208,17.182 113.536,17.236C113.918,17.291 114.245,17.345 114.572,17.4C114.9,17.455 115.173,17.509 115.391,17.564C115.609,17.618 115.773,17.673 115.882,17.673L115.882,16.745C115.882,16.2 115.827,15.655 115.718,15.109C115.609,14.564 115.391,14.073 115.063,13.636C114.736,13.2 114.3,12.873 113.809,12.6C113.318,12.327 112.554,12.218 111.681,12.218C110.59,12.218 109.608,12.273 108.789,12.436C107.971,12.6 107.371,12.764 106.934,12.927L106.552,10.091C106.989,9.873 107.698,9.709 108.735,9.545C109.717,9.327 110.808,9.218 112.008,9.218ZM112.281,26.236C113.045,26.236 113.754,26.236 114.409,26.182C115.009,26.127 115.554,26.073 115.936,25.964L115.936,20.345C115.718,20.236 115.282,20.127 114.791,20.018C114.245,19.909 113.59,19.909 112.827,19.909C112.336,19.909 111.79,19.964 111.244,20.018C110.699,20.073 110.153,20.236 109.717,20.455C109.226,20.673 108.844,21 108.571,21.382C108.244,21.764 108.08,22.309 108.08,22.964C108.08,24.164 108.462,25.036 109.226,25.527C109.935,26.018 110.972,26.236 112.281,26.236ZM128.867,29.073C126.793,29.018 125.32,28.582 124.502,27.709C123.629,26.836 123.193,25.527 123.193,23.727L123.193,1.964L126.521,0.382L126.521,23.182C126.521,23.727 126.575,24.218 126.684,24.545C126.793,24.927 126.957,25.2 127.175,25.418C127.394,25.636 127.666,25.8 128.048,25.909C128.43,26.018 128.867,26.127 129.358,26.182L128.867,29.073ZM134.104,6.273C133.504,6.273 133.013,6.055 132.577,5.673C132.14,5.291 131.922,4.745 131.922,4.036C131.922,3.382 132.14,2.836 132.577,2.4C133.013,1.964 133.504,1.8 134.104,1.8C134.704,1.8 135.195,2.018 135.632,2.4C136.068,2.782 136.287,3.327 136.287,4.036C136.287,4.691 136.068,5.236 135.632,5.673C135.195,6.055 134.704,6.273 134.104,6.273ZM135.796,28.691L132.468,28.691L132.468,9.709L135.796,9.709L135.796,28.691ZM146.871,9.218C148.235,9.218 149.326,9.382 150.254,9.764C151.181,10.091 151.945,10.636 152.49,11.236C153.036,11.891 153.473,12.655 153.691,13.527C153.909,14.4 154.073,15.382 154.073,16.473L154.073,28.364C153.8,28.418 153.363,28.473 152.872,28.582C152.381,28.691 151.781,28.745 151.127,28.8C150.472,28.855 149.763,28.964 148.999,29.018C148.235,29.073 147.471,29.127 146.762,29.127C145.725,29.127 144.743,29.018 143.87,28.8C142.997,28.582 142.233,28.255 141.579,27.764C140.924,27.273 140.433,26.673 140.051,25.909C139.669,25.145 139.506,24.218 139.506,23.073C139.506,22.036 139.724,21.109 140.16,20.345C140.597,19.582 141.142,18.982 141.852,18.545C142.561,18.109 143.434,17.727 144.361,17.509C145.343,17.291 146.325,17.182 147.362,17.182C147.689,17.182 148.071,17.182 148.399,17.236C148.78,17.291 149.108,17.345 149.435,17.4C149.763,17.455 150.035,17.509 150.254,17.564C150.472,17.618 150.635,17.673 150.745,17.673L150.745,16.745C150.745,16.2 150.69,15.655 150.581,15.109C150.472,14.564 150.254,14.073 149.926,13.636C149.599,13.2 149.162,12.873 148.671,12.6C148.18,12.327 147.417,12.218 146.544,12.218C145.452,12.218 144.47,12.273 143.652,12.436C142.834,12.6 142.233,12.764 141.797,12.927L141.415,10.091C141.852,9.873 142.561,9.709 143.597,9.545C144.58,9.327 145.671,9.218 146.871,9.218ZM147.144,26.236C147.908,26.236 148.617,26.236 149.272,26.182C149.872,26.127 150.417,26.073 150.799,25.964L150.799,20.345C150.581,20.236 150.144,20.127 149.653,20.018C149.108,19.909 148.453,19.909 147.689,19.909C147.198,19.909 146.653,19.964 146.107,20.018C145.562,20.073 145.016,20.236 144.58,20.455C144.088,20.673 143.707,21 143.434,21.382C143.106,21.764 142.943,22.309 142.943,22.964C142.943,24.164 143.325,25.036 144.088,25.527C144.798,26.018 145.834,26.236 147.144,26.236ZM99.569,9.873C99.242,9.818 98.914,9.764 98.587,9.655C97.441,9.436 96.077,9.327 94.495,9.327C93.076,9.327 91.822,9.545 90.676,10.036C89.53,10.527 88.603,11.182 87.839,12C87.184,12.709 86.693,13.582 86.257,14.509C90.73,13.145 95.15,11.618 99.569,9.873ZM98.15,13.473L98.15,23.782C97.714,24.109 97.114,24.436 96.405,24.655C95.641,24.927 94.822,25.036 93.949,25.036C93.295,25.036 92.695,24.927 92.04,24.655C91.44,24.436 90.894,24.055 90.403,23.509C89.912,23.018 89.585,22.364 89.312,21.6C89.039,20.836 88.875,19.909 88.875,18.764C88.875,18.055 88.985,17.4 89.094,16.745C87.893,17.127 86.639,17.564 85.438,17.891C85.438,18.164 85.384,18.436 85.384,18.709C85.384,20.291 85.602,21.655 86.038,22.8C86.475,23.945 87.075,24.873 87.784,25.691C88.548,26.455 89.421,27 90.403,27.382C91.385,27.764 92.476,27.927 93.567,27.927C94.659,27.927 95.641,27.764 96.459,27.491C97.277,27.164 97.823,26.945 98.15,26.727L98.15,27.545C98.15,29.291 97.714,30.6 96.841,31.364C95.968,32.182 94.55,32.564 92.531,32.564C91.494,32.564 90.458,32.455 89.476,32.236C88.494,32.018 87.675,31.8 87.02,31.527L86.42,34.473C87.184,34.745 88.112,34.964 89.148,35.182C90.185,35.4 91.276,35.455 92.476,35.455C95.477,35.455 97.768,34.8 99.242,33.491C100.715,32.182 101.478,30.055 101.478,27.164L101.478,12.055C100.387,12.545 99.242,12.982 98.15,13.473ZM81.51,15.818C81.783,15.764 82.056,15.655 82.328,15.6L82.328,9.709L79,9.709L79,16.418C79.819,16.255 80.637,16.036 81.51,15.818ZM70.544,18.109L70.544,9.709L67.216,9.709L67.216,18.6C68.362,18.436 69.453,18.273 70.544,18.109ZM82.001,18.982C81.019,19.255 79.982,19.473 79,19.691L79,25.745C78.891,25.8 78.673,25.855 78.4,25.855C78.127,25.909 77.8,25.909 77.473,25.964C77.145,26.018 76.764,26.018 76.382,26.073C76,26.073 75.618,26.127 75.29,26.127C73.599,26.127 72.399,25.636 71.635,24.655C71.089,23.891 70.762,22.745 70.598,21.218C69.507,21.382 68.362,21.491 67.27,21.6C67.325,22.418 67.434,23.182 67.598,23.891C67.871,24.927 68.307,25.855 68.907,26.673C69.507,27.436 70.271,28.036 71.253,28.473C72.235,28.909 73.435,29.127 74.909,29.127C76.545,29.127 78.018,29.018 79.273,28.8C80.528,28.582 81.565,28.364 82.328,28.2L82.328,18.927C82.219,18.927 82.11,18.927 82.001,18.982ZM56.85,19.364L56.85,12.545L63.942,12.545L63.942,9.709L56.85,9.709L56.85,3.818L53.522,5.455L53.522,19.418C54.613,19.418 55.759,19.418 56.85,19.364ZM62.742,25.745C62.142,25.964 61.324,26.073 60.341,26.073C59.741,26.073 59.25,26.018 58.814,25.855C58.377,25.691 58.05,25.473 57.723,25.091C57.45,24.764 57.232,24.273 57.068,23.618C56.959,23.236 56.904,22.691 56.904,22.145C55.813,22.145 54.667,22.2 53.576,22.2C53.631,23.073 53.685,23.945 53.849,24.655C54.067,25.636 54.395,26.4 54.886,27.055C55.377,27.709 56.031,28.2 56.904,28.527C57.723,28.855 58.759,29.018 60.069,29.018C61.16,29.018 62.087,28.909 62.96,28.636C63.779,28.364 64.379,28.145 64.706,27.982L64.051,25.145C63.779,25.364 63.342,25.527 62.742,25.745ZM43.428,19.2L43.428,12.764C43.647,12.709 44.029,12.6 44.629,12.491C45.229,12.382 45.829,12.273 46.484,12.273C47.466,12.273 48.23,12.327 48.83,12.491C49.43,12.6 49.866,12.764 50.139,12.818L50.739,9.873C50.576,9.818 50.357,9.764 50.085,9.709C49.757,9.655 49.43,9.6 49.102,9.545C48.721,9.491 48.393,9.436 48.011,9.382C47.629,9.327 47.302,9.327 47.029,9.327C45.556,9.327 44.247,9.436 43.101,9.709C41.901,9.982 40.919,10.255 40.155,10.527L40.155,19.036C41.192,19.091 42.337,19.145 43.428,19.2ZM40.1,21.709L40.1,28.691L43.428,28.691L43.428,21.873C42.337,21.818 41.192,21.764 40.1,21.709ZM22.478,18.545C22.587,16.745 23.024,15.218 23.842,14.127C24.769,12.873 26.079,12.273 27.716,12.273C29.352,12.273 30.607,12.873 31.589,14.127C32.462,15.273 32.899,16.855 33.008,18.764C34.153,18.818 35.354,18.873 36.5,18.927C36.445,17.564 36.281,16.309 35.845,15.164C35.408,13.909 34.808,12.873 34.044,12C33.281,11.127 32.353,10.473 31.262,9.982C30.171,9.491 29.025,9.273 27.716,9.273C26.461,9.273 25.26,9.491 24.169,9.982C23.078,10.473 22.151,11.127 21.387,12C20.623,12.873 20.023,13.909 19.586,15.164C19.205,16.2 19.041,17.4 18.986,18.6C20.132,18.545 21.332,18.545 22.478,18.545ZM32.79,21.327C32.571,22.473 32.189,23.509 31.589,24.273C30.662,25.527 29.352,26.127 27.716,26.127C26.079,26.127 24.824,25.527 23.842,24.273C23.242,23.455 22.805,22.418 22.587,21.218C21.932,21.218 21.223,21.218 20.568,21.273C20.077,21.273 19.586,21.327 19.041,21.327C19.15,21.982 19.314,22.636 19.532,23.236C19.968,24.436 20.568,25.473 21.332,26.4C22.096,27.273 23.024,27.927 24.115,28.418C25.206,28.909 26.352,29.127 27.661,29.127C28.916,29.127 30.116,28.909 31.207,28.418C32.299,27.927 33.226,27.273 33.99,26.4C34.754,25.527 35.354,24.491 35.79,23.236C36.008,22.691 36.118,22.091 36.227,21.436C35.136,21.436 33.99,21.382 32.79,21.327ZM0.218,23.727L0.218,28.691L3.71,28.691L3.71,22.691C2.346,22.909 1.419,23.182 0.218,23.727Z" style="fill:url(#_Linear2);fill-rule:nonzero;"/>
                    </g>
                </g>
            </g>
        </g>
    </g>
    <defs>
        <linearGradient id="_Linear1" x1="0" y1="0" x2="1" y2="0" gradientUnits="userSpaceOnUse" gradientTransform="matrix(-4.862704,-8.420442,8.420442,-4.862704,112.061065,6.685364)"><stop offset="0" style="stop-color:rgb(191,215,48);stop-opacity:1"/><stop offset="0.25" style="stop-color:rgb(163,205,57);stop-opacity:1"/><stop offset="0.53" style="stop-color:rgb(137,197,64);stop-opacity:1"/><stop offset="0.79" style="stop-color:rgb(120,193,67);stop-opacity:1"/><stop offset="1" style="stop-color:rgb(114,191,68);stop-opacity:1"/></linearGradient>
        <linearGradient id="_Linear2" x1="0" y1="0" x2="1" y2="0" gradientUnits="userSpaceOnUse" gradientTransform="matrix(-146.700339,0,-0,-146.700339,150.233932,17.918182)"><stop offset="0" style="stop-color:rgb(190,214,47);stop-opacity:1"/><stop offset="1" style="stop-color:rgb(113,191,67);stop-opacity:1"/></linearGradient>
    </defs>
</svg>
