<svg xmlns="http://www.w3.org/2000/svg" width="341.8" height="175.6" viewBox="0 0 341.8 175.6"><style>.st0{fill:#415364}.st1{fill:url(#SVGID_1_)}.st2{fill:url(#SVGID_2_)}.st3{fill:url(#SVGID_3_)}</style><path class="st0" d="M20.1 175.3l-2.1-5.1H8.5l-2.1 5.1h-5l9.7-22.8h4.6l9.7 22.8h-5.3zm-6.8-16.8l-3 7.3h6l-3-7.3zM50.7 175.3v-22.6h5v22.6h-5zM97.3 175.3l-4.8-7.2h-3.9v7.2h-5v-22.6h10.3c5.3 0 8.5 2.8 8.5 7.5v.1c0 3.6-2 5.9-4.8 7l5.5 8.1h-5.8zm.1-14.9c0-2.1-1.5-3.2-3.9-3.2h-4.9v6.5h5c2.4 0 3.8-1.3 3.8-3.3zM128.3 175.3v-22.6h5v18.1h11.3v4.5h-16.3zM172.2 175.3v-22.6h5v22.6h-5zM221.8 175.3l-10.9-14.4v14.4H206v-22.6h4.6l10.6 13.9v-13.9h4.9v22.6h-4.3zM254 175.3v-22.6h17v4.4h-12.1v4.6h10.6v4.4h-10.6v4.7h12.3v4.4H254zM307.3 175.6c-3.4 0-6.9-1.2-9.6-3.6l2.9-3.5c2 1.7 4.2 2.7 6.7 2.7 2 0 3.3-.8 3.3-2.1v-.1c0-1.3-.8-1.9-4.6-2.9-4.6-1.2-7.5-2.4-7.5-6.9v-.1c0-4.1 3.3-6.8 7.9-6.8 3.3 0 6.1 1 8.4 2.9l-2.6 3.7c-2-1.4-4-2.2-5.9-2.2-1.9 0-2.9.9-2.9 2v.1c0 1.5 1 2 4.9 3 4.6 1.2 7.2 2.8 7.2 6.8v.1c.1 4.4-3.4 6.9-8.2 6.9z"/><linearGradient id="SVGID_1_" gradientUnits="userSpaceOnUse" x1="216.53" y1="-5.682" x2="216.53" y2="151.663"><stop offset="0" stop-color="#0aa5de"/><stop offset="1" stop-color="#1a4686"/></linearGradient><path class="st1" d="M288.9 1.7l-42.3-.1-.9 4.5C251.8 7.4 259 12 254 20c-.6.9-58.5 94.4-58.5 94.4h.2c7.7 0 16-.5 24.6-1.3.9-.1 1.9-.2 2.8-.3l10.6-17.9h48.1c9.3-4.7 17.9-9.9 25.5-15.5L288.9 1.7zm-41.4 70l23.1-38.6 8.5 38.6h-31.6zm65.3 30.9c-7 5.8-14.9 11.3-23.5 16.2l.6 2.7h27.4l-4.5-18.9zM201.3 89.7c4-21.2-10.8-32.6-34.3-39.1-20.1-5.4-24.8-8-23.3-16l.1-.3c1.1-5.9 7.4-10.6 17.7-10.6 10.3 0 20 4.5 29.4 12l17.7-20.2C198.1 5.6 184 0 166.2 0c-24.9 0-45.4 14.6-49.6 36.7l-.1.3C112 61.3 126.6 68 150 74.3c18 4.9 22.6 9.7 21.4 16.3l-.1.3c-1.3 7.1-8.6 10.7-19.5 10.7-9.4 0-18-2.8-25.4-7.4 13.7 11.4 32.6 18 56.6 19.7 8.8-4.8 16-13.1 18.3-23.8v-.4z"/><g><linearGradient id="SVGID_2_" gradientUnits="userSpaceOnUse" x1="229.063" y1="111.683" x2="204.791" y2="170.223" gradientTransform="matrix(1.0328 .0776 -.017 .967 -31.053 -13.809)"><stop offset="0" stop-color="#d72027"/><stop offset="1" stop-color="#981c1f"/></linearGradient><path class="st2" d="M221 119.5c-66.1 6.8-98.4-12.7-113.9-37.6 4.7 34.5 48.4 60.8 110.9 53.6 62.5-7.3 107.3-45.7 123.8-80.8-20.7 29-66.9 59.2-120.8 64.8z"/></g><linearGradient id="SVGID_3_" gradientUnits="userSpaceOnUse" x1="54.869" y1="1.674" x2="54.869" y2="138.365"><stop offset="0" stop-color="#0aa5de"/><stop offset="1" stop-color="#1a4686"/></linearGradient><path class="st3" d="M108.9 43.7c4.6-24.3-9.4-41.1-37.8-41.1H8.9L8 7c7.8 1.7 12.5 5.3 11.3 11.9L0 121.6h26.2l6.7-35.7h19.9c26.7 0 50.8-14.3 56-41.8l.1-.4zm-26.6.5l-.1.3c-1.9 10.2-11.1 18-24.1 18H37.3l6.9-36.4h20.2c13.1.1 20.1 6.4 17.9 18.1z"/><g><path class="st0" d="M318.9 8.1c.2.3.5.5.8.7.3.1.6.2 1 .2.2 0 .4 0 .6-.1.2-.1.4-.1.5-.3.2-.1.3-.3.4-.4.1-.2.1-.4.1-.6 0-.3-.1-.6-.3-.7-.2-.2-.4-.3-.7-.4-.3-.1-.6-.2-1-.3-.3-.1-.7-.2-1-.4-.3-.2-.5-.4-.7-.7-.2-.3-.3-.7-.3-1.3 0-.2.1-.5.2-.8.1-.3.3-.5.5-.7.2-.2.5-.4.9-.6.3-.1.8-.2 1.3-.2.4 0 .9.1 1.3.2s.8.4 1.1.8l-.9.8c-.1-.2-.3-.4-.6-.5-.3-.1-.5-.2-.9-.2-.3 0-.6 0-.8.1-.2.1-.4.2-.5.3-.1.1-.2.3-.3.4-.1.1-.1.3-.1.4 0 .3.1.6.3.8.2.2.4.3.7.5.3.1.6.2 1 .3.3.1.7.2 1 .4.3.2.5.4.7.7.2.3.3.7.3 1.2 0 .4-.1.7-.2 1.1-.1.3-.4.6-.6.8-.3.2-.6.4-.9.5-.3.1-.7.2-1.1.2-.5 0-1-.1-1.5-.3-.5-.2-.8-.5-1.1-.9l.8-1zM325 1.6h1.7l2.6 6.2 2.6-6.2h1.7v8.2h-1.1V3l-2.8 6.7h-.7L326.1 3v6.7H325V1.6z"/></g></svg>