<?xml version="1.0" encoding="UTF-8" standalone="no"?><!DOCTYPE svg PUBLIC "-//W3C//DTD SVG 1.1//EN" "http://www.w3.org/Graphics/SVG/1.1/DTD/svg11.dtd"><svg width="100%" height="100%" viewBox="0 0 85 60" version="1.1" xmlns="http://www.w3.org/2000/svg" xmlns:xlink="http://www.w3.org/1999/xlink" xml:space="preserve" xmlns:serif="http://www.serif.com/" style="fill-rule:evenodd;clip-rule:evenodd;stroke-linejoin:round;stroke-miterlimit:2;"><g><path d="M22.876,60l61.56,0l-49.33,-49.524c-6.574,-6.571 -15.488,-10.476 -24.784,-10.476l-10.322,0l0.769,2.017l3.417,8.964l18.689,49.02Z" style="fill:url(#_Linear1);fill-rule:nonzero;"/><path d="M4.186,10.98c6.74,11.505 24.426,12.719 26.351,30.61c0.079,0.736 0.643,1.326 1.376,1.441c10.192,1.592 20.12,5.787 28.745,12.699l0.008,0.006c0.057,0.046 0.116,0.067 0.192,0.067c0.076,0 0.152,-0.028 0.212,-0.085c0.123,-0.117 0.128,-0.311 0.011,-0.434c-5.973,-6.275 -13.271,-11.289 -21.464,-14.586l-2.493,-1.003c-1.283,-0.516 -2.172,-1.788 -2.134,-3.25c0.14,-5.346 12.785,-4.258 14.067,-6.828l0.221,-0.442c-2.604,-2.224 -5.697,-3.897 -9.105,-4.833c-0.03,0.129 -0.113,0.752 0.58,1.881c0.754,1.227 -0.825,3.179 -3.123,1.073l-0.193,-0.177c-17.086,-15.651 -29.897,-7.535 -36.666,-25.103l3.417,8.964Z" style="fill:#fff;fill-rule:nonzero;"/><path d="M45.275,28.884c0,0 -2.802,0.14 -4.523,-2.662c0.512,0.833 -0.052,2.001 -1.187,2.005l0,4.264c1.842,-0.535 3.944,-0.863 5.71,-1.234l0,-2.373Z" style="fill:url(#_Linear2);fill-rule:nonzero;"/><path d="M34.028,43.399c9.447,1.818 18.603,5.897 26.63,12.331c-17.896,-15.283 -26.049,-12.52 -26.63,-12.331Z" style="fill:url(#_Linear3);fill-rule:nonzero;"/><path d="M7.785,11.78c-2.781,-1.976 -5.133,-4.876 -7.016,-9.764l3.417,8.964c6.739,11.504 24.423,12.719 26.35,30.604c-1.945,-22.827 -11.976,-19.415 -22.752,-29.804Z" style="fill:url(#_Linear4);fill-rule:nonzero;"/></g><defs><linearGradient id="_Linear1" x1="0" y1="0" x2="1" y2="0" gradientUnits="userSpaceOnUse" gradientTransform="matrix(-41.043,-59.963991,59.963991,-41.043,53.5063,59.7819)"><stop offset="0" style="stop-color:#be0000;stop-opacity:1"/><stop offset="0.39" style="stop-color:#de0000;stop-opacity:1"/><stop offset="0.77" style="stop-color:#f60000;stop-opacity:1"/><stop offset="1" style="stop-color:#f00;stop-opacity:1"/></linearGradient><linearGradient id="_Linear2" x1="0" y1="0" x2="1" y2="0" gradientUnits="userSpaceOnUse" gradientTransform="matrix(0.5531,-6.3246,6.3246,0.5531,42.1594,32.7186)"><stop offset="0" style="stop-color:#fff;stop-opacity:0"/><stop offset="0.65" style="stop-color:#fff;stop-opacity:0"/><stop offset="0.73" style="stop-color:#e0e0e0;stop-opacity:0.26"/><stop offset="0.81" style="stop-color:#c5c5c5;stop-opacity:0.55"/><stop offset="0.89" style="stop-color:#b5b5b5;stop-opacity:0.8"/><stop offset="0.95" style="stop-color:#afafaf;stop-opacity:1"/><stop offset="1" style="stop-color:#afafaf;stop-opacity:1"/></linearGradient><linearGradient id="_Linear3" x1="0" y1="0" x2="1" y2="0" gradientUnits="userSpaceOnUse" gradientTransform="matrix(26.6297,0,0,26.6297,34.0278,49.4082)"><stop offset="0" style="stop-color:#fff;stop-opacity:0"/><stop offset="0.08" style="stop-color:#f1f1f1;stop-opacity:0.09"/><stop offset="0.29" style="stop-color:#d4d4d4;stop-opacity:0.32"/><stop offset="0.5" style="stop-color:#c0c0c0;stop-opacity:0.55"/><stop offset="0.7" style="stop-color:#b3b3b3;stop-opacity:0.78"/><stop offset="0.9" style="stop-color:#afafaf;stop-opacity:1"/><stop offset="1" style="stop-color:#afafaf;stop-opacity:1"/></linearGradient><linearGradient id="_Linear4" x1="0" y1="0" x2="1" y2="0" gradientUnits="userSpaceOnUse" gradientTransform="matrix(29.76746,0,0,29.76746,0.76894,21.8006)"><stop offset="0" style="stop-color:#fff;stop-opacity:0"/><stop offset="0.25" style="stop-color:#fff;stop-opacity:0"/><stop offset="0.46" style="stop-color:#ededed;stop-opacity:0.28"/><stop offset="0.89" style="stop-color:#bdbdbd;stop-opacity:0.85"/><stop offset="1" style="stop-color:#afafaf;stop-opacity:1"/></linearGradient></defs></svg>