<?xml version="1.0" encoding="utf-8"?>
<!-- Generator: Adobe Illustrator 25.1.0, SVG Export Plug-In . SVG Version: 6.00 Build 0)  -->
<svg version="1.1" id="Layer_1" xmlns="http://www.w3.org/2000/svg" xmlns:xlink="http://www.w3.org/1999/xlink" x="0px" y="0px"
	 viewBox="0 0 338.7 94" style="enable-background:new 0 0 338.7 94;" xml:space="preserve">
<style type="text/css">
	.st0{fill:#BCBEC0;}
	.st1{fill:#00263A;}
</style>
<g>
	<g>
		<g>
			<g>
				<polygon class="st0" points="51,5.3 56.5,5.2 52,8.5 53.8,13.7 49.3,10.4 44.9,13.7 46.6,8.5 42.1,5.2 47.7,5.3 49.3,0 				"/>
				<polygon class="st0" points="51,85.6 56.5,85.6 52,88.8 53.8,94 49.3,90.8 44.9,94 46.6,88.8 42.1,85.6 47.7,85.6 49.3,80.3 
									"/>
				<polygon class="st0" points="76.3,15.6 77.9,10.4 79.6,15.6 85.2,15.6 80.7,18.8 82.4,24 78,20.8 73.5,24.1 75.3,18.8 
					70.8,15.6 				"/>
				<polygon class="st0" points="18.1,15.6 19.8,10.4 21.5,15.6 27,15.6 22.5,18.8 24.3,24 19.8,20.8 15.4,24.1 17.1,18.8 
					12.6,15.6 				"/>
				<polygon class="st0" points="76.3,73.7 77.9,68.4 79.6,73.6 85.2,73.6 80.7,76.8 82.4,82.1 78,78.8 73.5,82.1 75.3,76.8 
					70.8,73.7 				"/>
				<polygon class="st0" points="18.1,73.7 19.8,68.4 21.5,73.6 27,73.6 22.5,76.8 24.3,82.1 19.8,78.8 15.4,82.1 17.1,76.8 
					12.6,73.7 				"/>
				<polygon class="st0" points="5.5,45 7.2,39.7 8.9,45 14.4,44.9 9.9,48.2 11.7,53.4 7.2,50.1 2.8,53.5 4.5,48.2 0,45 				"/>
			</g>
		</g>
	</g>
	<g>
		<g>
			<path class="st1" d="M45.6,56.8H42l5.5-27.4h10c4.9,0,7.1,2.7,7.1,6.6c0,4.2-2.7,8-7.1,8.9l3.9,11.8h-3.9L54,45.3h-5.9L45.6,56.8
				z M55.5,42.1c2.5,0,4.2-1.3,4.7-3.7c0.3-1.6,0.4-2.2,0.4-2.8c0-1.8-0.9-3-3.5-3h-6.7l-1.9,9.5H55.5z"/>
			<path class="st1" d="M66,48.7C66,42,70.3,36,76.7,36c3.4,0,6.7,1.7,6.7,5.5c0,4.4-4.4,6.6-13.8,6.7c-0.1,0.5-0.1,1.1-0.1,1.5
				c0,2.7,1.5,4.5,4.6,4.5c2.4,0,4.4-1.2,6-3.2l2.2,2c-2.5,3.1-5.4,4.2-8.4,4.2C68.9,57.3,66,54.2,66,48.7z M70.3,44.6L70,45.7
				c8.2-0.3,9.8-1.5,9.8-4.1c0-2.1-1.7-2.7-3.5-2.7C73.4,38.9,71,41.1,70.3,44.6z"/>
			<path class="st1" d="M89.7,36.5h3.5L92.3,41h0.2c1.6-3.4,3.5-5,6.5-5c3.7,0,6,2.9,6,7.6c0,6.5-3.4,13.7-9.8,13.7
				c-2.5,0-4.7-1.3-5.3-3.8h-0.2l-2.2,11.2H84L89.7,36.5z M100.7,48.4l0.6-2.9c0.2-0.8,0.2-1.4,0.2-2c0-2.5-1.1-4.3-3.6-4.3
				c-1.8,0-3,0.8-4.1,2c-1.2,1.3-2,2.7-2.5,4.8l-0.9,4.3c-0.4,1.8,1.1,4,4.2,4C97.9,54.2,100,52.1,100.7,48.4z"/>
			<path class="st1" d="M115.5,36.5L113,48.9c-0.2,0.8-0.2,1.6-0.2,2.1c0,2.1,0.8,3.2,2.8,3.2c1.4,0,2.5-0.6,3.6-1.7
				c1.3-1.3,2.2-2.9,2.6-4.8l2.2-11.2h3.5L124,53.8h2.7l-0.6,3h-2.9c-1.8,0-2.8-1-2.8-2.6c0-0.3,0.1-0.7,0.2-1.1l0.1-0.4h-0.2
				c-1.4,3.1-3.3,4.6-6.2,4.6c-3.4,0-5.1-2.1-5.1-5.6c0-0.8,0.1-1.7,0.3-2.7l2.5-12.6L115.5,36.5L115.5,36.5z"/>
			<path class="st1" d="M136.1,27.8h3.5L137,41h0.2c1.6-3.4,3.6-4.9,6.6-4.9c3.7,0,6,2.9,6,7.6c0,6.5-3.4,13.7-9.8,13.7
				c-2.5,0-4.7-1.3-5.3-3.8h-0.2l-0.7,3.4h-3.5L136.1,27.8z M145.4,48.4l0.6-2.9c0.2-0.8,0.2-1.4,0.2-2c0-2.5-1.1-4.3-3.6-4.3
				c-1.8,0-3,0.8-4.1,2c-1.2,1.2-2,2.7-2.5,4.8l-0.9,4.3c-0.4,1.8,1.1,4,4.2,4C142.6,54.2,144.6,52.1,145.4,48.4z"/>
			<path class="st1" d="M156.3,56.8c-1.9,0-2.9-1.1-2.9-2.6c0-0.3,0-0.5,0.1-0.9l5.1-25.5h3.5l-5.2,26h2.9l-0.6,3H156.3z"/>
			<path class="st1" d="M166.7,56.8c-1.9,0-2.9-1.1-2.9-2.6c0-0.3,0-0.6,0.1-0.8l3.4-16.9h3.5l-3.5,17.3h2.7l-0.6,3H166.7z
				 M168.1,30.7c0-0.3,0-0.5,0.2-1.1c0.2-1,0.9-1.8,2.4-1.8c1.4,0,1.9,0.7,1.9,1.5c0,0.3,0,0.5-0.2,1.1c-0.2,1-0.9,1.8-2.4,1.8
				C168.6,32.2,168.1,31.5,168.1,30.7z"/>
			<path class="st1" d="M174.2,48.9c0-7.1,4-12.9,10.1-12.9c3.6,0,6.1,2,6.9,4.8l-2.9,1.3c-0.6-2-1.8-3.1-4-3.1
				c-3,0-4.9,2.1-5.6,5.5l-0.7,3.3c-0.1,0.5-0.2,1.3-0.2,1.7c0,2.7,1.4,4.6,4.4,4.6c2,0,3.5-1,4.9-3.8l2.7,1.3
				c-1.7,3.5-4.5,5.5-8,5.5C177.2,57.3,174.2,54.1,174.2,48.9z"/>
			<path class="st1" d="M218.9,56.8l-0.9-7.7h-10.3l-4,7.7h-3.9l14.5-27.4h4.8l3.6,27.4H218.9z M216.1,32.8h-0.2l-6.6,13h8.3
				L216.1,32.8z"/>
			<path class="st1" d="M230.2,56.8c-1.9,0-2.9-1.1-2.9-2.6c0-0.3,0-0.6,0.1-0.8l3.4-16.9h3.5l-3.5,17.3h2.7l-0.6,3H230.2z
				 M231.7,30.7c0-0.3,0-0.5,0.2-1.1c0.2-1,0.9-1.8,2.4-1.8c1.4,0,1.9,0.7,1.9,1.5c0,0.3,0,0.5-0.2,1.1c-0.2,1-0.9,1.8-2.4,1.8
				C232.2,32.2,231.7,31.5,231.7,30.7z"/>
			<path class="st1" d="M237.2,56.8l4.1-20.3h3.5l-0.8,4.1h0.2c1.1-2.1,2.7-4.1,6-4.1h1.2l-0.7,3.5h-1.4c-3.7,0-5.6,2.1-6.2,5
				l-2.4,11.8H237.2z"/>
			<path class="st1" d="M253.6,36.5h3.4l0.4,9.4l0.2,7.4h0.2l3-6.5l4.8-10.3h3.4l0.8,9.7l0.5,7h0.2l2.9-6.7l4.4-10h3.4l-9.3,20.3h-4
				L267,46.6l-0.3-5.5h-0.2l-2.4,5.3L259,56.8h-4.2L253.6,36.5z"/>
			<path class="st1" d="M296.6,56.8c-1.8,0-2.8-1-2.8-2.6c0-0.3,0-0.6,0.1-1l0.2-0.9H294c-1.6,3.4-3.6,4.9-6.6,4.9
				c-3.7,0-6-2.9-6-7.6c0-6.5,3.4-13.7,9.8-13.7c2.5,0,4.7,1.3,5.3,3.8h0.2l0.7-3.4h3.5l-3.5,17.3h2.7l-0.6,3h-2.9V56.8z
				 M292.6,52.2c1.3-1.3,2-2.7,2.5-4.8l0.9-4.3c0.4-1.8-1.1-4-4.2-4c-3.2,0-5.3,2-6,5.8l-0.6,2.9c-0.2,0.8-0.2,1.4-0.2,2
				c0,2.5,1.1,4.3,3.6,4.3C290.3,54.2,291.5,53.3,292.6,52.2z"/>
			<path class="st1" d="M319.2,36.5h3.7l-13.5,24.7c-1.4,2.5-2.6,3.5-4.9,3.5h-3.1l0.6-3h3.6l2.2-4.1l-3.1-21.1h3.4l1.4,9.6l0.8,7.5
				h0.2l3.6-7.5L319.2,36.5z"/>
			<path class="st1" d="M321.9,53.6l2.4-2.1c1.3,1.8,3.1,2.8,5.5,2.8c2.6,0,4.4-1.3,4.4-3.5c0-1.3-0.6-2.2-2.7-2.6l-1.6-0.3
				c-3.1-0.6-5.4-2-5.4-5.3c0-3.5,2.5-6.6,7.7-6.6c3,0,5.2,1.1,6.8,3.1l-2.4,2.1c-0.9-1.3-2.4-2.2-4.7-2.2c-2.7,0-4.1,1.3-4.1,3.2
				c0,1.3,0.6,2.2,2.7,2.6l1.6,0.3c3.3,0.6,5.4,2,5.4,5.4c0,4-3.1,6.8-7.8,6.8C326.5,57.3,323.5,56,321.9,53.6z"/>
		</g>
	</g>
</g>
</svg>
