<?xml version="1.0" encoding="UTF-8" standalone="no"?>
<!DOCTYPE svg PUBLIC "-//W3C//DTD SVG 1.1//EN" "http://www.w3.org/Graphics/SVG/1.1/DTD/svg11.dtd">
<svg width="100%" height="100%" viewBox="0 0 328 249" version="1.1" xmlns="http://www.w3.org/2000/svg" xmlns:xlink="http://www.w3.org/1999/xlink" xml:space="preserve" xmlns:serif="http://www.serif.com/" style="fill-rule:evenodd;clip-rule:evenodd;stroke-linejoin:round;stroke-miterlimit:2;">
    <g transform="matrix(4.166667,0,0,4.166667,0,0)">
        <g transform="matrix(1,0,0,1,-200.781976,-0.112)">
            <path d="M266.622,37.014C266.622,37.014 268.052,38.51 268.569,40.597C268.569,40.597 265.473,40.355 264.237,41.316C264.237,41.316 264.329,42.173 265.764,43.717C265.764,43.717 266.033,44.174 265.401,44.575C264.806,44.957 261.81,45.158 261.701,41.999C261.701,41.999 259.764,44.344 257.123,43.996C257.123,43.996 255.039,43.738 254.909,41.781C254.909,41.781 256.913,42.168 258.508,41.429C258.508,41.429 258.439,40.131 256.624,38.852C256.624,38.852 258.047,37.003 261.293,36.128C261.293,36.128 260.648,33.317 261.582,30.476C262.532,27.626 262.999,26.946 263.241,26.328C263.508,25.732 263.803,24.244 263.319,22.66C263.319,22.66 270.856,22.505 270.882,30.572C270.883,30.572 270.96,35.063 266.622,37.014M258.128,50.87L253.72,48.843L258.069,47.42L262.223,49.317L258.128,50.87ZM250.702,43.553C248.175,43.396 247.247,40.881 247.247,40.881C245.985,42.548 243.37,42.277 243.37,42.277C241.265,41.811 241.121,39.979 241.121,39.979C243.438,39.513 244.035,38.674 244.035,38.674C243.506,37.192 240.986,36.371 240.986,36.371C242.503,33.978 245.741,32.776 245.741,32.776C244.479,31.462 244.117,30.16 243.791,28.006C243.46,25.797 244.035,22.394 244.035,22.394C244.681,19.347 245.841,17.867 246.833,16.577C247.9,15.307 248.961,15.458 248.961,15.458C250.371,15.615 251.642,16.372 251.642,16.372C253.322,17.359 254.526,18.806 255.076,19.563C255.583,20.325 257.22,23.989 255.18,28.583C253.14,33.115 251.049,33.979 251.049,33.979C254.197,37.013 254.18,38.374 254.18,38.374C251.581,38.374 250.889,39.824 250.889,39.824C251.527,41.089 253.388,41.562 253.388,41.562C252.854,43.652 250.702,43.553 250.702,43.553M249.039,50.26C248.155,50.26 247.431,49.556 247.431,48.677C247.431,47.764 248.156,47.072 249.039,47.072C249.889,47.072 250.588,47.764 250.588,48.677C250.588,49.556 249.889,50.26 249.039,50.26M240.116,50.26L235.887,48.556L240.116,46.845L244.429,48.556L240.116,50.26ZM232.978,40.881C232.978,40.881 232.037,43.396 229.517,43.553C229.517,43.553 227.377,43.653 226.856,41.563C226.856,41.563 228.672,41.089 229.339,39.825C229.339,39.825 228.648,38.375 226.032,38.375C226.032,38.375 226.001,37.015 229.194,33.98C229.194,33.98 227.055,33.116 225.032,28.584C223.009,23.99 224.618,20.326 225.158,19.564C225.689,18.806 226.881,17.359 228.578,16.373C228.578,16.373 229.842,15.616 231.285,15.459C231.285,15.459 232.31,15.308 233.367,16.578C234.364,17.868 235.577,19.348 236.187,22.395C236.187,22.395 236.772,25.798 236.435,28.007C236.125,30.161 235.762,31.463 234.49,32.777C234.49,32.777 237.693,33.98 239.225,36.372C239.225,36.372 236.696,37.192 236.187,38.675C236.187,38.675 236.788,39.514 239.095,39.98C239.095,39.98 238.996,41.812 236.813,42.278C236.813,42.277 234.247,42.548 232.978,40.881M231.209,50.26C230.349,50.26 229.593,49.556 229.593,48.677C229.593,47.822 230.349,47.124 231.209,47.124C232.088,47.124 232.749,47.821 232.749,48.677C232.749,49.556 232.088,50.26 231.209,50.26M222.072,50.87L217.935,49.339L222.133,47.42L226.475,48.873L222.072,50.87ZM214.773,44.691C214.205,44.274 214.396,43.821 214.396,43.821C215.841,42.308 215.967,41.44 215.967,41.44C214.716,40.475 211.652,40.724 211.652,40.724C212.161,38.596 213.578,37.149 213.578,37.149C209.22,35.11 209.338,30.657 209.338,30.657C209.338,22.626 216.891,22.753 216.891,22.753C216.416,24.329 216.72,25.816 216.953,26.454C217.195,27.046 217.7,27.699 218.637,30.572C219.546,33.414 218.914,36.185 218.914,36.185C222.135,37.086 223.554,38.935 223.554,38.935C221.721,40.218 221.721,41.523 221.721,41.523C223.269,42.277 225.303,41.873 225.303,41.873C225.159,43.848 223.058,44.079 223.058,44.079C220.454,44.422 218.48,42.107 218.48,42.107C218.396,45.25 215.406,45.074 214.773,44.691M277.782,30.34C279.387,29.798 279.197,28.007 279.197,28.007C278.852,25.913 276.664,26.211 276.664,26.211C278.052,24.584 276.95,23.318 276.95,23.318C275.878,21.976 274.184,22.839 274.184,22.839C274.956,21.118 273.935,20.255 273.935,20.255C272.575,19.06 271.167,20.296 271.167,20.296C271.125,18.616 269.914,18.235 269.914,18.235C268.479,17.613 267.435,18.903 267.435,18.903C266.389,16.018 264.329,17.497 263.841,17.699C263.35,17.982 263.305,17.699 263.305,17.699C263.211,14.214 260.24,15.519 260.24,15.519C261.053,13.779 259.651,12.799 259.651,12.799C258.123,11.857 256.854,13.176 256.854,13.176C256.7,10.876 254.987,11.56 254.452,11.761C253.934,11.877 252.818,11.918 252.818,11.918C249.299,11.483 248.005,11.686 248.005,11.686C243.719,11.603 240.116,18.7 240.116,18.7L240.116,18.761L240.054,18.7C240.054,18.7 236.395,11.603 232.127,11.686C232.127,11.686 230.818,11.484 227.314,11.918C227.314,11.918 226.222,11.877 225.678,11.761C225.139,11.559 223.433,10.875 223.311,13.176C223.311,13.176 222.029,11.857 220.501,12.799C220.501,12.799 219.099,13.779 219.896,15.519C219.896,15.519 216.924,14.214 216.828,17.699C216.828,17.699 216.815,17.982 216.284,17.699C215.818,17.497 213.765,16.018 212.718,18.903C212.718,18.903 211.652,17.613 210.238,18.235C210.238,18.235 209.007,18.616 208.967,20.296C208.967,20.296 207.543,19.06 206.178,20.255C206.178,20.255 205.147,21.118 205.907,22.839C205.907,22.839 204.251,21.976 203.21,23.318C203.21,23.318 202.097,24.584 203.507,26.211C203.507,26.211 201.249,25.913 200.931,28.007C200.931,28.007 200.758,29.798 202.336,30.34C202.336,30.34 200.486,31.204 200.823,32.691C200.823,32.691 200.93,34.171 202.849,34.458C202.849,34.458 201.248,35.523 201.909,37.014C201.909,37.014 202.549,38.759 204.607,38.252C204.607,38.252 203.836,40.041 205.027,40.851C205.027,40.851 206.156,41.812 207.544,40.864C207.544,40.864 208.273,40.597 208.577,41.12C208.577,41.12 209.1,41.961 207.992,43.195C207.992,43.195 213.974,42.682 215.585,52.326L264.476,52.326C266.096,42.682 272.152,43.195 272.152,43.195C271.022,41.961 271.573,41.12 271.573,41.12C271.846,40.598 272.576,40.864 272.576,40.864C273.974,41.812 275.129,40.851 275.129,40.851C276.282,40.041 275.522,38.252 275.522,38.252C277.604,38.759 278.266,37.014 278.266,37.014C278.854,35.524 277.282,34.458 277.282,34.458C279.199,34.171 279.286,32.691 279.286,32.691C279.619,31.204 277.782,30.34 277.782,30.34M216.15,57.62C216.254,58.759 216.285,59.804 216.285,59.804L263.803,59.804C263.803,59.804 263.842,58.812 263.938,57.759C264.046,56.618 264.168,55.704 264.168,55.704L215.912,55.704C215.912,55.704 216.064,56.667 216.15,57.62M237.388,10.219C237.388,10.219 235.861,10.189 234.856,10.686C234.856,10.686 238.403,11.635 240.117,15.742C241.844,11.635 245.371,10.686 245.371,10.686C244.43,10.188 242.835,10.219 242.835,10.219C242.68,9.679 242.079,9.26 242.079,9.26C242.549,8.698 243.475,8.085 243.475,8.085L240.117,0.112L236.773,8.085C236.773,8.085 237.689,8.698 238.149,9.26C238.148,9.259 237.532,9.679 237.388,10.219" style="fill:rgb(166,132,75);fill-rule:nonzero;"/>
        </g>
    </g>
</svg>
