<?xml version="1.0" encoding="UTF-8" standalone="no"?><!DOCTYPE svg PUBLIC "-//W3C//DTD SVG 1.1//EN" "http://www.w3.org/Graphics/SVG/1.1/DTD/svg11.dtd"><svg width="100%" height="100%" viewBox="0 0 48 36" version="1.1" xmlns="http://www.w3.org/2000/svg" xmlns:xlink="http://www.w3.org/1999/xlink" xml:space="preserve" xmlns:serif="http://www.serif.com/" style="fill-rule:evenodd;clip-rule:evenodd;stroke-linejoin:round;stroke-miterlimit:2;"><g id="Layer-1" serif:id="Layer 1"><g id="g5688"><path id="path4490" d="M43.555,17.735c-3.415,9.413 -15.135,17.055 -26.175,17.065c-11.041,0.008 -17.224,-7.612 -13.808,-17.025c3.415,-9.412 15.133,-17.052 26.176,-17.063c11.039,-0.011 17.221,7.611 13.807,17.023" style="fill:#1c4e9d;fill-rule:nonzero;"/><path id="path4494" d="M27.202,2.027l-0.652,7.501l4.792,-7.504l-2.767,7.783l6.379,-6.716l-4.693,7.536l7.524,-5.468l-6.295,6.773l8.163,-3.849l-7.473,5.552l8.24,-1.967l-8.139,3.948l7.76,0.053l-8.252,2.077l6.749,2.064l-7.803,0.067l5.277,3.935l-6.819,-1.951l3.449,5.54l-5.376,-3.835l1.387,6.765l-3.561,-5.456l-0.779,7.531l-1.505,-6.707l-2.881,7.783l0.652,-7.5l-4.791,7.504l2.764,-7.781l-6.376,6.715l4.691,-7.536l-7.524,5.468l6.296,-6.773l-8.16,3.848l7.472,-5.549l-8.243,1.964l8.141,-3.949l-7.76,-0.049l8.252,-2.079l-6.751,-2.064l7.804,-0.067l-5.281,-3.935l6.823,1.951l-3.449,-5.54l5.373,3.833l-1.384,-6.764l3.561,5.457l0.776,-7.533l1.505,6.707l2.883,-7.783Z" style="fill:#f9e20e;fill-rule:nonzero;"/><path id="path4506" d="M17.333,17.762c-1.247,3.436 0.533,6.229 3.969,6.228c3.437,-0.004 7.247,-2.804 8.495,-6.241c1.247,-3.436 -0.535,-6.231 -3.971,-6.227c-3.436,0.004 -7.247,2.804 -8.493,6.24m0.563,-0.001c1.133,-3.127 4.6,-5.673 7.728,-5.676c3.127,-0.003 4.745,2.537 3.609,5.665c-1.136,3.127 -4.6,5.673 -7.727,5.676c-3.123,0.003 -4.745,-2.537 -3.611,-5.665" style="fill:#fff;fill-rule:nonzero;"/><path id="path4510" d="M6.581,17.748c3.344,-9.217 13.447,-16.748 22.691,-16.999c0.152,-0.003 0.303,-0.008 0.455,-0.008c1.288,-0.001 2.511,0.099 3.665,0.29c0.439,0.076 0.869,0.163 1.308,0.266c0.661,0.161 1.301,0.353 1.911,0.575c-3.444,-1.931 -9.733,-2.321 -14.441,-1.389c-10.225,2.024 -19.076,9.512 -22.169,17.271l6.581,-0.006Z" style="fill:#4ba3e0;fill-rule:nonzero;"/><path id="path4514" d="M47.126,17.756l-6.58,0.007c-3.343,9.217 -13.447,16.748 -22.691,16.997c-0.151,0.004 -0.303,0.008 -0.455,0.008c-1.288,0.001 -2.511,-0.1 -3.665,-0.288c-0.44,-0.076 -0.871,-0.165 -1.307,-0.268c-0.665,-0.161 -1.303,-0.353 -1.913,-0.575c3.445,1.931 9.735,2.321 14.441,1.391c10.224,-2.024 19.077,-9.513 22.168,-17.272l0.001,0Z" style="fill:#87cf2e;fill-rule:nonzero;"/></g></g></svg>