<svg aria-labelledby="title" width="114" height="40" preserveAspectRatio="xMaxYMid meet" viewBox="0 0 114 40" fill="none" xmlns="http://www.w3.org/2000/svg" class="ungdsp0 ungdsp2"><title>SAS logotype</title><path d="M30.8065 0C37.2845 0 40.5227 1.70852 41.7012 2.277C42.4376 2.70528 42.2897 3.27376 42.2897 3.27376L41.6688 5.91588C41.6178 6.12394 41.5792 6.33487 41.5533 6.54753C41.407 6.83254 41.1127 6.83254 40.8169 6.54753L39.489 5.78339C37.8637 4.90371 35.9427 4.12879 33.3099 4.12879C29.3353 4.12879 27.2725 6.97581 28.3031 11.1031L29.018 13.7267C29.8408 16.8669 30.6393 20.0134 31.4135 23.1659L31.6908 24.3414C33.4562 31.4589 28.451 40 14.9066 40C7.39804 40 2.68708 37.2947 1.06643 36.0145C0.183701 35.3027 -0.110542 34.8744 0.0358092 34.4477L0.479484 33.0365C0.778348 32.1152 1.13267 31.0954 1.21432 31.1739C1.21432 30.6039 1.50856 30.4622 1.80281 30.7472L2.48064 31.3819C4.25688 32.9841 8.01579 35.8712 12.9917 35.8712C19.3233 35.8712 18.8812 30.8889 18.8812 30.1772C18.8812 28.1852 16.2315 18.3623 15.4951 15.8003C13.4339 7.54429 18.587 0 30.8065 0ZM102.505 0C108.983 0 112.221 1.70852 113.399 2.277C114.136 2.70528 113.988 3.27376 113.988 3.27376L113.369 5.91588C113.317 6.12394 113.279 6.33487 113.253 6.54753C113.107 6.83254 112.812 6.83254 112.518 6.54753C110.603 5.40903 108.396 4.12879 105.01 4.12879C101.035 4.12879 98.9722 6.97581 100.003 11.1031L100.484 12.8347C101.363 16.1424 103.036 22.7469 103.389 24.3429C105.156 31.4589 100.151 40 86.6063 40C79.0978 40 74.681 37.438 73.0619 36.1562C72.3256 35.5631 71.999 35.1687 71.9943 34.8051L72.6907 31.4204C72.7138 31.3203 72.7338 31.2448 72.7461 31.2001C72.9156 30.7472 73.3562 30.6054 73.6504 30.8889L74.812 31.8995C76.7299 33.5018 80.0991 35.8712 84.6914 35.8712C91.0231 35.8712 90.5809 30.8889 90.5809 30.1772C90.5809 28.1852 87.9312 18.3623 87.1948 15.8003C85.132 7.54429 90.2851 0 102.505 0ZM74.6795 0.426745C75.0338 0.426745 75.0092 0.700971 75.0615 0.810353L75.1216 0.853489L67.4652 39.0032C67.4652 39.2174 67.382 39.2698 67.2803 39.2836L53.4786 39.2882C53.038 39.2882 53.038 39.0032 53.038 38.8615L54.6356 30.7349C54.6444 30.692 54.6516 30.6489 54.6571 30.6055L54.6186 30.5053L54.5108 30.4622H43.1724L43.0322 30.4992L42.8782 30.6055L36.106 39.0032C36.106 39.1111 36.0243 39.2174 35.7963 39.2651L35.519 39.2882H30.805C30.5862 39.2882 30.5308 39.2081 30.5785 39.0479L30.6586 38.8615L62.3121 0.711755L62.4538 0.611616C62.5854 0.537005 62.7286 0.484934 62.8774 0.457557L63.1963 0.426745H74.6795ZM58.1896 11.6731L58.0432 11.8148L46.2643 26.4767V26.6199H55.2456L58.1896 11.8148L58.2558 11.7101L58.1896 11.6731Z" fill="#0002BE" class="ungdsp5"></path></svg>