<?xml version="1.0" encoding="UTF-8" standalone="no"?>
<!DOCTYPE svg PUBLIC "-//W3C//DTD SVG 1.1//EN" "http://www.w3.org/Graphics/SVG/1.1/DTD/svg11.dtd">
<svg width="100%" height="100%" viewBox="0 0 548 494" version="1.1" xmlns="http://www.w3.org/2000/svg" xmlns:xlink="http://www.w3.org/1999/xlink" xml:space="preserve" xmlns:serif="http://www.serif.com/" style="fill-rule:evenodd;clip-rule:evenodd;stroke-linejoin:round;stroke-miterlimit:2;">
    <g transform="matrix(4.166667,0,0,4.166667,0,0)">
        <g id="layer1" transform="matrix(1,0,0,1,-57.69087,-473.10367)">
            <path id="path3047" d="M123.559,535.187L115.914,548.473L131.325,548.473L123.559,535.187ZM107.701,546.971C102.005,547.391 94.273,549.914 86.425,554.237C72.719,561.787 63.85,571.975 66.61,576.981C69.371,581.994 82.725,579.937 96.424,572.388C105.516,567.382 112.484,561.205 115.339,556.158L102.418,556.158L107.701,546.971ZM85.147,545.963C94.895,541.12 104.589,538.975 111.916,539.638L108.716,545.206L112.342,538.894C108.331,532.569 105.658,522.894 105.361,511.935C93.332,518.342 85.147,531.006 85.147,545.578L85.147,545.963ZM144.05,577.488C133.774,571.217 126.346,563.248 123.552,556.158L123.2,556.158C120.393,563.275 112.904,571.285 102.56,577.57C108.513,581.433 115.616,583.679 123.241,583.679C130.919,583.679 138.07,581.399 144.05,577.488M141.513,512.145C141.188,522.908 138.577,532.42 134.653,538.704L130.283,531.229C132.543,526.033 133.984,518.24 133.984,509.534C133.984,493.886 129.343,481.201 123.62,481.201C117.903,481.201 113.262,493.886 113.262,509.534C113.262,518.125 114.663,525.824 116.875,531.019L114.23,535.613L123.464,519.566L144.862,556.158L131.413,556.158C134.261,561.205 141.229,567.382 150.321,572.388C164.027,579.937 177.375,581.994 180.135,576.988C182.895,571.975 174.026,561.787 160.32,554.237C152.689,550.036 145.159,547.533 139.511,547.012L135.181,539.611C142.399,539.049 151.83,541.16 161.335,545.835L161.341,545.578C161.341,531.161 153.324,518.619 141.512,512.145M123.436,473.104C132.298,473.104 139.679,486.025 141.242,503.086C157.863,510.034 169.547,526.446 169.547,545.578C169.547,547.195 169.459,548.798 169.296,550.374C184.064,560.041 192.25,573.118 187.88,581.047C183.517,588.976 168.085,589.036 152.018,581.717C144.178,587.913 134.274,591.621 123.504,591.621C112.693,591.621 102.755,587.886 94.894,581.642C78.773,589.036 63.247,588.996 58.864,581.04C54.473,573.071 62.774,559.899 77.697,550.212C77.549,548.69 77.467,547.14 77.467,545.578C77.467,526.5 89.083,510.129 105.63,503.147C107.186,486.052 114.567,473.104 123.436,473.104" style="fill:rgb(0,86,159);"/>
        </g>
    </g>
</svg>
