<svg role="img" viewBox="0 0 64 64" xmlns="http://www.w3.org/2000/svg"><title>Scoot</title><path fill="#ffe900" d="M28.246 60.246c15.553 0 28.246-12.603 28.246-28.246 0-15.553-12.603-28.246-28.246-28.246C12.693 3.754 0 16.357 0 32c0 15.643 12.603 28.246 28.246 28.246"/><path fill="#000000" d="m59.53 22.257-3.128 2.146.536 2.234-2.632.702c-1.05-.912-2.463-1.507-4.25-1.507-4.29 0-6.346 3.397-6.346 6.257s2.056 6.257 6.346 6.257 6.346-3.396 6.346-6.257c0-.61-.085-1.219-.255-1.808l1.596-.426 2.146 8.76L64 37.631l-.09-2.413-1.162.269-1.608-6.437 2.86-.714-.714-3.22-2.862.716zm-45.764 3.575c-2.414 0-4.558 1.52-4.558 4.023 0 1.609 1.25 2.592 2.77 3.04 2.235.893 3.129.982 3.129 1.787 0 .536-.626.894-1.252.894-.179 0-1.162-.001-1.34-1.074H9.027c.357 3.129 3.04 3.933 4.827 3.933 2.592 0 4.827-1.519 4.827-4.111 0-2.503-2.145-3.128-4.111-3.664-.894-.269-1.788-.627-1.788-1.163 0-.358.268-.805.983-.805.983-.09 1.072.537 1.072.805h3.486c-.268-3.129-2.95-3.665-4.558-3.665zm10.993 0c-3.486 0-6.166 2.771-6.166 6.257a6.219 6.219 0 0 0 6.257 6.257c3.218 0 5.54-2.145 6.166-4.827h-3.575c-.358.715-1.072 1.61-2.502 1.61-1.698 0-2.77-1.252-2.77-2.95 0-.805.266-1.61.803-2.146.536-.537 1.252-.893 2.056-.803 1.252-.179 1.966.714 2.413 1.519h3.575c-.625-2.86-3.128-4.917-6.257-4.917zm12.514 0c-4.29 0-6.346 3.397-6.346 6.257s2.056 6.257 6.346 6.257 6.348-3.396 6.348-6.257c0-2.86-2.057-6.257-6.348-6.257zm0 3.307c1.52 0 2.862 1.252 2.862 2.95 0 1.699-1.253 2.95-2.862 2.95-1.52 0-2.86-1.251-2.86-2.95 0-1.698 1.251-2.95 2.86-2.95zm12.694 0c1.61 0 2.86 1.252 2.86 2.95 0 1.699-1.25 2.95-2.86 2.95-1.52 0-2.861-1.251-2.861-2.95 0-1.698 1.252-2.95 2.861-2.95z"/></svg>