<svg width="200" height="200" xmlns="http://www.w3.org/2000/svg"><title>Shanghai Airlines</title>
 <g>
  <path fill="#DE0038" d="m2.94466,169.10957c0,0 20.81839,-2.5685 49.34228,-30.28129l93.41237,-103.01046l51.91078,0l-43.25899,132.34546l-151.40645,0.94629zm0,0" class="st0"/>
  <path fill="#FFFFFF" d="m68.2387,134.23202c0,0 0.67592,-0.81111 1.35184,-0.81111c0.67592,0 1.21666,0.81111 1.21666,0.81111l-2.5685,0zm95.84569,-51.91078c0.67592,0 -19.19617,-0.94629 -25.54984,0.27037c-6.35366,1.21666 -12.43696,2.02776 -18.24988,10.54438c-5.81293,8.38143 -11.2203,16.89804 -14.73509,21.76468c-11.08512,15.27583 -11.08512,17.70915 -23.2517,18.79062c-6.62403,0.54074 -8.24624,0.27037 -10.00364,-0.54074c-2.02776,-0.94629 -2.97406,-2.02776 -5.81293,0.13518c-3.24442,2.5685 -7.70551,1.89258 -7.57032,2.29813l93.41237,0c0,0 4.59627,0.13518 6.08329,-2.70369l-2.29813,-0.81111c0,0 -0.54074,2.97406 -9.73327,2.02776c-9.32772,-0.81111 -21.35912,-3.10924 -21.35912,-3.10924l28.79426,-40.5553c1.7574,-2.16295 4.19071,-4.59627 6.62403,-6.62403c0,0 -11.62585,1.21666 -16.49249,8.24624c-5.00182,7.16477 -27.03687,37.44606 -27.03687,37.44606l-1.48703,-0.27037l28.11834,-39.06827c0.13518,0 4.19071,-6.62403 20.54802,-7.84069" class="st1"/>
  <path fill="#FFFFFF" d="m69.45536,132.46665c-1.62221,0 -2.97406,2.16295 -2.97406,2.16295l6.08329,0c0,0 -1.48703,-2.16295 -3.10924,-2.16295" class="st1"/>
 </g>
</svg>