<?xml version="1.0" encoding="UTF-8" standalone="no"?>
<!DOCTYPE svg PUBLIC "-//W3C//DTD SVG 1.1//EN" "http://www.w3.org/Graphics/SVG/1.1/DTD/svg11.dtd">
<svg width="100%" height="100%" viewBox="0 0 427 426" version="1.1" xmlns="http://www.w3.org/2000/svg" xmlns:xlink="http://www.w3.org/1999/xlink" xml:space="preserve" xmlns:serif="http://www.serif.com/" style="fill-rule:evenodd;clip-rule:evenodd;stroke-linejoin:round;stroke-miterlimit:2;">
    <g transform="matrix(4.166667,0,0,4.166667,0,0)">
        <g transform="matrix(0.074562,0,0,-0.074562,-0.000046,176.792584)">
            <path d="M309.723,1184.72C314.84,1180.71 321.5,1179.23 327.836,1180.69C545.688,1180.58 763.539,1180.43 981.391,1180.24C995.715,1181.02 1009.23,1187.13 1019.28,1197.37C1066.56,1233.97 1109.78,1275.53 1148.2,1321.35C1200.39,1382.33 1230.8,1458.95 1234.64,1539.13C1233.72,1573.79 1230.47,1608.36 1224.93,1642.59C1215.44,1722.88 1242.2,1803.22 1297.94,1861.78C1307.35,1871.98 1317.62,1881.38 1327.06,1891.54C1336.24,1901.41 1340.54,1898.23 1344.07,1886.84C1356.84,1846.64 1365.57,1805.27 1370.13,1763.33C1376.07,1708.1 1375.41,1652.36 1368.16,1597.28C1353.26,1481.77 1308.38,1372.18 1237.99,1279.41C1135.28,1139.64 983.027,1044.44 812.402,1013.29C689.594,989.488 562.566,1000.72 445.84,1045.68C344.789,1083.19 254.145,1144.26 181.43,1223.83C107.363,1302.96 53.812,1399.03 25.469,1503.65C-16.234,1650.86 -6.504,1807.9 53.055,1948.84C109.504,2085.73 209.02,2200.5 336.527,2275.78C425.488,2329.69 525.934,2361.79 629.668,2369.48C684.516,2372.98 739.578,2370.73 793.961,2362.76C798.531,2362.16 804.695,2363.46 806.676,2358.04C809.102,2351.38 802.18,2349.07 798.512,2345.83C758.93,2310.89 717.668,2277.82 680.484,2240.19C625.203,2187.51 587.145,2119.35 571.277,2044.65C560.348,1981.4 560.465,1916.73 571.621,1853.52C582.234,1783.92 601.48,1715.89 608.828,1645.67C627.789,1525.27 581.211,1403.88 486.578,1327.06C434.477,1283.65 378.168,1245.62 327.227,1200.8C321.355,1195.64 315.707,1190.23 309.723,1184.72" style="fill:rgb(30,64,108);fill-rule:nonzero;"/>
            <path d="M728.824,1307.35C727.961,1318.75 734.801,1326.38 737.93,1335.2C761.02,1397.27 774.664,1462.46 778.402,1528.58C780.801,1607.45 775.664,1686.37 763.07,1764.27C759.277,1790.11 754.586,1815.87 752.195,1841.84C747.781,1920.91 770.598,1999.11 816.832,2063.4C870.078,2144.23 937.281,2214.95 1015.3,2272.23C1022.41,2279.19 1033.66,2279.55 1041.2,2273.05C1050.32,2266.57 1059.67,2260.42 1069.25,2254.58C1080.69,2247.62 1079.15,2241.99 1069.27,2234.45C1031.96,2205.97 994.504,2177.66 959.352,2146.48C897.164,2097.88 850.172,2032.5 823.926,1958.06C816.098,1932.55 811.406,1906.18 809.957,1879.52C809.031,1802.17 814.785,1724.89 827.148,1648.52C840.609,1573.59 834.961,1496.48 810.723,1424.31C794.707,1384.64 771.695,1348.18 742.773,1316.66C739.41,1312.86 736.559,1307.81 728.824,1307.35" style="fill:rgb(30,64,108);fill-rule:nonzero;"/>
            <path d="M938.609,1299.24C930.902,1301.74 934.102,1306.37 935.969,1310.39C946.02,1332.19 954.781,1354.55 962.195,1377.38C984.176,1445.48 996.523,1516.3 998.883,1587.82C1000.4,1667.82 995.801,1747.8 985.133,1827.1C979.688,1880.4 996.633,1933.58 1031.91,1973.9C1067.78,2014.16 1109.11,2049.19 1154.7,2077.98C1171.23,2089.71 1188.55,2100.35 1204.8,2112.43C1214.43,2119.6 1221.09,2118.23 1227.38,2108.89C1230.37,2104.46 1233.36,2100.03 1236.65,2095.84C1258.55,2067.86 1256.63,2072.89 1229.14,2053.65C1193.27,2030.54 1159.07,2004.95 1126.79,1977.05C1065.8,1921.42 1035.42,1839.77 1045.21,1757.8C1058.13,1649.48 1049.94,1539.67 1021.07,1434.46C1006.44,1386.29 980.727,1342.2 945.996,1305.74C943.832,1303.48 941.301,1301.58 938.609,1299.24" style="fill:rgb(30,64,108);fill-rule:nonzero;"/>
        </g>
    </g>
</svg>
