<svg xmlns="http://www.w3.org/2000/svg" width="150" height="139"><path fill="#FFCD00" d="M75.01 132.31c-1.18 0-2.3-.36-3.24-1.04l-3.62-2.65H33.72l-3.18-25.32L7.61 86.61a67.5 67.5 0 0 1-.98-11.54C6.63 37.36 37.3 6.7 75.01 6.7c37.7 0 68.37 30.67 68.37 68.37 0 3.85-.33 7.73-.98 11.55l-22.92 16.69-3.19 25.32H81.87l-3.64 2.68c-.89.64-2.05 1-3.22 1"/><path fill="#DA291C" d="M68.47 135.84c1.92 1.39 4.2 2.1 6.53 2.1s4.63-.72 6.54-2.1l2.17-1.58h37.53l3.51-27.84 22.76-16.57C148.5 85 149 80.04 149 75.06c0-40.86-33.15-74-74-74S1 34.2 1 75.06c0 4.98.48 9.94 1.5 14.79l22.76 16.57 3.49 27.84h37.56zm-.98-14.53H40.18l-2.74-22.06-22.5-16.35c-.66-2.57-1-5.18-1-7.84 0-4.42.93-8.79 2.75-12.82l39.81 40.23-38.7-47.75c1.52-6.2 4.89-11.79 9.67-16.02l34.7 59.86-30.76-65.53c3.97-5.31 9.51-9.2 15.85-11.15l21.21 74.33-15.5-77.4a31.36 31.36 0 0 1 15.45-4.06c1.15 0 2.29.05 3.42.17L75 95.42l3.15-80.49c1.15-.12 2.28-.17 3.45-.17 5.39 0 10.72 1.39 15.44 4.06l-15.5 77.4 21.23-74.33a31.4 31.4 0 0 1 15.83 11.15L87.86 98.56l34.7-59.86c4.75 4.23 8.13 9.82 9.67 16.02l-38.7 47.76 39.81-40.23c1.8 4.03 2.71 8.4 2.71 12.82 0 2.66-.32 5.27-1 7.84l-22.46 16.35-2.76 22.06H82.52l-4.02 2.93c-1.03.73-2.25 1.16-3.5 1.16s-2.47-.42-3.48-1.16z"/></svg>