<?xml version="1.0" encoding="UTF-8" standalone="no"?>
<!DOCTYPE svg PUBLIC "-//W3C//DTD SVG 1.1//EN" "http://www.w3.org/Graphics/SVG/1.1/DTD/svg11.dtd">
<svg width="100%" height="100%" viewBox="0 0 362 379" version="1.1" xmlns="http://www.w3.org/2000/svg" xmlns:xlink="http://www.w3.org/1999/xlink" xml:space="preserve" xmlns:serif="http://www.serif.com/" style="fill-rule:evenodd;clip-rule:evenodd;stroke-linejoin:round;stroke-miterlimit:2;">
    <g transform="matrix(4.166667,0,0,4.166667,0,0)">
        <g transform="matrix(1,0,0,1,-211.927117,-0.015737)">
            <path id="path526" d="M279.484,9.45C277.471,10.511 273.324,11.012 271.62,9.231C269.77,12.115 273.335,14.84 277.445,13.313C279.851,12.434 282.373,11.302 285.014,10.938C287.774,10.548 291.082,10.938 292.27,12.136C282.012,12.756 268.868,18.36 259.077,25.262C251.468,30.633 246.727,35.477 241.005,43.112C240.234,44.191 240.351,45.004 241.728,44.286C248.442,40.865 257.096,38.036 264.557,36.171C270.52,34.691 276.891,33.298 282.959,34.95C286.025,35.794 288.869,37.786 289.969,40.851C291.399,44.801 290.304,49.476 285.576,50.207C283.228,50.56 281.682,49.658 280.814,48.426C280.397,47.835 280.189,47.814 279.862,47.917L273.791,49.771C273.448,49.88 272.997,50.355 273.248,50.959C273.807,52.36 275.11,54.183 276.543,55.249C280.405,58.127 285.463,58.444 289.864,56.723C295.937,54.357 299.15,48.006 298.248,41.271C297.414,35.105 292.924,30.003 287.128,28.024C281.297,26.024 273.311,26.911 266.905,29.251C265.214,29.873 264.818,30.129 265.789,29.317C270.338,25.62 279.45,21.333 287.093,19.146C292.325,17.653 297.158,17.302 298.57,18.458C299.995,9.722 292.742,4.023 283.874,6.29C286.993,4.311 284.531,0 280.052,0.016C272.654,0.058 265.597,3.425 258.655,4.182C254.758,4.614 250.165,3.826 247.091,2.235C246.492,8.353 253.935,12.846 261.027,11.366C266,10.329 270.617,7.907 275.234,6.886C279.313,5.965 281.41,8.445 279.484,9.45M240.464,80.621C236.496,86.557 234.338,86.293 230.768,85.9C229.95,85.811 229.961,85.948 229.594,86.539L228.652,88.056C228.241,88.713 228.27,88.797 229.217,89.201C235.995,92.04 242.163,91.541 247.165,84.009L270.108,49.452C272.393,46.015 273.395,44.165 276.603,44.017C278.59,43.922 280.004,45.228 280.392,46.859C280.571,47.653 281.041,47.7 281.511,47.574L287.481,45.785C287.814,45.693 288.054,45.207 288.072,44.643C288.154,42.862 287.093,40.284 285.481,39.023C280.922,35.477 274.005,36.701 268.868,37.688C260.621,39.287 250.505,42.558 241.812,46.867C239.546,48.006 237.003,49.17 235.607,51.262C233.206,54.845 226.497,65.213 223.917,68.712C219.579,74.537 217.777,74.345 214.136,73.967C213.593,73.907 213.527,73.978 213.253,74.432L212.171,76.186C211.807,76.782 211.838,76.885 212.348,77.104C219.247,80.115 225.265,80.091 230.462,72.295L241.348,55.948C242.96,53.52 245.627,52.075 247.645,51.383L232.174,74.619C228.22,80.558 226.138,80.281 222.584,79.906C221.772,79.814 221.761,79.956 221.415,80.521L220.447,82.072C220.144,82.558 219.978,82.742 220.84,83.106C228.22,86.204 234.05,85.309 238.878,78.012L257.935,49.178C258.935,47.653 261.33,46.445 263.607,45.962L240.464,80.621L240.464,80.621Z" style="fill:rgb(204,3,39);"/>
        </g>
    </g>
</svg>
