<?xml version="1.0" encoding="UTF-8" standalone="no"?>
<!DOCTYPE svg PUBLIC "-//W3C//DTD SVG 1.1//EN" "http://www.w3.org/Graphics/SVG/1.1/DTD/svg11.dtd">
<svg width="100%" height="100%" viewBox="0 0 308 309" version="1.1" xmlns="http://www.w3.org/2000/svg" xmlns:xlink="http://www.w3.org/1999/xlink" xml:space="preserve" xmlns:serif="http://www.serif.com/" style="fill-rule:evenodd;clip-rule:evenodd;stroke-linejoin:round;stroke-miterlimit:2;">
    <g transform="matrix(4.166667,0,0,4.166667,0,0)">
        <g transform="matrix(1,0,0,1,-0.020003,-0.594684)">
            <path d="M34.34,0.683C29.604,1.008 24.563,2.384 20.309,4.526C18.136,5.608 15.72,7.183 13.567,8.905C12.171,10.019 9.262,12.938 8.117,14.377C4.347,19.113 1.795,24.553 0.661,30.235C0.083,33.144 0.02,33.879 0.02,37.586C0.02,40.348 0.062,41.303 0.209,42.312C1.249,49.379 3.612,54.966 7.907,60.532C9.062,62.023 12.244,65.237 13.725,66.413C17.453,69.354 20.992,71.265 25.382,72.714C34.665,75.791 44.842,75.025 53.569,70.614C59.145,67.799 64.049,63.462 67.557,58.274C70.508,53.906 72.356,49.358 73.312,44.149C73.753,41.713 73.847,40.579 73.847,37.586C73.847,33.963 73.564,31.652 72.745,28.397C70.98,21.424 66.958,14.807 61.581,10.04C53.999,3.308 44.369,0 34.34,0.683L34.34,0.683L34.34,0.683ZM40.861,3.245C45.388,3.77 49.798,5.209 53.768,7.435C62.621,12.403 68.985,21.182 70.844,31.022C71.212,32.986 71.254,32.745 70.466,32.892C68.303,33.301 64.858,35.38 58.735,40.001C56.877,41.398 54.115,43.477 52.581,44.633C48.129,47.993 46.648,48.886 44.295,49.684C43.382,49.999 42.993,50.072 42.132,50.104C41.197,50.146 41.029,50.125 40.609,49.904C39.948,49.558 39.717,49.117 39.727,48.193C39.738,47.289 39.853,46.89 40.798,44.622C41.691,42.48 41.796,42.06 41.744,41.125C41.702,40.243 41.397,39.781 40.641,39.413C40.21,39.193 39.99,39.161 39.139,39.172C38.278,39.182 37.952,39.245 36.829,39.613C31.042,41.471 26.768,42.259 22.368,42.259C18.335,42.259 15.426,41.64 12.412,40.127C10.847,39.35 9.619,38.468 8.222,37.113C6.363,35.307 5.187,33.648 3.948,31.085L3.297,29.73L3.423,29.09C3.591,28.271 4.294,26.107 4.798,24.826C8.201,16.33 14.933,9.42 23.313,5.818C27.062,4.211 30.549,3.403 35.201,3.046C36.157,2.972 39.559,3.098 40.861,3.245L40.861,3.245L40.861,3.245L40.861,3.245ZM3.643,40.537C5.785,42.249 8.264,43.603 10.847,44.454C13.725,45.41 16.151,45.83 18.776,45.83C22.62,45.83 26.054,44.969 32.891,42.28C34.508,41.65 36.377,40.957 37.039,40.736C39.076,40.075 40.336,40.127 40.62,40.873C40.788,41.314 40.504,42.28 39.654,44.076C38.509,46.533 38.267,47.321 38.257,48.718C38.246,50.051 38.414,50.556 39.076,51.217C39.948,52.089 41.061,52.383 43.182,52.309C45.577,52.225 47.278,51.7 50.67,50.03C53.695,48.539 55.847,47.279 60.51,44.275C64.448,41.724 65.95,40.883 67.599,40.306C68.534,39.98 70.214,39.854 70.949,40.054L71.401,40.169L71.327,40.873C71.264,41.566 71.012,43.32 70.907,43.834C70.854,44.097 70.844,44.097 69.783,44.065C67.515,43.992 65.94,44.591 61.035,47.394C54.734,50.997 49.872,52.992 45.44,53.769C44.075,54.011 41.828,54.011 40.924,53.78C38.877,53.233 37.658,52.078 37.186,50.23C36.829,48.854 37.144,47.447 38.362,44.927C39.444,42.69 39.517,42.396 39.118,41.892C38.908,41.619 38.866,41.608 38.152,41.65C37.186,41.703 36.818,41.86 31.893,44.254C27.619,46.334 26.18,46.953 24.227,47.542C21.685,48.308 19.784,48.602 17.295,48.592C14.166,48.581 11.351,47.972 8.264,46.649C6.248,45.788 3.118,44.023 2.918,43.635C2.834,43.477 2.572,41.629 2.435,40.159C2.372,39.508 2.372,39.487 2.561,39.644C2.666,39.739 3.15,40.138 3.643,40.537L3.643,40.537L3.643,40.537L3.643,40.537ZM38.026,42.637C38.278,42.732 38.225,43.194 37.921,43.729C37.354,44.706 36.503,46.47 36.209,47.279C35.001,50.556 35.484,53.338 37.532,54.861C39.696,56.458 43.539,56.846 48.381,55.953C51.195,55.428 53.358,54.798 58.704,52.929C62.464,51.606 64.364,51.018 65.866,50.713C66.843,50.514 68.597,50.461 68.765,50.629C68.891,50.755 68.156,52.498 67.378,53.895C67.011,54.567 66.916,54.662 66.727,54.609C66.129,54.431 65.047,54.336 64.291,54.389C62.401,54.536 60.521,54.903 54.419,56.332C51.143,57.098 48.244,57.655 46.595,57.844C43.739,58.18 41.166,58.001 39.223,57.34C37.91,56.899 37.165,56.447 36.304,55.596C34.361,53.664 34.077,50.587 35.558,47.31C36.22,45.851 36.367,45.305 36.209,45C35.915,44.454 34.991,44.937 33.101,46.617C31.62,47.941 29.456,49.715 28.364,50.514C26.81,51.648 24.437,53.128 23.208,53.717C21.223,54.683 18.587,55.407 15.93,55.712C13.525,55.995 9.503,55.817 7.697,55.355C7.203,55.229 7.182,55.208 6.668,54.284C6.374,53.759 5.933,52.897 5.68,52.362C5.155,51.238 5.082,51.291 6.647,51.606C12.549,52.824 16.781,52.981 20.498,52.11C24.216,51.249 28.091,49.264 32.25,46.092C34.707,44.223 36.199,43.246 37.228,42.826C37.931,42.532 37.826,42.564 38.026,42.637L38.026,42.637L38.026,42.637L38.026,42.637ZM34.644,47.478C33.741,49.61 33.531,50.356 33.374,51.9C33.195,53.643 33.531,55.281 34.329,56.521C36.766,60.291 43.392,61.54 54.734,60.375C58.158,60.018 59.786,59.944 60.878,60.102C61.802,60.238 62.558,60.49 62.558,60.648C62.558,60.784 60.867,62.538 60.227,63.074L59.733,63.483L58.441,63.326C56.625,63.095 53.684,62.948 50.849,62.948C44.285,62.937 41.292,62.559 38.435,61.383C36.902,60.742 35.852,60.07 34.833,59.062C33.836,58.054 33.374,57.35 32.901,56.09L32.576,55.229L32.576,52.813C32.576,50.577 32.565,50.398 32.386,50.366C32.05,50.303 31.536,50.829 30.57,52.194C28.123,55.691 26.432,57.644 24.384,59.356C21.433,61.824 18.314,63.158 15.111,63.336L13.914,63.399L12.507,61.992C11.729,61.225 11.099,60.553 11.099,60.522C11.099,60.49 11.509,60.427 12.024,60.385C15.867,60.081 19.931,58.852 23.134,57.014C25.728,55.523 27.062,54.368 29.845,51.238C32.954,47.741 34.844,45.903 35.075,46.134C35.127,46.187 34.959,46.722 34.644,47.478L34.644,47.478L34.644,47.478ZM31.714,52.572C31.567,53.58 31.63,56.1 31.83,57.056C32.449,60.007 34.014,62.023 37.06,63.777C39.664,65.279 42.542,66.214 48.486,67.516C51.342,68.136 52.266,68.377 52.266,68.493C52.266,68.535 51.825,68.766 51.29,69.007C42.636,72.924 33.048,73.187 24.279,69.753C22.872,69.196 19.606,67.6 19.606,67.474C19.606,67.432 20.11,67.054 20.74,66.644C23.491,64.827 25.592,62.759 27.325,60.154C27.703,59.598 28.816,57.539 29.803,55.586C30.79,53.622 31.641,52.026 31.693,52.026C31.756,52.026 31.767,52.246 31.714,52.572L31.714,52.572L31.714,52.572Z" style="fill:rgb(215,0,15);fill-rule:nonzero;"/>
            <path id="svg_3" d="M15.594,15.312C14.313,15.511 13.914,15.616 14.05,15.721C14.071,15.742 14.47,15.931 14.922,16.152C15.521,16.446 15.983,16.782 16.592,17.359C17.411,18.147 17.631,18.441 19.973,22.064C20.824,23.366 21.906,24.564 22.809,25.173C24.153,26.086 26.61,26.99 30.465,27.987C31.788,28.323 33.132,28.722 33.458,28.869C34.287,29.258 35.358,30.34 35.358,30.812C35.358,30.875 35.085,30.917 34.697,30.917C33.867,30.917 33.153,31.127 32.47,31.558C32.187,31.747 31.756,31.925 31.536,31.957C30.937,32.051 30.958,32.23 31.599,32.45C31.903,32.545 32.323,32.734 32.523,32.86C33.059,33.196 34.256,33.606 35.253,33.795C36.913,34.11 38.414,33.963 39.895,33.333C40.315,33.154 40.935,32.976 41.26,32.944C41.775,32.892 41.943,32.923 42.426,33.175L42.993,33.459L43.529,33.186C44.39,32.745 44.159,32.513 42.248,31.925C40.882,31.495 40.41,31.18 40.599,30.823C40.662,30.718 40.945,30.445 41.239,30.235C41.534,30.014 42.447,29.079 43.277,28.145C45.125,26.065 47.12,24.133 48.255,23.324C49.231,22.621 50.985,21.707 51.878,21.424C52.382,21.266 52.728,21.245 53.873,21.277C55.48,21.34 56.341,21.529 57.465,22.096L58.242,22.484L58.693,22.264C59.292,21.97 60.447,20.815 60.804,20.132C60.962,19.838 61.182,19.229 61.298,18.777C61.508,17.969 61.581,16.53 61.424,16.53C61.371,16.53 60.794,16.887 60.132,17.338C57.276,19.25 54.976,19.943 50.901,20.1C48.381,20.195 47.415,20.352 45.839,20.899C42.741,21.98 40.105,23.997 38.057,26.853C37.732,27.294 37.322,27.924 37.144,28.229C36.755,28.911 36.902,28.932 34.749,27.872C31.378,26.191 29.246,24.375 25.476,19.995C24.458,18.809 23.281,17.506 22.851,17.097C21.958,16.236 20.73,15.406 20.047,15.207C19.343,14.986 17.285,15.039 15.594,15.312L15.594,15.312L15.594,15.312L15.594,15.312Z" style="fill:rgb(215,0,15);fill-rule:nonzero;"/>
        </g>
    </g>
</svg>
