<?xml version="1.0" encoding="UTF-8" standalone="no"?>
<!DOCTYPE svg PUBLIC "-//W3C//DTD SVG 1.1//EN" "http://www.w3.org/Graphics/SVG/1.1/DTD/svg11.dtd">
<svg width="100%" height="100%" viewBox="0 0 169 150" version="1.1" xmlns="http://www.w3.org/2000/svg" xmlns:xlink="http://www.w3.org/1999/xlink" xml:space="preserve" xmlns:serif="http://www.serif.com/" style="fill-rule:evenodd;clip-rule:evenodd;stroke-linejoin:round;stroke-miterlimit:2;">
    <g transform="matrix(4.166667,0,0,4.166667,0,0)">
        <g>
            <g>
                <path d="M15.734,11.968C15.734,11.968 15.808,11.978 15.808,11.978C16.588,12.073 17.354,11.863 17.966,11.388C18.578,10.914 18.968,10.223 19.064,9.445C19.265,7.804 18.088,6.273 16.441,6.032L16.367,6.023C14.739,5.825 13.309,6.938 13.11,8.555C12.908,10.196 14.085,11.727 15.734,11.968M24.458,11.968C24.458,11.968 24.532,11.978 24.533,11.978C25.313,12.072 26.08,11.863 26.69,11.389C27.304,10.913 27.693,10.223 27.789,9.446C27.991,7.804 26.814,6.273 25.166,6.032L25.092,6.023C23.465,5.825 22.035,6.938 21.835,8.555C21.633,10.196 22.81,11.728 24.458,11.968" style="fill:rgb(255,58,32);"/>
                <path d="M9.402,35.872C8.158,35.684 7.179,35.323 6.526,35.019C2.62,33.201 0.121,29.009 0.005,24.079C-0.226,14.244 7.516,1.742 7.832,1.237C8.484,0.195 9.391,-0.085 10.223,0.746C11.229,1.75 11.716,2.997 11.065,4.039L10.581,4.818C10.511,4.93 4.019,15.484 4.216,23.874C4.293,27.122 5.688,30.055 8.275,30.893C12.447,32.244 15.436,31.211 19.283,27.745C28.444,19.496 36.602,1.084 36.659,0.948C37.133,-0.195 38.105,-0.246 39.016,0.482C40.049,1.308 40.665,2.438 40.192,3.582C39.946,4.178 31.902,22.203 21.961,31.155C16.822,35.784 12.362,36.32 9.402,35.872" style="fill:rgb(255,58,32);"/>
            </g>
        </g>
    </g>
</svg>
