<?xml version="1.0" encoding="UTF-8" standalone="no"?><!DOCTYPE svg PUBLIC "-//W3C//DTD SVG 1.1//EN" "http://www.w3.org/Graphics/SVG/1.1/DTD/svg11.dtd"><svg width="100%" height="100%" viewBox="0 0 39 29" version="1.1" xmlns="http://www.w3.org/2000/svg" xmlns:xlink="http://www.w3.org/1999/xlink" xml:space="preserve" xmlns:serif="http://www.serif.com/" style="fill-rule:evenodd;clip-rule:evenodd;stroke-linejoin:round;stroke-miterlimit:2;"><g id="Layer-1" serif:id="Layer 1"><g id="g16630"><path id="path15097" d="M10.482,3.033c1.807,-0.249 6.407,-0.896 8.027,-1.257c1.625,-0.363 10.612,-1.684 15.264,-1.763c4.649,-0.081 4.372,0.228 4.511,1.081c0.14,0.851 0.544,1.151 -0.038,1.955c-0.583,0.807 -1.579,1.148 -2.969,1.724c-2.572,1.059 -13.929,4.051 -15.46,4.815c2.348,-0.115 5.775,-0.768 9.163,-0.864c2.255,-0.067 2.575,0.435 2.76,1.433c0.184,1.003 0.314,1.54 -1.215,2.159c-1.524,0.62 -3.332,1.265 -6.933,2.308c-4.959,1.437 -7.98,2.157 -11.765,3.735c2.08,0.189 5.463,-0.112 8.172,0.004c4.065,0.173 4.292,0.617 4.392,1.819c0.096,1.203 0.189,1.553 -1.479,2.315c-1.668,0.763 -4.688,1.535 -6.4,1.896c-1.716,0.362 -8.091,1.728 -9.329,2.055c-1.083,0.283 -2.031,1.561 -3.744,2.144c-1.907,0.648 -2.736,0.391 -3.347,-0.98c-0.445,-0.997 0.803,-1.912 2.383,-2.373c1.576,-0.46 6.221,-1.495 8.204,-2.007c1.985,-0.517 5.927,-1.608 7.253,-2.125c-1.748,0.015 -6.116,0.087 -9.363,0.156c-1.947,0.038 -2.687,-0.056 -3.009,-1.508c-0.325,-1.448 0.304,-1.956 2.061,-2.519c1.757,-0.563 4.404,-1.773 6.116,-2.336c1.713,-0.565 6.456,-2.256 7.812,-2.568c-3.207,-0.076 -10.488,1.532 -12.364,1.937c-1.444,0.311 -1.629,-0.196 -2.181,-1.208c-0.555,-1.007 0.155,-1.681 1.037,-1.891c1.08,-0.259 3.26,-1.32 6.217,-2.497c2.395,-0.955 5.789,-1.961 8.292,-2.811c2.375,-0.809 6.403,-2.175 7.691,-2.717c-1.039,-0.008 -5.805,0.697 -8.92,1.12c-3.111,0.423 -8.445,1.513 -9.253,1.819c-0.812,0.307 -1.749,0.196 -2.3,-1.039c-0.541,-1.224 -0.056,-1.908 0.713,-2.011" style="fill:#f28e00;fill-rule:nonzero;"/></g></g></svg>