<?xml version="1.0" encoding="UTF-8" standalone="no"?><!DOCTYPE svg PUBLIC "-//W3C//DTD SVG 1.1//EN" "http://www.w3.org/Graphics/SVG/1.1/DTD/svg11.dtd"><svg width="100%" height="100%" viewBox="0 0 43 46" version="1.1" xmlns="http://www.w3.org/2000/svg" xmlns:xlink="http://www.w3.org/1999/xlink" xml:space="preserve" xmlns:serif="http://www.serif.com/" style="fill-rule:evenodd;clip-rule:evenodd;stroke-linejoin:round;stroke-miterlimit:2;"><g><g id="Header"><g><g><clipPath id="_clip1"><path d="M15.4,17.1l5.9,3.4l5.9,-3.4l-5.9,-17.1l-5.9,17.1Z"/></clipPath><g clip-path="url(#_clip1)"><rect x="15.4" y="0" width="11.9" height="20.5" style="fill:url(#_Linear2);"/></g></g></g><g><g><clipPath id="_clip3"><path d="M21.3,20.5l0,6.9l16.1,2.4l-10.2,-12.7l-5.9,3.4Z"/></clipPath><g clip-path="url(#_clip3)"><rect x="21.3" y="17.1" width="16.1" height="12.7" style="fill:url(#_Linear4);"/></g></g></g><g><g><clipPath id="_clip5"><path d="M15.4,17.1l-10.2,12.7l16.1,-2.4l-0,-6.9l-5.9,-3.4Z"/></clipPath><g clip-path="url(#_clip5)"><rect x="5.2" y="17.1" width="16.1" height="12.7" style="fill:url(#_Linear6);"/></g></g></g><g><g><clipPath id="_clip7"><path d="M21.3,12.3l0,8.3l7.1,4.1l14.2,-16.4l-21.3,4Z"/></clipPath><g clip-path="url(#_clip7)"><rect x="21.3" y="8.3" width="21.3" height="16.5" style="fill:url(#_Linear8);"/></g></g></g><g><g><clipPath id="_clip9"><path d="M14.2,24.7l7.1,-4.1l0,-8.3l-21.3,-4l14.2,16.4Z"/></clipPath><g clip-path="url(#_clip9)"><path d="M-7.7,19.3l14.7,-21.1l22,15.5l-14.7,21.1l-22,-15.5Z" style="fill:url(#_Linear10);fill-rule:nonzero;"/></g></g></g><g><g><clipPath id="_clip11"><path d="M21.3,20.6l-7.1,4.1l7.1,20.5l7.1,-20.5l-7.1,-4.1Z"/></clipPath><g clip-path="url(#_clip11)"><rect x="14.2" y="20.6" width="14.2" height="24.5" style="fill:url(#_Linear12);"/></g></g></g><path d="M28.4,16.5l-7.1,4.1l0,8.3l3.6,-6.2l3.5,-6.2Z" style="fill:#eb7100;fill-rule:nonzero;"/><path d="M28.4,16.5l-14.2,0l7.1,4.1l7.1,-4.1Z" style="fill:#df4a00;fill-rule:nonzero;"/><path d="M14.2,16.5l3.6,6.2l3.5,6.2l0,-8.3l-7.1,-4.1Z" style="fill:#f19500;fill-rule:nonzero;"/></g></g><defs><linearGradient id="_Linear2" x1="0" y1="0" x2="1" y2="0" gradientUnits="userSpaceOnUse" gradientTransform="matrix(0,-20.735156,20.735156,0,21.313736,10.447456)"><stop offset="0" style="stop-color:#711827;stop-opacity:1"/><stop offset="0.07" style="stop-color:#861321;stop-opacity:1"/><stop offset="0.18" style="stop-color:#9e0d1a;stop-opacity:1"/><stop offset="0.3" style="stop-color:#b10815;stop-opacity:1"/><stop offset="0.44" style="stop-color:#be0411;stop-opacity:1"/><stop offset="0.63" style="stop-color:#c6030f;stop-opacity:1"/><stop offset="1" style="stop-color:#c8020e;stop-opacity:1"/></linearGradient><linearGradient id="_Linear4" x1="0" y1="0" x2="1" y2="0" gradientUnits="userSpaceOnUse" gradientTransform="matrix(16.09315,0,0,16.09315,26.11655,23.4505)"><stop offset="0" style="stop-color:#c8020e;stop-opacity:1"/><stop offset="0.2" style="stop-color:#b10815;stop-opacity:1"/><stop offset="0.54" style="stop-color:#8e111f;stop-opacity:1"/><stop offset="0.82" style="stop-color:#791625;stop-opacity:1"/><stop offset="1" style="stop-color:#711827;stop-opacity:1"/></linearGradient><linearGradient id="_Linear6" x1="0" y1="0" x2="1" y2="0" gradientUnits="userSpaceOnUse" gradientTransform="matrix(-16.070747,0,-0,-16.070747,20.589569,23.450236)"><stop offset="0" style="stop-color:#711827;stop-opacity:1"/><stop offset="0.18" style="stop-color:#5c1635;stop-opacity:1"/><stop offset="0.53" style="stop-color:#39144c;stop-opacity:1"/><stop offset="0.81" style="stop-color:#24135a;stop-opacity:1"/><stop offset="1" style="stop-color:#1c125f;stop-opacity:1"/></linearGradient><linearGradient id="_Linear8" x1="0" y1="0" x2="1" y2="0" gradientUnits="userSpaceOnUse" gradientTransform="matrix(21.31745,0,0,21.31745,33.6666,16.5012)"><stop offset="0" style="stop-color:#c8020e;stop-opacity:1"/><stop offset="1" style="stop-color:#eb7100;stop-opacity:1"/></linearGradient><linearGradient id="_Linear10" x1="0" y1="0" x2="1" y2="0" gradientUnits="userSpaceOnUse" gradientTransform="matrix(-20.111342,-14.087368,14.087368,-20.111342,6.337283,13.566337)"><stop offset="0" style="stop-color:#ce2509;stop-opacity:1"/><stop offset="1" style="stop-color:#eb7100;stop-opacity:1"/></linearGradient><linearGradient id="_Linear12" x1="0" y1="0" x2="1" y2="0" gradientUnits="userSpaceOnUse" gradientTransform="matrix(0,-24.819158,24.819158,0,21.30774,54.280689)"><stop offset="0" style="stop-color:#d93902;stop-opacity:1"/><stop offset="1" style="stop-color:#c1010d;stop-opacity:1"/></linearGradient></defs></svg>