<?xml version="1.0" encoding="UTF-8" standalone="no"?><!DOCTYPE svg PUBLIC "-//W3C//DTD SVG 1.1//EN" "http://www.w3.org/Graphics/SVG/1.1/DTD/svg11.dtd"><svg width="100%" height="100%" viewBox="0 0 160 160" version="1.1" xmlns="http://www.w3.org/2000/svg" xmlns:xlink="http://www.w3.org/1999/xlink" xml:space="preserve" xmlns:serif="http://www.serif.com/" style="fill-rule:evenodd;clip-rule:evenodd;stroke-linejoin:round;stroke-miterlimit:2;"><g><clipPath id="_clip1"><path d="M29.711,108.133c-32.121,-19.049 -8.691,-98.894 50.36,-99.527c22.925,-0.225 73.084,15.513 73.018,71.222c-0.073,63.152 -58.308,73.45 -81.629,64.856c-7.668,-2.824 -6.208,-6.621 -2.471,-8.125c0,0 50.944,-20.826 67.753,-82.353c0.505,-2.057 -1.047,-3.037 -1.954,-1.607c-27.697,44.773 -59.592,61.022 -83.436,61.022c-8.374,0.006 -15.762,-1.966 -21.641,-5.489m-29.711,-28.305c0,44.116 35.693,79.864 79.712,79.864c44.006,0 79.724,-35.748 79.724,-79.864c0,-44.061 -35.712,-79.828 -79.724,-79.828c-44.019,-0 -79.712,35.766 -79.712,79.828"/></clipPath><g clip-path="url(#_clip1)"><rect x="-2.41" y="0" width="161.84" height="159.692" style="fill:url(#_Radial2);fill-rule:nonzero;"/></g></g><defs><radialGradient id="_Radial2" cx="0" cy="0" r="1" gradientUnits="userSpaceOnUse" gradientTransform="matrix(147.781616,0,0,148.038634,42.587672,134.789815)"><stop offset="0" style="stop-color:#f15a22;stop-opacity:1"/><stop offset="0.3" style="stop-color:#f47b20;stop-opacity:1"/><stop offset="0.59" style="stop-color:#f7921e;stop-opacity:1"/><stop offset="0.84" style="stop-color:#f9a11b;stop-opacity:1"/><stop offset="1" style="stop-color:#faa61a;stop-opacity:1"/></radialGradient></defs></svg>