<?xml version="1.0" encoding="UTF-8" standalone="no"?><!DOCTYPE svg PUBLIC "-//W3C//DTD SVG 1.1//EN" "http://www.w3.org/Graphics/SVG/1.1/DTD/svg11.dtd"><svg width="100%" height="100%" viewBox="0 0 1047 1047" version="1.1" xmlns="http://www.w3.org/2000/svg" xmlns:xlink="http://www.w3.org/1999/xlink" xml:space="preserve" xmlns:serif="http://www.serif.com/" style="fill-rule:evenodd;clip-rule:evenodd;stroke-linejoin:round;stroke-miterlimit:2;"><rect x="0" y="-0" width="1047" height="1047" style="fill:#ffec00;"/><path d="M367.67,676.707c-1.542,25.36 4.296,45.689 25.674,58.504c21.198,13.967 56.408,21.452 114.836,21.452c59.671,0 125.63,-11.407 136.169,-60.929c7.814,-36.812 -16.737,-47.036 -81.123,-54.626l-233.939,-29.207c-153.355,-19.072 -221.514,-74.926 -196.604,-191.828c39.566,-186.648 212.083,-245.062 469.899,-245.062c182.921,0 407.025,32.949 380.722,228.55l-302.218,0c3.638,-29.207 -11.407,-48.204 -35.899,-58.414c-24.252,-11.332 -58.953,-15.255 -93.309,-15.255c-77.471,0 -126.932,17.8 -136.962,64.806c-4.566,21.617 9.177,40.614 76.123,48.279l227.053,25.374c181.079,20.344 260.362,77.486 231.798,212.098c-34.581,162.546 -205.69,238.67 -491.442,238.67c-190.586,0 -441.187,-34.132 -403.222,-242.412l312.443,0Z" style="fill:#231f20;fill-rule:nonzero;"/></svg>