<svg width="200" height="200" xmlns="http://www.w3.org/2000/svg"><title>Spring Airlines</title>
 <g>
  <path fill="#009846" clip-rule="evenodd" fill-rule="evenodd" d="m49.24444,54.41814c0,37.81663 41.5983,64.73318 18.46342,101.43756c-16.68381,26.24919 -51.60858,-6.22862 -31.36556,-26.69409c2.89186,-2.89186 7.56333,-6.45107 12.01234,-6.89597c-1.3347,-3.33676 -9.78783,-26.02674 -10.23274,-28.25125c-16.68381,0.4449 -58.94946,40.48604 -22.91243,86.53336c6.45107,8.23068 19.57567,15.57156 34.03497,15.57156c58.94946,0 50.94123,-71.8516 99.21305,-71.8516c19.35322,0 29.14105,26.24919 8.67558,40.04114c-11.34499,6.67352 -19.35322,-1.55716 -25.13694,-5.33882l-20.02057,21.80018c8.23068,12.23479 50.71878,31.81046 77.63532,-5.33882c14.68175,-20.24302 11.34499,-46.93712 -5.33882,-67.62504c-21.80018,-27.139 -69.40465,-4.67147 -97.21099,-33.59007c-15.79401,-16.46136 -6.00617,-40.26359 12.67969,-40.26359c10.67764,0 22.46753,12.23479 19.35322,25.58184c-0.4449,1.55716 -0.8898,2.22451 -0.8898,3.78166c5.11637,1.3347 25.13694,6.67352 28.9186,6.67352c14.9042,-64.28828 -68.06994,-93.42933 -92.98443,-36.70438c-2.44696,5.56127 -4.89392,13.5695 -4.89392,21.13282l0,0z" class="st0"/>
 </g>
</svg>