<?xml version="1.0" encoding="UTF-8" standalone="no"?>
<!DOCTYPE svg PUBLIC "-//W3C//DTD SVG 1.1//EN" "http://www.w3.org/Graphics/SVG/1.1/DTD/svg11.dtd">
<svg width="100%" height="100%" viewBox="0 0 496 364" version="1.1" xmlns="http://www.w3.org/2000/svg" xmlns:xlink="http://www.w3.org/1999/xlink" xml:space="preserve" xmlns:serif="http://www.serif.com/" style="fill-rule:evenodd;clip-rule:evenodd;stroke-linejoin:round;stroke-miterlimit:2;">
    <g transform="matrix(4.166667,0,0,4.166667,0,0)">
        <g transform="matrix(0.124933,0,0,0.126178,-21.272325,-0.335635)">
            <path d="M1106.17,8.11C1111.27,5.25 1116.89,3.24 1122.74,2.66C1119.52,7.69 1114.96,11.7 1111.89,16.83C1103.82,29.64 1099.52,44.39 1096.52,59.1C1093.6,73.05 1092.49,87.39 1088.04,100.99C1082.14,120.22 1072.64,138.38 1059.99,154.03C1043.85,173.7 1023.61,189.53 1002.54,203.59C976.97,221.02 949.96,236.88 927.83,258.77C912.06,274.41 899.38,293.43 892.47,314.63C879.01,353.76 867.61,393.86 848.84,430.92C835.42,457.69 817.68,482.26 796.44,503.38C768.91,531.13 735.92,552.66 702.29,572.25C628.05,614.71 546.55,643.24 463.47,662.69C370.62,684.04 275.27,694.22 180.02,694.08C176.76,694.13 173.5,694.01 170.27,693.63C254.47,682.26 338.01,662.68 416.5,629.69C488.36,599.73 555.81,558.13 612.14,504.14C624.55,492.23 636.52,479.83 647.65,466.71C672.96,436.23 690.9,400.6 708,365.1C716.88,346.81 725.43,328.3 735.81,310.78C751.54,284.21 773,261.03 798.51,243.59C829.36,222.33 864.8,209.25 899.86,196.76C920.33,189.46 940.86,182.3 960.93,173.94C974.23,168.31 987.6,162.61 999.82,154.82C1023.03,140.3 1043.73,120.59 1055.59,95.6C1063.74,78.72 1067.64,60.23 1074.6,42.87C1066.98,46.31 1061.59,53.37 1059.07,61.2C1055.75,71.45 1045.36,77.52 1035.2,79.15C1039.77,75.18 1043.82,70.35 1045.53,64.43C1049.71,50.88 1061.95,39.46 1076.48,38.65C1083.37,26.05 1093.51,15.04 1106.17,8.11M1087.45,31.42C1084.12,33.4 1083.76,38.72 1086.85,41.08C1090.19,44.04 1096.46,41.58 1096.53,36.99C1097.1,32.42 1091.25,28.75 1087.45,31.42Z" style="fill:rgb(220,0,28);fill-rule:nonzero;"/>
            <path d="M753.3,238.31C778.76,227.99 805.22,220.37 831.88,213.83C827.22,216.42 822.11,218.02 817.3,220.25C787.16,233.61 760.65,254.27 738.47,278.5C713.58,305.81 693.79,337.43 677.7,370.61C655.31,420.31 619.35,463.34 575.93,496.08C515.2,542.03 441.87,569.61 366.92,581.11C350.73,583.42 334.44,585.42 318.08,585.84C339.21,579.18 360.38,572.51 380.85,563.97C436.15,541.41 487.66,508.35 528.57,464.59C551.52,439.52 573.06,413.01 591.16,384.19C600.88,368.98 610.06,353.36 621.17,339.1C633.97,322.43 648.8,307.42 664.39,293.36C690.37,269.8 720.75,251.27 753.3,238.31Z" style="fill:rgb(1,116,47);fill-rule:nonzero;"/>
            <path d="M930.56,278.56C935.79,269.4 941.28,260.19 948.61,252.54C944.86,269.55 940.82,286.57 939.31,303.96C936.53,331.22 938.23,358.64 939.2,385.94C941,418.38 938.77,451.85 926.07,482.12C913.39,512.06 894.93,539.88 870.48,561.49C837,590.93 793.88,607.65 750.14,614.13C732.39,616.64 714.37,618.18 696.45,616.97C705.8,610.96 715.92,606.2 725.51,600.55C754.29,584.22 782.39,566.23 806.88,543.84C831.51,521.29 852.09,494.47 868.45,465.4C884.54,436.83 892.06,404.57 899.4,372.9C906.84,340.63 914.29,307.74 930.56,278.56Z" style="fill:rgb(255,60,0);fill-rule:nonzero;"/>
        </g>
    </g>
</svg>
