<svg role="img" viewBox="0 0 24 24" xmlns="http://www.w3.org/2000/svg"><title>Starlux Airlines</title><path fill="#996a4e" d="M12.168 2.454c-.202 0-.404.067-.605.067h-.134c-.672.201-1.21.47-1.748.873-.134.134-.269.202-.403.336L1.142 12h5.58c1.278 0 2.488-.47 3.362-1.345l6.723-6.723c.74-.672 1.547-1.142 2.555-1.478zm8 .672s-.134 2.083-.403 3.226c0 0 0 .067-.067.067l-1.143-.806s.673.873.807 1.142c0 0 0 .069-.068.069-.74.201-2.89.403-2.89.403s2.15.2 2.89.47l.068.067c-.067.269-.74 1.077-.74 1.077l1.143-.673s.067 0 .067.067c.202 1.143.403 3.226.403 3.226s.135-2.083.404-3.226c0 0 0-.067.068-.067l1.142.673c0-.068-.672-.875-.806-1.144 0-.067 0-.067.067-.067.74-.202 2.89-.47 2.89-.47s-2.15-.135-2.89-.336l-.067-.069c.067-.269.74-1.142.74-1.142l-1.144.806s-.067 0-.067-.067c-.202-1.143-.403-3.226-.403-3.226Z"/><path fill="#84754e" d="m9.278 13.412-6.656 6.655A5.592 5.592 0 0 1 0 21.547h7.126c.202 0 .404-.068.605-.068h.135c.605-.202 1.21-.47 1.748-.874.134-.134.269-.202.403-.336l8.27-8.27h-5.58c-1.278 0-2.488.539-3.43 1.413z"/></svg>