<?xml version="1.0" encoding="UTF-8" standalone="no"?>
<!DOCTYPE svg PUBLIC "-//W3C//DTD SVG 1.1//EN" "http://www.w3.org/Graphics/SVG/1.1/DTD/svg11.dtd">
<svg width="100%" height="100%" viewBox="0 0 730 96" version="1.1" xmlns="http://www.w3.org/2000/svg" xmlns:xlink="http://www.w3.org/1999/xlink" xml:space="preserve" xmlns:serif="http://www.serif.com/" style="fill-rule:evenodd;clip-rule:evenodd;stroke-linejoin:round;stroke-miterlimit:2;">
    <g transform="matrix(4.166667,0,0,4.166667,0,0)">
        <g transform="matrix(1,0,0,1,-3.644,-4.048)">
            <path d="M119.697,5.827C119.323,5.898 117.207,6.941 116.662,7.244C114.836,8.103 103.001,20.2 103.001,20.2C103.001,20.2 101.768,21.71 99.396,22.903C97.025,24.094 92.329,24.112 92.329,24.112L3.644,24.112L3.644,25.5L110.258,25.5C110.258,25.5 113.105,25.227 115.096,24.373C117.088,23.756 119.887,21.004 119.887,21.004L131.84,8.862C131.84,8.862 133.37,7.617 134.075,7.244C134.781,6.87 138.291,6.182 138.291,6.182L178.822,6.182L178.822,5.115L125.911,5.115C125.911,5.115 120.516,5.417 119.697,5.827Z" style="fill:rgb(255,220,0);fill-rule:nonzero;"/>
        </g>
        <g transform="matrix(1,0,0,1,-3.644,-4.048)">
            <path d="M134.075,7.244C133.37,7.617 131.84,8.862 131.84,8.862L119.887,21.004C119.887,21.004 117.088,23.756 115.096,24.373C113.105,25.227 110.258,25.5 110.258,25.5L3.644,25.5L3.644,26.887L125.584,26.887C125.584,26.887 132.647,27.93 137.058,21.86C142.655,16.452 147.446,9.622 151.857,8.388C153.376,7.724 157.312,7.25 157.312,7.25L178.823,7.25L178.823,6.182L138.292,6.182C138.291,6.182 134.781,6.87 134.075,7.244ZM107.507,4.048C107.507,4.048 103.83,4.19 102.017,4.902C100.522,5.365 98.246,7.072 98.246,7.072L87.11,18.313C87.11,18.313 84.3,20.946 82.45,21.836C80.6,22.725 78.288,22.725 78.288,22.725L3.644,22.725L3.644,24.112L92.329,24.112C92.329,24.112 97.025,24.094 99.396,22.903C101.768,21.71 103.001,20.2 103.001,20.2C103.001,20.2 114.836,8.104 116.662,7.244C117.207,6.941 119.323,5.898 119.697,5.827C120.515,5.417 125.911,5.115 125.911,5.115L178.822,5.115L178.822,4.048L107.507,4.048ZM169.662,19.381L161.338,13.689L151.128,13.689L159.061,15.219L160.912,16.714L159.201,17.823C159.145,17.52 159.106,17.212 159.106,16.891C159.106,16.873 159.107,16.86 159.107,16.842L157.567,17.424C157.567,17.424 158.402,17.738 158.981,17.965L156.358,19.666L173.292,19.666L171.335,18.172L169.662,19.381ZM163.97,14.934L166.425,16.677L168.026,15.787L168.598,15.627C168.689,15.998 168.751,16.381 168.759,16.781C169.244,16.582 170.214,16.143 170.214,16.143L168.92,15.537L176.564,13.403L166.283,13.403L163.97,14.934ZM159.269,15.611L157.567,16.037L159.115,16.707C159.127,16.33 159.18,15.963 159.269,15.611ZM159.399,21.604L160.903,20.805C160.618,20.563 160.36,20.289 160.132,19.989L159.399,21.604ZM160.911,22.67L162.099,21.543C161.773,21.402 161.464,21.227 161.179,21.018L160.911,22.67ZM162.903,23.346L163.685,21.908C163.292,21.888 162.911,21.822 162.548,21.709L162.903,23.346ZM165.037,23.295L165.251,21.727C164.891,21.832 164.514,21.895 164.126,21.913L165.037,23.295ZM165.681,21.576L166.799,22.76L166.684,21.024C166.374,21.248 166.036,21.432 165.681,21.576ZM166.954,20.814L168.221,21.533L167.593,20.168C167.398,20.402 167.187,20.619 166.954,20.814ZM168.754,17.117C168.738,17.453 168.693,17.777 168.62,18.092C169.015,18.035 170.054,17.815 170.054,17.815L168.754,17.117ZM164.325,10.522L163.708,11.871C163.783,11.867 163.858,11.859 163.935,11.859C164.249,11.859 164.556,11.893 164.855,11.953L164.325,10.522ZM162.479,12.093C162.803,11.987 163.141,11.916 163.489,11.883L162.833,10.593L162.479,12.093ZM162.263,12.175L161.196,11.056L161.368,12.634C161.647,12.45 161.947,12.297 162.263,12.175ZM159.736,12.017L160.398,13.472C160.607,13.237 160.838,13.023 161.087,12.833L159.736,12.017ZM167.403,11.447L166.22,12.458C166.538,12.637 166.832,12.854 167.103,13.099L167.403,11.447ZM165.012,11.989C165.355,12.071 165.683,12.192 165.993,12.344L165.945,10.736L165.012,11.989Z" style="fill:rgb(23,41,128);fill-rule:nonzero;"/>
        </g>
    </g>
</svg>
