<svg version="1.2" xmlns="http://www.w3.org/2000/svg" viewBox="0 0 1585 1588" width="1585" height="1588">
	<title>suncountry-svg</title>
	<style>
		.s0 { fill: #f46c0b } 
		.s1 { fill: #004785 } 
	</style>
	<path id="Layer" fill-rule="evenodd" class="s0" d="m1584.3 759.8q0.1 0.3 0.1 0.6 0 0.3 0 0.6-0.1 0.3-0.1 0.5l-0.1 0.2-0.1 0.2q0 0.3-0.1 0.5-0.1 0.3-0.3 0.5-0.1 0.3-0.3 0.5-0.2 0.2-0.4 0.4l-0.2 0.1q-0.2 0.2-0.3 0.3-0.2 0.2-0.4 0.3-0.2 0.1-0.5 0.2-0.2 0.1-0.4 0.2l-541.5-6q2.1 1.3 4.1 2.7 2 1.4 4 2.9 1.9 1.5 3.8 3.1 1.9 1.6 3.7 3.3 6.8 5.9 12.8 12.8 5.9 6.8 10.9 14.4 4.9 7.6 8.8 15.8 3.8 8.2 6.5 16.9l1.3-0.1 337.3-24.6v2.8c-0.1 3.3-0.1 6.7-0.3 10v0.3c-0.1 2.3-0.2 4.6-0.4 6.9-0.2 4.3-0.4 8.7-0.7 13l-0.1 1.5c-0.1 1.3-0.2 2.6-0.3 3.8l-0.3 3.6c-0.3 3.7-0.6 7.5-1 11.1l-0.3 2.8-0.2 1.9-0.7 6.2c-0.4 3-0.7 6-1.1 9q-0.2 1.9-0.5 3.7l-0.1 0.5-0.1 0.6-0.6 3.8c-0.5 3.7-1 7.4-1.6 11.1-0.4 2.2-0.8 4.3-1.2 6.5q-0.6 3.6-1.3 7.3l-0.1 0.7-0.1 0.6c-0.3 1.5-0.5 3-0.8 4.4-0.3 1.5-0.6 2.9-0.9 4.3l-0.3 1.1-0.1 0.7-0.2 0.7c-0.8 4.2-1.7 8.4-2.6 12.5-0.5 2-1 3.9-1.5 5.9l-1 4.1-1 4.4c-0.4 1.6-0.8 3.2-1.2 4.7l-0.1 0.5q-2.3 8.5-4.8 17l-0.3 1.4-0.2 0.6-1 3.2c-1.5 5-3 9.9-4.6 14.8-0.4 1.2-0.9 2.4-1.3 3.6q-1.4 4.2-2.9 8.4l-0.1 0.4c-0.5 1.5-1 2.9-1.5 4.4-1.1 3-2.2 6-3.4 9-1.3 3.5-2.6 7-4 10.5l-0.6 1.5q-3.5 8.8-7.3 17.6-3.7 8.8-7.8 17.4-4 8.6-8.3 17.1-4.3 8.6-8.8 16.9l-0.1 0.2c-0.2 0.7-0.4 1.4-0.6 2.1l1.2 12.6 11 114.7 10.6 97c0 0.2-0.1 0.4-0.1 0.7q0 0.2 0 0.4 0 0.2-0.1 0.5 0 0.2-0.1 0.4 0 0.2-0.1 0.4v0.5l-0.2 0.2q-0.1 0.2-0.3 0.5-0.1 0.2-0.3 0.4-0.2 0.2-0.4 0.3-0.2 0.2-0.4 0.4l-0.2 0.2h-0.1l-0.3 0.2q-0.1 0-0.2 0-0.1 0.1-0.2 0.1-0.1 0-0.2 0-0.1 0-0.2 0.1-0.2 0-0.3 0.1-0.2 0-0.4 0.1-0.1 0-0.3 0-0.2 0.1-0.4 0.1l-0.1-0.1q-0.2 0-0.5 0-0.2 0-0.5-0.1-0.2 0-0.4-0.1-0.2-0.1-0.5-0.2l-288.2-316.7q-4.7 8.8-10.2 17.2-5.5 8.4-11.6 16.2-6.2 7.9-13.1 15.2-6.8 7.3-14.2 14l208.8 172.7 0.1 0.2c-7.3 7.2-14.8 14.2-22.4 21q-1.8 1.6-3.6 3.2c-1.3 1.1-2.5 2.3-3.8 3.4l-0.3 0.3q-7.4 6.5-15 12.7l-1.3 1c-0.6 0.5-1.3 0.9-1.9 1.4-7.5 6.1-15.2 11.9-22.9 17.6-4.3 3.1-8.7 6.2-13.1 9.3-6.3 4.4-12.6 8.8-19 13l-3.1 1.9-2 1.3q-1.8 1.1-3.5 2.3c-6.3 3.8-12.6 7.4-18.9 11-3.3 1.9-6.5 3.9-9.8 5.7q-14.4 7.9-29.1 15.1c-0.9 0.4-1.7 0.9-2.6 1.3l-2.4 1.2-0.9 0.4-0.8 0.4c-2.9 1.4-5.8 2.7-8.7 4-3.4 1.5-6.9 3.1-10.4 4.6l-1.2 0.6c-2.5 1-5 2.1-7.5 3.1q-6.6 2.8-13.4 5.4c-1.8 0.7-3.7 1.3-5.5 2.1-1.6 0.5-3 1.2-4.5 1.7-3.9 1.5-7.8 2.8-11.7 4.2-9.6 3.4-19.3 6.6-29.1 9.5-0.7 0.4-1.4 0.7-2.1 1.1v0.1l-0.6 0.7-0.7 0.9-2.6 3.1-4.1 4.9-0.9 1.1-72.3 87.9-40.7 50.8-20.2 25.2q-0.2 0.3-0.5 0.5-0.2 0.3-0.5 0.5-0.2 0.2-0.5 0.3-0.3 0.2-0.6 0.3l-0.3 0.2h-0.1-0.1-0.1l-0.1 0.1q-0.2 0-0.5 0.1-0.3 0-0.6 0-0.3 0.1-0.6 0-0.3 0-0.6-0.1l-0.3-0.1q-0.3 0-0.5-0.2-0.3-0.1-0.5-0.2-0.3-0.2-0.5-0.3-0.2-0.2-0.4-0.4v-0.1l-0.1-0.1q-0.2-0.2-0.3-0.4-0.2-0.2-0.3-0.4-0.1-0.2-0.2-0.4-0.1-0.2-0.2-0.4l0.1-0.5 5.6-416.4q-7.2 1-14.5 1.8-7.3 0.8-14.7 1.3-7.3 0.5-14.6 0.7-7.4 0.2-14.7 0.1c-2 0-3.9 0-5.8 0l18.6 264.4v0.2c0 0-2.7-0.3-7.3-0.4-2.2 0-4.4 0-6.6-0.1-4.3-0.2-8.6-0.5-12.9-0.7-2.4-0.2-4.8-0.2-7.2-0.4-4.4-0.3-8.8-0.7-13.2-1.1-2.3-0.3-4.6-0.4-6.8-0.6-3.8-0.4-7.6-0.9-11.4-1.4-2.8-0.3-5.7-0.6-8.5-1-2.3-0.3-4.7-0.7-7-1-4.2-0.6-8.5-1.2-12.7-1.9h-0.1q-9.7-1.6-19.3-3.5c-1.4-0.3-2.9-0.6-4.3-0.9-5-1.1-10-2.1-15-3.2-1-0.3-2-0.5-3-0.8-1.8-0.4-3.5-0.9-5.2-1.4-1.5-0.3-3-0.6-4.5-1q-10.4-2.6-20.6-5.5c-1.5-0.4-3-0.8-4.5-1.3-8.7-2.5-17.2-5.4-25.7-8.4-1.8-0.6-3.6-1.1-5.3-1.7-1.4-0.5-2.9-0.9-4.3-1.5l-0.6-0.2-0.7-0.2-0.3-0.1q-2.3-0.9-4.5-1.7l-2.9-1.1-2.2-0.9c-2.2-0.8-4.3-1.5-6.5-2.4l-1.8-0.7-1.5-0.6-0.3-0.1-1-0.5c-10.7-4.3-21.3-8.8-31.9-13.8l-1.3-0.6-1.5-0.7q-16.1-7.6-31.9-16.2l-1-0.5-1.1-0.3-1.2-0.3-12.7 1.2-114.3 11-74.5 8.1-22.2 2.5c-0.3 0-0.5-0.1-0.7-0.1q-0.2 0-0.5 0-0.2 0-0.4-0.1-0.2 0-0.5-0.1-0.2 0-0.4-0.1h-0.1-0.2l-0.2-0.1-0.1-0.1h-0.1q-0.2-0.1-0.4-0.3-0.2-0.1-0.4-0.3-0.2-0.2-0.4-0.4-0.1-0.2-0.3-0.4l-0.2-0.3-0.2-0.3q-0.1-0.2-0.2-0.5-0.1-0.2-0.2-0.5-0.1-0.3-0.1-0.6 0-0.2 0-0.5v-0.1l0.1-0.2q0-0.2 0-0.4 0-0.3 0.1-0.5 0-0.2 0.1-0.4 0.1-0.3 0.2-0.5l0.4-0.3 178.5-163.6 102.5-93.6c-5.9-3.1-11.5-6.9-16.5-11.3-5-4.4-9.4-9.4-13.1-15-3.7-5.5-6.7-11.5-8.9-17.8-2.3-6.3-3.7-12.9-4.2-19.5l-157.5 192.3-0.1 0.1h-0.1q-14.1-14.4-27.2-29.4l-0.3-0.4c-3.2-3.7-6.3-7.4-9.4-11.2-1.2-1.4-2.4-2.8-3.6-4.2-1.2-1.5-2.4-3.1-3.6-4.6l-0.8-1-2.1-2.8c-2-2.4-4-4.8-5.8-7.3-1.3-1.6-2.4-3.2-3.6-4.8l-2.2-3.1q-1.7-2.1-3.3-4.3c-0.9-1.3-1.9-2.5-2.8-3.8-1.4-2-2.7-4-4.1-6q-2.9-4.1-5.7-8.2l-1.5-2.1-0.1-0.2c-1-1.4-1.9-3-2.9-4.4l-1.7-2.8c-2-3-4-6.1-6-9.2l-0.9-1.4c-1.2-2-2.4-4.1-3.7-6.1-1.8-3.1-3.7-6.2-5.5-9.3-0.8-1.2-1.5-2.5-2.2-3.8q-1.4-2.5-2.9-5.1l-0.1-0.2c-1.5-2.7-3-5.3-4.4-7.9-0.7-1.3-1.3-2.7-2-4-4.5-8.3-8.7-16.6-12.8-25-0.7-1.4-1.4-2.8-2-4.3-1.4-2.8-2.7-5.7-4-8.6-1.5-3.4-3.1-6.9-4.6-10.4l-0.6-1.3q-4.4-10.3-8.4-20.7c-0.7-1.7-1.2-3.4-1.9-5.1-0.4-1-0.8-2-1.2-3.1q-2.6-6.9-5-13.8v-0.2c-3.4-9.5-6.5-19.2-9.4-28.9l-0.9-1.6-0.3-0.5-1.8-1.5-7.9-6.6-88.8-73.3-47.2-38.1-28.6-23-0.1-0.1q-0.2-0.2-0.5-0.4-0.2-0.2-0.4-0.5-0.2-0.3-0.4-0.6-0.1-0.3-0.2-0.6l-0.2-0.2v-0.2-0.1q-0.1-0.3-0.1-0.5-0.1-0.3-0.1-0.6 0-0.3 0-0.6 0.1-0.3 0.1-0.6l0.1-0.2v-0.1q0.1-0.3 0.2-0.6 0.1-0.2 0.3-0.5 0.1-0.2 0.3-0.4 0.2-0.2 0.4-0.4v-0.1l0.2-0.1q0.1-0.1 0.3-0.3 0.2-0.1 0.4-0.2 0.2-0.2 0.4-0.3 0.3 0 0.5-0.1l496.1 4.7c22.2 0 35.4-0.8 58.5-0.8q-9.1-7.5-17.5-15.8-8.4-8.2-16.2-17.1-7.7-8.9-14.7-18.4-7.1-9.5-13.3-19.5l-344.6 24.5c0.1-3.3 0.1-8.3 0.3-11.6v-0.4c0.1-2.3 0.2-4.5 0.3-6.8 0.2-4.4 0.4-8.7 0.7-13.1l0.2-1.5c0.1-1.2 0.2-2.5 0.3-3.8l0.3-3.6c0.3-3.7 0.6-7.4 0.9-11.1l0.4-2.8 0.2-1.9 0.7-6.1c0.4-3 0.7-6.1 1.1-9.1q0.2-1.9 0.5-3.7l0.1-0.4 0.1-0.7 0.5-3.7c0.6-3.8 1.1-7.5 1.7-11.2 0.3-2.2 0.8-4.3 1.2-6.4q0.6-3.7 1.3-7.4l0.1-0.6 0.1-0.6c0.3-1.5 0.5-3 0.8-4.5 0.3-1.4 0.6-2.9 0.9-4.3l0.2-1 0.2-0.7 0.1-0.7c0.9-4.2 1.8-8.4 2.7-12.6 0.5-2 1-3.9 1.4-5.9l1.1-4.1 1-4.3c0.4-1.6 0.8-3.2 1.2-4.8l0.1-0.4q2.3-8.6 4.8-17.1l0.3-1.3 0.2-0.7 1-3.2c1.5-4.9 3-9.9 4.6-14.8 0.4-1.2 0.9-2.4 1.3-3.6q1.4-4.2 2.9-8.4l0.1-0.4c0.5-1.4 1-2.9 1.5-4.3 1.1-3.1 2.2-6 3.4-9 1.3-3.6 2.6-7.1 3.9-10.6l0.6-1.4q3.3-8.3 6.8-16.5l0.4-0.9q11.3-26.3 25.1-51.7l0.1-0.1c0.2-0.7 0.4-1.4 0.5-2.2l-1.1-12.5-11.1-114.8-10.5-96.9c0-0.3 0.1-0.5 0.1-0.7q0-0.3 0-0.5 0-0.2 0.1-0.4 0-0.2 0-0.5 0.1-0.2 0.2-0.4v-0.5l0.2-0.2q0.1-0.2 0.3-0.4 0.1-0.2 0.3-0.4 0.2-0.2 0.4-0.4 0.2-0.2 0.4-0.3l0.2-0.2v-0.1l0.4-0.1q0.1 0 0.2-0.1 0.1 0 0.2 0 0.1-0.1 0.2-0.1 0.1 0 0.2 0 0.2-0.1 0.3-0.1 0.2-0.1 0.4-0.1 0.1-0.1 0.3-0.1 0.2 0 0.3 0h0.2q0.2 0 0.5 0 0.2 0.1 0.4 0.1 0.3 0.1 0.5 0.2 0.2 0.1 0.4 0.2l286.2 313.8q4.5-8.7 9.8-17 5.3-8.2 11.2-16.1 5.9-7.8 12.5-15 6.5-7.3 13.7-14.1l-204.8-170.3-0.1-0.1c7.3-7.3 14.8-14.2 22.4-21.1q1.8-1.6 3.6-3.2c1.2-1.1 2.5-2.3 3.7-3.4l0.4-0.3q7.4-6.4 15-12.6l1.3-1.1c0.6-0.4 1.2-0.9 1.9-1.4 7.5-6 15.2-11.8 22.9-17.5 4.3-3.2 8.7-6.3 13.1-9.3 6.3-4.4 12.6-8.9 19-13l3.1-2 2-1.3q1.8-1.1 3.5-2.2c6.2-3.9 12.6-7.4 18.9-11 3.3-1.9 6.5-3.9 9.7-5.7q14.5-7.9 29.2-15.1c0.9-0.4 1.7-0.9 2.6-1.3l2.4-1.2 0.9-0.5 0.8-0.4c2.9-1.3 5.8-2.6 8.7-3.9 3.4-1.6 6.9-3.2 10.3-4.7l1.3-0.5q3.7-1.6 7.5-3.1 6.6-2.8 13.3-5.4c1.9-0.8 3.8-1.4 5.6-2.1 1.5-0.6 3-1.2 4.5-1.8 3.9-1.4 7.8-2.8 11.7-4.1 9.6-3.4 19.3-6.6 29.1-9.5 0.7-0.4 1.4-0.8 2.1-1.2v-0.1l0.6-0.6 0.7-0.9 2.6-3.1 4.1-5 0.9-1.1 72.3-87.9 40.7-50.8 20.2-25.2q0.2-0.3 0.5-0.5 0.2-0.2 0.5-0.4 0.2-0.2 0.5-0.4 0.3-0.1 0.6-0.2l0.3-0.3h0.1 0.1 0.1q0.3-0.1 0.6-0.1 0.3-0.1 0.6-0.1 0.3 0 0.6 0 0.3 0 0.6 0.1l0.3 0.1q0.3 0.1 0.5 0.2 0.3 0.1 0.5 0.3 0.3 0.1 0.5 0.3 0.2 0.2 0.4 0.4l0.1 0.1v0.1q0.2 0.1 0.3 0.3 0.1 0.2 0.3 0.4 0.1 0.2 0.2 0.5 0.1 0.2 0.1 0.4v0.5l-2.9 414.7q6.4-0.7 12.9-1.1 6.4-0.5 12.9-0.8 6.4-0.3 12.9-0.4 6.5-0.1 12.9 0c3.2 0 10.4 0.6 13.5 0.7l-20.3-264.8v-0.2h0.1v-0.1c4.6 0.1 0.8 0.1 5.4 0.2 2.1 0.1 4.3 0.1 6.5 0.2 4.4 0.1 8.6 0.4 12.9 0.7 2.5 0.1 4.9 0.2 7.3 0.4 4.4 0.3 8.8 0.7 13.2 1.1 2.3 0.2 4.6 0.4 6.8 0.6 3.8 0.4 7.6 0.9 11.4 1.3 2.8 0.4 5.7 0.6 8.5 1 2.3 0.3 4.7 0.7 7 1.1 4.2 0.6 8.4 1.1 12.6 1.8l0.2 0.1q9.7 1.6 19.3 3.5c1.4 0.3 2.8 0.6 4.3 0.9 5 1 10 2 14.9 3.2 1.1 0.2 2.1 0.5 3.1 0.7 1.7 0.4 3.4 1 5.2 1.4 1.5 0.4 3 0.7 4.5 1q10.4 2.6 20.6 5.6c1.5 0.4 3 0.8 4.5 1.2 8.7 2.6 17.2 5.5 25.7 8.4 1.8 0.6 3.6 1.1 5.3 1.7 1.4 0.5 2.9 1 4.3 1.5l0.6 0.2 0.7 0.3 0.3 0.1q2.3 0.8 4.5 1.7l2.9 1.1 2.2 0.8c2.2 0.8 4.3 1.6 6.5 2.4l1.8 0.8 1.4 0.6 0.3 0.1 1 0.4c10.8 4.3 21.4 8.9 32 13.8l1.3 0.6 1.5 0.8q16.1 7.6 31.9 16.1l1 0.5 1.1 0.4 1.1 0.3 12.8-1.2 114.3-11.1 74.5-8.1 22.2-2.4c0.3 0 0.5 0.1 0.7 0.1q0.2 0 0.4 0 0.3 0 0.5 0 0.2 0.1 0.4 0.1 0.3 0.1 0.5 0.1v0.1h0.3 0.2v0.1h0.1v0.1q0.3 0.1 0.5 0.2 0.2 0.2 0.4 0.4 0.2 0.2 0.4 0.4 0.1 0.2 0.3 0.4l0.2 0.2 0.2 0.3q0.1 0.3 0.2 0.5 0.1 0.3 0.2 0.6 0.1 0.2 0.1 0.5 0 0.3 0 0.6v0.1l-0.1 0.1q0 0.2 0 0.5 0 0.2-0.1 0.4-0.1 0.3-0.1 0.5-0.1 0.2-0.2 0.4l-0.4 0.4-178.5 163.6-104.3 95q4.1 4.8 7.3 10.3 3.2 5.4 5.5 11.3 2.3 5.9 3.6 12.1 1.3 6.2 1.6 12.5c0.6 14.2 1.3 28.9 2.1 43.9l181.9-220.2 0.1-0.2v0.1l0.1-0.1v0.1q14.1 14.3 27.2 29.3l0.3 0.4c3.2 3.7 6.3 7.5 9.4 11.2 1.2 1.4 2.4 2.8 3.6 4.3 1.2 1.5 2.4 3 3.6 4.5l0.8 1.1 2.1 2.7c2 2.5 3.9 4.9 5.8 7.4 1.2 1.5 2.4 3.2 3.6 4.8l2.2 3q1.7 2.2 3.3 4.4c0.9 1.2 1.9 2.5 2.8 3.8 1.4 1.9 2.7 4 4.1 6q2.9 4.1 5.7 8.2l1.5 2.1 0.1 0.1c1 1.5 1.9 3 2.8 4.5l1.8 2.7c2 3.1 4 6.1 6 9.2l0.8 1.5c1.3 2 2.5 4 3.7 6.1 1.9 3.1 3.8 6.1 5.6 9.2 0.8 1.3 1.5 2.6 2.2 3.8q1.4 2.6 2.8 5.2l0.2 0.2c1.5 2.6 3 5.2 4.4 7.9 0.7 1.3 1.3 2.6 2 3.9 4.4 8.3 8.7 16.6 12.8 25 0.6 1.5 1.4 2.9 2 4.3 1.4 2.9 2.6 5.7 3.9 8.6 1.6 3.5 3.2 6.9 4.7 10.4l0.5 1.3q4.5 10.3 8.5 20.8c0.7 1.7 1.2 3.3 1.9 5 0.4 1.1 0.8 2.1 1.2 3.2q2.6 6.8 5 13.7v0.2c3.4 9.6 6.5 19.2 9.4 29l0.9 1.5 0.3 0.5 1.8 1.5 7.9 6.6 88.8 73.3 47.2 38.1 28.6 23 0.1 0.1q0.2 0.2 0.5 0.5 0.2 0.2 0.4 0.5 0.2 0.2 0.3 0.5 0.2 0.3 0.3 0.6l0.2 0.2v0.2 0.1q0.1 0.3 0.1 0.6zm-1104.7-49.8q-1-4.7-1.7-9.6-0.7-4.8-1.2-9.7-0.5-4.8-0.8-9.7-0.2-4.9-0.2-9.7 0-4.3 0.1-8.5 0.2-4.2 0.5-8.4 0.3-4.2 0.8-8.4 0.4-4.2 1-8.4l-192.9-39.8zm12.6 259.4c0-27.9-0.9-54.1-2.5-78l-194.2 123.2zm615.4-84.6q0.3 3.5 0.6 6.9 0.2 3.5 0.3 6.9 0.2 3.5 0.2 7 0 5.5-0.3 11-0.2 5.5-0.7 11-0.4 5.5-1.1 11-0.7 5.4-1.7 10.9l194.2 40.4-192.3-112q0.4 3.5 0.8 6.9zm-201.9-459.8c6.9 1.5 13.7 2.9 20.2 4.7 10.1 2.9 20.6 5.5 31.5 8l30.6-151.9zm-333.4-129l41.2 163.3q6.3-3.3 12.7-6.4 6.5-3 13-5.7 6.5-2.8 13.2-5.2 6.6-2.5 13.4-4.7zm112.3 865.5c-8.3-2.3-16.3-4.9-24.6-7.6l-10.3-3.4c-6.2-2-12.1-4-18.1-6.1l-34.8 157.4zm328 130.4l-44.6-168.9q-6.7 3.6-13.6 7-6.8 3.3-13.8 6.4-7 3.1-14.1 5.9-7.1 2.8-14.3 5.3zm276.5-718.4l-218.6 52.9q1.5 17.6 3.4 31.3l0.7 5.8v3.9q0.1 5.4-0.7 10.8-0.7 5.4-2.3 10.6-1.6 5.2-4 10.1-2.4 4.9-5.5 9.4z"/>
	<path id="Layer" class="s1" d="m552.1 978.1c0-32.6-1-63.4-3-91.4 0-3.8 3.2-6.1 11.6-8.5q2-0.4 3.9-0.8 2-0.4 3.9-0.7 2-0.2 4-0.4 2-0.2 4-0.3 1.9 0 3.8 0.1 1.9 0.2 3.8 0.4 1.8 0.3 3.7 0.7 1.9 0.4 3.7 0.9c7.8 1.9 9.7 5.4 10.4 7.8 2.3 12.1 5.6 24 9.9 35.6 4.2 11.6 9.5 22.8 15.7 33.5 6.2 10.7 13.3 20.8 21.3 30.2 7.9 9.5 16.6 18.2 26 26.2 6.2 6.3 12.8 12.1 19.9 17.4 7.1 5.2 14.6 9.9 22.4 14 7.8 4 15.9 7.5 24.3 10.2 8.3 2.8 16.9 4.9 25.6 6.3q2.3 0.3 4.5 0.6 2.3 0.2 4.6 0.4 2.2 0.1 4.5 0.2 2.3 0.1 4.6 0.1c5.9 0.2 11.8-0.2 17.7-1.1 5.8-0.9 11.6-2.3 17.2-4.3 5.6-1.9 11-4.3 16.2-7.1 5.2-2.9 10.1-6.2 14.7-9.9 4.2-3.4 7.9-7.3 11.2-11.6 3.2-4.3 6-9 8.2-13.9 2.1-4.9 3.7-10.1 4.7-15.4 1-5.3 1.4-10.7 1.2-16.1-0.5-8-2.1-15.9-4.7-23.5-2.6-7.7-6.3-14.9-10.8-21.5-4.6-6.6-10.1-12.6-16.3-17.7-6.2-5.1-13.1-9.3-20.4-12.6-34.3-20.2-72.2-40.5-116.1-61.8q-15.6-7.4-30.8-15.6-15.3-8.3-30-17.3-14.8-9-29-18.8-14.3-9.8-28-20.4c-8.4-5.8-16.1-12.6-22.9-20.3-6.8-7.7-12.7-16.2-17.5-25.2-4.8-9.1-8.5-18.8-11-28.7-2.5-10-3.8-20.2-3.9-30.5 0.2-13.6 1.9-27.2 5.3-40.4 3.4-13.2 8.4-25.9 14.9-37.9 6.5-12 14.4-23.2 23.5-33.3 9.2-10.1 19.5-19 30.9-26.6 14.8-9.9 30.4-18.6 46.7-26 16.2-7.4 33-13.5 50.3-18.2 17.2-4.8 34.7-8.1 52.5-10 17.7-1.9 35.6-2.3 53.4-1.4q12.6-0.2 25.1 0.5 12.6 0.6 25.1 2.1 12.4 1.4 24.8 3.7 12.3 2.3 24.5 5.4 10.2 2.8 20.5 5.4 10.4 2.6 20.7 4.9 10.4 2.3 20.8 4.3 10.4 2 20.9 3.7 1.8 0.2 3.4 1.1 1.7 0.9 2.9 2.3 1.2 1.3 1.9 3 0.7 1.7 0.7 3.6c1 23.2 2.3 47.5 3.8 72.3 1.5 30.2 3.7 56.3 6.6 77.5 0 3.6-3.5 6.1-11.4 8.2q-3.6 1-7.3 1.5-3.8 0.6-7.6 0.7-3.7 0-7.5-0.4-3.7-0.4-7.4-1.4-1.7-0.2-3.3-0.8-1.6-0.6-3.1-1.5-1.5-0.9-2.7-2.1-1.3-1.2-2.2-2.6l-0.3-0.6q-3.8-14.5-9.4-28.5-5.7-13.9-12.9-27-7.3-13.2-16.2-25.3-8.9-12.1-19.2-23c-6-6.1-12.6-11.6-19.7-16.3-7.1-4.7-14.7-8.7-22.6-11.9-7.9-3.2-16.1-5.6-24.5-7.1-8.4-1.5-17-2.2-25.5-2-6.6-0.3-13.2-0.2-19.7 0.5-6.6 0.7-13 2-19.4 3.7-6.3 1.8-12.5 4.1-18.5 6.8-6 2.8-11.7 6-17.2 9.7-4.1 2.9-7.9 6.2-11.2 10-3.3 3.8-6.1 8-8.4 12.4-2.3 4.5-4.1 9.2-5.3 14.1-1.1 4.9-1.7 9.9-1.7 14.9 0.6 7.6 2.2 15.1 4.8 22.3 2.6 7.2 6.1 14 10.6 20.2 4.4 6.1 9.7 11.7 15.6 16.5 6 4.7 12.5 8.6 19.6 11.6 37 21.2 76.6 42.1 117.9 62.2q15.3 7.5 30.3 15.9 14.9 8.4 29.4 17.5 14.5 9.1 28.5 18.9 14.1 9.8 27.6 20.3c8.6 6.1 16.4 13.3 23.3 21.3 6.8 8 12.7 16.8 17.5 26.2 4.8 9.4 8.5 19.3 10.9 29.6 2.4 10.3 3.6 20.8 3.6 31.4 0.2 14.7-1.4 29.3-4.9 43.5-3.5 14.3-8.8 28-15.9 40.8-7.1 12.9-15.8 24.7-26 35.3-10.1 10.5-21.6 19.7-34.1 27.3-14.9 9.6-30.4 18.2-46.5 25.6-16.1 7.3-32.7 13.5-49.7 18.5-17 4.9-34.3 8.6-51.9 11-17.5 2.3-35.2 3.4-52.9 3.2q-11.5 0.3-23-0.5-11.5-0.7-22.8-2.6-11.4-1.9-22.5-4.9-11.1-3-21.9-7.1l-10.9-3.5c-7.4-2.4-14.7-4.9-22-7.4q-10-3.7-20.1-7-10.1-3.3-20.3-6.1-10.2-2.8-20.6-5.2-10.3-2.5-20.8-4.4-2-0.4-3.7-1.4-1.8-0.9-3.1-2.5-1.4-1.5-2.1-3.4-0.8-1.9-0.8-3.9c-0.6-23.6-0.9-49.3-0.9-76.4z"/>
</svg>