<svg role="img" viewBox="0 0 24 24" xmlns="http://www.w3.org/2000/svg" fill="#f1c217"><title>Sun PhuQuoc Airways</title><path d="M12.951 0c-2.534 1.929-4.57 4.402-5.718 9.905 2.517-4.214 4.523-3.668 6.086-5.617C14.485 2.833 12.95 0 12.95 0ZM4.885 2.106c-.707 3.113-.68 6.321 1.963 11.276-.77-4.85 1.114-5.726 1.064-8.229-.038-1.866-3.027-3.047-3.027-3.047ZM19.286 3.57c-2.79.054-5.676.88-9.527 3.916 4.622-1.6 5.808.11 8.255-.375 1.826-.36 2.465-3.52 2.465-3.52-.397-.02-.794-.028-1.193-.02ZM9.76 7.485c-.002.001-.004 0-.005.002v.002l.005-.004zm3.472-.225v.002c4.572 1.756 4.384 3.831 6.57 5.038 1.63.9 4.144-1.108 4.144-1.108-2.332-2.169-5.114-3.75-10.714-3.932Zm-1.43.666c-2.336 0-4.23 1.9-4.23 4.244a4.238 4.238 0 0 0 4.23 4.245 4.239 4.239 0 0 0 4.231-4.245 4.238 4.238 0 0 0-4.231-4.244zm-9.543.635c-1.129 0-2.203.36-2.203.36 1.452 2.84 3.528 5.28 8.728 7.371-3.698-3.218-2.815-5.105-4.456-6.99-.498-.57-1.296-.74-2.069-.74Zm13.784.773c2.377 4.293.905 5.764 1.805 8.097.672 1.74 3.885 1.825 3.885 1.825-.398-3.166-1.516-6.171-5.69-9.922zm.825 3.399c-.93 4.821-3.001 4.997-3.806 7.365C12.461 21.866 14.87 24 14.87 24c1.724-2.682 2.793-5.704 1.998-11.267Zm-12.97 2.042C2.198 14.84.722 17.257.722 17.257c2.932 1.237 6.084 1.77 11.408.017-4.895-.08-5.426-2.096-7.89-2.48a1.772 1.772 0 0 0-.343-.02zm11.424 1.092c0 .002-.002.003-.003.004.001 0 .002 0 .003-.002zm-.003.004c-3.8 3.093-5.497 1.892-7.63 3.186-1.592.966-1.117 4.155-1.117 4.155 3.038-.942 5.792-2.567 8.747-7.34z"/></svg>