<?xml version="1.0" encoding="UTF-8" standalone="no"?>
<!DOCTYPE svg PUBLIC "-//W3C//DTD SVG 1.1//EN" "http://www.w3.org/Graphics/SVG/1.1/DTD/svg11.dtd">
<svg width="100%" height="100%" viewBox="0 0 178 167" version="1.1" xmlns="http://www.w3.org/2000/svg" xmlns:xlink="http://www.w3.org/1999/xlink" xml:space="preserve" xmlns:serif="http://www.serif.com/" style="fill-rule:evenodd;clip-rule:evenodd;stroke-linejoin:round;stroke-miterlimit:2;">
    <g transform="matrix(4.166667,0,0,4.166667,0,0)">
        <g>
            <clipPath id="_clip1">
                <rect x="0" y="0" width="238" height="40"/>
            </clipPath>
            <g clip-path="url(#_clip1)">
                <path d="M20.136,19.527C24.161,14.894 25.566,8.514 26.059,4.185C26.211,3.046 27.047,-0.182 24.616,0.008C21.655,0.235 22.414,9.426 19.073,9.122C16.225,8.856 13.073,-0.258 10.453,0.957C7.833,2.172 14.25,9.274 13.833,11.628C13.377,14.135 2.252,6.767 0.885,9.957C0.011,12.046 11.972,14.514 11.365,16.603C10.757,18.654 -0.862,18.084 0.049,21.16C0.961,24.198 10.909,19.034 11.668,21.578C12.428,24.122 2.821,27.882 4.036,31.3C4.758,33.312 15.238,25.11 20.136,19.527Z" style="fill:rgb(255,180,0);fill-rule:nonzero;"/>
                <path d="M31.869,17.894C30.388,14.894 39.235,12.35 38.362,9.464C37.641,7.109 34.945,9.046 33.919,9.616C30.047,11.628 24.617,15.236 21.731,20.666C18.275,27.274 14.402,39.958 16.567,39.92C20.136,39.844 20.25,29.515 22.87,29.287C25.528,29.097 24.237,40.224 27.427,39.996C30.616,39.768 25.908,29.097 27.616,27.768C29.325,26.477 35.932,36.768 37.565,35.173C40.033,32.781 29.211,24.958 31.375,23.667C33.426,22.451 42.349,25.907 42.539,23.021C42.729,20.173 33.122,20.477 31.869,17.894Z" style="fill:rgb(255,180,0);fill-rule:nonzero;"/>
            </g>
        </g>
    </g>
</svg>
