<?xml version="1.0" encoding="UTF-8" standalone="no"?>
<!DOCTYPE svg PUBLIC "-//W3C//DTD SVG 1.1//EN" "http://www.w3.org/Graphics/SVG/1.1/DTD/svg11.dtd">
<svg width="100%" height="100%" viewBox="0 0 279 201" version="1.1" xmlns="http://www.w3.org/2000/svg" xmlns:xlink="http://www.w3.org/1999/xlink" xml:space="preserve" xmlns:serif="http://www.serif.com/" style="fill-rule:evenodd;clip-rule:evenodd;stroke-linejoin:round;stroke-miterlimit:2;">
    <g transform="matrix(4.166667,0,0,4.166667,0,0)">
        <g transform="matrix(1,0,0,1,-185.032,0)">
            <path d="M217.535,45.911C216.65,46.165 215.639,46.165 214.626,46.165C202.485,46.165 192.494,36.297 192.494,24.157C192.494,19.857 193.759,15.809 195.908,12.522C199.449,16.063 201.98,19.983 204.255,23.778C205.774,26.687 207.797,27.698 210.454,28.963C210.58,28.709 210.832,28.582 211.085,28.582C211.465,28.582 211.718,28.963 211.718,29.344L211.718,29.593C212.097,29.847 212.603,30.101 213.11,30.355L217.283,26.434C216.651,26.18 216.018,25.928 215.512,25.674C215.386,25.928 215.132,26.053 214.881,26.053C214.5,26.053 214.248,25.801 214.248,25.422L214.248,25.169C209.316,22.767 205.648,19.731 202.613,16.569C198.565,12.268 195.53,7.842 190.345,5.06L185.032,5.06C188.699,6.83 191.735,8.854 194.264,11.003C191.862,14.797 190.47,19.35 190.47,24.156C190.47,37.438 201.347,48.185 214.627,48.185C215.639,48.185 216.651,48.185 217.536,48.058C223.86,47.301 229.552,44.01 233.346,39.205C233.851,39.586 234.359,39.967 234.99,40.343L238.027,38.322L224.367,33.136L239.037,37.311L243.718,34.528C236.508,34.401 229.805,33.639 225,31.237C231.703,32.756 238.91,33.136 246.374,33.009L251.811,29.088C241.948,31.109 232.209,30.86 222.217,27.95L217.537,32.882C222.091,35.919 226.769,35.919 231.449,38.195C228.032,42.371 223.101,45.154 217.535,45.911ZM217.535,31.365L221.077,27.952L218.421,26.56L217.536,27.444L217.157,27.825C217.399,27.947 217.526,28.299 217.536,28.548L217.536,28.612C217.521,29.237 217.02,29.847 216.397,29.847C216.019,29.847 215.639,29.593 215.512,29.344L213.994,30.609L216.65,32.255L217.535,31.365ZM217.535,25.168L221.456,26.814C222.467,25.168 222.467,25.168 224.111,25.8C236.632,30.735 245.991,30.354 251.303,25.168C247.003,27.316 242.704,28.078 238.276,27.697C238.53,26.559 238.53,25.294 238.53,24.156C238.53,11.889 229.424,1.645 217.535,0.252C216.65,0.125 215.639,0 214.626,0C207.923,0 201.853,2.783 197.426,7.083C196.16,6.198 194.77,5.691 192.998,5.944C198.437,8.473 200.84,15.556 206.911,13.912C203.495,12.648 201.22,10.244 199.069,8.474C203.117,4.553 208.555,2.024 214.626,2.024C215.638,2.024 216.65,2.151 217.535,2.277C228.286,3.794 236.633,13.027 236.633,24.157C236.633,25.295 236.506,26.433 236.379,27.444C231.32,26.814 226.262,24.535 221.077,21.755C219.685,20.995 218.421,20.743 217.535,21.248C216.65,21.628 216.018,22.641 215.765,24.284L217.535,25.168Z" style="fill:rgb(23,41,131);"/>
        </g>
    </g>
</svg>
