<?xml version="1.0" encoding="UTF-8" standalone="no"?><!DOCTYPE svg PUBLIC "-//W3C//DTD SVG 1.1//EN" "http://www.w3.org/Graphics/SVG/1.1/DTD/svg11.dtd"><svg width="100%" height="100%" viewBox="0 0 647 368" version="1.1" xmlns="http://www.w3.org/2000/svg" xmlns:xlink="http://www.w3.org/1999/xlink" xml:space="preserve" xmlns:serif="http://www.serif.com/" style="fill-rule:evenodd;clip-rule:evenodd;stroke-linejoin:round;stroke-miterlimit:2;"><rect x="175.491" y="114.857" width="309.419" height="165.393" style="fill:#fff;fill-rule:nonzero;"/><g><path d="M505.232,0c1.831,0.688 3.661,1.204 5.405,1.977c4.272,1.634 8.456,3.439 12.641,5.073c6.189,2.407 12.553,4.557 19.092,5.932c5.317,1.118 10.723,1.72 16.127,2.493c8.98,1.204 17.959,1.462 26.939,1.118c7.584,-0.258 15.169,-1.032 22.492,-2.837c4.184,-1.032 8.282,-2.235 12.38,-3.439c3.574,-1.118 7.148,-2.235 10.81,-2.579c3.226,-0.344 6.451,-0.516 9.589,0.258c1.22,0.258 2.441,0.86 3.487,1.634c2.354,1.72 2.616,4.213 2.179,6.878c-0.697,3.439 -2.702,6.534 -5.231,9.286c-4.01,4.213 -8.805,7.394 -13.861,10.145c-9.502,5.245 -19.528,9.286 -29.727,13.069c-8.107,3.009 -16.477,5.331 -24.846,7.308c-5.666,1.29 -11.42,2.321 -17.174,3.353c-3.487,0.602 -6.974,1.204 -10.461,1.634c-2.964,0.43 -6.015,0.688 -8.98,0.946c-3.225,0.344 -6.538,0.688 -9.764,0.946c-2.528,0.172 -4.969,0.43 -7.497,0.516c-2.79,0.172 -5.492,0.344 -8.282,0.344c-7.672,0.086 -15.344,0.43 -22.928,0.172c-5.405,-0.172 -10.81,0.086 -16.128,-0.258c-1.57,-0.086 -3.226,-0.258 -5.057,-0.344c0.872,-1.548 1.657,-2.837 2.441,-4.213c5.753,-9.544 11.507,-19.001 17.261,-28.545c5.753,-9.544 11.507,-19.001 17.261,-28.545c0.436,-0.688 0.785,-1.548 1.133,-2.321l0.698,0Z" style="fill:#d11242;fill-rule:nonzero;"/><path d="M215.303,158.119c0.26,0.345 0.346,0.431 0.346,0.517c0,0.086 0,0.086 0.087,0.173l0,100.175c0,0.086 0,0.086 0.086,0.173c0,0.086 0.086,0.086 0.086,0.086c0.087,0 0.087,0.086 0.26,0.172c0.26,-0.43 0.606,-0.861 0.952,-1.378c9.342,-15.332 18.684,-30.578 28.027,-45.91c0.692,-1.033 0.951,-2.153 0.951,-3.445l0,-50.734l32.784,0c0.779,0 1.558,-0.086 2.423,-0.173l0,-26.702l-101.986,0l0,27.133l35.985,0l-0,-0.086Zm137.797,-27.821c-0.692,0 -1.298,-0.086 -1.989,-0.086l-44.462,0c-1.384,0 -2.162,0.344 -2.941,1.55c-4.066,6.719 -8.218,13.437 -12.284,20.242c-19.549,31.956 -39.099,63.913 -58.648,95.869c-5.537,9.13 -11.159,18.26 -16.695,27.391c-0.346,0.603 -0.605,1.206 -1.038,2.068l36.763,0c1.385,0 2.163,-0.431 2.855,-1.637c3.373,-5.599 6.747,-11.111 10.121,-16.624c0.519,-0.861 1.124,-1.378 2.249,-1.378l50.949,0c0.519,0 0.952,0.172 1.643,0.258l0,19.036c2.249,0.43 32.179,0.345 33.563,0c0.519,-1.55 0,-2.498 -1.471,-3.359c-6.661,-3.962 -12.543,-8.958 -17.906,-14.557c-7.526,-7.924 -13.58,-16.796 -17.127,-27.219c-0.086,-0.258 -0.26,-0.603 -0.519,-1.034l-27.94,0c-2.249,0 -4.498,0.086 -7.007,-0.086c0.519,-0.861 0.779,-1.378 1.038,-1.981c12.802,-20.931 25.604,-41.948 38.406,-62.879c2.249,-3.618 4.325,-7.408 6.92,-10.767c6.747,-8.7 14.705,-16.021 24.221,-21.62c1.73,-0.947 1.73,-0.947 1.298,-3.187Zm90.74,86.824c-0.086,0.517 -0.086,0.861 -0.173,1.205c-0.173,0.776 -0.433,1.637 -0.692,2.412c-3.547,10.681 -10.727,18.347 -20.501,23.601c-10.121,5.513 -20.933,6.46 -32.178,4.049c-10.294,-2.239 -19.031,-7.235 -25.605,-15.59c-8.996,-11.284 -11.937,-24.118 -9.428,-38.158c2.855,-15.332 11.504,-26.099 26.123,-32.128c5.709,-2.326 11.678,-3.532 17.819,-4.135c2.422,-0.259 4.844,-0.259 7.439,-0.345c0.26,4.221 -0.086,8.356 0.173,12.576c1.817,-1.12 26.728,-26.013 27.421,-27.305c-2.509,-3.101 -26.037,-26.186 -27.421,-26.875c-0.26,4.049 0.173,8.097 -0.26,12.059c-0.26,0.172 -0.433,0.258 -0.519,0.258c-0.519,0.086 -1.038,0.086 -1.557,0.086c-8.391,0.086 -16.695,1.12 -24.827,3.188c-15.743,4.048 -29.497,11.542 -40.136,23.859c-14.792,17.141 -21.366,36.952 -17.473,59.606c3.719,21.62 15.051,38.589 33.476,50.734c10.553,6.891 22.231,10.595 34.687,12.059c9.169,1.034 18.252,0.947 27.248,-1.206c24.48,-5.858 42.213,-19.983 52.593,-42.896c5.536,-12.058 7.266,-24.893 6.833,-38.158c-0.086,-1.723 -0.26,-3.359 -0.432,-5.341l-71.278,0c-0.086,-4.909 0.087,-9.475 0,-14.212c-1.47,0.861 -26.642,25.754 -27.853,27.477c0.26,0.344 0.519,0.689 0.865,0.947c8.823,8.7 17.646,17.486 26.469,26.185c0,0 0.087,0.086 0.173,0c0.086,0 0.086,0 0.433,-0.173l0,-13.868l38.579,0l0,0.086Zm198.089,-179.765c-0.865,1.55 -1.73,3.015 -2.681,4.479c-5.19,8.614 -10.467,17.313 -15.657,25.927c-5.449,8.958 -10.813,17.916 -16.262,26.874c-3.979,6.632 -7.958,13.265 -12.023,19.898c-5.018,8.355 -10.121,16.71 -15.225,25.065c-5.449,9.044 -10.899,18.089 -16.348,27.047c-5.363,8.872 -10.726,17.744 -16.089,26.53c-5.19,8.614 -10.381,17.227 -15.571,25.754c-5.45,8.958 -10.813,17.917 -16.262,26.875c-5.882,9.647 -11.678,19.38 -17.56,29.027c-3.893,6.374 -8.131,12.576 -13.234,18.089c-3.806,4.048 -7.525,8.183 -11.591,11.887c-5.882,5.34 -12.284,9.819 -19.117,13.867c-8.044,4.738 -16.609,8.441 -25.432,11.37c-5.795,1.895 -11.678,3.532 -17.733,4.479c-4.584,0.775 -9.169,1.637 -13.753,2.153c-4.411,0.517 -8.737,0.776 -13.148,0.862c-16.695,0.172 -33.303,0.258 -49.998,0.43c-11.937,0.086 -23.874,0.258 -35.812,0.258c-41.174,0.086 -82.349,0 -123.611,0.086c-17.993,0 -35.898,0 -53.804,0.086c-5.882,0 -11.764,0.086 -17.646,0.431c-4.931,0.259 -9.775,0.862 -14.619,1.378c-4.412,0.517 -8.823,0.947 -13.234,1.723c-4.844,0.776 -9.602,1.809 -14.446,2.756c-8.045,1.55 -15.916,3.618 -23.615,6.115c-4.152,1.379 -8.218,3.015 -12.283,4.824c-5.363,2.411 -10.64,4.996 -15.916,7.493c-2.336,1.12 -4.585,2.498 -6.92,3.704c-0.606,0.431 -1.211,1.034 -2.336,0.517c0.173,-0.517 0.26,-1.033 0.519,-1.465c7.526,-12.575 15.138,-25.151 22.663,-37.727c5.19,-8.527 10.294,-17.14 15.397,-25.668c7.785,-12.92 15.57,-25.927 23.355,-38.847c10.64,-17.744 21.28,-35.488 32.005,-53.232c5.363,-8.958 10.726,-17.83 16.176,-26.788c7.353,-12.145 14.705,-24.377 22.145,-36.435c4.325,-7.063 8.65,-14.212 13.322,-21.103c3.114,-4.565 6.574,-8.872 10.12,-13.093c3.46,-3.962 7.18,-7.752 11.072,-11.369c5.709,-5.254 11.937,-9.906 18.684,-13.868c9.689,-5.77 20.069,-9.905 31.141,-12.317c3.719,-0.775 7.525,-1.292 11.332,-1.809c9.775,-1.292 19.636,-0.689 29.411,-0.775c24.739,-0.172 49.565,-0.345 74.305,-0.345c39.877,0 79.668,0.086 119.546,0.086c14.791,0 29.583,0 44.462,-0.172c7.613,-0.086 15.224,-0.431 22.75,-0.689c4.239,-0.172 8.564,-0.258 12.803,-0.517c4.325,-0.258 8.65,-0.689 12.889,-1.206c5.363,-0.689 10.726,-1.292 16.089,-2.326c6.834,-1.292 13.581,-2.756 20.328,-4.393c10.553,-2.498 20.933,-5.857 30.967,-10.078c8.391,-3.532 16.695,-7.322 24.22,-12.576c1.904,-1.292 3.893,-2.584 5.796,-3.876c0.173,0.431 0.346,0.517 0.432,0.603Z" style="fill:#d11242;fill-rule:nonzero;"/></g></svg>