<?xml version="1.0" encoding="UTF-8" standalone="no"?>
<!DOCTYPE svg PUBLIC "-//W3C//DTD SVG 1.1//EN" "http://www.w3.org/Graphics/SVG/1.1/DTD/svg11.dtd">
<svg width="100%" height="100%" viewBox="0 0 567 899" version="1.1" xmlns="http://www.w3.org/2000/svg" xmlns:xlink="http://www.w3.org/1999/xlink" xml:space="preserve" xmlns:serif="http://www.serif.com/" style="fill-rule:evenodd;clip-rule:evenodd;stroke-linejoin:round;stroke-miterlimit:2;">
    <g transform="matrix(4.166667,0,0,4.166667,0,0)">
        <g id="layer1" transform="matrix(3.779527,0,0,3.779527,-2.534799,-2.162435)">
            <path id="rect9953" d="M1.751,5.408C0.311,6.848 0.311,9.168 1.751,10.608L5.507,14.364C6.947,15.804 9.266,15.804 10.707,14.364L14.462,10.608C15.902,9.168 15.902,6.848 14.462,5.408L10.707,1.652C9.266,0.212 6.947,0.212 5.507,1.652L1.751,5.408ZM12.295,15.952C10.855,17.393 10.855,19.712 12.295,21.152L16.051,24.908C17.491,26.348 19.811,26.348 21.251,24.908L25.007,21.152C26.447,19.712 26.447,17.393 25.007,15.952L21.251,12.197C19.811,10.756 17.491,10.756 16.051,12.197L12.295,15.952ZM1.751,47.586C0.311,49.026 0.311,51.345 1.751,52.786L5.507,56.541C6.947,57.982 9.266,57.982 10.707,56.541L14.462,52.786C15.902,51.345 15.902,49.026 14.462,47.586L10.707,43.83C9.266,42.39 6.947,42.39 5.507,43.83L1.751,47.586ZM12.295,37.041C10.855,38.482 10.855,40.801 12.295,42.241L16.051,45.997C17.491,47.437 19.811,47.437 21.251,45.997L25.007,42.241C26.447,40.801 26.447,38.482 25.007,37.041L21.251,33.286C19.811,31.845 17.491,31.845 16.051,33.286L12.295,37.041ZM22.84,26.497C21.399,27.937 21.399,30.256 22.84,31.697L26.595,35.452C28.036,36.893 30.355,36.893 31.795,35.452L35.551,31.697C36.991,30.256 36.991,27.937 35.551,26.497L31.795,22.741C30.355,21.301 28.036,21.301 26.595,22.741L22.84,26.497Z" style="fill:rgb(218,32,40);fill-rule:nonzero;"/>
        </g>
    </g>
</svg>
