<svg version="1.2" xmlns="http://www.w3.org/2000/svg" viewBox="0 0 1271 1270" width="1271" height="1270">
	<title>logo192-svg</title>
	<style>
		.s0 { fill: #ec2029 } 
	</style>
	<g id="#ec2029ff">
		<path id="Layer" class="s0" d="m1085.5 31.9c35-34.6 94.3-41.9 135.8-14.8 40.1 24.8 59.8 78.9 43.1 123.4-9.8 36-41.5 58.5-65.9 84.4-93.1 94.3-188.8 186.1-279.7 282.4-79 77.5-155.3 158-236.2 233.4-89.3 89.6-178.8 178.8-268.1 268.3 7.9 60.4 15.1 121 22.9 181.6-26 26.7-52.7 52.6-78.7 79.3-37.6-68.3-74.4-136.9-111.7-205.4-7-11.6-11.1-26.7-24.8-32.2-74-40.1-147.9-80.2-221.8-120.4 26.4-26.2 52.7-52.6 79-79 60.6 7.3 121.3 14.8 181.9 22.9 97.2-97.6 195.3-194.1 291.7-292.4-180.7-91.6-360.7-184.4-541.4-276 35.8-34.9 70.7-70.7 106.4-105.9 224.5 48.2 449 96.3 673.6 144.1 98-97.8 195.7-195.9 293.9-293.7z"/>
		<path id="Layer" class="s0" d="m739.4 781c74.1-74.2 148.4-148.1 222.3-222.4 42.4 197.9 84.2 395.8 127.2 593.6-35.3 35.4-70.7 70.7-106 106-80.9-159.2-162.7-317.9-243.5-477.2z"/>
	</g>
</svg>