<?xml version="1.0" encoding="utf-8"?>
<!-- Generator: Adobe Illustrator 16.0.4, SVG Export Plug-In . SVG Version: 6.00 Build 0)  -->
<!DOCTYPE svg PUBLIC "-//W3C//DTD SVG 1.1//EN" "http://www.w3.org/Graphics/SVG/1.1/DTD/svg11.dtd">
<svg version="1.1" id="Layer_1" xmlns="http://www.w3.org/2000/svg" xmlns:xlink="http://www.w3.org/1999/xlink" x="0px" y="0px"
	 width="115.46px" height="44.905px" viewBox="0 0 115.46 44.905" enable-background="new 0 0 115.46 44.905" xml:space="preserve">
<g>
	<defs>
		<polyline id="SVGID_1_" points="0.5,0.625 0.5,0.625 0.5,44.905 115.82,44.905 115.82,0.625 		"/>
	</defs>
	<clipPath id="SVGID_2_">
		<use xlink:href="#SVGID_1_"  overflow="visible"/>
	</clipPath>
	<path clip-path="url(#SVGID_2_)" fill="#525350" d="M107.9,15.625L107.9,15.625c0.6-1.92,3.24-3.48,4.8-3.48
		c1.319,0,2.159,0.72,2.159,2.04v1.92c0,1.2-1.199,1.92-2.52,1.92c-2.88,0-4.32,2.52-4.32,5.52v5.28c0,1.319-0.6,2.04-1.799,2.04
		h-2.281c-1.199,0-1.92-0.721-1.92-2.04v-14.52c0-1.32,0.721-2.04,1.92-2.04h2.041c1.199,0,1.92,0.72,1.92,2.04V15.625"/>
</g>
<path fill="#525350" d="M67.82,15.625L67.82,15.625c0.6-1.92,3.24-3.479,4.92-3.479c1.199,0,2.039,0.72,2.039,2.04v1.92
	c0,1.2-1.079,1.92-2.399,1.92c-2.88,0-4.319,2.52-4.319,5.52v5.28c0,1.32-0.601,2.04-1.92,2.04h-2.281
	c-1.199,0-1.799-0.72-1.799-2.04v-14.52c0-1.32,0.6-2.04,1.799-2.04H65.9c1.319,0,1.92,0.72,1.92,2.04V15.625"/>
<path fill="#F69E25" d="M96.98,10.225L96.98,10.225c-2.641,0-4.681-2.16-4.681-4.68c0-2.64,2.04-4.8,4.681-4.8
	c2.52,0,4.56,2.16,4.56,4.8C101.54,8.065,99.5,10.225,96.98,10.225"/>
<path fill="#525350" d="M17.66,10.225L17.66,10.225c-2.52,0-4.68-2.16-4.68-4.68c0-2.64,2.16-4.8,4.68-4.8
	c2.64,0,4.68,2.16,4.68,4.8C22.34,8.065,20.18,10.225,17.66,10.225"/>
<path fill="#525350" d="M84.98,19.345h0.6v-0.24c0-1.56-1.32-2.04-2.641-2.04c-1.199,0-2.52,0.36-3.479,0.72
	c-1.2,0.6-2.04,0.36-2.64-0.84l-0.48-0.84c-0.6-1.08-0.359-2.04,0.84-2.64c1.44-0.6,3.6-1.44,6.36-1.44
	c5.16,0,8.399,2.88,8.399,7.44v9.36c0,1.32-0.72,2.04-2.039,2.04H88.1c-1.32,0-1.92-0.72-1.92-2.04v-0.12c0-0.24,0-0.48,0-0.48
	l-0.119,0.121c0,0-1.801,2.879-5.521,2.879c-3.601,0-6.24-2.399-6.24-5.52C74.3,20.785,80.42,19.345,84.98,19.345 M81.98,26.905
	L81.98,26.905c2.039,0,3.6-2.04,3.6-3.72v-0.48h-0.6c-2.28,0-5.16,0.6-5.16,2.52C79.82,26.186,80.66,26.905,81.98,26.905z"/>
<g>
	<defs>
		<polyline id="SVGID_3_" points="0.5,0.625 0.5,0.625 0.5,44.905 115.82,44.905 115.82,0.625 		"/>
	</defs>
	<clipPath id="SVGID_4_">
		<use xlink:href="#SVGID_3_"  overflow="visible"/>
	</clipPath>
	<path clip-path="url(#SVGID_4_)" fill="#525350" d="M3.02,17.545h-0.6c-1.2,0-1.92-0.6-1.92-1.92v-0.84c0-1.32,0.72-2.04,1.92-2.04
		h0.72v-3.36c0-1.32,0.72-1.92,1.92-1.92H7.1c1.32,0,2.04,0.6,2.04,1.92v3.36h1.8c1.2,0,1.92,0.72,1.92,2.04v0.84
		c0,1.32-0.72,1.92-1.92,1.92h-1.8v5.64c0,1.56,0.96,2.161,2.04,2.4c1.44,0.12,1.92,0.601,1.92,1.921v1.68
		c0,1.439-0.96,1.92-2.52,1.92c-2.64,0-7.56-1.32-7.56-6.721V17.545"/>
</g>
<path fill="#525350" d="M14.66,14.305L14.66,14.305c0-1.32,0.6-2.04,1.92-2.04h2.16c1.32,0,2.04,0.72,2.04,2.04v14.52
	c0,1.32-0.72,2.04-2.04,2.04h-2.16c-1.32,0-1.92-0.72-1.92-2.04V14.305"/>
<path fill="#525350" d="M93.98,14.305L93.98,14.305c0-1.32,0.6-2.04,1.799-2.04h2.281c1.199,0,1.92,0.72,1.92,2.04v14.52
	c0,1.32-0.721,2.04-1.92,2.04h-2.281c-1.199,0-1.799-0.72-1.799-2.04V14.305"/>
<path fill="#525350" d="M52.22,12.025L52.22,12.025c5.52,0,8.4,3.84,8.4,8.76c0,1.08-0.841,2.16-2.04,2.16H49.1
	c0.48,2.16,2.28,3.24,4.2,3.24c1.2,0,2.4-0.48,3.36-0.84c1.08-0.601,1.92-0.48,2.52,0.72l0.6,0.96c0.48,1.08,0.361,2.04-0.719,2.64
	c-1.321,0.841-3.48,1.681-6.241,1.681c-6.48,0-9.96-4.681-9.96-9.721C42.86,16.225,46.46,12.025,52.22,12.025 M54.86,19.345
	L54.86,19.345c0-1.56-0.96-2.88-2.64-2.88c-1.8,0-2.64,1.32-3,2.88H54.86z"/>
<path fill="#525350" d="M35.3,29.065v0.12c0,0.72,0,1.92,0,2.88c0.48-0.479,1.2-0.72,2.04-0.72h2.16c0.84,0,1.56,0.24,1.92,0.72v-18
	c0-1.32-0.72-2.04-1.92-2.04h-2.28c-1.08,0-1.8,0.6-1.92,1.68v0.12c0,0-1.08-1.8-4.8-1.8c-4.8,0-8.28,3.84-8.28,9.6
	s3.24,9.721,8.16,9.721C33.26,31.346,34.7,29.785,35.3,29.065 M31.82,26.186L31.82,26.186c-2.16,0-3.72-1.68-3.72-4.561
	c0-2.76,1.8-4.44,3.72-4.44c2.4,0,3.72,2.28,3.72,4.44C35.54,24.865,33.62,26.186,31.82,26.186z"/>
<g>
	<defs>
		<polyline id="SVGID_5_" points="0.5,0.745 0.5,0.745 0.5,44.785 115.46,44.785 115.46,0.745 		"/>
	</defs>
	<clipPath id="SVGID_6_">
		<use xlink:href="#SVGID_5_"  overflow="visible"/>
	</clipPath>
	<path clip-path="url(#SVGID_6_)" fill="#F69E25" d="M41.42,35.785v-0.72c0-1.32-0.72-2.04-1.92-2.04h-2.16
		c-0.6,0-1.08,0.24-1.44,0.6c-0.24,0.36-0.36,0.721-0.36,1.44c0,1.2-0.6,2.04-1.08,2.52c-0.48,0.48-1.2,0.72-2.28,0.72
		c-1.2,0-1.92-0.239-2.4-0.72c-0.36-0.479-1.08-1.079-0.96-2.52c0-0.72-0.24-1.08-0.48-1.32c-0.24-0.479-0.84-0.72-1.44-0.72h-2.16
		c-1.32,0-1.92,0.72-1.92,2.04v0.84c0,0,0,0,0.12,0.84c0.24,3.96,4.56,7.44,9.24,7.56c4.56-0.119,8.88-3.6,9.24-7.56
		C41.42,36.745,41.42,36.266,41.42,35.785"/>
</g>
</svg>
