<?xml version="1.0" encoding="UTF-8" standalone="no"?>
<!-- Generator: Adobe Illustrator 14.0.0, SVG Export Plug-In . SVG Version: 6.00 Build 43363)  -->
<svg
   xmlns:dc="http://purl.org/dc/elements/1.1/"
   xmlns:cc="http://web.resource.org/cc/"
   xmlns:rdf="http://www.w3.org/1999/02/22-rdf-syntax-ns#"
   xmlns:svg="http://www.w3.org/2000/svg"
   xmlns="http://www.w3.org/2000/svg"
   xmlns:xlink="http://www.w3.org/1999/xlink"
   xmlns:sodipodi="http://sodipodi.sourceforge.net/DTD/sodipodi-0.dtd"
   xmlns:inkscape="http://www.inkscape.org/namespaces/inkscape"
   version="1.0"
   id="Layer_1"
   x="0px"
   y="0px"
   width="691"
   height="297"
   viewBox="0 0 595.275 841.89"
   enable-background="new 0 0 595.275 841.89"
   xml:space="preserve"
   sodipodi:version="0.32"
   inkscape:version="0.45.1">
<path
   clip-path="url(#SVGID_12_)"
   clip-rule="evenodd"
   d="M 234.25,462.732 C 229.448,462.732 226.643,459.112 227.779,454.577 L 234.019,454.577 C 233.886,455.829 234.742,456.777 236.123,456.777 C 237.502,456.777 238.956,455.829 239.61,454.577 L 245.85,454.577 C 244.134,459.112 239.052,462.732 234.25,462.732 L 234.25,462.732 z M 228.274,453.113 C 230.128,448.763 235.054,445.351 239.716,445.351 C 244.378,445.351 247.158,448.763 246.276,453.113 L 239.954,453.113 C 239.888,452.061 239.074,451.304 237.843,451.304 C 236.612,451.304 235.323,452.061 234.595,453.113 L 228.274,453.113 L 228.274,453.113 z "
   id="path291"
   style="fill:#034ea2;fill-rule:evenodd"
   transform="matrix(11.192767,0,0,11.192767,-1481.3217,-4437.7404)" /><path
   clip-path="url(#SVGID_12_)"
   clip-rule="evenodd"
   d="M 72.907,446.257 L 88.172,446.257 L 86.703,450.927 L 82.842,450.927 L 82.154,453.114 L 74.613,453.114 L 75.3,450.927 L 71.438,450.927 L 72.907,446.257 L 72.907,446.257 z M 81.694,454.577 L 79.366,461.98 L 71.824,461.98 L 74.153,454.577 L 81.694,454.577 L 81.694,454.577 z "
   id="path293"
   style="fill:#034ea2;fill-rule:evenodd"
   transform="matrix(11.192767,0,0,11.192767,-1481.3217,-4437.7404)" /><path
   clip-path="url(#SVGID_12_)"
   clip-rule="evenodd"
   d="M 90.68,446.257 L 88.524,453.113 L 96.066,453.113 L 96.753,450.926 L 98.762,450.926 C 100.041,450.926 100.263,451.536 100.055,452.203 C 99.948,452.546 99.735,452.885 99.324,453.112 L 105.302,453.112 C 105.546,452.636 105.693,452.196 105.827,451.847 C 106.922,448.993 105.584,446.255 101.445,446.255 L 90.68,446.255 L 90.68,446.257 z M 88.063,454.577 L 85.735,461.98 L 93.277,461.98 L 95.031,456.402 L 97.274,461.98 L 103.658,461.98 L 101.531,456.69 C 102.768,456.179 103.682,455.398 104.35,454.577 L 88.063,454.577 L 88.063,454.577 z "
   id="path295"
   style="fill:#034ea2;fill-rule:evenodd"
   transform="matrix(11.192767,0,0,11.192767,-1481.3217,-4437.7404)" /><path
   clip-path="url(#SVGID_12_)"
   clip-rule="evenodd"
   d="M 122.579,446.257 L 122.121,446.257 L 116.194,446.257 L 115.736,446.257 L 110.866,453.113 L 123.346,453.113 L 122.579,446.257 L 122.579,446.257 z M 109.826,454.577 L 104.568,461.98 L 110.952,461.98 L 112.801,459.376 L 117.664,459.376 L 117.955,461.98 L 124.34,461.98 L 123.511,454.577 L 117.126,454.577 L 117.258,455.755 L 115.374,455.755 L 116.21,454.577 L 109.826,454.577 L 109.826,454.577 z "
   id="path297"
   style="fill:#034ea2;fill-rule:evenodd"
   transform="matrix(11.192767,0,0,11.192767,-1481.3217,-4437.7404)" /><path
   clip-path="url(#SVGID_12_)"
   clip-rule="evenodd"
   d="M 149.148,446.257 L 141.607,446.257 L 140.453,449.924 L 138.714,446.257 L 136.752,446.257 L 132.986,446.257 L 131.173,446.257 L 129.017,453.113 L 146.993,453.113 L 149.148,446.257 L 149.148,446.257 z M 128.556,454.577 L 126.228,461.98 L 133.77,461.98 L 134.925,458.307 L 136.664,461.974 L 136.663,461.98 L 136.667,461.98 L 138.629,461.98 L 140.92,461.98 L 142.882,461.98 L 144.205,461.98 L 146.533,454.577 L 128.556,454.577 L 128.556,454.577 z "
   id="path299"
   style="fill:#034ea2;fill-rule:evenodd"
   transform="matrix(11.192767,0,0,11.192767,-1481.3217,-4437.7404)" /><path
   clip-path="url(#SVGID_12_)"
   clip-rule="evenodd"
   d="M 164.601,450.927 L 171.258,450.927 C 172.336,447.51 166.083,445.558 162.274,445.55 C 158.51,445.542 152.926,446.257 151.804,450.038 C 151.419,451.339 151.569,452.348 152.117,453.113 L 166.45,453.113 C 165.304,452.728 163.928,452.548 162.614,452.464 C 161.398,452.389 158.492,452.716 159.066,450.927 C 159.408,449.863 160.838,449.38 162.187,449.393 C 163.697,449.407 164.903,449.786 164.601,450.927 L 164.601,450.927 z M 154.316,454.577 C 155.51,454.984 157.015,455.168 158.666,455.186 C 160.268,455.203 161.954,455.431 161.416,457.135 C 161.031,458.354 159.529,458.833 158.157,458.833 C 156.841,458.833 154.853,458.375 155.239,457.135 L 147.725,457.135 C 146.88,459.822 151.31,462.612 157.027,462.612 C 161.729,462.612 167.395,461.98 168.901,457.135 C 169.236,456.056 169.109,455.221 168.669,454.576 L 154.316,454.576 L 154.316,454.577 z "
   id="path301"
   style="fill:#034ea2;fill-rule:evenodd"
   transform="matrix(11.192767,0,0,11.192767,-1481.3217,-4437.7404)" /><path
   clip-path="url(#SVGID_12_)"
   clip-rule="evenodd"
   d="M 179.224,446.257 L 179.681,446.257 L 185.609,446.257 L 186.067,446.257 L 186.834,453.113 L 174.355,453.113 L 179.224,446.257 L 179.224,446.257 z M 186.998,454.577 L 187.827,461.98 L 181.442,461.98 L 181.15,459.376 L 176.288,459.376 L 174.439,461.98 L 168.054,461.98 L 173.313,454.577 L 179.697,454.577 L 178.861,455.755 L 180.745,455.755 L 180.613,454.577 L 186.998,454.577 L 186.998,454.577 z "
   id="path303"
   style="fill:#034ea2;fill-rule:evenodd"
   transform="matrix(11.192767,0,0,11.192767,-1481.3217,-4437.7404)" /><path
   clip-path="url(#SVGID_12_)"
   clip-rule="evenodd"
   d="M 207.375,446.257 L 201.953,446.257 L 194.412,446.257 L 192.256,453.113 L 205.219,453.113 C 205.313,452.814 205.406,452.515 205.501,452.217 L 200.079,452.217 L 200.485,450.926 L 205.906,450.926 L 207.375,446.257 L 207.375,446.257 z M 191.795,454.577 L 189.467,461.98 L 195.795,461.98 L 197.008,461.98 L 202.43,461.98 L 203.899,457.31 L 198.477,457.31 L 199.055,455.47 L 204.477,455.47 C 204.571,455.173 204.665,454.875 204.759,454.576 L 191.795,454.576 L 191.795,454.577 z "
   id="path305"
   style="fill:#034ea2;fill-rule:evenodd"
   transform="matrix(11.192767,0,0,11.192767,-1481.3217,-4437.7404)" /><path
   clip-path="url(#SVGID_12_)"
   clip-rule="evenodd"
   d="M 211.178,446.257 L 209.021,453.113 L 216.563,453.113 L 217.25,450.926 L 219.259,450.926 C 220.538,450.926 220.76,451.536 220.551,452.203 C 220.444,452.546 220.231,452.885 219.82,453.112 L 225.799,453.112 C 226.042,452.636 226.189,452.196 226.323,451.847 C 227.418,448.993 226.08,446.255 221.94,446.255 L 211.178,446.255 L 211.178,446.257 z M 208.562,454.577 L 206.234,461.98 L 213.775,461.98 L 215.529,456.402 L 217.772,461.98 L 224.156,461.98 L 222.03,456.69 C 223.267,456.179 224.181,455.398 224.849,454.577 L 208.562,454.577 L 208.562,454.577 z "
   id="path307"
   style="fill:#034ea2;fill-rule:evenodd"
   transform="matrix(11.192767,0,0,11.192767,-1481.3217,-4437.7404)" /><path
   clip-path="url(#SVGID_12_)"
   clip-rule="evenodd"
   d="M 199.913,469.62 C 199.83,469.62 199.793,469.643 199.767,469.683 C 199.751,469.706 199.662,469.785 199.538,469.954 L 198.954,470.746 C 198.91,470.807 198.829,470.892 198.788,471.037 C 198.71,471.309 199.015,471.351 199.205,471.351 C 199.254,471.351 199.484,471.328 199.434,471.455 C 199.402,471.534 199.33,471.559 199.184,471.559 C 198.956,471.559 198.739,471.476 198.516,471.476 C 198.223,471.476 197.935,471.559 197.641,471.559 C 197.494,471.559 197.448,471.537 197.473,471.476 C 197.521,471.367 197.654,471.352 197.766,471.352 C 197.897,471.352 198.022,471.342 198.141,471.289 C 198.251,471.238 198.405,471.091 198.579,470.851 L 201.895,466.285 C 201.993,466.147 202.041,466.097 202.083,466.097 C 202.169,466.097 202.162,466.215 202.166,466.285 L 202.479,470.892 C 202.503,471.243 202.624,471.298 202.937,471.352 C 203.063,471.373 203.107,471.415 203.084,471.476 C 203.065,471.52 203.001,471.539 202.916,471.539 C 202.666,471.539 202.332,471.529 201.874,471.539 C 201.414,471.551 201.081,471.56 200.831,471.56 C 200.677,471.56 200.74,471.395 200.852,471.373 C 200.893,471.363 200.998,471.352 201.144,471.352 C 201.554,471.352 201.701,471.13 201.665,470.747 L 201.582,469.851 C 201.572,469.747 201.582,469.685 201.561,469.663 C 201.54,469.642 201.457,469.621 201.353,469.621 L 199.913,469.621 L 199.913,469.62 z M 200.289,469.349 L 201.31,469.349 C 201.352,469.349 201.561,469.409 201.561,469.328 C 201.561,469.328 201.578,469.203 201.561,468.994 L 201.457,467.681 C 201.444,467.514 201.457,467.41 201.415,467.41 C 201.373,467.41 201.295,467.51 201.185,467.66 L 200.163,469.057 C 200.084,469.164 199.976,469.235 199.976,469.328 C 199.976,469.421 200.218,469.349 200.289,469.349 L 200.289,469.349 z M 206.273,466.931 C 206.369,466.644 206.246,466.535 205.981,466.535 C 205.901,466.535 205.644,466.535 205.669,466.41 C 205.687,466.317 205.794,466.285 205.919,466.285 C 206.184,466.285 206.447,466.285 206.712,466.285 C 207.073,466.285 207.434,466.285 207.796,466.285 C 207.921,466.285 207.987,466.327 207.963,466.389 C 207.946,466.432 207.925,466.491 207.859,466.493 C 207.475,466.511 207.139,466.525 207.004,466.931 L 205.67,470.912 C 205.549,471.272 205.688,471.314 205.982,471.351 C 206.032,471.357 206.332,471.326 206.274,471.455 C 206.247,471.516 206.191,471.538 206.086,471.538 C 205.857,471.538 205.544,471.528 205.107,471.538 C 204.668,471.55 204.314,471.559 204.106,471.559 C 204.002,471.559 203.971,471.54 203.981,471.455 C 203.993,471.358 204.148,471.351 204.211,471.351 C 204.528,471.351 204.799,471.314 204.919,470.955 L 206.273,466.931 L 206.273,466.931 z M 211.07,468.89 C 211.217,468.89 211.334,469.083 211.361,469.224 L 211.716,471.017 C 211.773,471.31 211.867,471.301 212.133,471.352 C 212.257,471.375 212.3,471.414 212.279,471.476 C 212.258,471.539 212.196,471.559 212.133,471.559 L 211.173,471.559 C 211.111,471.559 211.072,471.538 211.048,471.476 C 211.03,471.433 211.015,471.308 210.985,471.122 L 210.672,469.184 C 210.649,469.035 210.443,468.954 210.151,468.954 C 209.921,468.954 209.792,468.945 209.713,469.184 L 209.108,470.997 C 208.992,471.345 209.259,471.318 209.504,471.331 C 209.672,471.339 209.73,471.393 209.712,471.456 C 209.688,471.538 209.608,471.56 209.462,471.56 C 209.167,471.56 208.881,471.512 208.586,471.512 C 208.265,471.512 208.022,471.56 207.698,471.56 C 207.552,471.56 207.408,471.539 207.419,471.497 C 207.461,471.339 207.666,471.404 207.794,471.393 C 208.102,471.366 208.297,471.233 208.399,470.934 L 209.754,466.931 C 209.864,466.605 209.75,466.493 209.442,466.493 C 209.396,466.493 209.091,466.519 209.149,466.389 C 209.176,466.328 209.274,466.285 209.442,466.285 C 209.768,466.285 210.095,466.285 210.422,466.285 C 210.81,466.285 211.2,466.285 211.589,466.285 C 212.042,466.285 212.645,466.407 212.861,466.847 C 213.139,467.414 212.665,468.102 212.215,468.432 C 211.904,468.661 211.507,468.827 211.07,468.89 L 211.07,468.89 z M 210.465,466.931 L 209.88,468.702 C 209.853,468.784 209.901,468.827 210.069,468.827 C 210.445,468.827 210.795,468.827 211.153,468.681 C 211.61,468.494 211.958,468.079 212.112,467.618 C 212.237,467.242 212.216,466.949 212.049,466.741 C 211.882,466.534 211.61,466.429 211.236,466.429 C 211.048,466.429 210.922,466.424 210.84,466.45 C 210.646,466.51 210.522,466.756 210.465,466.931 L 210.465,466.931 z M 215.429,466.931 C 215.549,466.569 215.331,466.546 215.033,466.535 C 214.866,466.526 214.805,466.468 214.829,466.388 C 214.854,466.306 214.949,466.285 215.116,466.285 C 215.409,466.285 215.699,466.285 215.992,466.285 C 216.297,466.285 216.604,466.285 216.909,466.285 C 217.076,466.285 217.146,466.344 217.134,466.404 C 217.112,466.51 216.995,466.535 216.867,466.535 C 216.706,466.535 216.537,466.522 216.387,466.597 C 216.304,466.638 216.227,466.745 216.179,466.889 L 214.908,470.662 C 214.823,470.913 214.835,471.093 214.908,471.206 C 215.13,471.551 216.074,471.326 216.366,471.143 C 216.534,471.039 216.696,470.91 216.825,470.747 C 216.945,470.597 217.064,470.483 217.118,470.413 C 217.19,470.316 217.243,470.267 217.284,470.267 C 217.325,470.267 217.341,470.334 217.305,470.413 C 217.151,470.754 217.045,471.157 216.825,471.456 C 216.756,471.551 216.658,471.56 216.554,471.56 L 213.363,471.56 C 213.176,471.56 213.083,471.516 213.112,471.435 C 213.144,471.351 213.327,471.331 213.405,471.331 C 213.488,471.331 213.573,471.343 213.634,471.331 C 213.937,471.268 214.025,471.141 214.114,470.872 L 215.429,466.931 L 215.429,466.931 z M 220.267,466.931 C 220.364,466.639 220.252,466.535 219.954,466.535 C 219.905,466.535 219.612,466.535 219.662,466.41 C 219.693,466.329 219.766,466.285 219.912,466.285 C 220.537,466.285 221.162,466.285 221.788,466.285 C 221.914,466.285 221.981,466.327 221.955,466.389 C 221.921,466.467 221.852,466.495 221.775,466.505 C 221.402,466.559 221.142,466.5 220.995,466.932 L 219.64,470.913 C 219.569,471.12 219.589,471.264 219.661,471.289 C 219.835,471.351 220.039,471.355 220.224,471.373 C 220.269,471.377 220.253,471.41 220.244,471.456 C 220.231,471.518 220.161,471.539 220.077,471.539 C 219.41,471.539 218.743,471.56 218.076,471.56 C 217.992,471.56 217.923,471.538 217.95,471.456 C 217.965,471.411 217.988,471.378 218.033,471.373 C 218.167,471.357 218.387,471.346 218.513,471.331 C 218.723,471.306 218.851,471.127 218.909,470.956 L 220.267,466.931 L 220.267,466.931 z M 226.48,470.454 L 227.648,466.949 C 227.772,466.579 227.579,466.548 227.252,466.534 C 227.126,466.527 227.045,466.489 227.064,466.43 C 227.093,466.34 227.19,466.304 227.293,466.304 C 227.772,466.304 228.252,466.284 228.731,466.284 C 228.856,466.284 228.901,466.346 228.878,466.43 C 228.859,466.493 228.753,466.524 228.607,466.534 C 228.264,466.556 228.043,466.583 227.919,466.949 L 226.355,471.558 C 226.328,471.64 226.313,471.683 226.251,471.683 C 226.164,471.683 226.137,471.551 226.105,471.475 L 224.103,466.804 L 222.685,470.995 C 222.636,471.139 222.647,471.236 222.748,471.287 C 222.815,471.32 222.936,471.35 223.123,471.35 C 223.201,471.35 223.333,471.331 223.311,471.432 C 223.291,471.524 223.186,471.557 223.082,471.557 C 222.84,471.557 222.613,471.474 222.372,471.474 C 222.137,471.474 221.904,471.557 221.664,471.557 C 221.518,471.557 221.456,471.516 221.497,471.432 C 221.518,471.391 221.58,471.35 221.726,471.35 C 221.872,471.35 221.997,471.329 222.06,471.329 C 222.266,471.329 222.403,471.049 222.456,470.891 L 223.79,466.93 C 223.909,466.576 223.724,466.534 223.414,466.534 C 223.247,466.534 223.165,466.492 223.185,466.43 C 223.216,466.328 223.31,466.284 223.435,466.284 L 224.478,466.284 C 224.582,466.284 224.682,466.359 224.749,466.513 L 226.48,470.454 L 226.48,470.454 z M 230.422,466.931 C 230.532,466.603 230.437,466.5 230.13,466.493 C 230.072,466.49 229.791,466.517 229.839,466.389 C 229.875,466.288 230.006,466.242 230.214,466.242 C 230.297,466.242 230.527,466.253 230.902,466.263 C 231.256,466.274 231.632,466.285 231.965,466.285 C 232.556,466.285 233.148,466.241 233.738,466.241 C 233.958,466.241 233.971,466.293 233.904,466.493 L 233.612,467.347 C 233.584,467.429 233.549,467.473 233.508,467.473 C 233.379,467.473 233.391,467.193 233.383,467.119 C 233.325,466.596 232.826,466.494 232.382,466.494 L 231.944,466.494 C 231.715,466.494 231.55,466.496 231.443,466.536 C 231.32,466.58 231.25,466.638 231.214,466.743 L 230.713,468.245 C 230.617,468.533 230.794,468.558 231.047,468.558 L 231.422,468.558 C 231.881,468.558 232.152,468.537 232.236,468.454 C 232.375,468.314 232.543,467.963 232.653,467.87 C 232.702,467.827 232.716,467.807 232.757,467.807 C 232.819,467.807 232.819,467.87 232.777,467.995 C 232.703,468.217 232.593,468.442 232.51,468.665 C 232.424,468.895 232.383,469.141 232.298,469.37 C 232.242,469.518 232.194,469.6 232.131,469.6 C 232.11,469.6 232.105,469.577 232.089,469.515 C 232.068,469.435 232.089,469.175 232.089,469.077 C 232.089,468.857 231.897,468.859 231.715,468.848 C 231.548,468.839 231.36,468.827 231.193,468.827 L 230.797,468.827 C 230.626,468.827 230.495,468.882 230.421,469.098 L 229.88,470.704 C 229.719,471.18 229.901,471.433 230.443,471.433 L 230.964,471.433 C 231.459,471.433 231.97,471.253 232.278,470.85 C 232.393,470.7 232.527,470.553 232.653,470.412 C 232.702,470.357 232.737,470.35 232.757,470.35 C 232.798,470.35 232.805,470.394 232.777,470.454 L 232.298,471.475 C 232.277,471.521 232.252,471.558 232.194,471.558 L 228.774,471.558 C 228.607,471.558 228.442,471.579 228.274,471.579 C 228.149,471.579 228.084,471.557 228.107,471.495 C 228.125,471.452 228.233,471.448 228.42,471.432 C 228.747,471.407 228.961,471.268 229.067,470.953 L 230.422,466.931 L 230.422,466.931 z M 233.968,471.058 L 234.135,470.537 C 234.244,470.198 234.365,470.036 234.448,470.036 C 234.51,470.036 234.526,470.164 234.49,470.35 C 234.402,470.79 234.428,471.079 234.594,471.267 C 234.947,471.663 235.553,471.592 235.991,471.413 C 236.411,471.242 236.83,470.85 236.971,470.412 C 237.153,469.844 236.916,469.422 236.429,469.14 C 236.227,469.024 236.021,468.913 235.846,468.827 C 235.373,468.597 235.086,468.181 235.2,467.656 C 235.372,466.853 236.222,466.245 236.996,466.125 C 237.384,466.064 237.818,466.084 238.203,466.158 C 238.492,466.213 238.606,466.305 238.556,466.471 L 238.327,467.242 C 238.308,467.305 238.269,467.367 238.223,467.367 C 238.137,467.367 238.131,467.264 238.14,467.179 C 238.194,466.533 237.931,466.219 237.368,466.219 C 236.96,466.219 236.587,466.363 236.284,466.636 C 235.855,467.026 235.712,467.669 236.242,468.014 C 236.431,468.135 236.721,468.307 237.139,468.535 C 237.729,468.856 237.937,469.374 237.722,470.015 C 237.477,470.752 236.772,471.299 236.054,471.537 C 235.459,471.735 234.611,471.815 234.073,471.412 C 233.952,471.323 233.919,471.21 233.968,471.058 L 233.968,471.058 z "
   id="path309"
   style="fill:#034ea2;fill-rule:evenodd"
   transform="matrix(11.192767,0,0,11.192767,-1481.3217,-4437.7404)" /><polygon
   clip-path="url(#SVGID_12_)"
   clip-rule="evenodd"
   points="164.281,436.229 169.515,438.063 174.563,421.67 164.281,436.229 "
   id="polygon311"
   style="fill:#e11837;fill-rule:evenodd"
   transform="matrix(11.192767,0,0,11.192767,-1481.3217,-4437.7404)" /><polygon
   clip-path="url(#SVGID_12_)"
   clip-rule="evenodd"
   points="156.525,433.511 157.232,433.759 181.362,399.592 182.044,397.375 156.525,433.511 "
   id="polygon313"
   style="fill:#e11837;fill-rule:evenodd"
   transform="matrix(11.192767,0,0,11.192767,-1481.3217,-4437.7404)" /><polygon
   clip-path="url(#SVGID_12_)"
   clip-rule="evenodd"
   points="158.788,434.304 160.442,434.883 178.267,409.645 179.863,404.463 158.788,434.304 "
   id="polygon315"
   style="fill:#e11837;fill-rule:evenodd"
   transform="matrix(11.192767,0,0,11.192767,-1481.3217,-4437.7404)" /><polygon
   clip-path="url(#SVGID_12_)"
   clip-rule="evenodd"
   points="161.496,435.252 163.574,435.98 175.246,419.454 177.251,412.945 161.496,435.252 "
   id="polygon317"
   style="fill:#e11837;fill-rule:evenodd"
   transform="matrix(11.192767,0,0,11.192767,-1481.3217,-4437.7404)" /><polygon
   clip-path="url(#SVGID_12_)"
   clip-rule="evenodd"
   points="153.658,433.57 154.656,433.406 180.732,396.484 178.821,397.941 153.658,433.57 "
   id="polygon319"
   style="fill:#034ea2;fill-rule:evenodd"
   transform="matrix(11.192767,0,0,11.192767,-1481.3217,-4437.7404)" /><polygon
   clip-path="url(#SVGID_12_)"
   clip-rule="evenodd"
   points="149.131,434.311 151.465,433.929 174.618,401.146 170.148,404.553 149.131,434.311 "
   id="polygon321"
   style="fill:#034ea2;fill-rule:evenodd"
   transform="matrix(11.192767,0,0,11.192767,-1481.3217,-4437.7404)" /><polygon
   clip-path="url(#SVGID_12_)"
   clip-rule="evenodd"
   points="144.714,435.032 147.646,434.553 167.301,406.722 161.686,411.003 144.714,435.032 "
   id="polygon323"
   style="fill:#034ea2;fill-rule:evenodd"
   transform="matrix(11.192767,0,0,11.192767,-1481.3217,-4437.7404)" /><polygon
   clip-path="url(#SVGID_12_)"
   clip-rule="evenodd"
   points="126.186,438.063 143.716,435.195 159.774,412.46 126.186,438.063 "
   id="polygon325"
   style="fill:#034ea2;fill-rule:evenodd"
   transform="matrix(11.192767,0,0,11.192767,-1481.3217,-4437.7404)" /><path
   clip-path="url(#SVGID_12_)"
   clip-rule="evenodd"
   d="M 72.907,446.257 L 88.172,446.257 L 86.703,450.927 L 82.842,450.927 L 82.154,453.114 L 74.613,453.114 L 75.3,450.927 L 71.438,450.927 L 72.907,446.257 L 72.907,446.257 z M 81.694,454.577 L 79.366,461.98 L 71.824,461.98 L 74.153,454.577 L 81.694,454.577 L 81.694,454.577 z "
   id="path327"
   style="fill:#034ea2;fill-rule:evenodd"
   transform="matrix(11.192767,0,0,11.192767,-1481.3217,-4437.7404)" />





</svg>