<!DOCTYPE svg PUBLIC "-//W3C//DTD SVG 1.1//EN" "http://www.w3.org/Graphics/SVG/1.1/DTD/svg11.dtd">
<svg version="1.1" id="Ebene_1" xmlns="http://www.w3.org/2000/svg" xmlns:xlink="http://www.w3.org/1999/xlink" x="0px" y="0px"
	 width="305px" height="246.132px">
<path fill="#E41917" d="M20.869,71.708h68.921c6.757,0,11.851,2.135,13.853,11.732c2.23,10.67,1.313,18.097-10.699,18.947
	l-21.637,1.544C87.233,204.562,180.35,237.36,231.046,128.98c8.392-17.939,11.138-21.206,20.33-18.924
	c12.461,3.092,14.162,9.499,8.227,27.584C215.768,271.25,68.445,284.643,39.539,106.217l-17.58,1.271
	C7.657,108.513,7.094,96.444,7.094,89.732C7.094,76.464,12.023,71.708,20.869,71.708"/>
<path fill="#E41917" d="M271.456,7.092c14.129,0,25.582,11.453,25.582,25.582c0,14.127-11.453,25.578-25.582,25.578
	c-14.125,0-25.58-11.451-25.58-25.578C245.876,18.544,257.331,7.092,271.456,7.092"/>
</svg>
