<?xml version="1.0" encoding="UTF-8" standalone="no"?><!DOCTYPE svg PUBLIC "-//W3C//DTD SVG 1.1//EN" "http://www.w3.org/Graphics/SVG/1.1/DTD/svg11.dtd"><svg width="100%" height="100%" viewBox="0 0 136 76" version="1.1" xmlns="http://www.w3.org/2000/svg" xmlns:xlink="http://www.w3.org/1999/xlink" xml:space="preserve" xmlns:serif="http://www.serif.com/" style="fill-rule:evenodd;clip-rule:evenodd;stroke-linejoin:round;stroke-miterlimit:2;"><g id="Layer-1" serif:id="Layer 1"><path id="path16213" d="M32.691,0l-1.602,1.823l31.324,0l-1.705,-1.823l-28.016,0Zm-12.818,3.072l-1.352,1.47l46.611,0l-1.367,-1.47l-43.891,0Zm-1.176,2.631l1.97,1.896l22.269,0l1.911,-1.896l-26.15,0Zm50.873,3.146l-42.465,0.029l1.529,1.543l42.407,0l-1.47,-1.573Zm-40.437,2.719c0,0 0.212,0.612 0.25,1.014c0.057,0.517 -0,1.058 0,1.058l7.482,0l2.028,-2.073l-9.76,0Zm0,3.146l-1.205,1.646l49.095,0l-1.602,-1.646l-46.287,0Zm-2.308,2.646l-1.999,1.896l7.129,0l1.396,-1.896l-6.526,0Zm-3.307,3.175l-1.323,1.499l60.457,0l-1.367,-1.499l-57.767,0Zm-2.146,2.705c0,0 -0.463,0.524 -0.75,0.926c-0.287,0.421 -0.529,1.132 -0.529,1.132l9.716,0c0,0 0.076,-0.711 0.191,-1.132c0.134,-0.402 0.25,-0.926 0.25,-0.926l-8.878,0Zm-1.823,3.131c0,0 -0.186,0.329 -0.397,0.75c-0.21,0.402 -0.353,0.779 -0.353,0.779l69.835,0l-1.514,-1.529l-67.571,0Zm-1.205,2.719c0,0 -0.282,0.54 -0.397,1c-0.134,0.459 -0.25,0.985 -0.25,0.985l12.259,0c0,0 -0.041,-0.496 -0.118,-0.955c-0.096,-0.44 -0.088,-1.029 -0.088,-1.029l-11.406,0Zm-0.897,3.131c0,0 -0.173,0.388 -0.25,0.808c-0.096,0.402 -0.132,0.779 -0.132,0.779l77.405,0l-1.352,-1.587l-75.671,0Zm-0.456,2.778c0,0 -0.054,0.555 -0.073,1.014c-0.038,0.459 -0.059,0.97 -0.059,0.97l15.831,0l-1.455,-1.984l-14.243,0Zm-0.103,3.19c0,0 0.044,0.449 0.044,0.794c0,0.325 0.015,0.691 0.015,0.691l83.476,0l-1.279,-1.485l-82.256,0Zm0.22,2.719c0,0 0.056,0.68 0.132,1.044c0.077,0.383 0.279,0.985 0.279,0.985l23.768,0c0,0 -1.283,-0.573 -2.278,-0.955c-0.995,-0.364 -2.146,-1.073 -2.146,-1.073l-19.755,0Zm49.962,0.044l-1.984,1.984l14.023,0l-1.955,-1.984l-10.084,0Zm-49.227,3.263c0,0 0.067,0.367 0.22,0.75c0.172,0.364 0.279,0.647 0.279,0.647l88.165,0l-1.573,-1.396l-87.092,0Zm-15.993,2.602l-1.676,1.823l85.034,0l1.749,-1.823l-85.107,0Zm-1.852,3.175l1.455,1.499l110.831,0l-1.529,-1.499l-110.757,0Zm22.284,2.749l1.441,1.734l66.983,0l-1.823,-1.734l-66.601,0Zm-19.682,0.029l1.734,1.646l6.027,0l-1.779,-1.646l-5.983,0Zm3.351,3.175l1.485,1.426l5.777,0l-1.22,-1.426l-6.041,0Zm19.417,0.044c0,0 0.461,0.375 0.882,0.661c0.402,0.287 0.897,0.72 0.897,0.72l91.119,0l-1.308,-1.382l-91.59,0Zm-16.786,2.69l1.926,1.779l5.938,0l-1.808,-1.779l-6.056,0Zm20.549,0c0,0 0.785,0.46 1.646,0.823c0.88,0.383 2.411,0.955 2.411,0.955l16.742,0l3.719,-1.779l-24.518,0Zm48.889,0c0,0 0.249,0.37 0.632,0.867c0.364,0.497 0.75,0.897 0.75,0.897l17.345,-0.015l-1.823,-1.749l-16.904,0l0,-0Zm-66.204,3.219l1.455,1.382l5.865,0l-1.455,-1.382l-5.865,0Zm68.983,0l2.102,1.411l41.172,0c0,0 -0.254,-0.422 -0.426,-0.632c-0.172,-0.191 -0.706,-0.779 -0.706,-0.779l-42.142,0Zm3.763,2.661c0,0 0.753,0.501 1.69,0.941c0.957,0.459 2.763,0.985 2.763,0.985l35.557,0c0,0 -0.389,-0.492 -0.676,-0.779c-0.287,-0.287 -1.205,-1.147 -1.205,-1.147l-38.129,0Zm-69.997,0.044l1.852,1.808l5.953,0l-1.926,-1.808l-5.88,0Zm3.131,3.087l1.191,1.367l6.041,0l-1.323,-1.367l-5.909,0Zm91.207,0.162c0,0 1.024,0.301 2.631,0.588c1.607,0.287 4.454,0.867 4.454,0.867l14.14,0l-1.308,-1.455l-19.917,0Zm-88.532,2.602l1.999,1.911l2.631,0l0,-1.911l-4.63,0Zm100.012,0.132l3.234,1.955l6.806,0l-1.779,-1.955l-8.261,0Zm-96.911,3.057l1.573,1.499l0,-1.499l-1.573,0Zm103.349,0.25c-0,0 0.59,0.36 1.279,0.647c0.708,0.287 2.073,0.72 2.073,0.72l5.659,0l-1.073,-1.367l-7.937,0Z" style="fill:#d40000;"/></g></svg>