<svg role="img" viewBox="0 0 64 64" xmlns="http://www.w3.org/2000/svg"><title>T&apos;way Air</title><path fill="#d22c25" d="M3.43 20.068c-.776 0-1.408.626-1.408 1.405v3.177H.963a.962.962 0 0 0-.963.962v1.564c0 .532.43.963.963.963h1.059v6.901c0 3.464 1.626 5.308 4.643 5.308.57 0 1.347-.027 2.099-.084a.963.963 0 0 0 .964-.963v-1.624a.963.963 0 0 0-.964-.963c-.794 0-1.358-.318-1.358-1.213v-7.358h1.358a.963.963 0 0 0 .964-.963v-1.564a.962.962 0 0 0-.964-.962H7.406v-3.181c0-.775-.628-1.405-1.406-1.405zm40.85 4.216c-1.713 0-4.722.446-5.599 3.433-.05.148-.072.303-.072.465 0 .948.604 1.537 1.576 1.537h1.366c.972 0 1.516-.374 1.716-1.183.113-.453.491-.72 1.013-.72.579 0 .999.43.999 1.023 0 .842-.401 1.296-1.343 1.52-4.147 1.076-6.08 2.952-6.08 5.649s1.684 4.443 4.285 4.443l-.004-.004c1.437 0 2.612-.59 3.289-1.63.125.85.756 1.44 1.565 1.44h1.78c.87 0 1.577-.69 1.577-1.529.144-2.52.068-7.086-.03-9.383-.076-1.93-.654-3.26-1.766-4.06-.949-.684-2.306-1.001-4.272-1.001Zm8.733.362a1.408 1.408 0 0 0-1.376 1.696c1.006 4.858 2.177 9.866 3.16 13.016.11.404.213.639.22 1.156.008.318-.412 1.183-1.644 1.183h-.137a.962.962 0 0 0-.964.962v1.67c0 .533.43.963.964.963.56.03 1.27.042 1.92.042 2.662 0 4.069-1.186 5.146-4.706 1.414-4.624 2.968-10 3.679-14.347.011-.072.02-.147.02-.222 0-.775-.632-1.405-1.407-1.405h-2.008c-.676 0-1.244.476-1.376 1.114-.393 1.806-.843 5.29-1.217 7.811h-.054c-.435-2.258-.982-5.937-1.512-7.882a1.408 1.408 0 0 0-1.36-1.051zm-33.188.008c-.6 0-1.508.445-1.406 1.53.416 3.724 1.47 8.567 2.688 12.963.192.812.843 1.117 1.392 1.117h2.77c.851 0 1.297-.679 1.38-1.129l1.286-5.851h.053l1.282 5.851c.083.45.529 1.13 1.38 1.13h2.77c.549 0 1.204-.306 1.393-1.118 1.217-4.4 2.271-9.24 2.687-12.963.102-1.08-.805-1.53-1.406-1.53h-2.11c-.446 0-1.172.275-1.338 1.144-.458 2.33-.741 4.888-1.063 7.17-.295-2.172-.778-5.081-1.21-7.317-.124-.533-.62-.997-1.346-.997h-2.139c-.726 0-1.222.464-1.346.997-.533 2.251-.942 5.129-1.214 7.293-.321-2.274-.605-4.823-1.059-7.146a1.364 1.364 0 0 0-1.338-1.144zm25.548 8.645v1.27c0 1.817-.548 2.191-1.369 2.191-.283 0-.571-.13-.764-.34-.223-.242-.318-.586-.272-.986.105-.914.903-1.314 1.606-1.666.299-.15.583-.295.799-.469z"/><path fill="#82ab42" d="M16.405 20.506c-.02-.045-.042-.087-.064-.132a3.152 3.152 0 1 0-4.745 3.925c.9.698 1.818 2.009-.352 4.052-.408.427-.117.763.159.94.665.431 1.104.367 1.815 0 1.822-.944 5.119-4.774 3.19-8.789z"/></svg>