<?xml version="1.0" encoding="UTF-8"?>
<svg version="1.1" xmlns="http://www.w3.org/2000/svg" width="256" height="88">
<path d="M0 0 C1.19254395 0.00737183 1.19254395 0.00737183 2.40917969 0.01489258 C11.33157546 0.19337711 17.72257309 1.91007309 24.125 8.3125 C30.90499508 17.35249344 31.34844219 26.35918254 30.125 37.3125 C29.05491866 41.21543061 27.57693879 44.10854905 25.125 47.3125 C24.68671875 47.91449219 24.2484375 48.51648438 23.796875 49.13671875 C18.45578913 54.94163576 9.61454351 55.63440298 2.125 56.3125 C-1.37109375 55.87890625 -1.37109375 55.87890625 -3.875 55.3125 C-3.92398438 56.37210938 -3.97296875 57.43171875 -4.0234375 58.5234375 C-4.09846709 59.91148497 -4.17401485 61.29950451 -4.25 62.6875 C-4.29640625 63.73550781 -4.29640625 63.73550781 -4.34375 64.8046875 C-4.6484375 70.0859375 -4.6484375 70.0859375 -6.875 72.3125 C-10.02734375 72.68359375 -10.02734375 72.68359375 -13.8125 72.75 C-15.68228516 72.80994141 -15.68228516 72.80994141 -17.58984375 72.87109375 C-20.875 72.3125 -20.875 72.3125 -22.55606079 70.13513184 C-24.01229021 67.01868834 -24.25490242 65.01426339 -24.26318359 61.59179688 C-24.27264008 60.46713013 -24.28209656 59.34246338 -24.2918396 58.18371582 C-24.28576691 56.9784021 -24.27969421 55.77308838 -24.2734375 54.53125 C-24.27630768 53.28500854 -24.27917786 52.03876709 -24.28213501 50.75476074 C-24.28469647 47.44887526 -24.27264581 44.14341455 -24.25585938 40.83758545 C-24.25000514 38.81427517 -24.25583936 36.79135523 -24.26611328 34.76806641 C-24.28464708 30.87644356 -24.28240023 26.98539694 -24.2734375 23.09375 C-24.27951019 21.88843628 -24.28558289 20.68312256 -24.2918396 19.44128418 C-24.28238312 18.31661743 -24.27292664 17.19195068 -24.26318359 16.03320312 C-24.26079681 15.04678833 -24.25841003 14.06037354 -24.25595093 13.04406738 C-23.80588608 9.81692613 -22.76700786 7.94377157 -20.875 5.3125 C-14.64321197 0.63865898 -7.53180897 -0.05479701 0 0 Z M-4.875 16.3125 C-4.875 22.9125 -4.875 29.5125 -4.875 36.3125 C-7.515 36.3125 -10.155 36.3125 -12.875 36.3125 C-13.535 36.9725 -14.195 37.6325 -14.875 38.3125 C-7.23267685 39.74174436 -0.57065547 40.61684839 7.125 39.3125 C7.125 38.6525 7.125 37.9925 7.125 37.3125 C7.785 37.3125 8.445 37.3125 9.125 37.3125 C10.22197531 34.02157406 10.3621983 31.40137841 10.4375 27.9375 C10.47488281 26.81601562 10.51226562 25.69453125 10.55078125 24.5390625 C10.0349707 20.63025965 8.92734146 19.04017872 6.125 16.3125 C1.83089429 15.23897357 -0.55442096 15.23235524 -4.875 16.3125 Z " fill="#FFFFFF" transform="translate(131.875,15.6875)"/>
<path d="M0 0 C2.6875 1.25 2.6875 1.25 3.83618164 2.91381836 C4.95277971 5.97797865 4.96188975 8.61879521 4.99609375 11.87890625 C5.02123047 13.16087891 5.04636719 14.44285156 5.07226562 15.76367188 C5.10106313 17.79352707 5.12509947 19.82329781 5.14379883 21.85327148 C5.16543572 23.82032629 5.20551148 25.78715109 5.24609375 27.75390625 C5.25954834 28.92767822 5.27300293 30.1014502 5.28686523 31.31079102 C5.50162162 34.17240577 5.50162162 34.17240577 6.71508789 36.15600586 C9.95116829 37.9508909 13.0342116 37.42966992 16.6875 37.25 C16.6968457 36.20545654 16.70619141 35.16091309 16.71582031 34.0847168 C16.75568874 30.209771 16.82143741 26.33562186 16.89501953 22.46118164 C16.92324768 20.7842024 16.9444531 19.10708965 16.95849609 17.42993164 C16.97990125 15.01899782 17.02653426 12.60967216 17.078125 10.19921875 C17.07935364 9.44912033 17.08058228 8.69902191 17.08184814 7.92619324 C17.17450504 4.63457847 17.2321462 2.74277263 19.51464844 0.27270508 C23.72204462 -1.70760757 27.62471575 -1.03073546 32 0.125 C34.6875 1.25 34.6875 1.25 36.6875 3.25 C38.07878387 6.98330602 37.84925728 10.93631276 37.85546875 14.8671875 C37.86046135 15.96935104 37.86046135 15.96935104 37.86555481 17.09378052 C37.8706073 18.64535905 37.87296365 20.1969484 37.87280273 21.74853516 C37.87498602 24.10988474 37.8931503 26.47076443 37.91210938 28.83203125 C37.91504438 30.34374841 37.91702846 31.85546778 37.91796875 33.3671875 C37.92515427 34.06738007 37.93233978 34.76757263 37.93974304 35.48898315 C37.91994347 39.78364358 37.25743655 43.25613119 35.6875 47.25 C35.0275 47.25 34.3675 47.25 33.6875 47.25 C33.6875 47.91 33.6875 48.57 33.6875 49.25 C22.44335809 54.74713604 10.62559673 55.56344976 -1.3984375 52.3671875 C-6.47536733 50.42080421 -10.29869191 47.14314675 -13.39550781 42.6940918 C-14.80261106 38.9436896 -14.55705705 35.29930139 -14.5078125 31.328125 C-14.5049826 30.46813904 -14.50215271 29.60815308 -14.49923706 28.72210693 C-14.4880615 25.98126179 -14.46296179 23.24074602 -14.4375 20.5 C-14.4274668 18.63932764 -14.41834155 16.77865015 -14.41015625 14.91796875 C-14.38813076 10.36185268 -14.35361897 5.80598214 -14.3125 1.25 C-9.45331667 -1.42361179 -5.37545169 -1.2170834 0 0 Z " fill="#FFFFFF" transform="translate(14.3125,17.75)"/>
<path d="M0 0 C5.81806017 3.47521715 9.88978085 7.39229424 12.3125 13.8125 C13.28990175 18.48899147 13.92781839 22.33573585 12.0625 26.8125 C9.63604387 29.58559272 8.00349879 30.73912457 4.30981445 31.13134766 C3.1105835 31.16276855 1.91135254 31.19418945 0.67578125 31.2265625 C-1.27231445 31.28457031 -1.27231445 31.28457031 -3.25976562 31.34375 C-4.63150573 31.37520517 -6.00325061 31.40645251 -7.375 31.4375 C-8.75848785 31.47569197 -10.14195223 31.51474442 -11.52539062 31.5546875 C-14.9126245 31.64910517 -18.29985069 31.73468118 -21.6875 31.8125 C-20.759375 32.616875 -19.83125 33.42125 -18.875 34.25 C-18.35292969 34.70246094 -17.83085938 35.15492187 -17.29296875 35.62109375 C-14.37102214 37.78944829 -11.80286256 37.91545366 -8.30859375 37.8046875 C-7.47005859 37.78792969 -6.63152344 37.77117188 -5.76757812 37.75390625 C-4.00174256 37.70953196 -2.23608513 37.65741164 -0.47070312 37.59765625 C0.36654297 37.58347656 1.20378906 37.56929687 2.06640625 37.5546875 C2.83283447 37.5326123 3.5992627 37.51053711 4.38891602 37.48779297 C5.02369873 37.59494629 5.65848145 37.70209961 6.3125 37.8125 C8.77205283 41.50182924 8.77610666 43.36633902 8.1484375 47.6484375 C7.09738562 50.36938488 6.2001977 51.04432163 3.625 52.375 C-5.81176118 55.65081837 -16.59229256 54.7200706 -25.6875 50.8125 C-32.46695297 47.16202533 -37.81150738 41.50304876 -40.21875 34.109375 C-42.24235509 24.19371006 -40.66566169 14.97551604 -35.125 6.5625 C-26.74444968 -3.63281669 -11.7004589 -5.50918468 0 0 Z M-20.6875 14.8125 C-20.6875 15.4725 -20.6875 16.1325 -20.6875 16.8125 C-22.3375 16.8125 -23.9875 16.8125 -25.6875 16.8125 C-25.6875 17.4725 -25.6875 18.1325 -25.6875 18.8125 C-19.0875 18.8125 -12.4875 18.8125 -5.6875 18.8125 C-7.09907192 13.99261561 -7.09907192 13.99261561 -9.5 12.5 C-14.17750386 11.02992736 -17.09696423 11.35494704 -20.6875 14.8125 Z " fill="#FFFFFF" transform="translate(93.6875,18.1875)"/>
<path d="M0 0 C1.24910156 0.02320312 2.49820313 0.04640625 3.78515625 0.0703125 C5.03167969 0.08835938 6.27820313 0.10640625 7.5625 0.125 C8.64660156 0.14820312 9.73070312 0.17140625 10.84765625 0.1953125 C13.03555304 0.1953125 15.22360503 0.1470336 17.41015625 0.0703125 C20.84765625 0.1953125 20.84765625 0.1953125 22.84765625 2.1953125 C23.41285628 4.85068622 23.58553823 7.48675963 23.84765625 10.1953125 C24.17765625 9.8653125 24.50765625 9.5353125 24.84765625 9.1953125 C28.28515625 9.0078125 28.28515625 9.0078125 31.84765625 9.1953125 C34.31067048 11.65832673 34.61532146 13.46891286 35.47265625 16.8203125 C35.86324219 18.32464844 35.86324219 18.32464844 36.26171875 19.859375 C36.45507812 20.63023438 36.6484375 21.40109375 36.84765625 22.1953125 C37.04101562 21.59203125 37.234375 20.98875 37.43359375 20.3671875 C37.69398438 19.56796875 37.954375 18.76875 38.22265625 17.9453125 C38.60550781 16.76195312 38.60550781 16.76195312 38.99609375 15.5546875 C39.79939292 13.32903292 40.74477287 11.28599578 41.84765625 9.1953125 C44.180604 9.15289527 46.51468192 9.15438313 48.84765625 9.1953125 C50.37733462 10.72499087 50.20288757 12.05273603 50.34765625 14.1953125 C50.32191631 23.06272167 45.7164897 32.89206233 40.84765625 40.1953125 C40.18765625 40.1953125 39.52765625 40.1953125 38.84765625 40.1953125 C38.18765625 41.5153125 37.52765625 42.8353125 36.84765625 44.1953125 C30.79296875 44.390625 30.79296875 44.390625 28.84765625 44.1953125 C28.18765625 43.5353125 27.52765625 42.8753125 26.84765625 42.1953125 C27.15549483 38.29602385 28.46974307 36.20776316 30.84765625 33.1953125 C30.42613281 32.37546875 30.00460938 31.555625 29.5703125 30.7109375 C29.02246094 29.63328125 28.47460938 28.555625 27.91015625 27.4453125 C27.36488281 26.37796875 26.81960937 25.310625 26.2578125 24.2109375 C24.84765625 21.1953125 24.84765625 21.1953125 23.84765625 17.1953125 C23.51765625 23.1353125 23.18765625 29.0753125 22.84765625 35.1953125 C15.84765625 36.1953125 15.84765625 36.1953125 12.84765625 34.1953125 C12.4152832 31.48974609 12.4152832 31.48974609 12.3359375 28.09375 C12.28276367 26.27617188 12.28276367 26.27617188 12.22851562 24.421875 C12.20595703 23.15085937 12.18339844 21.87984375 12.16015625 20.5703125 C12.12599609 19.2915625 12.09183594 18.0128125 12.05664062 16.6953125 C11.97393146 13.52873318 11.9048554 10.36243886 11.84765625 7.1953125 C11.24308594 7.35128906 10.63851562 7.50726562 10.015625 7.66796875 C7.84765625 8.1953125 7.84765625 8.1953125 5.16015625 8.6328125 C4.01546875 8.91125 4.01546875 8.91125 2.84765625 9.1953125 C2.51765625 9.8553125 2.18765625 10.5153125 1.84765625 11.1953125 C3.51828125 11.164375 3.51828125 11.164375 5.22265625 11.1328125 C8.84765625 11.1953125 8.84765625 11.1953125 10.84765625 12.1953125 C10.89019981 14.19485996 10.88846408 16.19572886 10.84765625 18.1953125 C9.84765625 19.1953125 9.84765625 19.1953125 8 19.29296875 C5.94921875 19.26041667 3.8984375 19.22786458 1.84765625 19.1953125 C1.85925781 20.33871094 1.87085938 21.48210938 1.8828125 22.66015625 C1.89218913 24.15104004 1.90128946 25.64192559 1.91015625 27.1328125 C1.91853516 27.88755859 1.92691406 28.64230469 1.93554688 29.41992188 C1.94418066 31.34525563 1.89989958 33.27066831 1.84765625 35.1953125 C0.84765625 36.1953125 0.84765625 36.1953125 -2.02734375 36.4453125 C-5.15234375 36.1953125 -5.15234375 36.1953125 -6.82275391 35.04248047 C-8.6898339 32.44859004 -8.54046319 30.56711382 -8.55078125 27.390625 C-8.55464844 26.24980469 -8.55851563 25.10898437 -8.5625 23.93359375 C-8.55089844 22.74121094 -8.53929687 21.54882812 -8.52734375 20.3203125 C-8.53894531 19.13566406 -8.55054688 17.95101563 -8.5625 16.73046875 C-8.55863281 15.58707031 -8.55476562 14.44367187 -8.55078125 13.265625 C-8.54739746 12.22164551 -8.54401367 11.17766602 -8.54052734 10.10205078 C-7.85377481 4.95961329 -5.46188608 0.33840682 0 0 Z " fill="#FFFFFF" transform="translate(206.15234375,-0.1953125)"/>
<path d="M0 0 C1.1446875 -0.01675781 2.289375 -0.03351562 3.46875 -0.05078125 C6.5 0.3125 6.5 0.3125 8.34375 1.64453125 C11.80566898 6.63858329 10.46021905 13.03874576 10.25805664 18.80688477 C10.18858844 20.84309623 10.13374659 22.87933454 10.08007812 24.91601562 C9.83820468 32.24080987 9.28892645 39.19377734 7.5 46.3125 C4.71398777 47.24117074 2.88933911 47.47592217 0 47.5 C-0.7734375 47.51417969 -1.546875 47.52835938 -2.34375 47.54296875 C-4.5 47.3125 -4.5 47.3125 -7.5 45.3125 C-10.14000754 37.04399997 -9.8431744 27.88115833 -9.81567383 19.27246094 C-9.81245068 17.15510357 -9.83629705 15.03906692 -9.86132812 12.921875 C-9.86359581 11.57031425 -9.86430709 10.21874977 -9.86328125 8.8671875 C-9.86626221 7.65530762 -9.86924316 6.44342773 -9.87231445 5.19482422 C-9.74945068 4.24365723 -9.62658691 3.29249023 -9.5 2.3125 C-5.94223788 -0.05934142 -4.21979393 0.01425606 0 0 Z " fill="#FFFFFF" transform="translate(178.5,-0.3125)"/>
<path d="M0 0 C2.82424288 2.19022918 4.41508603 3.83017207 6 7 C6.44408691 10.9079648 6.13704844 12.74548146 4.25 16.25 C1.2772789 19.88332579 -0.27775915 20.77535989 -4.875 21.375 C-8.87153796 20.89541545 -10.90459308 19.53260567 -14 17 C-16.37432953 13.24524633 -16.22098634 10.41195788 -15.5859375 6.12890625 C-15 4 -15 4 -13.0625 1.4375 C-8.67378975 -0.62250685 -4.76049146 -0.93021097 0 0 Z " fill="#FFFFFF" transform="translate(184,51)"/>
</svg>
