<?xml version="1.0" encoding="UTF-8" standalone="no"?><!DOCTYPE svg PUBLIC "-//W3C//DTD SVG 1.1//EN" "http://www.w3.org/Graphics/SVG/1.1/DTD/svg11.dtd"><svg width="100%" height="100%" viewBox="0 0 95 74" version="1.1" xmlns="http://www.w3.org/2000/svg" xmlns:xlink="http://www.w3.org/1999/xlink" xml:space="preserve" xmlns:serif="http://www.serif.com/" style="fill-rule:evenodd;clip-rule:evenodd;stroke-linejoin:round;stroke-miterlimit:2;"><g><g><g><g><clipPath id="_clip1"><path d="M94.5,0l-25.9,73.1l-68.6,0l69.6,-70.3c1.5,-1.7 3.8,-2.7 6.1,-2.8l18.8,0Z"/></clipPath><g clip-path="url(#_clip1)"><g><g><path d="M-106.7,90c40.7,18.8 82.7,10.4 121.9,-8c43.6,-20.5 87.7,-23.8 133.1,-5.9c-0.7,-6.5 -1,-9.8 -1.7,-16.5c-22.7,-7.8 -45.7,-11.5 -69.8,-9.1c-23.6,2.4 -42.1,11 -62.1,23.2c-37.7,23 -78.9,33 -121.4,16.3" style="fill:#ffd42a;fill-rule:nonzero;"/></g><g><path d="M-106.7,90c23.4,6.3 45.3,6.7 68.7,0.4c21.7,-5.9 36.5,-18.2 52.5,-33.5c18.1,-17.3 34.5,-30.2 59.6,-34.7c23.4,-4.2 46.5,-1.7 69.4,4.1c-0.6,-6.6 -1,-10 -1.7,-16.5c-22.4,-4.5 -45.1,-6.3 -67.6,-1.6c-25.2,5.3 -40.9,18.7 -57.6,37.6c-16.6,18.6 -31.2,34.4 -55.6,42c-22.7,6.9 -44.6,7 -67.7,2.2" style="fill:#ffd42a;fill-rule:nonzero;"/></g><g><path d="M-106.7,90c23.1,4.8 45,4.7 67.7,-2.3c24.4,-7.5 39.1,-23.4 55.6,-42c16.7,-18.8 32.5,-32.3 57.6,-37.6c22.6,-4.7 45.2,-2.9 67.6,1.6c-0.7,-6.5 -1.1,-9.8 -1.8,-16.1c-22.5,-3.2 -45.1,-4 -67.3,1.9c-25.5,6.7 -40.9,21.7 -56.9,41.9c-16,20.2 -30.1,37.4 -54.8,46.5c-22.2,8.2 -44.4,9.2 -67.7,6.1" style="fill:#131718;fill-rule:nonzero;"/></g><g><clipPath id="_clip2"><rect x="-106.7" y="-8.9" width="256.9" height="112.6"/></clipPath><g clip-path="url(#_clip2)"><path d="M146.7,59.5c-22.7,-7.8 -45.7,-11.5 -69.8,-9.1c-23.6,2.4 -42.1,11 -62.1,23.2c-37.8,23 -79.1,33 -121.6,16.3c44.6,14.7 85.3,3.5 121.4,-24.7c19,-14.9 36.6,-25.5 60.9,-29c23.7,-3.3 46.8,-0.2 69.6,6.6c0.6,6.7 1,10.1 1.6,16.7" style="fill:#131718;fill-rule:nonzero;"/></g></g><g><clipPath id="_clip3"><rect x="-106.7" y="-8.9" width="256.9" height="112.6"/></clipPath><g clip-path="url(#_clip3)"><path d="M145.1,42.9c-22.8,-6.8 -45.9,-9.9 -69.6,-6.6c-24.3,3.4 -41.8,14.1 -60.9,29c-36.1,28.2 -76.8,39.4 -121.4,24.7c23.4,6.3 45.3,6.7 68.7,0.4c21.7,-5.9 36.5,-18.2 52.5,-33.5c18.1,-17.3 34.5,-30.2 59.6,-34.7c23.4,-4.2 46.5,-1.7 69.4,4.1c0.8,6.5 1.1,9.9 1.7,16.6" style="fill:#ea3327;fill-rule:nonzero;"/></g></g><g><clipPath id="_clip4"><rect x="-106.7" y="-8.9" width="256.9" height="112.6"/></clipPath><g clip-path="url(#_clip4)"><path d="M-106.7,90c39.7,21.2 81.9,15.1 122.7,0.1c45.1,-16.6 89.6,-17.9 134.2,2.1c-0.8,-6.4 -1.1,-9.6 -1.8,-16.1c-45.4,-17.8 -89.6,-14.6 -133.1,5.9c-39.3,18.4 -81.3,26.7 -122,8" style="fill:#ea3327;fill-rule:nonzero;"/></g></g></g></g></g></g><g><clipPath id="_clip5"><path d="M94.5,0l-25.9,73.1l-68.6,0l69.6,-70.3c1.5,-1.7 3.8,-2.7 6.1,-2.8l18.8,0Z"/></clipPath><g clip-path="url(#_clip5)"><path d="M56.8,53.5c6.9,0 12.4,-5.6 12.4,-12.4c0,-6.9 -5.6,-12.4 -12.4,-12.4c-6.9,0 -12.4,5.6 -12.4,12.4c-0,6.8 5.6,12.4 12.4,12.4" style="fill:#fff;fill-rule:nonzero;"/></g></g><g><clipPath id="_clip6"><path d="M94.5,0l-25.9,73.1l-68.6,0l69.6,-70.3c1.5,-1.7 3.8,-2.7 6.1,-2.8l18.8,0Z"/></clipPath><g clip-path="url(#_clip6)"><path d="M54.7,31.7l-0.9,-1.6c1.5,-1.1 4.6,-0.6 5.1,2.1l-1.4,0.3l-2.8,-0.8Z" style="fill:#e91d26;fill-rule:nonzero;"/></g></g><g><clipPath id="_clip7"><path d="M94.5,0l-25.9,73.1l-68.6,0l69.6,-70.3c1.5,-1.7 3.8,-2.7 6.1,-2.8l18.8,0Z"/></clipPath><g clip-path="url(#_clip7)"><path d="M56.9,32.3l-1.6,-0.4l0.1,-2.3c0.9,0 1.9,0.3 2.6,0.9l-1.1,1.8Z" style="fill:#fddf2d;fill-rule:nonzero;"/></g></g><g><clipPath id="_clip8"><path d="M94.5,0l-25.9,73.1l-68.6,0l69.6,-70.3c1.5,-1.7 3.8,-2.7 6.1,-2.8l18.8,0Z"/></clipPath><g clip-path="url(#_clip8)"><path d="M56.5,43.7c0.7,2.1 0,2.7 0.3,4c0.2,1 0.2,2.5 0.1,3.3c-1.2,-0.2 -2.4,0 -3,0.6c0.6,-0.1 1.4,-0.1 2,0c-0.4,0.1 -0.9,0.7 -0.9,1.3c0.8,-0.9 2.7,-1.7 4.6,-1.3c-0.1,-0.3 -1.1,-0.7 -2,-0.6c-0.1,-0.6 -0.4,-2.2 -0.2,-3c0.2,-1.1 -0.1,-2.7 0.1,-3.3c0.2,-0.6 0.5,-0.9 0.6,-1.5" style="fill:#131718;fill-rule:nonzero;"/></g></g><g><clipPath id="_clip9"><path d="M94.5,0l-25.9,73.1l-68.6,0l69.6,-70.3c1.5,-1.7 3.8,-2.7 6.1,-2.8l18.8,0Z"/></clipPath><g clip-path="url(#_clip9)"><path d="M61.4,40.6c3.2,1.1 2.7,3.2 1.8,3.6c-2,0.8 -5.2,0.3 -7.8,-0.8c-1.1,-0.5 -2.6,-1.8 -2.3,-3c0.3,-1.2 2.8,-2.3 4.2,-1.5c1.5,0.7 3.5,1.5 4.1,1.7" style="fill:#131718;fill-rule:nonzero;"/></g></g><g><clipPath id="_clip10"><path d="M94.5,0l-25.9,73.1l-68.6,0l69.6,-70.3c1.5,-1.7 3.8,-2.7 6.1,-2.8l18.8,0Z"/></clipPath><g clip-path="url(#_clip10)"><path d="M55.9,41.2c-0.6,0.7 -0.4,2.6 0.6,3.1c0.9,0.4 1.3,0.8 1.7,1.4c0.4,0.6 0.5,1.1 -0.4,1c-2.2,-0.2 -4.8,-0.4 -5.5,0.3c-0.6,0.5 -0.6,1.2 -0.4,2c0.3,-0.4 0.1,-1.1 0.5,-1.4c-0.1,0.3 -0.1,0.9 0.2,1.3c0,-0.4 0.1,-1.4 0.4,-1.5c0.3,0.2 0,0.8 0.3,1.1c0.2,-0.3 0,-0.7 0.4,-1c0.3,-0.3 0.9,-0.5 2,-0.4c1.1,0.1 1.9,0.1 2.4,0.1c0.5,0 0.7,-0.1 1,0c0.3,0.1 0.5,0 0.6,-0.2c0.1,-0.2 0.3,-0.5 -0.1,-0.8c-0.3,-0.3 -0.9,-1.3 -0.5,-2c0.3,-0.5 0.2,-1.3 0,-1.6" style="fill:#131718;fill-rule:nonzero;"/></g></g><g><clipPath id="_clip11"><path d="M94.5,0l-25.9,73.1l-68.6,0l69.6,-70.3c1.5,-1.7 3.8,-2.7 6.1,-2.8l18.8,0Z"/></clipPath><g clip-path="url(#_clip11)"><path d="M52.9,33.8c0.1,0.2 0.7,0.1 1.8,-0.1c0,0.2 0.5,0.4 0.3,0.7c-0.9,1.2 -2.2,2.5 -2.5,4.4c-0.2,1 0.1,2.4 1.1,3.3l0,-0.9c0.1,0.1 0.2,0.3 0.4,0.4c0,-0.1 0.1,-0.6 0.1,-0.7c0.2,0.1 0.4,0.2 0.6,0.2c0,-0.2 -0.1,-0.6 -0.1,-0.7c0.2,0.1 0.4,0.2 0.5,0.3c-0.1,-0.2 -0.3,-0.6 -0.3,-0.8c0.1,0.1 0.4,0.3 0.4,0.3c-0.1,-0.1 -0.1,-0.6 -0.2,-0.7c0.1,0 0.4,0.2 0.7,0.3c-0.1,-0.2 -0.1,-0.7 -0.2,-0.7c0.2,0.1 0.5,0.2 0.6,0.3c-0.1,-0.2 0,-0.5 -0.1,-0.6c0.2,0.1 0.6,-0.1 0.9,0c-0.3,-0.4 -0.7,-0.6 -0.8,-1c-0.2,-1.3 0.1,-2.9 0.8,-3.4c1.2,-0.8 1.4,-2.7 -0.4,-3.3c-1,-0.4 -2.4,0.4 -1.9,2c-1.2,0.2 -1.9,0.4 -1.8,0.8c-0.1,0 0,-0.1 0.1,-0.1" style="fill:#131718;fill-rule:nonzero;"/></g></g><g><clipPath id="_clip12"><path d="M94.5,0l-25.9,73.1l-68.6,0l69.6,-70.3c1.5,-1.7 3.8,-2.7 6.1,-2.8l18.8,0Z"/></clipPath><g clip-path="url(#_clip12)"><path d="M55.8,38.6c-0.3,1.1 0.2,2.8 2.4,3.6c2.2,0.8 3.8,2.5 3.3,3.8c0.3,-0.1 1.1,-1.1 0.6,-2c0.7,1 -0.1,2.5 -1,3.1c-0.3,0.2 0,0.4 0.3,0.3c-0.3,0.1 -0.5,0.4 -0.2,0.4c0.2,0 0.8,-0.3 1.1,-0.5c-0.2,0.2 -0.6,0.4 -0.4,0.6c0.2,0.2 0.6,-0.1 1,-0.5c-0.2,0.3 -0.5,0.7 -0.8,0.8c-0.2,0.2 -0.2,0.6 0.2,0.3c1,-0.7 2.1,-1.7 2.4,-2.8c0.2,-1.1 0.7,-3.5 -2,-4.8c-2.7,-1.3 -4,-1.7 -4.8,-2.2c-1,-0.4 -1.8,-0.9 -2.1,-0.1" style="fill:#bec5c2;fill-rule:nonzero;"/></g></g><g><clipPath id="_clip13"><path d="M94.5,0l-25.9,73.1l-68.6,0l69.6,-70.3c1.5,-1.7 3.8,-2.7 6.1,-2.8l18.8,0Z"/></clipPath><g clip-path="url(#_clip13)"><path d="M61.3,40.9c-0.6,-0.1 -2.3,-0.7 -3,-1.1c-0.7,-0.4 -1.6,-0.4 -1.5,0.3c0.1,0.7 1.7,1 2.1,1.7c0.4,0.7 2,0.8 2.5,0.9c0.5,0.1 2.3,-0.6 -0.1,-1.8" style="fill:#fff;fill-rule:nonzero;"/></g></g><g><clipPath id="_clip14"><path d="M94.5,0l-25.9,73.1l-68.6,0l69.6,-70.3c1.5,-1.7 3.8,-2.7 6.1,-2.8l18.8,0Z"/></clipPath><g clip-path="url(#_clip14)"><path d="M59.3,42.4c0.6,0.4 1.1,0.5 1.8,1.4c0.5,0.7 0.7,1.6 0.5,2.3c0.3,-0.1 1.1,-1.1 0.6,-2c0.7,1 -0.1,2.5 -1,3.1c-0.3,0.2 0,0.4 0.3,0.3c-0.3,0.1 -0.5,0.4 -0.2,0.4c0.2,0 0.8,-0.3 1.1,-0.5c-0.2,0.2 -0.6,0.4 -0.4,0.6c0.2,0.2 0.6,-0.1 1,-0.5c-0.2,0.3 -0.5,0.7 -0.8,0.8c-0.2,0.2 -0.2,0.6 0.2,0.3c1,-0.7 2.1,-1.7 2.4,-2.8c0.2,-1.1 0.7,-3.4 -2,-4.8c-0.5,-0.2 -1.8,-0.5 -2.1,-0.6c0.6,0.2 1.3,1.2 1.5,1.4c-0.4,-0.2 -1.7,-0.8 -2,-0.9c0.3,0.3 0.5,0.4 0.8,1c-0.4,-0.2 -1.4,-0.4 -1.7,-0.4c0.3,0.1 0.6,0.5 0.8,0.7c-0.6,-0.2 -1.4,-0.1 -0.8,0.2" style="fill:#e91d26;fill-rule:nonzero;"/></g></g><g><clipPath id="_clip15"><path d="M94.5,0l-25.9,73.1l-68.6,0l69.6,-70.3c1.5,-1.7 3.8,-2.7 6.1,-2.8l18.8,0Z"/></clipPath><g clip-path="url(#_clip15)"><path d="M54.6,33.7c-0.4,0.3 -0.8,0.8 -0.5,1.2c0.3,0.4 1,0 1.1,-0.3c0.2,-0.6 -0.6,-0.6 -0.6,-0.9" style="fill:#e91d26;fill-rule:nonzero;"/></g></g><g><clipPath id="_clip16"><path d="M94.5,0l-25.9,73.1l-68.6,0l69.6,-70.3c1.5,-1.7 3.8,-2.7 6.1,-2.8l18.8,0Z"/></clipPath><g clip-path="url(#_clip16)"><path d="M55.4,34.8c-1.3,1.5 -1.8,3.4 -1.9,4.6c0,0.6 0.3,0.9 0.5,1.2c0,-0.1 0,-0.6 -0.1,-0.7c0.1,0.1 0.4,0.2 0.5,0.3c0,-0.2 -0.2,-0.6 -0.2,-0.6c0.1,0.1 0.4,0 0.4,0.1c0,-0.1 -0.1,-0.4 -0.2,-0.4c0.1,0 0.6,0.1 0.6,0.1c-0.1,-0.1 -0.3,-0.5 -0.3,-0.5c0.1,0 0.5,0.1 0.6,0.1c-0.3,-0.3 -1,-1 0.1,-3.8c0.3,-0.5 0.3,-0.7 -0,-0.4" style="fill:#bec5c2;fill-rule:nonzero;"/></g></g><g><clipPath id="_clip17"><path d="M94.5,0l-25.9,73.1l-68.6,0l69.6,-70.3c1.5,-1.7 3.8,-2.7 6.1,-2.8l18.8,0Z"/></clipPath><g clip-path="url(#_clip17)"><path d="M56.3,41.6c-0.3,0.7 -0.1,1.6 0,1.8c-0.1,-0.3 0.9,-0.6 1.6,0c-0.2,-0.3 -1.5,-1.3 -1.6,-1.8" style="fill:#bec5c2;fill-rule:nonzero;"/></g></g><g><clipPath id="_clip18"><path d="M94.5,0l-25.9,73.1l-68.6,0l69.6,-70.3c1.5,-1.7 3.8,-2.7 6.1,-2.8l18.8,0Z"/></clipPath><g clip-path="url(#_clip18)"><path d="M55.3,32.6c-0.3,0 -0.3,0.5 0,0.5c0.3,0 0.3,-0.5 0,-0.5" style="fill:#fff;fill-rule:nonzero;"/></g></g><g><clipPath id="_clip19"><path d="M94.5,0l-25.9,73.1l-68.6,0l69.6,-70.3c1.5,-1.7 3.8,-2.7 6.1,-2.8l18.8,0Z"/></clipPath><g clip-path="url(#_clip19)"><path d="M56.5,32.2c0.2,0.7 -0.1,1.1 -0.5,1.2c-0.4,0.1 -0.4,0.7 0.2,0.6c1.1,-0.2 1.1,-1.2 0.6,-2c-0.2,-0.2 -0.4,-0.2 -0.3,0.2" style="fill:#bec5c2;fill-rule:nonzero;"/></g></g></g></g></svg>