<?xml version="1.0" encoding="UTF-8" standalone="no"?>
<!DOCTYPE svg PUBLIC "-//W3C//DTD SVG 1.1//EN" "http://www.w3.org/Graphics/SVG/1.1/DTD/svg11.dtd">
<svg width="100%" height="100%" viewBox="0 0 170 161" version="1.1" xmlns="http://www.w3.org/2000/svg" xmlns:xlink="http://www.w3.org/1999/xlink" xml:space="preserve" xmlns:serif="http://www.serif.com/" style="fill-rule:evenodd;clip-rule:evenodd;stroke-linejoin:round;stroke-miterlimit:2;">
    <g transform="matrix(4.166667,0,0,4.166667,0,0)">
        <g id="layer1" transform="matrix(3.779527,0,0,3.779527,-457.524973,-1.394074)">
            <ellipse id="path964" cx="126.441" cy="5.463" rx="5.387" ry="5.094" style="fill:rgb(72,188,236);"/>
            <path id="path955" d="M126.44,0.486C123.568,0.486 121.225,2.71 121.225,5.463C121.225,8.215 123.568,10.44 126.44,10.44C126.582,10.44 126.722,10.435 126.86,10.424L126.699,9.979C126.331,8.739 126.095,6.77 126.068,5.533C126.062,5.26 126.089,5.057 126.449,5.056C128.126,4.799 129.688,4.904 131.194,5.189C131.194,5.189 131.202,5.371 131.202,5.463C131.202,6.165 131.033,6.83 130.733,7.423C130.727,7.436 130.719,7.448 130.713,7.461L127.458,5.372C127.265,5.249 127.209,5.429 127.248,5.582C127.605,6.961 128.011,8.311 128.498,9.544L128.65,9.972C130.423,9.178 131.656,7.459 131.656,5.463C131.656,5.236 131.64,5.012 131.609,4.794L131.139,4.727C129.491,4.403 127.832,4.435 126.17,4.61C125.828,4.642 125.58,4.78 125.552,5.168C125.64,6.783 125.687,8.408 126.007,9.967C123.574,9.76 121.68,7.819 121.68,5.463C121.68,2.968 123.802,0.94 126.44,0.94C127.923,0.94 129.243,1.581 130.115,2.585C128.526,2.617 126.946,2.67 125.332,2.859C125.026,2.895 124.94,3.017 124.975,3.201L125.112,3.915C125.171,4.222 125.048,4.238 124.846,4.165C124.168,3.918 123.408,3.147 122.888,3.436C122.768,3.505 122.776,3.623 122.854,3.664L124.812,4.693C125.289,4.943 125.621,4.774 125.621,4.393L125.621,3.607C125.964,3.211 128.933,3.309 130.593,3.247L131.101,3.227C130.241,1.6 128.473,0.486 126.44,0.486L126.44,0.486ZM128.768,3.624C127.96,3.628 127.192,3.664 126.451,3.715C126.273,3.727 126.167,3.776 126.19,3.873L126.258,4.161C126.293,4.308 126.452,4.3 126.574,4.287C127.826,4.146 129.208,4.044 131.517,4.316C131.467,4.112 131.403,3.913 131.327,3.719C130.425,3.646 129.576,3.619 128.768,3.624L128.768,3.624ZM126.783,5.351C126.643,5.355 126.464,5.47 126.476,5.609C126.6,7.05 126.874,8.506 127.282,9.916L127.406,10.355C127.608,10.319 127.806,10.271 127.999,10.214L127.831,9.79C127.335,8.293 126.998,6.421 126.943,5.485C126.937,5.387 126.867,5.349 126.783,5.351ZM127.848,6.072C127.907,6.069 128.008,6.128 128.102,6.199C128.951,6.835 129.797,7.15 130.647,7.584C130.643,7.591 130.64,7.599 130.635,7.606C130.257,8.273 129.708,8.84 129.043,9.252L129.034,9.258L127.845,6.322C127.772,6.142 127.789,6.076 127.848,6.072L127.848,6.072Z" style="fill:rgb(16,73,158);fill-rule:nonzero;"/>
        </g>
    </g>
</svg>
