<?xml version="1.0" encoding="UTF-8" standalone="no"?>
<!DOCTYPE svg PUBLIC "-//W3C//DTD SVG 1.1//EN" "http://www.w3.org/Graphics/SVG/1.1/DTD/svg11.dtd">
<svg width="100%" height="100%" viewBox="0 0 236 236" version="1.1" xmlns="http://www.w3.org/2000/svg" xmlns:xlink="http://www.w3.org/1999/xlink" xml:space="preserve" xmlns:serif="http://www.serif.com/" style="fill-rule:evenodd;clip-rule:evenodd;stroke-linejoin:round;stroke-miterlimit:2;">
    <g transform="matrix(4.166667,0,0,4.166667,0,0)">
        <g transform="matrix(1,0,0,1,-69.755,0)">
            <path d="M97.962,1.724C83.339,1.724 71.478,13.585 71.478,28.168C71.478,42.792 83.339,54.651 97.962,54.651C112.586,54.651 124.446,42.792 124.446,28.168C124.446,13.585 112.585,1.724 97.962,1.724Z" style="fill:rgb(255,223,27);"/>
            <g>
                <path d="M97.962,0C82.376,0 69.755,12.62 69.755,28.207C69.755,43.796 82.377,56.414 97.962,56.414C113.546,56.414 126.168,43.796 126.168,28.207C126.167,12.62 113.546,0 97.962,0ZM97.962,55.856C82.697,55.856 70.357,43.475 70.357,28.207C70.357,12.943 82.697,0.603 97.962,0.603C113.224,0.603 125.609,12.943 125.609,28.207C125.609,43.475 113.224,55.856 97.962,55.856Z" style="fill:rgb(0,56,118);"/>
                <path d="M97.962,1.724C83.339,1.724 71.478,13.585 71.478,28.168C71.478,42.792 83.339,54.651 97.962,54.651C112.586,54.651 124.446,42.792 124.446,28.168C124.446,13.585 112.585,1.724 97.962,1.724ZM122.681,22.558L109.339,22.558L109.5,21.516L122.442,21.516C122.522,21.878 122.601,22.198 122.681,22.558ZM115.551,46.438C111.021,50.806 104.812,53.529 98.001,53.529C83.979,53.529 72.64,42.191 72.64,28.207C72.64,14.224 83.979,2.884 98.001,2.884C104.813,2.884 111.021,5.571 115.551,9.978C118.314,12.582 120.439,15.828 121.798,19.474L86.422,19.474L86.422,24.6C89.108,25.202 91.752,26.045 94.276,27.167C89.629,25.885 84.74,25.363 79.212,25.363L79.011,25.363L79.011,31.937L80.532,30.409C94.196,30.73 106.535,36.421 115.551,45.437C115.751,45.598 115.907,45.758 116.072,45.918C115.908,46.118 115.751,46.279 115.551,46.438ZM116.433,45.555L116.433,40.508C116.433,40.428 116.47,40.428 116.47,40.428C116.433,40.428 116.433,40.388 116.433,40.388L116.433,40.349C116.152,39.905 115.872,39.466 115.551,39.023C111.463,33.135 106.094,28.166 99.805,24.599L123.083,24.599C123.243,25.8 123.321,26.964 123.321,28.205C123.322,34.901 120.719,40.989 116.433,45.555Z" style="fill:rgb(0,56,118);"/>
            </g>
        </g>
    </g>
</svg>
