<svg role="img" viewBox="0 0 24 24" xmlns="http://www.w3.org/2000/svg" fill="#1414d2"><title>United Airlines</title><rect width="24" height="24" fill="white"/><path d="M5.327 3.067c8.654 0 15.695 7.067 15.695 15.755A15.83 15.83 0 0 1 20.148 24H24V0H0v4.003l.018-.006a15.55 15.55 0 0 1 5.308-.93M0 10.534c.976-1.389 1.117-2.983.26-3.761a1.5 1.5 0 0 0-.26-.19Zm5.027-5.058c-.863-.99-2.3-1.33-3.968-1.09-.046.006-.093.012-.135.02q-.192.033-.387.076C.28 4.542.103 4.6 0 4.64v.5q.246-.195.505-.369a6.7 6.7 0 0 1 .967-.137A12.5 12.5 0 0 0 0 5.628v.384l.015.009s1.224-.969 2.195-1.386q.353.026.672.099A14.635 14.635 0 0 0 .284 6.168c.149.088.285.199.303.213.019-.011 1.427-.892 2.976-1.42.21.096.413.216.59.351-1.688.474-3.31 1.321-3.31 1.321q.138.16.242.344l.028-.011c1.728-.739 3.563-1.118 3.563-1.118q.215.295.351.658s-1.647.189-3.765.868c.093.293.119.513.12.515 0 0 1.996-.448 3.838-.497a4.7 4.7 0 0 1-.026.969c-1.09-.058-3.689.081-3.79.088 0 0-.01.375-.108.727 0 0 1.899.061 3.626.383a8.5 8.5 0 0 1-.506 1.22c-1.151-.346-2.898-.766-3.357-.871a5.65 5.65 0 0 1-.453.88s2.134.93 2.953 1.386h.002v.001c-.356.532-1.061 1.277-1.061 1.277q-.307-.229-.58-.429L0 11.681v1.765l1.107 1.292A13.5 13.5 0 0 1 0 15.542v1.052l.04-.026a16 16 0 0 0 1.492-1.151c3.819-3.323 5.384-7.773 3.495-9.94m4.702.184C7.917 3.221 5.08 3.57 4.234 3.688c-.929.13-1.631.333-1.631.333.207.02.49.057.693.098.151-.035 1.456-.333 2.403-.209h.003c-.697.076-1.647.364-1.747.393l-.002.002.004.001c.034.01.308.093.659.3.102-.028 1.393-.37 2.624-.394 0 0 .455.202.892.502-1.59-.006-2.906.3-2.941.307.186.166.371.365.537.604 1.744-.261 3.248-.148 3.248-.148s.204.249.296.383a5 5 0 0 1 .327.563c-1.779-.208-3.481-.059-3.482-.059.117.303.197.627.24.968.197-.002 1.704.001 3.623.346.061.44.067.912.019 1.409a25.733 25.733 0 0 0-3.621-.649c-.035.43-.117.877-.242 1.336.193.045 2.317.551 3.506 1.034a11.5 11.5 0 0 1-.707 1.76c-.958-.472-3.308-1.39-3.308-1.39a12.5 12.5 0 0 1-.857 1.588s2.015 1.15 2.985 1.786a18.25 18.25 0 0 1-1.512 1.875c-.704-.63-2.464-1.994-2.597-2.097a25.34 25.34 0 0 1-1.496 1.597l2.112 2.421-.06.053a19.5 19.5 0 0 1-1.366 1.021c-.361.246-.66.436-.762.502a284.36 284.36 0 0 1-1.615-2.596q-.229.168-.459.326v4.538c.249-.12.497-.243.746-.375a18.852 18.852 0 0 0 3.421-2.19 21.5 21.5 0 0 0 2.126-1.93 19 19 0 0 0 2.199-2.704c2.33-3.438 2.953-7.023 1.237-9.332m3.701.828a3.5 3.5 0 0 0-.4-.468 4.5 4.5 0 0 0-.4-.344c-1.503-1.133-4.268-1.7-4.268-1.7.264.141.483.286.485.287.013.002 1.129.282 2.118.766 0 0-.9-.205-1.478-.284.239.21.465.45.664.702 0 0 1.835.335 2.641.777 0 0 .386.397.701 1.093-1.258-.51-2.682-.776-2.682-.776.189.423.325.876.407 1.348 0 0 1.566.384 2.743.949.102.558.139 1.136.117 1.721a21.5 21.5 0 0 0-2.769-1.135 9.3 9.3 0 0 1-.287 1.865s1.897.847 2.75 1.361a13.35 13.35 0 0 1-.77 2.202c-1.299-.844-2.674-1.594-2.674-1.594-.344.829-1.194 2.187-1.194 2.187h.001c.021.015 1.435.985 2.519 1.847a21 21 0 0 1-1.807 2.345c-.228-.218-2.312-2.068-2.312-2.068a22.5 22.5 0 0 1-2.096 2.12l2.01 2.274c-1.304 1.073-2.602 1.887-2.602 1.887L3.17 21.47s-1.179.897-3.17 1.84V24h6.537c7.298-5.521 9.887-13.415 6.894-17.511M12.966 24c1.704-1.905 3.155-4.147 4.027-6.546.757-2.083 1.169-4.626.499-6.888-.045-.149-.095-.3-.154-.45a5.43 5.43 0 0 0-.794-1.415 15.2 15.2 0 0 0-2.749-2.413c.149.192.285.389.403.589 0 0 1.23.913 1.945 1.841-.916-.653-1.436-.917-1.503-.951l-.008-.004c.348.859.453 1.57.454 1.57 0 0 1.087.568 2.066 1.416a8.5 8.5 0 0 1 .183 1.913 16.252 16.252 0 0 0-2.13-1.547 11.7 11.7 0 0 1-.283 2.204s1.078.683 2.129 1.64c0 0-.302 1.358-.789 2.425a26.5 26.5 0 0 0-2.069-1.727s-.5 1.305-1.312 2.615c1.01.879 1.959 1.79 1.959 1.79a21.5 21.5 0 0 1-1.943 2.57l-1.807-1.797a24 24 0 0 1-2.392 2.55l.553.615Zm3.213 0h.902c2.567-3.792 2.696-7.153 2.696-7.797 0-1.216-.204-2.334-.545-3.219 0 0-.533-1.375-1.363-2.599.09.274.265.828.36 1.323l.017.089c.164.273.9 1.572.999 3.001v.004s-.52-.729-.907-1.19a12 12 0 0 1-.28 2.33s.771.894 1.117 1.47c0 0-.235 1.258-.739 2.462-.512-.745-1.166-1.468-1.166-1.468a19.25 19.25 0 0 1-1.405 2.778s.978 1.144 1.193 1.47A20 20 0 0 1 16.18 24Zm1.714 0c.477-.891 1.005-2 1.358-2.942v.002c.012.03.188.496.319.98a17.8 17.8 0 0 0 .575-2.996c-.034-.134-.106-.351-.147-.483 0 0 .175-.875.244-1.873a15.343 15.343 0 0 1-.281 5.658A17.5 17.5 0 0 1 19.455 24h-1.56z"/></svg>