<?xml version="1.0" encoding="UTF-8" standalone="no"?>
<svg xmlns:rdf="http://www.w3.org/1999/02/22-rdf-syntax-ns#" xmlns="http://www.w3.org/2000/svg" xml:space="preserve" height="61.979" viewBox="0 0 52.242191 61.978519" width="52.242" version="1.1" xmlns:cc="http://creativecommons.org/ns#" xmlns:dc="http://purl.org/dc/elements/1.1/"><g transform="matrix(1.25 0 0 -1.25 -47.372 728.76)"><g transform="translate(.36060 .36060)"><path d="m38.962 567.66 0.17739-20.134 4.5235-5.5879 13.571-7.1844 16.675 8.1601 3.4592 8.2488-0.35478 26.698-12.595 0.35478-13.127-2.1287-11.974-6.9183z" fill-rule="evenodd" fill="#301506"/><path d="m25.619 0c-9.881 0-18.5 1.913-25.619 5.6855v30.16c0 6.3462 2.3845 11.653 6.8945 15.35 4.1875 3.435 17.138 9.0957 18.725 9.7832 1.505-0.655 14.609-6.4032 18.73-9.7832 4.5075-3.695 6.8926-9.0034 6.8926-15.35v-30.16c-7.12-3.773-15.739-5.686-25.624-5.686zm14.631 5.8398c2.9466 0.038525 5.8399 0.22055 8.6367 0.48047v29.525c0 5.6738-2.0588 10.257-6.0312 13.529-3.5488 2.9225-14.25 7.717-17.236 9.0332-3.026-1.334-13.754-6.189-17.239-9.032-3.9489-3.216-6.0275-7.908-6.0275-13.529v-17.252c11.348-10.407 25.128-12.921 37.896-12.754zm-13.963 13.748c-2.4312 0-4.3928 0.54344-6.0078 1.5859v29.049h4.459v-9.3848c0.445 0.13125 1.0909 0.25391 2.0059 0.25391 4.9462 0 7.7891-4.4588 7.7891-10.969 0-6.4975-2.9273-10.535-8.2461-10.535zm15.236 0c-2.9325 0.085-5.9992 2.2093-5.9805 5.8105 0.0075 2.3712 0.66484 4.1445 4.3398 6.3008 1.9612 1.1512 2.7514 1.9098 2.7852 3.3086 0.0375 1.555-1.0369 2.4926-2.6719 2.4863-1.4225-0.01125-3.123-0.8007-4.2617-1.8145v4.1035c1.3962 0.8325 3.1384 1.3828 4.8984 1.3828 4.405 0 6.372-3.1116 6.457-5.9629 0.08375-2.5988-0.63438-4.5652-4.3594-6.7539-1.6625-0.975-2.9754-1.6158-2.9316-3.2383 0.04375-1.5838 1.3586-2.1402 2.6211-2.1289 1.5575 0.01375 3.0641 0.87633 3.9941 1.8301v-3.875c-0.78375-0.60375-2.4431-1.5242-4.8906-1.4492zm-36.893 0.45117v14.012c0 4.7238 2.2345 7.1152 6.6445 7.1152 2.7288 0 5.0143-0.63156 6.7168-1.7891v-19.338h-4.4492v16.801c-0.485 0.3325-1.2044 0.54492-2.1094 0.54492-2.0425 0-2.3477-1.873-2.3477-3.1367v-14.209h-4.4551zm21.687 3.1387c2.5862 0 3.6582 2.0648 3.6582 7.0586 0.000001 4.8725-1.226 7.2266-3.791 7.2266-0.60375 0-1.1285-0.14953-1.4473-0.26953v-13.693c0.36125-0.18 0.97508-0.32227 1.5801-0.32227z" transform="matrix(.8 0 0 -.8 37.897 582.21)" fill="#fab80a"/></g></g></svg>
