<?xml version="1.0" encoding="UTF-8" standalone="no"?><!DOCTYPE svg PUBLIC "-//W3C//DTD SVG 1.1//EN" "http://www.w3.org/Graphics/SVG/1.1/DTD/svg11.dtd"><svg width="100%" height="100%" viewBox="0 0 53 53" version="1.1" xmlns="http://www.w3.org/2000/svg" xmlns:xlink="http://www.w3.org/1999/xlink" xml:space="preserve" xmlns:serif="http://www.serif.com/" style="fill-rule:evenodd;clip-rule:evenodd;stroke-linejoin:round;stroke-miterlimit:2;"><g><path d="M26.118,0c14.422,0 26.117,11.697 26.117,26.121c0,14.425 -11.696,26.122 -26.117,26.122c-14.422,0 -26.118,-11.697 -26.118,-26.122c-0,-14.424 11.696,-26.121 26.118,-26.121Z" style="fill:#f8da55;"/><path d="M26.117,0c14.422,0 26.118,11.697 26.118,26.122c0,14.424 -11.696,26.122 -26.118,26.122c-14.422,0 -26.117,-11.697 -26.117,-26.122c-0,-14.424 11.695,-26.122 26.117,-26.122Zm0,2.137c13.242,0 23.981,10.741 23.981,23.985c0,13.245 -10.739,23.985 -23.981,23.985c-13.242,0 -23.981,-10.741 -23.981,-23.985c-0,-13.244 10.739,-23.985 23.981,-23.985Z" style="fill:#e03538;"/><path d="M22.144,24.918c-0.017,0.012 -0.021,0.02 -0.059,0.02c-0.039,0 -0.1,-0.059 -0.1,-0.1c0,-0.041 0.01,-0.049 0.026,-0.067l5.205,-9.172c0.595,-1.049 1.542,-1.47 2.732,-1.473l9.124,-0.053l0.642,0.001l0.007,-0l0.03,0c1.149,0.001 2.039,-0.303 2.904,-1.096l0.001,0.001c0.012,-0.01 0.027,-0.017 0.043,-0.017c0.036,0 0.065,0.029 0.065,0.065c0,0.012 -0.003,0.022 -0.008,0.031l-0.007,0.009l-0.001,0.001l-5.304,6.883c-0.387,0.502 -1.462,1.01 -2.415,1.01l-7.261,0c-0.829,0 -1.615,0.246 -2.226,0.812l-3.397,3.145l-0.001,-0.001Z" style="fill:#0c9050;"/><path d="M42.499,32.568c-0.865,0.792 -1.754,1.096 -2.904,1.095c-4.922,-0.004 -10.07,-0.009 -14.975,-0.013l-0.014,0c-0.504,0 -0.913,-0.409 -0.913,-0.913c0,-0.494 0.392,-0.896 0.882,-0.912l0.008,-0l0.051,0c2.41,-0.008 6.239,0 8.934,0c0.797,-0.042 1.478,-0.254 1.974,-0.95l6.963,-9.036l-0,-0l0.032,-0.042l0,-0l0.008,-0.01c0.005,-0.009 0.007,-0.019 0.007,-0.031c0,-0.036 -0.029,-0.065 -0.065,-0.065c-0.016,0 -0.031,0.007 -0.043,0.017l-0,-0.001c-0.865,0.792 -1.754,1.096 -2.904,1.096l-0.021,0l-0.164,-0l-0.046,0l-11.297,0c-1.039,0 -2.051,0.344 -2.731,1.26c-0.226,0.287 -0.458,0.563 -0.627,0.862l-3.942,6.961l-0.001,0.002c-0.662,1.166 -1.915,1.952 -3.352,1.952c-2.128,0 -3.853,-1.725 -3.853,-3.853c0,-2.128 1.725,-3.853 3.853,-3.853c0.21,0 0.416,0.017 0.617,0.05c0.057,-0.016 0.098,-0.068 0.098,-0.13c0,-0.028 -0.008,-0.055 -0.023,-0.077l-2.199,-2.856c-0.528,-0.686 -1.338,-1.015 -2.175,-0.694l-0.001,-0.002l-0.024,0.012c-0.139,0.056 -0.275,0.13 -0.407,0.224c-2.535,1.484 -4.29,4.133 -4.29,7.283c0,4.725 3.674,8.451 8.398,8.451l0.09,-0.001c0.076,0.008 0.15,0.017 0.227,0.024l20.313,0c0.125,0 0.237,-0.061 0.306,-0.155l0.003,-0.001l4.301,-5.603l0.002,-0.001c0.008,-0.01 0.013,-0.024 0.013,-0.039c0,-0.036 -0.029,-0.065 -0.065,-0.065c-0.017,0 -0.031,0.007 -0.043,0.017l-0.001,-0Z" style="fill:#0c9050;"/></g></svg>