<svg role="img" viewBox="0 0 24 24" xmlns="http://www.w3.org/2000/svg" fill="#e31e23"><title>Virgin Australia</title><path d="M.5371 2.961c-.394 0-.654.411-.4844.7656l7.8614 16.4336.002.0019c.3175.6188.7303.877 1.3163.877h8.0762c.4972 0 .7112-.2918 1.0293-.6973l4.9902-7.1368c.8638-1.1673.8438-1.1043.2266-1.625l-9.379-7.955c-.62-.5215-1.1125-.664-1.9335-.664ZM10.961 5.6562c.239-.0097.4891.1322.5372.3808.0287.0645.0138.1604.0253.211-.0127.0558-.0259.1157-.0468.168-.0243.0164-.0277.0548-.0528.0741 0 .0017-.0019.0043-.0019.0059-.0053.0078-.008.0218-.0175.0234-.0021.0218-.0322.029-.0137.0508-.046-.0156-.032.0435-.039.0723-.0116-.0041.0018.0257-.0137.0117-.0107.0115-.0047.034-.0196.041 0 .0008-.0039.004-.0039.004-.0016.0016 0 .003 0 .0038-.004.0033-.011.0007-.0078-.0039-.0025-.0004-.0092-.0039-.0117-.0039-.0193.0062-.029.014-.0254.0313-.0262.0217-.0083-.0123-.0215-.0098-.0016.0107-.0005.0182-.0136.0215.0078.0201-.0023.06-.0274.0547-.0095-.0017.0168-.0425-.0137-.0215-.0025.028-.0174.0572-.0507.0527-.0016.0103-.0098.0192-.0176.0254 0 .0008-.0014.0023-.004.004-.009.0262-.058.048-.0624.08-.0867.0871-.1627.2084-.2305.3066.0012.0017.0014.0031.004.004-.0104.0061-.0305.017-.0157.0273-.0132.007-.0215.0164-.0215.0312-.0185-.0086-.012.0316-.0137.041-.0653.0412-.0817.1357-.1191.1973-.0016.0008 0 .0065 0 .0098-.0337.0596-.056.1197-.084.1797.0021.0012.0004.003.002.0039-.0453.06-.0575.1495-.0977.207v.0117c-.019.028-.016.0531-.041.086-.0038.0057-.0065.009-.004.0176-.0078.004.0018.02-.0098.0175-.021.0678-.0644.1406-.0879.213-.0037.0238.0036.0624-.0059.0937-.0062.0053-.0067.0153-.0136.0215-.0218.0217-.0198.062-.0469.08.0136.0374-.0373.0761-.0488.1094-.0095.0427-.0424.0829-.0469.129.0016.0011.0016.0022 0 .0038-.0185.0152-.0106.046-.0254.0625.0058.0637-.0273.0452-.0195.0801-.0078.0053-.0031.0212-.0117.0273-.0432.046-.0598.1253-.0684.1915-.0131.0226-.0192.0407-.0332.0625.0148.0172-.0195.0557-.0195.082-.0448.085-.06.1777-.0782.25.0132.0246-.034.063-.0156.0996-.0164.0575-.0929.1423-.039.1953-.0506.0888-.0974.1872-.1114.2969-.0513.1245-.0943.2292-.0976.3574-.025.081.0066.1501-.0332.2266-.0222.071-.098.0992-.0996.1855 0 .0004-.002.0014-.002.004-.0193.094-.0745.1642-.0918.2616-.0156.003-.0173.0237-.0136.0352-.0473.0468-.0523.14-.0704.207a.4556.4556 0 0 0-.0312.1192c-.0016.0025-.004.0023-.004.0039-.0102.0497-.0287.0892-.0312.1406-.007.0033-.0025.0045.002.0078-.0181.0062-.0044.0145-.002.0215-.0485.106-.0614.2588-.0918.373-.0102.0748-.049.151-.0351.2188-.0374.0628.0235.035-.0254.1074.032.0016.0073.0611-.0137.0664-.0226-.0078-.0215.0184-.0215.0332-.0497.101.0372.2164-.0351.3027l.002.002c-.0025.0028-.006.0013-.006.0058-.0004.0017.0015.0053-.0039.0078-.004 0-.0097-.0033-.0097.002.0078.0032.0025.0042-.002.0058 0 .0004.0017.0031 0 .004 0 .0011-.0014.0022-.0039.0038-.0008.0206-.0154.0531.004.0625.0003.0703-.058.1347-.047.1993-.0086.027.006.0451-.0097.08-.0148.0272.0226.0709-.0078.0996-.0062-.0007-.0112.0045-.0137.0098-.0353.0157-.0028.055-.0098.0801-.0226.0115.0129.0192.0059.0254-.0271-.014-.0316.14-.0488.1758.0102.0156-.0064.0337-.0118.0469.0009.0062-.001.0162-.0019.0215-.0025.0033-.0014.0073-.0039.0098-.005.0398-.0355.1669.0273.1406.0017.0131.0079.0209.0079.0332-.0148.0176.0002.0315.0039.0488-.014.028-.0003.0842-.0274.0957-.0025.002.0005.0023-.002.004 0 .0007-.0038.0003-.0038.0018-.0033.0358.001.0829-.0371.0977 0 .0004.0016.0023 0 .0039 0 0-.004-.0008-.004 0-.0045.011-.01.0207-.0136.0293l-.002.0019c0 .0193-.0195.0228-.0195.0507.0078.0904-.0273.2014-.0273.293.0078.0403.0665.0388.0332.0918 0 .0025-.002.0062-.002.0078-.002.0016-.0092.0064-.0117.004.0029-.007-.0287.0072-.0176-.006-.0037-.0037-.0134.0062-.0097.0078 0 .002-.002.0034-.002.006.0025.0061-.0154.012-.0039.0136.007.0308-.0008.07-.0156.0918-.0288.0624-.0394.1462-.041.2148-.021.127-.0466.2985-.0528.4317-.0016.0007-.0042.0003-.0058.0019-.007.034-.0014.0695-.0137.1015.0037.0452-.0168.1152-.0176.1641a2.9202 2.9202 0 0 0-.0273.2207.2307.2307 0 0 1-.004.0469c-.0106.0398-.0105.099-.0175.1426-.0078.0636-.0279.1383-.0254.2011-.028.1702-.0714.3909-.08.5528-.0342.081-.037.186-.0821.2695-.0062.007-.007.0192-.0156.0254 0 .0017-.0023.0043-.004.0059-.0053.0037-.0072.0162-.0097.0215-.0263.0374-.0974.0659-.1113.084v.0018c-.0863.0238-.192.047-.2774-.0019-.0053-.007-.01-.0105-.0137-.0175-.018-.0053-.0362-.0171-.0449-.0352 0-.0025-.0042-.001-.0058-.0019-.007-.0148-.0176-.0346-.0332-.045-.0457-.1051-.0605-.2278-.086-.3359-.002-.0382-.0212-.0643-.0195-.1054h-.002c-.0127-.0185-.0092-.0318-.0117-.0528-.0053-.0164-.01-.0602-.0117-.0742-.0366-.1635-.049-.2993-.0762-.455 0 .0007-.0042-.0043-.0058-.006.0078-.0591-.045-.0936-.0215-.1425.0086-.0456-.0385-.1195-.0254-.1367.0029-.014-.0003-.029-.002-.043-.0225-.0469.0032-.1714-.0683-.1582-.0016.004-.0044.0078-.0098.0078.0017-.0202.026-.02.0371-.0488.0095-.028-.0088-.0687-.043-.0782-.0139-.0382.0311-.0936.0118-.127.0008-.0328-.0098-.0739-.0176-.1034 0-.007.0016-.0145 0-.0215-.0201-.0358-.0112-.0955-.0215-.1407-.0185-.0924-.044-.2097-.0449-.3046v-.006h-.0078c-.0255-.2083-.0605-.4116-.0937-.6425-.0305-.1899-.0527-.4054-.0938-.5977.0008-.0575-.01-.1337-.0293-.1875-.0156.0086-.008-.0277-.0195-.0293 0-.0062.0095-.0067.0058-.0137-.0037-.0908-.0072-.2105-.0351-.3125-.0095-.1167-.039-.2491-.0547-.3691-.0033.0017-.01.018-.0137.0117.0317-.0596-.0069-.101-.041-.1367-.0201-.0226.0026-.0427-.002-.0644-.0349-.007.0028-.0505-.0136-.0567-.007-.011-.0013-.0131.0098-.0156.0106-.0132.0058-.0192-.0098-.0254-.0054-.0062.015-.0267.002-.0469.02-.0057.0262-.0267 0-.0312-.0235-.0062-.0207.0413-.0372.0117-.0135-.0078.0072-.0561.0117-.0664-.0205.0049-.027-.0168-.041-.0332-.0296-.0012-.0507-.0319-.0761-.004-.0017.0034.0025.0066-.002.0099.0037.0189-.011.0277-.0078.045-.002.0011-.004.0022-.004.0038.001.007-.002.0106-.0058.0176-.004-.0008-.0073.0034-.0097.0059 0 .0016-.002.0043-.002.0059-.0012.0012-.0055.0006-.0039.0039.0054.0012.0037.0065 0 .0098.0054.0037.0037.008 0 .0117.0008.0053-.0081.005-.0098.006-.0032.0061.0054.0157-.0078.0194-.0008.023-.019-.0045-.0293-.0019 0 .0045-.0037.012 0 .0157-.002.0012-.0019.0006-.0019.0039.002.0086-.0081.0164-.002.0234.0017-.0017.0004-.0053.002-.0078.007.0017.0156.0025.0078.0078-.0025.0033.0285.0131.0059.0156-.0095-.0205-.0277-.0042-.0371.002-.007-.0088-.0251-.0143-.0157.0058.002.0107.0072.0322.0117.0137-.007.0834-.0011.0368-.0175.0508-.0009.0156.0253.0231.002.0371-.028-.0016-.0087.0199-.0235.0215-.0095-.0008-.0028.0103-.0098.0156-.007.007.0112.0033.0137.0078.0024.0132-.014.0145-.0235.0215-.0016.0033.0015.0078-.0039.0078.0017.025-.032.0474-.0078.0684-.0012.0201-.0405.0278-.0273.0566-.0202-.0033-.0252.0357-.0059.041-.032.0234-.0067.1121-.037.0723-.0432.032.0231.0198.0038.0293-.0152.0164-.024.0273-.0117.0508.0094.0156-.0319.0278-.0195.041.0024.0045-.0041.0062-.0078.0078-.0017.0016-.0033.0103-.0079.0136-.0078.0086.0062.0131 0 .0176-.0012 0-.0072.0045-.0019.0098.002.0124-.0098-.0006-.0176.0352-.0419.0304.0506.0363-.0078.0449-.0452.0325-.0387.0965-.0605.1367-.0444.0378-.048.1192-.0801.166 0 .0383-.0544.084-.0293.125-.0592.0103-.1258.1234-.2129.1172-.417.079-.364-.3754-.2402-.627.027-.0521.0472-.1126.0644-.1718-.004.0008-.006-.0019-.0097-.0019.0489-.1089.0967-.2408.1308-.3398-.0177-.0243-.0013-.0302.0098-.045.0456-.134.1348-.3324.166-.4902.1286-.3485.2237-.7021.3457-1.0547.0623-.1545.096-.4073.293-.4805.3026-.133.5195.1774.5195.457.0296.109.0354.247.0625.3497.0312.161.0315.34.0898.4785-.0398.0074.026.0407-.0097.0547-.0025.0296.0332-.007.0332.0156-.0333.002-.0067.0416.002.0547-.0268.0407-.0119.0503.0214.0684-.021.0238.002.045.002.0918.0217.0226-.0394.0292-.002.0625-.0078.0025-.0115.0003-.0078.0098.0086-.0037-.0036.0156.0059.0234.0234.1278.037.2217.0605.3672.0399.012-.0164.1245.0313.1426.053.0119-.0275.05.037.0976.0584.1644.0243.2029.0801.2793.0054.0165-.0123.0215-.0234.0215-.0094.0136.025.051.0078.0703.053.0958.0279.2168.0723.3125.0008.0333.0634.106.0293.1582-.0202.0037-.0475.2208-.0117.1875.0102.0016.0234-.0153.0312-.0059-.0177.0053-.0457.076-.0137.0664v.002c.0535.1047.0463.0794.0352.2187-.0164.0801.0458.1847.0117.2656.0822.01.0168.1337.0488.1875.0206-.0095.0181-.0078.0313.0078-.007.0378.0151.0203.0254-.0039a.068.068 0 0 1 .0039-.0273c.0041 0 .006-.004.0098-.004.0965-.7236.2052-1.4607.3593-2.1757.1743-.948.4603-1.91.711-2.8223.3603-1.0523.7225-2.1749 1.1914-3.1894.0189-.0802.0949-.1412.1347-.2012.0041 0 .0062-.0011.0078-.002.0041-.009.014-.0158.0235-.0195.0884-.1252.2277-.1856.371-.1914zm5.0801 2.4824c.1025-.003.1907.0352.2051.1484.0148.168-.162.3384-.291.455-.1253.0872-.3837.0882-.3985-.1132v-.002c-.0312-.0427.009-.1063.0176-.1523.014-.039.0438-.1013.082-.1386 0-.0009.004-.005.004-.006.0016-.0024-.0016-.005 0-.0058.032-.0226.0607-.0594.0957-.082.0665-.056.1826-.1005.2851-.1035zm2.1485.2129a.4488.4488 0 0 1 .2324.043c.025.0139.0403.0465.0625.0605.0287-.0444.0053.0078.0176.0234.0217.0193.0244.0408.0273.0684.0444-.0193-.0307.0198.0606.1094-.0037.0086-.0215.0019-.0293.0019-.0251.0559.0446.0946.043.1016-.0112.0193-.0216.0572.0038.0683.0271.0045-.0225.0218-.0332.0156-.0193.0243-.0234.0796-.0078.1055-.0185.0801-.0025.0365.0332.0176.0016.0234-.0218.054-.0078.082.0115 0 .0047.0221.0196.0098.0053.0382-.0561-.0235-.0274.0332.014.0218-.0097.0147-.0117.0254.0078.007.032.005.0078.0137.0062.0263-.001.0644.0254.0878-.0045.0033-.004.0108-.006.0137a.4054.4054 0 0 1-.041-.002c-.0328.081.073.0524-.0038.0997-.0173.0255.062.0586.0175.0508-.0443-.0103-.0368.2915-.0098.3203.0218.0156.0107.041-.0156.0332-.0078.0103.0143.0086.002.0234-.0112.0288.044.041-.002.0489.0033.011.0078.0126 0 .0253-.0156.0399.0513.026.0332.0547-.0435.0111.0226.0554 0 .082-.0164-.0645-.012.0659-.0137.086-.0427-.018-.0075.0183-.0214.043.0123.028.0252-.048.0293-.002.0193.0297-.0397.0123-.0196.0333.0411.0045-.0596.0236.0254.0507-.0095.0547-.0385-.0491-.0254.0918-.0193.021.0174.0081.0293.0176.0025.0045-.0263.0318-.0078.0293-.018.0411.0488.0145.0352.0528-.0016.0263-.0527.0217-.0215.041-.0016.0025-.0073.0028-.0098.0019.0016.0102.0184.0256.0254.0059.0095-.0033.0042.0113.0137.0117.0016.007 0 .0142 0 .0195-.0218.0341.0309.0124.0136.039-.0147.028.0237.0057.0352.0196.0062.0123.0114.0444.041.0469v.0059c.0662.025.1544-.0167.209-.043.0497-.0123.088-.0441.1348-.0605 0 0 .0003-.004.0019-.004.0045-.0032.0242-.002.0234-.0097.028-.0148.0645-.0297.1035-.0547.0016.0025.0053.0048.0078.0019-.0037-.0078.016-.0078.0176-.0157.0567-.0254.1238-.065.1797-.0996 0 .0009.0018.0022.0039.004.048-.0272.1024-.06.164-.0801.1254-.0617.2698-.0246.4005-.0098-.0053-.0045-.0118-.007-.0098-.0157.0078.0008.0118.0103.0175 0 .014.0078.0097.0358.0352.0313 0-.0062-.0078-.006-.0078-.0117.0583.0226.0753.0923.1172.1367-.0037.0296.0343.0451.0117.0644.018.0165.0265.0134.0195.0352l.006-.002c-.0186.0017-.0058.0138-.0099.0216-.0218.0102-.0227.0307.002.0175-.0026.0157-.0017.0252.0156.0293 0 .0037-.0116.0126-.0157.0118-.0234-.007-.028.0427-.0312.0625-.0037.0156-.0303-.0218-.0254.0234-.0011.0061-.0053.0125-.0117.0117-.0008.0185-.0058.0305.0019.0469-.0469-.0173-.064.1156-.1309.1328.0103.0201-.0353.0177-.0332.039-.2872.2211-.6734.2524-.998.4024-.0855.0288-.2011.0697-.2657.1133-.094.032-.2023.0848-.2968.1309 0 .0008.0016.0039 0 .0059-.1114.0435-.226.109-.3262.164v-.0019c-.042.0243-.0823.0485-.125.0625-.0123.0243-.0656.0304-.082.0488-.0235.0111-.0503.0174-.0684.0372-.1278.048-.2424.1442-.3652.1816-.0296.039-.0882.0443-.123.08-.0182.0054-.0408.0023-.047.0216-.0698.034-.1413.0728-.205.1171-.0333.014-.069.0387-.1055.0547-.4738.2708-.963.5454-1.4277.8457-.0062-.0037-.0243.0151-.0313.0176-.0156.0234-.0502.0358-.0781.0547-.0366.0304-.0973.0485-.129.086.0264.021-.0389.0093-.0487.0253-.0477.0444-.149.094-.209.1368-.0103.0078-.0215.0123-.0293.0234-.0358.0115-.094.068-.1211.082-.0156.0033-.0274.0251-.043.0313v-.002c-.007 0-.0086.0079-.0156.0099 0 .0008-.002.0039-.002.0039-.0077.0033-.015.005-.0195.0136-.0008.0181-.0343.0115-.0273.0254-.018 0-.0346.0183-.045.0274.0063.0497-.0709.051-.0898.084-.0078.0025-.0064-.0012-.0117-.006-.0037.0054-.0056.0112-.0098.0157h.004c-.0026.021-.0453.024-.0313.0449.0148.0173.0023.0481-.0117.0703 0 .0132.0105.0068.0195.0117.0062.0124-.0063.0277-.0195.0215-.0037.0008-.002.0045-.002.0078.0185 0 .0067.0938.002.1094.0131.032.0513-.0034-.0157.0723v.0175c-.0131.021.0316.0009.0254.0157-.0156.0287-.0087.0685-.0312.0878.0452.0202.0352.0729.0098.1172.0148.0173-.0078.0178-.0078.0762.0037.0037.0118.0043.0176.0059 0 0 .0018.0011.0039.0019h.0019c.0025.0115-.0097.0636-.0196.0254-.0357-.0062-.0029.0544.0078.0683.0255.0263-.029.0618-.0117.0918.0226.0053.0134.0159.0098.0352.0164.0132-.0003.0365-.0098.0488-.0045.0053-.0059.0184.0039.0176.011.0156-.023.0296.0019.0469.0016.0025-.0019.0053-.0019.0078-.0086.0234-.0207.1378.0039.1465.0033.018-.01.0273-.0117.043-.0201.0184.0072.005.0117.0117.0185.02-.0008.0175 0 .043.041.0114-.0172.0111-.0176.0214.0111.0033.0051.0168-.0039.0176-.0025.007.0013.0205-.0098.0176.0124.021.0399-.031.0235.0273.0037 0 .0023-.0016.0039 0 0 .0148.007.029 0 .043a.0072.0072 0 0 1-.002.0039c.0009.0053.009-.0008.0099.0078.0193.0045-.0231-.0068-.006.043-.0114.0123-.0104.0399-.0038.0546h.0019c.0025.0016-.0004.004-.002.006 0 .0015-.0018.0022-.0018.0038-.0263.0185.004.0024.0019.0235.0053 0 .0039.0037.0039.0078-.0165.0156-.0043.058-.006.084.0034.0102.0044.0343-.0117.0351.0053.0115.026.0591-.0019.0723.0016.0148.0007.0179-.0117.0195-.0033.0124.0072.0056.0117.002a.013.013 0 0 1 0 .0253c-.0053.0185.0075.0265.0215.0352a.0609.0609 0 0 1-.0039.0254c-.0025.0053-.0018.0153-.0039.0214-.0053.0148-.0073.024-.0176.0372.0016.0086.019-.0025.0137.0078-.0062.0037-.0043.007.004.0078.013.0078-.0407.09-.002.0449.0296-.0296-.0396.0725.004.0351.0032.0115-.0252.0157-.0079.0235.0304.0102-.0224.0196.0117.041.0411.007-.0326.0109-.037.0273.0015.0165-.0059.0272-.0137.039.0102.007.0019.0185.0098.0255.0349-.0025-.0097.0161-.004.0215-.0094.0095.0003.0136.004.0215.0045-.0251.0312 0 .0078.0078.0242-.0157.0416-.0056.037.0293 0 .007-.0047.015-.0097.0039-.0202-.0124-.0542.0053-.0254.0234.0826.0707-.0445.01.0254.0684.007.0427.0059.0594-.0508.0507.0008.0124.0732.0009.0312.0157-.0095 0-.0087.015 0 .0117.0288.0366-.0546.05-.0156.0898.0296 0-.0199.0645.0352.0254-.0103.0173.0016.032-.0157.039.0235.0194.0008.0375.0313.0079-.0148.0263-.0302.0765.0039.0293-.0078.034-.0527.025-.0606.0644-.0193.0111.0188.019.002.045.013.0077.03.0034.0214.0273-.0033.014.0326.0092.0215.0293-.0505.0016-.0561-.016-.043.086.0272.007.0274-.009.0274-.0255.0242-.0037-.0006.0396.0098.0528.0045.0053.0204-.0005.0254.0098-.0366.025-.0689.0076-.0274.0605.0173.0304-.0493.061.002.0742 0 .0078-.004.0145-.004.0215.0078.0037.0134.0053.0196 0 .0131.0086-.0064.0198.0059.0215.0102-.0115.0365-.0145.0234.0098-.0025.0025-.0036.006-.0078.0078-.0312.0242.0015.0196-.0273.0664.0102 0 .0764-.0013.039.0098-.0201.0037-.0183.0318-.0117.045.0123.0123.032-.0079.0254.0156-.0514.0443.0388.0145-.0098.0605.0037.0016.0195.0002.0195.0039-.014.0173 0 .043-.0078.0586.0062.021-.0212.0154-.0019.0039-.0033-.0427-.0595.0073-.0176.0176.014.0185-.0126.0311-.0098.0488 0 .0016-.0039.0027-.0039.0039-.0164.0193.0022.0126.006.0273.0036.0033.0038.0054.0038.0078.0399.0584.021.0196.0489.004.0185.014-.0208.019.0195.037 0 .0157-.0213.0288-.002.0391-.0007.0148-.0124-.01-.0116.004.0016.0044.0055.004.0039.0097h.0039c.0053.014.0028.0357.0098.0488 0 .0033.0108.0025.0059.0078.011.0111.0033.009-.002.0254.0038.0008.0082-.0003.0099-.0019-.0045.0185.0078.01.0156.0137-.0148.0078 0 .016.0078.0019.0053.0115-.02.0132.0039.0234-.0053.021-.0562.0489-.0254.0645-.011.0095-.0908.0036-.0547.0254.0025.0045.0037.0062.0078.0078.0037-.0218.0215-.0197.0371-.002.0016-.0007.0023-.0021.004-.0038l.0018.0019c-.0086.028-.0653.0026-.0468.0273.011.0053-.0132.0097.0078.0117-.0288.039.0093.0375-.004.0625.0026.0481.0665.0488.0508.002.0255.0061-.0035.0311.0118.0488 0-.0218.0088-.0094.0195 0 0 .0095.0125.008.0195.0195-.018.0296-.0314-.0254-.0508.0137.0235.0016.019-.0053.045.0234.0185.0103.0522.0182.0156.0371.0312-.0304-.035-.019-.0078-.0059-.0062.0165-.016.0014-.0254.006.0037.0032.0081.005.0098.0058 0 .014.0266.0247-.0059.0235 0 .0452-.0332.0035-.041-.004 0 .0054.0049.0098-.002.0118.014.007-.0005.0363.0274.0215.0193-.0173.0064.023.0196.0214-.0111.0095-.0495.0124-.0215.0391 0 .0033-.0002.0042-.004.0059.0235-.0008.0188.0187.0274.0117.0008.0008.0027.002.004.002 0 .0052-.0038.0064-.0079.0097.0053.0053.0137-.0032.0137-.0098.0095.0132-.0191.0266.0039.0352-.0086.0062-.0121.0232.0039.0195 0-.0025-.0006-.0053.0019-.0078.0078.0095.0182.0081.0293.0098-.0037.0115.0064.0201.0117 0 .0053.0037.0053.0156 0 .0235-.0497.0131-.0151.051-.0488.0546.0062.0037.0136.012.0215.0137-.0399.0243-.0671.0648.0175.082-.0172.0157-.0454.0188-.0585.0352-.1176.3727-.7422.3287-.7833-.0703-.0016.0008-.0043 0-.0059 0-.0156-.0842-.0387-.1635-.037-.2461.0015-.0366.0063-.0857-.006-.1133.0078-.141.0205-.2808.0098-.416.0436-.452.017-.9766.045-1.3867.0053-.0411.0075-.0823-.002-.1172-.0015-.0045-.0017-.0073.002-.0098v-.0039h-.002c.0046-.1253.011-.253.002-.375.0131-.0559-.0031-.1263.0059-.1875 0-.201.0023-.4217-.004-.623.0079-.1176.0054-.2494.0079-.3653-.194.088-.3518.245-.5215.3633-.0477.0489-.1508.115-.207.168-.067.0443-.1518.1135-.2188.1718-.0026.0007-.006.0014-.006.006-.0114.0036-.0242.0096-.0312.0195-.4146.3377-.8257.6758-1.246 1.0234-.0026-.0008-.002-.003-.002-.0039-.1766.1385-.326.298-.4785.457-.0895.0592-.179.1341-.2383.2188-.1356.122-.2518.2695-.3808.4043-.0016-.0016-.0078-.003-.0078-.004-.0444.0625-.122.1226-.168.1817-.0402.0304-.074.0745-.1113.1016 0 0-.0004.003-.002.0039-.1741.2108-.3915.426-.5937.6113-.2395.203-.6853-.0467-.6015-.375.0016-.0053.0133-.0178.0039-.0215.3846-.5753.9654-1.004 1.4687-1.4609.0202-.0185.0527-.0488.0782-.0645.1183-.1019.2571-.2336.3808-.3125.0469-.074.1519-.1106.1934-.1875.039-.011.0926-.056.1152-.0918.0095-.0037.0061.0048.0157.004-.0053-.0202.0465-.0193.037-.041.2717-.2064.5326-.4375.7989-.6446v-.0078c.0477-.0263.1046-.0594.1387-.0977 0 .0025.0019.0053.0019.0078.0234-.0156.048-.0485.08-.0547.0251-.046.095-.0574.1192-.0957.0427-.0217.0755-.0554.1133-.08v-.002c.0887-.0653.1869-.1268.2617-.1913.0296-.021.082-.0455.0996-.0743a.9028.9028 0 0 0 .1738-.127c.1697-.1072.3144-.2595.4903-.3573-.0025-.0008-.0027-.0004-.004-.002.0038-.0024.0038-.003.0079-.0038.0723-.0567.1497-.1218.2343-.1641v-.0039h-.0019c-.0016-.0025-.0016-.0065 0-.0098.0095-.0053-.002-.0196.002-.0332.0036-.0086.001-.0307.0038-.0332.014-.0078.0033-.0223.0078-.045-.0263-.0443.0215-.211-.0254-.2616 0-.0009-.0098.0008-.0098 0-.0156-.0037-.0343.0122-.0351.0254-.0777.034-.1193.0908-.1875.1171-.0193.0366-.095.0176-.127.041 0 .0046.0031.0098.006.0118-.0112.0053-.1267.0218-.0548.0312-.0156.0115-.0656.009-.082-.0059-.0053-.0033-.006-.0092-.0156-.0039.0025.0053-.0056.0113-.0098.0118-.007.0025-.0158-.0003-.0195.0059-.0539.0156-.1216.0178-.168.0273-.0148.0062-.0365-.0058-.0488.0019v.0059s-.0053.0017-.0078 0v-.004c-.067.007-.1293-.0144-.1934-.0292.0037.0037 0 .0029 0 .0078-.0271-.0358-.093-.041-.1309-.08a.0102.0102 0 0 0-.0019.0058c-.048-.0559-.1082-.105-.1308-.1758-.0288-.0846-.0476-.196-.0567-.291.0016 0 .0023-.0012.004-.0019-.0132-.1898.0153-.3916-.0118-.5683.0193-.1402.0382-.3005.041-.4336.0086-.0498.021-.1105.0313-.168.0045-.106.0483-.246.082-.3594.0329-.0912.0818-.2042.1348-.293.0016.0009.0034.0011.0059.002.0033-.0358.0416-.0636.0527-.0899.0062-.0115.0243-.0396.0313-.045.0731-.113.155-.2194.2754-.291.0078-.018.0362-.0239.0449-.0292.0078.0086.0433-.0361.0605-.0489.0053 0 .0137-.004.0137-.0098.1142-.046.3724-.1566.416.0098.0016-.0008.004-.0012.004-.0019.0061.0251.0198.055.0058.0801-.0123.0045-.0053.034-.0156.041.0333.0305-.036.0913-.0196.127-.011.0164-.0311.0293-.0332.045-.0025.0052-.0053.0123 0 .0155-.0025.0086-.0118.006-.0175.006-.0078.0164-.012.0499-.0293.0585-.0037.0094-.0135.0046-.0176.0137-.0123.0094-.0199.0177-.0371.0234 0 .0025.0003.0042.0019.006-.0016.0008-.004 0-.004 0-.0015.0015.0002.003-.0018.0038-.0202.0078-.046.0522-.0469.0801-.0016-.0008-.006.0008-.0078 0-.0016.0218-.0142.0185-.0273.0313l-.002-.002c-.0036.0124-.0393.0299-.0253.043-.0016.0078-.0064.0167-.004.0274.0034.0033-.01.0204-.0136.0254-.0263-.0296-.0103.044-.0312.037 0 .007.0032.0134 0 .0196-.0095-.0025-.0137.0145-.0137.0215-.0575.1508-.2062.4581-.1445.5937.0102.0272.0195.0702-.006.0899-.0706.3115-.1156 1.1159.4141.707.0025.0016.0043.0022.006.004.2087-.1768.1885-.4873.2226-.7306.0037.0009.0059 0 .0059 0 .0123-.1356.0337-.2895.039-.414 0-.0132.0037-.0342 0-.0469.0732-.298.0031-.854.1465-1.1855-.0037-.0033 0-.0045 0-.0078.0016 0 .0023-.002.004-.002.0254-.0373.0672-.0696.1054-.0898 0-.0037.0037-.0059.0078-.0059.0016.0086.0137-.0027.0215-.0039.168-.115.3894-.0257.461.123-.0038.0132-.02-.0013-.0216.0118.0243.0287-.0223.1001.0098.1367-.0374.028.0171.0692.004.0918-.0194.0025-.0243.008-.0157.0273.0095.0037.0209.0603 0 .0586-.0243.0235.0067.075-.0098.0996.035.0313-.0197.0461-.002.0704.0202.0497.0004.0873.002.1308-.035-.0193-.0065.0175-.0098.0352-.0037 0-.0081-.0018-.0098-.004-.0095.0087-.0047.0844.0117.045.021.0115-.0142.0218-.0195.0234-.0165.201-.0212.3978-.043.6172-.007.0341-.0134.1237-.0098.1582-.0148.0637-.0254.185-.0176.2364-.0033.041-.0433.143-.0039.1562 0 .0062-.0055.0098-.0117.0098-.014.1027-.0333.201 0 .2852.0025.08-.0338.0825-.0059.1113-.0053.0016-.0083 0-.0137 0-.0025.0078-.0072.0406.006.041 0 .0045-.0186.0217 0 .0176-.0181.0764.0137.0406-.004.127-.0304.1051.0006.2128-.0195.3085.007.0103.0053.0282.0078.0352.2823-.1673.5815-.3727.8848-.5469 0-.0008-.0018-.0019-.004-.0019.1862-.1418.4507-.246.6192-.3809.3501-.1487.7308-.4242 1.1035-.6132.0522-.028.1123-.0725.1719-.0918v-.004c.134-.1088.7347-.3422.7207-.459-.2157-.0973-.1777-.4153-.1543-.5937.0173-.1454-.022-.2772.0215-.414-.0312-.0855-.0115-.0597-.002-.125-.0036 0-.0055-.0028-.0097-.002.0255-.0887.0258-.2494.0254-.3242-.0016-.1496.059-.4082-.1543-.4082-.0888-.0185-.18.0607-.252.1055-.0419.021-.0204.0619-.0664.0742-.0016.0497-.1063.1312-.1289.1172.0584.055-.0539.0736-.0547.1094.0053.027-.0056.0677-.0195.0878.011.0288-.0175.0025-.0195.0235.0062.0497.0037.1034-.0235.1445.039-.0016.0182.0413-.0098.0352.0173-.0173-.015-.0243-.0176-.0157.0103.0173.0025.017-.0078.0293-.0234.0333.0757.0097.0235.0352-.0115.0226.0159.0389-.0293.043.0148.0037.0293.0003.037.0175-.0878.007-.0373.0465-.0468.1016.06.0522.008.0757-.0059.086.0148.02-.0195.0117-.0273.0195.0062.0086.0137.011.0137.0234.0164.0111-.0176.0045-.0254 0-.0016.0053 0 .0134 0 .0195.0016 0 .0018.002.0039.002-.0037.0115-.011.0252.0039.0273.0045.018.0215.0226.037.0312-.0052.007-.0048.0193.002.0254-.0226.0094.007.0385-.0078.0586.0452.0103-.002.0313-.0254.0313-.0008-.0654-.017-.0142-.006.0117 0 .0016-.031.0178-.0116.0215-.0124.018-.008.027.0117.041-.0037.0094.0084.0113.0059.0195-.0575.0053-.0156.1314-.0313.1836-.0102.021-.003.0262.0098.0332-.027.028-.0028.0283.0137.0098 0 .0016.0019.0027.0019.0039l.0019-.0019c.0037 0 .0065-.0008.0098 0 .0086.041-.0522.028-.0234.0625-.0366.0226.0116.0395.0136.0625-.0365-.0045-.042.0213-.0039.0176.0115.0156.0276.0343-.0019.0586a.0751.0751 0 0 1-.0175.0547c.0131.0242.042.0962-.0078.0215 0 .0443.036.0747.0273.119-.0341-.0036-.001.016-.0273.0274-.0296.0148.0023.0349-.0274.0332-.032.0769.012.0344-.0254.0743-.0037 0-.0053.0027-.0078.0039.0185.0608-.0268.0519-.0293.0761l.004-.0019c.007.0078-.016.0145-.0196.006h-.004c-.1141.1314-.4603.2995-.5585.0624 0-.0016.0016-.006 0-.0078-.0436-.148.0058-.3313-.0019-.4726.0025-.0181.0072-.0362.0039-.0547-.0016-.0008-.0053-.0031-.0078-.004.014-.0123.0095-.0537.0078-.0722.0025-.0016.0027-.0027.0039-.0039.0111-.1524.0026-.3281.0273-.4707-.0025-.007-.0109-.0134-.0039-.0195-.0086-.0399-.003-.0932.004-.129.0061-.6475.0004-1.3017.8222-1.1718.1278.0296.2436-.0873.3184-.1621-.0016-.0016-.0004-.0038-.002-.0059.143-.167.3598-.3475.59-.3652zm-2.3887 1.0722c.041.0095.072.0134.1016.043.0016.0016-.0025.0027 0 .004 0 .0015.0019.0018.0019.0038.0033.0045.0022.0295.0059.0254.0037-.0016.0039.0062.0039.0078.0016.0054-.002.0134-.002.0196-.0015 0-.0054-.0006-.0038.0019.0115.0025.0082.0142.0019.0195-.0033.0025-.0033.0151.0019.0098l-.002.002c.0038.0045.004.0172.0099.0077 0-.007.014-.0016.0156 0 .0016.0017-.002.0027-.002.004.0096.0037-.0027.0076-.0018.0117h.0019c0 .0033-.0053.0186 0 .0215.0086-.0017.0008.0187.0078.0117 0-.0017.0018-.0078.0039-.0078 0 0 .0019.0026.0019.0039a.0654.0654 0 0 0 .0137.0273.0395.0395 0 0 1-.0078.0215c0 .0078-.002.0236.0059.0273.0102.0157-.014.0185-.0078.0333-.0045.0094-.0272.0128-.0078.0214-.0045.0095.0078-.0005.0019.0098-.0062 0 .0025.005-.0078.0059 0 .0008-.004.0008-.004 0-.0094.0061.0026.018.0079.0234.0053.014-.0297.0225-.0235.0332.0025.0025.0027.005.004.0059v.0058c-.0017.0025-.0017.0038 0 .0059.0015-.0045.0206.0003.0136.002-.0078-.0034-.017.0186-.006.0195v.0039s.0044.0003.006.002c0 .0024-.0004.008-.002.0097-.0052 0-.002.004 0 .0078.0063.0333-.0167.0145-.0175.0371l.0019.002c.0008.0102.0247.0093-.0019.0175-.0016 0-.0041.0035-.0019.004a.039.039 0 0 1 .0039.0155c.0025.0009.0059.0004.0059.002 0 .0086-.0161.0147-.0215.0254-.0008.0078-.0125.005-.0117.0156 0 .0095.016.0059.0254.0059.0025.0053.0056 0 .0098 0-.0103.0062-.0078.0161-.0156.0214 0 0 .0018.0043.0039.006l.0019.0018c0 .0009-.0043.0009-.006 0v-.0039s-.0038.0045-.0038 0c-.0033 0-.0084.0053-.0118 0-.0037.0016.0016.002 0 .004.007.0123.0075.0085.0137.0234.0037.0255-.0335.0037-.0117.0312 0 .0016.0075.0061.0059.0078-.0025.0053.0014.0034.0059.006 0 .0015-.0027.0026-.004.0038.0017.0062-.0104.008-.0116.004h-.002c-.007.011-.0005.027-.0058.039 0 .0033.0042.0082-.002.0098.0096.0234-.0107.0874.0099.0977.0025-.0009.0027-.0012.0039-.002l.0019.002c0 .0025-.004.0039-.004.0059a.0208.0208 0 0 0-.0058.0078c-.0078.0025-.0021.0039.0019.0039 0 .0016-.004.0019-.004.0019l.002.0019c.0016 0 .0039.0027.0039.0019.0025 0 .0043.0002.0059.0019 0 .0033-.004.0027-.004.0039-.0052.0037.005.0037-.0018.0078 0 .0025.0032.0018.0019.0039-.0062.0016.0018.0057.0039.0098.0037.0033.0076.009.0059.0136-.0016.0008-.0018 0-.004 0 .0017.0288-.0359.0622-.0038.084 0 .0016.0018.002.0039.002h.0039c0 .0024-.004.0044-.004.0077.0157.007-.0267.0147-.0136.0254.028.0078-.0245.0594.0137.0742.0164.0053-.0101.012-.0117.0215 0 .0185-.0048.0447.0136.0176.0132.0131-.008.0175-.0117.0273 0 .0086-.0099.0338-.0019.0469.0444.048-.0218.0246.0156.0644-.0226.056.0193.0737-.0078.0684-.0242-.0016-.0067.0175-.0136.0273-.0617.0218.0094.0438-.0235.0586-.0045.0272-.0087.0818.0254.088.0016.0007.0073.006.0098.0077.0156.0173.0016.0277 0 .045-.0111 0-.0118-.0156-.0254-.0176-.0156.0123.0083-.014-.0098-.0157-.0123 0-.0086.0232-.0078.0293.0045.0025.0221-.0024.0176.006-.0008.0024-.0095.005 0 .0058.0062.0045-.01.0162-.002.0215.0087.014.0317-.0074.0255.0098.0123.0481-.0205.0017-.041 0-.0148.0617-.0159.1842-.0196.2754-.0102.0078.0111.0088 0 .0195-.0062.0592-.0078.1635.0157.2149-.0009.0123-.0285.0262-.0137.041.018.0086-.0256.033.0019.0273-.0625.2162-.3477.4384-.5996.3887-.0358-.0296-.0726-.061-.082-.1152l-.004-.002c-.027-.1828.0255-.3737.0333-.5566l-.002-.0019c.014-.0546.0102-.1523.0254-.2246.0037-.0731.0078-.1564.0235-.2168-.0016-.0016-.0043.0006-.006-.0019v-.0078c.0087-.0016.0054-.01 0-.0136.007-.0296.0165-.0782.0157-.0938 0-.0016-.0018-.0004-.0039-.0019V10.75s.0043-.0034.006-.0059c.0007-.0185-.0055-.0763.0097-.1055.0078-.0045-.003-.0126-.0039-.0175.0016-.0016.0023-.0011.004-.002.0007-.0123.0046-.0435.0038-.0546-.0045-.028.024-.0688.004-.0918.0217-.0045.0018-.049.0097-.0469l.002-.0019c-.0032-.003-.0072-.007-.002-.0117.0016-.0033.0127-.003.002-.006-.0038-.0024.0026-.0061.0038-.0077-.0008-.0366.0056-.0823.0098-.1094 0-.0288.004-.0678.0098-.0957.0062-.0016.0082-.0107.002-.0137v-.0117c.0061-.0078.0015-.0195.0077-.0273 0-.0033.007-.0033.002-.0078l-.002-.002c0-.0077-.005-.0222.002-.0214.0015-.0016 0-.0035 0-.004.007-.0287.0125-.1095.0194-.16.0111-.0025-.0045-.0046 0-.0079 0-.0016.004-.0003.004-.002.0061-.006-.0056-.0107-.004-.0136.0062-.0103.0103-.0387.0078-.045.0033-.0114.0105-.0563.0196-.0605-.0016-.0164.0131-.0315.0156-.0488 0-.0025.0019-.0038.0019-.0058.0025-.0025-.0004-.0027-.0019-.004.011 0 .0047-.0094.0117-.0156 0 0 .0075-.0038.006-.0058l-.002-.002c.0111-.0304.024-.0671.045-.0918 0-.0008.0017-.0014.0038-.0039.0078-.032.0466-.0526.0606-.0781.014-.0062.018-.0173.0312-.0234.0037-.007.0326-.029.0372-.0352.048-.0436.128-.0704.1757-.0684.0181-.007.0494.0005.0625-.0097zm-5.2324.9375a.35.35 0 0 1 .0996 0c.0078.0053.0134.0118.0254.0098 0 .0016.0019.0034.0019.006.0287.0032.0356.0758.0488.1054.0242.0053.0058.0451.0293.0488-.0045.0243.0151.0458.0019.0684v.0019c-.0078.0078-.0103.0194-.0078.0293.0037.0008.0059.001.0059.0039-.018.0086-.0012.0212.0019.0273h-.0098c-.0062.053-.0466.0769-.0606.127-.0402.0514-.0399.0093-.0546.0644-.0053.0333-.0525.0259-.0586.0567-.0037-.0016-.0117.0033-.006.0078-.02.0062-.0303.0209-.0488.0332-.0095.0045-.0113.0196-.0273.0176 0 .0025-.002.0019-.002.0039-.0241.0147-.048.0218-.0702.0468-.0148.0062-.0296.013-.039.0254 0 .0123-.0364.004-.0294.0195-.0078.0016-.0122.0053-.0176.0078-.0016.007-.0133.004-.0117.0118-.0037.0025-.0095.0017-.0156 0 .0025-.0009.0027-.0031.0039-.004-.0304.014-.0471.0358-.082.0157v-.004c-.0124.0063-.0227.0058-.0391.002-.0037-.0094-.0181.0002-.0234.0019-.0016-.0033-.0062-.0062-.0078-.0078.0016-.0025.0053-.0053.0078-.0078-.032-.0103-.0728-.0112-.0703-.0547-.0148-.0008-.0175-.0124-.0196-.0234-.0045.0045-.004.0104-.0098.0039-.0016-.0016-.0003-.0101-.0019-.0118-.0102-.041-.0218-.0809-.0156-.1113.0273-.2337.2661-.4857.502-.5215zm1.5898.7578c.0696-.0088.1464.0064.1738.0743.0272.0312.0382.0725.0489.0996a.0177.0177 0 0 0 .0078.0078c0 .0062.0128.0166.0136.0273.0016-.0008.004 0 .004 0-.0034.0111-.006.0246.0038.0332-.0016.0255-.0268.085-.0059.0957-.0016.055-.0477.0784-.0625.129-.0226.011-.039.0473-.0644.0605-.0629.0398-.1128.0982-.1777.1347-.0062.0173-.0299.0229-.043.0352l.0019.0019c-.0111.0025-.0137.014-.0215.0156-.021.0111-.0371.0344-.0606.0508 0 .0008.003.0027.002.004-.0103 0-.0162.0058-.0215.0116-.0366.0617-.105.1204-.1329.1895-.0217.0172-.0507.0686-.0273.0957-.0131.0131-.0542.038-.0156.0527-.035.0053-.0048.048-.0508.1348.0062.0694.026.057-.0273.0898.0095.0025.0215.0162.0059.0215-.0025.0123-.0224.0327-.006.043-.0015.0131-.0036.0341-.0077.0468 0-.0008-.0018-.001-.004-.0019-.0036.0037-.0013.0095.004.0078a.0167.0167 0 0 1-.004.0098c.0026.0025.0038.004.0079.004-.0193.0755.0035.1685-.0196.2285 0 .0078-.0019.0193.006.0234-.0157.0645-.008.1409-.0118.207-.007.042-.0086.1432-.0078.2032.021 0-.0018.0114-.0039.0175.0033.0255.025.0655 0 .084-.0115.0912-.0053.1897-.0312.2793-.0662.1759-.1983.284-.3594.3477a.043.043 0 0 1-.0176.0039c-.046.0296-.1277.0334-.1758.0293-.0156-.0053-.029-.0134-.043-.0196v-.0117s-.0052-.0016-.0077 0c-.0053 0-.0114-.0073-.0176-.0098-.1455-.1853-.0516-.468-.0586-.6797h.0019c-.0053-.0776-.0257-.149.0117-.2246.0008-.0374-.0343-.0765-.0039-.1094.0025-.0201-.0066-.0537.002-.08-.0116-.0016.0057-.017-.002-.0215.0053-.0045.0041-.0134.002-.0196-.0116-.0016-.0145-.0397.0018-.041.0078-.0333.0336-.0645.0254-.0957.0016-.0164-.0045-.0494.0078-.0605.0062-.1845.0402-.4037.0254-.582.0226-.1122.0033-.2394.0547-.3438.0226-.201.2225-.3308.4082-.379.0053-.0024.0156-.003.0078.006.0044-.0002.0078-.0012.0078-.006a.7323.7323 0 0 1 .1387-.0194c.0854-.0165.1539-.0642.2402-.0782.0033-.0164-.0122-.0014-.0176-.0039-.0016-.0172.01-.0109.0235-.0117v-.0059c.0053 0 .01.0006.0117-.0039.0296.0132.0288-.0114.0468-.0176.0218-.0234.0557-.0077.0762-.0254-.0037-.0037-.0098-.0045-.0098-.0098.0095 0 .0151-.0047.0176-.0117h.0019c0 .0165.0183.0168.0195.002-.0148-.0202.0374.003.041-.0196a.313.313 0 0 1 .0665-.0156zm-1.9004.8047c.0964-.0079.1775.0357.1992.1758-.0275.0223-.0005.079.0352.086-.0682.0173-.0599.0982-.0117.1601.0131.014-.033.0647.0019.0918-.088.284-.0857.7039-.1465 1.0215h-.006c-.0052.1282-.0412.2614-.0429.3945h.004c-.0103.0506-.0006.0987-.0137.1485.0172.0164.0039.047.0117.0664.0115.0164-.012.08-.0215.1035.0078.0855-.0285.172-.045.2558.0079.0313.074-.027.0391.0547.0016.0165-.0125.012-.0195.0157-.0131-.0016-.0213-.008-.0254-.0196-.099.113-.3927.3797-.5723.2149-.025-.0403-.0376-.0983-.043-.1406-.0044-.2326.0185-.4823.0255-.7149-.0037 0-.0054-.003-.0078-.0039.0304-.0957.0083-.2744.037-.3262.0079-.0193.0006-.0443.006-.0644h.0019c-.0148-.028.0084-.0826-.004-.1113.0333-.1143.007-.2602.0313-.3633-.0185-.141.034-.3273.0332-.4707.0436-.1167.0803-.289.1875-.377.0132-.0242.0407-.054.0703-.0586-.0037-.0008-.0053-.0034-.0078-.0059.0766-.0649.1868-.1249.2832-.1328z"/></svg>