<svg version="1.2" xmlns="http://www.w3.org/2000/svg" viewBox="0 0 1590 1591" width="1590" height="1591">
	<title>volaris-logo-svg</title>
	<style>
		.s0 { fill: #eeefef } 
		.s1 { fill: #b5d5f0 } 
		.s2 { fill: #6cadde } 
		.s3 { fill: #d6a6cc } 
		.s4 { fill: #dae7a2 } 
		.s5 { fill: #231f20 } 
		.s6 { fill: #91268f } 
		.s7 { fill: #8dc63f } 
	</style>
	<g id="Page-1">
		<g id="Desktop-HD">
			<g id="Header/Brand_header/Account">
				<g id="Header/Brand_header">
					<g id="Logo">
						<g id="Estrella">
							<path id="Fill-12" class="s0" d="m681.3 0h227v227.3h-227z"/>
							<path id="Fill-13" class="s1" d="m681.3 227.3h227v227.2h-227z"/>
							<path id="Fill-14" class="s2" d="m681.3 454.5h227v227.2h-227z"/>
							<path id="Fill-15" class="s1" d="m454.2 454.5h227.1v227.2h-227.1z"/>
							<path id="Fill-16" class="s3" d="m454.2 909h227.1v227.3h-227.1z"/>
							<path id="Fill-17" class="s1" d="m908.3 454.5h227v227.2h-227z"/>
							<path id="Fill-18" class="s4" d="m908.3 909h227v227.3h-227z"/>
							<path id="Fill-19" class="s5" d="m681.3 681.7h227v227.3h-227z"/>
							<path id="Fill-20" class="s6" d="m681.3 909h227v227.3h-227z"/>
							<path id="Fill-21" class="s3" d="m681.3 1136.3h227v227.2h-227z"/>
							<path id="Fill-22" class="s0" d="m681.3 1363.5h227v227.2h-227z"/>
							<path id="Fill-23" class="s0" d="m0.2 681.7h227v227.3h-227z"/>
							<path id="Fill-24" class="s3" d="m227.2 681.7h227v227.3h-227z"/>
							<path id="Fill-25" class="s6" d="m454.2 681.7h227.1v227.3h-227.1z"/>
							<path id="Fill-26" class="s7" d="m908.3 681.7h227v227.3h-227z"/>
							<path id="Fill-27" class="s4" d="m1135.3 681.7h227.1v227.3h-227.1z"/>
							<path id="Fill-28" class="s0" d="m1362.4 681.7h227v227.3h-227z"/>
						</g>
					</g>
				</g>
			</g>
		</g>
	</g>
</svg>