<?xml version="1.0" encoding="UTF-8" standalone="no"?><!DOCTYPE svg PUBLIC "-//W3C//DTD SVG 1.1//EN" "http://www.w3.org/Graphics/SVG/1.1/DTD/svg11.dtd"><svg width="100%" height="100%" viewBox="0 0 80 63" version="1.1" xmlns="http://www.w3.org/2000/svg" xmlns:xlink="http://www.w3.org/1999/xlink" xml:space="preserve" xmlns:serif="http://www.serif.com/" style="fill-rule:evenodd;clip-rule:evenodd;stroke-linejoin:round;stroke-miterlimit:2;"><g><path d="M71.253,0c-36.698,3.91 -71.253,11.098 -71.253,19.421c0,1.36 2.201,3.513 5.921,6.071c5.252,-5.053 22.64,-9.542 43.992,-12.93c5.735,-4.323 13.147,-8.485 21.34,-12.562Z" style="fill:#1e2e5d;fill-rule:nonzero;"/><path d="M49.913,12.562c-21.352,3.387 -38.739,7.877 -43.992,12.93c-1.063,1.023 -1.633,2.07 -1.633,3.135c0,1.306 2.026,3.34 5.477,5.763c1.215,-1.148 3.06,-2.267 5.43,-3.35c5.57,-2.546 14.061,-4.895 24.235,-6.965c4.784,-0.974 9.938,-1.886 15.336,-2.728c5.654,-4.173 12.848,-8.197 20.775,-12.142c-8.817,0.94 -17.508,2.069 -25.628,3.357Z" style="fill:#cc3b40;fill-rule:nonzero;"/><g><path d="M46.786,52.381c-0.375,-1.124 -0.591,-2.233 -0.666,-3.331c-0.775,-11.402 14.089,-21.378 33.204,-30.89c-8.431,0.898 -16.747,1.97 -24.559,3.188c-5.397,0.842 -10.552,1.754 -15.336,2.728c-10.174,2.07 -18.666,4.419 -24.235,6.965c-2.37,1.083 -4.215,2.201 -5.43,3.35c-1.102,1.041 -1.693,2.106 -1.693,3.191c0,4.414 23.141,17.151 46.283,25.096c-4.034,-3.569 -6.469,-6.994 -7.568,-10.297Z" style="fill:#f6d547;fill-rule:nonzero;"/></g></g></svg>