<svg version="1.1" id="Layer_1" xmlns="http://www.w3.org/2000/svg" xmlns:xlink="http://www.w3.org/1999/xlink" x="0px" y="0px" viewBox="0 0 673.2 143.7" style="enable-background:new 0 0 673.2 143.7;" xml:space="preserve">
 <style type="text/css">
  .st0{fill-rule:evenodd;clip-rule:evenodd;fill:#54A742;}
	.st1{fill-rule:evenodd;clip-rule:evenodd;fill:#005C3F;}
 </style>
 <desc>
  Created with Sketch.
 </desc>
 <g id="Page-1">
  <g id="logo_x2F_wideroe-logo">
   <g id="logo">
    <path id="Fill-3" class="st0" d="M368.3,71c18.3,18.5,39.2,42.4,61.7,72.8c35.6-47.8,58.9-81.2,75.7-93.6
				c16.9-12.4,71.4-28.4,167.5-44.7c-144.4,13.1-248.5,21.2-270,33C395.3,42.9,382.8,54.7,368.3,71z">
    </path>
    <path id="Fill-4" class="st1" d="M323.3,31.3C300,14.3,167.7,4.1,0,0c80.3,12,183.1,29.3,212.6,48c23.5,14.8,49.2,42.7,92.9,93.3
				l124.5,2.5C385.4,83.7,347.1,48.6,323.3,31.3">
    </path>
   </g>
  </g>
 </g>
</svg>
