<?xml version="1.0"?>
<svg xmlns="http://www.w3.org/2000/svg" width="455.88281" height="133.42285" viewBox="-0.3779297 -0.2924805 455.88281 133.42285" enable-background="new -0.3779297 -0.2924805 501 185">
<path
   d="m 279.59668,13.291503 c -2.78808,1.526368 -7.21679,5.695801 -12.33398,11.438477 6.45019,6.530273 13.83691,14.963379 21.79785,25.670898 12.56738,-16.854492 20.79004,-28.626953 26.73828,-32.993164 5.94727,-4.373535 25.2168,-10.0336909 59.14356,-15.7597649 -51.00977,4.612793 -87.74121,7.472656 -95.34571,11.6435539 l 0,0 z"
   style="fill:#4ea322" />
<path
   d="M 251.38575,10.754394 C 243.12989,4.7622071 196.43457,1.1489251 137.20948,-0.29248092 165.5503,3.9404291 201.85059,10.032714 212.30225,16.609863 c 8.31299,5.237305 17.36377,15.05957 32.80615,32.918457 l 43.95215,0.872559 C 273.29493,29.213378 259.78516,16.856933 251.38575,10.754394 l 0,0 z"
   style="fill:#00482d" />
<path
   d="m 378.49707,70.378418 c -5.21386,-5.348633 -12.53711,-7.752442 -23.72363,-7.752442 -11.12012,0 -18.47656,2.387696 -23.81641,7.737793 l -0.0332,0.01465 c -5.01074,5.309565 -6.80176,12.499025 -6.80176,27.510745 0,14.991206 1.79102,22.179676 6.78418,27.458976 5.39063,5.40625 12.74707,7.78223 23.86719,7.78223 11.18652,0 18.49219,-2.37598 23.72363,-7.75196 5.71973,-5.86132 6.80079,-14.18554 6.80079,-27.489246 -1e-5,-13.30957 -1.08106,-21.64356 -6.80079,-27.510745 l 0,0 z M 354.77344,120.5913 c -4.01269,0 -7.10547,-0.3955 -9.52441,-1.19628 l 26.38281,-34.931646 c 0.76269,3.37403 0.8457,7.71582 0.8457,13.14649 0,16.349606 -0.67383,22.981436 -17.7041,22.981436 l 0,0 z m 0,-45.541006 c 4.60547,0 7.97754,0.46582 10.5,1.47363 l -27.03125,35.829096 c -1.18066,-3.60742 -1.30176,-8.48633 -1.30176,-14.743156 0,-16.04492 0.68653,-22.55957 17.83301,-22.55957 l 0,0 z"
   style="fill:#00482d" />
<path
   d="m 254.45801,114.4458 c -1.35547,4.16894 -6.03613,6.04394 -15.14355,6.04394 -14.96534,0 -16.91748,-5.6289 -17.12891,-18.38086 2.02002,0 45.90332,0 45.90332,0 v -2.603506 c 0,-10.90332 -0.30176,-19.76368 -4.13867,-26.304691 -4.21094,-7.213379 -12.21289,-10.581054 -25.16699,-10.581054 -24.60987,0 -29.42432,12.942385 -29.42432,35.350585 0,10.705076 0.84863,19.089836 5.02832,25.164056 4.52783,6.56055 12.41504,9.61035 24.78272,9.61035 16.92968,0 26.2666,-6.02832 27.77636,-17.94433 l 0.0635,-0.35449 h -12.55176 l 0,0 z m -15.6748,-39.684566 c 12.66797,0 16.26757,3.19629 16.70312,15.20898 -1.9707,0 -31.13721,0 -33.12109,0 0.5625,-11.31836 4.8081,-15.20898 16.41797,-15.20898 l 0,0 z"
   style="fill:#00482d" />
<path
   d="m 455.50489,99.505374 c 0,-10.90332 -0.31153,-19.76368 -4.12403,-26.304691 -4.22558,-7.213379 -12.21972,-10.581054 -25.1748,-10.581054 -24.61914,0 -29.42481,12.942385 -29.42481,35.350585 0,10.705076 0.85352,19.089836 5.03614,25.164056 4.51367,6.56055 12.38964,9.61035 24.78613,9.61035 16.93164,0 26.2666,-6.02832 27.78418,-17.94433 l 0.04,-0.35449 h -12.55371 c -1.33008,4.16894 -6.00684,6.04394 -15.14063,6.04394 -14.95117,0 -16.91211,-5.6289 -17.14258,-18.38086 2.03223,0 45.91407,0 45.91407,0 v -2.603506 l 0,0 z m -45.71875,-9.53516 c 0.5498,-11.31836 4.81054,-15.20898 16.41992,-15.20898 12.65039,0 16.25781,3.19629 16.69336,15.20898 -1.96582,0 -31.11719,0 -33.11328,0 l 0,0 z"
   style="fill:#00482d" />
<polygon
   points="133.85986,157.37256 133.85986,157.37256 146.65234,157.37256 146.65234,91.032715 133.85986,91.032715 "
   style="fill:#00482d"
   transform="translate(-22.436524,-25.666016)" />
<polygon
   points="43.828613,157.35693 57.942383,157.35693 72.285156,113.40186 86.822754,157.35693 100.74365,157.35693 100.74365,157.35693 122.5415,91.012695 109.06787,91.012695 93.686523,137.71533 78.317871,91.012695 66.276367,91.012695 50.896484,137.71533 35.533691,91.012695 22.058594,91.012695 "
   style="fill:#00482d"
   transform="translate(-22.436524,-25.666016)" />
<path
   d="m 197.43262,104.64697 c 0,0.041 0,-66.929685 0,-66.929685 h -12.80615 c 0,0 0,25.103515 0,28.374023 -4.46826,-2.206543 -10.0542,-3.270508 -17.43848,-3.270508 -11.04443,0 -18.33984,2.374024 -23.6709,7.700196 -5.02978,5.284178 -6.79004,12.447268 -6.79004,27.368168 0,14.899406 1.94043,22.534176 6.71778,27.312496 4.79785,4.79199 11.95166,7.74121 23.74316,7.74121 11.13867,0 18.34668,-2.44239 23.61035,-7.70606 4.46241,-4.46875 6.63428,-13.46094 6.63428,-20.58984 l 0,0 z M 167.18799,75.227054 c 17.02686,0 17.70313,6.46972 17.70313,22.40332 0,15.796866 -0.71827,22.792966 -17.70313,22.792966 -16.96191,0 -17.67383,-6.9961 -17.67383,-22.792966 0,-15.9336 0.68018,-22.40332 17.67383,-22.40332 l 0,0 z"
   style="fill:#00482d" />
<path
   d="m 293.41016,131.69091 h -12.81543 l -0.01,-66.348137 h 12.88379 v 4.822754 c 5.17774,-3.063477 9.37012,-4.822754 19.1836,-4.822754 2.28711,0 3.37695,0.03565 4.16406,0.09522 v 12.535161 c -1.1543,-0.17773 -2.77344,-0.27344 -4.16406,-0.27344 -3.15918,0 -10.43653,0.33887 -14.67481,4.59961 -2.98144,2.96973 -4.58496,7.8584 -4.58496,16.41504 l 0.0176,32.976556 0,0 z"
   style="fill:#00482d" />
</svg>