<?xml version="1.0" encoding="UTF-8" standalone="no"?>
<!DOCTYPE svg PUBLIC "-//W3C//DTD SVG 1.1//EN" "http://www.w3.org/Graphics/SVG/1.1/DTD/svg11.dtd">
<svg width="100%" height="100%" viewBox="0 0 124 126" version="1.1" xmlns="http://www.w3.org/2000/svg" xmlns:xlink="http://www.w3.org/1999/xlink" xml:space="preserve" xmlns:serif="http://www.serif.com/" style="fill-rule:evenodd;clip-rule:evenodd;stroke-linejoin:round;stroke-miterlimit:2;">
    <g transform="matrix(4.166667,0,0,4.166667,0,0)">
        <g transform="matrix(1,0,0,1,-80.205078,0)">
            <path d="M103.86,7.813C103.665,7.813 103.43,7.931 103.313,8.126C103.157,8.36 103.001,8.633 102.806,8.868C102.337,9.57 101.869,10.234 101.4,10.898C101.283,11.054 101.283,11.249 101.361,11.406C101.752,11.913 102.142,12.46 102.571,13.006C102.728,13.202 102.884,13.436 103.04,13.631C103.157,13.787 103.391,13.826 103.626,13.748C107.062,12.304 109.99,10.664 109.951,9.453C109.912,8.282 107.062,7.852 103.86,7.813Z" style="fill:rgb(228,35,19);fill-rule:nonzero;"/>
        </g>
        <g transform="matrix(1,0,0,1,-80.205078,0)">
            <path d="M91.99,4.885C92.146,4.924 92.302,5.002 92.498,5.041C92.966,5.197 93.435,5.393 93.864,5.549C93.981,5.588 94.138,5.549 94.294,5.432C94.84,5.002 95.426,4.534 96.012,4.065C96.246,3.909 96.441,3.714 96.675,3.558C96.832,3.44 96.91,3.245 96.91,3.128C96.48,1.137 95.856,-0.269 94.957,0.043C94.059,0.317 92.966,2.23 91.951,4.534C91.795,4.69 91.834,4.846 91.99,4.885Z" style="fill:rgb(228,35,19);fill-rule:nonzero;"/>
        </g>
        <g transform="matrix(1,0,0,1,-80.205078,0)">
            <path d="M83.909,16.911C84.065,16.677 84.221,16.481 84.377,16.247C84.807,15.622 85.236,15.037 85.665,14.451C85.783,14.295 85.822,14.139 85.744,14.022C85.548,13.592 85.353,13.123 85.158,12.655C85.08,12.499 85.041,12.304 84.963,12.147C84.924,12.03 84.767,11.991 84.611,12.069C82.347,13.202 80.473,14.373 80.238,15.31C79.965,16.286 81.41,16.833 83.401,17.184C83.596,17.184 83.791,17.106 83.909,16.911Z" style="fill:rgb(228,35,19);fill-rule:nonzero;"/>
        </g>
        <g transform="matrix(1,0,0,1,-80.205078,0)">
            <path d="M94.216,22.963C93.982,22.807 93.786,22.69 93.552,22.533C92.966,22.143 92.42,21.753 91.912,21.401C91.795,21.323 91.6,21.323 91.405,21.44C90.78,21.948 90.116,22.455 89.452,22.924C89.218,23.119 88.945,23.275 88.71,23.471C88.515,23.588 88.398,23.822 88.437,24.056C88.632,27.336 89.179,30.186 90.35,30.147C91.561,30.108 93.044,27.102 94.372,23.509C94.411,23.275 94.372,23.041 94.216,22.963Z" style="fill:rgb(228,35,19);fill-rule:nonzero;"/>
        </g>
        <g transform="matrix(1,0,0,1,-80.205078,0)">
            <path d="M100.777,14.959C98.863,15.7 97.458,15.974 97.106,15.388C96.794,14.881 97.341,13.709 98.395,12.304C98.551,12.069 100.152,9.922 100.777,9.024C103.393,5.197 105.852,1.059 104.759,0.473C103.822,0.004 100.62,2.113 97.497,4.495C97.341,4.612 97.263,4.807 97.263,4.924C97.458,6.252 97.38,7.384 96.755,7.892C96.169,8.36 95.271,8.204 94.256,7.696C94.1,7.618 92.733,6.993 92.226,6.759C89.649,5.705 86.838,4.846 85.822,5.9C84.963,6.798 85.51,8.868 86.369,11.015C86.408,11.132 86.564,11.171 86.721,11.093C88.126,10.469 89.219,10.156 89.454,10.625C89.649,11.015 89.141,11.952 88.243,13.163C88.048,13.397 86.252,15.779 85.549,16.833C83.05,20.386 80.551,24.29 81.137,25.306C81.684,26.282 84.807,24.369 88.048,21.987C88.204,21.87 88.321,21.635 88.321,21.44C88.282,19.683 88.478,18.356 89.141,17.887C89.727,17.419 90.625,17.731 91.64,18.473C91.796,18.59 93.358,19.683 94.022,20.113C97.614,22.416 102.495,24.993 104.017,23.353C105.306,21.987 103.471,18.277 101.401,14.998C101.206,14.92 101.011,14.881 100.777,14.959Z" style="fill:rgb(0,147,190);fill-rule:nonzero;"/>
        </g>
    </g>
</svg>
