<svg xmlns="http://www.w3.org/2000/svg" viewBox="0 0 595.21 158.55"><defs><style>.cls-1{fill:#62358b;}</style></defs><path class="cls-1" d="M405,116.62c11.26,0,20.4-3.58,27.56-9.44-.38,17.94-11,26.62-32.2,30-3,.45-4.68,2.8-3.3,5.85,4.39,9.86,12.31,15.55,21.49,15.55,16.78,0,38.11-12.66,42.06-39.58l1.1-111.52c0-2.86-1.54-4.44-4.42-4.44-9.16,0-17.43,3.3-21.82,8.2C429.49,5.12,417.46,0,405,0a58.31,58.31,0,0,0,0,116.62Zm0-88.33c16.45,0,29.09,13.47,29.09,30s-12.64,30-29.09,30a30,30,0,0,1,0-60Z" transform="translate(0)"/><path class="cls-1" d="M536.94,116.62a58.31,58.31,0,1,0-58.31-58.3A58.28,58.28,0,0,0,536.94,116.62Zm0-88.33a30,30,0,1,1-29.79,30A29.91,29.91,0,0,1,536.94,28.29Z" transform="translate(0)"/><path class="cls-1" d="M38.35,106c2.53,6.43,4,7.72,11,7.72s12.32-3.16,16.11-11.89l15-34.62L97.32,106c2.69,6.24,4,7.72,11,7.72,6.91,0,11.76-3,15.87-11.89l43.07-93c1.54-3.29-.69-5.73-3.54-5.73H152.51c-9.93,0-16,4.14-20.54,14.12L110.34,65.25,97.61,36.15a10.17,10.17,0,0,1,0-8.48l2.71-6.26c4.36-10,8.37-13,14.44-14.36-.48-3-2.53-4-7.3-4H91.8c-9.63,0-16.55,4-20.57,14.12l-19,48.05-16.68-48C32.2,7.45,25.14,3.08,15.2,3.08H4C1.08,3.08-.89,5.44.41,8.81Z" transform="translate(0)"/><path class="cls-1" d="M230.88,113.54h11.48c7.75,0,13.25-5.53,13.25-13.27v-53c0-12.41,6.91-18.87,22.25-18.87S300,34.81,300,47.22V109.1c0,2.87,1.55,4.44,4.4,4.44h11.49c7.74,0,13.26-5.53,13.26-13.27V43.74C329.15,15,306.63,0,277.9,0s-51.42,15-51.42,43.74V109.1C226.48,112,228,113.54,230.88,113.54Z" transform="translate(0)"/><path class="cls-1" d="M181.64,113.54H193.1c7.74,0,13.26-5.53,13.26-13.27V7.51c0-2.85-1.53-4.4-4.41-4.4h-7.06a17.44,17.44,0,0,0-17.68,17.67V109.1C177.21,112,178.75,113.54,181.64,113.54Z" transform="translate(0)"/></svg>