<svg role="img" viewBox="0 0 64 64" xmlns="http://www.w3.org/2000/svg" fill="#c6007e"><title>Wizz Air</title><path d="M47.0309 27.7145h6.1822l-7.322 9.5786H39.706Zm-.4653-.9356-7.783 10.1849a.7623.7623 0 0 0-.0805.8212c.1316.2682.4099.4422.7047.4422h6.9481l7.8463-10.2625a.7513.7513 0 0 0 .074-.7802.7393.7393 0 0 0-.6687-.4056Zm-22.2271-4.9784a.2287.2287 0 0 1 .197-.1122H28.59l.5825-3.3475a.2193.2193 0 0 1 .2193-.1769l3.7948-.0029c.0697 0 .1258.0208.166.0662a.2409.2409 0 0 1 .0526.1819l-.3775 2.166 17.8398.013c.0963 0 .1654.0582.1992.1143.0208.0417.0489.1258-.0093.2049l-1.6108 2.1034 13.2216-.0036c.077 0 .1316.049.154.0913a.1431.1431 0 0 1-.0015.1554L51.8317 37.6412c-.1251.1567-.1194.5551-.0323.7248.0906.1712.4041.4157.6004.4157l7.729.0086a.2165.2165 0 0 1 .2165.2495l-.5875 3.3619a.2193.2193 0 0 1-.2193.1762H30.1317l-.4833-.003a2.7384 2.7384 0 0 1-2.6895 3.254 2.7391 2.7391 0 1 1 0-5.476 2.747 2.747 0 0 1 2.4033 1.418L41.347 26.0584c.1927-.4056.0964-.5508-.0072-.7903-.077-.1805-.366-.366-.6817-.3624h-8.3892l-2.1437 12.2408a.2165.2165 0 0 1-.2157.1632h-3.797a.2208.2208 0 0 1-.1675-.0755.21.21 0 0 1-.049-.1754l2.3286-13.2864-9.4708 18.5676a.484.484 0 0 1-.4207.2452l-3.226.0158c-.115 0-.21-.082-.22-.1805l-.8895-13.4877-6.997 13.41a.4854.4854 0 0 1-.4185.2438l-3.272-.0022a.215.215 0 0 1-.2172-.189L.96 21.922a.233.233 0 0 1 .0554-.1704.2287.2287 0 0 1 .1654-.0619h4.398a.223.223 0 0 1 .2209.2258l.6594 13.3569 6.4677-13.4676a.2193.2193 0 0 1 .1956-.115l4.009-.0173c.1108 0 .21.0841.2165.1819l.6516 13.4597zm4.8662-4.5743c-.453 0-.8377.3236-.919.7723l-.4833 2.7528h-3.41c-.348 0-.6594.1877-.8363.5127l-4.8009 10.2402-.476-9.8993a.9363.9363 0 0 0-.9313-.8529h-4.365c-.3488 0-.6702.1942-.8363.5149l-4.936 10.2783-.4869-9.8605a.9349.9349 0 0 0-.9334-.9327H.9348a.942.942 0 0 0-.6896.2912c-.1726.1899-.2603.4538-.243.7285l2.1767 20.9097a.9334.9334 0 0 0 .9298.8306l3.6093.0014c.443 0 .8464-.2416 1.055-.6342l5.512-10.5603.6795 10.3632a.9349.9349 0 0 0 .9277.8306l3.5826.0014c.4408 0 .8486-.2445 1.0564-.6393l6.6985-13.1332-1.2972 7.4076c-.049.2726.0273.5501.2027.7659a.9349.9349 0 0 0 .7149.3322h4.2456c.4408 0 .8162-.307.9147-.75l2.0423-11.657h7.294l-11.0219 14.425a3.674 3.674 0 0 0-2.358-.853 3.6876 3.6876 0 0 0-3.6818 3.6805 3.6876 3.6876 0 0 0 3.6818 3.6811c1.8625 0 3.4475-1.4231 3.6618-3.2604l29.0983-.0014c.458 0 .8435-.3258.9183-.7738l.6659-3.7883a.9406.9406 0 0 0-.2071-.7608.9277.9277 0 0 0-.714-.3294l-7.5465-.0072L63.846 23.4545c.187-.279.2042-.6156.0489-.9054a.8824.8824 0 0 0-.7846-.4768H51.3377l.7464-.9751a.9205.9205 0 0 0 .0504-.9593.9399.9399 0 0 0-.8227-.499H34.1386l.2351-1.3204a.9615.9615 0 0 0-.2171-.7687.904.904 0 0 0-.707-.3236z"/></svg>