<?xml version="1.0" encoding="UTF-8" standalone="no"?><!DOCTYPE svg PUBLIC "-//W3C//DTD SVG 1.1//EN" "http://www.w3.org/Graphics/SVG/1.1/DTD/svg11.dtd"><svg width="100%" height="100%" viewBox="0 0 109 109" version="1.1" xmlns="http://www.w3.org/2000/svg" xmlns:xlink="http://www.w3.org/1999/xlink" xml:space="preserve" xmlns:serif="http://www.serif.com/" style="fill-rule:evenodd;clip-rule:evenodd;stroke-linejoin:round;stroke-miterlimit:2;"><g id="layer1"><path id="path877" d="M0,105.988c16.95,-31.13 32.934,-66.04 57.451,-66.04c19.659,-0 30.5,37.165 41.407,68.714c-14.694,-29.707 -29.377,-55.263 -44.081,-55.263c-20.49,0 -40.03,33.597 -54.777,52.589Z" style="fill:#029cdb;fill-rule:nonzero;"/><path id="path877-4" d="M57.445,39.993c4.768,0 9.018,2.186 12.875,5.949c-1.68,-1.032 -4.592,9.694 -3.333,12.931c-4.071,-3.468 -8.143,-5.429 -12.216,-5.429l2.674,-13.451Z" style="fill:#02478f;fill-rule:nonzero;"/><path id="path855" d="M108.824,0c-49.967,29.409 -60.044,39.211 -60.044,50.239c0,20.364 22.761,35.126 50.077,58.423c-19.174,-19.476 -36.869,-42.886 -36.869,-55.587c0,-18.167 27.25,-36.397 46.836,-53.075Z" style="fill:#7abf3e;fill-rule:nonzero;"/></g></svg>