<?xml version="1.0" encoding="UTF-8" standalone="no"?><!DOCTYPE svg PUBLIC "-//W3C//DTD SVG 1.1//EN" "http://www.w3.org/Graphics/SVG/1.1/DTD/svg11.dtd"><svg width="100%" height="100%" viewBox="0 0 1111 396" version="1.1" xmlns="http://www.w3.org/2000/svg" xmlns:xlink="http://www.w3.org/1999/xlink" xml:space="preserve" xmlns:serif="http://www.serif.com/" style="fill-rule:evenodd;clip-rule:evenodd;stroke-linejoin:round;stroke-miterlimit:2;"><path id="W" d="M21.617,390.066l110.249,0l116.734,-188.011l16.213,188.012l110.244,0c-0.91,1.6 57.4,-95.927 123.982,-208.539c10.225,-17.294 -0.281,-27.68 26.394,-67.986c39.824,-60.174 40.948,-46.549 50.924,-63.378c18.489,-31.173 24.6,-40.985 24.6,-40.985l-132.941,0l-102.142,181.529l-12.43,-182.609l-109.168,-0l-109.708,182.609l-4.864,-181.528l-129.704,-0l21.617,380.886Z" style="fill:#d11f2d;"/><path id="C" d="M694.495,395.468c80.525,0 135.65,-32.956 173.48,-82.66l-87.55,-69.153c-20.537,25.393 -44.316,39.439 -73.5,39.439c-33.507,0 -59.447,-23.231 -59.447,-64.831c0,-51.866 36.749,-103.731 93.5,-103.731c28.643,0 50.8,15.127 58.907,45.922l112.951,-49.164c-15.679,-66.993 -73.504,-110.214 -155.11,-110.214c-163.211,-0 -242.655,125.341 -242.655,228.531c0,101.57 73.499,165.861 179.424,165.861Z" style="fill:#d11f2d;"/><path id="White" d="M867.363,244.455l44.694,-108.057l76.9,3.117l31.18,-84.16l36.38,-55.355l45.73,0l8.31,7.563l-15.59,122.6l-34.3,149.61l-167.321,4.156l-25.983,-39.474Z" style="fill:#fff;"/><path id="Red" d="M803.316,389.619c0,0 28.546,-27.921 41.183,-42.312c4.4,-5.013 9.047,-22.534 8.314,-32.208c-0.724,-9.567 -8.534,-12.372 -7.275,-19.74c0.817,-4.777 28.061,-65.455 28.061,-65.455c0,0 171.608,96.207 222.408,-102.857c2.71,-10.633 -24.37,262.572 -24.37,262.572l-268.321,0Z" style="fill:#d11f2d;"/><path id="Blue" d="M906.857,148.865l67.553,-139.345c0,-0 12.967,-9.516 35.337,-9.516l51.96,0c0,0 9.18,-0.243 4.16,9.516c-5.02,9.759 -57.16,131.035 -57.16,131.035c0,0 -24.7,37.969 -65.476,21.818c-40.776,-16.151 -36.374,-13.508 -36.374,-13.508Zm-19.746,43.637l7.275,-11.429c0,0 104.122,64.321 147.582,-41.558c43.46,-105.879 59.24,-139.512 59.24,-139.512c0,0 12.38,0.513 8.31,9.516c-4.07,9.003 -56.12,141.423 -56.12,141.423c0,0 -40.031,110.32 -166.288,41.56l0.001,0Z" style="fill:#0d53a2;"/></svg>