<?xml version="1.0" encoding="UTF-8" standalone="no"?>
<!DOCTYPE svg PUBLIC "-//W3C//DTD SVG 1.1//EN" "http://www.w3.org/Graphics/SVG/1.1/DTD/svg11.dtd">
<svg width="100%" height="100%" viewBox="0 0 588 307" version="1.1" xmlns="http://www.w3.org/2000/svg" xmlns:xlink="http://www.w3.org/1999/xlink" xml:space="preserve" xmlns:serif="http://www.serif.com/" style="fill-rule:evenodd;clip-rule:evenodd;stroke-linejoin:round;stroke-miterlimit:2;">
    <g transform="matrix(4.166667,0,0,4.166667,0,0)">
        <g transform="matrix(1,0,0,1,-225.649998,0)">
            <path d="M296.13,0C257.21,0 225.66,16.46 225.65,36.78C225.64,57.1 257.19,73.58 296.1,73.6C335.01,73.62 366.57,57.16 366.58,36.83C366.59,16.5 335.05,0 296.13,0M296.13,70.68C258.72,70.68 228.38,55.5 228.39,36.78C228.4,18.06 258.71,2.9 296.13,2.91C333.55,2.92 363.86,18.1 363.86,36.83C363.86,55.56 333.51,70.72 296.1,70.68" style="fill:rgb(23,65,145);fill-rule:nonzero;"/>
        </g>
        <g transform="matrix(1,0,0,1,-225.649998,0)">
            <path d="M311.65,13.14C311.65,13.14 280.18,10.93 280.4,35.57C280.85,62.74 333.4,63.34 348.4,55.37C337.26,58.75 298.51,59.93 292.77,36.43C287.87,15.79 311.61,13.14 311.61,13.14" style="fill:rgb(226,27,55);fill-rule:nonzero;"/>
        </g>
        <g transform="matrix(1,0,0,1,-225.649998,0)">
            <path d="M278.5,40.19C270.64,40.19 264.27,38.57 264.27,36.55C264.27,34.53 270.64,32.92 278.5,32.92L279.23,32.92C279.396,30.879 279.802,28.865 280.44,26.92C263.35,27.65 246.59,32.4 246.59,36.66C246.59,40.92 265.16,46.8 282.79,47.2C281.332,45.08 280.284,42.706 279.7,40.2L278.5,40.2" style="fill:rgb(23,65,145);fill-rule:nonzero;"/>
        </g>
        <g transform="matrix(1,0,0,1,-225.649998,0)">
            <path d="M341.49,36.2L317.99,36.2C317.819,35.523 317.475,34.902 316.99,34.4L339.24,34.4C339.281,34.407 339.322,34.41 339.364,34.41C339.786,34.41 340.134,34.062 340.134,33.64C340.134,33.218 339.786,32.87 339.364,32.87C339.322,32.87 339.281,32.873 339.24,32.88L315.09,32.88C311.09,30.32 303.26,28.24 294.26,27.36C293.41,30.09 293.66,33.5 294.38,36.96C295.12,40.523 297.097,43.713 299.96,45.96C305.85,44.88 310.85,43.28 314.08,41.39L335.81,41.39C335.851,41.397 335.892,41.4 335.934,41.4C336.356,41.4 336.704,41.052 336.704,40.63C336.704,40.208 336.356,39.86 335.934,39.86C335.892,39.86 335.851,39.863 335.81,39.87L316.25,39.87C316.941,39.314 317.49,38.601 317.85,37.79L341.49,37.79C342.56,37.79 342.87,36.27 341.49,36.27" style="fill:rgb(23,65,145);fill-rule:nonzero;"/>
        </g>
    </g>
</svg>
