<?xml version="1.0" encoding="UTF-8" standalone="no"?><!DOCTYPE svg PUBLIC "-//W3C//DTD SVG 1.1//EN" "http://www.w3.org/Graphics/SVG/1.1/DTD/svg11.dtd"><svg width="100%" height="100%" viewBox="0 0 174 112" version="1.1" xmlns="http://www.w3.org/2000/svg" xmlns:xlink="http://www.w3.org/1999/xlink" xml:space="preserve" xmlns:serif="http://www.serif.com/" style="fill-rule:evenodd;clip-rule:evenodd;stroke-linejoin:round;stroke-miterlimit:2;"><g id="layer1"><path id="path1173" d="M87.914,0.007c-3.18,-0.051 -6.331,0.168 -9.422,0.644c-18.545,2.852 -34.954,14.939 -42.81,32.9l3.84,1.68c9.701,-22.181 33.43,-34.677 57.208,-30.123c0.622,0.119 1.232,0.265 1.845,0.406l0,0.018c15.528,3.576 29.093,14.198 35.872,29.699l3.836,-1.68c-4.959,-11.339 -13.307,-20.26 -23.392,-26.049c-0.195,-0.113 -0.387,-0.231 -0.583,-0.341c-0.397,-0.222 -0.799,-0.432 -1.201,-0.644c-0.567,-0.301 -1.14,-0.594 -1.719,-0.877c-0.245,-0.119 -0.492,-0.235 -0.739,-0.35c-0.877,-0.413 -1.767,-0.807 -2.67,-1.175c-3.331,-1.36 -6.824,-2.421 -10.467,-3.119c-3.209,-0.615 -6.419,-0.938 -9.599,-0.989l0,-0Zm50.452,62.608c-2.273,17.629 -13.237,32.194 -28.252,39.687c-0.164,0.082 -0.323,0.174 -0.488,0.255c-0.968,0.47 -1.96,0.898 -2.959,1.309c-0.272,0.112 -0.542,0.229 -0.816,0.337c-1.009,0.394 -2.034,0.752 -3.071,1.084c-0.245,0.079 -0.492,0.154 -0.739,0.229c-1.107,0.336 -2.225,0.649 -3.361,0.912c-22.968,5.333 -46.711,-5.479 -57.658,-26.507l-3.706,1.927c11.652,22.383 36.788,34.056 61.26,28.866l0,0.056c0.528,-0.112 1.041,-0.267 1.564,-0.393c0.355,-0.086 0.712,-0.14 1.067,-0.233c0.241,-0.064 0.469,-0.15 0.708,-0.216c0.791,-0.219 1.569,-0.465 2.346,-0.717c0.549,-0.179 1.097,-0.357 1.637,-0.553c0.923,-0.332 1.83,-0.693 2.73,-1.071c0.313,-0.133 0.627,-0.264 0.937,-0.402c1.119,-0.495 2.216,-1.025 3.296,-1.59c0.073,-0.038 0.144,-0.079 0.216,-0.117c1.197,-0.633 2.367,-1.306 3.512,-2.022c13.824,-8.636 23.71,-23.134 25.924,-40.305l-4.147,-0.536Z" style="fill:#243268;fill-rule:nonzero;"/><path id="path1175" d="M160.165,23.741c-0.681,-0.003 -1.321,0.326 -1.715,0.881l-16.001,22.71l-113.687,0c-8.239,0 -14.455,2.061 -19.055,5.568c-4.6,3.507 -7.51,8.369 -9.569,13.651c-0.092,0.239 -0.138,0.492 -0.138,0.748c0,1.144 0.939,2.086 2.082,2.09l49.623,0l2.419,-4.177l-48.124,0c1.694,-3.381 3.354,-6.782 6.238,-8.981c3.8,-2.898 8.968,-4.717 16.524,-4.717l114.78,0c0.681,0.003 1.321,-0.326 1.715,-0.881l15.984,-22.714l6.415,0l-7.94,17.323l4.596,0l8.506,-18.545c0.123,-0.272 0.187,-0.566 0.187,-0.865c0,-1.147 -0.943,-2.09 -2.09,-2.09c-0.004,0 -0.007,0 -0.011,0l-10.739,0Z" style="fill:#243268;fill-rule:nonzero;"/></g></svg>