<svg role="img" viewBox="0 0 24 24" xmlns="http://www.w3.org/2000/svg" fill="#fed9a0"><title>Air India</title><path d="M23.485 16.5771c.2537-1.878-.2032-3.5021-.5842-4.568-.2661-.7486-.4817-1.345-.6725-1.878-.8626-2.4234-1.0275-2.8676-1.624-5.291l-.2031-.7995-.7867-.2538c-2.3854-.774-2.8041-.9643-5.1642-2.0175-.52-.2284-1.104-.4948-1.8272-.812-.8503-.368-2.1445-.8756-3.705-.9264-2.3983-.0888-4.6948.8882-6.8394 2.893l.0383-.0126C1.5712 3.3935 1.013 3.9518.4418 4.599c0 0 .013.038.1395-.0634.749-.609 3.198-2.893 9.8596.1015 3.2734 1.4718 6.4202 2.7788 6.4202 2.7788s1.028 3.2356 2.2081 6.6362c2.3978 6.89-.0889 9.136-.7613 9.8211-.102.1142-.0636.1269-.0636.1269.9645-.6979 1.7382-1.3957 2.3854-2.081 1.624-1.6368 2.5885-3.426 2.8553-5.3419z" style="fill:url(#a)"/><path d="m20.4141 4.0152-.7867-.2538c-2.3854-.774-2.804-.9643-5.1641-2.0175-.5206-.2284-1.1041-.4948-1.8272-.812-.8503-.368-2.1446-.8756-3.7056-.9263-2.3977-.0888-4.6948.8882-6.8388 2.893l.0377-.0127C1.5842 3.3681 1.026 3.9264.4548 4.5735c0 0 .0123.0381.1395-.0634.7484-.609 3.1974-2.893 9.859.1015 3.274 1.4719 6.4207 2.7788 6.4207 2.7788z"/><defs><linearGradient id="a" x1="198.42" y1="71.1854" x2="157.529" y2="15.5605" gradientUnits="userSpaceOnUse" gradientTransform="matrix(.6175 0 0 .6175 -90.0162 -9.6252)"><stop offset=".1805" stop-color="#FED9A0"/><stop offset=".3124" stop-color="#ECC890"/><stop offset=".5738" stop-color="#BF9A66"/><stop offset=".7464" stop-color="#9E7947"/></linearGradient></defs></svg>