<svg role="img" viewBox="0 0 24 24" xmlns="http://www.w3.org/2000/svg" fill="#000000"><title>Air New Zealand</title><path d="M3.49 19.53C4.714 22.317 6.745 24 9.23 24c2.339 0 3.924-1.94 3.924-3.785 0-2.1-1.474-3.472-3.21-3.472-1.857 0-2.25 1.522-2.25 1.907 0 .879.675 1.698 1.536 1.698 1.356 0 1.458-1.175 1.458-1.175s.418.28.418 1.039c0 .72-.568 1.638-1.876 1.638-1.043 0-2.582-.596-3.642-3.035-1.249-2.852-1.335-3.7-1.335-3.7h16.432l.937-2.273H.951c0 .003 1.092 3.421 2.54 6.689zM6.248 9.38s1.28-1.875 4.008-4.677c.683-.697 2.48-2.461 4.305-2.461 1.201 0 2.132.815 2.132 1.924 0 1.102-.858 1.419-.858 1.419.087-.47-.185-1.753-1.32-1.753-1.171 0-1.669.977-1.669 1.632 0 1.35 1.12 2.319 2.428 2.319 2.513 0 3.683-1.945 3.683-3.832 0-1.903-1.68-3.951-4.396-3.951-2.493 0-4.805 1.923-6.12 3.325-4.672 4.968-7.138 8.32-7.138 8.32h20.812l.934-2.268H6.246Z"/></svg>