<svg role="img" viewBox="0 0 64 64" xmlns="http://www.w3.org/2000/svg" fill="#9b308c"><title>Peach Aviation</title><path d="M52.9414 21.9736v15.752H55.75v-15.752Zm-19.164 4.0528c-3.2711 0-5.9376 2.6684-5.9376 5.9394s2.6665 5.9375 5.9375 5.9375c.8534 0 1.6718-.178 2.3829-.498v-3.414c-.569.6755-1.4229 1.1034-2.3829 1.1034-1.7421 0-3.1289-1.4222-3.1289-3.1289 0-1.7422 1.4223-3.1289 3.129-3.1289 1.7421 0 3.1288 1.3867 3.1288 3.129v5.7226h2.8086v-5.7227c0-3.271-2.6664-5.9394-5.9375-5.9394zm24.6757 0c-.6755 0-1.3506.1437-1.955.3925v3.4122c.4977-.6045 1.2084-.959 1.955-.959 1.4933 0 2.7012 1.4222 2.7012 3.1289v5.7246h2.8086L64 31.9658c0-3.271-2.4891-5.9394-5.5469-5.9394zM0 26.0634v2.8438c.8889.1422 1.6722.64 2.17 1.3867.2488-.96.7095-1.849 1.3495-2.5957l.0371-.0703c-.9244-.8888-2.17-1.4578-3.5566-1.5644Zm8.6758 0c-1.5644 0-2.951.6045-4.0176 1.5645l.0352.0703c.64.7467 1.1026 1.6358 1.3515 2.5957a3.1092 3.1092 0 0 1 2.5957-1.3867c1.7422 0 3.129 1.4223 3.129 3.129 0 1.7421-1.4223 3.1288-3.129 3.1288-.96 0-1.8139-.426-2.3828-1.1015v3.412c.7467.32 1.5295.4981 2.3828.4981 3.271 0 5.9375-2.6664 5.9375-5.9375.0356-3.3066-2.6313-5.9726-5.9023-5.9726zm12.586.0352c-3.2711 0-5.9376 2.6665-5.9376 5.9375s2.6665 5.9375 5.9375 5.9375c2.6666 0 4.9073-1.7424 5.6895-4.1601h-3.164c-.569.8177-1.494 1.3515-2.5606 1.3515-1.3511 0-2.5246-.8887-2.9512-2.0976h8.8183c.0712-.32.1055-.6757.1055-1.0313 0-3.271-2.6664-5.9375-5.9375-5.9375zm25.0663 0c-3.271 0-5.9375 2.6665-5.9375 5.9375s2.6665 5.9375 5.9375 5.9375c2.5955 0 4.7639-1.6362 5.6172-3.9472h-3.1992c-.5689.6755-1.458 1.1386-2.418 1.1386-1.7422 0-3.1289-1.4222-3.1289-3.1289 0-1.7066 1.4223-3.1289 3.129-3.1289.96 0 1.849.4276 2.4179 1.1387h3.1992c-.8178-2.311-3.0217-3.9473-5.6172-3.9473zM4.125 28.1611c-.8889 1.0311-1.4219 2.3821-1.4219 3.8399v10.0254h2.8086v-9.8828c.0356-.0712.0352-.107.0352-.1426 0-1.4578-.533-2.8088-1.4219-3.8399zm17.1016.711c1.2444 0 2.3104.7462 2.8437 1.7773h-5.6875c.4978-1.0666 1.5993-1.7773 2.8438-1.7773z"/></svg>