<svg role="img" viewBox="0 0 64 64" xmlns="http://www.w3.org/2000/svg" fill="#01426a"><title>Alaska Airlines</title><path d="M26.268 18.2c-2.623 0-3.958.71-6.536 2.532L11.112 27H5.554c-1.6 0-2.888.044-3.91 1.021L.223 29.355s4.178-.177 8.045-.31L0 35h3.6l8.445-6.133c1.644-.044 2.799-.09 2.799-.09C16.799 28.733 17.91 27 17.91 27h-3.244l6.846-4.979-5.067 8.268c-1.11 1.911-1.601 3.244-1.779 4.711H17.6c.133-1.244.533-2.488 1.289-3.777l6.933-11.557c.49-.8.889-1.467.889-1.467h-.443zm4.71.755c-1.822 0-2.844.624-3.867 2.313L22 29.844c-1.244 2.133-1.867 3.6-2.045 5.156h2.846a9.115 9.115 0 0 1 1.289-3.777l7.287-12.268h-.398zm22.754.578c-1.822 0-2.887.622-3.865 2.31L42.133 34.91h2.756l2.4-4.043 1.29 4.889a2.428 2.428 0 0 0 2.355 1.822h.843l-2.443-7.512 6.488-4.533h-3.111L48.844 28.2 54 19.533h-.268zm-11.51 6c-2.755 0-4.711 1.288-4.978 3.022-.133.889.134 1.466 1.156 2.177l.621.446c.534.4.668.667.624.933-.045.4-.49.934-1.645.934-.8.044-1.422-.09-2.533-.268l-1.156 2c1.6.267 2.178.313 3.511.313 3.022 0 4.49-1.556 4.756-3.512.089-.711-.267-1.555-1.111-2.133l-.801-.535c-.533-.311-.62-.444-.576-.71.044-.4.576-.667 1.332-.712.8 0 1.911.046 2.578.09l1.066-1.867c-1.022-.133-1.999-.178-2.843-.178zm-8.71.045c-3.69 0-6 2.178-8 6.889-.49 1.2-.8 2.667.933 2.623.978 0 2.622-.534 3.733-1.334-.09.4-.133.933-.088 1.244h2.576c.089-1.022.49-2.267 1.334-3.822l3.29-5.422a35.26 35.26 0 0 0-3.778-.178zm26.71 0c-3.688 0-6 2.178-8 6.889-.488 1.2-.8 2.667.934 2.623.978 0 2.622-.534 3.733-1.334-.09.4-.133.933-.088 1.244h2.576c.089-1.022.49-2.267 1.334-3.822L64 25.756a35.26 35.26 0 0 0-3.777-.178zM33.29 27.223h.356l-2.844 4.62c-.534.49-1.557 1.245-2.446 1.29-.622-.045-.622-.577-.222-1.377 1.555-2.978 3.156-4.533 5.156-4.533zm26.756 0h.355l-2.845 4.62c-.534.49-1.555 1.245-2.444 1.29-.622-.045-.622-.577-.222-1.377 1.555-2.978 3.156-4.533 5.156-4.533zm2.355 6.045c-.488 0-.888.442-.888.931 0 .534.4.934.888.934a.94.94 0 0 0 .934-.934.938.938 0 0 0-.934-.931zm0 .132c.4 0 .711.356.711.756 0 .445-.31.754-.71.754-.4 0-.712-.31-.712-.754S62 33.4 62.4 33.4zm-.267.31v.98h.178v-.313h.09l.222.355h.22l-.22-.398a.335.335 0 0 0 .22-.313c0-.177-.177-.31-.355-.31h-.355zm.178.179h.134c.134 0 .178.044.178.132 0 .09-.044.135-.178.135v.043h-.134v-.31zm-7.067 6.756c-.933 0-1.732.665-1.732 1.554 0 .756.532 1.246 1.332 1.424l.71.133c.4.044.624.267.624.578 0 .356-.268.621-.801.621-.711 0-1.065-.445-1.11-.934l-.89.223c.089.711.667 1.557 2 1.557 1.156 0 1.822-.801 1.822-1.557 0-.711-.488-1.289-1.422-1.467l-.71-.132c-.356-.09-.534-.312-.534-.579 0-.31.312-.62.801-.62.667 0 .89.444.934.71l.798-.222c-.133-.534-.622-1.29-1.822-1.29zm-48.756.044-1.91 5.022H5.6l.4-1.156h2.045l.443 1.156h1.067l-1.91-5.022H6.488zm6.533 0v5.022H14v-5.022h-.979zm5.247 0v5.067h.976V43.8h.488l.979 1.91h1.111l-1.066-2.045c.667-.178 1.066-.71 1.066-1.422 0-.889-.622-1.555-1.6-1.555h-1.954zm7.51 0v5.022h3.2v-.934h-2.222V40.69h-.979zm7.023 0v5.022h.976v-5.022h-.976zm5.244 0v5.022h.976v-3.555l2.268 3.555h1.022v-5.022h-.977v3.332l-2.09-3.332h-1.2zm8.533 0v5.067h3.154v-.934h-2.177v-1.156h1.957v-.889h-1.957v-1.154h2.177v-.934h-3.154zm-27.334.844h.8c.49 0 .8.267.8.711 0 .445-.31.711-.8.711v-.045h-.8v-1.377zm-12.223.223.711 1.91H6.355l.666-1.91z"/></svg>