<?xml version="1.0" encoding="UTF-8" standalone="no"?>
<!DOCTYPE svg PUBLIC "-//W3C//DTD SVG 1.1//EN" "http://www.w3.org/Graphics/SVG/1.1/DTD/svg11.dtd">
<svg width="100%" height="100%" viewBox="0 0 3582 1822" version="1.1" xmlns="http://www.w3.org/2000/svg" xmlns:xlink="http://www.w3.org/1999/xlink" xml:space="preserve" xmlns:serif="http://www.serif.com/" style="fill-rule:evenodd;clip-rule:evenodd;stroke-linejoin:round;stroke-miterlimit:2;">
    <g transform="matrix(12.5,0,0,12.5,0,0)">
        <g transform="matrix(1,0,0,1,-863.859886,-15.899345)">
            <path d="M895.16,136.5C933.09,106.12 960.17,80.1 968.24,65.98C971.67,60.55 972.77,55.34 970.87,51.1C967.33,43.21 954.85,40.82 939.44,43.77C1007.3,28.62 1077.33,19.14 1149.04,15.9C1149.67,15.88 1150.23,16.32 1150.34,16.94C1150.45,17.55 1150.09,18.15 1149.49,18.34C1060.18,47.03 978.89,93.51 909.81,153.63C909.72,153.71 909.62,153.75 909.51,153.77L864.56,161.57C863.93,161.68 863.6,160.86 864.11,160.48C875.07,152.3 885.46,144.26 895.16,136.5" style="fill:rgb(215,33,27);fill-rule:nonzero;"/>
        </g>
    </g>
</svg>
