<svg role="img" viewBox="0 0 64 64" xmlns="http://www.w3.org/2000/svg" fill="#ff0000"><title>AirAsia</title><path d="M16.283 18.17c-1.387-.126-6.2 6.871-10.066 13.675-1.823.554-3.653 1.21-5.329 1.977-1.121.509-.9 1.448-.804 1.928.14.671.862.965 1.437.64.871-.494 1.875-.967 2.946-1.402-.03.074-.045.11-.03.103C2.97 37.874 1.324 41.763.785 43.49c-.303.967.177 1.83 1.004 2.207.819.376 1.38-.023 1.652-1.322.347-1.61 2.428-6.598 4.531-10.627 0 0 .008-.014.03-.043a83.537 83.537 0 0 1 3.763-1.1c-.738 3.173-.929 4.486-.922 5.578.008 1.07.399 2.326 1.565 2.156 1.159-.17.974-1.278 1.1-2.296.295-2.34.346-3.357.892-6.036.015 0 .03-.03.045-.074a86.93 86.93 0 0 1 3.174-.701c-.11.236-.238.502-.371.775a45.67 45.67 0 0 0-1.416 3.262c-.325.93-.517 1.66-.56 2.287-.104 1.373.471 2.11 1.49 1.918.76-.147 1.926-1.18 3.24-3.254-.148.495-.235.902-.243 1.153-.044 1.07.486 1.947 2.198.78.17-.117.192-.287.199-.626.089-1.159.554-2.686 1.58-4.258.804-1.21 1.365-1.897 2.096-2.215 1.299-.568 2.125-.392 2.855-1.277.709-.864-.767-1.792-1.424-1.666l-.015.006c-.347.066-.744.14-2.301 1.97.384-.708.51-1.29.037-1.607-.494-.332-1.344-.076-1.816.234-.295.192-.302.29-.346.659-.044.243-.26.781-.414 1.084l-.473 1.02c-1.786 3.143-2.789 4.007-3.084 4.368-.302.332-.555.522-.724.559-.133.03-.192-.072-.17-.234.014-.259.111-.614.318-1.079.34-.782.879-1.94 1.307-2.714.229-.465.826-1.56.826-1.56.56-1.268-.502-1.703-1.129-1.614-.184.03-2.148.259-4.398.642 1.225-5.18 1.129-4.407 2.398-7.728.627-1.616.56-1.991.03-2.604-.525-.612-.436-1.284-1.026-1.343zm26.685 0c-1.387-.126-6.178 6.84-10.044 13.63-1.816.554-3.645 1.219-5.313 2.016-1.048.494-.834 1.438-.73 1.918.132.672.826.98 1.365.656.863-.516 1.86-.995 2.937-1.445-.051.103-2.945 5.88-3.705 8.545-.28.974.178 1.83 1.004 2.207.82.376 1.38-.023 1.66-1.315.347-1.608 3.092-8.059 4.598-10.738a74.779 74.779 0 0 1 3.727-1.092c0 .022-.923 3.742-.93 5.639 0 1.07.398 2.326 1.564 2.156 1.166-.17.975-1.278 1.108-2.297.295-2.34.339-3.358.892-6.037.015 0 .037-.051.067-.125.31-.074.597-.14.863-.199 1.461-.325 1.875-.31 1.978-1.46.06-.71-1.564-.51-2.066-.436h-.023c-.118.022-.236.036-.354.058 1.233-5.188 1.122-4.413 2.406-7.734.62-1.616.554-1.991.03-2.604-.524-.612-.436-1.292-1.034-1.344zm-28.177 4.28c-.871 2.156-1.748 5.047-2.479 7.866a71.53 71.53 0 0 0-2.85.643c1.69-3.048 3.58-6.11 5.329-8.508zm26.687 0c-.87 2.148-1.742 5.033-2.472 7.852-.886.177-1.845.376-2.834.62 1.69-3.041 3.564-6.08 5.306-8.471zm13.256.874c-.097-.002-.2.006-.305.025-.834.163-1.564.946-1.63 1.758-.067.812.56 1.342 1.402 1.187.833-.162 1.572-.944 1.63-1.755.059-.71-.414-1.206-1.097-1.215zM21.64 24.48c-.097 0-.198.009-.302.03v-.008c-.834.154-1.565.944-1.631 1.763-.067.812.56 1.344 1.402 1.182.834-.155 1.565-.946 1.631-1.758.058-.71-.42-1.205-1.1-1.209zm38.256 2.074a1.532 1.532 0 0 0-.234.014c-.967.133-2.481 1.32-3.817 2.988-.494.561-2.162 2.82-2.36 3.108l-.259.347c-.723 1.004-.929 1.248-1.254 1.602-.317.317-.584.501-.754.523-.132.015-.184-.075-.162-.252.037-.258.14-.612.37-1.054.376-.768.973-1.898 1.431-2.65.25-.458.686-1.275.723-1.364l.252-.43c.103-.184.161-.347.183-.502.148-.797-.634-1.18-1.254-1.129-.28.023-.76.23-.996.414-.184.126-.214.178-.273.436-.059.325-.493 1.268-.943 2.11a40.55 40.55 0 0 0-1.567 3.189c-.376.915-.589 1.637-.67 2.25-.177 1.372.369 2.132 1.395 1.992.767-.11 1.586-.855 2.597-2.014.325-.369.68-.886 1.026-1.418-.185 1.52.562 2.577 1.853 2.393.857-.126 1.578-.754 2.508-1.787.126-.126.17-.176.236-.184.067-.007.125.045.125.17l.045.14c.126.695.642 1.018 1.395.915.915-.126 1.926-.82 3.033-2.229.893-1.107 1.255-1.926 1.44-2.427.213-.576-.59-.79-.967-.162l-.008.007c-.376.613-.708 1.129-1.188 1.653-.435.48-.776.664-.968.597-.495-.177-.205-.893.297-1.941.235-.487.574-1.13.877-1.676.435-.708.523-.915.552-1.166.045-.361-.184-.604-.855-.885-.429-.191-.464-.228-.64-.73-.214-.536-.636-.84-1.169-.848zm-.047 2.022c.18.005.244.143.211.427-.088.702-1.445 3.283-2.316 4.413-.65.87-1.255 1.409-1.61 1.46-.22.037-.347-.177-.302-.501.096-.79 1.366-3.173 2.31-4.354.642-.82 1.313-1.4 1.623-1.437a.49.49 0 0 1 .084-.008zm-12.134.138c-.562.015-1.359.12-2.502 1.248-.532.524-2.191 2.9-.96 4.952.333.56 1.129 1.24.62 1.757-.797.812-2.185-.442-2.444-.826-.118-.17-.464-.378-.685-.039-.126.207-.747 1.36-.65 1.787.28 1.329 1.919 1.706 2.671 1.617l-.013-.007c.959-.096 3.748-.739 3.777-3.942.008-1.24-1.13-1.888-1.41-2.752-.17-.531-.125-1.638.68-1.963.996-.405 1.196.272 1.543.782.14.214.597.162.76-.008.213-.236.53-.59.671-1.188.125-.546-.442-1.467-2.058-1.416z"/></svg>