<svg role="img" viewBox="0 0 24 24" xmlns="http://www.w3.org/2000/svg" fill="#cd1025"><title>Paranair</title><path d="m5.18 6.986 5.332.882-.198 3.063-6.7-.022a8.608 8.608 0 0 0-.066 1.08c0 1.477.375 2.865 1.058 4.077l-3.592.771A11.865 11.865 0 0 1 0 11.99C0 5.73 4.804.595 10.91.022l-.31 3.636a8.348 8.348 0 0 0-5.42 3.328ZM12.01 24c4.055 0 7.625-2.006 9.807-5.09l-5.972.594a8.348 8.348 0 0 1-3.835.926 8.281 8.281 0 0 1-3.835-.926l-5.972-.595A12 12 0 0 0 12.01 24m1.388-20.364L13.091 0C19.196.573 24 5.708 24 11.967c0 1.719-.375 3.372-1.014 4.848l-3.592-.77a8.503 8.503 0 0 0 .992-5.158l-6.7.022-.22-3.063 5.333-.882a8.475 8.475 0 0 0-5.4-3.328Z"/></svg>