<svg id="logosandtypes_com" xmlns="http://www.w3.org/2000/svg" viewBox="0 0 150 150"><path d="M0 0h150v150H0V0z" fill="none"/><path d="M91 6.6c-11.5-.1-22.8 3.3-32.3 9.8-9.8 6.5-15.9 14.4-18.2 23.6l-15.6 62.6c-2.3 9.3-.1 17.2 6.5 23.8 6.7 6.6 15.8 9.9 27.4 9.9 8 0 16-1.7 23.4-5 7.4-3.2 13.5-7.5 18.4-12.9l-11.5-1.2c-8.8-1.7-16.3-11.1-22.6-28.1-4.1-11.2-7.6-19-10.5-23.1-1.8-2.7-3.9-5.1-6.4-7.1-3.1-2.4-6-3.6-8.5-3.6V55H56c4.8 0 9.4 1.8 12.9 5l3.3 3.6 2.7 4c2.1 3.9 5.5 11.6 10 23.4l1.2 3.3c4.7 11.8 10 19.4 16 22.7l2.3-3.1c-5.5-4.1-10.5-12.3-15-24.6-4-11-7.6-18.8-10.7-23.4-2.2-3.3-4.4-5.7-6.4-7.3-3-2.3-5.8-3.4-8.4-3.4V55h14.7c4.8 0 9.3 1.8 12.8 5l3.4 3.6 2.6 4c2.4 4.1 5.7 11.8 10.1 23.3l3 7.4L125 40.2c2.3-9.3.1-17.2-6.5-23.7S102.7 6.6 91 6.6zM52.5 81.9c2.4 0 4.8.4 7.1 1.4 4.4 11.5 7.5 18.7 9.2 21.5l1.3 2.2c-1.2 3.6-3.6 6.7-6.7 8.9-3.2 2.3-7 3.5-10.9 3.5-5 .1-9.8-1.9-13.2-5.5-7.3-7.2-7.4-19-.1-26.3l.1-.1c3.5-3.6 8.2-5.6 13.2-5.6z" fill="#cc1f2f"/></svg>