<svg role="img" viewBox="0 0 24 24" xmlns="http://www.w3.org/2000/svg" fill="#005d63"><title>Cathay Pacific</title><path d="M21.834 15.9669c-.1006-.3682-1.163-.2118-2.041-.2921-.7942-.0699-1.8168-.218-3.0468-.6457-1.1484-.4043-2.259-.8677-3.2272-1.3949 0 0-.396-.2096-.438-.2327-.0775-.0488-.1403-.0847-.224-.1333-.0441-.0297-.1196-.0745-.1697-.0954-.0694-.0317-.1133-.0678-.174-.1038-.0588-.0379-.1426-.078-.199-.1142-.0923-.0572-.1468-.0974-.2306-.161-.0503-.038-.0776-.0508-.1467-.0887-.042-.0275-.1153-.0701-.155-.0954-.0776-.0508-.1259-.0952-.2034-.146-.0502-.0381-.0838-.0592-.1403-.0953-.0588-.0317-.1133-.0783-.1634-.1143-.0274-.0212-.063-.0443-.0902-.072-.0566-.0548-.113-.1056-.1739-.1502-.0525-.0424-.1047-.0954-.1614-.1335a3.3234 3.3234 0 0 0-.1256-.1036c-.086-.0614-.1405-.11-.2286-.1715-.0544-.0423-.1025-.0995-.157-.1439-.065-.0464-.1216-.0996-.1888-.1417-.0397-.034-.0878-.07-.1192-.1058-.0442-.0488-.0797-.0826-.128-.1313-.0334-.036-.0923-.0783-.1278-.1143-.0565-.0678-.132-.1377-.2012-.1947-.0439-.0424-.0566-.0615-.0733-.0825-.0125-.0193-.0314-.0404-.0608-.0721l-.0628-.0635c-.0167-.0148-.0336-.0297-.0797-.0762-.0145-.0147-.042-.0528-.067-.0868-.0209-.0275-.042-.0572-.0525-.072-.046-.0486-.0753-.0761-.1025-.11-.0211-.0234-.044-.0487-.0734-.0741a.2871.2871 0 0 1-.042-.0615.417.417 0 0 0-.0418-.0592c-.0273-.0317-.0462-.0189-.0523-.0149-.0147.0149-.021.0404-.0022.0785.0209.0422.0544.089.0755.1163a.043.043 0 0 0 .0104.0148c.0063.0149.0147.0275.021.0424a.5936.5936 0 0 1 .0356.0614c.0356.0444.0733.0783.1028.1143l.0355.0361c.0209.0253.042.0508.0587.0761.0188.0295.0377.0592.0628.0867.0127.0086.021.0213.0336.0362.0083.0146.021.0295.0335.0464l.0587.0594c.0314.0337.067.0654.0964.0931.023.0211.0503.0486.0775.0761.0628.0761.1341.1546.1908.2287.0334.0424.092.0739.132.1036.048.034.0775.0847.111.127.027.0318.0837.0804.1068.1165.065.0825.111.1311.197.1905.0502.0402.0902.072.1321.1271.0229.0295.0962.1036.1256.1353.0692.0912.1006.1777.09.1777-.048.0129-.1655-.093-.2345-.1353-.0588-.0381-.0671-.053-.1194-.0952-.0147-.0128-.0986-.0742-.1278-.1102-.0233-.0233-.086-.089-.107-.1162-.0963-.125-.132-.1335-.2452-.2413-.0839-.0825-.1823-.1546-.264-.231a1.15 1.15 0 0 1-.0713-.074c-.023-.0275-.0566-.053-.0795-.076-.04-.0489-.088-.14-.1322-.1758-.048-.0361-.0817-.0656-.1278-.106-.0188-.0084-.0334-.0297-.048-.0443-.0253-.0149-.0525-.036-.0692-.0615-.0545-.0656-.107-.1375-.1614-.2074-.023-.0359-.0628-.0636-.0859-.0973-.0544-.0742-.0986-.1524-.153-.2265-.0755-.0996-.1823-.1715-.2598-.271-.0713-.1017-.1194-.2223-.1886-.3281-.0294-.0486-.0775-.0847-.1111-.1249-.0209-.0275-.0294-.0572-.048-.0867a6.5685 6.5685 0 0 0-.1217-.1715c-.0481-.0698-.0817-.1546-.132-.2307-.0084-.0126-.0272-.0594-.0525-.1017-.0334-.0402-.0608-.0824-.0942-.1374-.0314-.0532-.0503-.0891-.0733-.1293-.0272-.0381-.042-.074-.0608-.1015-.0147-.0255-.0503-.0741-.0628-.0954-.0483-.0677-.0589-.1036-.107-.1715-.0292-.0359-.0608-.0696-.0838-.059-.021.0147-.0148.038-.0084.057.0169.0572.0169.0488.042.091.0377.0678.0502.1016.0922.163.0167.0317.0502.1016.0775.142.0272.038.0503.0802.0691.114.0167.0361.0462.123.0776.1588.0208.0255.0483.0827.065.1206.0419.0785.09.142.132.2034.0271.0508.0544.1058.0796.1544.0545.0847.1195.1588.174.2435l.0963.1777c.0314.0488.0775.0891.1067.14.04.057.0609.1226.0986.1796.0273.0488.0692.0892.0986.1378.0545.0783.1026.1523.155.2264.0314.0424.0692.0741.0984.1165.04.057.0734.1204.1175.1692.0503.0488.0628.0785.1047.1229.0628.074.2053.2857.1843.2857-.0879.0106-.2534-.18-.329-.2476-.0522-.055-.113-.0953-.1508-.1461-.0545-.0783-.0964-.163-.1509-.235-.0208-.0274-.0566-.0485-.0733-.0762-.0398-.0486-.0753-.1016-.1195-.148-.0188-.017-.0397-.0299-.0544-.051-.0692-.091-.1256-.184-.1948-.2772-.0252-.036-.063-.07-.088-.1079-.0211-.0275-.0336-.0572-.0545-.0911-.023-.0424-.0608-.0825-.086-.1249-.021-.0297-.0334-.0634-.0545-.089-.0336-.057-.0839-.1037-.1195-.1607-.0272-.0446-.0334-.1016-.0628-.1504-.0755-.1122-.1594-.2307-.2305-.3471-.0167-.0297-.0273-.0613-.044-.0952-.0566-.0931-.113-.1927-.1739-.2879-.021-.034-.0294-.074-.0546-.106-.025-.0464-.067-.076-.092-.1184-.023-.0338-.0336-.0657-.0503-.1016-.021-.0488-.0503-.0994-.0755-.1418-.0148-.0317-.0231-.0614-.042-.089a3.327 3.327 0 0 1-.1844-.3535c-.0334-.0656-.0775-.1226-.107-.1883-.0333-.0698-.067-.1481-.0983-.216-.019-.0466-.0378-.0952-.0481-.1417-.0356-.0783-.0903-.142-.1237-.2203-.0232-.0486-.0357-.0994-.0566-.144-.0147-.0252-.0378-.0485-.0586-.0357-.0167.0105-.019.0316-.0064.074.0209.0824.0628.1694.0839.2157.042.089.0586.1843.1006.2733.021.0486.0544.0974.0753.1481l.1155.254c.0208.0444.0397.0932.0667.1355.0108.0275.0336.055.0442.0783.0252.0615.0335.1185.0566.1757.0314.0572.0753.1058.0964.163.1381.286.2745.5672.44.8234.044.072.067.1608.1131.2329.0503.076.1133.129.1614.2053.0356.0615.0483.144.0797.2074.0565.0974.1236.182.1823.2689.0147.0275.0188.055.0355.0782.021.036.0525.0741.0734.11.0294.0489.0441.1017.0775.144.0356.0486.0839.089.1153.1355.046.0615.0755.1313.1194.1884.0314.0423.0775.0718.109.1144.0504.0654.2243.2921.2746.3598.0733.0953.2095.2413.2745.3682.0189.0425.0858.1313.0711.1503-.0355.0275-.2053-.1608-.2347-.1903-.0692-.07-.132-.1632-.1928-.2415-.0167-.0189-.1822-.1777-.197-.197a1.0036 1.0036 0 0 1-.0439-.0696c-.0483-.0657-.0755-.1462-.1236-.2138-.021-.0233-.0503-.0444-.0711-.0721-.0358-.0506-.063-.1078-.0986-.1606-.0587-.0785-.1342-.1462-.1908-.231-.067-.0846-.1111-.1882-.174-.2794-.0333-.0423-.071-.0783-.1005-.1249-.0167-.021-.0209-.0421-.0334-.0634-.0252-.034-.0566-.0763-.0713-.1164-.019-.0362-.0314-.0679-.0523-.1016a36.8355 36.8355 0 0 1-.1992-.326c-.0294-.0444-.0483-.0994-.0775-.1482-.0483-.0761-.1174-.144-.1655-.2265-.0628-.0932-.0923-.2052-.1509-.3005-.0397-.0615-.088-.1185-.1236-.18-.0441-.0676-.065-.146-.1006-.216-.0358-.0612-.0839-.1206-.1133-.1818-.0314-.0701-.0522-.1356-.0836-.2054-.019-.036-.0462-.0741-.0609-.1123-.021-.0463-.0272-.0951-.0483-.1417-.0564-.1293-.1466-.252-.2053-.3788a2.4116 2.4116 0 0 1-.1172-.288c-.017-.053-.0275-.106-.0525-.1545-.0525-.1165-.1173-.2436-.172-.3642a17.8272 17.8272 0 0 0-.0647-.1861.1669.1669 0 0 0-.0147-.055c-.0253-.055-.0545-.108-.0756-.1633a5.4158 5.4158 0 0 1-.065-.1967c-.0816-.2074-.1591-.4425-.2367-.6603-.0083-.0404-.0125-.087-.0272-.1293-.0377-.112-.0797-.2265-.1194-.3385-.023-.0572-.0775-.0361-.0628.021.0145.0762.0272.0974.0355.1567.0064.0339.0126.0614.019.0911.0083.038.0293.0783.0397.112.0208.0679.023.1313.046.1992.0315.0867.0629.1777.0943.2688.0085.0422.0169.0888.0252.1376.0167.0421.0314.0889.0461.127.044.1143.09.22.1278.3343.0147.0637.0336.127.0503.195.0189.0357.0461.0718.0567.1078.0167.0275.0188.0592.0314.093.0294.07.0566.1463.0858.2182.0273.0592.063.1206.0859.1863.0105.0275.0105.055.021.0847.067.1925.1445.3935.2242.5734.0211.0465.0273.0911.0462.1397.0169.0381.0419.074.0566.1144.0084.0233.0167.0486.0272.0761.0253.0508.065.0954.092.1462.0714.1482.1322.2899.218.417.084.1144.1173.275.1784.417.0312.0634.067.1206.1047.1778.0187.0296.0314.0677.046.0974.0377.0719.0587.1353.1112.199.0356.055.0312.0696.0626.1417.0086.0211.0461.1608.0378.1608-.0125.0085-.0797-.0337-.1004-.0614-.0336-.0337-.0819-.0783-.1155-.1544-.0167-.0424-.05-.106-.067-.1417-.0419-.0932-.1172-.1695-.1675-.254-.0336-.0468-.0483-.106-.0755-.1588-.044-.0976-.0964-.197-.1425-.2985-.0189-.0402-.0483-.0783-.0734-.1187-.023-.0357-.0355-.0803-.0628-.1207-.0502-.0845-.113-.1776-.155-.2708-.0314-.0699-.0483-.1397-.0797-.2054-.0083-.021-.0272-.0423-.0397-.0634-.0211-.034-.0294-.0699-.0503-.11-.023-.053-.0567-.1016-.0839-.1566-.0483-.106-.0775-.214-.1258-.3154-.023-.053-.0628-.0954-.0837-.142-.0316-.074-.0377-.1672-.0775-.2455-.086-.2054-.1908-.417-.2725-.637-.0105-.0362-.0147-.0783-.0252-.1145-.0334-.0971-.0775-.184-.1153-.2752-.0145-.0422-.0167-.0783-.0292-.1207-.023-.0654-.0545-.1333-.0775-.1945-.0064-.0213-.0086-.0466-.017-.0679-.025-.057-.0419-.129-.069-.1903-.0148-.032-.0398-.0659-.0504-.0996-.025-.0634-.0186-.1377-.0375-.2012a7.9488 7.9488 0 0 0-.1008-.2688c-.0145-.0506-.0187-.0994-.0397-.1502-.021-.0592-.042-.1248-.0629-.1798-.023-.0637-.021-.123-.0419-.1886a.707.707 0 0 0-.0503-.1417c-.0292-.089-.042-.18-.0711-.2584a.2801.2801 0 0 0-.0147-.0422c-.0086-.0234-.0253-.0445-.0461-.0381-.0231.0084-.0231.0422-.0231.0634.0062.0593.0292.1165.0481.1695.0169.0508.0294.1078.042.1588.0083.0357.0063.0697.0146.1058.0126.0508.0295.0974.044.1482.0127.0443.0063.0971.0169.1333.0314.1058.0648.2264.1005.3258.0147.053.019.1145.0336.1568.0209.057.0376.112.0565.1628.0169.0488.021.087.0377.1291.021.0488.0461.0932.0608.1462.0167.0636.0167.129.0376.1883.04.1038.0839.197.1175.2963.0125.034.0147.0721.0272.1082.0314.0824.0523.1735.0797.258.0461.1165.1026.2351.1403.3536.0461.1164.0523.2562.0984.3642.0252.055.0755.089.0986.1397.0189.0357.0125.0719.025.1142.0127.0446.0336.0868.0483.1291.0106.0402.021.0761.0314.1123.019.0443.0525.0867.0672.129.0314.0697.0503.146.088.2054.027.0466.067.091.0943.146.0272.0572.0355.1206.0586.1799.0397.089.09.1714.1194.2668.0314.0803.042.1714.084.2433.0355.0763.0878.1418.1297.214.0233.055.0461.1058.0713.1649.021.0381.0587.0805.086.1248.0271.053.0607.1123.0838.1673.0209.0445.0272.0847.048.1228.0378.055.065.1038.1006.1609a1.117 1.117 0 0 1 .0903.1714c.0189.0488.0356.0932.0608.1333.0292.0382.0648.0763.0878.1145.0253.0423.0567.182.042.1863-.025.0104-.109-.0679-.134-.0954-.063-.0847-.0986-.1905-.1552-.275-.0648-.0932-.1047-.1442-.1528-.25-.0295-.0612-.0776-.1692-.1153-.2265-.0336-.0506-.0775-.0973-.1028-.1546-.0208-.0443-.0334-.1035-.0524-.1501-.0312-.0677-.0943-.112-.1257-.1777-.0397-.0785-.0544-.161-.0944-.2371-.0167-.0317-.0439-.0719-.0586-.11-.0209-.0468-.0334-.0912-.0545-.1378-.0439-.0953-.1109-.1736-.1508-.2708-.0481-.0974-.0733-.1991-.1236-.3007-.023-.0486-.065-.0974-.09-.1524-.0358-.0699-.0503-.1418-.086-.2136-.019-.0424-.0482-.085-.0693-.1271-.0272-.0592-.0377-.1291-.0648-.1927-.0672-.146-.13-.292-.195-.4381-.023-.057-.0294-.1122-.0564-.1715-.021-.0488-.0483-.0931-.0714-.1461-.0544-.1271-.0755-.2773-.132-.4042-.0293-.0658-.063-.127-.09-.1947-.0377-.1122-.0566-.2245-.0944-.3365-.0608-.1714-.111-.3535-.1719-.5186-.0167-.0552-.0209-.1018-.0375-.1546-.019-.051-.0356-.1017-.0547-.1503-.0125-.0382-.0209-.0996-.0334-.1504-.0441-.146-.088-.29-.1363-.4359-.0084-.0361-.0126-.0953-.025-.144-.0043-.0232-.0211-.0551-.0253-.0762-.0125-.0317-.0125-.0594-.0209-.0952-.0397-.106-.067-.2309-.1027-.3367-.0062-.0317-.0084-.0805-.021-.1206-.048-.1482-.0713-.3345-.1277-.474-.0125-.0255-.0294-.0532-.0567-.0468-.0272.0064-.0208.0361-.0188.0594.0083.0719.0336.1291.046.1883.0042.0233.0042.0593.0042.0888.0064.0277.0106.0616.019.085.0272.0909.0566.1967.0838.2876.0083.0424.0022.1082.0125.1566.0378.142.065.3134.1195.4447.0503.1142.0586.2562.088.383.0125.0529.0167.108.0209.1653.0105.0506.04.091.0566.1353.0125.034.0125.0614.023.0932.0253.0911.0462.184.0818.2752.021.0634.0544.1249.0755.1883.0125.0255.0062.0508.0145.0805.0147.0635.0274.127.0483.1904.042.123.0839.2604.1278.3832.0252.0719.0314.1398.0566.2074.0964.2668.199.5379.2934.8045.0189.0572.0334.1162.0483.1734.0209.0615.0564.1165.0837.1673.0336.0719.0377.144.065.218.0314.0825.0733.1504.1027.2413.0145.0424.0314.089.0503.1313.0145.0338.044.0635.0606.091.021.055.0253.1249.0525.1756.025.055.0692.0954.0986.1484.0314.0444.0334.1016.0564.1564.0398.0805.0839.1546.1195.2435.0167.0362.0252.0699.04.1036.0144.0382.048.0785.0647.1187 0 0 .0042 0 .0042.0022.0022.0084.0022.0149.0063.023a.2157.2157 0 0 0 .0147.0553c.0084.023.0356.0634.044.078.0063.0087.0252.03.04.0489a.1424.1424 0 0 1 .0208.0275c.0356.053.0377.1355.067.1947.0274.0615.0777.11.109.1695.021.0486.0315.167.0062.1692-.1194 0-.1297-.1692-.1675-.2562-.0356-.0718-.0817-.1289-.1195-.1967a.4272.4272 0 0 1-.0272-.0657c-.0085-.0212-.0189-.0465-.0272-.0676-.0147-.0317-.0147-.0297-.023-.0508-.0126-.0213-.0462-.0635-.0567-.087v-.004c-.0481-.072-.0797-.178-.1153-.2288-.0167-.0295-.042-.057-.0586-.0866-.0294-.0467-.0461-.1038-.0692-.161-.023-.0446-.0586-.0931-.0797-.1417-.0272-.0594-.0314-.1355-.0586-.197-.0147-.0317-.042-.0656-.0565-.0951-.0314-.0721-.0524-.1462-.088-.2138-.0169-.034-.04-.0637-.0588-.0974-.025-.0572-.0418-.1185-.0712-.1757-.0628-.1122-.13-.2371-.1822-.3578-.0295-.074-.042-.1461-.0734-.216-.0252-.0592-.0608-.1204-.088-.1756-.0167-.0382-.023-.0761-.0378-.1163-.025-.0699-.0544-.1397-.0817-.2076-.0147-.0423-.0272-.148-.0377-.1903-.021-.0488-.0461-.104-.067-.1526-.0316-.074-.0441-.1522-.0775-.2285-.023-.055-.0503-.1186-.0734-.1756-.0189-.0508-.021-.0954-.042-.144-.0146-.034-.0377-.0763-.0482-.1122-.0187-.0424-.0272-.1144-.042-.1717-.0208-.0634-.048-.1246-.067-.1883-.0146-.0466-.0146-.1566-.0293-.184-.0648-.1946-.1256-.4064-.1884-.6034-.0233-.0867-.0378-.1799-.065-.2686-.0084-.0361-.0084-.0805-.019-.1167-.0168-.0548-.0419-.1164-.0566-.1692-.0105-.0424-.0167-.0825-.025-.1207-.0105-.0401-.0316-.0845-.0461-.1248-.0378-.1165-.0567-.2436-.0903-.3556-.0147-.0508-.0147-.1124-.025-.1568-.0461-.1417-.0586-.3047-.0964-.4591-.0083-.0426-.0189-.0848-.0272-.1271-.0714-.2773-.1048-.5907-.1845-.8595-.0147-.0508.0022-.1142-.0063-.1713-.0189-.0614-.0356-.1186-.0545-.1736-.0083-.0297-.0083-.051-.0147-.0783-.0145-.0488-.0356-.0847-.0564-.0783-.0294.0126-.0253.0401-.0253.0783.0042.0634.0106.1122.0253.163.0063.0464.002.0781.0125.1185.025.0847.0356.2074.0461.2856.0062.034.0042.0763.0103.1165.0086.0381.0378.0954.0483.1355.0084.0592.0084.1355.0147.1948.0106.053.025.1037.042.1545.0105.0422 0 .0846.0147.125.0103.0423.0356.0802.0417.1226.0084.055 0 .127.0106.1694.0608.2476.0775.5335.151.7726.0082.0361.0082.0698.0165.1016.061.2053.105.4296.1677.635.0064.0297.0064.0634.0148.0996.0208.0718.0355.1501.0502.2242.0106.0317.0106.0615.0167.0932.0211.0785.0503.1503.0736.2264.0103.0362.0123.0679.0187.106.0063.0296.021.0613.0294.0866.0125.0445.0083.087.0208.1228.0086.0255.0295.0486.0356.0763.0086.0422.0147.0846.0274.1291.0146.053.042.1038.0648.1546.017.0424.017.0845.0314.1269.0316.0763.063.1588.088.2351.0253.0634.0275.1269.0526.1925.0147.0402.0314.0848.046.1271.0106.0337.0168.0635.0273.0994.0125.0317.0461.0825.0672.1207.0145.0465.0083.1058.0228.1545.0147.0508.042.089.0609.1334.0147.0487.0147.0931.0252.1417.0125.0381.0376.072.0523.106.0147.038.0294.0803.044.1162.0084.0277.0335.055.044.0828.0189.0443.0378.093.0545.1417.0294.0634.0336.1504.0544.2265.0064.021.0022.076-.0125.0803-.0294.0044-.065-.0444-.0859-.074a1.1087 1.1087 0 0 1-.0964-.1714.7841.7841 0 0 1-.021-.0678 2.2269 2.2269 0 0 0-.0587-.163c-.0125-.0298-.0335-.0655-.046-.0994-.0168-.0486-.0084-.108-.0273-.1504-.0145-.036-.044-.0634-.0628-.0994-.0105-.034-.0147-.0698-.0294-.0996a.598.598 0 0 0-.0628-.1122c-.0147-.036-.0147-.0719-.0272-.1182-.0148-.0488-.0295-.0998-.0503-.1442-.0211-.0486-.0503-.0931-.0714-.146-.0083-.0232-.0147-.0507-.023-.0782a1.018 1.018 0 0 0-.0461-.1083.5686.5686 0 0 0-.0229-.0845c-.019-.0403-.04-.0825-.0547-.1269-.0125-.0361-.0147-.072-.0292-.108-.021-.0614-.0397-.1313-.0608-.1927-.0147-.0486-.0167-.0952-.0314-.1418-.0189-.0552-.042-.1102-.0608-.165-.0167-.0446-.0209-.0953-.0336-.1377-.0209-.0614-.0503-.1142-.0712-.1779-.0127-.0506-.0127-.0994-.021-.146-.0356-.1164-.0734-.2433-.111-.362-.0377-.1332-.044-.2856-.0838-.4191-.0252-.093-.0566-.1841-.0859-.277-.0127-.0509-.0127-.0976-.023-.1462-.0274-.1016-.063-.2436-.0986-.3514-.0189-.0592-.0147-.1186-.0314-.182-.0167-.0615-.021-.1356-.0378-.2032-.0145-.0424-.0272-.0679-.0355-.123-.0126-.0507-.0106-.1141-.019-.1545-.0083-.0422-.0774-.275-.0838-.3174-.0062-.0402-.0062-.1229-.0103-.146-.0042-.0212-.04-.1248-.042-.1461-.0063-.0275-.0063-.0572-.0188-.1123-.0084-.0528-.0378-.165-.0442-.199-.0061-.0314-.0061-.1015-.0125-.131-.0062-.0382-.0272-.1122-.042-.1672-.0188-.0657-.002-.1378-.023-.201-.0125-.0488-.0314-.0914-.048-.1377-.0084-.0382-.021-.089-.021-.1143-.0063-.0319-.0063-.108-.0085-.1357 0-.038-.0167-.0994-.0209-.1564a1.0543 1.0543 0 0 0-.0336-.1991C2.5428.193 2.545.1592 2.5408.1359 2.5198.0641 2.501-.006 2.461.0004c-.025.002-.0356.0233-.023.074.0147.0551.0188.0995.0335.1587.0126.03.0126.1038.0147.1293 0 .0422.0022.0486.0084.0867 0 .0149.0064.055.0083.0719.0064.0255.0167.0616.0167.0827v.0867c0 .0213 0 .0275.0044.0615.0103.0337.0125.036.0167.0656.002.0253 0 .0486 0 .0677 0 .0253.0042.0466.0103.074.015.0489.0483.1185.0358.1886-.0147.078.0062.1502.0253.2136.0083.0446 0 .0911.0083.129l.042.178c.0125.0528.0061.0951.0186.1397.017.0657.063.1546.065.18.0064.0316.0022.1101.0125.1607.0084.0488.0211.106.0233.1397.0042.0275 0 .0444.0042.0657.002.0233.0355.1355.0397.1652.0064.0317.0042.0464.0105.0761.0062.0295.0314.1502.0356.1905.0062.0382.002.0635.0084.0994.0147.0637.0397.1122.0503.1695.0105.0443.0061.0698.0125.1058.0127.053.0294.1015.0397.1523.0086.0402.0086.0806.015.1185.0166.087.0291.1757.0522.2626.0167.0508.0461.0994.0608.1482.0125.0445.0147.091.0272.1355.0104.0401.0378.076.0481.1204.0084.03.0042.0679.0106.106.0125.0402.0314.0783.0356.125.0105.0296.0041.0591.0105.093.0105.036.0292.0677.0378.1017.0083.0465.0083.0953.0208.1355.0125.0528.0336.1036.0503.1524.0167.0443.0105.0931.0189.1419.0292.1056.065.222.1006.3194.0167.0508.0125.108.0272.165.0147.0362.0336.0637.0483.0974.0125.034.0042.072.0125.1082.0167.0677.0272.1522.0503.2138.021.0697.0628.1311.09.1966.0233.072.0275.1464.0483.2182a2.112 2.112 0 0 0 .0775.1797c.0211.0552.0147.123.0356.1759.0169.0614.0586.1058.0839.1672.0294.0677.044.1375.065.2074.0063.0297.0125.0572.0189.0912.0272.0867.0733.1628.1047.2475.0105.0424.0147.074.025.11.0211.0635.0483.1249.0756.1885.025.0508.0564.1016.0817.1566.023.0486.0252.0994.0502.1504.0147.0486.0378.1036.0587.1524.0127.0317.0127.0592.0272.093.0566.1357.1322.271.195.4065.0356.0719.0503.1524.0838.2265.0273.0612.0587.1144.086.1776.0146.0404.0208.0785.0397.1165.0314.0719.0797.1461.113.2224.0086.0147.0336.093.0211.125 0 .002-.0042.0083-.0063.0083-.021.0063-.069-.0297-.0923-.055-.088-.0867-.1025-.25-.1592-.3622-.0167-.0295-.0375-.0654-.0566-.0993-.0084-.0233-.0125-.0444-.0229-.0657-.04-.0739-.0838-.1353-.1174-.2158-.023-.053-.0294-.1164-.0503-.1672-.1028-.216-.2159-.4233-.308-.637-.044-.0976-.0545-.2119-.0901-.3177-.023-.0614-.0628-.1142-.086-.1714-.021-.0466-.0251-.0974-.0482-.1418-.0294-.0636-.0691-.1186-.09-.1885-.0147-.0422-.021-.0867-.0378-.127-.0189-.0509-.0524-.089-.0713-.1312-.027-.0698-.0334-.1375-.0587-.216a.9132.9132 0 0 0-.0419-.1227c-.0103-.0339-.0145-.0698-.025-.1058-.0273-.0827-.0754-.1546-.109-.235-.021-.057-.0147-.127-.0357-.1822-.0209-.0443-.0565-.08-.0775-.1268-.0167-.0488 0-.108-.0147-.165-.0146-.0553-.0356-.106-.0543-.1567-.0086-.0361-.0105-.0676-.0233-.0973-.025-.07-.048-.1356-.0711-.1992-.0105-.0357-.0105-.0657-.0253-.0994-.0166-.036-.048-.072-.0628-.1184-.0167-.0637-.0208-.1313-.0355-.199-.0273-.0805-.0567-.1504-.0797-.2329-.0106-.0253-.0106-.0508-.0147-.0783-.021-.074-.0314-.1566-.0481-.2264-.0106-.0362-.0064-.0679-.0147-.1016-.021-.0679-.0462-.14-.067-.2032-.0106-.0446-.0147-.087-.023-.127-.0295-.1101-.063-.2372-.0965-.341-.0063-.0317-.0022-.0572-.0147-.0887-.0209-.0827-.0566-.1843-.0755-.2668-.0084-.0508-.0084-.0996-.0209-.144-.0105-.0594-.0314-.1122-.0439-.1694-.0022-.0275 0-.0486 0-.0677-.0064-.0381-.0084-.0783-.0147-.11-.0356-.1524-.0964-.3323-.1258-.4827-.0147-.055-.0147-.11-.0209-.1608-.0063-.0403-.0083-.0825-.021-.1206-.0126-.0404-.0293-.0785-.0356-.1207-.0062-.0634-.0084-.1269-.019-.1883 0-.0064 0-.0086-.0021-.0149-.0084-.074-.0481-.2329-.0565-.2943a3.7845 3.7845 0 0 1-.0294-.2222c0-.0464-.0103-.0952-.0145-.146C2.2683.7878 2.2494.718 2.2433.6396 2.239.5846 2.241.5381 2.2349.4957 2.2327.464 2.2286.4174 2.193.4174c-.0355 0-.0293.0404-.0339.074-.0016.0784.013.1842.0193.233.0125.091.002.1819.0125.275.0063.053.023.1058.0294.1526.0125.0887.0209.1799.0292.2624v.0042c.0042.0424.0064.0783.0147.1165 0 .0042 0 .0064.0042.0104v.0128c.0064.017.0085.036.0147.0508.0084.0318.0064.0593.0147.0952.0272.1038.021.216.0481.3154.0378.1482.0588.307.105.4574.0103.0401 0 .0845.0103.131.0169.0446.0274.0912.0378.1356.0105.0572.0021.1142.0166.1692.0128.053.0295.106.042.1568.0189.057.0189.1207.0356.1863.019.0677.04.1396.0502.203.017.0785.0211.1652.0378.2413.0105.07.0503.1484.065.2225 0 .021 0 .0465.0022.074a2.504 2.504 0 0 0 .0378.1524c.0041.0253.002.0424.0103.0697.0252.0976.0544.216.0817.3092.0083.0275.0105.0572.0169.0847.0208.0656.0397.1164.048.1502.0064.0339.0128.072.019.108.0147.0508.0313.0931.0377.1417.0084.0362.0147.0679.025.1038.0106.0424.0295.0805.0462.1227.0272.0847.0336.178.0608.2626.0167.0488.042.0974.0586.1481.0127.0508.0189.1079.0336.1629.0252.0827.0566.178.0859.2606.0377.0993.0586.2116.09.3005.0149.0402.0127.0761.0252.1187.0295.0907.0587.1967.088.2897.0168.051.0168.0995.0378.1483.0315.0781.0776.1482.1068.2265.0232.0719.0294.1375.0566.2054.0336.0867.0712.1714.107.2644.0208.0636.0314.127.0544.1885.021.0464.0503.1016.0753.1502.017.0445.0358.0911.0461.1355.0128.034.0483.0932.0756.1397.0272.0635.0336.1291.0544.1948.0378.1036.0859.2096.1278.3027.019.036.0211.0699.0356.112.0252.0657.0694.1167.0964.178.0274.0592.0358.1228.0588.1798.0398.0847.0692.1335.067.254 0 .0086-.0042.019-.0147.0213-.0209.0084-.0461-.0275-.0606-.0382-.065-.0676-.0714-.1249-.1133-.216-.0628-.1353-.1403-.2582-.2033-.3893-.027-.0656-.0418-.142-.0754-.2096-.0166-.0423-.044-.089-.0628-.1313-.0316-.0592-.046-.1229-.0775-.1779-.042-.0845-.0797-.1776-.1152-.2644-.017-.0381-.017-.0698-.0314-.0995-.017-.038-.0378-.07-.0567-.1059-.0209-.055-.0356-.1248-.0586-.182-.0483-.1058-.1028-.22-.1467-.3323-.0336-.1058-.0547-.2012-.0924-.3132-.0145-.0404-.0356-.0912-.0481-.1333-.0145-.0426-.0145-.0743-.0273-.1122a4.989 4.989 0 0 0-.1194-.2881c-.0209-.0464-.0272-.091-.044-.1396-.021-.0572-.046-.125-.0671-.184-.0272-.0722-.0292-.161-.0586-.2458-.0609-.167-.1404-.3491-.1928-.5332-.0084-.0424-.0042-.0848-.0167-.1271a5.1133 5.1133 0 0 1-.0859-.29c-.0336-.106-.0274-.2202-.063-.3282-.042-.1353-.088-.275-.132-.4083-.0125-.0446-.0063-.0848-.0188-.1271-.0293-.108-.065-.2287-.1006-.326-.0189-.0467-.0189-.0995-.0356-.144-.021-.0572-.0753-.036-.0733.0277.0041.055.025.1269.0314.1544.0063.0423.0063.0805.0147.1206.0145.0721.0378.1355.0586.199.021.072.021.1313.042.2054a.6535.6535 0 0 1 .0335.108c.0231.0697.0231.146.0481.2074a3.478 3.478 0 0 1 .0481.1672c.0106.038.0086.0697.0211.1016.0147.0634.0356.1311.0567.1903.0103.0404.0061.0721.0145.106.0147.0508.0272.1038.0419.1482.0127.0486.0127.1122.023.1608.0317.089.063.1821.0923.2646.0314.091.0336.1905.0691.2837.0609.1692.1131.362.1761.529.0167.0446.0104.089.025.1357.017.072.0315.144.0567.2139.0147.0337.0356.0696.0503.1035.0189.0402.021.0806.042.125.0147.0337.0355.0698.048.1035.0211.0552.0148.1209.0358.1695.0145.0423.0356.0847.0501.127.019.0464.019.0952.0358.1376.0189.0401.046.0783.0608.1122.0167.0381.0209.0763.0356.1142.0147.0402.0356.0828.0544.1209.0167.04.0209.0865.0378.1333.0147.0357.042.0761.0566.114.0145.0424.0145.0912.0334.1356.023.0678.0628.1206.0923.1885.0188.0423.0208.0951.0419.1417.025.057.0566.1122.0817.163.0314.0721.0628.1482.088.2139.0545.1228.0755.2561.1258.3768.0461.0845.0964.1735.1382.256.021.0488.0274.0995.0502.1481.0275.055.0672.0976.0903.1526.0209.0528.0356.1036.0566.1564.0292.0659.0754.1293.1048.1907.0167.0382.0272.0783.0417.11.0336.0761.0902.1334.1197.2097a1.411 1.411 0 0 1 .05.1417c.04.074.0923.142.1322.216.0272.0612.044.1185.0753.1735a5.267 5.267 0 0 1 .1362.2202c.0336.0508.0777.1333.1027.1861.0253.0615.0712.1058.0986.163.023.055.0586.1143.088.1695.0376.0612.0692.1036.1048.1564.0628.0931.0984.1927.1592.288.042.0633.0859.1292.1342.1904.1194.1652.2891.466.3645.5674.0608.0783.111.1777.1655.2584.0442.0674.1006.1333.1447.1905.0398.055.0692.1078.1048.1628l.0336.0402c1.538 1.9729 3.1202 3.283 4.4591 4.1406h-.0042c.7104.4465 1.0916.5755 1.0916.5755.088.0402.0232.1036-.0187.1334l-7.9397 5.129c-.0233.0146-.086.0591-.063.112.021.038.1027.0148.1236.0083 6.3702-2.2584 10.993-4.1149 13.8198-5.4696 2.8646-1.3757 3.8264-2.1613 3.7258-2.5505M4.8793 8.3784a1.9208 1.9208 0 0 1-.042-.0932c-.0144-.036-.0144-.0719-.0291-.1016a8.9498 8.9498 0 0 0-.1592-.3513c-.0211-.0444-.0483-.1333-.0295-.1906.002-.0084.021-.002.0273 0 .0167.0191.0292.0276.044.0468.0126.0147.0146.0315.0251.0506.023.0382.0565.0783.0775.1185.042.0931.0503.1927.0923.2837.0272.0572.0711.108.1005.1672.0126.032.021.0636.0336.0996.0062.0275.0042.0592.0062.0803 0 .0297-.002.0508-.0147.0508-.0753-.0042-.0984-.1036-.132-.1608m.3353 2.4597c-.0042.0105-.0083.0191-.025.0191-.084-.0044-.109-.1293-.1447-.1905-.0336-.0446-.0587-.1016-.088-.1484-.0231-.0357-.0524-.0719-.0712-.1078-.023-.0508-.0294-.1036-.0608-.1462-.0148-.0232-.042-.0443-.0567-.0676-.044-.0612-.0859-.1271-.1192-.2054-.0064-.0317-.0106-.057-.0211-.089-.0147-.0463-.0356-.0993-.0523-.1501-.0063-.0275-.0127-.0763-.0063-.0932.0021-.0084.0063-.0148.0125-.0126.0608.0126.1278.1714.1572.2265.0356.0634.09.1122.1236.1776.023.0615.0314.1333.065.1906.023.0423.0628.0785.09.1208.0356.0506.0589.1247.088.182.0273.0678.0734.1206.1007.1862.0105.0295.0167.0783.0083.108m1.7834-.3642c-.0378-.0064-.0588-.0295-.0839-.0487-.065-.0486-.1194-.129-.1216-.2414 0-.0146.0022-.0188.0105-.0188.0795 0 .1614.1206.1928.1799.0064.021.0272.0656.023.0953 0 .021-.0083.0295-.0208.0337m.5342.0213c-.0524.0169-.178-.1293-.2136-.1883-.0692-.0996-.1342-.2096-.2075-.3072-.065-.0931-.1364-.1543-.155-.3067 0-.0191-.0126-.0679 0-.0679.0711.0064.1403.1333.1739.1841.0272.0362.0564.0699.0836.106.0295.055.0483.1207.084.1715.044.0634.0983.1184.1466.182.0252.0338.0588.0635.0733.1079.0106.0255.0336.11.0147.1186m1.8735 1.0476c-.0734.0084-.1634-.1036-.1992-.1586-.0125-.0148-.0544-.1038-.042-.1164.0148-.0149.1007.0148.1259.034.0564.0465.1047.11.134.222 0 .0148-.0124.019-.0187.019"/></svg>