<svg role="img" viewBox="0 0 24 24" xmlns="http://www.w3.org/2000/svg" fill="#008cd5"><title>XiamenAir</title><path d="M19.486 15.138c-1.986.09-3.73-.665-2.761-2.572.967-1.908 5.715-4.1 7.275-4.797l-8.75-.003c-.3 0-.672-.05-.899.629-.169.506-.954 2.466-2.7 3.079-2.161.76-3.964-.483-6.711-2.658-1.024-.813-1.192-.886-2.182-.723-.508.082-1.61-.187-1.934-.263C.5 7.744 0 7.778 0 7.784c0 .037 1.99.325 5.833 3.074 1.462 1.046 4.068 3.083 6.779 4.261 2.93 1.273 7.183 1.953 11.077-.757l.013-.16c0 .072-2.228.886-4.216.936"/></svg>