<svg role="img" viewBox="0 0 64 64" xmlns="http://www.w3.org/2000/svg" fill="#bd8b13"><title>Etihad</title><path d="M42.792 16.35a4.557 4.557 0 0 1-1.417 1.759v.06a.402.402 0 0 0 .227.317.452.452 0 0 1 .256.457v4.627l-1.151 1.196-1.15-1.196v-4.601a.462.462 0 0 1 .256-.464.412.412 0 0 0 .225-.32v-.09a5.622 5.622 0 0 1-1.381-1.725v7.794l1.381 1.356-1.17 1.15 1.874 1.82 1.82-1.84-1.152-1.15 1.382-1.462zm1.422.015v9.11h1.12v-6.547a.457.457 0 0 1 .312-.432c.13-.07.291-.136.291-.332v-.09c0-.106-.075-.14-.18-.18a3.29 3.29 0 0 1-.628-.458 4.02 4.02 0 0 1-.724-.759Zm-16.58.066a9.702 9.702 0 0 1-1.728 1.658v.096c.025.19.13.246.286.326.156.08.33.156.33.432v6.532h7.257v.15a1.435 1.435 0 0 0 .502 1.181.94.94 0 0 0 .401.09.975.975 0 0 0 .503-.13l.151-.106-.12-.09a1.402 1.402 0 0 1-.282-1.005v-.09h2.713V19.47a5.054 5.054 0 0 1-1.657 1.743.573.573 0 0 0 .275.387c.312.185.312.357.312.357v2.446h-1.563v-.24c-.025-.593-.216-2.01-1.839-2.01h-1.507c-.965 0-1.472-.105-1.598-.337l-.055-.1-.09.065a.683.683 0 0 0-.277.593c0 .387.212.813.604.849h2.17c1.381.01 1.381.577 1.381.848v.317h-6.17zm7.35 1.09-.854.854.855.855.858-.86-.08-.07zm1.719 0-.855.854.855.855.854-.86-.076-.07zm-18.696 1.925v3.25h5.803a.372.372 0 0 1 .326.418v2.627a.548.548 0 0 1-.532.563c-.899 0-.85-.462-.85-.462V24.37h-4.747v1.105h3.718v.924s-.12.955 1.884.975c1.623 0 1.673-1.005 1.673-1.005V22.61c0-.216-.06-.92-.718-.92h-5.663v-.406c0-.096.08-.131.151-.171.332-.216.387-.397.282-.462a5.828 5.828 0 0 1-1.327-1.206zm22.7 6.45.77.774-.77.774-.769-.774zm2.82 4.548-1.122 1.195 1.247 1.327 1.29 1.296h-2.18l-1.216 1.261.262.176.28-.15h4.02l2.573 2.763s-.036.046-.262.046h-.1v.28h2.91zm-19.818.01v.251l.262.17c.06.041.09.077.09.112v7.13l-.065.054-.27.17v.237h2.602v-.231l-.242-.171c-.035 0-.055-.035-.06-.035v-7.235l.06-.056.237-.16v-.236zm11.904.005v.236l.27.171c.081.05.081.08.081.105v2.382h-5.25l-1.181 1.507v-3.949l.06-.04.247-.151h.03v-.22h-2.613v.236l.26.17c.041 0 .057.035.067.035v7.185a.156.156 0 0 1-.056.045l-.256.176v.231h2.623v-.236l-.277-.17-.065-.036V34.87l.282.08.36-.206a.633.633 0 0 1 .167-.08.703.703 0 0 1 .146 0h5.47l-.019 2.492 1.955-2.11v-4.14a.11.11 0 0 1 .04-.065l.28-.14v-.242zm14.76 0v.23s.303.202.313.202v.844h6.807a6.337 6.337 0 0 1 3.015.542 2.512 2.512 0 0 1 1.427 2.242 2.392 2.392 0 0 1-.377 1.291 3.015 3.015 0 0 1-1.136.97 6.823 6.823 0 0 1-2.984.502h-3.552v-4.965h-1.94v5.804l-.055.055-.236.151v.211h5.819a14.254 14.254 0 0 0 2.617-.191 6.21 6.21 0 0 0 2.23-.92 3.813 3.813 0 0 0 1.377-1.507A3.015 3.015 0 0 0 64 34.583a3.517 3.517 0 0 0-.181-.944 4.19 4.19 0 0 0-2.09-2.372c-1.005-.542-2.357-.808-4.226-.808Zm-39.476.01L9.712 31.95l.241.086h.036l.37-.187a.502.502 0 0 1 .308-.1h4.687v6.371l-.06.055-.266.176v.226h2.617v-.231l-.271-.166-.066-.06a.166.166 0 0 1 0-.07v-6.296h4.14c.166 0 .182.055.182.06v.222h.211l1.285-1.568zm-4.45.03a16.303 16.303 0 0 0-1.92.08 6.257 6.257 0 0 0-.683.116 6.416 6.416 0 0 0-1.699.663 4.341 4.341 0 0 0-1.839 1.879A3.266 3.266 0 0 0 0 34.649C0 35.955.703 37 2.095 37.754a6.582 6.582 0 0 0 2.095.708 15.153 15.153 0 0 0 2.337.136h5.375l1.306-1.567h-.391l-.342.196-.15.08h-5.82a6.913 6.913 0 0 1-3.014-.502 2.442 2.442 0 0 1-1.507-2.267 2.311 2.311 0 0 1 .388-1.275 3.331 3.331 0 0 1 2.26-1.418 4.275 4.275 0 0 1 .739-.08h3.014c.176 0 .151.04.156.055l-.035.212h.251l1.266-1.533zm35.43 1.498-6.325 6.541h2.914v-.287h-.1a.613.613 0 0 1-.136.021h-.105l4.883-5.064zM3.014 33.514l-.848 1.256h7.636c.15 0 .196.055.201.08l-.03.226.267-.005 1.256-1.557zm45.3 8.883a1.92 1.92 0 0 0-1.317.412 1.452 1.452 0 0 0-.462 1.145c0 .754.423 1.232 1.267 1.438l.18.04a1.623 1.623 0 0 1 .633.256.538.538 0 0 1 .18.422c0 .467-.32.698-.924.698a1.874 1.874 0 0 1-1.3-.503v1.005a2.216 2.216 0 0 0 1.255.332 2.01 2.01 0 0 0 1.462-.458 1.613 1.613 0 0 0 .458-1.215 1.256 1.256 0 0 0-.316-.925 2.045 2.045 0 0 0-1.005-.502l-.182-.04a1.568 1.568 0 0 1-.612-.252.643.643 0 0 1 .03-.874 1.065 1.065 0 0 1 .618-.145 1.95 1.95 0 0 1 .758.156 2.01 2.01 0 0 1 .563.346v-1.005a2.186 2.186 0 0 0-1.286-.331zm-32.085.1-1.985 5.024h.954l.662-1.739.263.705h1.306l.402 1.034h1.005l-1.964-5.024zm4.215 0v5.024h1.004v-5.024zm3.12 0v5.024h.97v-1.638h.552l1.146 1.638 1.12.006-1.382-1.774a1.532 1.532 0 0 0 .74-.628 1.94 1.94 0 0 0 .265-1.005 1.507 1.507 0 0 0-.462-1.221 2.01 2.01 0 0 0-1.346-.402zm4.823 0 1.508 5.024.798-.015 1.005-3.1 1.005 3.1h.804l1.507-4.994h-.934l-.924 3.563h-.03l-1.176-3.553h-.955l.272.79-.885 2.763h-.04l-.95-3.578zm9.426 0-2.01 5.024.965-.005.643-1.716.266.687h1.311l.403 1.034h1.005l-1.965-5.024zm3.145.02 1.633 2.955v2.049h.965v-2.049l1.663-2.955h-.965l-1.12 2.105-1.086-2.105zm-16.424.809h.628a.764.764 0 0 1 .638.236 1.03 1.03 0 0 1 .186.654c0 .673-.272 1.005-.824 1.005h-.628zm-8.004.608.14.458.503 1.381h-1.31l.526-1.381zm21.555 0 .135.458.503 1.381H37.42l.518-1.381z"/></svg>