<svg version="1.2" xmlns="http://www.w3.org/2000/svg" viewBox="0 0 1503 1503" width="1503" height="1503">
	<title>EasyJet_logo-svg (2)-svg</title>
	<style>
		.s0 { fill: #ff6801 } 
		.s1 { fill: #ffffff } 
	</style>
	<g id="Layer">
		<path id="Layer 1" class="s0" d="m0 0h1503v1503h-1503z"/>
		<path id="Layer" fill-rule="evenodd" class="s1" d="m1195.5 789.2h-481.2c-21.8 0-31.7 9.9-31.7 28.3q0 65.5 71.4 125 71.4 60 155.2 60c31.8 0 69.5-6 109.2-17.9 39.7-12.4 73.4-28.2 99.2-46.1 23.8-15.9 42.1-23.8 56-23.8 17.9 0 35.7 9.9 51.6 31.7 17.9 21.9 25.8 44.2 25.8 68 0 49.6-29.8 95.2-91.3 140.9-107.6 81.8-232.6 121.5-374 121.5-142.8 0-262.4-41.7-359.6-125.5-47.6-41.7-85.8-89.3-115.6-146.8-39.7-77.9-59.5-157.3-59.5-243.1 0-113.1 33.7-216.7 103.2-308 60-79.9 135.4-137.4 228.6-177.1 70-30.3 145.4-44.2 224.8-44.2 129.4 0 238.5 36.3 329.8 109.7 46.2 35.7 81.9 79.3 109.6 131.4q47.7 86.3 47.7 167.2c0 43.6-10 79.4-27.8 109.1-19.9 25.8-43.7 39.7-71.4 39.7zm-453.4-191h103.2q65.9 0 65.9-59.5c0-35.7-9.9-67.5-32.2-89.3-21.8-24.3-47.6-34.2-83.4-34.2-37.7 0-67.4 15.9-89.2 46.1-19.9 27.8-29.8 55.6-29.8 85.3 0 19.9 4 33.8 13.9 43.7 9.9 4 25.8 7.9 51.6 7.9z"/>
	</g>
</svg>