<svg role="img" viewBox="0 0 24 24" xmlns="http://www.w3.org/2000/svg"><title>Firefly</title><path fill="#ef5713" d="M13.0436.0033c-.6123-.0261-1.28.1008-2.0065.4059a.1612.1612 0 0 0-.0317.014.3185.3185 0 0 0-.0328.0113c-9.3498 3.798 8.8834 21.4412 8.8834 21.4412l.0165-.0076S20.2685.3121 13.0436.0033zM7.2553 15.545c-1.2066-.0059-2.2081.5332-2.822 1.8966-.004.0078-.0057.0156-.009.024a.1709.1709 0 0 1-.01.0215c-2.7992 6.7778 15.4582 6.5115 15.4582 6.5115l.005-.014s-7.8884-8.4164-12.6221-8.4396z"/><path fill="#fc9200" d="M12.6833 1.1666c-.39.0132-.8044.1084-1.2467.2946v-.0013l-.0253.0101-.024.0089c-7.0148 2.9694 7.2752 17.533 7.2752 17.533l.0126-.0076S18.5318.9674 12.6833 1.1665zM7.2882 16.6488c-.82-.0107-1.4824.308-1.87 1.1101v.0013a.0473.0473 0 0 0-.0076.0152c0 .007-.0044.0112-.0063.0164-2.0716 4.6306 11.9508 5.1574 11.9508 5.1574l.0038-.0114s-6.5176-6.2426-10.0707-6.289z"/><path fill="#ffc200" d="M12.6934 2.2982c-.273.001-.562.0632-.8661.1947l.0025.0038a.1715.1715 0 0 1-.0165.0076.07.07 0 0 1-.0177.0063c-4.6104 2.01 5.5061 13.3627 5.653 13.5174l.0115-.0051S16.7876 2.2826 12.6934 2.298zM7.493 17.6957c-.4296.0165-.7591.1825-.9381.5525l-.0013-.0013a.022.022 0 0 0-.0038.009.0719.0719 0 0 0-.0038.01c-1.4384 2.7545 8.489 3.6136 8.489 3.6136v-.0063s-5.222-4.2666-7.542-4.1775z"/></svg>