<svg role="img" viewBox="0 0 24 24" xmlns="http://www.w3.org/2000/svg" fill="#473729"><title>Fiji Airways</title><path d="M12.759 0s-.12.005-.243.005c-.129 0-.295 0-.496.014-.2.014-.606.024-.96.057-.257.029-.424.038-.772.138 0 0 .2.234.281.315.082.081.401.468.678.783.272.315.592.667.74.858 0 0 .658-1.75.772-2.17zm1.093.129s-.167.319-.2.41a34.101 34.101 0 0 1-.53 1.178c-.067.11-.72 2.032-.816 2.18 0 0-.472-.548-.625-.706-.153-.153-1.603-1.55-1.86-1.808-.253-.258-.559-.54-.797-.844 0 0-.057.019-.22.067-.161.047-.415.153-.525.186-.11.038-.061.08-.009.138.114.124.305.253.367.32.076.095 1.517 1.493 1.656 1.622.133.133 1.078 1.082 1.13 1.125.058.048.101.1.12.12 0 0 1.312-.048 1.479-.015.024-.062.119-.219.18-.324.063-.105.611-1.727.745-2.052.138-.324.41-.991.472-1.134.058-.139.076-.234.138-.306 0 0-.042-.033-.1-.047-.057-.015-.258-.04-.339-.063-.071-.019-.156-.024-.266-.047zm2.199.767s-.081.138-.153.248c-.067.11-.443.683-.534.821-.09.143-1.15 1.894-1.212 1.994-.057.105-.167.263-.239.382 0 0 .248.057.368.1.114.028.338.115.429.13.09.013.058-.01.11-.11a1.5 1.5 0 0 1 .186-.306c.1-.144.744-1.06.878-1.207.134-.148.262-.377.381-.525.115-.147.534-.64.601-.768.033-.058.1-.157.292-.429 0 0-.053-.038-.106-.072-.057-.038-.252-.095-.396-.148-.147-.052-.429-.12-.605-.11Zm-9.197.459s-.024.005-.105.076a9.994 9.994 0 0 1-.478.338c-.033.02-.043.034.014.077.058.043 2.705 2.366 2.815 2.452.11.086.325.238.34.253.028.023.028 0 .09-.02.062-.013.39-.095.562-.133 0 0-.028-.047-.042-.066-.015-.02-.239-.235-.358-.344-.12-.11-.51-.496-.711-.673-.2-.181-.768-.677-1.06-.93-.171-.148-1.015-.959-1.067-1.03Zm11.373.385c-.006.002-.016.01-.03.025-.071.086-.5.649-.634.816-.134.162-.71.944-.882 1.182-.177.239-.62.93-.783 1.193 0 0 .062 0 .153-.019.09-.028 1.565-.644 1.694-.682a.71.71 0 0 0 .286-.162c.033-.062.076-.138.076-.277-.005-.143.11-1.68.115-1.842.007-.14.034-.244.005-.234zm1 .526a.016.016 0 0 0-.008.005c-.029.023-.025.066-.03.128-.018.115-.014.163-.042.301-.029.115-.115 1.374-.12 1.474-.004.1-.019.324-.019.324s1.641-.215 1.703-.229c.09-.024.1-.024.248-.043 0 0-.052-.09-.124-.181-.067-.091-.143-.2-.234-.305-.09-.11-.8-.892-.882-1.002-.086-.11-.276-.263-.343-.334-.062-.072-.053-.048-.087-.086-.02-.02-.044-.056-.063-.052Zm-14 .139c-.021.003-.018.052-.005.152.024.157.1.505.143.71.043.21.172.82.224 1.207 0 0 .21.03.325.053.114.024 2.375.429 2.566.424.043 0 0-.043-.095-.11-.091-.076-3.006-2.299-3.063-2.36-.05-.053-.08-.079-.096-.076Zm-.816.528s-.057 0-.09.015c0 0-.053.038-.149.12-.09.085-.429.405-.639.6-.21.2-.605.706-.734.873-.129.167-.349.515-.458.692 0 0 .057-.015.119-.043.076-.034.281-.043.348-.066.105-.039 1.856-.359 1.947-.382-.01-.058-.082-.444-.101-.563-.014-.12-.147-1.011-.18-1.121-.025-.076-.03-.101-.063-.125Zm16.927 1.96a.03.03 0 0 0-.01.001c-.039.005-.116.029-.225.048-.11.019-1.208.243-1.384.267-.167.029-.41.048-.668.129 0 .062-.047.635-.052.782 0 .148-.034.577-.034.654 0 .076-.023.32-.028.4-.005.081-.02.253-.005.41-.005.029.014.015.076-.061.048-.081.602-.764.773-.983.182-.22.945-1.15 1.064-1.231.124-.081.29-.243.377-.315.08-.058.133-.098.116-.1zm-3.212.341c-.01 0-.028.008-.062.013a1.35 1.35 0 0 0-.186.062c-.067.029-.706.158-.826.182-.119.028-.357.047-.515.119.038.01.229.176.367.295.129.115.449.378.625.535.172.157.406.381.535.491.043.038.024-.071.024-.138-.005-.067.033-1.274.038-1.437.006-.098.015-.121 0-.122zm-12.571.158c-.053 0-.08.008-.138.008 0 0 .125.615.134.748.01.134.115 1.06.158 1.265.062-.077.558-.64.95-1.011a5.36 5.36 0 0 1 .981-.754c-.038-.038-.133-.048-.185-.062-.053-.015-1.737-.182-1.838-.191a.63.63 0 0 0-.062-.003zm16.511.227s-.08.067-.147.12c-.072.057-.525.591-.597.672-.076.086-.171.253-.233.334-.067.076-.616.63-.75.749-.133.12-.853.921-.915.973-.058.058-.067.086-.149.158.034.043.048.21.072.305.02.095.095.492.138.644.067-.047.191-.138.225-.181.038-.043.095-.105.157-.167.062-.057 1.885-2.042 1.975-2.124.091-.08.153-.171.176-.204a1.37 1.37 0 0 1 .205-.2c.067-.053-.018.018.378-.306-.02-.024-.09-.158-.12-.21-.028-.053-.114-.152-.2-.29a1.282 1.282 0 0 0-.215-.273Zm-17.732.33c-.08.009-2.256.505-2.394.534a1.99 1.99 0 0 0-.277.08c-.09.034-.252.12-.252.12.086.062.214.1.286.143.071.043 3.081 1.622 3.143 1.67.053.042.239.09.239.09.028-.037.004-.08.014-.119.005-.033-.257-1.011-.305-1.216a35.83 35.83 0 0 0-.382-1.193c-.005-.029-.038-.12-.072-.11Zm7.69.519c-.147.153-.176.454-.2.602a5.171 5.171 0 0 0-.048.644c-.014.343.02.753.062.92.039.162.12.496.158.558.062.091.062.072.124-.029 0 0 .024-.033.043-.11a.556.556 0 0 0 .052-.218c.014-.11.039-.23.048-.34.01-.105.043-.31.043-.41.005-.152.01-.204.005-.3 0-.114-.01-.496-.072-.735-.057-.238-.061-.363-.214-.582zm11.244 1.045s-.128.12-.195.172c-.071.052-2.452 2.113-2.643 2.27-.191.158-.5.45-.572.502-.067.052-.106.071-.092.152.01.058.01.233.025.353.01.119.043.339.024.463-.02.119-.03.391-.053.544.1.028 1.264.472 1.47.553.2.077.605.229.834.31.229.08.73.272.911.343.181.072.564.24.773.31a1.96 1.96 0 0 0 .033-.438c0-.196-.009-.315-.023-.463 0 0-.086-.048-.191-.09a26.946 26.946 0 0 0-.94-.35 90.924 90.924 0 0 1-2.337-.853c-.081-.047-.049-.076-.006-.148.043-.062.143-.22.239-.305.062-.053 1.665-1.27 1.765-1.35.1-.081.353-.248.568-.424.215-.177.41-.315.725-.51 0 0-.005-.158-.052-.325a2.071 2.071 0 0 0-.167-.43c-.057-.105-.044-.114-.063-.186-.014-.067-.033-.1-.033-.1zm-9.598.258c-.162.128-.372.405-.477.5-.1.091-.205.32-.248.444-.043.12-.1.392-.134.506-.033.115-.014.114-.014.181a.52.52 0 0 0 .024.139c.02.019.039.023.082.01.119-.101.3-.283.41-.511.104-.23.162-.391.22-.577.066-.196.137-.692.137-.692zm-3.425.009s-.014.029 0 .11c.015.08.047.267.1.439.052.171.129.381.23.596.1.215.305.52.5.725 0 0 .015-.11.005-.224-.005-.105-.033-.224-.047-.315-.015-.076-.039-.133-.072-.238-.024-.081-.09-.158-.124-.239a2.477 2.477 0 0 0-.263-.443c-.12-.153-.195-.273-.329-.411ZM.82 7.99s-.081.153-.11.215a2.066 2.066 0 0 0-.1.477s.377.11.401.124c.024.014 3.1 1.36 3.515 1.527 0 0 .01-.034.005-.072 0-.033.02-.139.029-.23.01-.095.024-.2.086-.352l-.12-.048a63.38 63.38 0 0 1-1.536-.63 67.902 67.902 0 0 1-1.803-.834C1.057 8.095.93 8.052.82 7.99Zm8.291.81c-.043.001-.019.044.004.087.029.067.125.253.225.43.1.176.143.219.238.323.09.1.234.206.353.297.12.086.253.148.344.2.09.048.253.153.372.205 0 0-.005-.071-.005-.09a1.619 1.619 0 0 0-.139-.34 1.516 1.516 0 0 0-.29-.42 3.4 3.4 0 0 1-.176-.185 1.262 1.262 0 0 0-.177-.139c-.048-.029-.158-.133-.286-.185-.13-.048-.172-.086-.354-.158A.337.337 0 0 0 9.11 8.8zm5.687.147a.128.128 0 0 0-.044.011c-.105.048-.104.057-.262.129-.162.072-.129.058-.425.301-.296.248-.476.573-.534.783 0 0 .09.004.22-.053.123-.053.31-.191.467-.32.157-.124.205-.191.306-.31.095-.115.171-.315.214-.401.039-.07.096-.139.058-.14zm9.008.596c-.024.003-.068.052-.112.088-.072.062-1.541 1.183-1.584 1.231-.048.043-.171.1-.147.115.028.014.076.014.157.042.1.029 1.083.367 1.23.42.154.057.396.12.515.186l.02-.372c.005-.105.004-.262.004-.4 0-.267-.042-.735-.056-.95-.005-.043-.005-.196-.005-.305.002-.043-.007-.058-.022-.055zm-23.44.04c0 .058-.033.263-.047.401-.01.143-.067.31-.072.448.033.01.335.149.492.23.153.08 1.321.701 1.598.825.277.124 1.416.687 1.607.806-.057.024-.276.219-.39.3-.115.081-.755.769-.96.97-.205.195-.515.481-.653.624-.138.143-1.05.997-1.13 1.045-.081.052-.158.129-.21.148.009.057.028.252.052.352.02.1.047.277.066.34.02.056.039.186.101.305.057-.048.143-.1.248-.162.1-.053.529-.511.615-.578 0 0 1.245-1.221 1.57-1.512.329-.291.73-.778 1.082-1.121 0 0-.019-.577-.004-.706.019-.134.004-.334.01-.491.004-.158-.001-.163-.034-.196 0 0-.076-.048-.177-.091-.095-.048-1.192-.634-1.278-.672-.09-.038-.353-.13-.51-.21C2.188 10.555.55 9.635.365 9.583Zm15.166.415c-.062.005-.167.02-.306.053a1.46 1.46 0 0 0-.333.124c-.12.058-.172.11-.325.176a1.366 1.366 0 0 0-.353.22c-.043.038-.096.072-.13.124-.033.053-.056.12-.085.172a.45.45 0 0 0-.033.105c-.005.052.048.033.082.028.047-.01.094-.029.147-.043.08-.024.205-.066.32-.1.123-.033.334-.182.539-.334.21-.153.315-.305.477-.525zm-7.123.134a.6.6 0 0 0-.095.01s.034.052.053.076c.02.029.086.114.157.167.12.086.262.162.415.272.153.105.358.167.601.238.243.072.478.086.654.1.148-.01.014-.071-.076-.128a5.163 5.163 0 0 1-.497-.353c-.205-.167-.338-.172-.486-.22-.148-.047-.516-.11-.55-.123-.042-.015-.033-.02-.114-.034-.024-.002-.04-.005-.062-.005zm3.693.186-.181.296c-.12.196-.3.467-.41.624-.086.115-.21.287-.44.583.096.143.282.515.44.744.157.23.414.586.586.82.08-.105.138-.176.19-.248.048-.071.135-.171.178-.248.038-.076.104-.172.223-.382.015-.019.024-.037.038-.056.063-.082.11-.173.173-.259.033-.052.07-.104.109-.151.038-.048.09-.096.114-.158.01-.014.005-.014-.004-.029-.02-.024-.029-.052-.043-.08-.02-.034-.048-.068-.072-.101-.076-.1-.248-.391-.396-.601-.143-.21-.347-.544-.505-.754zm3.287 1.1a1.724 1.724 0 0 0-.401.064c-.182.048-.687.229-.806.267-.124.038-.033.09-.005.129.034.038.167.081.22.09.052.01.138.038.253.062.114.02.419.053.777.053.357-.004.601-.009.897-.042.296-.029.625-.13.835-.2 0 0-.03-.044-.067-.068-.034-.028-.081-.076-.21-.12-.134-.047-.368-.1-.506-.138a2.381 2.381 0 0 0-.43-.066c-.157-.014-.242-.015-.452-.029a.962.962 0 0 0-.105-.002zm-6.718.176a1.74 1.74 0 0 0-.481.065 5.29 5.29 0 0 0-.51.152c-.091.039-.177.062-.3.12-.063.028-.144.028-.24.08-.085.053-.08.072-.052.077.024.005.128.048.2.052.1.005.325.062.578.086.253.02.51.014.73.01.219-.01.472-.029.81-.148.11-.057.154-.043.273-.081.114-.048.18-.077.372-.13-.058-.042-.044-.033-.11-.09-.067-.048-.244-.086-.353-.11-.12-.024-.296-.061-.42-.061-.119 0-.29-.006-.439-.02a1.202 1.202 0 0 0-.058-.002zm-8.553.117s.01.019-.004.153c-.01.133.038.792.057.987a16 16 0 0 0 .157 1.098s.105-.034.225-.12c.119-.085.644-.496.863-.672.225-.177.654-.54.754-.611l.138-.105a8.27 8.27 0 0 1-.567-.143c-.091-.034-.172-.048-.286-.106-.12-.062-.359-.137-.459-.19-.071-.038-.33-.105-.506-.172-.133-.048-.18-.067-.372-.12Zm14.375 1.013a.732.732 0 0 0-.173.017s.019.039.11.11c.09.077.39.215.529.277.138.067.377.143.596.186.224.038.454.062.654.052 0 0-.038-.057-.1-.114a3.105 3.105 0 0 0-.41-.214c-.143-.062-.349-.178-.544-.25-.196-.07-.386-.06-.496-.06-.055 0-.11-.004-.166-.004zm-4.64.062a.398.398 0 0 0-.074.008c-.139.024-.21.019-.306.038-.081.014-.085.034-.18.053-.091.024-.21.08-.287.119-.076.038-.3.114-.458.224-.153.114-.334.248-.387.315.157.004.434.02.635-.028.195-.053.429-.115.63-.259.09-.062.176-.123.262-.18.034-.024.071-.044.1-.063.033-.024.062-.052.096-.071a.977.977 0 0 1 .047-.034c.024-.014.053-.028.067-.047.024-.024.01-.043-.014-.053a.502.502 0 0 0-.13-.022zm9.752.165s.005.158 0 .249c0 .095 0 .4.005.481.005.081.006.129.049.167.047.038 1.993 1.14 2.136 1.217.148.076 1.227.692 1.28.72.09-.067.109-.157.17-.248a2.86 2.86 0 0 0 .149-.248c.038-.082.095-.172.128-.239l-.177-.095c-.066-.033-.205-.081-.324-.162-.12-.076-.296-.177-.434-.277-.134-.105-.648-.344-.854-.458-.205-.115-1.355-.711-1.502-.792-.144-.077-.416-.205-.626-.315zm-9.038.304c-.005 0-.01 0-.015.002-.072.009-.086.014-.272.123-.186.11-.391.335-.477.416a3.096 3.096 0 0 0-.344.486c-.053.096-.186.386-.239.448-.047.067.015.053.101 0 .057-.033.076-.032.19-.1.11-.07.258-.147.454-.348.195-.2.267-.329.376-.515.11-.186.13-.282.191-.391.055-.092.065-.122.035-.121zm3.18.27c-.027 0 .004.069.086.209.115.186.3.467.363.548.062.077.186.162.315.239.133.08.267.186.329.238.062.053.19.12.258.144a.731.731 0 0 0-.09-.23c-.096-.142-.187-.3-.383-.505a2.853 2.853 0 0 0-.524-.44c-.12-.075-.21-.11-.306-.18-.022-.016-.038-.023-.047-.023zm-.902.385c-.009-.002-.01.012-.009.043 0 0 0 .148.005.196.014.143.038.367.191.744.148.376.396.715.635.983.062-.172.014-.473-.01-.707a1.084 1.084 0 0 0-.234-.562c-.09-.091-.043-.058-.152-.2a3.53 3.53 0 0 0-.353-.43c-.04-.04-.062-.066-.073-.067zm-1.726.003c-.007 0-.017.007-.029.02-.028.025-.143.159-.233.264-.096.105-.243.31-.296.438-.048.124-.138.33-.167.477a4.431 4.431 0 0 0-.071.435c-.01.062 0 .157.004.229.048-.02.086-.062.134-.12.047-.061.2-.263.334-.401.129-.143.186-.296.239-.439.047-.143.114-.41.128-.553.014-.143-.009-.2-.014-.253-.003-.065-.012-.097-.029-.097zm-6.516.15s-.057.08-.081.119c-.02.038-.105.119-.268.32-.157.2-.963.992-1.235 1.306-.272.315-1.397 1.399-1.607 1.609 0 0 .014.085.057.157.033.076.147.248.247.468 0 0 .04.076.092.047 0 0 .161-.148.233-.253.076-.105 1.35-1.326 1.488-1.493.13-.157.826-.81 1.341-1.436-.033-.095-.157-.338-.19-.477-.03-.143-.025-.239-.077-.368zm7.413.028c-.029.081-.043.13-.062.191-.029.072-.034.138-.062.215-.029.076-.08.258-.1.3-.033.063-.034.12-.067.239-.029.115-.047.32-.052.372-.01.057.052.424.071.563.02.143.086.444.129.563.038.124.124.3.148.372.062-.057.062-.148.105-.258.047-.096.105-.4.138-.581.039-.182.053-.41.077-.601a2.998 2.998 0 0 0-.03-.668 2.31 2.31 0 0 0-.118-.41.875.875 0 0 0-.177-.297zm7.213.76c-.014-.002-.024.008-.029.042-.005.066-.024.157 0 .305.02.143.057.587.081.75.024.161.048.538.063.738.014.205.042.502.056.73 0 0 .186-.014.325-.019.138-.01 2.4-.228 2.571-.305 0 0-.157-.095-.257-.19-.105-.096-1.608-1.15-1.88-1.365-.277-.21-.84-.611-.873-.644-.024-.022-.043-.038-.057-.041zm-14.03 1.025s-2.653 3.014-2.69 3.114c.028-.01-.038.082.062.034.1-.043 2.252-.559 2.3-.587.033-.034.314-2.3.328-2.561zm13.21.386c-.106.09-.154.157-.235.257-.08.1-.352.464-.5.616a6.193 6.193 0 0 1-.492.453 20.45 20.45 0 0 1-.525.367c-.052.038-.028.062.03.077.061.009 1.369-.095 1.774-.148.038-.128-.029-1.207-.033-1.307-.01-.105-.015-.224-.02-.315zM5.774 16.6s.072 1.694.091 1.737c.024.043 1.088.057 1.44-.024 0 0-.109-.124-.204-.2-.1-.082-.545-.586-.616-.668-.072-.076-.577-.648-.601-.672-.029-.029-.072-.12-.11-.173Zm16.2 1.69c-.138.038-2.466.28-2.79.304.014.077.062 2.458.095 2.553l.01.038.042-.015c.077-.085 1.232-.968 1.394-1.154.162-.186.749-.878.773-.916.023-.038.448-.677.452-.72.01-.038.03-.043.025-.09zm-5.388.62c-.508 0-1.023.005-1.119.014 0 0 .096.09.191.21.096.124 2.515 2.432 2.577 2.514.057.085.171.08.214.071.043-.08-.043-.343-.057-.434-.033-.19-.234-2.213-.305-2.366 0 0-.296.024-.43.005-.064-.01-.564-.015-1.071-.015zm-8.407.015a.066.066 0 0 0-.02.004c-.057.019-2.342.276-2.428.338.02.067 0 .206.024.325.015.115.176 2.308.21 2.409.048.157.005.152.08.29a.817.817 0 0 0 .201-.176c.081-.1 1.914-3.043 1.966-3.096.042-.05.01-.096-.033-.094zm.848.218s-.753 1.298-.796 1.379c-.043.076-.143.263-.191.353a6.655 6.655 0 0 1-.147.305c-.024.038-.812 1.188-.855 1.25-.067.09-.1.12-.176.248 0 0 .31.167.372.239.062.071.296.138.387.22 0 0 .038-.054.08-.135.034-.057.057-.124.1-.205.029-.057.067-.086.11-.195.038-.11.162-.367.205-.458.038-.09.92-1.79.992-1.928.072-.138.354-.644.435-.758 0 0-.038-.028-.081-.052-.039-.029-.071-.062-.1-.081-.02-.024-.153-.072-.215-.11-.062-.038-.029.01-.12-.072zm5.387.12s-.101.043-.216.066a2.89 2.89 0 0 0-.324.081c-.071.02-.1.014-.047.053.057.038 1.579 1.775 1.789 2 .21.223.74.829.816.929.076.095.119.186.238.382.167-.048.31-.163.444-.21.138-.039.195-.091.238-.13a3.46 3.46 0 0 0-.287-.333c-.176-.2-1.897-2.056-2.14-2.304-.244-.248-.32-.334-.511-.535zm-3.697.324c-.048.071-.077.138-.11.2-.029.067-.988 1.966-1.064 2.114-.077.143-.34.629-.392.743-.052.12-.032.025-.152.191-.114.167-.22.378-.291.587.062.048.205.096.315.149.114.047.387.09.501.142.014-.057 1.536-3.077 1.645-3.3.105-.23.182-.259.297-.43 0 0 1.264 1.317 1.397 1.493.13.177.72.925.926 1.197.205.268.482.568.668.878 0 0 .448-.086.544-.129.1-.038.329-.086.405-.138-.095-.067-1.26-1.355-1.532-1.641a18.62 18.62 0 0 1-.882-.992 7 7 0 0 0-1.03-1.002c-.187-.005-.95-.02-1.245-.062Zm-5.82.005c-.044 0-1.655.129-1.899.214.115.153.548.64.777.86.234.214.907.844 1.145 1.035.034.019.029.004.053-.101.028-.105-.005-2.013-.077-2.008zm6.72 1.97c-.042.038-.123.224-.19.333-.071.11-.18.382-.238.502-.057.119-.324.724-.434.925-.105.205-.134.334-.243.52l-.01.029.042.009c.062.005.13.058.272.062.115.005.401.067.597.053l.276.004c.2.005.21-.014.396-.01.182.006.425-.027.702-.09.277-.061.31-.062.515-.105.2-.043.22-.066.162-.147a50.57 50.57 0 0 0-.32-.434 4.858 4.858 0 0 0-.42-.483c-.186-.195-.572-.552-.71-.71-.139-.152-.277-.31-.396-.458Z"/></svg>