<svg role="img" viewBox="0 0 24 24" xmlns="http://www.w3.org/2000/svg"><title>HK Express</title><path id="polygon1" fill="#702b91" d="M14.018 3.246c-2.099-.014-4.838 1.104-7.036 4.36-1.522 2.026-3.924 9.04 2.808 12.4 6.053 2.646 11.464-2.581 11.464-2.581L19.04 14.6s-2.748 2.554-5.57 2.554c-3.334 0-4.28-2.372-4.442-2.849-.96-2.793 1.573-6.08 3.258-6.97.687-.365 1.659-.73 2.394-.339.025.013.316.186-.142 1.013-.294.529-1.795 2.545-4.353 2.954-.85 1.815-.435 3.034-.09 3.62 1.837-.135 3.576-.837 5.177-2.093l.037-.03c1.411-1.174 3.668-3.548 2.936-6.264-.41-1.516-1.669-2.591-3.37-2.877a5.407 5.407 0 0 0-.857-.073ZM2.382 6.93 0 9.638c1.277 1.616 3.601 3.12 4.416 3.562-.012-1.396.31-2.731.733-3.8-.922-.672-2.224-1.912-2.767-2.47Z"/><path fill="#21b9da" d="m21.751 12.357-2.058 1.72 2.25 2.81L24 15.165Z"/></svg>