<svg role="img" viewBox="0 0 24 24" xmlns="http://www.w3.org/2000/svg" fill="#0c0243"><title>Icelandair</title><path d="M17.998 1.788 0 22.212h17.655L24 1.788Zm1.3 8.935-.127.264a46.476 46.476 0 0 1-.671 1.362c-.363.592-.626.857-.927 1.029-.237.136-.54.27-1.135.29-.46.013-.792-.053-1.2-.134-.172-.034-.359-.071-.574-.106-.984-.157-1.942-.218-2.97.108-.75.237-1.217.642-1.217.642l.958-2.151c.326-.667 1.413-1.15 2.843-1.133.675.009 1.154.104 1.61.194.414.083.808.16 1.31.167 1.578-.007 2.1-.532 2.1-.532zm-1.524 3.124s-.508 1.116-1.071 1.836c-.744.88-1.48.941-2.933.806-3.664-.324-4.485.634-4.65.827l-.016.019s.024-.117.1-.284c.119-.27.25-.556.393-.864.145-.313.3-.648.463-1.014.15-.313.248-.378.372-.46l.084-.057c.691-.456 1.798-.881 3.271-.75.58.05.986.137 1.34.212.31.066.58.123.892.141.245.015.56.019.857-.045.714-.151.898-.367.898-.367zm-5.884 3.162c-.086.198-.65 1.354-.65 1.354s-.348.053-.86.046c-.438-.006-.716-.061-.925-.143-.182-.07-.337-.268-.282-.416.04-.11.13-.194.243-.268.516-.33 1.446-.504 2.474-.573z"/></svg>