<svg role="img" viewBox="0 0 24 24" xmlns="http://www.w3.org/2000/svg" fill="#001b94"><title>IndiGo</title><path d="M19.57 8.327c0 .54-.437.98-.976.98a.979.979 0 0 1 0-1.96c.539 0 .977.439.977.98zm-2.93-2.94c0 .542-.438.98-.977.98a.978.978 0 0 1-.977-.98c0-.54.438-.979.977-.979.54 0 .977.439.977.98zm2.93 0c0 .542-.437.98-.976.98a.979.979 0 0 1 0-1.959c.539 0 .977.439.977.98zm-5.86 0c0 .542-.438.98-.977.98a.979.979 0 0 1 0-1.959c.539 0 .976.439.976.98zm7.528-3.14a.982.982 0 0 1 0 1.385.976.976 0 0 1-1.382 0 .982.982 0 0 1 0-1.386.975.975 0 0 1 1.382 0zM23.68.286a.982.982 0 0 1 0 1.386.976.976 0 0 1-1.382 0 .982.982 0 0 1 0-1.386.975.975 0 0 1 1.382 0zm-13.39 5.1c0 .542-.437.98-.976.98a.978.978 0 0 1-.977-.98c0-.54.437-.979.977-.979.539 0 .977.439.977.98zm-2.93 0c0 .542-.437.98-.977.98a.979.979 0 0 1 0-1.959c.54 0 .977.439.977.98zm11.234 4.899c.539 0 .977.439.977.98 0 .54-.438.979-.977.979a.979.979 0 0 1 0-1.96zM7.848 20.08c0 .541-.437.98-.977.98a.979.979 0 0 1-.976-.98c0-.54.437-.979.976-.979.54 0 .977.439.977.98zm-2.93-2.938c0 .54-.437.98-.977.98a.978.978 0 0 1 0-1.96c.54 0 .977.44.977.98zm2.93 0c0 .54-.437.98-.977.98a.978.978 0 0 1-.976-.98c0-.54.437-.98.976-.98.54 0 .977.44.977.98zm-5.86 0a.978.978 0 1 1-1.954 0c0-.54.437-.98.976-.98.54 0 .977.44.977.98zm4.883 4.898a.979.979 0 0 1 0 1.959.978.978 0 0 1-.976-.98c0-.54.437-.98.976-.98zm11.723-8.817c.539 0 .977.44.977.98 0 .541-.438.98-.977.98a.979.979 0 0 1 0-1.96zm0 3.43a.979.979 0 0 1 0 1.96.979.979 0 0 1 0-1.96zm-6.35-3.92a.978.978 0 1 1-1.954 0c0-.54.438-.979.977-.979.54 0 .977.439.977.98zm1.668-3.141a.982.982 0 0 1 0 1.385.975.975 0 0 1-1.382 0 .982.982 0 0 1 0-1.385.975.975 0 0 1 1.382 0zm2.442-1.96a.982.982 0 0 1 0 1.386.975.975 0 0 1-1.382 0 .982.982 0 0 1 0-1.385.975.975 0 0 1 1.382 0zm-6.35 6.368a.982.982 0 0 1 0 1.386.976.976 0 0 1-1.381 0 .982.982 0 0 1 0-1.386.975.975 0 0 1 1.381 0z"/></svg>