<svg role="img" viewBox="0 0 24 24" xmlns="http://www.w3.org/2000/svg" fill="#051766"><title>Korean Air</title><path d="m2.214 17.892-.096.066C4.074 21.564 7.776 24 12 24c6.282 0 11.37-5.376 11.37-12 0-1.824-.756-3.36-1.65-4.524-1.188-1.548-2.88-2.292-4.566-2.304-1.392-.012-2.832.456-3.846 1.374-1.158 1.05-1.416 2.4-1.716 4.59-.33 2.4-2.262 4.056-4.746 4.056-3.216 0-5.208-1.98-5.076-5.01.012-.21.03-.42.066-.624.606-3.576 4.452-7.266 10.236-7.254 3.882 0 6.798.87 9.714 3.804l.096-.066C19.926 2.436 16.23 0 12 0 5.724 0 .63 5.376.63 12c0 1.824.756 3.36 1.65 4.524a5.766 5.766 0 0 0 4.566 2.304c1.392.018 2.832-.456 3.846-1.374 1.158-1.05 1.416-2.4 1.716-4.59.33-2.4 2.268-4.056 4.746-4.056 3.222 0 5.214 1.98 5.082 5.01-.012.21-.03.42-.066.624-.618 3.576-4.446 7.266-10.242 7.254-3.882 0-6.798-.87-9.714-3.804"/></svg>