<svg role="img" viewBox="0 0 24 24" xmlns="http://www.w3.org/2000/svg" fill="#00b7ac"><title>flynas</title><path d="M14.742 0C9.41 0 6.135 3.316 5.862 8.917a2.175 2.175 0 0 0-.017.273v12.787A2.022 2.022 0 0 0 7.87 24a2.022 2.022 0 0 0 2.022-2.023V9.685c0-5.054 2.769-5.64 4.851-5.64.225 0 .46.015.71.03.208.012.413.023.62.03a2.021 2.021 0 0 0 2.082-1.96 2.022 2.022 0 0 0-1.96-2.083h-.002c-.164-.005-.33-.016-.495-.025C15.413.02 15.09 0 14.743 0zm-1.598 9.215a2.019 2.019 0 0 0-2.02 2.02 2.019 2.019 0 0 0 2.02 2.02 2.02 2.02 0 0 0 2.02-2.02 2.02 2.02 0 0 0-2.02-2.02z"/></svg>