<svg role="img" viewBox="0 0 24 24" xmlns="http://www.w3.org/2000/svg" fill="#a48c5d"><title>Air Astana</title><path d="m21.55 0-.004.002L2.364 12l19.181 11.998.004.002a5.519 5.519 0 0 0-2.254-4.881l-.012-.004a3.47 3.47 0 0 0 1.543-1.06c.514-.615.81-1.42.81-2.288 0-.81-.27-1.56-.726-2.156a2.363 2.363 0 0 0-1.894-.953c-1.103 0-2.03.761-2.298 1.793-.04.142-.067.289-.072.432l-.005.082a.558.558 0 0 0 0 .035v.011c0 .432.344.781.77.781.353 0 .65-.24.742-.566a.77.77 0 0 0 .03-.199c.008-.148 0-.303.04-.45a.693.693 0 0 1 .637-.49c1.078 0 1.535 2.083.26 3.114-.397.32-.93.618-1.704.618a2.773 2.773 0 0 1-2.784-2.793c0-.481.121-.948.345-1.352.087-.158.296-.439.296-.439-1.352.206-2.454.337-3.427-.259A3.396 3.396 0 0 1 10.828 12c.323-.46.667-.76 1.018-.975.973-.596 2.076-.465 3.427-.259 0 0-.21-.281-.296-.44a2.797 2.797 0 0 1-.345-1.351 2.773 2.773 0 0 1 2.784-2.793c.773 0 1.307.298 1.703.618 1.276 1.03.82 3.114-.26 3.114a.684.684 0 0 1-.636-.49c-.04-.147-.032-.303-.04-.45a.773.773 0 0 0-.771-.765.776.776 0 0 0-.772.78V9l.001.035.005.082c.005.143.031.29.072.432a2.383 2.383 0 0 0 2.298 1.793c.773 0 1.46-.374 1.894-.953a3.545 3.545 0 0 0 .727-2.157c0-.867-.297-1.672-.81-2.288a3.472 3.472 0 0 0-1.544-1.059l.012-.004A5.518 5.518 0 0 0 21.55 0z"/></svg>