<svg role="img" viewBox="0 0 24 24" xmlns="http://www.w3.org/2000/svg"><title>LATAM Airlines</title><path fill="#ed1650" d="M8.193 0c-.135-.001-.163.096-.163.341v1.14c0 1.052.793 1.337 1.148 1.467l7.095 2.566 2.17-.783c1.054-.384 1.054-.68.616-.84L8.739.159C8.468.062 8.3.001 8.193 0ZM4.665 3.017c-.134 0-.162.098-.162.346v1.14c0 1.046.793 1.337 1.148 1.46l4.685 1.696 3.636-1.316-8.764-3.167c-.27-.098-.438-.158-.543-.16Zm0 4.294c-.134-.002-.162.095-.162.343v1.539s0 .575.527.383l3-1.082-2.822-1.022c-.27-.097-.438-.16-.543-.161Zm12.938.348-3.636 1.316 2.3.835 2.171-.783c1.059-.389 1.06-.684.62-.845z"/><path fill="#1b0088" d="M19.054 3.891c.443.161.443.456-.616.84L5.03 9.576c-.527.192-.527-.383-.527-.383 0 .176 0 .653.355.778l2.733.99c.439.16.438.16.882 0L18.97 7.166c.527-.192.527-.602.527-1.83 0-1.285 0-1.285-.443-1.446zm.005 4.291c.443.161.443.456-.616.84L8.03 12.785v2.627l10.94-3.955c.527-.191.527-.6.527-1.828 0-1.286 0-1.286-.438-1.447zm-5.44 6.912a.516.516 0 0 0-.205.038L8.03 17.081h.005v2.628l5.207-1.882c.35-.13.615-.223.615-1.01v-.964c0-.43 0-.743-.238-.76zm-3.294 5.473a.57.57 0 0 0-.177.038l-2.118.768h.005V24l1.94-.7c.35-.129.616-.223.616-1.005v-.97c0-.445 0-.766-.266-.758z"/></svg>