<?xml version="1.0" encoding="UTF-8" standalone="no"?>
<!DOCTYPE svg PUBLIC "-//W3C//DTD SVG 1.1//EN" "http://www.w3.org/Graphics/SVG/1.1/DTD/svg11.dtd">
<svg width="100%" height="100%" viewBox="0 0 712 761" version="1.1" xmlns="http://www.w3.org/2000/svg" xmlns:xlink="http://www.w3.org/1999/xlink" xml:space="preserve" xmlns:serif="http://www.serif.com/" style="fill-rule:evenodd;clip-rule:evenodd;stroke-linejoin:round;stroke-miterlimit:3.864;">
    <g transform="matrix(12.5,0,0,12.5,0,0)">
        <g id="g5188" transform="matrix(3.779527,0,0,3.779527,51.365284,-532.08497)">
            <path id="path3592" d="M-11.1,151.457C-10.972,148.958 -8.785,147.044 -6.215,147.182C-3.646,147.32 -1.667,149.458 -1.796,151.957C-1.924,154.457 -4.112,156.37 -6.681,156.232C-9.25,156.094 -11.229,153.956 -11.1,151.457" style="fill:white;fill-rule:nonzero;"/>
            <path id="path3596" d="M-11.1,151.457C-10.972,148.958 -8.785,147.044 -6.215,147.182C-3.646,147.32 -1.667,149.458 -1.796,151.957C-1.924,154.457 -4.112,156.37 -6.681,156.232C-9.25,156.094 -11.229,153.956 -11.1,151.457Z" style="fill:none;fill-rule:nonzero;stroke:white;stroke-width:0.51px;"/>
            <path id="path3600" d="M-8.236,150.969C-8.236,150.969 -7.732,150.475 -8.176,149.806C-8.18,149.8 -7.917,149.889 -7.664,149.912C-7.658,149.913 -7.652,149.791 -7.652,149.775C-8.208,149.611 -8.998,149.324 -9.138,148.975C-9.138,148.975 -8.221,149.416 -7.623,149.46C-7.623,149.46 -7.575,149.31 -7.575,149.31C-8.171,149.163 -9.409,148.793 -9.659,148.227C-9.659,148.227 -8.364,148.932 -7.496,149.036C-7.491,149.036 -7.433,148.885 -7.433,148.885C-7.989,148.725 -9.17,148.142 -9.739,147.158C-9.739,147.158 -8.348,148.309 -7.295,148.617C-7.297,148.616 -7.186,148.466 -7.185,148.464C-7.8,148.14 -9.269,147.502 -9.588,146.45C-9.595,146.43 -8.231,147.733 -7.924,147.669C-7.924,147.669 -9.449,146.417 -9.59,145.684C-9.59,145.684 -7.026,148.228 -6.772,148.389C-6.647,148.469 -6.476,148.808 -6.476,148.808C-6.476,148.808 -5.911,150.203 -4.919,150.538C-4.899,150.545 -6.215,150.362 -6.759,150.502C-7.351,150.654 -8.236,150.969 -8.236,150.969" style="fill:white;fill-rule:nonzero;"/>
            <path id="path3604" d="M-8.236,150.969C-8.236,150.969 -7.732,150.475 -8.176,149.806C-8.18,149.8 -7.917,149.889 -7.664,149.912C-7.658,149.913 -7.652,149.791 -7.652,149.775C-8.208,149.611 -8.998,149.324 -9.138,148.975C-9.138,148.975 -8.221,149.416 -7.623,149.46C-7.623,149.46 -7.575,149.31 -7.575,149.31C-8.171,149.163 -9.409,148.793 -9.659,148.227C-9.659,148.227 -8.364,148.932 -7.496,149.036C-7.491,149.036 -7.433,148.885 -7.433,148.885C-7.989,148.725 -9.17,148.142 -9.739,147.158C-9.739,147.158 -8.348,148.309 -7.295,148.617C-7.297,148.616 -7.186,148.466 -7.185,148.464C-7.8,148.14 -9.269,147.502 -9.588,146.45C-9.595,146.43 -8.231,147.733 -7.924,147.669C-7.924,147.669 -9.449,146.417 -9.59,145.684C-9.59,145.684 -7.026,148.228 -6.772,148.389C-6.647,148.469 -6.476,148.808 -6.476,148.808C-6.476,148.808 -5.911,150.203 -4.919,150.538C-4.899,150.545 -6.215,150.362 -6.759,150.502C-7.351,150.654 -8.236,150.969 -8.236,150.969L-8.236,150.969Z" style="fill:none;fill-rule:nonzero;stroke:white;stroke-width:0.51px;"/>
            <path id="path3608" d="M-9.03,144.868C-9.03,144.868 -7.881,146.209 -7.284,146.628C-6.157,147.418 -6.137,148.397 -6.158,148.799C-6.158,148.799 -6.967,147.613 -7.36,147.188C-7.753,146.764 -8.722,145.788 -9.03,144.868" style="fill:white;fill-rule:nonzero;"/>
            <path id="path3612" d="M-9.03,144.868C-9.03,144.868 -7.881,146.209 -7.284,146.628C-6.157,147.418 -6.137,148.397 -6.158,148.799C-6.158,148.799 -6.967,147.613 -7.36,147.188C-7.753,146.764 -8.722,145.788 -9.03,144.868Z" style="fill:none;fill-rule:nonzero;stroke:white;stroke-width:0.51px;"/>
            <path id="path3616" d="M-1.508,150.117C-1.508,150.117 -2.706,150.757 -3.219,151.351C-3.223,151.356 -3.312,151.378 -3.54,151.366C-3.767,151.353 -4.191,151.391 -4.52,151.219C-4.85,151.047 -5.138,150.755 -5.138,150.755C-5.138,150.755 -4.616,150.826 -4.097,150.791C-3.71,150.765 -3.042,150.505 -3.018,150.493C-2.458,150.219 -1.508,150.117 -1.508,150.117" style="fill:white;fill-rule:nonzero;"/>
            <path id="path3620" d="M-1.508,150.117C-1.508,150.117 -2.706,150.757 -3.219,151.351C-3.223,151.356 -3.312,151.378 -3.54,151.366C-3.767,151.353 -4.191,151.391 -4.52,151.219C-4.85,151.047 -5.138,150.755 -5.138,150.755C-5.138,150.755 -4.616,150.826 -4.097,150.791C-3.71,150.765 -3.042,150.505 -3.018,150.493C-2.458,150.219 -1.508,150.117 -1.508,150.117L-1.508,150.117Z" style="fill:none;fill-rule:nonzero;stroke:white;stroke-width:0.51px;"/>
            <path id="path3624" d="M-3.572,150.114C-4.074,150.47 -4.66,150.573 -4.66,150.573C-4.66,150.573 -3.889,150.543 -3.608,150.414C-2.831,150.058 -1.841,149.921 -1.841,149.921C-1.974,149.786 -2.293,149.715 -2.293,149.715C-2.291,149.728 -2.27,149.775 -2.271,149.788C-2.277,149.912 -2.386,150.007 -2.513,150C-2.641,149.993 -2.739,149.887 -2.733,149.763C-2.731,149.739 -2.708,149.694 -2.717,149.694C-2.837,149.692 -3.07,149.758 -3.572,150.114" style="fill:white;fill-rule:nonzero;"/>
            <path id="path3628" d="M-3.572,150.114C-4.074,150.47 -4.66,150.573 -4.66,150.573C-4.66,150.573 -3.889,150.543 -3.608,150.414C-2.831,150.058 -1.841,149.921 -1.841,149.921C-1.974,149.786 -2.293,149.715 -2.293,149.715C-2.291,149.728 -2.27,149.775 -2.271,149.788C-2.277,149.912 -2.386,150.007 -2.513,150C-2.641,149.993 -2.739,149.887 -2.733,149.763C-2.731,149.739 -2.708,149.694 -2.717,149.694C-2.837,149.692 -3.07,149.758 -3.572,150.114L-3.572,150.114Z" style="fill:none;fill-rule:nonzero;stroke:white;stroke-width:0.51px;"/>
            <path id="path3632" d="M-8.846,153.185C-8.858,153.183 -8.423,153.045 -8.189,152.627C-8.189,152.627 -7.832,153.076 -7.403,153.186C-7.397,153.187 -8.302,153.274 -8.846,153.185" style="fill:white;fill-rule:nonzero;"/>
            <path id="path3636" d="M-8.846,153.185C-8.858,153.183 -8.423,153.045 -8.189,152.627C-8.189,152.627 -7.832,153.076 -7.403,153.186C-7.397,153.187 -8.302,153.274 -8.846,153.185L-8.846,153.185Z" style="fill:none;fill-rule:nonzero;stroke:white;stroke-width:0.51px;"/>
            <path id="path3640" d="M-10.217,153.043C-10.217,153.043 -9.569,152.527 -9.301,152.137C-9.137,151.899 -8.326,151.196 -7.741,151.106C-7.739,151.106 -7.203,152.466 -5.325,152.755C-5.325,152.755 -6.883,153.504 -10.163,153.06L-10.217,153.043Z" style="fill:white;fill-rule:nonzero;"/>
            <path id="path3644" d="M-10.217,153.043C-10.217,153.043 -9.569,152.527 -9.301,152.137C-9.137,151.899 -8.326,151.196 -7.741,151.106C-7.739,151.106 -7.203,152.466 -5.325,152.755C-5.325,152.755 -6.883,153.504 -10.163,153.06L-10.217,153.043Z" style="fill:none;fill-rule:nonzero;stroke:white;stroke-width:0.51px;"/>
            <path id="path3648" d="M-7.408,150.972C-7.408,150.972 -6.765,150.621 -5.626,150.709C-5.293,150.735 -4.941,151.521 -4.02,151.611C-3.634,151.649 -3.411,151.604 -3.411,151.604C-3.411,151.604 -4.151,152.444 -4.772,152.476C-5.424,152.51 -6.202,152.439 -7.041,151.557C-7.237,151.35 -7.408,150.973 -7.408,150.973" style="fill:white;fill-rule:nonzero;"/>
            <path id="path3652" d="M-7.408,150.972C-7.408,150.972 -6.765,150.621 -5.626,150.709C-5.293,150.735 -4.941,151.521 -4.02,151.611C-3.634,151.649 -3.411,151.604 -3.411,151.604C-3.411,151.604 -4.151,152.444 -4.772,152.476C-5.424,152.51 -6.202,152.439 -7.041,151.557C-7.237,151.35 -7.408,150.973 -7.408,150.973L-7.408,150.972Z" style="fill:none;fill-rule:nonzero;stroke:white;stroke-width:0.51px;"/>
            <path id="path3656" d="M-12.739,152.639C-12.739,152.639 -11.595,152.7 -11.148,152.59C-10.7,152.48 -10.002,152.326 -9.731,152.166C-9.731,152.166 -10.502,153.202 -11.563,153.145C-12.624,153.089 -12.739,152.639 -12.739,152.639" style="fill:white;fill-rule:nonzero;"/>
            <path id="path3660" d="M-12.739,152.639C-12.739,152.639 -11.595,152.7 -11.148,152.59C-10.7,152.48 -10.002,152.326 -9.731,152.166C-9.731,152.166 -10.502,153.202 -11.563,153.145C-12.624,153.089 -12.739,152.639 -12.739,152.639L-12.739,152.639Z" style="fill:none;fill-rule:nonzero;stroke:white;stroke-width:0.51px;"/>
            <path id="path3664" d="M-5.887,148.537C-5.887,148.537 -5.923,149.584 -5.358,149.742C-5.212,149.783 -5.123,149.791 -5.123,149.791C-5.123,149.791 -4.985,149.887 -4.228,149.573C-3.783,149.389 -3.131,149.446 -3.131,149.446C-3.131,149.446 -2.313,149.404 -1.855,149.93C-1.851,149.934 -0.884,149.842 -0.602,149.877C-0.321,149.912 0.47,149.982 1.136,150.737C1.136,150.737 0.313,150.074 -0.615,150.111C-1.261,150.138 -1.76,150.493 -1.789,150.512C-1.817,150.53 -2.85,151.261 -3.071,151.518C-3.291,151.775 -3.873,152.611 -5.764,153.114C-7.135,153.479 -9.264,153.444 -9.264,153.444C-9.264,153.444 -10.122,153.734 -10.805,153.717C-11.488,153.701 -11.735,153.412 -11.735,153.412C-11.735,153.412 -12.931,153.28 -13.256,152.342C-13.256,152.342 -12.009,152.402 -11.96,152.391C-11.911,152.381 -10.176,152.38 -9.133,151.582C-8.179,150.853 -8.187,150.383 -8.187,150.383C-8.187,150.383 -8.238,149.826 -8.813,149.58C-9.454,149.306 -9.424,148.905 -9.424,148.905C-9.424,148.905 -10.074,148.373 -10.051,147.649C-10.051,147.649 -9.896,147.828 -9.628,147.994L-9.064,148.295C-9.584,147.924 -10.506,146.821 -10.615,145.992C-10.615,145.992 -10.04,146.821 -9.538,147.04C-9.509,147.052 -10.627,145.951 -10.656,145.17C-10.656,145.17 -10.17,145.922 -9.577,146.222C-9.547,146.237 -10.626,144.862 -10.571,143.79C-10.571,143.79 -9.739,144.656 -9.596,144.933C-9.683,144.648 -10.103,142.929 -10.016,142.139C-10.016,142.139 -9.683,144.254 -7.846,145.616C-7.836,145.623 -9.727,142.961 -9.341,141.369L-9.2,141.923L-8.74,142.897C-8.735,142.904 -8.495,141.179 -8.319,141.115C-8.319,141.115 -8.624,143.289 -7.267,144.828C-5.908,146.366 -5.887,148.537 -5.887,148.537" style="fill:white;fill-rule:nonzero;"/>
            <path id="path3668" d="M-5.887,148.537C-5.887,148.537 -5.923,149.584 -5.358,149.742C-5.212,149.783 -5.123,149.791 -5.123,149.791C-5.123,149.791 -4.985,149.887 -4.228,149.573C-3.783,149.389 -3.131,149.446 -3.131,149.446C-3.131,149.446 -2.313,149.404 -1.855,149.93C-1.851,149.934 -0.884,149.842 -0.602,149.877C-0.321,149.912 0.47,149.982 1.136,150.737C1.136,150.737 0.313,150.074 -0.615,150.111C-1.261,150.138 -1.76,150.493 -1.789,150.512C-1.817,150.53 -2.85,151.261 -3.071,151.518C-3.291,151.775 -3.873,152.611 -5.764,153.114C-7.135,153.479 -9.264,153.444 -9.264,153.444C-9.264,153.444 -10.122,153.734 -10.805,153.717C-11.488,153.701 -11.735,153.412 -11.735,153.412C-11.735,153.412 -12.931,153.28 -13.256,152.342C-13.256,152.342 -12.009,152.402 -11.96,152.391C-11.911,152.381 -10.176,152.38 -9.133,151.582C-8.179,150.853 -8.187,150.383 -8.187,150.383C-8.187,150.383 -8.238,149.826 -8.813,149.58C-9.454,149.306 -9.424,148.905 -9.424,148.905C-9.424,148.905 -10.074,148.373 -10.051,147.649C-10.051,147.649 -9.896,147.828 -9.628,147.994L-9.064,148.295C-9.584,147.924 -10.506,146.821 -10.615,145.992C-10.615,145.992 -10.04,146.821 -9.538,147.04C-9.509,147.052 -10.627,145.951 -10.656,145.17C-10.656,145.17 -10.17,145.922 -9.577,146.222C-9.547,146.237 -10.626,144.862 -10.571,143.79C-10.571,143.79 -9.739,144.656 -9.596,144.933C-9.683,144.648 -10.103,142.929 -10.016,142.139C-10.016,142.139 -9.683,144.254 -7.846,145.616C-7.836,145.623 -9.727,142.961 -9.341,141.369L-9.2,141.923L-8.74,142.897C-8.735,142.904 -8.495,141.179 -8.319,141.115C-8.319,141.115 -8.624,143.289 -7.267,144.828C-5.908,146.366 -5.887,148.537 -5.887,148.537L-5.887,148.537Z" style="fill:none;fill-rule:nonzero;stroke:white;stroke-width:0.67px;"/>
            <path id="path3672" d="M-9.841,147.608L-8.996,147.654L-9.028,148.272L-9.873,148.226L-9.841,147.608Z" style="fill:white;fill-rule:nonzero;"/>
            <path id="path3676" d="M-9.841,147.608L-8.996,147.654L-9.028,148.272L-9.873,148.226L-9.841,147.608Z" style="fill:none;fill-rule:nonzero;stroke:white;stroke-width:0.51px;"/>
            <path id="path3688" d="M-11.39,151.467C-11.254,148.81 -8.928,146.775 -6.196,146.922C-3.464,147.068 -1.36,149.342 -1.497,151.999C-1.634,154.656 -3.959,156.691 -6.691,156.544C-9.423,156.398 -11.527,154.125 -11.39,151.467" style="fill:white;fill-rule:nonzero;"/>
            <path id="path3692" d="M-11.39,151.467C-11.254,148.81 -8.928,146.775 -6.196,146.922C-3.464,147.068 -1.36,149.342 -1.497,151.999C-1.634,154.656 -3.959,156.691 -6.691,156.544C-9.423,156.398 -11.527,154.125 -11.39,151.467Z" style="fill:none;fill-rule:nonzero;stroke:white;stroke-width:0.67px;"/>
            <path id="path3712" d="M-11.395,151.46C-11.532,154.11 -9.433,156.377 -6.709,156.523C-3.983,156.67 -1.664,154.641 -1.528,151.99C-1.392,149.339 -3.49,147.072 -6.214,146.926C-6.307,146.921 -6.4,146.918 -6.492,146.918C-9.095,146.919 -11.263,148.9 -11.395,151.459" style="fill:url(#_Linear1);fill-rule:nonzero;"/>
            <path id="path3716" d="M-9.853,147.625L-9.009,147.67L-9.04,148.288L-9.885,148.243L-9.853,147.625Z" style="fill:white;fill-rule:nonzero;"/>
            <path id="path3720" d="M-9.853,147.625L-9.009,147.67L-9.04,148.288L-9.885,148.243L-9.853,147.625Z" style="fill:none;fill-rule:nonzero;stroke:white;stroke-width:0.05px;stroke-linejoin:miter;"/>
            <path id="path3732" d="M-5.886,148.536C-5.886,148.536 -5.922,149.583 -5.356,149.741C-5.211,149.782 -5.122,149.791 -5.122,149.791C-5.122,149.791 -4.984,149.886 -4.227,149.572C-3.782,149.388 -3.129,149.445 -3.129,149.445C-3.129,149.445 -2.312,149.404 -1.854,149.929C-1.851,149.933 -0.883,149.841 -0.601,149.876C-0.32,149.911 0.471,149.981 1.137,150.736C1.137,150.736 0.314,150.073 -0.613,150.11C-1.26,150.137 -1.759,150.493 -1.788,150.511C-1.817,150.53 -2.849,151.261 -3.07,151.517C-3.29,151.775 -3.872,152.61 -5.764,153.114C-7.134,153.478 -9.263,153.443 -9.263,153.443C-9.263,153.443 -10.121,153.733 -10.804,153.716C-11.487,153.7 -11.735,153.411 -11.735,153.411C-11.735,153.411 -12.93,153.279 -13.255,152.341C-13.255,152.341 -12.008,152.401 -11.959,152.391C-11.91,152.38 -10.175,152.379 -9.133,151.582C-8.178,150.852 -8.186,150.382 -8.186,150.382C-8.186,150.382 -8.237,149.825 -8.812,149.579C-9.454,149.305 -9.423,148.904 -9.423,148.904C-9.423,148.904 -10.073,148.372 -10.05,147.648C-10.05,147.648 -9.895,147.827 -9.628,147.994C-9.628,147.994 -9.062,148.295 -9.063,148.294C-9.583,147.923 -10.505,146.82 -10.614,145.991C-10.614,145.991 -10.039,146.82 -9.538,147.039C-9.509,147.051 -10.626,145.95 -10.655,145.168C-10.655,145.168 -10.168,145.921 -9.576,146.221C-9.546,146.236 -10.625,144.861 -10.57,143.789C-10.57,143.789 -10.044,145.134 -8.668,146.068C-8.66,146.074 -10.108,144.357 -10.015,142.138C-10.015,142.138 -9.682,144.253 -7.845,145.615C-7.835,145.622 -9.726,142.96 -9.34,141.368C-9.34,141.368 -9.159,143.219 -7.588,145.186C-7.582,145.193 -9.021,143.238 -8.371,141.35C-8.371,141.35 -8.623,143.288 -7.265,144.827C-5.907,146.365 -5.886,148.536 -5.886,148.536" style="fill:rgb(35,31,32);fill-rule:nonzero;"/>
            <path id="path3736" d="M-5.886,148.536C-5.886,148.536 -5.922,149.583 -5.356,149.741C-5.211,149.782 -5.122,149.791 -5.122,149.791C-5.122,149.791 -4.984,149.886 -4.227,149.572C-3.782,149.388 -3.129,149.445 -3.129,149.445C-3.129,149.445 -2.312,149.404 -1.854,149.929C-1.851,149.933 -0.883,149.841 -0.601,149.876C-0.32,149.911 0.471,149.981 1.137,150.736C1.137,150.736 0.314,150.073 -0.613,150.11C-1.26,150.137 -1.759,150.493 -1.788,150.511C-1.817,150.53 -2.849,151.261 -3.07,151.517C-3.29,151.775 -3.872,152.61 -5.764,153.114C-7.134,153.478 -9.263,153.443 -9.263,153.443C-9.263,153.443 -10.121,153.733 -10.804,153.716C-11.487,153.7 -11.735,153.411 -11.735,153.411C-11.735,153.411 -12.93,153.279 -13.255,152.341C-13.255,152.341 -12.008,152.401 -11.959,152.391C-11.91,152.38 -10.175,152.379 -9.133,151.582C-8.178,150.852 -8.186,150.382 -8.186,150.382C-8.186,150.382 -8.237,149.825 -8.812,149.579C-9.454,149.305 -9.423,148.904 -9.423,148.904C-9.423,148.904 -10.073,148.372 -10.05,147.648C-10.05,147.648 -9.895,147.827 -9.628,147.994C-9.628,147.994 -9.062,148.295 -9.063,148.294C-9.583,147.923 -10.505,146.82 -10.614,145.991C-10.614,145.991 -10.039,146.82 -9.538,147.039C-9.509,147.051 -10.626,145.95 -10.655,145.168C-10.655,145.168 -10.168,145.921 -9.576,146.221C-9.546,146.236 -10.625,144.861 -10.57,143.789C-10.57,143.789 -10.044,145.134 -8.668,146.068C-8.66,146.074 -10.108,144.357 -10.015,142.138C-10.015,142.138 -9.682,144.253 -7.845,145.615C-7.835,145.622 -9.726,142.96 -9.34,141.368C-9.34,141.368 -9.159,143.219 -7.588,145.186C-7.582,145.193 -9.021,143.238 -8.371,141.35C-8.371,141.35 -8.623,143.288 -7.265,144.827C-5.907,146.365 -5.886,148.536 -5.886,148.536L-5.886,148.536Z" style="fill:none;fill-rule:nonzero;stroke:rgb(35,31,32);stroke-width:0.03px;stroke-linejoin:miter;"/>
            <path id="path3740" d="M-12.738,152.638C-12.738,152.638 -11.595,152.699 -11.147,152.589C-10.699,152.478 -10.001,152.325 -9.73,152.165C-9.73,152.165 -10.501,153.201 -11.562,153.144C-12.623,153.088 -12.738,152.638 -12.738,152.638" style="fill:rgb(0,138,67);fill-rule:nonzero;"/>
            <path id="path3744" d="M-12.738,152.638C-12.738,152.638 -11.595,152.699 -11.147,152.589C-10.699,152.478 -10.001,152.325 -9.73,152.165C-9.73,152.165 -10.501,153.201 -11.562,153.144C-12.623,153.088 -12.738,152.638 -12.738,152.638L-12.738,152.638Z" style="fill:none;fill-rule:nonzero;stroke:rgb(0,138,67);stroke-width:0.03px;stroke-linejoin:miter;"/>
            <path id="path3748" d="M-7.407,150.971C-7.407,150.971 -6.764,150.62 -5.625,150.708C-5.292,150.734 -4.94,151.52 -4.019,151.61C-3.633,151.648 -3.41,151.602 -3.41,151.602C-3.41,151.602 -4.149,152.442 -4.771,152.474C-5.423,152.508 -6.201,152.438 -7.04,151.555C-7.236,151.348 -7.407,150.971 -7.407,150.971" style="fill:white;fill-rule:nonzero;"/>
            <path id="path3752" d="M-10.217,153.042C-10.217,153.042 -9.568,152.526 -9.3,152.136C-9.136,151.898 -8.325,151.195 -7.74,151.105C-7.738,151.105 -7.202,152.465 -5.324,152.754C-5.324,152.754 -6.882,153.504 -10.162,153.059L-10.217,153.042Z" style="fill:rgb(1,59,130);fill-rule:nonzero;"/>
            <path id="path3756" d="M-10.217,153.042C-10.217,153.042 -9.568,152.526 -9.3,152.136C-9.136,151.898 -8.325,151.195 -7.74,151.105C-7.738,151.105 -7.202,152.465 -5.324,152.754C-5.324,152.754 -6.882,153.504 -10.162,153.059L-10.217,153.042Z" style="fill:none;fill-rule:nonzero;stroke:rgb(1,59,130);stroke-width:0.05px;stroke-linejoin:miter;"/>
            <path id="path3760" d="M-8.845,153.184C-8.857,153.182 -8.422,153.044 -8.189,152.626C-8.189,152.626 -7.832,153.075 -7.402,153.185C-7.396,153.186 -8.301,153.274 -8.845,153.184" style="fill:white;fill-rule:nonzero;"/>
            <path id="path3764" d="M-3.571,150.113C-4.073,150.469 -4.658,150.572 -4.658,150.572C-4.658,150.572 -3.889,150.542 -3.607,150.413C-2.831,150.057 -1.84,149.92 -1.84,149.92C-1.973,149.785 -2.291,149.714 -2.291,149.714C-2.29,149.728 -2.27,149.774 -2.27,149.787C-2.277,149.911 -2.385,150.006 -2.512,149.999C-2.64,149.992 -2.738,149.886 -2.731,149.762C-2.73,149.738 -2.707,149.693 -2.716,149.693C-2.837,149.691 -3.069,149.757 -3.571,150.113" style="fill:white;fill-rule:nonzero;"/>
            <path id="path3768" d="M-1.507,150.116C-1.507,150.116 -2.706,150.756 -3.218,151.35C-3.222,151.355 -3.311,151.377 -3.539,151.365C-3.766,151.353 -4.189,151.39 -4.519,151.218C-4.849,151.046 -5.137,150.754 -5.137,150.754C-5.137,150.754 -4.616,150.825 -4.096,150.79C-3.71,150.764 -3.041,150.504 -3.017,150.492C-2.457,150.218 -1.507,150.116 -1.507,150.116" style="fill:rgb(223,27,34);fill-rule:nonzero;"/>
            <path id="path3772" d="M-9.029,144.867C-9.029,144.867 -7.881,146.208 -7.283,146.627C-6.157,147.417 -6.136,148.396 -6.157,148.798C-6.157,148.798 -6.966,147.612 -7.359,147.187C-7.752,146.763 -8.721,145.787 -9.029,144.867" style="fill:white;fill-rule:nonzero;"/>
            <path id="path3776" d="M-8.235,150.968C-8.235,150.968 -7.731,150.474 -8.175,149.805C-8.179,149.799 -7.916,149.888 -7.663,149.911C-7.656,149.912 -7.651,149.79 -7.651,149.774C-8.207,149.61 -8.996,149.323 -9.137,148.974C-9.137,148.974 -8.22,149.415 -7.622,149.459C-7.622,149.459 -7.574,149.309 -7.575,149.309C-8.17,149.162 -9.409,148.792 -9.658,148.226C-9.658,148.226 -8.363,148.931 -7.496,149.035C-7.49,149.036 -7.432,148.884 -7.432,148.884C-7.988,148.724 -9.169,148.141 -9.738,147.157C-9.738,147.157 -8.347,148.308 -7.294,148.616C-7.296,148.615 -7.185,148.465 -7.184,148.463C-7.8,148.139 -9.268,147.501 -9.588,146.449C-9.594,146.429 -8.23,147.732 -7.923,147.668C-7.923,147.668 -9.447,146.416 -9.59,145.683C-9.59,145.683 -7.026,148.227 -6.771,148.388C-6.646,148.468 -6.475,148.808 -6.475,148.808C-6.475,148.808 -5.909,150.202 -4.918,150.538C-4.898,150.545 -6.214,150.361 -6.759,150.501C-7.35,150.653 -8.235,150.968 -8.235,150.968" style="fill:rgb(0,138,67);fill-rule:nonzero;"/>
        </g>
    </g>
    <defs>
        <linearGradient id="_Linear1" x1="0" y1="0" x2="1" y2="0" gradientUnits="userSpaceOnUse" gradientTransform="matrix(-0.502964,9.597118,-9.597118,-0.502964,-0.481466,147.22607)"><stop offset="0" style="stop-color:rgb(255,228,175);stop-opacity:1"/><stop offset="1" style="stop-color:rgb(205,130,21);stop-opacity:1"/></linearGradient>
    </defs>
</svg>
