<svg role="img" viewBox="0 0 24 24" xmlns="http://www.w3.org/2000/svg" fill="#be2239"><title>Air Mauritius</title><path d="M7.717 9.787a7.825 7.825 0 0 0-2.117.326 5.857 5.857 0 0 1 3.904.897c1.98 1.248 2.522 1.28 3.327 1.54C8.97 14.216 0 13.93 0 13.93c4.87.676 10.955-.07 10.955-.07a8.566 8.566 0 0 1 2.543.092 9.757 9.757 0 0 0 1.58.115c2.193 0 3.077-1.017 4.692-1.017a3.078 3.078 0 0 1 1.64.54s-1.055-1.822-3.63-1.72c-2.542.1-4.269-.067-5.763-.897C10.99 10.402 9.634 9.829 8 9.789a7.44 7.44 0 0 0-.28-.002zm13.318.457h-.185c-2.006 0-4.65 1.357-4.65 1.357s1.975-.196 2.905.085c0 .002 2.546-1.625 4.895-.607 0 0-1.084-.825-2.965-.835z"/></svg>