<?xml version="1.0" encoding="UTF-8" standalone="no"?>
<!DOCTYPE svg PUBLIC "-//W3C//DTD SVG 1.1//EN" "http://www.w3.org/Graphics/SVG/1.1/DTD/svg11.dtd">
<svg width="100%" height="100%" viewBox="0 0 311 221" version="1.1" xmlns="http://www.w3.org/2000/svg" xmlns:xlink="http://www.w3.org/1999/xlink" xml:space="preserve" xmlns:serif="http://www.serif.com/" style="fill-rule:evenodd;clip-rule:evenodd;stroke-linejoin:round;stroke-miterlimit:2;">
    <g transform="matrix(12.5,0,0,12.5,0,0)">
        <g transform="matrix(1,0,0,1,-147.439119,-3.974814)">
            <path d="M169.006,9.676L165.694,12.559L165.659,12.59L169.785,19.882C169.934,20.146 169.892,20.485 169.681,20.705L169.077,21.337L162.303,16.834L163.525,14.892L163.237,14.701L160.245,17.305C156.97,20.146 153.293,21.786 150.649,21.588C149.581,21.507 148.754,21.135 148.194,20.477C146.633,18.667 147.545,15.075 150.46,11.531L150.803,11.758C149.26,13.902 148.853,15.956 149.772,17.001C150.134,17.424 150.649,17.664 151.302,17.714C152.922,17.837 155.207,16.774 157.416,14.868L158.241,14.135L148.075,7.376L148.712,6.821C149.163,6.429 149.794,6.304 150.359,6.493L164.619,11.267L165.011,10.928L164.947,10.887C163.883,10.18 162.892,8.888 163.215,7.715L165.646,5.6C166.373,4.966 167.217,4.508 168.154,4.239C169.13,3.958 169.96,3.951 170.486,3.995C171.233,4.057 171.857,4.27 172.077,4.536C172.205,4.693 172.455,5.162 172.007,6.152C171.552,7.156 170.543,8.342 169.009,9.678L169.006,9.676Z" style="fill:rgb(230,34,46);fill-rule:nonzero;"/>
        </g>
    </g>
</svg>
