<svg role="img" viewBox="0 0 24 24" xmlns="http://www.w3.org/2000/svg"><title>Oman Air</title><path fill="#b39759" d="M24 1.5386c-1.4966 1.49-5.3843 1.5643-7.6196 1.3995-2.321-.1693-6.4257-.9103-7.1586-.9705-.4282-.0255-.952-.043-1.443.1813-.4923.227-.9359.7024-1.1581 1.3817a1.8929 1.8929 0 0 0-.0907.5823c-.0085.6845.3736 1.368.8607 1.978.3694-.4302 1.4-1.4409 2.9868-1.4762h.0013a45.7464 45.7464 0 0 1 .7738-.0076c1.5194 0 2.1627.0999 3.5716.1417.1609.0046.3751.009.6334.009 1.167 0 3.2055-.0859 5.0159-.5644C22.2198 3.7632 23.537 2.8148 24 1.5386zm-1.342 2.0686c-.6421.3923-1.4072.6795-2.2003.89-1.8568.4904-3.9155.5747-5.0976.5747a22.915 22.915 0 0 1-.6423-.009c-1.426-.0431-2.0616-.1417-3.5627-.1417-.2314 0-.485.003-.7662.009-1.3723.0248-2.3175.8774-2.7033 1.305-.0353.0392-.0632.0727-.0894.1034.4878.5623 1.0368 1.048 1.3983 1.392.2726.2627.9981.8175 1.863 1.5386.0655-.2124.2074-.5295.5173-.8172l-.0013-.0013c.5138-.4786 1.4769-.8646 3.2421-.9437 3.488-.1621 4.0278-.3447 5.2981-1.0024 1.1304-.5838 2.3375-1.7258 2.7442-2.8974Zm-1.383 2.2679a5.1729 5.1729 0 0 1-1.2144.9015h-.0013v-.0012c-1.2952.6773-1.9534.8825-5.4296 1.0381-2.85.1386-3.3399 1.3695-3.449 1.7239.3608.3073.7375.6373 1.1122.9858.6616.6205 1.3315 1.2534 1.8898 1.9065-.0046-1.6999 1.3062-1.915 1.6141-2.1006.4034-.2432 1.2424-.3794 3.043-1.4085 1.9267-1.101 2.3501-2.6114 2.4351-3.0455Z"/><path fill="#a6a8ab" d="M7.2566 1.877c-1.4639-.0187-4.2627.4126-5.1334 2.2295a2.6145 2.6145 0 0 0-.2656 1.157c-.0229 2.338 2.9443 5.0833 4.5677 6.8623 1.5554 1.7234 3.4391 3.3486 4.3531 5.1014.2177.4197.4117 1.0054.3908 1.6115-.0504 1.4652-.566 1.9943-.8262 2.1696 5.624-2.9984 4.56-5.8957 4.56-5.8957-.2334-1.3436-1.5213-2.9602-2.9204-4.26-1.4018-1.3075-2.7997-2.399-3.2652-2.8463-.7584-.7473-2.5612-2.1746-2.5782-3.8921 0-.2308.0353-.4657.1111-.6998.2518-.7891.9744-1.2512 1.5426-1.5055-.1451-.0183-.3272-.0293-.5363-.032ZM1.7312 4.3836c-.5688.6388-2.5346 3.188-1.3676 6.7845.4184 1.2893 1.8195 2.9974 3.2984 5.1333 1.424 2.0575 1.7486 4.7204 1.6715 6.16 4.4295-.1974 5.3973-2.017 5.4117-3.5665v-.0013c0-.5276-.131-1.0183-.318-1.3753-.8603-1.6593-2.6505-3.326-4.2216-5.0631-1.5828-1.7718-4.6935-4.449-4.7157-7.0896 0-.3466.0988-.659.2413-.982z"/></svg>