<svg role="img" viewBox="0 0 24 24" xmlns="http://www.w3.org/2000/svg"><title>Philippine Airlines</title><path fill="#001f60" d="M0 18.897h13.373l2.582-13.794Z"/><path fill="#ffcc05" d="M14.402 13.401s-.281-1.792-.274-2.262c.007-.399.114-3.365.16-4.596l-.398.344c-.028 1.159-.095 3.889-.118 4.234-.016.226-.416 2.218-.416 2.218s-.751-1.663-.839-2.144c-.07-.38-.27-1.965-.374-2.799l-.346.3c.127.835.348 2.291.377 2.555.037.345-.074 2.293-.074 2.293s-1.065-1.655-1.183-1.95c-.1-.249-.387-1.141-.552-1.66l-.275.238c.155.473.433 1.325.501 1.55.073.239.41 2.26.41 2.26s-1.3-1.28-1.568-1.654a33.521 33.521 0 0 1-.664-1.013l-.276.238c.194.286.517.766.637.977.133.234.86 2.14.86 2.14s-1.76-1.194-1.877-1.289c-.139-.112-.544-.541-.795-.812l-.282.244c.261.272.693.722.81.848.146.159 1.323 1.878 1.323 1.878s-1.863-.704-2.104-.864l-1.235-.82-.286.248c.369.244 1.105.731 1.328.885.302.209 1.675 1.591 1.675 1.591L6.3 16.203a229.755 229.755 0 0 1-2.276-.786l-.326.282c.602.208 2.08.72 2.478.87.253.094 1.995 1.14 1.995 1.14s-1.936.037-2.26.029c-.284-.007-3.23-.428-3.955-.532l-.415.359c.89.104 3.794.445 4.323.525.756.19 2.181.807 2.181.807l6.354-5.486z"/><path fill="#ee2a29" d="M8.045 18.897h13.373L24 5.103Z"/></svg>