<?xml version="1.0" encoding="UTF-8" standalone="no"?>
<!DOCTYPE svg PUBLIC "-//W3C//DTD SVG 1.1//EN" "http://www.w3.org/Graphics/SVG/1.1/DTD/svg11.dtd">
<svg width="100%" height="100%" viewBox="0 0 4484 3018" version="1.1" xmlns="http://www.w3.org/2000/svg" xmlns:xlink="http://www.w3.org/1999/xlink" xml:space="preserve" xmlns:serif="http://www.serif.com/" style="fill-rule:evenodd;clip-rule:evenodd;stroke-linejoin:round;stroke-miterlimit:2;">
    <g transform="matrix(12.5,0,0,12.5,0,0)">
        <g transform="matrix(1.096316,0,0,1.096316,-259.092454,-161.333921)">
            <path d="M308.33,345L341,314L339,282.67L361.17,295.17L393.33,264.17L374.5,302.67L385.17,308.33C385.17,308.33 450,281.67 486,289C522,296.33 558.33,352 563.33,367.33C563.33,367.33 526.97,302.88 485.67,300C442.67,297 410.5,308.17 363,326.33L343.67,364.67L342,333L308.33,345Z" style="fill:rgb(134,138,139);fill-rule:nonzero;"/>
        </g>
        <g transform="matrix(1.096316,0,0,1.096316,-259.092454,-161.333921)">
            <path d="M381.75,299.17C381.75,299.17 443,273.42 478,278.17C513,282.92 544.25,310.17 563.5,346.42C563.5,346.42 527.75,270.17 477.5,266.67C442,264.19 388,286.92 388,286.92L381.75,299.17Z" style="fill:rgb(134,138,139);fill-rule:nonzero;"/>
        </g>
        <g transform="matrix(1.096316,0,0,1.096316,-259.092454,-161.333921)">
            <path d="M394.5,274.5C394.5,274.5 451.5,252.99 477.33,256.67C505.5,260.67 532.33,273.83 563.33,326C563.33,326 525.5,244.83 472.33,245.83C436.83,246.5 400,262.17 400,262.17L394.5,274.5Z" style="fill:rgb(134,138,139);fill-rule:nonzero;"/>
        </g>
        <g transform="matrix(1.096316,0,0,1.096316,-259.092454,-161.333921)">
            <path d="M491.5,169.49L458.83,200.49L460.83,231.82L438.67,219.32L406.5,250.32L425.33,211.82L414.67,206.16C414.67,206.16 349.83,232.82 313.83,225.49C277.83,218.16 241.5,162.49 236.5,147.16C236.5,147.16 272.87,211.61 314.17,214.49C357.17,217.49 389.33,206.32 436.83,188.16L456.17,149.82L457.83,181.49L491.5,169.49Z" style="fill:rgb(134,138,139);fill-rule:nonzero;"/>
        </g>
        <g transform="matrix(1.096316,0,0,1.096316,-259.092454,-161.333921)">
            <path d="M418.08,215.32C418.08,215.32 356.83,241.07 321.83,236.32C286.83,231.57 255.58,204.32 236.33,168.07C236.33,168.07 272.08,244.32 322.33,247.82C357.84,250.29 411.83,227.57 411.83,227.57L418.08,215.32Z" style="fill:rgb(134,138,139);fill-rule:nonzero;"/>
        </g>
        <g transform="matrix(1.096316,0,0,1.096316,-259.092454,-161.333921)">
            <path d="M405.33,240C405.33,240 348.33,261.5 322.5,257.83C294.33,253.83 267.5,240.67 236.5,188.5C236.5,188.5 274.34,269.66 327.5,268.67C363,268 399.83,252.33 399.83,252.33L405.33,240Z" style="fill:rgb(134,138,139);fill-rule:nonzero;"/>
        </g>
    </g>
</svg>
