<svg role="img" viewBox="0 0 24 24" xmlns="http://www.w3.org/2000/svg"><title>Qatar Airways</title><path fill="#818a8f" d="M6.4642 4.7576c-.3047 0-.5484.1156-.5484.2585 0 .1429.2437.2606.5484.2606 1.5531 0 6.284-.1183 6.284-.2606 0-.143-4.7309-.2585-6.284-.2585zM4.291 6.0717c-.53 0-.96.1637-.96.365 0 .2012.43.3649.96.3649 1.8778 0 6.3894-.0778 9.0274-.1901.1634-.1095.3253-.2196.4854-.3258-2.53-.1268-7.516-.214-9.5128-.214zM2.9182 7.754c-.674 0-1.2207.209-1.2207.4649 0 .2563.5451.4637 1.2207.4637 1.6148 0 4.7627-.0438 7.6687-.1184.1396-.1078.2822-.2141.428-.3203.1584-.119.3167-.2314.4724-.3454-3.1329-.089-6.7858-.1445-8.569-.1445zm11.8197.2564c-.273.149-.5366.2984-.7907.4474 1.7733-.0695 3.0138-.1521 3.0138-.241 0-.0724-.883-.1447-2.2231-.2064zM2.0939 9.471c-.7612 0-1.3782.2354-1.3782.5257 0 .288.617.5234 1.3782.5234 1.3802 0 3.7503-.0291 6.247-.0814a36.4628 36.4628 0 0 1 .9894-.8678c-2.8409-.0623-5.6739-.0999-7.2364-.0999zm13.9809.3247c-.003.014-.0666.2024-.3551.4193 1.3495-.0668 2.222-.1394 2.222-.2183 0-.0734-.7203-.1398-1.8669-.201zM1.6432 11.223c-.809 0-1.464.2508-1.464.5583 0 .3086.655.5582 1.464.5582 1.1277 0 2.8822-.0188 4.8362-.0521a30.3 30.3 0 0 1 .9612-.9949c-2.335-.0439-4.4873-.0695-5.7974-.0695zm12.379.2368a5.1186 5.1186 0 0 0 .8634.6093c2.113-.0846 3.5937-.1833 3.5937-.2878 0-.1174-1.8943-.2298-4.4572-.3215zM1.4932 12.9943c-.8235 0-1.4933.2544-1.4933.567 0 .3135.6703.568 1.4933.568.8597 0 2.0755-.0099 3.4667-.0305a27.1615 27.1615 0 0 1 .8602-1.0632c-1.75-.0267-3.2943-.0413-4.3269-.0413zm.152 1.791c-.809 0-1.464.2485-1.464.556 0 .308.655.5582 1.464.5582.5634 0 1.2814-.0047 2.1027-.0141.0144-.0222.0312-.043.0434-.062.0195-.0222.2245-.3964.6549-1.0176a224.181 224.181 0 0 0-2.801-.0206zm.4486 1.8158c-.7612 0-1.3782.2365-1.3782.5268 0 .2885.617.5245 1.3782.5245.7917 0 1.9442-.012 3.2245-.0293-.1821.0034-.2498-.089-.2498-.089-.3475-.3014-.6078-.5756-.8786-.9026a.0345.0345 0 0 1-.002-.0174c-.8219-.0072-1.5367-.013-2.094-.013zm3.2245 1.022c.0113-.0002.0214.001.0337 0-.0117.0002-.022-.0002-.0337 0zm.0337 0c1.667-.0228 3.5721-.0572 5.4216-.1054-.244-.3597-.4408-.652-.5376-.7928a602.3627 602.3627 0 0 0-3.5058-.0706c-.387.5166-.7312.7412-1.1338.9058-.0967.0389-.1773.0574-.2444.063zm-2.435.82c-.6744 0-1.2218.208-1.2218.4648 0 .2552.5457.4627 1.2219.4627 1.8717 0 5.802-.062 9.0317-.1553-.143-.1985-.293-.413-.4453-.63-3.1357-.089-6.8004-.1422-8.5864-.1422zm1.3718 1.8767c-.53 0-.959.163-.959.366 0 .1996.429.365.959.365 1.8828 0 6.4122-.0783 9.0469-.1923a11.1201 11.1201 0 0 1-.3508-.3606c-2.668-.1062-6.8956-.1781-8.6961-.1781zm2.1754 1.528c-.3048 0-.5485.1173-.5485.2586 0 .1445.2437.2595.5485.2595 1.553 0 6.284-.115 6.284-.2595 0-.1413-4.731-.2585-6.284-.2585z"/><path fill="#662046" d="M18.6335 13.1413c.0111.2825.009.5627-.005.8385-2.7536.1079-5.3626.2742-5.3626.4615 0 .1819 2.5523.347 5.2726.455a10.4306 10.4306 0 0 1-.1858.9235c-2.6824.1112-5.1725.2714-5.1725.4538 0 .174 2.3238.3325 4.8984.442a9.8257 9.8257 0 0 1-.4032.9526c-2.2098.1056-4.0353.2474-4.0353.4026 0 .1446 1.5959.2775 3.6072.3803-.1129.1835-.2302.3648-.3537.5339a8.3117 8.3117 0 0 1-.4237.5505c-1.2562.0967-2.1208.203-2.1208.3202 0 .1001.6189.193 1.572.277a9.273 9.273 0 0 1-1.859 1.414s-.8535-.734-1.5547-1.5914c-.6278-.764-1.9585-2.7787-2.2727-3.2308-.3125-.4498-.5188-.5827-.8869-.451-.4899.1725-1.0626.2614-1.2389.2614-.174 0-.2713-.0684.0222-.1857.2936-.1168 1.4547-.6656 2.0258-1.796.6405-1.2735.0762-3.0317.0762-3.0317-.2141.9397-.7046 1.29-.7046 1.29.159-.8713-.0128-1.6643-.4454-2.2187l-.2413 1.1044s-.1507-.0061-.5233.3058c-.373.3142-.476.7707-.476.7707.2936.119.6456-.1763.6456-.1763-.4504 1.6838-1.096 3.0528-1.567 3.7774-.4698.7245-.8585.9987-1.3278 1.1888-.3982.1602-.5283-.0272-.5283-.0272a7.1376 7.1376 0 0 1-.8786-.9014s-.0206-.0384.0523-.0367c.1935.0017.5377-.3297.614-.466.0855-.1568.0777-.2774.0333-.2869-.0428-.006-.1157.119-.4888.3537-.3725.234-.5421.0711-.6678-.059-.0951-.1028-.003-.233.0589-.3136.0573-.0712 2.0224-3.7329 7.2222-7.5814 6.8156-5.0418 11.168-6.403 11.417-6.5015.1652-.065.435-.1507.495-.0873.07.0712.1017.1268.0923.2091-.008.0812-.0523.124-.3665.263-2.6174 1.1527-5.6707 3.0723-7.4062 4.1894-2.1347 1.0382-4.1716 2.5234-4.2461 2.5579-.1652.1018-.0428.2508.0573.189 3.6038-2.3949 7.8294-4.0258 12.4959-5.3637.2235-.0634.3458-.0634.3837-.0145a.3448.3448 0 0 1 .0667.1857c.007.0857-.0651.1302-.257.2058-5.0156 1.8611-8.7113 3.5922-11.089 5.1897 0 0-.2474.149-.249.3198 0 .065.1317.0734.1317.0734 1.191.0222 2.782.0917 3.5371.1345 0 0-.1062.3837-.833.6929-.56.2391-1.0782.1996-1.5909.204-.114-.0016-.2107.113-.119.2364.0478.0556 1.1389 1.8116 5.103 2.2131z"/></svg>