<svg role="img" viewBox="0 0 64 64" xmlns="http://www.w3.org/2000/svg"><title>Royal Brunei Airlines</title><path fill="#ffe600" d="M25.665 44.984H11.542l26.793-25.968h14.123z"/><path fill="#000000" d="M32 19.059a.093.093 0 0 0-.087.087s0 .021.022.043v1.302h.108v-.607l.63.368-.348-.52.391-.087-.65-.434c.02-.022.02-.043.02-.065a.093.093 0 0 0-.086-.087zm.108 1.28v.173h-.238v-.151c-.326.021-.564.087-.564.195.022.087.325.173.694.173.369 0 .672-.086.672-.195 0-.086-.238-.173-.564-.195zm-.78.282-.087.477.26-.173.174.195.195-.195.152.173.152-.173.195.195.173-.195.26.173-.086-.477c-.065.087-.304.174-.694.174-.413 0-.63-.087-.694-.174zm.585.477v.347l.087.087.087-.087v-.347l-.087.087Zm-.547.196c-.242-.007-.478.087-.69.217-.455.26-.694.433-1.366.281 0 0 .065.348.369.413s.672-.152.672-.109c.022.022-.217.13-.586.174.01.027.024.05.038.072-.526.519-.862 1.243-.862 1.989.043 1.649 1.367 2.95 3.059 2.95 1.692 0 3.016-1.323 3.016-2.95 0-.723-.315-1.425-.813-1.94a.358.358 0 0 0 .075-.121c-.347-.043-.586-.152-.586-.174.022-.021.39.174.673.109.304-.065.368-.413.368-.413-.672.152-.932-.021-1.366-.281-.282-.174-.608-.283-.933-.174-.065.022-.282.087-.412.282-.152-.195-.37-.26-.413-.282a.843.843 0 0 0-.243-.043zm2.03 1.018c.062.01.418.237.622.197.02-.01.065-.027.114-.058.236.315.409.736.428 1.294 0 1.258-.911 2.256-2.148 2.452h-.021a.845.845 0 0 0 .455-.63c-.195.13-.412.24-.65.304.021-.13-.11-.282-.218-.39-.066.082-.156.19-.196.293-.01-.09.136-.276.261-.402.13.13.26.326.26.412.023-.021.261-.13.196-.433-.043-.174-.174-.37-.174-.564 0-.283.065-.37.152-.434-.108-.13-.304.13-.325.173a.394.394 0 0 0-.13-.173.456.456 0 0 0-.13.173c-.022-.022-.217-.304-.326-.173.065.043.152.151.152.434 0 .195-.109.412-.152.564-.064.276.163.406.213.431a.267.267 0 0 0-.018.09 2.536 2.536 0 0 1-.65-.305c.043.26.216.5.455.63h-.022a2.568 2.568 0 0 1-.976-.347c-.043.022-.043.065-.043.108-.022.022-.043.022-.087.043h-.022c-.065.087-.13.152-.217.217l-.021.022s-.022 0-.022-.022l-.043-.043-.022-.022-.022-.022-.022.022-.021.022-.087.043c-.022-.021-.022-.043-.022-.065-.021-.043 0-.087.022-.13l.022-.022-.065-.065-.044-.022v-.043l.022-.021v-.022l-.065.022-.065-.066v-.021l.021-.022.022-.022.022-.021h.022v.021l.065.065.021-.021v-.022c.022-.021.022-.043.044-.065l.043-.043.043-.022-.065.108-.043.065v.022l.022.022.043.065.022.022h.021c.066-.022.11-.065.174-.065 0 .043-.022.086-.065.086-.022.022-.044.022-.087.044l.022.021.043.044c0 .021.022.022.044.043l.065.065.195-.217c.043-.043.087-.064.13-.086a2.426 2.426 0 0 1-1.171-2.105c0-.565.207-.998.463-1.335.065.06.138.085.166.099.217.065.607-.196.63-.196.02.022-.153.152-.435.239a.606.606 0 0 0 .282.195c.217.044.39-.174.412-.174.022.022-.087.13-.217.174a.266.266 0 0 0 .196.13c.325.109.585-.195.694-.368 0 .021-.022.043-.022.064a.18.18 0 0 0 .152.174s-.022.044-.022.109c0 .086.087.195.174.238a.305.305 0 0 1 .152-.13c.065.022.13.087.152.13a.385.385 0 0 0 .173-.238c0-.065-.022-.109-.022-.109a.18.18 0 0 0 .15-.21c.117.176.366.443.675.34a.614.614 0 0 0 .195-.13 1.345 1.345 0 0 1-.217-.174c.022-.021.195.196.412.174a.483.483 0 0 0 .282-.195c-.303-.087-.455-.217-.434-.239h.008zm-6.299.066s-.065.065-.108.348c-.044.325-.022.694.281 1.106.174.26.63.39.63.585l-.109 1.454c.152.044.282.065.412.065s.282-.021.434-.065l-.13-1.54c0-.13.087-.542-.304-.76-.217-.303-.542-.542-.629-.52-.152.087.326.564.26.716-.02.021-.151-.195-.433-.26-.044-.174-.13-.26-.174-.37 0-.086-.021-.368-.043-.411.043-.174.022-.348-.087-.348zm9.806 0c-.109 0-.13.174-.087.348-.022.043-.043.325-.043.412-.044.108-.13.195-.174.368-.282.066-.412.282-.434.26-.065-.151.413-.628.26-.715-.086-.022-.411.217-.628.52-.39.218-.304.63-.304.76l-.13 1.54c.152.044.303.065.434.065.13 0 .26-.021.412-.065 0 0-.109-1.323-.109-1.454 0-.195.456-.325.63-.585.303-.412.325-.781.281-1.106-.043-.283-.108-.348-.108-.348zm-.288.06c-.016.001-.06.043-.06.114.023.173.066.304.023.499-.044.173-.326.499-.347.607.043-.065.086-.151.325-.195 0-.043.043-.109.065-.152.044-.108.13-.173.13-.39 0-.26-.043-.434-.13-.478 0-.004-.002-.006-.006-.005zm-9.233 0c-.002 0-.003.003-.003.005-.087.044-.13.218-.13.478 0 .217.086.282.13.39.021.044.065.109.065.152.239.044.282.13.325.195-.021-.108-.303-.433-.347-.607-.043-.195 0-.326.022-.5 0-.075-.05-.118-.062-.113zm.17.114c-.043.043-.086.282-.043.52 0 0 .022-.064.065-.043h.044v-.369c0-.087-.065-.108-.065-.108zm8.917 0s-.065.021-.065.108v.37h.043c.022-.022.044.043.066.043.043-.24 0-.478-.044-.521zm-8.743.152c-.043.043-.065.173-.065.325a.675.675 0 0 1 .13.087v-.326c0-.065-.065-.086-.065-.086zm8.548 0s-.065.021-.065.086v.326a.674.674 0 0 1 .13-.087c0-.152-.022-.282-.065-.325zm-4.252.347a.406.406 0 0 0-.13.152c-.044-.044-.218-.174-.283-.087a.407.407 0 0 1 .174.347c0 .26-.13.434-.13.586 0 .173.108.26.239.39a.5.5 0 0 1 .151-.152c.065.044.13.11.152.152.13-.13.239-.217.239-.39 0-.152-.13-.325-.13-.586-.044-.195.043-.304.13-.347-.087-.087-.26.043-.282.087a.44.44 0 0 0-.13-.152zm2.386 1.952.304.282a.166.166 0 0 1 .043.109c-.108-.109-.195-.195-.303-.282-.044-.043-.044-.065-.044-.109zm-.152.152c.022.022.043.022.065.044h.065c.022.021.022.043.044.043h-.022c.022.022.044.022.065.043l.065.044h.022l.022.021.043.022.065.065a.17.17 0 0 1-.087.087l-.021.022-.022.021c-.022.022-.043.022-.065 0h-.043l.021.066-.065.065h-.043l-.022-.022-.022-.022-.021-.021h.021l.065-.066-.021-.021h-.022c-.021-.022-.043-.022-.065-.044-.022-.022-.043-.021-.043-.043l-.022-.043.065.043.043.022c.022.021.044.022.065.043h.044l.108-.108c-.043 0-.086-.044-.152-.109l-.043-.022c-.043-.021-.065-.065-.087-.108zm-4.699.264c-.01.007-.014.024-.03.04-.022.022-.022.043-.022.043v.044c0 .022.022.021.022.021l.043.044h.044l-.044-.044c-.021-.021-.022-.043-.022-.065 0 0 0-.021.022-.021a.332.332 0 0 1 .282-.044l.044.022v.043l-.022.022c-.022 0-.043.022-.065.022h-.022c-.043-.022-.065-.022-.108-.022h-.044v.043l.022.022.022.022.021.022.022.021v.022H29.7l-.043.022.022-.022h-.065c-.022 0-.044-.022-.066-.022l-.021-.021c-.022-.022-.044-.022-.044-.044s-.021-.021-.021-.043v-.044c0-.022.021-.043.043-.043l.022-.022c.016 0 .02-.012.03-.018zm4.417.062.304.282a.166.166 0 0 1 .043.108 1.872 1.872 0 0 0-.303-.282.166.166 0 0 1-.044-.108zm-.087.13c.022 0 .044 0 .044.022h.022c.021 0 .021-.022.021-.022v.022l-.043.086v-.043h-.044l-.021-.022v-.021c.021 0 .021-.022.021-.022zm.196.065c.021 0 .043.021.065.043a.3.3 0 0 1 .065.087c.021.022.022.044.022.065l-.066.065c-.021.022-.043.022-.065.022v.043c-.043 0-.108.022-.151.022l.043.044-.043.021-.022.022-.044.043c.022.022.022.065.044.087v.044c0 .021 0 .043-.022.064l-.022.022c-.043.022-.065.044-.108.065h-.022c.044-.021.087-.043.109-.087.021-.021.021-.043.021-.064v-.066l-.021-.043-.065.043h-.022a.536.536 0 0 1-.087-.195c.022.043.087.065.13.087l.044-.043.021-.022.022-.022V26c-.021-.021-.043-.065-.022-.108l.022-.043.065-.066c0 .022 0 .022.022.044.021.021.043.022.065.022.022 0 .043 0 .043-.022l.022-.022.022-.022c-.022-.021-.022-.043-.044-.043 0-.022-.021-.043-.021-.065zm-6.291.25c-.087-.007-.08.08-.023.119.13.043.304.065.478.065.173 0 .325-.022.477-.065.065-.022.043-.152-.065-.109-.109.043-.174.065-.412.065-.239 0-.304-.022-.412-.065a.192.192 0 0 0-.043-.01zm8.416 0a.193.193 0 0 0-.043.01c-.108.043-.173.065-.412.065-.238 0-.303-.022-.412-.065-.108-.043-.13.087-.065.109.152.043.304.065.477.065.174 0 .347-.022.478-.065.056-.038.064-.126-.023-.118zm-2.234.032v.022zm-3.341.022c-.065.13-.152.238-.239.368l.022.022.022.022.043.043.044.022.022-.043c.021 0 .021-.022.043-.022 0 .022-.022.043-.022.065l-.021.021c-.022 0-.022.022-.044.022l-.022.022-.043.022-.044-.044-.064-.043c-.022 0-.022-.022-.022-.043v-.066l.195-.26c.043-.043.087-.087.13-.108zm-.629.043c-.021.065-.021.087 0 .13V26.045zm-2.343.044c-.043 0-.087.021-.087.064v.066c.065.021.087.043.109.043.151.043.347.087.542.087h.022c.195 0 .39-.022.542-.087.022 0 .044-.022.044-.043 0-.022.021-.044 0-.066 0-.043-.044-.064-.087-.064h-.065c-.13.043-.196.064-.478.064-.26 0-.347-.021-.477-.064h-.022zm7.593 0c-.043 0-.087.021-.087.064-.021.022 0 .044 0 .066 0 .021.022.043.044.043.152.065.347.087.542.087h.022c.195 0 .39-.044.542-.087.022 0 .044-.022.109-.043v-.066c0-.043-.044-.064-.087-.064h-.065c-.13.043-.217.064-.477.064-.282 0-.347-.021-.478-.064h-.022zm-1.627.043a.348.348 0 0 1 .109.238.543.543 0 0 1-.63.304c.196 0 .412-.13.564-.325v-.043c0-.022-.021-.022-.043-.022v-.022zm-.325.087.087.021-.022.087-.087-.021zm-5.641.108c-.065 0-.108.044-.108.087 0 .022 0 .043.021.086l.065.066c.174.065.37.087.586.087h.065c.217 0 .434-.044.586-.087.022 0 .043-.022.065-.066v-.086c0-.065-.065-.087-.108-.087h-.066c-.151.044-.217.065-.52.065-.282 0-.369-.021-.52-.065h-.023zm7.506 0c-.043 0-.108.022-.108.087v.086c.022.044.043.066.065.066.152.043.369.087.586.087h.065c.217 0 .412-.022.586-.087l.065-.066c.022-.043.021-.064.021-.086 0-.043-.043-.087-.108-.087h-.065a1.513 1.513 0 0 1-.52.065c-.304 0-.37-.021-.521-.065h-.022zm-2.364.022.043.347c0 .043 0 .087-.021.152-.022.022-.044.021-.087.043h-.022v.022h-.022l-.086-.043-.022.043h-.022c-.065.021-.13 0-.195-.022l-.022-.021v-.066c0-.021 0-.021.022-.043-.044 0-.087.022-.13.065-.044.043-.087.087-.152.087h-.044c-.021 0-.043 0-.065-.022l-.021.022h-.044c-.022 0-.043 0-.065-.022v.022h-.087c-.021 0-.043-.022-.065-.022 0 .022-.021.022-.021.022h-.022a.21.21 0 0 1-.172-.027c.003-.02.022-.04.042-.06v.044a.23.23 0 0 0 .173.021c0-.022.022-.043.022-.065v.044l.022.021H31.826c0-.022 0-.043.022-.087v.066h.065c0-.022 0-.044.022-.066 0 .022 0 .044.022.044h.021c.044 0 .109 0 .152-.044.022-.021.065-.043.087-.065l.022-.022-.044-.021c-.043 0-.086 0-.108.043 0-.021.021-.065.043-.086.022-.022.044-.044.065-.044h.065l.087.022c.087.022.152.043.239.043l-.044.087H32.391v.043l.021.022c.065 0 .109.022.174 0v-.022c0-.021 0-.043.022-.043l.043-.044h.065c0 .022 0 .066.022.087.021 0 .043 0 .065-.021 0 0 .022-.022.022-.044-.022-.086-.022-.195-.044-.282v-.021c0-.022 0-.066.022-.087zm.13.021.065.413c0 .043 0 .086-.043.108-.022-.13-.044-.26-.066-.412 0-.044.022-.065.044-.109zm-1.93.066.042.086-.087.044-.043-.087zm-1.56.012c-.244.02-.464.297-.22.573 0 0-.304-.195-.499-.043-.217.174-.065.412-.065.412s-.304.065-.326.39c.781-.325 1.172.174 1.432.304.39.217.564.044.543-.151 0 0 .716.347 1.735.347 1.02 0 1.736-.347 1.736-.347-.022.195.152.368.542.151.26-.13.651-.629 1.432-.303-.086-.304-.369-.39-.369-.39s.152-.24-.065-.413c-.195-.152-.499.043-.499.043.304-.369-.173-.737-.455-.498-.738.607-1.432.932-2.343.954-.912-.022-1.606-.347-2.343-.954a.319.319 0 0 0-.236-.075zm1.125.075c.109.13.282.216.456.26.021-.022.043-.022.043-.044 0-.021.022-.021 0-.043l.022-.022c.043-.022.065-.043.108-.065-.021.087-.086.152-.195.195a.78.78 0 0 1-.238-.043.313.313 0 0 1-.196-.238zm-.217.021.043.065-.086.065-.044-.087zm1.172.022.043.065-.065.065-.043-.065zm-.24.13c.044.043.045.087.045.13v.022c.033.017.08.033.12.04a.028.028 0 0 1-.012.003c-.065 0-.109 0-.152-.021-.022.043-.043.086-.087.13l-.043.043c-.022 0-.022.022-.043.022-.022 0-.044 0-.066-.022a.261.261 0 0 1-.108-.109l-.022-.043v-.043c0 .043.022.065.043.086l.044.044h.109c.043-.022.086-.043.108-.087l.022-.043c-.044 0-.065-.022-.109-.044v-.021c.065.021.087-.022.152-.087zm-.064.13h.022zm1.475.022h.022zm1.562.065h.022c.043.021.065.043.087.065a.308.308 0 0 1 .043.13l-.152.087c.022.022.022.065.022.087 0 .065 0 .087-.022.108-.021.022-.043.044-.065.044-.065.021-.13.021-.173 0 .043.021.108 0 .151-.022.022-.022.044-.022.044-.044.021-.021.022-.065.022-.108v-.065c-.022-.022-.044-.022-.066-.044-.021-.021-.021-.064-.043-.086l.087.043c.043-.022.108-.065.152-.087-.022-.021-.044-.021-.065-.021zm-3.992.238.022.022a.454.454 0 0 1 .087.13c0 .022.021.044.021.087v.087c0 .021-.021.043-.043.065l-.021.022h.021a.66.66 0 0 0 .159-.154l-.007.024-.043.151c0 .044 0 .065.043.087.065.022.152.065.217.087l.044-.043c0 .021-.023.021-.023.043 0 0 0 .022.023.022.021 0 .043.021.043.021.021-.022.021-.043.043-.043-.022.022-.022.021-.022.043.022.022.044.022.066.044 0-.022.021-.044.043-.044-.022.022-.022.044 0 .044 0 .021.022.021.043.021h.087l.087-.303c0-.044.022-.066.043-.087h.022c-.022.043 0 .086.022.108.021.044 0 .065-.022.087l-.065.152v.022c-.022.043-.044.065-.087.108-.022 0-.065-.021-.087-.021-.021-.022-.043-.022-.043-.044l-.022.022h-.043c-.022 0-.022-.022-.044-.044l-.021.022c-.022 0-.022 0-.043-.022l-.023-.021-.021-.022s-.022.022-.022 0l-.195-.065c-.022 0-.043-.022-.065-.043-.022-.022-.022-.044 0-.087l.065-.195c-.022.043-.044.065-.087.108a.234.234 0 0 1-.152.065h-.13c.065 0 .109-.022.174-.043h.022v-.044a.771.771 0 0 0-.044-.217c-.022 0-.043 0-.065-.021-.022-.022-.022-.044 0-.065zm4.057.044.065.022.022.086-.065-.021zm-.542.022c.043.021.065.021.108.065.044.022.066.065.066.13 0 .022 0 .065.021.087-.022 0-.021.021-.021.065 0 .021-.022.022-.044.043l-.043.022a.362.362 0 0 1-.26.021c.065 0 .13 0 .195-.021.087-.044.13-.13.108-.217-.021.022-.043.043-.087.043l-.021-.087a.369.369 0 0 1-.022-.151zm-3.688.021-.044.13v.022l-.065.065-.086-.108a.247.247 0 0 1-.174.065c-.022 0-.044-.022-.065-.022-.022 0-.043-.022-.065-.043l-.022-.022c.065.022.13.022.174.022a.41.41 0 0 0 .173-.044c.022 0 .022-.021.044-.021l.021-.022c.022-.022.065-.022.109-.022zm-.109.065.022.044v-.044zm3.32 0c.086.022.152.065.173.152.022-.022.044-.021.065-.021.022.021.022.043.044.086v.087a.474.474 0 0 1-.065.109l-.044.043a1.05 1.05 0 0 1-.629.217.616.616 0 0 1-.282-.087h-.022l-.043-.043c.065.043.152.065.217.087.087 0 .174 0 .239-.022.173-.044.325-.13.455-.239.022-.022.065-.043.087-.087 0-.021.022-.021.022-.043h-.022l-.13.065-.022-.108.087-.044c-.022-.022-.065-.043-.109-.065zm.542 0v.022h.022zm-.63.022.088.043-.044.087-.065-.043zm-1.735.174-.065.347a.402.402 0 0 1-.043.151l-.022-.021c.022-.152.044-.282.087-.412 0-.022.022-.044.043-.065zm.282.108v.369c.022.022.022.065 0 .13l-.021-.043v-.39c0-.023.021-.044.021-.066zm1.823.152.086.043-.043.087-.07-.035-.038.079-.087-.044.043-.087.07.035zm-.04.078-.004.009.018.008.004-.008zM32 27.78c.022.022.043.044.043.065.065.066.066.152.022.239h-.152s-.021 0-.021-.022v-.043c0-.022 0-.043.021-.065v.043h.13l-.065-.13c0-.022.022-.065.022-.087zm-.412.087c.021.043.021.065.021.109 0 .043-.021.065-.043.086l-.022.044-.021.043c-.022 0-.022.022-.044.022h-.065c-.043-.022-.065-.044-.108-.065l-.022-.022-.022-.022a.166.166 0 0 0 .109.044c.043.021.086 0 .13-.022.043-.022.065-.065.087-.108 0-.022-.022-.044-.022-.044 0-.021.022-.043.022-.065zM0 30.406v6.291h.694V34.05h.5c.173 0 .347 0 .498-.022L4.1 38.324l.022.043h.694v-.108L2.343 33.92c.89-.282 1.324-.846 1.324-1.714 0-1.215-.76-1.8-2.409-1.8zm31.306 0v6.291h1.605c1.54 0 2.343-.586 2.343-1.758 0-.78-.455-1.344-1.28-1.561.673-.217 1.042-.716 1.042-1.432 0-1.042-.717-1.54-2.213-1.54zm-30.634.411h.564c1.215 0 1.714.413 1.714 1.389 0 .998-.499 1.432-1.714 1.432H.672Zm31.328 0h.78c1.086 0 1.541.348 1.541 1.172 0 .846-.499 1.237-1.627 1.237H32Zm-23.994.24c-1.476 0-2.365 1.062-2.365 2.863 0 1.8.89 2.864 2.365 2.864s2.386-1.107 2.386-2.864c0-1.779-.89-2.864-2.386-2.864zm7.463.086-1.454 2.885-1.454-2.863h-.629v.13l1.714 3.276v2.126h.651v-2.126l1.714-3.298v-.13Zm35.145 0v5.532h.564V33.27c0-.52 0-.976-.021-1.302.195.326.542.89.89 1.41l2.212 3.32h.564v-5.532h-.564v3.34c0 .478 0 .869.022 1.216-.196-.347-.543-.89-1.02-1.606l-1.974-2.972zm7.094 0v5.532h3.103v-.455h-2.452v-2.148h2.127v-.065c0-.044.021-.109.021-.174 0-.065-.021-.151-.021-.173v-.065h-2.127v-2.018h2.344v-.434Zm-38.508.022-1.887 5.402v.13h.542l.65-1.91h1.997l.65 1.91h.63v-.108l-1.866-5.424zm4.816 0v5.532h3.037v-.456h-2.408v-5.076zm13.776 0v5.532h.651v-2.3h.434c.152 0 .282 0 .412-.021l2.235 3.991h.651v-.13l-2.278-3.992c.76-.238 1.15-.737 1.15-1.497 0-1.063-.694-1.583-2.126-1.583zm5.793 0v3.276c0 1.627.63 2.343 2.061 2.343 1.432 0 2.104-.738 2.104-2.343v-3.276h-.564v3.254c0 1.324-.455 1.91-1.475 1.91s-1.475-.587-1.475-1.888v-3.276zm19.764 0v5.532H64v-5.532zm-55.343.282c1.388 0 1.67 1.323 1.67 2.451.022 1.15-.282 2.474-1.67 2.474-1.367 0-1.671-1.345-1.671-2.474 0-1.128.282-2.451 1.67-2.451zm30.437.13h.456c1.042 0 1.475.347 1.475 1.171 0 .846-.455 1.215-1.475 1.215h-.456zm-18.94.239c.088.282.24.78.456 1.41l.391 1.128h-1.692l.39-1.128c.239-.694.39-1.15.456-1.41zM32 33.616h.846c1.15 0 1.67.434 1.67 1.346 0 .91-.542 1.323-1.735 1.323H32Zm10.63 6.096c-.477 0-.759.26-.759.651 0 .39.304.521.608.63.304.108.607.195.607.52 0 .282-.195.456-.477.456-.39 0-.5-.26-.542-.413-.109 0-.26.044-.326.044.087.304.325.542.824.542.564 0 .825-.325.825-.694 0-.412-.304-.564-.63-.672-.303-.087-.585-.174-.585-.456 0-.282.174-.412.434-.412.369 0 .434.26.477.369a.63.63 0 0 0 .304-.065c-.044-.217-.239-.5-.76-.5zm-5.922.044v1.302c0 .26.022.477.022.65h-.022c-.044-.108-.196-.346-.456-.78l-.716-1.15h-.412l-.021 2.32h.281v-1.344c0-.282-.021-.542-.021-.673h.021c.044.087.239.434.456.781l.781 1.237h.369v-2.343zm-15.404.022-.802 2.32.304.023.238-.738h.868l.238.738h.347v-.022l-.78-2.321zm2.777 0v2.343h.347v-2.343zm2.3 0v2.343h.347v-.955h.347l.52.976h.37v-.021L27.4 41.1c.325-.109.477-.325.477-.65 0-.435-.282-.673-.933-.673zm3.384 0v2.343h1.324v-.217h-.998v-2.126zm3.06 0v2.343h.347v-2.343zm6.117 0v2.343h1.389v-.217h-1.042v-.89h.89v-.195h-.89v-.824h.977v-.217zm-12.214.195h.195c.413 0 .608.13.608.499 0 .347-.195.499-.608.499l-.195.021zm-5.272.065h.022c0 .087.087.347.195.694l.152.456h-.738l.152-.456c.109-.347.196-.607.217-.694z"/></svg>