<svg xmlns="http://www.w3.org/2000/svg" height="800" width="1200" viewBox="-45.95565 -28.208 398.2823 169.248"><path d="M237.957 35.11c-.43 1.324-1.078 2.48-1.953 3.468-.879.988-2.004 1.754-3.371 2.293-1.371.54-3 .809-4.89.809-1.438 0-2.606-.067-3.505-.203-.898-.137-1.48-.27-1.75-.403v-12c0-2.558.649-4.695 1.953-6.402 1.305-1.707 3.258-2.559 5.864-2.559 2.605 0 4.64.953 6.101 2.864 1.457 1.91 2.192 4.437 2.192 7.582 0 1.574-.215 3.222-.641 4.55m5.594-18.234a14.775 14.775 0 00-5.055-3.266c-1.91-.742-3.941-1.113-6.101-1.113-1.575 0-2.958.191-4.145.574-1.191.38-2.203.832-3.031 1.348-.832.516-1.473 1-1.922 1.45-.45.448-.719.741-.809.874V.81l-9.437 2.726v44.48c.27.044.797.122 1.586.235.785.113 1.761.215 2.93.305 1.167.09 2.492.18 3.976.27 1.484.09 3.035.132 4.652.132 7.32 0 12.84-1.695 16.547-5.086 3.707-3.394 5.559-8.3 5.559-14.324 0-2.738-.426-5.176-1.281-7.313-.852-2.132-2.008-3.918-3.47-5.359M195.227 32.38c0 2.562-.653 4.695-1.954 6.402-1.304 1.707-3.257 2.563-5.867 2.563-2.601 0-4.636-.953-6.097-2.864-1.457-1.91-2.192-4.437-2.192-7.582 0-1.574.215-3.226.645-4.55.425-1.325 1.074-2.48 1.953-3.47.875-.991 2-1.753 3.37-2.292 1.372-.54 2.997-.809 4.888-.809 1.437 0 2.605.067 3.504.203.898.133 1.48.27 1.75.403zm4.855-18.367c-1.305-.383-2.898-.73-4.785-1.047-1.89-.313-4.047-.469-6.473-.469-3.012 0-5.707.461-8.086 1.379-2.383.922-4.418 2.215-6.101 3.879-1.684 1.66-2.977 3.672-3.875 6.031-.899 2.36-1.348 5.29-1.348 8.121 0 2.785.426 5.246 1.281 7.38.852 2.136 1.996 3.921 3.438 5.359a13.917 13.917 0 005.054 3.234c1.93.719 3.977 1.078 6.133 1.078 1.528 0 2.887-.191 4.078-.574 1.192-.38 2.2-.817 3.036-1.313.828-.492 1.48-.976 1.953-1.449.468-.469.75-.773.84-.91v3.305l9.437-.004V15.934c-.227-.137-.719-.395-1.484-.778-.762-.379-1.797-.761-3.098-1.144m-30.781-.184c-.95-.496-2.32-.922-4.29-1.238a22.672 22.672 0 00-3.574-.266c-2.066 0-3.976.192-5.726.57-1.754.383-3.293.81-4.617 1.282-1.328.472-2.395.933-3.203 1.383-.809.449-1.305.742-1.48.875v31.582h9.433V21.625c.406-.227 1.125-.527 2.16-.91 1.031-.383 2.492-.574 4.379-.574.629 0 1.293.047 1.988.136.695.09 1.254.164 1.953.368.059.02.11.03.164.05a1465.92 1465.92 0 002.719-6.636c.031-.079.063-.153.094-.23m127.633 18.55c0 2.562-.653 4.695-1.954 6.402-1.304 1.707-3.257 2.563-5.867 2.563-2.601 0-4.636-.953-6.097-2.864-1.457-1.91-2.192-4.437-2.192-7.582 0-1.574.215-3.226.64-4.55.43-1.325 1.079-2.48 1.958-3.47.875-.991 2-1.753 3.367-2.292 1.371-.54 3-.809 4.89-.809 1.434 0 2.606.067 3.505.203.898.133 1.48.27 1.75.403zm7.953-17.223c-.762-.379-1.797-.761-3.098-1.144-1.305-.383-2.898-.73-4.79-1.047-1.886-.313-4.042-.469-6.468-.469-3.012 0-5.707.461-8.09 1.379-2.382.922-4.414 2.215-6.097 3.879-1.688 1.66-2.977 3.672-3.875 6.031-.899 2.36-1.348 5.29-1.348 8.121 0 2.785.426 5.246 1.277 7.38.856 2.136 2 3.921 3.442 5.359a13.917 13.917 0 005.054 3.234c1.93.719 3.977 1.078 6.133 1.078 1.528 0 2.887-.191 4.078-.574 1.188-.38 2.2-.817 3.032-1.313.832-.492 1.484-.976 1.957-1.449.468-.469.75-.773.84-.91v3.305l9.437-.004V15.934c-.227-.137-.723-.395-1.484-.778M259.84 0c-1.442 0-2.676.496-3.707 1.484-1.035.989-1.555 2.2-1.555 3.637 0 1.438.52 2.664 1.555 3.676 1.031 1.008 2.265 1.516 3.707 1.516 1.48 0 2.738-.508 3.77-1.516 1.034-1.012 1.55-2.238 1.55-3.676 0-1.437-.516-2.648-1.55-3.637C262.577.496 261.32 0 259.84 0m-4.688 48.012h9.438V12.496l-9.438 2.723zM109.11 28.73c.813-2.187 1.641-4.394 2.477-6.605.832-2.215 1.601-4.25 2.3-6.105a205.65 205.65 0 011.868-4.786c.539-1.332.926-2.238 1.152-2.714.227.476.61 1.382 1.153 2.714a190.963 190.963 0 011.863 4.786l2.305 6.105c.835 2.21 1.66 4.418 2.472 6.605zm26.164 1.641a368.01 368.01 0 00-3.386-8.535 1446.81 1446.81 0 01-3.121-7.602 219.312 219.312 0 00-2.575-6.109 160.198 160.198 0 00-1.832-4.035 402.214 402.214 0 01-1.425-3.242h-12.059s-.434 1.004-1.426 3.242a162.8 162.8 0 00-1.828 4.035 218.276 218.276 0 00-2.578 6.11c-.945 2.331-1.988 4.863-3.117 7.6a386.114 386.114 0 00-3.39 8.536c-1.13 2.953-2.259 5.93-3.388 8.93-1.128 3-2.191 5.902-3.183 8.71h9.96l3.864-10.425h22.23l3.868 10.426h9.96a432.56 432.56 0 00-3.187-8.711 1824.2 1824.2 0 00-3.387-8.93M59.79 0c-1.437 0-2.676.496-3.707 1.484-1.035.989-1.55 2.2-1.55 3.637 0 1.438.515 2.664 1.55 3.676 1.031 1.008 2.27 1.515 3.707 1.515 1.48 0 2.738-.507 3.773-1.515 1.032-1.012 1.551-2.238 1.551-3.676 0-1.437-.52-2.648-1.55-3.637C62.526.496 61.27 0 59.788 0m-4.684 48.012h9.434V12.496l-9.434 2.723zM17.145 28.73c.816-2.187 1.64-4.394 2.476-6.605.836-2.215 1.606-4.25 2.305-6.105.699-1.86 1.324-3.454 1.867-4.786.539-1.332.926-2.238 1.148-2.714.23.476.614 1.382 1.153 2.714a175.58 175.58 0 011.867 4.786c.7 1.855 1.469 3.89 2.3 6.105.84 2.21 1.665 4.418 2.477 6.605zm26.168 1.641a367.764 367.764 0 00-3.391-8.535c-1.129-2.738-2.168-5.27-3.117-7.602a218.301 218.301 0 00-2.578-6.109 162.797 162.797 0 00-1.829-4.035A271.301 271.301 0 0130.973.848H18.914s-.434 1.004-1.426 3.242c-.453.953-1.062 2.297-1.832 4.035a231.853 231.853 0 00-2.574 6.11c-.95 2.331-1.988 4.863-3.117 7.6a367.764 367.764 0 00-3.39 8.536c-1.13 2.953-2.259 5.93-3.391 8.93-1.13 3-2.192 5.902-3.18 8.71h9.96l3.864-10.425h22.23l3.864 10.426h9.96A457.073 457.073 0 0046.7 39.3c-1.129-3-2.258-5.977-3.386-8.93M93.5 20.695a2113.87 2113.87 0 002.719-6.636c.03-.079.062-.153.093-.23-.949-.497-2.32-.923-4.289-1.24a22.672 22.672 0 00-3.574-.265c-2.066 0-3.976.192-5.726.57-1.754.383-3.293.81-4.618 1.282-1.328.472-2.394.933-3.203 1.383-.808.449-1.304.742-1.48.875v31.582h9.433V21.625c.407-.227 1.122-.527 2.16-.91 1.032-.383 2.493-.574 4.38-.574.628 0 1.289.046 1.988.136.695.09 1.254.164 1.953.368.058.02.11.03.164.05m88.637 66.719c0 2.168-.551 3.973-1.653 5.418-1.105 1.445-2.757 2.168-4.96 2.168-2.208 0-3.926-.809-5.165-2.422-1.234-1.617-1.851-3.758-1.851-6.418 0-1.332.18-2.726.543-3.847a8.085 8.085 0 011.652-2.938c.742-.836 1.692-1.48 2.852-1.937 1.16-.458 2.535-.688 4.136-.688 1.215 0 2.204.059 2.965.172.758.113 1.254.23 1.48.344zm52.133-16.523l-8 2.308v21.274h-9.38c-1.035 0-1.87-.145-2.503-.434-.637-.289-1.114-.707-1.438-1.266-.328-.554-.539-1.238-.637-2.043a24.607 24.607 0 01-.144-2.82V70.89l-7.941 2.294V87.91c0 1.078-.055 2.016-.172 2.82-.118.805-.336 1.489-.664 2.043-.325.559-.797.977-1.407 1.266-.617.29-1.441.434-2.476.434h-9.383v-20.98c-.191-.114-.61-.333-1.258-.657-.648-.32-1.52-.645-2.62-.969-1.106-.324-2.454-.617-4.052-.883-1.597-.265-3.422-.402-5.476-.402-2.551 0-4.828.39-6.848 1.172-2.016.781-3.734 1.875-5.16 3.281-1.426 1.406-2.52 3.11-3.281 5.106-.762 1.996-1.14 4.476-1.14 6.875 0 2.359.362 4.441 1.085 6.246.719 1.804 1.691 3.316 2.906 4.535a11.846 11.846 0 004.281 2.738c1.633.606 3.364.91 5.188.91 1.293 0 2.445-.16 3.453-.484 1.008-.32 1.863-.691 2.567-1.113.703-.418 1.257-.825 1.652-1.223.402-.402.64-.66.715-.773v3.414h7.988v-.004l11.11.004c1.495 0 2.898-.27 4.202-.809 1.301-.535 2.34-1.57 3.106-3.11.77 1.54 1.734 2.575 2.906 3.11 1.172.54 2.504.809 4 .809h18.82zm-25.653 33.136c-1.23 0-2.285.422-3.168 1.266-.883.844-1.324 1.879-1.324 3.105 0 1.23.441 2.274 1.324 3.137s1.938 1.297 3.168 1.297c1.266 0 2.336-.434 3.219-1.297s1.324-1.906 1.324-3.137c0-1.226-.441-2.261-1.324-3.105-.883-.844-1.953-1.266-3.219-1.266m-104.664-9.25c-3.008.887-7.39.02-7.723-.136V78.125s3.165-2.242 7.04-1.504 6.605 3.824 6.605 9.418c0 4.434-2.074 7.606-5.922 8.738m40.277-.304h-5.355c-1.035 0-1.867-.145-2.5-.434-.633-.289-1.113-.707-1.438-1.266-.328-.554-.539-1.238-.636-2.043-.098-.804-.14-1.742-.14-2.82V59.988l-8.005 2.313v25.61c0 1.077-.047 2.015-.14 2.82-.098.804-.309 1.488-.637 2.042-.324.559-.793.977-1.406 1.266-.618.29-1.442.434-2.477.434h-5.328c1.254-2.348 1.93-5.274 1.93-8.66 0-8.848-5.059-14.305-12.336-15.13-4.184-.472-8.293.985-9.535 1.477l.004-12.172-7.997 2.258v32.227h-3.34c-1.035 0-1.87-.145-2.5-.434-.636-.289-1.117-.707-1.44-1.266-.325-.554-.54-1.238-.634-2.043a23.728 23.728 0 01-.144-2.82V70.89l-7.942 2.294V87.91c0 1.078-.058 2.016-.175 2.82-.11.805-.332 1.489-.66 2.043a3.133 3.133 0 01-1.41 1.266c-.614.29-1.438.434-2.473.434h-9.383V70.898l-7.996 2.309c0 .008-.004.012-.004.02v27.78c0 1.727-.414 2.927-1.238 3.598-.825.672-1.946 1.008-3.364 1.008a8.921 8.921 0 01-2.535-.343c-.766-.235-1.25-.387-1.437-.461l-1.903 5.351a13.785 13.785 0 002.364.837c.648.171 1.398.323 2.242.456.843.133 1.726.203 2.648.203a16.59 16.59 0 004.29-.547 8.732 8.732 0 003.57-1.902c1.011-.898 1.828-2.09 2.44-3.562.61-1.461.911-3.305.919-5.528v1.149h11.113c1.496 0 2.895-.27 4.2-.809 1.304-.535 2.343-1.57 3.109-3.11.765 1.54 1.734 2.575 2.906 3.11 1.172.54 2.504.809 4 .809h39.766c1.496 0 2.894-.27 4.203-.809 1.304-.535 2.34-1.57 3.105-3.11.766 1.54 1.739 2.575 2.906 3.11 1.172.54 2.504.809 4 .809h14.793V59.988l-8 2.309zm52.391 9.554c-1.23 0-2.285.422-3.168 1.266-.883.844-1.324 1.879-1.324 3.105 0 1.23.441 2.274 1.324 3.137s1.938 1.297 3.168 1.297c1.266 0 2.34-.434 3.219-1.297.887-.863 1.328-1.906 1.328-3.137 0-1.226-.441-2.261-1.328-3.105-.88-.844-1.953-1.266-3.219-1.266m24.043 0c-1.266 0-2.34.43-3.219 1.293-.883.868-1.328 1.91-1.328 3.137 0 1.23.445 2.262 1.328 3.11.88.843 1.953 1.265 3.22 1.265 1.23 0 2.284-.422 3.167-1.266.883-.847 1.324-1.878 1.324-3.109 0-1.227-.441-2.27-1.324-3.137-.883-.863-1.937-1.293-3.168-1.293m77.648-41.71v39.003h8.06V59.988zM284.18 90.671c0 1.73-.414 2.926-1.239 3.598-.824.671-1.949 1.007-3.367 1.007h-13.957a7.903 7.903 0 01-.98-.875c-.75-.8-1.344-1.808-1.782-3.02-.445-1.21-.664-2.616-.664-4.218 0-3.082.786-5.457 2.36-7.121 1.574-1.664 3.59-2.492 6.043-2.492 1.113 0 2.11.14 2.992.43.867.28 1.61.613 2.234.996l3.117-6.051c-.57-.45-1.578-.953-3.019-1.508-1.438-.555-3.504-.836-6.184-.836-2.191 0-4.234.383-6.132 1.145a14.505 14.505 0 00-4.98 3.296c-1.419 1.438-2.54 3.172-3.368 5.207-.824 2.032-1.234 4.344-1.234 6.934 0 2.668.41 5.031 1.234 7.086.144.355.308.691.469 1.027h-7.41V70.898l-8 2.309v27.8c0 1.727-.41 2.927-1.239 3.598-.824.672-1.945 1.008-3.367 1.008a8.933 8.933 0 01-2.531-.343 30.38 30.38 0 01-1.438-.461l-1.898 5.351a13.577 13.577 0 002.359.837c.653.171 1.399.323 2.242.456.844.133 1.727.203 2.649.203 1.496 0 2.926-.183 4.285-.547 1.367-.367 2.555-.996 3.57-1.902 1.016-.898 1.832-2.09 2.446-3.562.613-1.477.921-3.34.921-5.594v1.27h32.645c1.496 0 2.922-.184 4.29-.548a8.938 8.938 0 003.593-1.898c1.039-.902 1.863-2.094 2.476-3.57.614-1.477.922-3.348.922-5.61V59.988l-8.058 2.328zM181.953 67.645c1.266 0 2.34-.434 3.219-1.297.887-.864 1.328-1.907 1.328-3.137 0-1.227-.441-2.262-1.328-3.106-.879-.847-1.953-1.27-3.219-1.27-1.226 0-2.285.423-3.168 1.27-.883.844-1.324 1.88-1.324 3.106 0 1.23.441 2.273 1.324 3.137.883.863 1.942 1.297 3.168 1.297m-166.957.753c1.266 0 2.336-.43 3.219-1.293.887-.867 1.328-1.91 1.328-3.136 0-1.23-.441-2.266-1.328-3.11-.883-.843-1.953-1.265-3.219-1.265-1.23 0-2.285.422-3.168 1.265-.879.844-1.324 1.88-1.324 3.11 0 1.226.445 2.27 1.324 3.136.883.864 1.938 1.293 3.168 1.293m154.961-.753c1.27 0 2.34-.434 3.223-1.297.882-.864 1.324-1.907 1.324-3.137 0-1.227-.442-2.262-1.324-3.106-.883-.847-1.953-1.27-3.223-1.27-1.227 0-2.285.423-3.164 1.27-.883.844-1.328 1.88-1.328 3.106 0 1.23.445 2.273 1.328 3.137.879.863 1.937 1.297 3.164 1.297M22.074 84.039c0 5.117 0 10.899-7.035 10.899C8 94.938 8 89.156 8 84.039v-6.805L0 79.54v4.176c0 .258.004.512.008.765.062 2.93.469 5.45 1.226 7.555.82 2.281 1.922 4.14 3.305 5.582 1.383 1.438 3 2.485 4.844 3.137 1.847.652 3.797.976 5.847.976 1.915 0 3.758-.285 5.54-.859 1.769-.578 3.355-1.547 4.738-2.91 1.383-1.363 2.488-3.164 3.304-5.41.82-2.246 1.235-5.035 1.235-8.375V70.898l-7.973 2.293zm54.477 19.988c-1.227 0-2.281.422-3.164 1.266-.883.844-1.325 1.879-1.325 3.105 0 1.23.442 2.274 1.325 3.137s1.937 1.297 3.164 1.297c1.27 0 2.34-.434 3.222-1.297.883-.863 1.325-1.906 1.325-3.137 0-1.226-.442-2.261-1.325-3.105-.882-.844-1.953-1.266-3.222-1.266m-32.465-44.09l-8 2.31v39.015h8zm20.473 44.09c-1.23 0-2.286.422-3.168 1.266-.883.844-1.325 1.879-1.325 3.105 0 1.23.442 2.274 1.325 3.137.882.863 1.937 1.297 3.168 1.297 1.265 0 2.34-.434 3.218-1.297.883-.863 1.328-1.906 1.328-3.137 0-1.226-.445-2.261-1.328-3.105-.879-.844-1.953-1.266-3.218-1.266" fill="#e81142"/></svg>