<svg role="img" viewBox="0 0 24 24" xmlns="http://www.w3.org/2000/svg" fill="#f1c931"><title>Ryanair</title><path d="M9.844 0c-.723 0-1.48.252-1.982.755-.894.894-1.786 1.787-2.68 2.458h-.45c-.224-.224.223-.448.223-.895s.223-.893 0-1.34C4.508.53 3.617.533 2.947.533c-.224 0-.672.222-.895.222-.224 0-.45 0-.45.223 0 .447 0 .893-.223 1.34v.672c0 .67.672.223.895.223.224 0 .223.222.223.222v.45C2.05 4.779.709 5.223.262 5.67c-.67.894.45 1.12.45 1.568v.222c0 .447.222.893.222 1.34.447 1.118 1.116 2.014 1.563 2.908.223.447.449.67.672 1.117.224.224.223.445.223.445 2.011 1.788 4.694 3.131 6.482 5.143.447.447.893 1.115 1.34 1.562.67.894 1.34 1.79 1.563 2.685.224.447.448.893.895 1.34.223 0 0-.449 0-.672v-.223c-.224-.223-.222-.67-.445-1.117v-.223c0-.67-.226-1.12-.45-1.567-.223-.894-.67-1.564-1.117-2.458-.447-.894-1.114-1.564-2.008-2.235-.671-.223-1.12-.893-1.568-1.34-.67-.894-1.116-1.786-1.34-2.68l-.672-1.345c-.447-.67-1.785-.891-1.785-1.785 0-.894.444-1.79.668-2.685 1.117-1.564 3.13-2.458 5.142-2.235 2.235 0 4.247.672 6.482.895 1.118 0 2.458.002 3.575-.445.224 0 .672-.223.895-.223.894-.223 1.786-.674 2.68-1.344.224-.224.223-.222.223-.445h-.223c-.67.223-1.115.445-1.785.445h-1.118c-1.564-.224-3.132-.67-4.697-1.118C14.118.753 12.554.083 10.542.083A2.876 2.876 0 0 0 9.844 0Zm.881 4.68c-.044-.007-.1.016-.183.1-.447-.224-.667.222-.89.445-.894 1.788-1.568 3.576-1.568 5.588 0 .223 0 .445.223.445h.227c.67-1.788 1.118-3.796 2.235-5.36.224-.448.446-.671.223-1.118-.14 0-.192-.09-.267-.1zm2.279.323s-.004.222-.227.222c-1.117 2.012-1.787 4.021-2.458 6.033-.223.894-.446 2.013-.222 2.907h.222c.224 0 .223-.222.223-.222.67-2.459 2.012-4.693 3.13-6.928.223-.67.673-1.12.45-1.79-.224-.223-.671-.222-1.118-.222Zm3.575.222c-.447 0-.671.449-.895.672-.447 1.118-1.116 2.008-1.563 3.126-1.117 2.011-1.788 4.473-2.012 6.932 0 .223-.223.667 0 .89 0 .224.223.224.223 0l.672-2.008c.894-3.129 2.902-5.589 4.243-8.494.223-.224.223-.672 0-.895-.224-.224-.444-.223-.668-.223Zm3.575 0c-.447.224-.671.672-.895.895-1.117 2.459-2.457 4.692-3.575 7.15-.894 2.235-1.789 4.247-2.012 6.705 0 .224-.001.449.223.673h.226c.224-.671.445-1.12.668-1.79.67-1.788 1.34-3.8 2.458-5.588 1.117-2.235 2.685-4.247 3.58-6.482 0-.447.223-.67 0-1.118-.224-.447-.45-.445-.673-.445z"/></svg>