<svg role="img" viewBox="0 0 24 24" xmlns="http://www.w3.org/2000/svg" fill="#240852"><title>Riyadh Air</title><path d="M11.4021.0005a7.4207 7.4207 0 0 0-.518.0246C8.0736.265 6.086 2.3254 4.977 4.7733l-.0399.0856h2.5183c2.2954.1294 5.306.7985 5.306 4.249 0 3.4622-3.0501 4.1474-5.3388 4.283H5.878v.0763h1.5656c.4705.0187 2.5443.2692 5.101 3.0784 1.9711 2.1674 4.683 3.2625 7.5196 2.1737-2.8544.7847-3.6207-.885-5.667-2.9823-1.4082-1.4462-2.665-2.046-3.71-2.3097l.027-.0023c2.0447-.3021 3.7428-2.2206 3.7428-4.3158 0-2.2834-1.9211-4.3241-4.2045-4.3241v-.0023H5.0988c.1319-.257.7178-.935 1.186-1.3055.9189-.728 1.9903-1.1864 3.1147-1.439 2.124-.4879 4.4162-.1508 6.2142 1.1097 1.4082.9728 2.457 2.5171 2.7245 4.228.1372.827.1125 1.8867.1418 2.7292.0067.891.0167 1.8807.0152 2.7655-.0043 1.2259.0672 2.4528.0317 3.6772-.016.394-.0446.7904-.1149 1.1777l.0598.027c.1145-.3835.1818-.781.2308-1.1766.129-1.2278.1535-2.4727.1746-3.7053.0048-1.1893.1112-5.0113.0645-5.5627-.1636-2.662-1.6499-5.2029-4.0545-6.4697-1.065-.5695-2.2766-.8514-3.485-.8378Zm-6.984 6.1837a7.269 7.269 0 0 0-.2567 1.2035c-.1545 1.032-.126 2.558-.15 3.6069 0 1.0623-.0842 4.801-.075 5.422.0625 2.2459 1.0808 4.4785 2.8335 5.919 1.797 1.4943 4.3988 2.0954 6.6384 1.3347 1.6786-.6024 3.0034-1.9241 3.8588-3.444l-.0562-.0258c-1.0671 1.17-2.6777 1.7094-4.1952 1.8831-.5287.0679-1.0546.093-1.5843.0844-2.4142-.0173-4.8415-1.2782-6.09-3.383-.5129-.8589-.8065-1.8443-.8695-2.8441-.0226-.446-.0363-.9004-.0469-1.3464-.0336-1.0537-.0143-2.528-.0293-3.5999-.0028-1.0435-.061-2.5679-.0503-3.5917.0192-.4041.035-.8203.1207-1.2187Z"/></svg>