<svg role="img" viewBox="0 0 64 64" xmlns="http://www.w3.org/2000/svg" fill="#000099"><title>Scandinavian Airlines</title><path d="M41.926 21.012h-6.448c-.33 0-.496.16-.496.16l-17.77 21.416c-.083.16-.083.24.083.24h2.645c.247 0 .33-.08.33-.161l3.803-4.715s.082-.08.164-.08h6.364s.083 0 .083.08-.909 4.636-.909 4.636c0 .08 0 .24.248.24h7.687c.083 0 .166 0 .166-.161l4.297-21.416c-.082 0 0-.24-.248-.24zM31.014 35.715h-5.041v-.08l6.612-8.23.083-.08c.082 0 0 .08 0 .08l-1.654 8.311c.083-.08.083-.08 0 0zM.02 40.111s.58-1.918.662-1.838c0-.32.165-.4.33-.24.745.72 3.058 2.877 6.282 2.877 3.554 0 3.306-2.797 3.306-3.196 0-1.119-1.488-6.633-1.9-8.071-1.158-4.635 1.735-8.87 8.595-8.87 3.637 0 5.455.959 6.116 1.278.414.24.33.56.33.56s-.413 1.678-.413 1.837c-.083.16-.247.16-.412 0C21.84 23.81 20.6 23.09 18.7 23.09c-2.231 0-3.39 1.598-2.81 3.915.248.8 1.653 6.314 1.9 7.432.993 3.996-1.818 8.79-9.42 8.79-4.217 0-6.861-1.517-7.77-2.237-.497-.4-.662-.64-.58-.88Zm40.417.08s.414-2.077.414-1.918c.083-.24.33-.32.495-.16.827.72 2.976 2.797 6.2 2.797 3.553 0 3.306-2.797 3.306-3.196 0-1.119-1.488-6.633-1.902-8.071-1.157-4.635 1.737-8.87 8.596-8.87 3.637 0 5.455.959 6.116 1.278.414.24.331.56.331.56s-.414 1.678-.414 1.837c-.082.16-.247.16-.412 0-1.075-.639-2.315-1.358-4.216-1.358-2.231 0-3.388 1.598-2.81 3.915.248.8 1.653 6.314 1.902 7.432.99 3.996-1.819 8.79-9.424 8.79-4.215 0-6.693-1.438-7.602-2.156-.497-.4-.663-.64-.58-.88z"/></svg>