<svg version="1.1" id="Layer_1" xmlns="http://www.w3.org/2000/svg" xmlns:xlink="http://www.w3.org/1999/xlink" x="0px" y="0px" viewBox="0 0 283.5 283.5" style="enable-background:new 0 0 283.5 283.5;" xml:space="preserve">
 <style type="text/css">
  .st0{fill:#BED600;}
	.st1{fill:#FFFFFF;}
 </style>
 <path class="st0" d="M283.5,141.8c0,78.3-63.4,141.7-141.7,141.7C63.5,283.5,0,220.1,0,141.8S63.5,0,141.8,0
	C220.1,0,283.5,63.5,283.5,141.8">
 </path>
 <path class="st1" d="M131.4,67.8c-22.3,0-36.8,1.2-47.3,5.1c-17.6,6.9-29.8,21.2-29.8,40.2c0,15.7,7.3,27.1,28.5,40.3
	c22.6,13.7,27.2,18.3,27.2,26.5c0,9.1-8.9,19.4-31.7,19.4c-8,0-20-1.1-27.6-3l-3.7-0.9c-2,5.5-6.7,18.4-8.1,23.1l3.6,1.1
	c6.9,2.2,23.3,3.9,35,3.9c39,0,62.3-23.6,62.3-48.2c0-15.2-6.9-26.7-30.1-41.2c-11.7-7.2-17.6-11.8-21.2-15.4
	c-2.9-3.8-3.3-6.6-3.3-9.5c0-2.8,0.6-6.1,2.5-8.5c2-2.9,5.7-4.8,10.7-6.4c5.1-1.7,14.7-1.7,29.5-1.7h13.8l9.9-24.6L131.4,67.8
	L131.4,67.8z M235.7,67.8h-69.3l-9.9,24.6h23c15.5,0,18.4-0.3,22.3-0.3c-5.6,12.8-39.4,98.9-39.4,98.9H191
	c0,0,42.8-107.2,47.3-118.4C239.6,70.1,239,67.8,235.7,67.8L235.7,67.8z">
 </path>
</svg>