<?xml version="1.0" encoding="UTF-8" standalone="no"?>
<!DOCTYPE svg PUBLIC "-//W3C//DTD SVG 1.1//EN" "http://www.w3.org/Graphics/SVG/1.1/DTD/svg11.dtd">
<svg width="100%" height="100%" viewBox="0 0 1223 1223" version="1.1" xmlns="http://www.w3.org/2000/svg" xmlns:xlink="http://www.w3.org/1999/xlink" xml:space="preserve" xmlns:serif="http://www.serif.com/" style="fill-rule:evenodd;clip-rule:evenodd;stroke-linejoin:round;stroke-miterlimit:2;">
    <g transform="matrix(12.5,0,0,12.5,0,0)">
        <g transform="matrix(8.333333,0,0,8.333333,87.241667,48.9)">
            <path d="M0,0C0,-2.541 -2.06,-4.601 -4.601,-4.601C-7.143,-4.601 -9.203,-2.541 -9.203,0C-9.203,2.541 -7.143,4.601 -4.601,4.601C-2.06,4.601 0,2.541 0,0M1.267,0C1.267,3.241 -1.361,5.868 -4.601,5.868C-7.842,5.868 -10.469,3.241 -10.469,0C-10.469,-3.241 -7.842,-5.868 -4.601,-5.868C-1.361,-5.868 1.267,-3.241 1.267,0M-1.726,-0.35C-1.726,-0.35 -1.729,-0.342 -1.735,-0.326C-1.751,-0.284 -1.769,-0.243 -1.788,-0.203C-2,0.266 -2.784,1.769 -4.602,3.093C-6.419,1.769 -7.203,0.266 -7.415,-0.203C-7.434,-0.243 -7.452,-0.284 -7.468,-0.326C-7.474,-0.342 -7.477,-0.35 -7.477,-0.35C-7.765,-1.142 -7.357,-2.017 -6.566,-2.305C-5.775,-2.593 -4.9,-2.185 -4.612,-1.393C-4.612,-1.393 -4.609,-1.385 -4.604,-1.368C-4.603,-1.366 -4.602,-1.364 -4.602,-1.362C-4.601,-1.364 -4.6,-1.366 -4.599,-1.368C-4.594,-1.385 -4.591,-1.393 -4.591,-1.393C-4.303,-2.185 -3.428,-2.593 -2.637,-2.305C-1.846,-2.017 -1.438,-1.142 -1.726,-0.35" style="fill:rgb(229,6,126);fill-rule:nonzero;"/>
        </g>
    </g>
</svg>
