<?xml version="1.0" encoding="utf-8"?>
<svg xmlns="http://www.w3.org/2000/svg" id="svg335" version="1.1" width="326px" height="326px" preserveAspectRatio="xMinYMid" viewBox="-1.586 -1.586 56.66 56.288" xmlns:bx="https://boxy-svg.com">
  <defs id="defs332">
    <bx:export>
      <bx:file format="svg" path="Unbetitelt.svg"/>
    </bx:export>
  </defs>
  <path id="path48" d="m 75.50001,8.22656 c -0.84533,0 -1.58863,0.12865 -2.2793,0.33399 -0.69333,0.204 -1.28153,0.51121 -1.76953,0.92187 -0.48667,0.384 -0.84562,0.897 -1.12695,1.48633 -0.28134,0.61467 -0.41016,1.28139 -0.41016,2.02539 0,0.71733 0.1032,1.33237 0.2832,1.8457 0.20267,0.53867 0.46165,0.97209 0.82032,1.35743 0.35733,0.384 0.76791,0.71872 1.28125,1.02539 0.48533,0.308 1.04812,0.61381 1.68945,0.89648 0.53867,0.256 1.02616,0.48607 1.41016,0.69141 0.38533,0.20533 0.71855,0.4373 0.94922,0.66797 0.22933,0.23066 0.40905,0.48491 0.51171,0.76757 0.10267,0.28134 0.15235,0.616 0.15235,1 0,0.616 -0.23013,1.10094 -0.7168,1.46094 -0.48667,0.35867 -1.15345,0.53711 -2.05078,0.53711 -0.82,0 -1.56196,-0.1522 -2.2793,-0.4082 -0.71866,-0.28267 -1.38545,-0.64224 -2.05078,-1.12891 l -0.35937,2.84375 c 0.53733,0.36 1.17988,0.64244 1.94921,0.89844 0.76934,0.25733 1.61389,0.38281 2.56055,0.38281 1.94934,0 3.46117,-0.43475 4.5625,-1.35742 1.10267,-0.89733 1.64258,-2.20381 1.64258,-3.86914 0,-0.76933 -0.13066,-1.40988 -0.36133,-1.92188 -0.256,-0.512 -0.56199,-0.97404 -0.97265,-1.35937 -0.41067,-0.384 -0.87155,-0.74272 -1.43555,-1.02539 -0.53867,-0.28133 -1.1282,-0.58976 -1.76953,-0.8711 -0.436,-0.20533 -0.81901,-0.3825 -1.15235,-0.5625 -0.33333,-0.17866 -0.61498,-0.35911 -0.82031,-0.56445 -0.204,-0.204 -0.38366,-0.41063 -0.48633,-0.66797 -0.128,-0.256 -0.17968,-0.53586 -0.17968,-0.89453 0,-0.59066 0.23069,-1.05205 0.69336,-1.38672 0.45999,-0.332 1.04829,-0.51172 1.76562,-0.51172 0.71733,0 1.384,0.12939 2,0.38672 0.61467,0.256 1.15396,0.58866 1.64062,0.97266 L 79.75587,9.37891 C 79.24253,9.04691 78.62744,8.76455 77.88477,8.56055 77.14211,8.32988 76.34668,8.22656 75.50001,8.22656 Z m 28.80663,0.20508 v 17.09375 h 9.56055 v -2.66601 h -6.40821 v -4.89454 h 4.89649 v -2.64062 h -4.89649 v -4.25195 h 5.99805 l 0.12695,-2.64063 z m 45.36133,4.4082 c -1.512,0 -2.68988,0.59013 -3.56055,1.7168 -0.872,1.128 -1.30664,2.74097 -1.30664,4.79297 0,0.94667 0.15354,1.81923 0.4082,2.61523 0.25734,0.79334 0.61552,1.48483 1.10352,2.04883 0.48533,0.56267 1.07552,0.99864 1.74219,1.30664 0.66666,0.308 1.40851,0.46094 2.22851,0.46094 0.94934,0 1.71793,-0.10264 2.3086,-0.30664 0.58933,-0.20533 1.10037,-0.48831 1.48437,-0.82031 l -0.23047,-2.4336 c -0.79333,0.74267 -1.76848,1.12696 -2.89648,1.12696 -0.43467,0 -0.81913,-0.0765 -1.20313,-0.25782 -0.38533,-0.17733 -0.71733,-0.43418 -1,-0.74218 -0.30666,-0.332 -0.53679,-0.69096 -0.71679,-1.12696 -0.17867,-0.436 -0.25592,-0.92488 -0.28125,-1.43554 h 6.32812 c 0.052,-0.18 0.0528,-0.41008 0.0781,-0.69141 0.0253,-0.28267 0.0254,-0.56499 0.0254,-0.84766 0,-1.66533 -0.35896,-2.97197 -1.12696,-3.94531 -0.744,-0.97333 -1.87143,-1.46094 -3.38476,-1.46094 z m -17.45313,0.0234 c -0.58933,0 -1.0751,0.10527 -1.50976,0.33594 -0.436,0.23067 -0.76945,0.51104 -1.05078,0.8457 v -0.89843 h -2.94922 -0.0488 v 17.40234 h 2.86914 0.10351 v -6.12695 c 0.10134,0.15466 0.20605,0.30822 0.35938,0.46289 0.15333,0.15333 0.33178,0.30754 0.53711,0.43554 0.23067,0.128 0.48686,0.23132 0.76953,0.33399 0.30667,0.076 0.6381,0.12695 1.02344,0.12695 1.30666,0 2.35768,-0.53728 3.15234,-1.61328 0.79467,-1.07733 1.17774,-2.74327 1.17774,-4.94727 0,-2.10266 -0.38307,-3.69024 -1.17774,-4.76757 -0.79466,-1.04934 -1.87052,-1.58985 -3.25586,-1.58985 z m -33.52147,0.002 c -0.384,10e-6 -0.74216,0.0517 -1.04883,0.17969 -0.308,0.10267 -0.58965,0.25555 -0.82031,0.43555 -0.256,0.15333 -0.46258,0.35912 -0.64258,0.56445 -0.17867,0.204 -0.33155,0.40985 -0.43555,0.58985 V 13.1465 h -2.84375 v 12.40429 h 2.94727 v -8.63476 c 0.256,-0.488 0.5377,-0.90031 0.8457,-1.18164 0.30667,-0.28134 0.69296,-0.4336 1.1543,-0.4336 0.53733,0 0.92168,0.15305 1.15234,0.51172 0.22934,0.33333 0.35938,0.82094 0.35938,1.46094 v 8.25195 h 2.99803 v -8.38086 c 0,-1.30666 -0.28303,-2.357 -0.8457,-3.125 -0.564,-0.76933 -1.48831,-1.1543 -2.8203,-1.1543 z m 61.12499,0.002 c -0.564,0 -1.1019,0.0752 -1.61524,0.2539 -0.512,0.15334 -0.97404,0.41075 -1.35937,0.71875 -0.384,0.30667 -0.71793,0.69235 -0.94727,1.15235 -0.23066,0.46133 -0.35937,0.97311 -0.35937,1.53711 0,0.53733 0.0772,1.02488 0.25586,1.43554 0.18,0.41067 0.41202,0.74412 0.69336,1.05079 0.28133,0.308 0.61466,0.56425 1,0.79492 0.384,0.23066 0.76712,0.43657 1.20312,0.61523 0.564,0.23067 1.0261,0.46086 1.38477,0.74219 0.35866,0.28133 0.53906,0.64023 0.53906,1.10156 0,0.25734 -0.0536,0.46252 -0.15625,0.61719 -0.10267,0.15333 -0.22815,0.28015 -0.38281,0.38281 -0.15334,0.10267 -0.33311,0.17841 -0.53711,0.20508 -0.20534,0.0253 -0.38647,0.0508 -0.5918,0.0508 -0.61467,0 -1.20363,-0.1522 -1.79297,-0.4082 -0.564,-0.28267 -1.07572,-0.56511 -1.51172,-0.89844 l -0.30859,2.64063 c 0.564,0.28133 1.12942,0.51268 1.71875,0.66601 0.58933,0.15467 1.25544,0.23047 2.02344,0.23047 1.384,0 2.46125,-0.3581 3.28125,-1.02344 0.79466,-0.66666 1.20312,-1.61509 1.20312,-2.87109 0,-0.53867 -0.0759,-0.99949 -0.25586,-1.41016 -0.15333,-0.384 -0.38468,-0.74405 -0.66601,-1.02539 -0.28134,-0.308 -0.61399,-0.5642 -0.97266,-0.76953 -0.36,-0.20533 -0.74357,-0.38383 -1.1289,-0.5625 -0.384,-0.18 -0.71672,-0.33356 -0.99805,-0.46289 -0.28267,-0.128 -0.4893,-0.2802 -0.66797,-0.4082 -0.15333,-0.128 -0.28071,-0.28222 -0.35938,-0.43555 -0.0507,-0.15333 -0.10156,-0.33373 -0.10156,-0.53906 0,-0.38267 0.15294,-0.69115 0.46094,-0.89649 0.33333,-0.20533 0.66672,-0.30859 1.02539,-0.30859 0.58933,0 1.10184,0.10326 1.58984,0.30859 0.48534,0.20534 0.92202,0.43408 1.30469,0.69141 l 0.38672,-2.38281 c -0.436,-0.232 -0.92422,-0.41112 -1.46289,-0.56446 -0.53733,-0.15333 -1.1772,-0.22851 -1.89453,-0.22851 z m 9.01953,0 c -0.56267,0 -1.09995,0.0752 -1.61328,0.2539 -0.512,0.15334 -0.97404,0.41075 -1.35938,0.71875 -0.384,0.30667 -0.71793,0.69235 -0.94726,1.15235 -0.232,0.46133 -0.35938,0.97311 -0.35938,1.53711 0,0.53733 0.0772,1.02488 0.25586,1.43554 0.15467,0.41067 0.38468,0.74412 0.66602,1.05079 0.28133,0.308 0.61466,0.56425 1,0.79492 0.384,0.23066 0.76774,0.43657 1.20508,0.61523 0.56266,0.23067 1.02414,0.46086 1.38281,0.74219 0.35866,0.28133 0.53906,0.64023 0.53906,1.10156 0,0.25734 -0.0516,0.46252 -0.1543,0.61719 -0.10266,0.15333 -0.2301,0.28015 -0.38476,0.38281 -0.15334,0.10267 -0.33311,0.17841 -0.53711,0.20508 -0.20533,0.0253 -0.38451,0.0508 -0.58985,0.0508 -0.61466,0 -1.20363,-0.1522 -1.79296,-0.4082 -0.564,-0.28267 -1.07572,-0.56511 -1.51172,-0.89844 l -0.28321,2.64063 c 0.56534,0.28133 1.12809,0.51268 1.71875,0.66601 0.58934,0.15467 1.25411,0.23047 2.02344,0.23047 1.35734,0 2.43391,-0.3581 3.25391,-1.02344 0.82,-0.66666 1.23047,-1.61509 1.23047,-2.87109 0,-0.53867 -0.1012,-0.99949 -0.25586,-1.41016 -0.17867,-0.384 -0.3853,-0.74405 -0.66797,-1.02539 -0.28,-0.308 -0.61399,-0.5642 -0.97266,-0.76953 -0.35866,-0.20533 -0.74162,-0.38383 -1.12695,-0.5625 -0.40933,-0.18 -0.744,-0.33356 -1,-0.46289 -0.28133,-0.128 -0.51268,-0.2802 -0.66602,-0.4082 -0.15333,-0.128 -0.28204,-0.28222 -0.35937,-0.43555 -0.0773,-0.15333 -0.10156,-0.33373 -0.10156,-0.53906 0,-0.38267 0.15427,-0.69115 0.46093,-0.89649 0.33334,-0.20533 0.66673,-0.30859 1.02539,-0.30859 0.58934,0 1.10185,0.10326 1.58985,0.30859 0.48533,0.20534 0.92264,0.43408 1.30664,0.69141 l 0.38281,-2.38281 c -0.436,-0.232 -0.92165,-0.41112 -1.45898,-0.56446 -0.53867,-0.15333 -1.18111,-0.22851 -1.89844,-0.22851 z m -24.83203,0.10156 c -0.436,0 -0.82097,0.0751 -1.1543,0.17774 -0.332,0.10266 -0.61376,0.28422 -0.87109,0.46289 -0.22934,0.17866 -0.46196,0.41001 -0.64063,0.66601 -0.18,0.256 -0.35895,0.51164 -0.48828,0.79297 v -1.92187 h -2.86914 -0.0254 v 12.35351 h 2.94727 V 17.377 c 0.33333,-0.69333 0.74312,-1.17827 1.20312,-1.46093 0.46267,-0.28134 1.02797,-0.43555 1.66797,-0.43555 0.15467,0 0.30554,6e-5 0.4082,0.0254 0.128,0.0253 0.23265,0.0508 0.33399,0.0762 l 0.28321,-2.5372 c -0.23067,-0.052 -0.48826,-0.0762 -0.79492,-0.0762 z m -29.0625,0.22852 c 0.28133,0.488 0.56437,0.97432 0.8457,1.48632 0.256,0.48667 0.53904,1.00029 0.8457,1.48829 0.308,0.48666 0.61521,1.02377 0.92188,1.53711 0.308,0.51199 0.61455,1.02377 0.94922,1.5371 -0.308,0.48667 -0.61589,0.97495 -0.94922,1.48829 -0.30667,0.512 -0.61388,1.02371 -0.92188,1.51171 -0.332,0.53734 -0.64121,1.07595 -0.94921,1.61329 -0.308,0.51333 -0.61394,1.07668 -0.94727,1.66601 v 0.0254 h 3.07617 c 0.17867,-0.33333 0.35711,-0.63926 0.53711,-0.94726 0.18,-0.30667 0.33305,-0.59038 0.51172,-0.87305 l 1.20508,-1.99805 1.20508,2.10157 0.94922,1.74218 h 3.35742 c -0.33467,-0.588 -0.64318,-1.15274 -0.95118,-1.6914 -0.30666,-0.53867 -0.61325,-1.07462 -0.91992,-1.61328 -0.28266,-0.53867 -0.61588,-1.07663 -0.94922,-1.64063 -0.33333,-0.53867 -0.64121,-1.07779 -0.94921,-1.56445 0.308,-0.43467 0.61582,-0.92154 0.92382,-1.40821 0.308,-0.48666 0.61382,-0.9756 0.89649,-1.46093 0.30666,-0.51334 0.58976,-0.99967 0.87109,-1.48633 0.28267,-0.46134 0.56443,-0.97433 0.8711,-1.48633 h -3.15039 c -0.128,0.256 -0.25739,0.48613 -0.38672,0.7168 -0.128,0.23066 -0.25482,0.46068 -0.38282,0.66601 -0.18,0.308 -0.41129,0.64012 -0.64062,1.05078 -0.23067,0.384 -0.43529,0.74412 -0.64063,1.05079 -0.20533,-0.332 -0.41185,-0.69212 -0.61718,-1.05079 -0.17867,-0.38533 -0.35839,-0.71733 -0.51172,-1 l -0.74219,-1.46099 z m -33.39452,0.0273 v 8.30273 c 0,0.64134 0.0771,1.23087 0.20507,1.76954 0.128,0.53733 0.3593,0.9728 0.64063,1.35546 0.28267,0.38534 0.66757,0.66772 1.12891,0.87305 0.46133,0.20533 1.02474,0.3086 1.6914,0.3086 0.384,0 0.74216,-0.0523 1.04883,-0.18165 0.308,-0.10133 0.5916,-0.25554 0.82227,-0.43554 0.23066,-0.15334 0.43461,-0.35779 0.61328,-0.56446 0.17866,-0.204 0.3095,-0.40789 0.4375,-0.58789 v 1.48828 h 2.86914 V 13.22462 H 88.0586 v 8.58398 c -0.256,0.48667 -0.5377,0.89836 -0.8457,1.17969 -0.308,0.28267 -0.69101,0.43555 -1.15234,0.43555 -0.53867,0 -0.92363,-0.17972 -1.1543,-0.51172 -0.23067,-0.33467 -0.35938,-0.82094 -0.35938,-1.46094 v -8.22656 z m 68.14647,1.7168 c 1.05067,0 1.58996,0.92097 1.64063,2.79297 h -3.51172 c 0.0507,-0.97467 0.25517,-1.69229 0.58984,-2.12696 0.332,-0.436 0.76792,-0.66601 1.28125,-0.66601 z m -18.27344,0.23047 c 0.64134,0 1.17918,0.33265 1.58985,0.97265 0.436,0.64134 0.63867,1.71779 0.63867,3.20313 0,1.41066 -0.20267,2.46351 -0.63867,3.10351 -0.41067,0.64 -0.92434,0.97266 -1.51367,0.97266 -0.43467,0 -0.79357,-0.10338 -1.10157,-0.35938 -0.308,-0.256 -0.56213,-0.51024 -0.71679,-0.76757 v -6.09961 c 0.15466,-0.20534 0.38273,-0.43535 0.66406,-0.66602 0.28267,-0.23067 0.64212,-0.35937 1.07812,-0.35937 z M 95.00391,28.25587 v 16.88086 h 2.04297 V 28.25587 Z M 74.2422,28.54689 c -0.47334,1.42 -0.93844,2.83046 -1.39844,4.23046 -0.45867,1.4 -0.91891,2.81791 -1.37891,4.25391 -0.42933,1.34667 -0.84219,2.69497 -1.24218,4.04297 -0.4,1.34667 -0.80799,2.69983 -1.22266,4.0625 h 2.15625 c 0.23733,-0.79867 0.46988,-1.58418 0.69922,-2.35352 0.22933,-0.77066 0.46322,-1.53111 0.69922,-2.28711 h 5.79687 c 0.23733,0.74 0.47494,1.50683 0.71094,2.29883 0.23733,0.792 0.48104,1.57247 0.73437,2.3418 h 2.375 l -2.50976,-8.12891 c -0.444,-1.42133 -0.89175,-2.83418 -1.34375,-4.24218 -0.45067,-1.40667 -0.91534,-2.81342 -1.38867,-4.21875 z m 10.27148,0.0215 c -0.32533,0 -0.60837,0.13372 -0.8457,0.40039 -0.23734,0.26667 -0.35547,0.56882 -0.35547,0.91016 0,0.37066 0.11813,0.68469 0.35547,0.94336 0.23733,0.25866 0.52037,0.38867 0.8457,0.38867 0.34133,0 0.6279,-0.13001 0.86523,-0.38867 0.23734,-0.25867 0.35547,-0.5727 0.35547,-0.94336 0,-0.34134 -0.11813,-0.64349 -0.35547,-0.91016 -0.23733,-0.26667 -0.5239,-0.40039 -0.86523,-0.40039 z m 15.93358,0 c -0.32533,0 -0.60774,0.13372 -0.84374,0.40039 -0.23733,0.26667 -0.35546,0.56882 -0.35546,0.91016 0,0.37066 0.11813,0.68469 0.35546,0.94336 0.236,0.25866 0.51841,0.38867 0.84374,0.38867 0.34,0 0.62791,-0.13001 0.86524,-0.38867 0.23733,-0.25867 0.35547,-0.5727 0.35547,-0.94336 0,-0.34134 -0.11814,-0.64349 -0.35547,-0.91016 -0.23733,-0.26667 -0.52524,-0.40039 -0.86524,-0.40039 z m -24.93944,2.59766 c 0.32533,0.96266 0.63254,1.92228 0.92188,2.87695 0.288,0.956 0.58972,1.92987 0.90039,2.92187 0.0893,0.26667 0.17319,0.53722 0.25586,0.81055 0.08,0.27467 0.16457,0.55752 0.2539,0.85352 h -4.73047 c 0.0907,-0.26534 0.18135,-0.53898 0.27735,-0.82032 0.096,-0.28133 0.18801,-0.57118 0.27734,-0.86718 z m 33.5664,1.77734 c -0.38534,0 -0.74108,0.0536 -1.06641,0.15625 -0.32533,0.104 -0.622,0.23577 -0.88867,0.39844 -0.26667,0.164 -0.50799,0.34864 -0.72266,0.55664 -0.21466,0.208 -0.4024,0.41443 -0.5664,0.62109 v -1.44336 h -2.04297 v 11.9043 h 2.04297 v -8.17188 c 0.29733,-0.66666 0.67414,-1.21147 1.13281,-1.63281 0.46,-0.42266 1.02412,-0.63281 1.68945,-0.63281 0.57734,0 1.0319,0.19084 1.36524,0.57617 0.33333,0.384 0.5,0.94945 0.5,1.68945 v 8.17188 h 2.08789 v -8.34961 c 0,-1.15467 -0.2879,-2.0864 -0.86524,-2.78906 -0.57733,-0.704 -1.46735,-1.05469 -2.66601,-1.05469 z m 9.8457,0 c -0.74133,0 -1.39108,0.14559 -1.95508,0.43359 -0.56133,0.28934 -1.03654,0.70281 -1.42187,1.24414 -0.384,0.54 -0.67634,1.19551 -0.875,1.96485 -0.2,0.77066 -0.30274,1.64376 -0.30274,2.62109 0,0.93334 0.12824,1.77721 0.37891,2.5332 0.252,0.75467 0.60269,1.40513 1.05469,1.95313 0.45066,0.548 0.99176,0.97158 1.62109,1.26758 0.62933,0.296 1.33028,0.44336 2.09961,0.44336 0.91867,0 1.66309,-0.11814 2.23242,-0.35547 0.57067,-0.236 1.0239,-0.48919 1.36524,-0.75586 l -0.19922,-1.84375 c -0.38534,0.32667 -0.81945,0.60465 -1.30078,0.83398 -0.48,0.23067 -1.06086,0.34375 -1.74219,0.34375 -0.48933,0 -0.93203,-0.11069 -1.33203,-0.33203 -0.39867,-0.22133 -0.7483,-0.52305 -1.04297,-0.90039 -0.29733,-0.37866 -0.52679,-0.82508 -0.68945,-1.34375 -0.164,-0.51733 -0.25292,-1.06524 -0.26758,-1.64258 h 6.55273 c 0.0147,-0.11866 0.0296,-0.29649 0.043,-0.53515 0.016,-0.236 0.0234,-0.41259 0.0234,-0.53125 0,-0.784 -0.0778,-1.50797 -0.23242,-2.16797 -0.156,-0.65867 -0.40786,-1.22765 -0.75586,-1.70899 -0.348,-0.48133 -0.78832,-0.85442 -1.32032,-1.12109 -0.53333,-0.26667 -1.17892,-0.40039 -1.93359,-0.40039 z m 9.49219,0 c -0.59334,0 -1.12256,0.0865 -1.58789,0.25586 -0.46667,0.17067 -0.86412,0.40694 -1.18946,0.71094 -0.32666,0.304 -0.57719,0.65974 -0.75586,1.0664 -0.17866,0.40667 -0.26562,0.84016 -0.26562,1.29883 0,0.756 0.16428,1.37042 0.48828,1.84375 0.32667,0.47467 0.79177,0.8807 1.39844,1.2207 0.296,0.164 0.62623,0.33067 0.99023,0.5 0.36134,0.17067 0.69777,0.33734 1.00977,0.5 0.47333,0.236 0.808,0.50107 1,0.78907 0.192,0.28933 0.28711,0.61213 0.28711,0.96679 0,0.47334 -0.1803,0.8614 -0.54297,1.16407 -0.36267,0.30533 -0.84841,0.45703 -1.45508,0.45703 -0.31067,0 -0.62469,-0.0386 -0.94336,-0.11328 -0.31866,-0.072 -0.62277,-0.16473 -0.91211,-0.27539 -0.28933,-0.11067 -0.54977,-0.23386 -0.78711,-0.36719 -0.23733,-0.13334 -0.43694,-0.26024 -0.59961,-0.37891 l -0.20117,1.9336 c 0.38534,0.22133 0.88162,0.42599 1.48828,0.61132 0.608,0.18534 1.28149,0.27735 2.02149,0.27735 0.608,0 1.16335,-0.0889 1.66601,-0.26758 0.504,-0.17733 0.9344,-0.4198 1.28907,-0.73047 0.35466,-0.312 0.62831,-0.69077 0.82031,-1.13476 0.192,-0.444 0.28906,-0.93347 0.28906,-1.4668 0,-0.84267 -0.24132,-1.52979 -0.72266,-2.06446 -0.48,-0.53333 -1.11992,-0.98613 -1.91992,-1.35546 -0.504,-0.23734 -0.92119,-0.43871 -1.25586,-0.60938 -0.332,-0.17067 -0.59511,-0.336 -0.78711,-0.5 -0.19333,-0.16267 -0.32882,-0.3412 -0.41015,-0.5332 -0.0827,-0.192 -0.12305,-0.42279 -0.12305,-0.68946 0,-0.42933 0.15241,-0.78445 0.45508,-1.06445 0.304,-0.28133 0.75857,-0.42383 1.36523,-0.42383 0.57734,0 1.09231,0.0971 1.54297,0.28907 0.45334,0.19333 0.84812,0.42827 1.18945,0.71093 l 0.31055,-1.79882 c -0.296,-0.17867 -0.70709,-0.35959 -1.23242,-0.54493 -0.52667,-0.18533 -1.16526,-0.27734 -1.91992,-0.27734 z M 93.1172,33.07816 c -0.696,0 -1.30298,0.16914 -1.82032,0.50781 -0.51866,0.34133 -0.97828,0.847 -1.37695,1.51367 l -0.0234,-1.86719 h -2.04297 v 11.9043 h 2.04297 v -7.72852 c 0.31067,-0.79866 0.72371,-1.41813 1.23438,-1.85547 0.51066,-0.43733 1.09834,-0.65429 1.76367,-0.65429 0.28133,0 0.52771,0.0211 0.73437,0.0664 l 0.19922,-1.82031 c -0.0733,-0.0293 -0.16667,-0.0486 -0.27734,-0.0566 -0.11067,-0.007 -0.25493,-0.01 -0.43359,-0.01 z m -9.625,0.15429 v 11.9043 h 2.04297 v -11.9043 z m 15.93359,0 v 11.9043 h 2.04491 v -11.9043 z m 19.49413,1.28907 c 0.71067,0 1.23617,0.2879 1.57617,0.86523 0.34,0.57867 0.51172,1.39951 0.51172,2.46484 h -4.44336 c 0.0453,-1.06533 0.27169,-1.88617 0.67969,-2.46484 0.40667,-0.57733 0.96378,-0.86523 1.67578,-0.86523 z" style="fill:#00458f;fill-opacity:1;fill-rule:nonzero;stroke:none;stroke-width:1.33333325"/>
  <path id="path96" d="m 24.35938,0 c -0.596,0.0387 -1.19205,0.11922 -1.74805,0.19922 -0.31866,0.0387 -0.51562,0.27775 -0.51562,0.59375 v 9.02344 l 0.0391,0.39648 L 21.9766,9.85547 17.48637,2.06641 C 17.3277,1.82774 17.00856,1.70813 16.72856,1.82813 16.17389,2.02679 15.6176,2.30564 15.1016,2.54297 c -0.16,0.08 -0.27835,0.20009 -0.31835,0.35742 -0.04,0.16 -0.0409,0.3179 0.0391,0.47656 l 7.70898,13.31446 c 0.04,0.08 0.12023,0.15828 0.24023,0.23828 0.15734,0.08 0.31892,0.11773 0.51758,0.0391 0.436,-0.15867 0.87322,-0.27742 1.31055,-0.35742 0.27867,-0.0387 0.47656,-0.31837 0.47656,-0.5957 V 0.63676 C 24.99755,0.39809 24.95797,0.23691 24.83797,0.15824 24.71797,0.03824 24.55812,4e-5 24.35946,4e-5 Z m 4.29297,0 c -0.15867,0 -0.31884,0.0395 -0.4375,0.1582 -0.12,0.11867 -0.19922,0.27884 -0.19922,0.4375 v 15.37891 c 0,0.12 0.0414,0.19836 0.0801,0.31836 0.08,0.15867 0.23844,0.23796 0.39844,0.2793 0.43733,0.0787 0.87321,0.19875 1.31055,0.35742 0.27866,0.08 0.55813,-0.0406 0.71679,-0.2793 L 38.2305,3.33789 c 0,-0.15733 0.04,-0.35696 0,-0.51562 C 38.1905,2.6636 38.06947,2.54422 37.91214,2.46289 37.3948,2.22556 36.83861,1.98671 36.28128,1.74805 36.00395,1.62938 35.68604,1.74766 35.52737,1.98633 l -4.48828,7.78906 -0.16016,0.35742 0.0391,-0.39648 V 0.79492 c 0,-0.31866 -0.23829,-0.55703 -0.51563,-0.5957 C 29.80507,0.11922 29.2084,0.04 28.6524,0 Z M 11.64454,4.48633 c -0.0795,0.0148 -0.16024,0.0427 -0.24024,0.082 C 10.9283,4.887 10.45195,5.24584 9.97461,5.6445 9.73595,5.84184 9.65641,6.15974 9.81641,6.39841 l 4.49023,7.78906 0.23829,0.31836 -0.31836,-0.23828 -7.82813,-4.49219 c -0.0597,-0.0397 -0.1277,-0.0631 -0.19726,-0.0742 -0.0689,-0.0109 -0.14021,-0.008 -0.21094,0.006 -0.1454,0.0292 -0.28648,0.10877 -0.38672,0.22852 -0.35867,0.47733 -0.71689,0.95297 -1.07422,1.43164 -0.08,0.15733 -0.11874,0.31461 -0.0801,0.47461 0.04,0.15866 0.16063,0.31977 0.2793,0.39843 l 13.3125,7.66993 c 0.08,0.0387 0.19969,0.0801 0.31836,0.0801 0.007,0 0.0129,-0.004 0.0195,-0.004 0.007,2.9e-4 0.0122,0.004 0.0195,0.004 0.16,0 0.3175,-0.0806 0.4375,-0.19921 0.31733,-0.35867 0.63579,-0.67446 0.95312,-0.95313 0.2,-0.19867 0.27976,-0.51719 0.1211,-0.75586 L 12.27922,4.76969 c -0.0787,-0.15866 -0.23649,-0.2393 -0.39649,-0.2793 -0.0793,-0.02 -0.15878,-0.0187 -0.23828,-0.004 z m 29.66016,0.0391 c -0.0845,-0.0148 -0.17458,-0.0141 -0.25391,0.006 -0.15867,0.04 -0.31648,0.15734 -0.39648,0.27734 l -7.70899,13.3125 c -0.04,0.08 -0.0801,0.19836 -0.0801,0.31836 0,0.15867 0.0786,0.31688 0.19727,0.43555 0.35867,0.27867 0.67641,0.63775 0.95508,0.95508 0.19733,0.19867 0.51719,0.27843 0.75586,0.12109 l 13.31054,-7.67187 c 0.23867,-0.11867 0.31938,-0.27884 0.35938,-0.4375 0.04,-0.15867 5.4e-4,-0.31657 -0.0781,-0.47657 -0.31866,-0.47599 -0.6775,-0.9543 -1.07617,-1.43164 -0.19733,-0.23866 -0.51524,-0.27625 -0.7539,-0.15625 l -7.82813,4.5293 -0.31836,0.23828 0.23828,-0.31836 4.49024,-7.78711 C 43.27587,6.20097 43.19631,5.84049 42.959,5.68182 42.48167,5.32449 42.00665,4.96689 41.52932,4.60956 c -0.06,-0.0393 -0.14011,-0.0692 -0.22461,-0.084 z M 3.09961,14.67973 c -0.0795,-0.005 -0.15894,0.003 -0.23828,0.0234 -0.15866,0.04 -0.27937,0.15969 -0.35937,0.31836 -0.23734,0.51733 -0.47618,1.0729 -0.71485,1.6289 -0.11866,0.27867 6.3e-4,0.59719 0.2793,0.75586 l 7.78906,4.49024 0.35742,0.16015 -0.39648,-0.041 H 0.79493 c -0.31867,0 -0.55766,0.19829 -0.59766,0.51562 -0.0787,0.59733 -0.1586,1.194 -0.19727,1.75 0,0.15867 0.0395,0.31883 0.15821,0.4375 0.11866,0.11867 0.27883,0.19922 0.4375,0.19922 h 15.3789 c 0.11867,0 0.20032,-0.0401 0.32032,-0.0801 0.15733,-0.0787 0.23672,-0.23844 0.27539,-0.39844 0.08,-0.43733 0.20071,-0.87321 0.35937,-1.31054 0.08,-0.27867 -6.3e-4,-0.55618 -0.2793,-0.71485 L 3.33789,14.74413 c -0.08,-0.04 -0.15878,-0.0595 -0.23828,-0.0645 z m 46.81446,0 c -0.0795,0.005 -0.16023,0.0245 -0.24023,0.0645 l -13.31055,7.66992 c -0.27867,0.15867 -0.3593,0.43618 -0.2793,0.71485 0.15867,0.43733 0.27938,0.87321 0.35938,1.31054 0.0387,0.16 0.11806,0.31977 0.27539,0.39844 0.12,0.04 0.19969,0.0801 0.31836,0.0801 h 15.38086 c 0.15866,0 0.31883,-0.0806 0.4375,-0.19922 0.11866,-0.11867 0.15625,-0.27883 0.15625,-0.4375 -0.0387,-0.556 -0.1186,-1.15267 -0.19727,-1.75 -0.04,-0.31733 -0.27703,-0.51562 -0.5957,-0.51562 h -9.02149 l -0.39648,0.041 0.35547,-0.16015 7.79101,-4.49024 c 0.27867,-0.15867 0.39601,-0.47719 0.27735,-0.75586 -0.23867,-0.556 -0.47751,-1.11157 -0.71485,-1.6289 -0.08,-0.15867 -0.19742,-0.27836 -0.35742,-0.31836 -0.0793,-0.02 -0.15878,-0.0284 -0.23828,-0.0234 z" style="fill:#00458f;fill-opacity:1;fill-rule:nonzero;stroke:none;stroke-width:1.33333325"/>
  <path d="m 33.34185,35.84595 c -9.10133,0.676 -21.69867,2.66266 -30.72,2.18533 0.95467,1.948 2.14667,3.736 3.53733,5.40533 0.79467,0.91334 1.62934,1.788 2.544,2.624 4.92667,4.37067 11.24534,6.79334 17.804,6.79334 6.596,0 12.91467,-2.38267 17.76267,-6.71467 2.02667,-1.78933 3.65733,-3.69733 4.92933,-5.80267 0.87334,-1.43066 1.58934,-2.94133 2.184,-4.56933 -3.89333,-0.756 -10.53066,-0.47733 -18.04133,0.0787" style="fill:#00458f;fill-opacity:1;fill-rule:nonzero;stroke:none;stroke-width:1.33333325" id="path100"/>
  <path id="path124" d="m 0.61524,28.2207 c -0.0993,0.015 -0.1995,0.0559 -0.29883,0.11524 -0.16,0.11866 -0.27828,0.31735 -0.23828,0.55469 0.04,0.27866 0.0414,0.59633 0.0801,0.875 0.0413,0.15866 0.0801,0.27648 0.35742,0.39648 0.516,0.19867 7.75037,2.6636 18.95703,2.82227 3.17867,0.0387 7.23225,-0.43713 9.65625,-0.95313 -1.272,0.19867 -3.97383,0.5957 -7.3125,0.5957 -6.43866,-0.04 -16.25301,-2.26442 -20.90234,-4.37109 -0.0993,-0.0393 -0.1995,-0.0502 -0.29883,-0.0352 z m 50.68946,0.0742 c -5.564,0 -9.81529,1.34998 -20.86329,3.69531 -15.61867,3.29867 -26.706,0.59757 -29.25,0.24024 -0.39733,-0.04 -0.63562,0.15735 -0.51562,0.55469 0.27866,1.272 1.23025,3.97441 1.90625,5.20507 9.06133,0.47734 21.6207,-1.50759 30.7207,-2.18359 7.512,-0.556 14.14635,-0.83435 18.04102,-0.041 0.636,-1.788 1.11329,-3.65631 1.39062,-5.68164 0.23867,-1.15467 0.11965,-1.78907 -1.42968,-1.78907 z" style="fill:#eb690b;fill-opacity:1;fill-rule:nonzero;stroke:none;stroke-width:1.33333325"/>
</svg>