<svg role="img" viewBox="0 0 24 24" xmlns="http://www.w3.org/2000/svg"><title>TAP Air Portugal</title><path fill="#ed1c24" d="m12.475 5.277 3.841 13.446V14.88h2.881a4.802 4.802 0 1 0 0-9.604Zm3.841 3.842h2.881a.96.96 0 1 1 0 1.92h-2.88z"/><path fill="#b82025" d="M12.475 5.277v13.446h3.841z"/><path id="path20" fill="#bfd730" d="M0 5.277V9.12h2.871v9.604L6.713 5.277H0zm9.594 0V9.12l1.008 3.361H8.584l1.01-3.36H6.713v9.603l.72-2.4h4.31v-.046l.732 2.446V5.277H9.594z"/><path fill="#72bf44" d="M6.713 5.277 2.87 18.723h3.842V9.119h2.88V5.277Z"/></svg>