<svg role="img" viewBox="0 0 24 24" xmlns="http://www.w3.org/2000/svg"><title>Thai Airways</title><path fill="#fc0" d="M23.453 14.796a5.799 5.799 0 0 0-.778-1.27 5.389 5.389 0 0 0-1.04-.98 4.781 4.781 0 0 0-.62-.378 6.827 6.827 0 0 0-.334-.166c.115-.056.23-.111.334-.167.214-.11.423-.235.62-.377a5.366 5.366 0 0 0 1.04-.983 5.76 5.76 0 0 0 .778-1.268c.212-.48.366-.989.454-1.52.06-.37.093-.732.093-1.082 0-.167-.006-.333-.02-.494a5.673 5.673 0 0 0-.28-1.322 6.022 6.022 0 0 0-.591-1.234A6.039 6.039 0 0 0 21.106 1.6a5.927 5.927 0 0 0-1.367-.594A6.391 6.391 0 0 0 18.168.76a6.036 6.036 0 0 0-1.538.147 5.401 5.401 0 0 0-1.365.518 5.053 5.053 0 0 0-1.133.835c-.334.33-.617.7-.827 1.102a4.328 4.328 0 0 0-.47 2.654 6.497 6.497 0 0 0-1.32-.618 6.237 6.237 0 0 0-1.786-.298 6.35 6.35 0 0 0-1.7.173 6.2 6.2 0 0 0-1.455.55 7.5 7.5 0 0 0-1.248.834 9.422 9.422 0 0 0-.775.71s-.373.369-.556.598c-.215.245-.435.509-.662.802l-.477.625c-.145.18-.284.348-.42.509-.204.233-.416.46-.633.677a8.31 8.31 0 0 1-1.216 1.007c-.09.06-.185.121-.28.177-.062.037-.13.066-.194.102-.05.028-.113.073-.113.14 0 .066.062.11.113.14.066.034.132.066.194.101.095.057.19.113.28.173.438.294.84.639 1.216 1.008.218.217.429.445.633.677.136.161.275.328.42.51 0 0 .477.624.477.626.227.295.447.558.662.798.183.235.556.605.556.605.259.26.514.494.775.705a7.33 7.33 0 0 0 1.248.834c.466.246.955.433 1.456.553a6.619 6.619 0 0 0 1.699.17 6.238 6.238 0 0 0 1.787-.298 6.48 6.48 0 0 0 1.318-.615c-.029.2-.043.398-.043.595a4.286 4.286 0 0 0 .514 2.054c.212.403.493.774.827 1.103.332.326.71.605 1.133.831.42.232.88.406 1.365.52a6.087 6.087 0 0 0 1.538.148 6.277 6.277 0 0 0 1.571-.247 5.9 5.9 0 0 0 2.496-1.466 5.918 5.918 0 0 0 1.465-2.322c.144-.43.242-.872.28-1.317a5.77 5.77 0 0 0 .02-.492 6.83 6.83 0 0 0-.093-1.085 6.419 6.419 0 0 0-.454-1.519z" style="display:inline;stroke-width:.6"/><path fill="#306" d="M22.146 15.304a4.416 4.416 0 0 0-.73-1.125 4.397 4.397 0 0 0-1.015-.853 4.816 4.816 0 0 0-1.231-.544 5.077 5.077 0 0 0-1.377-.189c-.495 0-.997.048-1.48.164a5.48 5.48 0 0 0-1.164.42 7.188 7.188 0 0 0-.944.578c-.285.2-.55.414-.822.626a9.494 9.494 0 0 1-.79.578 3.91 3.91 0 0 1-.862.424 3.244 3.244 0 0 1-1.023.17 3.506 3.506 0 0 1-2.521-1.058 3.545 3.545 0 0 1-.751-1.15 3.69 3.69 0 0 1-.246-1.344c0-.46.079-.916.246-1.343a3.5 3.5 0 0 1 .75-1.149 3.46 3.46 0 0 1 1.132-.777 3.513 3.513 0 0 1 1.39-.28c.347 0 .696.054 1.023.163.306.105.59.252.861.426.274.175.534.374.791.577.273.21.537.425.822.628.298.213.611.41.944.575.369.184.758.326 1.164.421.484.116.985.163 1.48.163.468 0 .932-.061 1.377-.19.432-.12.85-.305 1.231-.542.382-.23.72-.52 1.016-.852.299-.335.544-.715.729-1.125.195-.428.318-.888.375-1.355a5.032 5.032 0 0 0-.05-1.506A4.62 4.62 0 0 0 22 4.5a4.63 4.63 0 0 0-.819-1.085 4.672 4.672 0 0 0-3.762-1.296c-.46.054-.91.187-1.322.396a3.788 3.788 0 0 0-1.759 1.877 3.869 3.869 0 0 0-.304 1.283c-.026.466.033.931.17 1.375.014.06.036.12.053.176a.987.987 0 0 1 .033.085c.012.027.022.065.038.09.013.017.033.04.056.036.024-.003.037-.033.043-.059.01-.062.01-.127.017-.191a2.32 2.32 0 0 1 .181-.689c.165-.398.446-.745.807-.983a2.53 2.53 0 0 1 1.241-.402c.468-.027.949.051 1.37.268.375.195.69.5.899.871.218.387.314.835.31 1.275 0 .456-.13.904-.369 1.29a2.382 2.382 0 0 1-2.301 1.14 2.67 2.67 0 0 1-.9-.254 4.844 4.844 0 0 1-.825-.515c-.278-.21-.541-.439-.806-.663-.284-.241-.563-.478-.856-.707a7.576 7.576 0 0 0-.968-.641 5.481 5.481 0 0 0-1.141-.472 5.572 5.572 0 0 0-1.385-.195 6.037 6.037 0 0 0-1.415.147 5 5 0 0 0-1.144.423c-.34.18-.65.393-.94.637a7.807 7.807 0 0 0-.79.784c-.246.275-.48.566-.705.857-.23.289-.454.583-.687.868-.228.282-.47.553-.727.81-.253.253-.53.488-.826.688-.063.04-.123.079-.187.115-.045.026-.09.049-.132.071-.035.02-.078.049-.078.094s.043.074.078.093c.042.024.087.044.132.07.065.038.126.078.187.118.296.197.573.432.826.684.257.256.499.528.727.81.233.287.458.579.687.867.225.293.46.582.705.86.246.275.505.541.79.782.29.242.6.46.94.634.361.189.746.334 1.144.424.464.11.94.153 1.415.148a5.29 5.29 0 0 0 1.385-.195c.398-.11.781-.27 1.141-.473.341-.185.663-.406.968-.64.293-.226.572-.467.856-.707.265-.225.53-.452.806-.665.259-.191.529-.372.826-.51.28-.136.584-.228.899-.258a2.48 2.48 0 0 1 1.312.232c.407.197.752.519.99.907.237.386.366.835.367 1.292.005.442-.092.886-.31 1.272a2.225 2.225 0 0 1-.897.875 2.67 2.67 0 0 1-1.37.265 2.543 2.543 0 0 1-1.242-.398 2.192 2.192 0 0 1-.807-.987 2.324 2.324 0 0 1-.181-.686c-.005-.068-.005-.133-.017-.198-.006-.023-.019-.052-.043-.057-.023-.001-.043.02-.056.037-.015.028-.026.062-.038.092-.01.026-.02.055-.033.083-.017.06-.039.115-.053.176a3.92 3.92 0 0 0-.17 1.377 3.81 3.81 0 0 0 1.012 2.365c.303.322.657.591 1.051.792.411.21.863.34 1.322.398.47.054.946.029 1.403-.065a4.625 4.625 0 0 0 3.178-2.32c.225-.414.38-.867.47-1.333a4.998 4.998 0 0 0 .05-1.505 4.663 4.663 0 0 0-.375-1.357z" style="stroke-width:.6"/><path fill="#c09" d="M15.46 12.001c0-.016-.013-.032-.03-.038-.558-.134-1.056-.445-1.511-.777-.491-.35-.949-.74-1.444-1.078-.493-.335-1.043-.623-1.648-.662a2.512 2.512 0 0 0-1.372.31c-.39.214-.709.53-.931.915-.228.4-.341.86-.345 1.321 0 .003.004.005.004.01 0 .002-.004.003-.004.008.004.46.116.92.345 1.325.223.382.542.7.93.912.414.23.9.336 1.373.308.605-.037 1.155-.327 1.648-.662.496-.337.953-.729 1.443-1.079.456-.33.954-.638 1.512-.775.015-.006.03-.019.03-.04z" style="stroke-width:.6"/></svg>