<svg role="img" viewBox="0 0 24 24" xmlns="http://www.w3.org/2000/svg"><title>Turkish Airlines</title><path fill="#ffffff" d="M13.255.067C19.29.695 23.998 5.796 24 11.997c0 6.627-5.369 12-11.996 12.003C5.376 24 .002 18.631 0 12.004 0 5.376 5.369.002 11.996 0c.425 0 .844.022 1.259.067zm.618 23.094c6.165-1.035 10.32-6.87 9.286-13.036-.862-5.13-5.044-8.869-9.976-9.385a11.352 11.352 0 0 0-6.481 1.256c5.433 1.844 8.355 4.644 8.558 7.513.1 1.772-.724 3.053-1.807 4.098l7.683-.536c.218-.015.285.238.022.313L2.832 18.639a11.337 11.337 0 0 0 7.98 4.614c.996.104 2.023.077 3.06-.097zm-5.041-10.9C9.837 8.488 8.69 4.528 5.947 2.43 2.212 4.793.057 9.241.837 13.873a11.232 11.232 0 0 0 1.593 4.172c2.922-.814 5.488-2.353 6.402-5.783z"/><path fill="#c90019" d="M23.159 10.125c1.037 6.163-3.12 12.001-9.286 13.036a11.352 11.352 0 0 1-3.06.097 11.342 11.342 0 0 1-7.98-4.615l18.325-5.254c.263-.075.196-.328-.022-.313l-7.683.536c1.083-1.045 1.907-2.326 1.807-4.098-.2-2.87-3.125-5.672-8.558-7.513a11.352 11.352 0 0 1 6.48-1.256c4.933.516 9.115 4.254 9.977 9.385zM.836 13.875a11.232 11.232 0 0 0 1.594 4.173c2.922-.814 5.488-2.353 6.402-5.784C9.837 8.49 8.69 4.53 5.947 2.433 2.212 4.796.057 9.243.837 13.875Z"/></svg>