<svg role="img" viewBox="0 0 24 24" xmlns="http://www.w3.org/2000/svg" fill="#00d66c"><title>Transavia</title><path d="M11.998 0C5.313 0 .023 5.319.023 12.004.023 18.688 5.316 24 12 24c6.685.002 11.975-5.312 11.975-11.996v-.002C23.975 5.317 18.683 0 11.998 0ZM10.99 4.354h.483c.672 0 1.058.386 1.058 1.058v2.166h1.992c.675 0 1.059.384 1.059 1.059v.312c0 .672-.384 1.057-1.059 1.057H10.99c-.198 0-.371-.034-.515-.1.037.121.058.258.058.412v3.844c0 1.637.986 2.768 2.524 2.768 1.323 0 2.332-.865 2.502-2.14.097-.698.385-1.056 1.058-1.056h.672v-.002c.602 0 1.06.36.965 1.057-.36 2.788-2.285 4.64-5.195 4.64-3.127 0-5.122-2.165-5.122-5.267V11.69H5.941c-.672 0-1.058-.385-1.058-1.058v-.313c0-.672.386-1.058 1.058-1.058h3.534c.177-.004.353.03.517.097a1.292 1.292 0 0 1-.06-.41V5.412c0-.671.386-1.058 1.058-1.058z"/></svg>