<svg role="img" viewBox="0 0 24 24" xmlns="http://www.w3.org/2000/svg" fill="#fdb515"><title>Myanmar National Airlines</title><path d="m10.61 9.96.022.039a.214.214 0 0 1 .029.137.121.121 0 0 1-.057.091.135.135 0 0 1-.133-.012L6.793 6.451a.623.623 0 0 1-.183-.453c.018-.19.167-.382.444-.572a.843.843 0 0 1 .597-.202c.161.036.287.202.436.465zm-6.19.283a.518.518 0 0 0-.31.087c-.155.111-.248.336-.272.67a.837.837 0 0 0 .117.62c.113.123.322.148.62.148l5.028.046a.162.162 0 0 0 .166-.135.137.137 0 0 0-.093-.12l-5.088-1.298a.98.98 0 0 0-.168-.018zm.425 5.458a.332.332 0 0 0 .097.015 1.187 1.187 0 0 0 .513-.203l4.379-2.476a.162.162 0 0 0 .075-.202.131.131 0 0 0-.118-.057h-.024l-5.054 1.415a.62.62 0 0 0-.38.302c-.079.173-.046.414.1.715.145.301.268.44.412.487zM4.11 13.68a.629.629 0 0 0 .477.059l5.098-1.304a.133.133 0 0 0 .077-.112c0-.074-.083-.137-.182-.137h-.046l-4.963.044c-.3 0-.508.025-.62.148a.833.833 0 0 0-.118.62c.028.334.121.56.277.67zm5.693-8.97a.625.625 0 0 0-.302-.382.505.505 0 0 0-.202-.04 1.213 1.213 0 0 0-.507.14c-.273.13-.435.268-.48.404-.044.135.035.351.185.606l2.468 4.39a.164.164 0 0 0 .202.076.14.14 0 0 0 .055-.14zM5.455 8.487c-.218-.126-.445-.235-.606-.182-.162.052-.283.202-.405.477-.12.275-.177.543-.099.715a.623.623 0 0 0 .384.304l5.066 1.415a.131.131 0 0 0 .118-.057.12.12 0 0 0 0-.105.214.214 0 0 0-.093-.105l-.04-.022zm5.77 5.737a.135.135 0 0 0-.059-.122.17.17 0 0 0-.202.091l-.024.04-2.448 4.317c-.15.259-.233.453-.184.606.048.154.202.283.479.405a1.223 1.223 0 0 0 .507.14.507.507 0 0 0 .202-.041.627.627 0 0 0 .304-.384zm8.947-3.22c-.026-.334-.117-.559-.273-.67a.63.63 0 0 0-.485-.07l-5.096 1.301a.131.131 0 0 0-.075.112c0 .074.08.137.182.137h.048l4.961-.044c.3 0 .508-.025.62-.148a.835.835 0 0 0 .118-.62zm-1.617 4.512a1.177 1.177 0 0 0 .513.202.34.34 0 0 0 .097-.014c.144-.045.281-.203.405-.478.123-.275.178-.541.099-.717a.623.623 0 0 0-.384-.301l-5.066-1.416a.133.133 0 0 0-.124.057.168.168 0 0 0 .091.202l.04.024zm-6.55-5.378A1.86 1.86 0 1 0 13.865 12a1.862 1.862 0 0 0-1.86-1.862zM6.61 18.002c.018.19.167.382.444.572a.843.843 0 0 0 .597.202c.161-.036.287-.202.436-.465l2.566-4.328a.16.16 0 0 0-.035-.202.101.101 0 0 0-.052-.014.166.166 0 0 0-.097.034l-3.678 3.75a.62.62 0 0 0-.181.451Zm6.173-8.226a.133.133 0 0 0 .057.122.17.17 0 0 0 .202-.091l.037-.03 2.44-4.327c.15-.259.232-.453.183-.606-.048-.154-.202-.283-.477-.405-.275-.12-.543-.178-.715-.099a.625.625 0 0 0-.303.384zm7.775 10.785v-.02a9.94 9.94 0 0 0 .358-1.128 2.092 2.092 0 0 1-1.338.172c.1.364.044.809-.172 1.338a10.251 10.251 0 0 0 1.128-.356Zm-11.32 1.804c-.265.27-.684.444-1.246.52a9.962 9.962 0 0 0 .874.808l.016.012h.02a10.223 10.223 0 0 0 1.144-.267c-.45-.348-.726-.708-.808-1.073Zm-6.304-3.556c.809.404 1.393.473 1.678.202l1.213-1.183a1.4 1.4 0 0 1-.776-.618c-.259-.358-.344-.68-.28-.965a.68.68 0 0 1 .025-.089l-.089-.022c-.277-.085-.503-.321-.693-.722a1.397 1.397 0 0 1-.148-.98l-1.63.457c-.476.143-.618.932-.66 1.558a9.606 9.606 0 0 0 .036 1.529v.02l.126.09a9.429 9.429 0 0 0 1.198.723zm11.446 3.097-.418-1.64a1.389 1.389 0 0 1-.924.362c-.443.034-.758-.042-.97-.24a.809.809 0 0 1-.063-.067.647.647 0 0 1-.063.066c-.202.203-.527.275-.972.241a1.39 1.39 0 0 1-.924-.36l-.418 1.638c-.114.48.495 1.01 1.023 1.356l.1.067a9.736 9.736 0 0 0 1.113.606l.141.065.049-.022a9.606 9.606 0 0 0 1.31-.718c.523-.344 1.13-.871 1.016-1.354zm4.785-13.601a.315.315 0 0 0-.097-.015 1.18 1.18 0 0 0-.513.203l-4.379 2.47a.16.16 0 0 0-.075.202.137.137 0 0 0 .142.057l5.054-1.415a.619.619 0 0 0 .38-.302c.079-.173.046-.414-.1-.715-.145-.301-.268-.443-.412-.485Zm-3.14 14.58a2.086 2.086 0 0 1-1.244-.52c-.095.365-.37.725-.82 1.071a10.146 10.146 0 0 0 1.155.255h.02l.017-.012a9.976 9.976 0 0 0 .873-.795zM7.983 1.114c.562.076.98.25 1.245.52.093-.365.368-.725.81-1.071A10.108 10.108 0 0 0 8.881.309h-.02l-.017.014a10.033 10.033 0 0 0-.863.793Zm8.978.438c-.174 0-.342 0-.5.016-.632.04-1.415.19-1.56.663l-.457 1.63a1.399 1.399 0 0 1 .98.147c.405.192.635.418.72.693a.633.633 0 0 1 .022.09.722.722 0 0 1 .09-.027.794.794 0 0 1 .177-.02 1.415 1.415 0 0 1 .783.297 1.395 1.395 0 0 1 .618.774l1.183-1.213c.337-.36.077-1.112-.202-1.678a9.633 9.633 0 0 0-.797-1.306l-.012-.016h-.053a9.7 9.7 0 0 0-.992-.05Zm-2.177.08c.265-.27.683-.444 1.245-.52a10.33 10.33 0 0 0-.873-.808l-.017-.012h-.02a10.14 10.14 0 0 0-1.154.255c.449.36.732.722.819 1.087zM3.442 3.44v.02a10.118 10.118 0 0 0-.358 1.128c.523-.216.974-.275 1.338-.174-.1-.364-.042-.809.174-1.338a10.055 10.055 0 0 0-1.128.356Zm10.763 15.85a.62.62 0 0 0 .303.393.503.503 0 0 0 .202.04 1.223 1.223 0 0 0 .51-.14c.272-.13.432-.268.476-.403.045-.136-.034-.352-.184-.607l-2.47-4.4a.186.186 0 0 0-.145-.088.105.105 0 0 0-.053.014.137.137 0 0 0-.057.142zM9.628 2.095l.418 1.638a1.395 1.395 0 0 1 .922-.362c.445-.034.76.044.972.24a.833.833 0 0 1 .063.067l.063-.066c.212-.203.527-.275.97-.241a1.397 1.397 0 0 1 .924.362l.42-1.638c.114-.48-.493-1.01-1.014-1.354a9.321 9.321 0 0 0-1.213-.675L12.01 0l-.048.022a9.704 9.704 0 0 0-1.31.716c-.534.346-1.139.873-1.025 1.356Zm14.06 13.058.012-.017v-.02a10.027 10.027 0 0 0-.255-1.154c-.346.449-.705.724-1.071.809.27.264.444.683.52 1.245a10.04 10.04 0 0 0 .794-.865ZM7.554 1.569c-.158 0-.33-.016-.506-.016a10.023 10.023 0 0 0-1.025.052h-.02l-.03.043a9.625 9.625 0 0 0-.779 1.28c-.279.567-.541 1.32-.202 1.68L6.175 5.82a1.393 1.393 0 0 1 .618-.774c.366-.25.68-.342.963-.277a.722.722 0 0 1 .089.026.63.63 0 0 1 .022-.089c.085-.275.321-.501.72-.693a1.395 1.395 0 0 1 .98-.148l-.457-1.63c-.143-.474-.926-.624-1.556-.666ZM23.994 12v-.018a9.582 9.582 0 0 0-.73-1.343c-.504-.752-.971-1.105-1.351-1.01l-1.64.418a1.393 1.393 0 0 1 .362.924c.034.443-.044.76-.24.97a.7.7 0 0 1-.067.063.695.695 0 0 1 .067.065c.202.202.274.53.24.97a1.393 1.393 0 0 1-.362.922l1.64.418a.548.548 0 0 0 .119.015c.356 0 .78-.356 1.233-1.03a9.544 9.544 0 0 0 .7-1.271zM1.615 6v.02a9.52 9.52 0 0 0-.04 1.533c.042.63.19 1.415.663 1.556l1.63.457a1.399 1.399 0 0 1 .147-.98c.192-.405.418-.635.693-.722l.09-.022a.78.78 0 0 1-.027-.087c-.065-.281.026-.597.277-.96a1.393 1.393 0 0 1 .776-.62L4.61 4.994c-.285-.267-.867-.202-1.68.202a9.572 9.572 0 0 0-1.306.797zm20.782 0-.016-.012-.063-.053a9.566 9.566 0 0 0-1.241-.752c-.809-.404-1.393-.473-1.68-.202l-1.213 1.183a1.39 1.39 0 0 1 .776.618c.253.366.344.688.281.973a.667.667 0 0 1-.026.087l.089.022c.277.085.503.321.693.722a1.395 1.395 0 0 1 .148.98l1.627-.46c.473-.144.62-.925.663-1.555a9.558 9.558 0 0 0-.038-1.529Zm.493 1.977a2.084 2.084 0 0 1-.511 1.245c.366.095.725.37 1.071.809a9.906 9.906 0 0 0 .255-1.154v-.02l-.012-.017a9.938 9.938 0 0 0-.803-.86ZM.322 8.85l-.012.017v.02a9.906 9.906 0 0 0 .255 1.156c.346-.449.706-.724 1.071-.819-.266-.256-.44-.685-.515-1.247a10.168 10.168 0 0 0-.799.873ZM20.558 3.44h-.018a10.14 10.14 0 0 0-1.128-.356c.216.523.275.972.172 1.336a1.415 1.415 0 0 1 .374-.048 2.573 2.573 0 0 1 .964.222 9.99 9.99 0 0 0-.356-1.128zm1.83 14.555v-.02a9.617 9.617 0 0 0 .038-1.52c-.042-.635-.19-1.416-.663-1.563l-1.609-.453a1.4 1.4 0 0 1-.148.98c-.192.405-.418.635-.693.72a.685.685 0 0 1-.089.022.724.724 0 0 1 .026.09c.063.28-.026.596-.277.962a1.395 1.395 0 0 1-.776.618l1.213 1.183c.285.267.87.202 1.684-.202a9.55 9.55 0 0 0 1.284-.799zm-5.931 4.437c.157.01.327.016.503.016a9.989 9.989 0 0 0 1.023-.052h.02l.01-.016.047-.063a9.756 9.756 0 0 0 .75-1.24c.28-.567.543-1.321.202-1.681l-1.183-1.213a1.399 1.399 0 0 1-.618.776c-.366.25-.68.342-.963.277a.687.687 0 0 1-.089-.026.809.809 0 0 1-.022.089c-.085.277-.321.503-.722.693a1.395 1.395 0 0 1-.98.148l.463 1.63c.145.472.928.622 1.559.662zm3.436-8.761c.154-.111.247-.338.273-.67.022-.3-.016-.509-.12-.62-.102-.111-.32-.148-.62-.148l-5.03-.044a.16.16 0 0 0-.163.135.14.14 0 0 0 .093.12l5.092 1.296a.64.64 0 0 0 .481-.071zM3.442 20.56h.018a10.441 10.441 0 0 0 1.128.364c-.216-.523-.275-.972-.174-1.338-.364.101-.809.042-1.338-.174a10.09 10.09 0 0 0 .356 1.128zm-2.321-4.54c.075-.562.249-.98.52-1.245-.366-.095-.726-.37-1.072-.809a9.93 9.93 0 0 0-.257 1.146v.02l.012.017a10.073 10.073 0 0 0 .797.87zm4.852 6.311.042.057h.02a10 10 0 0 0 1.025.052c.174 0 .342 0 .498-.016.634-.04 1.415-.19 1.562-.663l.457-1.63a1.395 1.395 0 0 1-.98-.147c-.405-.192-.635-.418-.72-.693a.629.629 0 0 1-.022-.09.704.704 0 0 1-.09.027c-.28.065-.594-.026-.961-.277a1.395 1.395 0 0 1-.619-.776l-1.183 1.213c-.337.36-.074 1.112.203 1.678a9.54 9.54 0 0 0 .758 1.267zm6.353-12.568a.137.137 0 0 0 .12-.093l1.3-5.084a.62.62 0 0 0-.071-.481c-.111-.156-.336-.247-.67-.273h-.155a.683.683 0 0 0-.463.125c-.123.113-.147.322-.147.62l-.045 5.03a.16.16 0 0 0 .131.156zm5.681-3.156a.606.606 0 0 0-.455.182l-3.762 3.676a.135.135 0 0 0-.01.133.172.172 0 0 0 .226.026l.04-.024 4.276-2.517c.26-.15.429-.275.465-.436a.837.837 0 0 0-.202-.597c-.196-.277-.388-.424-.578-.445ZM11.625 3.95a.843.843 0 0 0-.62-.117c-.334.026-.56.117-.67.273a.623.623 0 0 0-.07.485l1.303 5.098a.133.133 0 0 0 .112.077c.074 0 .137-.083.137-.182v-.05l-.044-4.963c0-.3-.025-.508-.148-.62zm4.296 14.367c.15.261.275.429.436.465a.37.37 0 0 0 .075 0 .999.999 0 0 0 .522-.216c.277-.19.424-.382.445-.57a.62.62 0 0 0-.182-.455l-3.68-3.756a.131.131 0 0 0-.133-.01.117.117 0 0 0-.057.089.214.214 0 0 0 .029.137l.022.039zM.005 12l.022.049a9.623 9.623 0 0 0 .72 1.312c.45.673.875 1.028 1.231 1.028a.511.511 0 0 0 .121-.014l1.64-.418a1.39 1.39 0 0 1-.364-.922c-.034-.443.044-.76.24-.97A.809.809 0 0 1 3.683 12a.697.697 0 0 1-.066-.063c-.203-.202-.275-.53-.241-.97a1.395 1.395 0 0 1 .362-.924l-1.64-.418a.546.546 0 0 0-.119-.014c-.356 0-.782.355-1.233 1.03a9.647 9.647 0 0 0-.716 1.31ZM17.39 5.998c-.018-.19-.167-.382-.444-.572a1.01 1.01 0 0 0-.522-.216.334.334 0 0 0-.075 0c-.161.036-.287.202-.436.465l-2.547 4.34a.16.16 0 0 0 .036.202.14.14 0 0 0 .15-.022l3.667-3.746a.619.619 0 0 0 .178-.451zm.607 11.396c.19-.019.382-.168.57-.443a.837.837 0 0 0 .202-.597c-.036-.161-.202-.287-.463-.436L13.99 13.36a.228.228 0 0 0-.093-.023.127.127 0 0 0-.115.059.135.135 0 0 0 .022.15l3.752 3.667a.606.606 0 0 0 .451.178zm-5.614 2.656a.68.68 0 0 0 .463.125h.158c.333-.026.56-.117.669-.273a.62.62 0 0 0 .069-.485l-1.302-5.104a.133.133 0 0 0-.111-.075c-.075 0-.138.083-.138.182v.046l.045 4.961c.002.301.034.51.147.623zM6.003 6.606c-.19.019-.382.168-.57.445a.837.837 0 0 0-.202.597c.036.161.202.287.465.436l4.324 2.555a.226.226 0 0 0 .093.02.125.125 0 0 0 .115-.056.137.137 0 0 0-.022-.15L6.454 6.787a.655.655 0 0 0-.404-.18Zm0 10.786a.619.619 0 0 0 .455-.182l3.762-3.678a.133.133 0 0 0 .01-.133.172.172 0 0 0-.226-.026l-.04.024-4.276 2.519c-.26.15-.429.275-.465.436a.835.835 0 0 0 .202.597c.196.275.388.424.578.443zm5.68-3.156a.14.14 0 0 0-.119.093l-1.3 5.084a.62.62 0 0 0 .071.481c.111.156.336.247.67.273a.845.845 0 0 0 .62-.12c.121-.112.146-.32.146-.62l.046-5.03a.16.16 0 0 0-.135-.161Z"/></svg>