<svg role="img" viewBox="0 0 24 24" xmlns="http://www.w3.org/2000/svg"><title>Virgin Atlantic</title><path fill="#da0530" d="M24 3.559H14c-3.102 0-3.837.49-5.061 1.877L0 15.232c7.143-.326 9.347 6.857 16.571 4.857z"/><path fill="#ffffff" d="M10.898 7.395s.449-.816.775-1.102c0 0 .368-.245.409-.612 0 0 .04-.245-.164-.408 0 0-.53-.45-.98.326 0 0-2.08 3.919-2.775 7.878 0 0-.04.122-.081-.245 0 0-.286-3.306-.327-3.429 0-.122 0-.408-.286-.449 0 0-.326-.04-.53.45l-.898 2.244s-.163.286.081.409c0 0 .286.163.45-.245l.408-.898c.081-.204.163-.164.163-.164.04 0 .081.204.081.204s.368 4.45.368 4.49c0 .041.04.408.326.408.204 0 .286-.244.327-.449.04-.204.449-2.326 1.102-4.612.49-1.51 1.061-3.02 1.55-3.796zm-.612 3.878c-.408.081-.49.571-.49.571l-.245 1.96c-.04.367.449.122.449.122.204-.123.245-.367.245-.367l.082-.49.244-1.347c.082-.53-.285-.45-.285-.45zm.857.163s-.123 1.02-.163 1.225c0 0-.204.857.285.693 0 0 .368-.081.408-.612l.082-.734s.04-.531.449-.776c0 0 .449-.204.327-.49 0 0-.082-.245-.368-.122-.204.081-.326.122-.326.122s-.286.041-.327.041c.041.04-.326.04-.367.653zm-.367-1.143c.285-.245.204-.408.204-.408-.123-.286-.49 0-.49 0-.327.245-.204.45-.204.45.163.285.49-.042.49-.042zm4.693 1.429s.368-.082.409-.49c0 0 .204-1.551.244-1.592 0-.04.123-.449-.163-.408 0 0-.367.082-.408.408l-.286 1.51-.04.327s-.082.326.244.245zm.858-3.265s.285-.245.163-.45c0 0-.123-.204-.49.082 0 0-.327.286-.122.45 0 0 .204.203.449-.082zm3.836 1.918c-.081-.123-.245-.204-.571-.082-.368.164-.49.204-.49.245 0 0-.449.204-.367-.367l.122-1.347s.04-.49-.326-.49c0 0-.204-.04-.531.245 0 0-.163.163-.286.163-.081 0-.163.041-.285 0-.123-.04-.245-.04-.327 0 0 0-.367.082-.408.612l-.163 1.184s-.082.45-.041.572c0 0 .04.204.367.081 0 0 .286-.081.327-.571 0 0 .081-.939.204-1.143 0 0 .163-.286.408-.449 0 0 .326-.163.326.122L18 10.252s-.122.531.122.613c0 0 .041 0-.04.04 0 0-1.592.654-3.592 1.796.122-1.142.367-2.734.367-2.734.04-.245-.286-.245-.286-.245-.326 0-.367.367-.367.53-.04.164-.245 1.47-.245 1.47-.122.571-.449.571-.449.571-.326.041-.122-.898-.122-.898.081-.326.122-.612.367-.857.245-.204.286-.49.082-.49-.327 0-.653.327-.653.327-.572.571-.572 1.96-.572 1.96 0 .448.286.57.286.57.367.164.857-.122.857-.122.123-.082.082.04.082.04l-.041.368c-1.47.857-3.143 1.919-4.572 3.143 0 0-.653.49-.408.816.245.327.613.041.776-.122 0 0 1.47-1.51 4.163-3.184l-.082 1.143c-.04.49-.204 2.082-.204 2.082-.081.612.041.734.041.775.041.082.286.286.572.082.326-.204.163-.735.122-.98-.04-.245-.04-.653-.04-.653.04-.326.203-2.53.203-2.53 0-.082 0-.204.041-.368A28.678 28.678 0 0 1 17.96 11.6s.572-.245 1.061-.367c0 0 .164-.082.368-.122.285-.082.653-.204.734-.368.082-.122.123-.245.041-.367z"/></svg>