<?xml version="1.0" encoding="utf-8"?>
<!-- Generator: Adobe Illustrator 23.0.1, SVG Export Plug-In . SVG Version: 6.00 Build 0)  -->
<svg version="1.1" id="Livello_1" xmlns="http://www.w3.org/2000/svg" xmlns:xlink="http://www.w3.org/1999/xlink" x="0px" y="0px"
	 width="768.031px" height="249.005px" viewBox="0 0 768.031 249.005" enable-background="new 0 0 768.031 249.005"
	 xml:space="preserve">
<g>
	<g id="color_757575ff">
		<path fill="#504F4E" d="M381.482,0.736c5.43-1.62,11.76-0.58,16.03,3.27c3.62,3.37,5.16,8.41,5.18,13.26
			c0.02,47.67,0.01,95.34,0.01,143.01c-0.26,7.14,1.25,15.15-3.17,21.36c-4.4,6.41-13.64,8.1-20.42,4.72
			c-5.53-2.75-8.49-9.09-8.42-15.08c0.02-49.31,0-98.63,0.01-147.94c0.06-4.4-0.46-8.97,1.1-13.18
			C373.352,5.756,376.982,2.076,381.482,0.736z"/>
		<path fill="#504F4E" d="M254.472,90.646c8.12-11.58,21.65-18.72,35.61-20.07c14.83-1.64,31.19,0.88,42.68,11.07
			c10.67,9.38,15.43,23.75,16.4,37.58c0.3,5.44,1.1,11.41-1.74,16.35c-2.21,3.9-7.08,4.93-11.22,4.96
			c-20.6,0.04-41.21-0.03-61.81,0.03c1.31,7.66,4.9,15.87,12.51,19.09c10.62,4.52,22.6,1.86,33.22-1.32
			c4.21-1.25,8.56-2.8,13.02-2.18c6.22,1.34,10.64,8.01,9.93,14.25c-0.6,4.75-4.52,8.17-8.43,10.43
			c-7.18,3.98-15.39,5.57-23.46,6.52c-15.28,1.78-31.83,0.59-44.94-8.19c-12.99-8.4-20.43-23.35-22.26-38.41
			C241.872,123.596,244.252,105.006,254.472,90.646 M284.752,97.776c-7.68,4.04-9.58,13.39-10.35,21.27
			c15.02,0.01,30.05-0.02,45.07,0.01c-0.57-8.04-3.25-17.13-10.9-21.16C301.252,94.296,292.122,94.336,284.752,97.776z"/>
		<path fill="#504F4E" d="M130.402,71.426c5.51-1.55,12.03-0.62,16.16,3.57c3.5,3.44,4.9,8.45,4.88,13.24
			c0.03,17.7-0.01,35.39,0.01,53.08c-0.04,6.38,2.57,13.18,8.14,16.7c4.9,3.18,11.01,3.47,16.66,2.81c4.85-0.61,9.69-2.88,12.51-7
			c3.18-4.5,3.63-10.2,3.69-15.54c0.01-17.34-0.01-34.68,0-52.01c0.05-6.04,3.69-12.1,9.42-14.32c6.23-2.51,14.27-1.32,18.63,4.09
			c3.4,3.91,4.06,9.3,3.97,14.3c-0.11,15.96,0.12,31.93-0.11,47.9c-0.33,13.66-4.03,28.27-14.43,37.81
			c-11.15,10.28-27.14,12.77-41.77,12.2c-13.48-0.46-27.81-4.51-36.99-14.95c-8.42-9.52-11.58-22.58-11.72-35.02
			c0.02-17.34-0.03-34.68,0.02-52.01C119.552,79.706,123.992,73.266,130.402,71.426z"/>
		<path fill="#504F4E" d="M523.382,71.596c15.02-1.89,31.39-1.2,44.63,6.93c9.11,5.46,15.31,14.89,17.99,25.06
			c1.84,6.73,2.45,13.75,2.46,20.71c-0.02,15.32-0.01,30.64,0,45.96c0.09,5.07-1.56,10.41-5.44,13.85
			c-5.73,5.12-15.1,5.24-21.05,0.44c-3.9-3.17-5.94-8.28-5.79-13.26c0.05-15.34,0-30.68,0.03-46.02c0.03-6.76,0.28-14.18-3.83-19.96
			c-3.36-4.97-9.45-7.25-15.26-7.46c-5.74-0.17-12.01,0.93-16.31,5.04c-4,3.99-5.39,9.85-5.37,15.35
			c0.03,17.38-0.01,34.76,0.03,52.13c0.01,4.14-0.89,8.43-3.48,11.76c-5.5,7.35-17.72,7.96-24.02,1.33
			c-3.15-3.18-4.55-7.74-4.52-12.14c-0.01-11.67,0.01-23.33,0-35c0.11-10.66-0.72-21.52,2.16-31.93c2.4-9.91,8.14-19.11,16.6-24.94
			C508.512,75.166,515.892,72.716,523.382,71.596z"/>
		<path fill="#504F4E" d="M627.062,84.186c10.92-9.6,25.79-13.77,40.14-13.42c14.06,0.02,28.4,2.9,40.72,9.87
			c5.67,3.08,9.92,9.05,9.78,15.67c0,33.01-0.01,66.03,0.01,99.05c-0.21,14.94-5,30.79-16.68,40.78
			c-11.73,10.1-27.8,13.06-42.86,12.86c-11.58-0.49-23.25-3.41-33.22-9.44c-3.6-2.31-7-5.19-9.09-8.97
			c-3.82-7.05,0.62-17.11,8.48-18.88c5.78-0.9,11.2,1.93,16.4,4.04c7.06,3.11,14.76,4.87,22.5,4.59c6.6-0.01,13.68-1.66,18.47-6.48
			c4.45-4.63,5.81-11.31,5.76-17.53c-0.02-5.76-0.05-11.51-0.01-17.27c-9.04,7.95-21.73,9.86-33.37,9.11
			c-12.19-0.75-24.15-6.19-32.13-15.55c-11.23-12.87-14.55-30.78-13.64-47.4C609.102,109.866,615.202,94.316,627.062,84.186
			 M660.742,98.106c-4.89,0.84-9.65,3-13.1,6.62c-6.31,6.84-7.74,16.61-7.73,25.56c0.13,8.05,0.76,16.8,5.75,23.48
			c4.73,6.15,13.13,7.55,20.43,6.98c6.98-0.34,13.87-4.14,17.08-10.5c6-11.38,3.87-24.64,4.29-36.98c-0.22-3.67,1.1-8.41-2.57-10.79
			C678.052,97.436,668.872,96.896,660.742,98.106z"/>
		<path fill="#504F4E" d="M1.632,79.916c3.39-6.57,11.75-9.13,18.66-7.72c5.49,1.02,9.4,5.89,10.77,11.08
			c6.32,21.33,12.66,42.65,18.94,64c0.34,1.25,0.93,2.43,1.61,3.53c6.62-21.85,13.04-43.76,19.52-65.66
			c1.22-4.69,3.48-9.62,8.08-11.82c7.39-3.37,17.56-0.98,21.75,6.24c2.67,4.79,1.99,10.65,0.06,15.57
			c-8.99,25.03-17.81,50.12-26.77,75.16c-1.88,4.82-3.68,9.95-7.43,13.69c-3.88,3.69-9.56,4.06-14.64,4.1
			c-5.64,0.03-11.92-0.49-16.25-4.55c-3.97-3.81-6.05-9.08-7.93-14.13c-8.89-25.12-17.71-50.26-26.64-75.35
			C-0.298,89.536-0.698,84.276,1.632,79.916z"/>
		<path fill="#504F4E" d="M437.612,72.956c6.73-2.67,15.28-0.64,19.38,5.52c2.44,3.41,3,7.74,2.98,11.83
			c-0.04,26.67-0.02,53.35-0.01,80.02c-0.01,4.46-1.12,9.12-4.16,12.51c-5.76,6.8-17.54,6.99-23.54,0.42
			c-2.88-3.23-4.35-7.58-4.32-11.88c0.01-27.69,0.02-55.39,0-83.08C427.772,81.896,431.482,75.266,437.612,72.956z"/>
	</g>
	<path fill="#FFCC00" d="M739.652,12.046c5.06-1.6,10.64-1.6,15.7,0.02c6.29,2.02,11.27,7.65,12.37,14.18
		c0.69,5.61,0.44,11.81-3,16.56c-6.7,9.38-21.25,10.66-30.39,4.27C722.582,38.326,724.992,16.346,739.652,12.046z"/>
</g>
</svg>
