<svg role="img" viewBox="0 0 24 24" xmlns="http://www.w3.org/2000/svg"><title>WestJet</title><path fill="#00aaa6" d="M15.96 1.627c-.154.174-3.04 3.099-3.446 3.486-.426.407-.699.446-1.047.194-.368-.252-1.453-.987-1.453-.987l-1.375 6.663 8.408-1.899 2.633-4.783s-1.724.754-2.305 1.006c-.562.252-.794.213-.89-.194-.078-.387-.505-3.312-.524-3.486Zm4.554 5.85-3.41 1.666L9.22 18.44l5.83.91s.02-.892.039-1.55c.039-.659.406-.775.639-.91.213-.136 6.876-3.971 6.876-3.971l-.658-.367c-.445-.233-.213-.602-.039-.854C22.083 11.447 24 8.891 24 8.891s-2.344.446-2.887.504c-.426.058-.484-.116-.504-.368-.019-.135-.095-1.55-.095-1.55zm-14.16.173S5.346 8.776 5.133 9.027c-.233.252-.445.406-.813.368a160.08 160.08 0 0 1-2.556-.504s-.157 2.556-.196 2.808c-.019.252-.115.582-.56.97l7.574-1.706z"/><path fill="#003c71" d="M0 12.862s2.809 3.312 2.925 3.467c.659.795.659 1.104-.02 1.937-.542.659-.871 1.085-.871 1.085s3.913-.658 4.436-.755c.503-.078 1.007.058.871.736-.077.465-.542 3.041-.542 3.041l2.324-3.952 4.107-6.992L.872 12.765Z"/><path fill="#fff" d="M17.104 9.143 9.22 18.44l-.097-.02 4.107-6.992L.891 12.765l.116-.097 7.574-1.685.078-.02 8.387-1.878Z"/></svg>