<?xml version="1.0" encoding="UTF-8" standalone="no"?>
<!DOCTYPE svg PUBLIC "-//W3C//DTD SVG 1.1//EN" "http://www.w3.org/Graphics/SVG/1.1/DTD/svg11.dtd">
<svg width="24px" height="24px" version="1.1" xmlns="http://www.w3.org/2000/svg" xmlns:xlink="http://www.w3.org/1999/xlink" xml:space="preserve" style="fill-rule:evenodd;clip-rule:evenodd;stroke-linejoin:round;stroke-miterlimit:1.41421;">
    <g transform="matrix(0.468441,0,0,0.464341,-2.9901,-2.85891)" style="fill-rule:evenodd;clip-rule:evenodd;stroke-linejoin:round;stroke-miterlimit:1.41421;">
        <g transform="matrix(2.39695,0,0,2.39695,0.931873,5.28164)">
            <path d="M12.962,0.365c5.898,0 10.687,4.831 10.687,10.782c0,5.95 -4.789,10.781 -10.687,10.781c-5.899,0 -10.688,-4.831 -10.688,-10.781c0,-5.951 4.789,-10.782 10.688,-10.782ZM12.962,3.109c4.397,0 7.967,3.601 7.967,8.038c0,4.436 -3.57,8.038 -7.967,8.038c-4.398,0 -7.968,-3.602 -7.968,-8.038c0,-4.437 3.57,-8.038 7.968,-8.038Z" style="fill:#000;"/>
        </g>
        <g transform="matrix(3.43004,0,0,3.43004,-7.40069,-2.18505)">
            <path d="M11.487,5.353c2.546,0 4.614,2.067 4.614,4.613c0,2.547 -2.068,4.614 -4.614,4.614c-2.546,0 -4.614,-2.067 -4.614,-4.614c0,-2.546 2.068,-4.613 4.614,-4.613ZM11.487,6.045c2.164,0 3.922,1.757 3.922,3.921c0,2.165 -1.758,3.922 -3.922,3.922c-2.164,0 -3.922,-1.757 -3.922,-3.922c0,-2.164 1.758,-3.921 3.922,-3.921Z" style="fill:#000;"/>
        </g>
    </g>
</svg>
