<?xml version="1.0" encoding="UTF-8" standalone="no"?>
<!DOCTYPE svg PUBLIC "-//W3C//DTD SVG 1.1//EN" "http://www.w3.org/Graphics/SVG/1.1/DTD/svg11.dtd">
<svg width="23px" height="18px" version="1.1" xmlns="http://www.w3.org/2000/svg" xmlns:xlink="http://www.w3.org/1999/xlink" xml:space="preserve">
    <g transform="matrix(1,0,0,1,0.204706,-2)" style="fill-rule:evenodd;clip-rule:evenodd;stroke-linecap:round;stroke-linejoin:round;stroke-miterlimit:1.41421;">
        <g transform="matrix(1,0,0,1,2,2)">
            <g transform="matrix(0.834752,0,0,0.834752,-1.81966,-0.304823)">
                <path d="M12.962,0.365c5.898,0 10.687,4.831 10.687,10.782c0,5.95 -4.789,10.781 -10.687,10.781c-5.899,0 -10.688,-4.831 -10.688,-10.781c0,-5.951 4.789,-10.782 10.688,-10.782ZM12.962,3.109c4.397,0 7.967,3.601 7.967,8.038c0,4.436 -3.57,8.038 -7.967,8.038c-4.398,0 -7.968,-3.602 -7.968,-8.038c0,-4.437 3.57,-8.038 7.968,-8.038Z" style="fill:#000;"/>
            </g>
            <g transform="matrix(1.67585,0,0,1.67585,1.48842,2.2308)">
                <circle cx="4.482" cy="4.039" r="4.004" style="fill:#fff;stroke-width:0.6px;stroke:#fff;"/>
            </g>
            <g id="Path-1-copy" transform="matrix(0.0201747,0,0,0.0201747,-1.96232,1.16212)">
                <path d="M218.023,407.068c-67.789,13.007 -157.291,-13.195 -157.291,-13.195c0,0 94.76,-9.961 167.971,-44.455c68.001,-32.041 143.4,-63.973 181.266,-67.954c78.633,-8.266 96.73,91.513 109.761,91.985c13.031,0.472 68.732,-69.183 112.855,-84.838c44.122,-15.655 142.182,26.745 278.381,92.403c50.323,24.259 115.041,52.856 115.041,52.856c0,0 -70.169,17.332 -144.148,0c-23.898,-5.598 -69.175,-19.899 -93.757,-26.802c-80.233,-22.531 -108.125,-33.147 -143.704,-26.054c-31.941,6.367 -49.125,34.433 -101.029,75.126c-4.4,3.45 -19.3,0.921 -23.639,4.538c-13.456,11.22 -19.08,35.345 -19.08,35.345c0,0 -31.936,-22.537 -40.615,-51.869c-4.482,-15.146 14.293,-37.086 14.293,-37.086c0,0 -25.268,-57.208 -86.939,-45.414c-30.317,5.798 -103.817,32.837 -169.366,45.414Z" style="fill:#fff;stroke-width:84px;stroke-linecap:butt;stroke-linejoin:miter;stroke:#000;"/>
            </g>
            <g id="Path-1" transform="matrix(0.022417,0,0,0.022417,-3.1807,0.291003)">
                <path d="M222.389,407.068c-66.879,13.007 -155.18,-13.195 -155.18,-13.195c0,0 93.489,-9.961 165.717,-44.455c67.089,-32.041 141.475,-63.973 178.833,-67.954c77.578,-8.266 95.432,91.513 108.288,91.985c12.857,0.472 67.81,-69.183 111.34,-84.838c43.531,-15.655 140.274,26.745 274.646,92.403c49.647,24.259 113.496,52.856 113.496,52.856c0,0 -69.226,17.332 -142.213,0c-23.577,-5.598 -68.246,-19.899 -92.499,-26.802c-79.156,-22.531 -106.673,-33.147 -141.775,-26.054c-31.512,6.367 -48.465,34.433 -99.673,75.126c-4.341,3.45 -19.041,0.921 -23.322,4.538c-13.275,11.22 -18.824,35.345 -18.824,35.345c0,0 -31.507,-22.537 -40.07,-51.869c-4.422,-15.146 14.102,-37.086 14.102,-37.086c0,0 -24.93,-57.208 -85.772,-45.414c-29.911,5.798 -102.424,32.837 -167.094,45.414Z" style="fill:#fff;stroke-width:1px;stroke-linecap:butt;stroke-linejoin:miter;stroke:#fff;"/>
            </g>
        </g>
    </g>
</svg>
