<?xml version="1.0" encoding="UTF-8" standalone="no"?>
<!DOCTYPE svg PUBLIC "-//W3C//DTD SVG 1.1//EN" "http://www.w3.org/Graphics/SVG/1.1/DTD/svg11.dtd">
<svg width="150px" height="150px" version="1.1" xmlns="http://www.w3.org/2000/svg" xmlns:xlink="http://www.w3.org/1999/xlink" xml:space="preserve" style="fill-rule:evenodd;clip-rule:evenodd;stroke-miterlimit:1.41421;">
    <g id="Page-1" transform="matrix(0.75,0,0,0.75,0,0)">
        <g id="Rectangle-5" transform="matrix(0.0892857,1.65589e-48,0,0.0892857,-3.66071,-2.58929)">
            <path d="M1158.8,45.224l3.366,0l0,50.495l-3.366,0l0,-50.495ZM1254.95,49.068l3.353,0.293l-4.4,50.302l-3.354,-0.293l4.401,-50.302ZM1350.4,61.277l3.316,0.584l-8.769,49.727l-3.315,-0.584l8.768,-49.727ZM1444.42,81.758l3.251,0.871l-13.069,48.774l-3.251,-0.871l13.069,-48.774ZM1536.31,110.356l3.163,1.152l-17.27,47.449l-3.163,-1.151l17.27,-47.45ZM1625.34,146.854l3.051,1.423l-21.34,45.763l-3.051,-1.423l21.34,-45.763ZM1710.86,190.973l2.915,1.683l-25.247,43.729l-2.915,-1.683l25.247,-43.729ZM1792.21,242.377l2.758,1.931l-28.962,41.363l-2.758,-1.931l28.962,-41.363ZM1868.77,300.676l2.579,2.164l-32.457,38.681l-2.579,-2.164l32.457,-38.681ZM1939.96,365.426l2.38,2.38l-35.704,35.705l-2.381,-2.38l35.705,-35.705ZM2005.23,436.134l2.164,2.578l-38.681,32.457l-2.163,-2.578l38.68,-32.457ZM2064.09,512.261l1.931,2.757l-41.363,28.963l-1.931,-2.758l41.363,-28.962ZM2116.09,593.229l1.684,2.915l-43.73,25.247l-1.683,-2.915l43.729,-25.247ZM2160.84,678.421l1.423,3.051l-45.763,21.339l-1.423,-3.05l45.763,-21.34ZM2197.99,767.189l1.151,3.163l-47.449,17.27l-1.151,-3.163l47.449,-17.27ZM2227.27,858.857l0.872,3.251l-48.774,13.069l-0.871,-3.251l48.773,-13.069ZM2248.44,952.728l0.585,3.315l-49.727,8.768l-0.585,-3.315l49.727,-8.768ZM2261.36,1048.09l0.293,3.353l-50.302,4.401l-0.293,-3.354l50.302,-4.4ZM2265.91,1144.21l0,3.366l-50.495,0l0,-3.366l50.495,0ZM2262.06,1240.36l-0.293,3.354l-50.302,-4.401l0.293,-3.353l50.302,4.4ZM2249.86,1335.81l-0.585,3.315l-49.727,-8.768l0.584,-3.315l49.728,8.768ZM2229.37,1429.84l-0.871,3.252l-48.774,-13.069l0.871,-3.252l48.774,13.069ZM2200.78,1521.72l-1.152,3.164l-47.449,-17.27l1.152,-3.164l47.449,17.27ZM2164.28,1610.76l-1.423,3.051l-45.763,-21.34l1.423,-3.051l45.763,21.34ZM2120.16,1696.28l-1.683,2.915l-43.729,-25.247l1.683,-2.915l43.729,25.247ZM2068.75,1777.62l-1.931,2.757l-41.363,-28.962l1.931,-2.757l41.363,28.962ZM2010.46,1854.18l-2.164,2.579l-38.681,-32.457l2.164,-2.579l38.681,32.457ZM1945.7,1925.37l-2.38,2.38l-35.705,-35.705l2.38,-2.38l35.705,35.704ZM1875,1990.64l-2.579,2.164l-32.457,-38.681l2.578,-2.164l32.458,38.681ZM1798.87,2049.5l-2.757,1.931l-28.963,-41.362l2.758,-1.931l28.962,41.362ZM1717.9,2101.51l-2.915,1.683l-25.247,-43.729l2.915,-1.683l25.247,43.729ZM1632.71,2146.26l-3.051,1.422l-21.339,-45.763l3.051,-1.423l21.339,45.764ZM1543.94,2183.41l-3.163,1.152l-17.27,-47.449l3.163,-1.152l17.27,47.449ZM1452.27,2212.68l-3.251,0.871l-13.069,-48.774l3.251,-0.871l13.069,48.774ZM1358.4,2233.86l-3.316,0.584l-8.768,-49.727l3.315,-0.584l8.769,49.727ZM1263.05,2246.77l-3.354,0.294l-4.401,-50.302l3.354,-0.294l4.401,50.302ZM1166.92,2251.32l-3.366,0l0,-50.494l3.366,0l0,50.494ZM1070.77,2247.48l-3.354,-0.294l4.401,-50.302l3.354,0.294l-4.401,50.302ZM975.319,2235.27l-3.315,-0.585l8.768,-49.727l3.315,0.585l-8.768,49.727ZM881.295,2214.78l-3.252,-0.871l13.069,-48.773l3.252,0.871l-13.069,48.773ZM789.414,2186.19l-3.164,-1.151l17.27,-47.449l3.164,1.151l-17.27,47.449ZM700.374,2149.69l-3.05,-1.423l21.339,-45.763l3.051,1.422l-21.34,45.764ZM614.855,2105.57l-2.915,-1.683l25.247,-43.73l2.915,1.683l-25.247,43.73ZM533.506,2054.17l-2.757,-1.931l28.962,-41.362l2.758,1.931l-28.963,41.362ZM456.947,1995.87l-2.578,-2.164l32.457,-38.68l2.578,2.163l-32.457,38.681ZM385.761,1931.12l-2.381,-2.381l35.705,-35.705l2.38,2.381l-35.704,35.705ZM320.488,1860.41l-2.164,-2.579l38.681,-32.457l2.164,2.579l-38.681,32.457ZM261.627,1784.28l-1.931,-2.758l41.362,-28.962l1.931,2.757l-41.362,28.963ZM209.624,1703.32l-1.683,-2.916l43.729,-25.247l1.684,2.916l-43.73,25.247ZM164.876,1618.12l-1.422,-3.051l45.763,-21.34l1.423,3.051l-45.764,21.34ZM127.724,1529.36l-1.152,-3.163l47.45,-17.27l1.151,3.163l-47.449,17.27ZM98.449,1437.69l-0.871,-3.252l48.774,-13.069l0.871,3.252l-48.774,13.069ZM77.275,1343.82l-0.584,-3.315l49.727,-8.768l0.585,3.315l-49.728,8.768ZM64.364,1248.46l-0.294,-3.353l50.302,-4.401l0.294,3.353l-50.302,4.401ZM59.812,1152.34l0,-3.367l50.494,0l0,3.367l-50.494,0ZM63.655,1056.18l0.294,-3.353l50.302,4.401l-0.294,3.353l-50.302,-4.401ZM75.864,960.732l0.585,-3.315l49.727,8.768l-0.585,3.315l-49.727,-8.768ZM96.346,866.707l0.871,-3.251l48.774,13.069l-0.872,3.251l-48.773,-13.069ZM124.944,774.826l1.151,-3.163l47.449,17.27l-1.151,3.163l-47.449,-17.27ZM161.442,685.787l1.422,-3.051l45.764,21.34l-1.423,3.051l-45.763,-21.34ZM205.56,600.267l1.684,-2.915l43.729,25.247l-1.683,2.916l-43.73,-25.248ZM256.965,518.919l1.931,-2.758l41.362,28.962l-1.931,2.758l-41.362,-28.962ZM315.264,442.36l2.164,-2.579l38.681,32.457l-2.164,2.579l-38.681,-32.457ZM380.014,371.173l2.38,-2.38l35.705,35.705l-2.381,2.38l-35.704,-35.705ZM450.721,305.901l2.579,-2.164l32.457,38.681l-2.579,2.163l-32.457,-38.68ZM526.849,247.039l2.757,-1.931l28.962,41.363l-2.757,1.931l-28.962,-41.363ZM607.816,195.037l2.916,-1.683l25.247,43.729l-2.916,1.683l-25.247,-43.729ZM693.008,150.289l3.051,-1.423l21.34,45.763l-3.051,1.423l-21.34,-45.763ZM781.776,113.136l3.164,-1.151l17.27,47.449l-3.164,1.151l-17.27,-47.449ZM873.444,83.862l3.252,-0.872l13.069,48.774l-3.252,0.871l-13.069,-48.773ZM967.315,62.688l3.315,-0.585l8.769,49.727l-3.316,0.585l-8.768,-49.727ZM1062.67,49.776l3.354,-0.293l4.4,50.302l-3.353,0.293l-4.401,-50.302Z" style="fill:#000;"/>
        </g>
        <g id="Rectangle-77" transform="matrix(0.0892857,1.65589e-48,0,0.0892857,-3.66071,-2.58929)">
            <path d="M1156.1,39.502l6.732,0l0,74.058l-6.732,0l0,-74.058ZM1348.58,55.288l6.63,1.169l-12.86,72.933l-6.63,-1.169l12.86,-72.933ZM1535.38,104.258l6.327,2.302l-25.33,69.592l-6.326,-2.302l25.329,-69.592ZM1710.85,184.922l5.83,3.367l-37.029,64.136l-5.831,-3.366l37.029,-64.137ZM1869.65,294.831l5.157,4.327l-47.604,56.732l-5.157,-4.327l47.604,-56.732ZM2006.94,430.644l4.328,5.157l-56.732,47.604l-4.328,-5.157l56.732,-47.604ZM2118.57,588.235l3.366,5.831l-64.136,37.029l-3.366,-5.831l64.136,-37.029ZM2201.14,762.816l2.303,6.326l-69.592,25.33l-2.303,-6.327l69.592,-25.329ZM2252.13,949.082l1.169,6.63l-72.933,12.86l-1.169,-6.63l72.933,-12.86ZM2270.01,1141.37l0,6.732l-74.058,0l0,-6.732l74.058,0ZM2254.22,1333.85l-1.169,6.63l-72.933,-12.86l1.169,-6.63l72.933,12.86ZM2205.25,1520.66l-2.303,6.326l-69.592,-25.329l2.303,-6.327l69.592,25.33ZM2124.59,1696.12l-3.366,5.83l-64.136,-37.029l3.366,-5.83l64.136,37.029ZM2014.68,1854.92l-4.328,5.157l-56.732,-47.603l4.328,-5.158l56.732,47.604ZM1878.87,1992.21l-5.158,4.328l-47.603,-56.732l5.157,-4.328l47.604,56.732ZM1721.27,2103.84l-5.831,3.366l-37.029,-64.136l5.831,-3.366l37.029,64.136ZM1546.69,2186.41l-6.327,2.302l-25.329,-69.592l6.327,-2.302l25.329,69.592ZM1360.43,2237.4l-6.63,1.169l-12.86,-72.933l6.63,-1.169l12.86,72.933ZM1168.14,2255.28l-6.733,0l0,-74.058l6.733,0l0,74.058ZM975.662,2239.49l-6.63,-1.169l12.86,-72.933l6.63,1.169l-12.86,72.933ZM788.853,2190.52l-6.326,-2.302l25.329,-69.592l6.326,2.302l-25.329,69.592ZM613.386,2109.86l-5.831,-3.367l37.029,-64.136l5.831,3.367l-37.029,64.136ZM454.592,1999.95l-5.158,-4.327l47.604,-56.732l5.157,4.327l-47.603,56.732ZM317.295,1864.13l-4.327,-5.157l56.732,-47.604l4.327,5.157l-56.732,47.604ZM205.669,1706.54l-3.367,-5.831l64.137,-37.029l3.366,5.831l-64.136,37.029ZM123.103,1531.96l-2.303,-6.326l69.592,-25.33l2.303,6.327l-69.592,25.329ZM72.108,1345.7l-1.17,-6.63l72.934,-12.86l1.169,6.63l-72.933,12.86ZM54.231,1153.41l0,-6.732l74.059,0l0,6.732l-74.059,0ZM70.018,960.932l1.169,-6.63l72.933,12.86l-1.169,6.63l-72.933,-12.86ZM118.987,774.123l2.303,-6.326l69.592,25.329l-2.303,6.327l-69.592,-25.33ZM199.652,598.656l3.366,-5.83l64.137,37.029l-3.367,5.83l-64.136,-37.029ZM309.561,439.862l4.327,-5.157l56.732,47.603l-4.328,5.158l-56.731,-47.604ZM445.374,302.566l5.157,-4.328l47.604,56.732l-5.158,4.328l-47.603,-56.732ZM602.965,190.939l5.83,-3.366l37.029,64.136l-5.83,3.366l-37.029,-64.136ZM963.811,57.378l6.631,-1.169l12.86,72.933l-6.631,1.169l-12.86,-72.933ZM777.545,108.373l6.327,-2.302l25.329,69.592l-6.326,2.302l-25.33,-69.592Z" style="fill:#000;"/>
        </g>
        <g id="Rectangle-113" transform="matrix(0.0892857,1.65589e-48,0,0.0892857,-3.66071,-2.58929)">
            <path d="M1152.4,43.541l16.831,0l-2.198,134.652l-12.056,0.029l-0.047,-39.087l-57.342,-0.834l54.771,-85.25l0.041,0.315l0,-9.825ZM1705.54,187.246l14.576,8.416l-67.326,116.611l-14.576,-8.416l67.326,-116.611ZM2112.73,588.27l8.416,14.576l-116.612,67.326l-8.415,-14.577l116.611,-67.325ZM2264.85,1139.16l0,16.832l-134.651,0l0,-16.832l134.651,0ZM2121.14,1692.3l-8.416,14.577l-116.611,-67.326l8.415,-14.576l116.612,67.325ZM1720.12,2099.49l-14.576,8.415l-67.326,-116.611l14.576,-8.416l67.326,116.612ZM1169.23,2251.61l-16.831,0l0,-134.651l16.831,0l0,134.651ZM616.087,2107.9l-14.576,-8.415l67.325,-116.612l14.577,8.416l-67.326,116.611ZM208.903,1706.88l-8.416,-14.577l116.611,-67.325l8.416,14.576l-116.611,67.326ZM56.783,1155.99l0,-16.832l134.651,0l0,16.832l-134.651,0ZM200.487,602.846l8.416,-14.576l116.611,67.325l-8.416,14.577l-116.611,-67.326ZM601.511,195.662l14.576,-8.416l67.326,116.611l-14.577,8.416l-67.325,-116.611Z" style="fill:#000;"/>
        </g>
        <g id="Rectangle-125" transform="matrix(0.0588235,-7.46108e-18,-7.46108e-18,0.0892857,31.7941,-2.58929)">
            <path d="M1151,337.073l0,636.903l17,0l0,-636.903l-17,0Z" style="fill:#000;stroke-width:1px;stroke:#000;"/>
        </g>
        <g id="Oval-1" transform="matrix(0.0892857,1.65589e-48,0,0.0892857,-3.66071,-2.58929)">
            <path d="M1161,2269c-618.559,0 -1120,-501.441 -1120,-1120c0,-371.728 181.096,-701.159 459.875,-904.88c185.112,-135.273 413.294,-215.12 660.125,-215.12c22.496,0 44.838,0.663 67.006,1.971c587.364,34.658 1052.99,521.967 1052.99,1118.03c0,618.559 -501.441,1120 -1120,1120ZM1161,2252c609.17,0 1103,-493.83 1103,-1103c0,-609.17 -493.83,-1103 -1103,-1103c-609.17,0 -1103,493.83 -1103,1103c0,609.17 493.83,1103 1103,1103Z" style="fill:#000;"/>
        </g>
        <g transform="matrix(0.0892857,1.65589e-48,0,0.0892857,96.4717,24.375)">
            <path d="M70.02,-88.11c4.687,8.642 7.031,20.483 7.031,35.522c0,14.258 -2.124,26.05 -6.372,35.376c-6.153,13.379 -16.211,20.068 -30.176,20.068c-12.598,0 -21.973,-5.468 -28.125,-16.406c-5.127,-9.131 -7.691,-21.387 -7.691,-36.767c0,-11.914 1.539,-22.144 4.615,-30.689c5.761,-15.918 16.186,-23.877 31.274,-23.877c13.574,0 23.389,5.591 29.444,16.773ZM56.763,-18.237c4.052,-6.055 6.079,-17.334 6.079,-33.838c0,-11.914 -1.465,-21.717 -4.395,-29.407c-2.929,-7.69 -8.618,-11.536 -17.065,-11.536c-7.764,0 -13.44,3.65 -17.029,10.95c-3.589,7.3 -5.383,18.054 -5.383,32.263c0,10.694 1.147,19.287 3.442,25.782c3.516,9.912 9.522,14.868 18.018,14.868c6.836,0 12.28,-3.028 16.333,-9.082Z" style="fill:#000;fill-rule:nonzero;"/>
        </g>
        <g transform="matrix(6.29001e-17,0.0892857,-0.0892857,6.29001e-17,170.171,96.2758)">
            <g id="_9">
                <path d="M19.922,-25.342c0.39,7.276 3.198,12.305 8.423,15.088c2.685,1.465 5.713,2.197 9.082,2.197c6.299,0 11.67,-2.624 16.113,-7.873c4.443,-5.249 7.593,-15.906 9.448,-31.97c-2.929,4.638 -6.555,7.898 -10.876,9.777c-4.321,1.88 -8.972,2.82 -13.953,2.82c-10.107,0 -18.103,-3.149 -23.987,-9.448c-5.883,-6.299 -8.825,-14.404 -8.825,-24.316c0,-9.522 2.905,-17.896 8.715,-25.122c5.811,-7.227 14.38,-10.84 25.709,-10.84c15.283,0 25.83,6.884 31.64,20.654c3.223,7.568 4.834,17.041 4.834,28.418c0,12.842 -1.929,24.219 -5.786,34.131c-6.397,16.504 -17.236,24.756 -32.52,24.756c-10.253,0 -18.042,-2.686 -23.364,-8.057c-5.322,-5.371 -7.983,-12.109 -7.983,-20.215l13.33,0ZM54.236,-52.039c4.321,-3.442 6.482,-9.46 6.482,-18.054c0,-7.715 -1.941,-13.464 -5.823,-17.248c-3.882,-3.784 -8.826,-5.677 -14.832,-5.677c-6.445,0 -11.56,2.161 -15.344,6.482c-3.784,4.322 -5.676,10.096 -5.676,17.322c0,6.836 1.66,12.268 4.98,16.297c3.321,4.028 8.619,6.042 15.894,6.042c5.225,0 9.998,-1.721 14.319,-5.164Z" style="fill:#000;fill-rule:nonzero;"/>
            </g>
        </g>
        <g transform="matrix(0.0892857,1.65589e-48,0,0.0892857,92.2321,182.321)">
            <g id="_18">
                <path d="M14.355,-74.268l0,-10.107c9.522,-0.928 16.163,-2.478 19.922,-4.651c3.76,-2.173 6.568,-7.312 8.423,-15.417l10.401,0l0,104.443l-14.063,0l0,-74.268l-24.683,0Z" style="fill:#000;fill-rule:nonzero;"/>
                <path d="M137.842,-65.808c3.271,-3.247 4.907,-7.117 4.907,-11.609c0,-3.906 -1.562,-7.495 -4.687,-10.767c-3.125,-3.271 -7.886,-4.907 -14.283,-4.907c-6.347,0 -10.937,1.636 -13.769,4.907c-2.832,3.272 -4.248,7.105 -4.248,11.499c0,4.932 1.831,8.789 5.493,11.573c3.662,2.783 7.983,4.174 12.964,4.174c5.81,0 10.351,-1.623 13.623,-4.87ZM140.222,-13.953c4.028,-3.296 6.043,-8.215 6.043,-14.758c0,-6.787 -2.076,-11.938 -6.226,-15.454c-4.15,-3.516 -9.473,-5.273 -15.967,-5.273c-6.299,0 -11.438,1.794 -15.417,5.383c-3.98,3.589 -5.969,8.557 -5.969,14.905c0,5.468 1.818,10.192 5.456,14.172c3.638,3.979 9.265,5.969 16.882,5.969c6.104,0 11.17,-1.648 15.198,-4.944ZM97.705,-61.377c-3.857,-3.906 -5.786,-8.984 -5.786,-15.234c0,-7.813 2.832,-14.527 8.496,-20.142c5.664,-5.615 13.696,-8.423 24.097,-8.423c10.058,0 17.944,2.649 23.657,7.947c5.713,5.298 8.569,11.487 8.569,18.567c0,6.543 -1.66,11.841 -4.98,15.893c-1.856,2.295 -4.737,4.541 -8.643,6.739c4.346,2.002 7.764,4.297 10.254,6.884c4.639,4.883 6.958,11.231 6.958,19.043c0,9.229 -3.1,17.054 -9.302,23.475c-6.201,6.42 -14.965,9.631 -26.294,9.631c-10.205,0 -18.835,-2.771 -25.891,-8.313c-7.055,-5.542 -10.583,-13.586 -10.583,-24.133c0,-6.202 1.514,-11.56 4.541,-16.077c3.027,-4.517 7.519,-7.971 13.476,-10.364c-3.662,-1.562 -6.518,-3.393 -8.569,-5.493Z" style="fill:#000;fill-rule:nonzero;"/>
            </g>
        </g>
        <g transform="matrix(-3.41836e-17,-0.0892857,0.0892857,-3.41836e-17,34.0135,107.448)">
            <g id="_27">
                <path d="M10.291,-23.584c3.247,-6.689 9.582,-12.769 19.006,-18.237l14.062,-8.13c6.299,-3.662 10.718,-6.787 13.257,-9.375c4.004,-4.053 6.006,-8.692 6.006,-13.916c0,-6.104 -1.831,-10.95 -5.493,-14.539c-3.662,-3.589 -8.545,-5.383 -14.649,-5.383c-9.033,0 -15.283,3.418 -18.75,10.254c-1.855,3.662 -2.88,8.74 -3.076,15.234l-13.403,0c0.146,-9.131 1.831,-16.577 5.054,-22.339c5.713,-10.156 15.796,-15.234 30.249,-15.234c12.011,0 20.788,3.247 26.33,9.741c5.542,6.494 8.313,13.721 8.313,21.68c0,8.398 -2.954,15.576 -8.862,21.533c-3.418,3.467 -9.546,7.666 -18.384,12.598l-10.034,5.566c-4.785,2.637 -8.545,5.152 -11.279,7.544c-4.883,4.248 -7.959,8.96 -9.229,14.136l57.276,0l0,12.451l-71.998,0c0.489,-9.033 2.356,-16.895 5.604,-23.584Z" style="fill:#000;fill-rule:nonzero;"/>
                <path d="M161.865,-103.125l0,11.499c-3.369,3.272 -7.849,8.96 -13.44,17.065c-5.591,8.106 -10.534,16.846 -14.831,26.221c-4.248,9.131 -7.471,17.456 -9.668,24.976c-1.416,4.834 -3.247,12.622 -5.493,23.364l-14.576,0c3.321,-20.02 10.645,-39.941 21.973,-59.766c6.69,-11.621 13.721,-21.655 21.094,-30.102l-58.008,0l0,-13.257l72.949,0Z" style="fill:#000;fill-rule:nonzero;"/>
            </g>
        </g>
    </g>
</svg>
