<?xml version="1.0" encoding="UTF-8" standalone="no"?>
<!DOCTYPE svg PUBLIC "-//W3C//DTD SVG 1.1//EN" "http://www.w3.org/Graphics/SVG/1.1/DTD/svg11.dtd">
<svg width="30px" height="30px" version="1.1" xmlns="http://www.w3.org/2000/svg" xmlns:xlink="http://www.w3.org/1999/xlink" xml:space="preserve" style="fill-rule:evenodd;clip-rule:evenodd;stroke-linejoin:round;stroke-miterlimit:1.41421;">
    <g id="Oval-1" transform="matrix(0.0236512,0,0,0.0236512,-0.212395,-0.972477)">
        <path d="M642.5,823c-92.508,0 -167.5,-72.978 -167.5,-163c0,-90.022 74.992,-163 167.5,-163c92.508,0 167.5,72.978 167.5,163c0,90.022 -74.992,163 -167.5,163ZM642.5,763.404c55.656,0 100.774,-46.296 100.774,-103.404c0,-57.108 -45.118,-103.404 -100.774,-103.404c-55.656,0 -100.774,46.296 -100.774,103.404c0,57.108 45.118,103.404 100.774,103.404Z" style="fill:#000;"/>
    </g>
    <g id="Oval-copy-2" transform="matrix(0.0236512,0,0,0.0236512,-0.212395,-0.972477)">
        <path d="M700.125,880.996c19.548,-4.874 39.238,6.592 43.979,25.608c4.741,19.017 -7.261,38.384 -26.808,43.258c-19.548,4.874 -39.238,-6.592 -43.979,-25.608c-4.741,-19.017 7.261,-38.384 26.808,-43.258ZM877.241,631.337c-2.456,-19.996 11.324,-38.141 30.777,-40.53c19.453,-2.388 37.213,11.885 39.668,31.88c2.455,19.996 -11.324,38.142 -30.777,40.53c-19.453,2.389 -37.213,-11.884 -39.668,-31.88ZM585.959,880.996c19.547,4.874 31.55,24.241 26.808,43.258c-4.741,19.016 -24.431,30.482 -43.978,25.608c-19.548,-4.874 -31.55,-24.241 -26.809,-43.258c4.742,-19.016 24.432,-30.482 43.979,-25.608ZM643.042,430.604c-20.146,0 -36.477,-15.888 -36.477,-35.487c0,-19.599 16.331,-35.487 36.477,-35.487c20.146,0 36.477,15.888 36.477,35.487c0,19.599 -16.331,35.487 -36.477,35.487ZM485.156,829.071c14.971,13.48 16.476,36.215 3.362,50.78c-13.114,14.565 -35.882,15.445 -50.853,1.965c-14.971,-13.481 -16.477,-36.216 -3.362,-50.78c13.114,-14.565 35.882,-15.445 50.853,-1.965ZM863.327,741.115c7.22,-18.808 27.905,-28.361 46.203,-21.337c18.297,7.024 27.277,27.964 20.057,46.772c-7.219,18.807 -27.905,28.36 -46.202,21.337c-18.297,-7.024 -27.277,-27.964 -20.058,-46.772ZM422.757,741.115c7.22,18.808 -1.761,39.748 -20.058,46.772c-18.297,7.023 -38.982,-2.53 -46.202,-21.337c-7.22,-18.808 1.761,-39.748 20.058,-46.772c18.297,-7.024 38.983,2.529 46.202,21.337ZM836.327,528.081c-11.555,-16.503 -7.908,-38.993 8.147,-50.235c16.055,-11.241 38.437,-6.977 49.992,9.526c11.555,16.502 7.907,38.993 -8.147,50.235c-16.055,11.241 -38.437,6.976 -49.992,-9.526ZM408.844,631.337c-2.455,19.996 -20.215,34.269 -39.668,31.88c-19.453,-2.388 -33.233,-20.534 -30.777,-40.53c2.455,-19.995 20.215,-34.268 39.668,-31.88c19.452,2.389 33.232,20.534 30.777,40.53ZM800.928,829.071c14.972,-13.48 37.739,-12.6 50.854,1.965c13.114,14.564 11.609,37.299 -3.363,50.78c-14.971,13.48 -37.738,12.6 -50.853,-1.965c-13.114,-14.565 -11.609,-37.3 3.362,-50.78ZM449.757,528.081c-11.555,16.502 -33.937,20.767 -49.991,9.526c-16.055,-11.242 -19.702,-33.733 -8.147,-50.235c11.555,-16.503 33.937,-20.767 49.991,-9.526c16.055,11.242 19.702,33.732 8.147,50.235ZM753.817,457.361c-17.787,-9.457 -24.748,-31.153 -15.547,-48.458c9.201,-17.305 31.08,-23.666 48.868,-14.208c17.787,9.458 24.748,31.153 15.547,48.458c-9.201,17.305 -31.08,23.666 -48.868,14.208ZM532.267,457.361c-17.788,9.458 -39.666,3.097 -48.868,-14.208c-9.201,-17.305 -2.24,-39 15.548,-48.458c17.787,-9.458 39.666,-3.097 48.867,14.208c9.201,17.305 2.241,39.001 -15.547,48.458Z" style="fill:#000;"/>
    </g>
    <g id="Path" transform="matrix(0.0236512,0,0,0.0236512,-0.212395,-0.972477)">
        <path d="M975.231,592.067c-1.405,-20.096 13.305,-37.496 32.857,-38.863c19.551,-1.367 36.54,13.816 37.945,33.912c1.405,20.097 -13.305,37.497 -32.856,38.864c-19.552,1.367 -36.54,-13.816 -37.946,-33.913ZM697.549,333.466c-19.265,-5.89 -30.237,-25.859 -24.507,-44.601c5.73,-18.743 25.993,-29.162 45.258,-23.272c19.266,5.89 30.238,25.859 24.508,44.602c-5.73,18.742 -25.993,29.161 -45.259,23.271ZM980.764,689.381c4.532,-19.63 23.686,-31.968 42.783,-27.56c19.097,4.409 30.904,23.896 26.372,43.525c-4.532,19.63 -23.686,31.968 -42.783,27.56c-19.097,-4.409 -30.904,-23.896 -26.372,-43.525ZM875.647,418.948c-12.678,-15.656 -10.608,-38.347 4.623,-50.681c15.232,-12.334 37.857,-9.641 50.535,6.015c12.678,15.656 10.608,38.347 -4.623,50.681c-15.231,12.334 -37.856,9.641 -50.535,-6.015ZM956.724,784.022c10.073,-17.447 31.998,-23.646 48.971,-13.846c16.973,9.799 22.567,31.886 12.494,49.333c-10.072,17.447 -31.998,23.646 -48.971,13.847c-16.973,-9.8 -22.567,-31.887 -12.494,-49.334ZM597.088,332.069c-20.145,0 -36.477,-15.888 -36.477,-35.487c0,-19.599 16.332,-35.487 36.477,-35.487c20.146,0 36.477,15.888 36.477,35.487c0,19.599 -16.331,35.487 -36.477,35.487ZM905.212,867.721c14.734,-13.74 37.514,-13.258 50.88,1.076c13.367,14.334 12.258,37.092 -2.475,50.831c-14.734,13.739 -37.514,13.257 -50.88,-1.076c-13.367,-14.334 -12.258,-37.092 2.475,-50.831ZM940.61,500.586c-7.219,-18.807 1.761,-39.748 20.058,-46.771c18.297,-7.024 38.983,2.529 46.202,21.336c7.22,18.808 -1.76,39.748 -20.058,46.772c-18.297,7.024 -38.982,-2.529 -46.202,-21.337ZM830.731,933.162c18.107,-8.831 39.75,-1.71 48.342,15.905c8.592,17.616 0.878,39.055 -17.229,47.886c-18.107,8.832 -39.75,1.711 -48.342,-15.905c-8.591,-17.615 -0.878,-39.055 17.229,-47.886ZM793.188,363.295c-16.701,-11.266 -21.356,-33.57 -10.396,-49.818c10.959,-16.249 33.383,-20.288 50.085,-9.023c16.701,11.266 21.356,33.57 10.396,49.818c-10.959,16.248 -33.383,20.288 -50.085,9.023ZM739.789,974.627c19.898,-3.151 38.513,9.987 41.579,29.344c3.066,19.358 -10.579,37.605 -30.476,40.757c-19.898,3.151 -38.514,-9.987 -41.58,-29.344c-3.066,-19.358 10.579,-37.605 30.477,-40.757ZM634.402,988.41c19.898,3.152 33.543,21.399 30.477,40.757c-3.066,19.357 -21.682,32.495 -41.58,29.344c-19.897,-3.152 -33.542,-21.399 -30.476,-40.757c3.066,-19.357 21.681,-32.495 41.579,-29.344ZM535.409,971.786c18.107,8.831 25.821,30.27 17.229,47.886c-8.592,17.615 -30.235,24.736 -48.342,15.905c-18.107,-8.831 -25.82,-30.271 -17.229,-47.886c8.592,-17.616 30.235,-24.737 48.342,-15.905ZM445.764,927.809c14.733,13.74 15.842,36.498 2.475,50.831c-13.366,14.334 -36.146,14.816 -50.88,1.077c-14.733,-13.74 -15.842,-36.497 -2.475,-50.831c13.366,-14.334 36.146,-14.816 50.88,-1.077ZM373.3,860.325c10.073,17.447 4.479,39.534 -12.494,49.333c-16.974,9.8 -38.899,3.601 -48.972,-13.846c-10.073,-17.447 -4.479,-39.534 12.494,-49.334c16.974,-9.799 38.899,-3.6 48.972,13.847ZM324.35,775.229c4.532,19.63 -7.275,39.117 -26.372,43.525c-19.097,4.409 -38.251,-7.929 -42.783,-27.559c-4.532,-19.629 7.275,-39.116 26.372,-43.525c19.097,-4.409 38.251,7.93 42.783,27.559ZM303.192,679.96c-1.405,20.096 -18.394,35.28 -37.945,33.912c-19.551,-1.367 -34.261,-18.767 -32.856,-38.863c1.405,-20.097 18.394,-35.28 37.945,-33.913c19.551,1.367 34.262,18.767 32.856,38.864ZM311.676,582.841c-7.22,18.808 -27.905,28.361 -46.203,21.337c-18.297,-7.024 -27.277,-27.964 -20.058,-46.772c7.22,-18.807 27.905,-28.36 46.203,-21.336c18.297,7.023 27.277,27.964 20.058,46.771ZM352.1,487.42c-12.678,15.656 -35.303,18.349 -50.535,6.015c-15.231,-12.334 -17.301,-35.025 -4.623,-50.681c12.678,-15.656 35.303,-18.349 50.535,-6.015c15.231,12.334 17.301,35.025 4.623,50.681ZM416.471,412.563c-16.701,11.266 -39.125,7.226 -50.085,-9.022c-10.959,-16.248 -6.305,-38.553 10.397,-49.818c16.702,-11.265 39.125,-7.226 50.085,9.023c10.96,16.248 6.305,38.552 -10.397,49.817ZM500.584,359.226c-19.265,5.89 -39.528,-4.529 -45.258,-23.271c-5.73,-18.743 5.242,-38.712 24.508,-44.602c19.265,-5.89 39.528,4.529 45.258,23.272c5.73,18.742 -5.242,38.711 -24.508,44.601Z" style="fill:#000;"/>
    </g>
    <g id="Path1" transform="matrix(0.0236512,0,0,0.0236512,-0.212395,-0.972477)">
        <path d="M953.171,333.571c-10.675,-17.085 -5.856,-39.354 10.765,-49.74c16.621,-10.386 38.749,-4.955 49.425,12.129c10.675,17.085 5.856,39.354 -10.765,49.74c-16.621,10.386 -38.749,4.955 -49.425,-12.129ZM618.227,216.066c-19.706,-4.188 -32.377,-23.125 -28.302,-42.295c4.075,-19.171 23.353,-31.317 43.058,-27.128c19.705,4.189 32.377,23.125 28.302,42.296c-4.075,19.17 -23.353,31.316 -43.058,27.127ZM1015.82,403.247c-6.891,-18.931 2.454,-39.712 20.871,-46.415c18.417,-6.703 38.932,3.209 45.823,22.14c6.89,18.931 -2.455,39.711 -20.872,46.415c-18.417,6.703 -38.932,-3.21 -45.822,-22.14ZM798.031,241.733c-16.503,-11.555 -20.767,-33.937 -9.526,-49.991c11.242,-16.055 33.733,-19.702 50.235,-8.147c16.502,11.555 20.767,33.937 9.526,49.991c-11.242,16.055 -33.733,19.702 -50.235,8.147ZM1058.98,476.978c-3.151,-19.898 9.986,-38.514 29.344,-41.58c19.358,-3.066 37.605,10.579 40.757,30.477c3.151,19.898 -9.987,38.513 -29.344,41.579c-19.358,3.066 -37.605,-10.579 -40.757,-30.476ZM524.134,230.755c-20.145,0 -36.477,-15.888 -36.477,-35.487c0,-19.599 16.332,-35.487 36.477,-35.487c20.146,0 36.477,15.888 36.477,35.487c0,19.599 -16.331,35.487 -36.477,35.487ZM1088.59,564.894c1.054,-20.118 17.775,-35.595 37.347,-34.57c19.572,1.026 34.584,18.166 33.53,38.285c-1.055,20.118 -17.776,35.595 -37.348,34.569c-19.572,-1.025 -34.584,-18.166 -33.529,-38.284ZM876.964,278.071c-13.995,-14.492 -13.91,-37.276 0.188,-50.891c14.098,-13.614 36.872,-12.904 50.866,1.588c13.995,14.492 13.911,37.276 -0.188,50.891c-14.098,13.614 -36.872,12.904 -50.866,-1.588ZM1098.72,656.876c5.215,-19.459 24.788,-31.122 43.719,-26.049c18.932,5.073 30.051,24.96 24.837,44.419c-5.214,19.459 -24.787,31.122 -43.719,26.049c-18.931,-5.072 -30.051,-24.959 -24.837,-44.419ZM705.527,219.565c-18.544,-7.871 -27.369,-28.877 -19.711,-46.918c7.658,-18.041 28.899,-26.285 47.443,-18.414c18.544,7.872 27.369,28.878 19.712,46.919c-7.658,18.041 -28.899,26.285 -47.444,18.413ZM1090.51,741.333c8.831,-18.107 30.27,-25.821 47.886,-17.229c17.615,8.591 24.736,30.235 15.905,48.342c-8.831,18.106 -30.271,25.82 -47.886,17.228c-17.616,-8.591 -24.737,-30.235 -15.905,-48.341ZM1062.81,829.866c12.403,-15.875 34.978,-18.962 50.422,-6.896c15.444,12.066 17.91,34.717 5.507,50.592c-12.403,15.875 -34.978,18.963 -50.422,6.897c-15.444,-12.067 -17.91,-34.718 -5.507,-50.593ZM1021.26,904.51c15.204,-13.217 37.953,-11.94 50.811,2.852c12.858,14.791 10.957,37.496 -4.248,50.713c-15.204,13.217 -37.953,11.94 -50.811,-2.851c-12.858,-14.792 -10.956,-37.497 4.248,-50.714ZM960.135,975.519c17.62,-9.766 39.606,-3.788 49.108,13.354c9.502,17.141 2.921,38.955 -14.699,48.722c-17.62,9.767 -39.606,3.788 -49.108,-13.353c-9.502,-17.142 -2.921,-38.956 14.699,-48.723ZM885.149,1032.65c19.266,-5.89 39.529,4.529 45.259,23.272c5.73,18.743 -5.242,38.711 -24.508,44.601c-19.265,5.89 -39.528,-4.529 -45.258,-23.271c-5.731,-18.743 5.242,-38.712 24.507,-44.602ZM807.023,1070.68c20.035,-2.106 37.938,11.988 39.987,31.48c2.048,19.492 -12.533,37 -32.568,39.106c-20.036,2.105 -37.938,-11.989 -39.987,-31.48c-2.048,-19.492 12.533,-37 32.568,-39.106ZM715.022,1094.83c20.035,2.106 34.616,19.614 32.568,39.106c-2.049,19.491 -19.951,33.585 -39.987,31.479c-20.035,-2.105 -34.616,-19.614 -32.568,-39.105c2.049,-19.492 19.952,-33.586 39.987,-31.48ZM627.818,1100.21c19.265,5.89 30.238,25.859 24.507,44.602c-5.73,18.742 -25.993,29.161 -45.258,23.271c-19.266,-5.89 -30.238,-25.858 -24.508,-44.601c5.73,-18.743 25.993,-29.162 45.259,-23.272ZM533.429,1087.56c17.619,9.767 24.2,31.581 14.699,48.723c-9.502,17.141 -31.489,23.12 -49.108,13.353c-17.62,-9.767 -24.201,-31.581 -14.699,-48.722c9.501,-17.142 31.488,-23.12 49.108,-13.354ZM443.824,1056.12c15.204,13.216 17.106,35.922 4.248,50.713c-12.858,14.792 -35.607,16.068 -50.811,2.851c-15.204,-13.216 -17.106,-35.922 -4.248,-50.713c12.858,-14.792 35.607,-16.068 50.811,-2.851ZM369.241,1011.97c12.403,15.875 9.937,38.526 -5.507,50.592c-15.444,12.067 -38.019,8.979 -50.422,-6.896c-12.403,-15.875 -9.937,-38.526 5.507,-50.592c15.444,-12.067 38.019,-8.979 50.422,6.896ZM299.431,949.037c8.831,18.107 1.71,39.75 -15.905,48.342c-17.616,8.592 -39.055,0.878 -47.886,-17.229c-8.832,-18.107 -1.711,-39.75 15.905,-48.342c17.615,-8.591 39.055,-0.878 47.886,17.229ZM248.562,880.095c5.215,19.459 -5.905,39.346 -24.836,44.419c-18.932,5.072 -38.505,-6.591 -43.719,-26.05c-5.214,-19.459 5.905,-39.346 24.837,-44.419c18.931,-5.072 38.504,6.59 43.718,26.05ZM209.646,795.67c1.055,20.118 -13.957,37.259 -33.529,38.284c-19.572,1.026 -36.293,-14.451 -37.348,-34.57c-1.054,-20.118 13.958,-37.258 33.53,-38.284c19.572,-1.026 36.293,14.452 37.347,34.57ZM189.666,705.225c-3.152,19.898 -21.399,33.543 -40.757,30.477c-19.357,-3.066 -32.495,-21.682 -29.344,-41.58c3.152,-19.897 21.399,-33.542 40.757,-30.476c19.358,3.066 32.495,21.681 29.344,41.579ZM188.746,620.403c-6.89,18.93 -27.406,28.843 -45.823,22.14c-18.417,-6.704 -27.761,-27.484 -20.871,-46.415c6.89,-18.931 27.406,-28.843 45.823,-22.14c18.417,6.703 27.761,27.484 20.871,46.415ZM206.76,529.549c-10.676,17.084 -32.804,22.514 -49.425,12.128c-16.621,-10.385 -21.441,-32.655 -10.765,-49.739c10.676,-17.085 32.804,-22.515 49.425,-12.129c16.621,10.386 21.44,32.655 10.765,49.74ZM243.835,444.305c-13.994,14.492 -36.768,15.203 -50.866,1.588c-14.099,-13.615 -14.183,-36.399 -0.188,-50.891c13.994,-14.491 36.768,-15.202 50.866,-1.588c14.098,13.615 14.183,36.399 0.188,50.891ZM293.196,374.283c-16.502,11.555 -38.993,7.907 -50.235,-8.147c-11.241,-16.055 -6.976,-38.437 9.526,-49.992c16.502,-11.555 38.993,-7.908 50.235,8.147c11.241,16.054 6.977,38.436 -9.526,49.992ZM361.624,309.861c-18.544,7.871 -39.785,-0.373 -47.443,-18.414c-7.658,-18.041 1.167,-39.047 19.712,-46.919c18.544,-7.871 39.785,0.373 47.443,18.414c7.658,18.041 -1.167,39.047 -19.712,46.919ZM435.233,264.113c-19.706,4.189 -38.984,-7.957 -43.058,-27.127c-4.075,-19.171 8.596,-38.108 28.301,-42.296c19.706,-4.189 38.984,7.957 43.058,27.128c4.075,19.17 -8.596,38.107 -28.301,42.295Z" style="fill:#000;"/>
    </g>
    <g id="Path2" transform="matrix(0.0236512,0,0,0.0236512,-0.212395,-0.972477)">
        <path d="M895.546,169.663c-16.503,-11.555 -20.767,-33.937 -9.526,-49.992c11.242,-16.054 33.732,-19.702 50.235,-8.147c16.502,11.555 20.767,33.937 9.526,49.992c-11.242,16.055 -33.733,19.702 -50.235,8.147ZM737.073,119.336c-19.159,-6.226 -29.782,-26.383 -23.725,-45.023c6.056,-18.639 26.498,-28.703 45.658,-22.478c19.159,6.226 29.782,26.383 23.725,45.022c-6.056,18.64 -26.498,28.704 -45.658,22.479ZM971.316,214.071c-14.491,-13.994 -15.202,-36.768 -1.588,-50.866c13.615,-14.098 36.399,-14.183 50.891,-0.188c14.492,13.994 15.203,36.768 1.588,50.866c-13.615,14.099 -36.399,14.183 -50.891,0.188ZM648.918,111.685c-19.898,-3.152 -33.543,-21.399 -30.477,-40.757c3.066,-19.357 21.682,-32.495 41.579,-29.344c19.898,3.152 33.543,21.399 30.477,40.757c-3.066,19.357 -21.682,32.495 -41.579,29.344ZM1039,269.446c-12.124,-16.089 -9.264,-38.693 6.388,-50.488c15.653,-11.795 38.17,-8.314 50.294,7.775c12.124,16.089 9.264,38.694 -6.389,50.489c-15.652,11.795 -38.17,8.313 -50.293,-7.776ZM813.552,137.315c-18.107,-8.832 -25.821,-30.271 -17.229,-47.887c8.592,-17.615 30.235,-24.736 48.342,-15.905c18.107,8.832 25.82,30.271 17.229,47.886c-8.592,17.616 -30.235,24.737 -48.342,15.906ZM1091.02,326.778c-9.766,-17.62 -3.788,-39.606 13.354,-49.108c17.141,-9.502 38.955,-2.921 48.722,14.699c9.767,17.62 3.788,39.606 -13.353,49.108c-17.142,9.502 -38.956,2.921 -48.723,-14.699ZM560.611,117.521c-20.145,0 -36.477,-15.888 -36.477,-35.487c0,-19.599 16.332,-35.487 36.477,-35.487c20.146,0 36.477,15.888 36.477,35.487c0,19.599 -16.331,35.487 -36.477,35.487ZM1139.06,398.955c-6.891,-18.93 2.454,-39.711 20.871,-46.414c18.417,-6.703 38.932,3.209 45.823,22.14c6.89,18.93 -2.454,39.711 -20.871,46.414c-18.417,6.703 -38.933,-3.209 -45.823,-22.14ZM1174.89,477.546c-3.844,-19.775 8.636,-38.838 27.875,-42.578c19.239,-3.739 37.952,9.26 41.796,29.036c3.844,19.775 -8.636,38.838 -27.875,42.578c-19.239,3.74 -37.952,-9.26 -41.796,-29.036ZM1197.62,560.616c-0.703,-20.133 14.606,-37.009 34.193,-37.693c19.587,-0.684 36.035,15.083 36.738,35.216c0.703,20.134 -14.605,37.01 -34.192,37.694c-19.587,0.684 -36.036,-15.083 -36.739,-35.217ZM1206.68,646.12c2.455,-19.996 20.215,-34.269 39.668,-31.881c19.453,2.389 33.232,20.535 30.777,40.53c-2.455,19.996 -20.215,34.269 -39.668,31.881c-19.453,-2.389 -33.232,-20.535 -30.777,-40.53ZM1203.09,722.464c5.214,-19.459 24.788,-31.122 43.719,-26.049c18.931,5.072 30.051,24.959 24.837,44.418c-5.214,19.46 -24.788,31.122 -43.719,26.05c-18.931,-5.073 -30.051,-24.96 -24.837,-44.419ZM1186.01,806.812c8.194,-18.404 29.351,-26.861 47.255,-18.89c17.905,7.972 25.777,29.354 17.583,47.758c-8.194,18.404 -29.351,26.861 -47.256,18.889c-17.904,-7.972 -25.776,-29.353 -17.582,-47.757ZM1155.57,887.531c10.972,-16.896 33.192,-21.939 49.629,-11.265c16.437,10.675 20.867,33.024 9.895,49.92c-10.972,16.896 -33.192,21.939 -49.629,11.265c-16.437,-10.675 -20.867,-33.025 -9.895,-49.92ZM1112.49,962.633c13.48,-14.971 36.215,-16.476 50.78,-3.362c14.565,13.114 15.444,35.882 1.964,50.853c-13.48,14.972 -36.215,16.477 -50.78,3.363c-14.565,-13.115 -15.444,-35.882 -1.964,-50.854ZM1064.46,1023.18c15.432,-12.949 38.155,-11.276 50.753,3.738c12.598,15.014 10.3,37.682 -5.132,50.632c-15.433,12.949 -38.156,11.276 -50.754,-3.738c-12.598,-15.014 -10.3,-37.682 5.133,-50.632ZM1000.66,1082.77c17.269,-10.375 39.45,-5.168 49.545,11.632c10.094,16.799 4.278,38.829 -12.99,49.205c-17.268,10.376 -39.45,5.169 -49.544,-11.631c-10.094,-16.8 -4.279,-38.83 12.989,-49.206ZM928.048,1131.95c18.679,-7.547 39.772,1.066 47.114,19.238c7.342,18.172 -1.848,39.021 -20.527,46.568c-18.679,7.547 -39.773,-1.067 -47.114,-19.239c-7.342,-18.172 1.848,-39.021 20.527,-46.567ZM848.414,1169.48c19.63,-4.531 39.117,7.276 43.525,26.372c4.409,19.097 -7.929,38.252 -27.559,42.784c-19.629,4.531 -39.116,-7.276 -43.525,-26.373c-4.409,-19.096 7.93,-38.251 27.559,-42.783ZM763.718,1194.46c20.097,-1.405 37.497,13.305 38.864,32.856c1.367,19.551 -13.816,36.54 -33.913,37.945c-20.097,1.406 -37.496,-13.305 -38.864,-32.856c-1.367,-19.551 13.817,-36.54 33.913,-37.945ZM685.866,1205.62c20.097,1.406 35.28,18.394 33.913,37.946c-1.367,19.551 -18.767,34.261 -38.864,32.856c-20.096,-1.405 -35.279,-18.394 -33.912,-37.945c1.367,-19.552 18.767,-34.262 38.863,-32.857ZM597.357,1205.46c19.63,4.531 31.969,23.686 27.56,42.783c-4.409,19.096 -23.896,30.904 -43.525,26.372c-19.63,-4.532 -31.968,-23.687 -27.56,-42.783c4.409,-19.097 23.896,-30.904 43.525,-26.372ZM509.968,1191.85c18.678,7.547 27.869,28.396 20.527,46.568c-7.342,18.171 -28.436,26.785 -47.115,19.238c-18.679,-7.547 -27.869,-28.396 -20.527,-46.568c7.342,-18.171 28.436,-26.785 47.115,-19.238ZM425.848,1165.14c17.269,10.375 23.084,32.405 12.99,49.205c-10.094,16.8 -32.276,22.007 -49.544,11.631c-17.268,-10.375 -23.084,-32.406 -12.99,-49.205c10.095,-16.8 32.276,-22.007 49.544,-11.631ZM347.071,1125.97c15.433,12.95 17.731,35.618 5.133,50.632c-12.598,15.014 -35.321,16.687 -50.754,3.738c-15.432,-12.95 -17.73,-35.618 -5.132,-50.632c12.598,-15.014 35.321,-16.687 50.753,-3.738ZM283.104,1081.48c13.48,14.971 12.601,37.739 -1.964,50.853c-14.565,13.115 -37.3,11.609 -50.78,-3.362c-13.48,-14.971 -12.601,-37.739 1.964,-50.853c14.565,-13.114 37.3,-11.609 50.78,3.362ZM219.566,1021.65c10.972,16.896 6.542,39.246 -9.895,49.92c-16.437,10.674 -38.657,5.631 -49.629,-11.265c-10.972,-16.895 -6.542,-39.245 9.895,-49.919c16.438,-10.675 38.657,-5.631 49.629,11.264ZM166.45,952.906c8.194,18.404 0.322,39.786 -17.583,47.758c-17.904,7.971 -39.061,-0.486 -47.255,-18.89c-8.194,-18.404 -0.322,-39.786 17.582,-47.757c17.905,-7.972 39.062,0.485 47.256,18.889ZM125.063,876.935c5.214,19.459 -5.906,39.346 -24.837,44.419c-18.931,5.073 -38.505,-6.59 -43.719,-26.049c-5.214,-19.46 5.906,-39.347 24.837,-44.419c18.931,-5.073 38.505,6.59 43.719,26.049ZM98.952,804.848c2.455,19.996 -11.324,38.141 -30.777,40.53c-19.453,2.388 -37.213,-11.885 -39.668,-31.88c-2.455,-19.996 11.324,-38.142 30.777,-40.53c19.453,-2.389 37.213,11.884 39.668,31.88ZM82.248,720.439c-0.703,20.134 -17.152,35.901 -36.739,35.217c-19.587,-0.684 -34.895,-17.56 -34.192,-37.694c0.703,-20.133 17.151,-35.9 36.738,-35.216c19.587,0.684 34.896,17.56 34.193,37.693ZM79.346,634.529c-3.844,19.775 -22.556,32.775 -41.795,29.035c-19.239,-3.74 -31.719,-22.802 -27.875,-42.578c3.844,-19.776 22.556,-32.775 41.795,-29.036c19.239,3.74 31.719,22.803 27.875,42.579ZM90.318,549.231c-6.89,18.931 -27.405,28.843 -45.823,22.14c-18.417,-6.703 -27.761,-27.484 -20.871,-46.414c6.891,-18.931 27.406,-28.844 45.823,-22.14c18.417,6.703 27.762,27.483 20.871,46.414ZM114.895,466.648c-9.767,17.619 -31.581,24.2 -48.722,14.699c-17.142,-9.502 -23.121,-31.489 -13.354,-49.108c9.767,-17.62 31.581,-24.201 48.722,-14.699c17.142,9.501 23.121,31.488 13.354,49.108ZM147.679,397.164c-12.124,16.089 -34.641,19.571 -50.294,7.776c-15.652,-11.795 -18.512,-34.4 -6.388,-50.489c12.124,-16.089 34.641,-19.57 50.293,-7.775c15.653,11.795 18.513,34.399 6.389,50.488ZM196.042,325.161c-14.492,13.995 -37.277,13.911 -50.891,-0.188c-13.615,-14.098 -12.904,-36.872 1.588,-50.866c14.491,-13.995 37.276,-13.91 50.891,0.188c13.614,14.098 12.903,36.872 -1.588,50.866ZM255.405,261.39c-16.503,11.555 -38.993,7.907 -50.235,-8.147c-11.241,-16.055 -6.977,-38.437 9.526,-49.992c16.502,-11.555 38.993,-7.908 50.235,8.147c11.241,16.054 6.976,38.436 -9.526,49.992ZM324.307,207.419c-18.107,8.831 -39.75,1.71 -48.342,-15.905c-8.591,-17.616 -0.878,-39.055 17.229,-47.886c18.107,-8.832 39.75,-1.711 48.342,15.905c8.592,17.615 0.878,39.055 -17.229,47.886ZM392.195,168.754c-19.16,6.225 -39.602,-3.839 -45.658,-22.478c-6.057,-18.64 4.566,-38.797 23.725,-45.023c19.16,-6.225 39.602,3.839 45.658,22.478c6.057,18.64 -4.566,38.797 -23.725,45.023ZM474.329,136.702c-19.898,3.151 -38.514,-9.987 -41.58,-29.344c-3.066,-19.358 10.579,-37.605 30.477,-40.757c19.898,-3.151 38.513,9.987 41.579,29.344c3.066,19.358 -10.579,37.605 -30.476,40.757Z" style="fill:#000;"/>
    </g>
</svg>
