<?xml version="1.0" encoding="UTF-8" standalone="no"?>
<!DOCTYPE svg PUBLIC "-//W3C//DTD SVG 1.1//EN" "http://www.w3.org/Graphics/SVG/1.1/DTD/svg11.dtd">
<svg width="10px" height="9px" version="1.1" xmlns="http://www.w3.org/2000/svg" xmlns:xlink="http://www.w3.org/1999/xlink" xml:space="preserve" style="fill-rule:evenodd;clip-rule:evenodd;stroke-linejoin:round;stroke-miterlimit:1.41421;">
    <g id="Page-1" transform="matrix(0.00623441,0,0,0.00623441,0,0)">
        <path id="Oval-3" d="M808.5,734c65.998,0 119.5,-53.726 119.5,-120c0,-66.274 -53.502,-120 -119.5,-120c-65.998,0 -119.5,53.726 -119.5,120c0,66.274 53.502,120 119.5,120Z" style="fill:#000;"/>
        <path id="Path-5" d="M1039,174l300,-160l240,440l-280,160l-240,400l0,340l-500,0l0,-340l-240,-400l-280,-180l240,-420l300,160l460,0ZM679,994l280,0l260,-460l-160,-260l-500,0l-160,260l280,460Z" style="fill:#000;"/>
    </g>
</svg>
