<?xml version="1.0" encoding="UTF-8" standalone="no"?>
<!DOCTYPE svg PUBLIC "-//W3C//DTD SVG 1.1//EN" "http://www.w3.org/Graphics/SVG/1.1/DTD/svg11.dtd">
<svg width="10px" height="9px" version="1.1" xmlns="http://www.w3.org/2000/svg" xmlns:xlink="http://www.w3.org/1999/xlink" xml:space="preserve" style="fill-rule:evenodd;clip-rule:evenodd;stroke-miterlimit:1.41421;">
    <g id="Page-1" transform="matrix(0.00744602,0,0,0.00744602,0,0)">
        <path id="Oval-3" d="M671.5,669c65.998,0 119.5,-53.726 119.5,-120c0,-66.274 -53.502,-120 -119.5,-120c-65.998,0 -119.5,53.726 -119.5,120c0,66.274 53.502,120 119.5,120Z" style="fill:#000;"/>
        <g id="Polygon-1" transform="matrix(-3.82857e-16,-1,1,-3.82857e-16,122,1220)">
            <path d="M671,-41l510.955,295l0,590l-510.955,295l-510.955,-295l0,-590l510.955,-295Z" style="fill:#dfdfdf;fill-opacity:0;stroke-width:100px;stroke:#000;"/>
        </g>
        <rect id="Rectangle-4" x="11" y="19" width="1320" height="1060" style="fill:#dfdfdf;fill-opacity:0;stroke-width:100px;stroke:#000;"/>
    </g>
</svg>
