<?xml version="1.0" encoding="UTF-8" standalone="no"?>
<!DOCTYPE svg PUBLIC "-//W3C//DTD SVG 1.1//EN" "http://www.w3.org/Graphics/SVG/1.1/DTD/svg11.dtd">
<svg width="15px" height="23px" version="1.1" xmlns="http://www.w3.org/2000/svg" xmlns:xlink="http://www.w3.org/1999/xlink" xml:space="preserve" style="fill-rule:evenodd;clip-rule:evenodd;stroke-linejoin:round;stroke-miterlimit:1.41421;">
    <g transform="matrix(1,0,0,1,-4.64032,-0.899482)">
        <g transform="matrix(2.29591,0,0,2.79962,-8.43023,-10.4935)">
            <g transform="matrix(0.000821067,0,0,-0.000821067,4.65269,8.1912)">
                <path d="M4599.9,5000.4c-90,-9.6 -260.4,-40.2 -381,-67c-717.9,-160.8 -1324.7,-501.6 -1841.6,-1033.8c-434.6,-448 -704.5,-884.4 -899.7,-1462.6c-124.4,-363.7 -210.6,-855.7 -210.6,-1196.5l0,-120.5l1437.7,-1805.2c790.6,-993.5 1458.53,-1828.2 1466.23,-1835.9c7.7,-7.7 296.269,0 296.269,0l-1486.8,1876.1c-817.4,1026.1 -1491.3,1878 -1497,1891.4c-21,47.9 97.6,258.4 204.8,369.5c342.7,350.3 909.3,356.1 1253.9,9.6c53.6,-53.6 120.6,-135.9 147.4,-183.8c26.8,-47.9 371.4,-959.1 763.8,-2025.4l716,-1937.3l118.7,0l139.852,-0.1c0,0 -346.652,938.1 -746.752,2019.8c-685.3,1855 -725.5,1971.8 -698.7,2012c91.9,141.7 281.4,277.6 467.1,333.1c358,111 756.2,-23 982.1,-333.1l53.6,-74.7l0,-1979.6l0,-1977.5l229.7,0l0,3957l53.6,74.7c323.5,444.1 966.8,499.6 1349.6,114.9c40.2,-38.3 84.2,-90 99.6,-112.9c28.7,-44 -1445.4,-4033.5 -1445.4,-4033.5l260.4,0l714.1,1939.2c392.4,1064.4 740.8,1983.3 775.3,2040.7c80.4,137.8 222.1,262.3 388.6,342.7c327.3,155.1 733.2,82.3 993.5,-176.1c97.6,-99.6 225.9,-315.9 214.4,-365.6c-3.8,-13.4 -670,-859.5 -1481.7,-1879.9c-809.8,-1018.4 -1510.61,-1901.2 -1510.61,-1901.2l310.31,0.2l124.4,158.9c67,86.1 719.8,905.5 1447.2,1820.6l1324.8,1661.4l0,120.6c0,342.7 -86.1,832.7 -212.5,1202.2c-291,863.4 -901.7,1617.6 -1677,2073.3c-670,396.3 -1460.6,564.7 -2243.6,484.3Z" style="fill:#9a0e0e;fill-rule:nonzero;"/>
            </g>
            <path d="M9.448,10.261l-1.371,0l0.397,0.569l0.526,0l0.448,-0.569Z" style="fill:#9a0e00;"/>
            <g transform="matrix(0.816718,0,0,2.05748,1.60133,-10.2825)">
                <path d="M9.448,10.261l-1.371,0l0.397,0.569l0.526,0l0.448,-0.569Z" style="fill:#9a0e00;"/>
            </g>
        </g>
    </g>
</svg>
