<?xml version="1.0" encoding="UTF-8" standalone="no"?>
<!DOCTYPE svg PUBLIC "-//W3C//DTD SVG 1.1//EN" "http://www.w3.org/Graphics/SVG/1.1/DTD/svg11.dtd">
<svg width="19px" height="19px" version="1.1" xmlns="http://www.w3.org/2000/svg" xmlns:xlink="http://www.w3.org/1999/xlink" xml:space="preserve" style="fill-rule:evenodd;clip-rule:evenodd;stroke-linecap:round;stroke-linejoin:round;stroke-miterlimit:1.41421;">
    <g transform="matrix(1.29665,0.00498511,-0.00502912,1.3081,-2.15814,-2.4413)">
        <path d="M15.536,6.056c-1.086,-2.327 -3.331,-3.899 -5.889,-4.123l-0.061,0.689c2.313,0.203 4.342,1.623 5.322,3.727l0.628,-0.293Z" style="fill:#000;"/>
    </g>
    <g transform="matrix(0.396679,1.23449,-1.24539,0.400182,17.2405,-5.27458)">
        <path d="M15.536,6.056c-1.086,-2.327 -3.331,-3.899 -5.889,-4.123l-0.061,0.689c2.313,0.203 4.342,1.623 5.322,3.727l0.628,-0.293Z" style="fill:#000;"/>
    </g>
    <g transform="matrix(-1.02471,0.794539,-0.801553,-1.03376,26.0252,11.7351)">
        <path d="M15.536,6.056c-1.086,-2.327 -3.331,-3.899 -5.889,-4.123l-0.061,0.689c2.313,0.203 4.342,1.623 5.322,3.727l0.628,-0.293Z" style="fill:#000;"/>
    </g>
    <g transform="matrix(-1.06494,-0.739758,0.74629,-1.07434,12.311,25.9439)">
        <path d="M15.536,6.056c-1.086,-2.327 -3.331,-3.899 -5.889,-4.123l-0.061,0.689c2.313,0.203 4.342,1.623 5.322,3.727l0.628,-0.293Z" style="fill:#000;"/>
    </g>
    <g transform="matrix(0.37006,-1.24273,1.25371,0.373328,-5.24779,17.3148)">
        <path d="M15.536,6.056c-1.086,-2.327 -3.331,-3.899 -5.889,-4.123l-0.061,0.689c2.313,0.203 4.342,1.623 5.322,3.727l0.628,-0.293Z" style="fill:#000;"/>
    </g>
    <g transform="matrix(0.702492,0,0,0.702492,-1.09882,0.268598)">
        <path d="M15.087,7.306l5.202,10.403l-10.403,0l5.201,-10.403Z" style="fill:#000;stroke-width:0.11px;stroke:#000;"/>
    </g>
</svg>
